<svg xmlns="http://www.w3.org/2000/svg" xmlns:xlink="http://www.w3.org/1999/xlink" contentStyleType="text/css" data-diagram-type="STATE" height="595px" preserveAspectRatio="none" style="width:459px;height:595px;background:#FFFFFF;" version="1.1" viewBox="0 0 459 595" width="459px" zoomAndPan="magnify"><defs/><g><rect fill="#FFFFFF" height="40" rx="12.5" ry="12.5" style="stroke:#000000;stroke-width:0.5;" width="162.0654" x="145.47" y="7"/><text fill="#000000" font-family="sans-serif" font-size="14" lengthAdjust="spacing" textLength="152.0654" x="150.47" y="31.8467">SISTEMA_DISPONIBLE</text><path d="M19.5,107 L433.5,107 A12.5,12.5 0 0 1 446,119.5 L446,133.2969 L7,133.2969 L7,119.5 A12.5,12.5 0 0 1 19.5,107" fill="#FFFFFF"/><rect fill="none" height="382.2969" rx="12.5" ry="12.5" style="stroke:#000000;stroke-width:0.5;" width="439" x="7" y="107"/><line style="stroke:#000000;stroke-width:0.5;" x1="7" x2="446" y1="133.2969" y2="133.2969"/><text fill="#000000" font-family="sans-serif" font-size="14" lengthAdjust="spacing" textLength="162.5518" x="145.2241" y="124.9951">iniciarAutomatizacion()</text><rect fill="#FFFFFF" height="40" rx="12.5" ry="12.5" style="stroke:#000000;stroke-width:0.5;" width="50" x="19" y="235.2969"/><text fill="#000000" font-family="sans-serif" font-size="14" lengthAdjust="spacing" textLength="4.4502" x="41.7749" y="260.1436">&#160;</text><rect fill="#FFFFFF" height="40" rx="12.5" ry="12.5" style="stroke:#000000;stroke-width:0.5;" width="50" x="19" y="346.2969"/><text fill="#000000" font-family="sans-serif" font-size="14" lengthAdjust="spacing" textLength="4.4502" x="41.7749" y="371.1436">&#160;</text><ellipse cx="44" cy="154.2969" fill="#222222" rx="10" ry="10" style="stroke:#222222;stroke-width:1;"/><ellipse cx="44" cy="468.2969" fill="none" rx="11" ry="11" style="stroke:#222222;stroke-width:1;"/><ellipse cx="44" cy="468.2969" fill="#222222" rx="6" ry="6" style="stroke:#222222;stroke-width:1;"/><!--link *start*MainBlock to Paso1--><g class="link" data-entity-1=".start.MainBlock" data-entity-2="Paso1" data-link-type="dependency" data-source-line="17" data-uid="lnk3" id="link_.start.MainBlock_Paso1"><path d="M44,164.7869 C44,180.8569 44,207.7269 44,228.8469" fill="none" id="*start*MainBlock-to-Paso1" style="stroke:#008000;stroke-width:1;"/><polygon fill="#008000" points="44,234.8469,48,225.8469,44,229.8469,40,225.8469,44,234.8469" style="stroke:#008000;stroke-width:1;"/><path d="M49,187.2969 L49,212.2969 L347,212.2969 L347,197.2969 L337,187.2969 L49,187.2969" fill="#FFFFE0" style="stroke:#808080;stroke-width:0.5;"/><path d="M337,187.2969 L337,197.2969 L347,197.2969 L337,187.2969" fill="#FFFFE0" style="stroke:#808080;stroke-width:0.5;"/><text fill="#000000" font-family="sans-serif" font-size="13" font-weight="bold" lengthAdjust="spacing" textLength="113.3755" x="55" y="204.3638">Usuario solicita</text><text fill="#000000" font-family="sans-serif" font-size="13" lengthAdjust="spacing" textLength="159.7134" x="172.5078" y="204.3638">iniciar la automatizaci&#243;n</text></g><!--link Paso1 to Paso2--><g class="link" data-entity-1="Paso1" data-entity-2="Paso2" data-link-type="dependency" data-source-line="25" data-uid="lnk4" id="link_Paso1_Paso2"><path d="M44,275.7869 C44,295.6269 44,320.1969 44,339.9769" fill="none" id="Paso1-to-Paso2" style="stroke:#008000;stroke-width:1;"/><polygon fill="#008000" points="44,345.9769,48,336.9769,44,340.9769,40,336.9769,44,345.9769" style="stroke:#008000;stroke-width:1;"/><path d="M49,298.2969 L49,323.2969 L437,323.2969 L437,308.2969 L427,298.2969 L49,298.2969" fill="#FFFFE0" style="stroke:#808080;stroke-width:0.5;"/><path d="M427,298.2969 L427,308.2969 L437,308.2969 L427,298.2969" fill="#FFFFE0" style="stroke:#808080;stroke-width:0.5;"/><text fill="#000000" font-family="sans-serif" font-size="13" font-weight="bold" lengthAdjust="spacing" textLength="184.666" x="55" y="315.3638">Sistema permite solicitar</text><text fill="#000000" font-family="sans-serif" font-size="13" lengthAdjust="spacing" textLength="178.4263" x="243.7983" y="315.3638">el inicio de la configuraci&#243;n</text></g><!--link Paso2 to *end*MainBlock--><g class="link" data-entity-1="Paso2" data-entity-2=".end.MainBlock" data-link-type="dependency" data-source-line="34" data-uid="lnk6" id="link_Paso2_.end.MainBlock"><path d="M44,386.5769 C44,407.5769 44,434.3769 44,450.9569" fill="none" id="Paso2-to-*end*MainBlock" style="stroke:#008000;stroke-width:1;"/><polygon fill="#008000" points="44,456.9569,48,447.9569,44,451.9569,40,447.9569,44,456.9569" style="stroke:#008000;stroke-width:1;"/><path d="M49,409.2969 L49,434.2969 L401,434.2969 L401,419.2969 L391,409.2969 L49,409.2969" fill="#FFFFE0" style="stroke:#808080;stroke-width:0.5;"/><path d="M391,409.2969 L391,419.2969 L401,419.2969 L391,409.2969" fill="#FFFFE0" style="stroke:#808080;stroke-width:0.5;"/><text fill="#000000" font-family="sans-serif" font-size="13" font-weight="bold" lengthAdjust="spacing" textLength="124.1855" x="55" y="426.3638">Sistema muestra</text><text fill="#000000" font-family="sans-serif" font-size="13" lengthAdjust="spacing" textLength="202.9219" x="183.3179" y="426.3638">el monitoreo en segundo plano</text></g><rect fill="#FFFFFF" height="40" rx="12.5" ry="12.5" style="stroke:#000000;stroke-width:0.5;" width="196.4844" x="128.26" y="549.3"/><text fill="#000000" font-family="sans-serif" font-size="14" lengthAdjust="spacing" textLength="186.4844" x="133.26" y="574.1467">AUTOMATIZACION_ACTIVA</text><!--link SISTEMA_DISPONIBLE to MainBlock--><g class="link" data-entity-1="SISTEMA_DISPONIBLE" data-entity-2="MainBlock" data-link-type="dependency" data-source-line="41" data-uid="lnk7" id="link_SISTEMA_DISPONIBLE_MainBlock"><path d="M226.5,47.36 C226.5,61.64 226.5,76.7 226.5,100.62" fill="none" id="SISTEMA_DISPONIBLE-to-MainBlock" style="stroke:#008000;stroke-width:1;"/><polygon fill="#008000" points="226.5,106.62,230.5,97.62,226.5,101.62,222.5,97.62,226.5,106.62" style="stroke:#008000;stroke-width:1;"/></g><!--link MainBlock to AUTOMATIZACION_ACTIVA--><g class="link" data-entity-1="MainBlock" data-entity-2="AUTOMATIZACION_ACTIVA" data-link-type="dependency" data-source-line="44" data-uid="lnk8" id="link_MainBlock_AUTOMATIZACION_ACTIVA"><path d="M226.5,489.73 C226.5,513.72 226.5,528.82 226.5,543.1" fill="none" id="MainBlock-to-AUTOMATIZACION_ACTIVA" style="stroke:#008000;stroke-width:1;"/><polygon fill="#008000" points="226.5,549.1,230.5,540.1,226.5,544.1,222.5,540.1,226.5,549.1" style="stroke:#008000;stroke-width:1;"/></g><!--SRC=[dPBHQjim58Rl_HI7tAmrXB5SzcAWPAO8uZh4JiOsHZcrjKIBh6CaUQ4RUwezGbziiXoxAUrWcouCFZhdztT-_tjP2H1ru-wX4hOqid6IT1JPWzGD6gp1EdG2VaJWpnpBmyvGgwi5AJBmVY-Tw6_8LCBqrRdoRQ7AZA5ZNxmsGkZevvcmfZ_gBkLkxpu8fUZuJFtQuBtNYNgkdET5ahBRTpnVPJTylao6cudKifHeMEkeHYU_O-atkxYS05f8KUgvel9m0WYFJ_5dc4xVmWejlGcLW4WQbDJzGjrv1LjXxWY4TKQMZhnn2jYYoDPNa6TBlk056vlZU6DRD9B0al8y3kCOJcIW4F2Cxk6N3dD2L-7BKNZhjmbC7Va49e_4VNLWdlqZyycxArWbwvGNoKY_Ffkxo0Mq5g5iKLTUG86LreaQuHigMI7G0RhiV4LeqAAvF5izFtKsmjG-AAC5ndlWXO8D7KfdH4dwYzorvYzyc0q-Z1xCWWV-__sl0-acoOirWzUmvVc6BVb7zi8UTTjDOqzVavQEZF2I6gpOjPqzZK9DJ-5zL9-75AOL7RLd7eCun9PjYYnbXGTOyEpcrkUARrdqcDTXyCM-tm00]--></g></svg>