<svg xmlns="http://www.w3.org/2000/svg" xmlns:xlink="http://www.w3.org/1999/xlink" contentStyleType="text/css" data-diagram-type="STATE" height="567px" preserveAspectRatio="none" style="width:385px;height:567px;background:#FFFFFF;" version="1.1" viewBox="0 0 385 567" width="385px" zoomAndPan="magnify"><defs/><g><rect fill="#FFFFFF" height="40" rx="12.5" ry="12.5" style="stroke:#000000;stroke-width:0.5;" width="162.0654" x="18.5" y="7"/><text fill="#000000" font-family="sans-serif" font-size="14" lengthAdjust="spacing" textLength="152.0654" x="23.5" y="31.8467">SISTEMA_DISPONIBLE</text><rect fill="#FFFFFF" height="40" rx="12.5" ry="12.5" style="stroke:#000000;stroke-width:0.5;" width="128.7402" x="216" y="7"/><text fill="#000000" font-family="sans-serif" font-size="14" lengthAdjust="spacing" textLength="118.7402" x="221" y="31.8467">GRUPO_ABIERTO</text><rect fill="#FFFFFF" height="40" rx="12.5" ry="12.5" style="stroke:#000000;stroke-width:0.5;" width="137.627" x="120.5" y="521"/><text fill="#000000" font-family="sans-serif" font-size="14" lengthAdjust="spacing" textLength="127.627" x="125.5" y="545.8467">GRUPOS_ABIERTO</text><path d="M19.5,107 L359.5,107 A12.5,12.5 0 0 1 372,119.5 L372,133.2969 L7,133.2969 L7,119.5 A12.5,12.5 0 0 1 19.5,107" fill="#FFFFFF"/><rect fill="none" height="354.2969" rx="12.5" ry="12.5" style="stroke:#000000;stroke-width:0.5;" width="365" x="7" y="107"/><line style="stroke:#000000;stroke-width:0.5;" x1="7" x2="372" y1="133.2969" y2="133.2969"/><text fill="#000000" font-family="sans-serif" font-size="14" lengthAdjust="spacing" textLength="94.0146" x="142.4927" y="124.9951">abrirGrupos()</text><rect fill="#FFFFFF" height="40" rx="12.5" ry="12.5" style="stroke:#000000;stroke-width:0.5;" width="50" x="19" y="235.2969"/><text fill="#000000" font-family="sans-serif" font-size="14" lengthAdjust="spacing" textLength="4.4502" x="41.7749" y="260.1436">&#160;</text><ellipse cx="44" cy="154.2969" fill="#222222" rx="10" ry="10" style="stroke:#222222;stroke-width:1;"/><ellipse cx="44" cy="440.2969" fill="none" rx="11" ry="11" style="stroke:#222222;stroke-width:1;"/><ellipse cx="44" cy="440.2969" fill="#222222" rx="6" ry="6" style="stroke:#222222;stroke-width:1;"/><!--link *start*MainBlock to Paso1--><g class="link" data-entity-1=".start.MainBlock" data-entity-2="Paso1" data-source-line="25" data-uid="lnk3" id="link_.start.MainBlock_Paso1"><path d="M44,164.4369 C44,180.4169 44,207.7869 44,229.0669" fill="none" id="*start*MainBlock-to-Paso1" style="stroke:#008000;stroke-width:1;"/><polygon fill="#008000" points="44,235.0669,48,226.0669,44,230.0669,40,226.0669,44,235.0669" style="stroke:#008000;stroke-width:1;"/><path d="M49,187.2969 L49,212.2969 L308,212.2969 L308,197.2969 L298,187.2969 L49,187.2969" fill="#FFFFE0" style="stroke:#808080;stroke-width:0.5;"/><path d="M298,187.2969 L298,197.2969 L308,197.2969 L298,187.2969" fill="#FFFFE0" style="stroke:#808080;stroke-width:0.5;"/><text fill="#000000" font-family="sans-serif" font-size="13" font-weight="bold" lengthAdjust="spacing" textLength="104.8633" x="55" y="204.3638">Administrador</text><text fill="#000000" font-family="sans-serif" font-size="13" lengthAdjust="spacing" textLength="129.3716" x="163.9956" y="204.3638">solicita abrir grupos</text></g><!--link Paso1 to *end*MainBlock--><g class="link" data-entity-1="Paso1" data-entity-2=".end.MainBlock" data-source-line="35" data-uid="lnk5" id="link_Paso1_.end.MainBlock"><path d="M44,275.5369 C44,314.0769 44,393.5869 44,423.0669" fill="none" id="Paso1-to-*end*MainBlock" style="stroke:#008000;stroke-width:1;"/><polygon fill="#008000" points="44,429.0669,48,420.0669,44,424.0669,40,420.0669,44,429.0669" style="stroke:#008000;stroke-width:1;"/><path d="M49,298.2969 L49,406.2969 L363,406.2969 L363,308.2969 L353,298.2969 L49,298.2969" fill="#FFFFE0" style="stroke:#808080;stroke-width:0.5;"/><path d="M353,298.2969 L353,308.2969 L363,308.2969 L353,298.2969" fill="#FFFFE0" style="stroke:#808080;stroke-width:0.5;"/><text fill="#000000" font-family="sans-serif" font-size="13" font-weight="bold" lengthAdjust="spacing" textLength="58.9063" x="55" y="315.3638">Sistema</text><text fill="#000000" font-family="sans-serif" font-size="13" lengthAdjust="spacing" textLength="156.8188" x="118.0386" y="315.3638">visualiza lista de grupos</text><ellipse cx="60.5" cy="326.0625" fill="#000000" rx="2.5" ry="2.5"/><text fill="#000000" font-family="sans-serif" font-size="13" lengthAdjust="spacing" textLength="178.2739" x="67" y="330.4966">ID y nombre de cada grupo</text><line style="stroke:#808080;stroke-width:1;" x1="50" x2="362.6172" y1="333.5625" y2="333.5625"/><text fill="#000000" font-family="sans-serif" font-size="13" font-weight="bold" lengthAdjust="spacing" textLength="58.9063" x="55" y="349.6294">Sistema</text><text fill="#000000" font-family="sans-serif" font-size="13" lengthAdjust="spacing" textLength="230.5786" x="118.0386" y="349.6294">permite solicitar crear grupo nuevo</text><text fill="#000000" font-family="sans-serif" font-size="13" font-weight="bold" lengthAdjust="spacing" textLength="58.9063" x="55" y="364.7622">Sistema</text><text fill="#000000" font-family="sans-serif" font-size="13" lengthAdjust="spacing" textLength="190.7915" x="118.0386" y="364.7622">permite solicitar editar grupo</text><text fill="#000000" font-family="sans-serif" font-size="13" font-weight="bold" lengthAdjust="spacing" textLength="58.9063" x="55" y="379.895">Sistema</text><text fill="#000000" font-family="sans-serif" font-size="13" lengthAdjust="spacing" textLength="225.437" x="118.0386" y="379.895">permite solicitar unirse a un grupo</text><text fill="#000000" font-family="sans-serif" font-size="13" font-weight="bold" lengthAdjust="spacing" textLength="58.9063" x="55" y="395.0278">Sistema</text><text fill="#000000" font-family="sans-serif" font-size="13" lengthAdjust="spacing" textLength="205.5688" x="118.0386" y="395.0278">permite solicitar eliminar grupo</text></g><!--link SISTEMA_DISPONIBLE to MainBlock--><g class="link" data-entity-1="SISTEMA_DISPONIBLE" data-entity-2="MainBlock" data-source-line="50" data-uid="lnk6" id="link_SISTEMA_DISPONIBLE_MainBlock"><path d="M106.26,47.17 C111.35,61.59 116.8934,77.2819 125.3834,101.3419" fill="none" id="SISTEMA_DISPONIBLE-to-MainBlock" style="stroke:#008000;stroke-width:1;"/><polygon fill="#008000" points="127.38,107,128.1572,97.1819,125.7162,102.2849,120.6131,99.8439,127.38,107" style="stroke:#008000;stroke-width:1;"/></g><!--link GRUPO_ABIERTO to MainBlock--><g class="link" data-entity-1="GRUPO_ABIERTO" data-entity-2="MainBlock" data-source-line="51" data-uid="lnk7" id="link_GRUPO_ABIERTO_MainBlock"><path d="M273.66,47.17 C268.51,61.59 262.9053,77.2886 254.3253,101.3486" fill="none" id="GRUPO_ABIERTO-to-MainBlock" style="stroke:#008000;stroke-width:1;"/><polygon fill="#008000" points="252.31,107,259.1006,99.8664,253.9894,102.2905,251.5654,97.1793,252.31,107" style="stroke:#008000;stroke-width:1;"/></g><!--link MainBlock to GRUPOS_ABIERTO--><g class="link" data-entity-1="MainBlock" data-entity-2="GRUPOS_ABIERTO" data-source-line="54" data-uid="lnk8" id="link_MainBlock_GRUPOS_ABIERTO"><path d="M189.5,461.06 C189.5,485.13 189.5,500.48 189.5,514.89" fill="none" id="MainBlock-to-GRUPOS_ABIERTO" style="stroke:#008000;stroke-width:1;"/><polygon fill="#008000" points="189.5,520.89,193.5,511.89,189.5,515.89,185.5,511.89,189.5,520.89" style="stroke:#008000;stroke-width:1;"/></g><!--SRC=[bLHDRzD04BtxLunooOUKIWLE792IDaIMMX8r1OGGgjRsa0nPxvhTTKAB-E_CxZgkGueeFjZMxBmty-PZDrGWO5cvUoZGveOgHrebIHzcrf7K5dPaQo7H9dPBgX96b62TS0W_4-1dAlBjskXQ5HTQQWCVD-GmdcXJe8dMgMItO9qOe_VHE3U8AldL8LRwhxnNjDwuJoYbtf-mpusuPnvE-lpCvoqApfjrpPGpeX0muA2KYM4I4r-bgzlPzUJkCbqj5-_IwTMiEPZVl5ykxYRJT7Ppk_1qBmvqdcqb90MoJ7pJmovarSMyR36vBgiQhTDG6L8vLKA-1f4PCdDJLzeE3YIz8sCFX8LhGMegTRvjoX5UVKWLvUIpaP19_RsEbVuy-WBZyHjO2glFWoKKKYkGf6BP8_m3cYoY9xdJfZqPZIP5IOgihvSsen5OBJcI4p5VM8VSWZ-g8j0dJKgDM58EJOa5-L-U6Seami2t5IpwZsacgKJs70PmL1-ozffxqEjgVKlgJw7HrKjboVyKQWDynQgm51sjZOLLnepeGJ2Ua_5TxYWDtf1UmZs7AJE3_Zpt0nMSMfynFq_ILrmHteQsc0PoWwAf9gWQT_gPEAwhEm2V2QaL6OiW-EU_S2Y9H-4eMDloi6Elpk12A_p1zmJV2dsOb1at3-EkMP0ITqA1E3JkSVYJqyM3SQ7tYllPpdjoj8HFdFkhwPGxXlLHCSxZLzOWaySrEX0TB-nl]--></g></svg>