<svg xmlns="http://www.w3.org/2000/svg" xmlns:xlink="http://www.w3.org/1999/xlink" contentStyleType="text/css" data-diagram-type="STATE" height="795px" preserveAspectRatio="none" style="width:600px;height:795px;background:#FFFFFF;" version="1.1" viewBox="0 0 600 795" width="600px" zoomAndPan="magnify"><defs/><g><g id="SISTEMA_DISPONIBLE"><rect fill="#FFFFFF" height="50" rx="12.5" ry="12.5" style="stroke:#000000;stroke-width:0.5;" width="172.0654" x="163.94" y="7"/><line style="stroke:#000000;stroke-width:0.5;" x1="163.94" x2="336.0054" y1="33.2969" y2="33.2969"/><text fill="#000000" font-family="sans-serif" font-size="14" lengthAdjust="spacing" textLength="152.0654" x="173.94" y="24.9951">SISTEMA_DISPONIBLE</text></g><path d="M82.44,152 L417.44,152 A12.5,12.5 0 0 1 429.94,164.5 L429.94,178.2969 L69.94,178.2969 L69.94,164.5 A12.5,12.5 0 0 1 82.44,152" fill="#FFFFFF"/><rect fill="none" height="492.2969" rx="12.5" ry="12.5" style="stroke:#000000;stroke-width:0.5;" width="360" x="69.94" y="152"/><line style="stroke:#000000;stroke-width:0.5;" x1="69.94" x2="429.94" y1="178.2969" y2="178.2969"/><text fill="#000000" font-family="sans-serif" font-size="14" lengthAdjust="spacing" textLength="94.0146" x="202.9327" y="169.9951">abrirGrupos()</text><g id="AbrirGruposContainer.PasoInicial"><rect fill="#FFFFFF" height="50" rx="12.5" ry="12.5" style="stroke:#000000;stroke-width:0.5;" width="50" x="81.94" y="280.2969"/><line style="stroke:#000000;stroke-width:0.5;" x1="81.94" x2="131.94" y1="306.5938" y2="306.5938"/><text fill="#000000" font-family="sans-serif" font-size="14" lengthAdjust="spacing" textLength="4.4502" x="104.7149" y="298.292">&#160;</text></g><g id="AbrirGruposContainer.PasoLista"><rect fill="#FFFFFF" height="50" rx="12.5" ry="12.5" style="stroke:#000000;stroke-width:0.5;" width="50" x="81.94" y="491.2969"/><line style="stroke:#000000;stroke-width:0.5;" x1="81.94" x2="131.94" y1="517.5938" y2="517.5938"/><text fill="#000000" font-family="sans-serif" font-size="14" lengthAdjust="spacing" textLength="4.4502" x="104.7149" y="509.292">&#160;</text></g><ellipse cx="106.94" cy="199.2969" fill="#222222" rx="10" ry="10" style="stroke:#222222;stroke-width:1;"/><ellipse cx="106.94" cy="623.2969" fill="none" rx="11" ry="11" style="stroke:#222222;stroke-width:1;"/><ellipse cx="106.94" cy="623.2969" fill="#222222" rx="6" ry="6" style="stroke:#222222;stroke-width:1;"/><!--link *start*AbrirGruposContainer to PasoInicial--><g class="link" data-entity-1=".start.AbrirGruposContainer" data-entity-2="PasoInicial" data-source-line="32" data-uid="lnk3" id="link_.start.AbrirGruposContainer_PasoInicial"><path d="M106.94,209.5269 C106.94,225.2369 106.94,251.6569 106.94,274.1669" fill="none" id="*start*AbrirGruposContainer-to-PasoInicial" style="stroke:#009900;stroke-width:1;"/><polygon fill="#009900" points="106.94,280.1669,110.94,271.1669,106.94,275.1669,102.94,271.1669,106.94,280.1669" style="stroke:#009900;stroke-width:1;"/><path d="M111.94,232.2969 L111.94,257.2969 L370.94,257.2969 L370.94,242.2969 L360.94,232.2969 L111.94,232.2969" fill="#FFFFE0" style="stroke:#B0B060;stroke-width:0.5;"/><path d="M360.94,232.2969 L360.94,242.2969 L370.94,242.2969 L360.94,232.2969" fill="#FFFFE0" style="stroke:#B0B060;stroke-width:0.5;"/><text fill="#000000" font-family="Arial" font-size="13" font-weight="bold" lengthAdjust="spacing" textLength="104.8633" x="117.94" y="249.3638">Administrador</text><text fill="#000000" font-family="Arial" font-size="13" lengthAdjust="spacing" textLength="129.3716" x="226.9356" y="249.3638">solicita abrir grupos</text></g><!--link PasoInicial to PasoLista--><g class="link" data-entity-1="PasoInicial" data-entity-2="PasoLista" data-source-line="38" data-uid="lnk4" id="link_PasoInicial_PasoLista"><path d="M106.94,330.6769 C106.94,370.9569 106.94,444.8969 106.94,485.0669" fill="none" id="PasoInicial-to-PasoLista" style="stroke:#009900;stroke-width:1;"/><polygon fill="#009900" points="106.94,491.0669,110.94,482.0669,106.94,486.0669,102.94,482.0669,106.94,491.0669" style="stroke:#009900;stroke-width:1;"/><path d="M111.94,353.2969 L111.94,468.2969 L373.94,468.2969 L373.94,363.2969 L363.94,353.2969 L111.94,353.2969" fill="#FFFFE0" style="stroke:#B0B060;stroke-width:0.5;"/><path d="M363.94,353.2969 L363.94,363.2969 L373.94,363.2969 L363.94,353.2969" fill="#FFFFE0" style="stroke:#B0B060;stroke-width:0.5;"/><text fill="#000000" font-family="Arial" font-size="13" font-weight="bold" lengthAdjust="spacing" textLength="58.9063" x="117.94" y="370.3638">Sistema</text><text fill="#000000" font-family="Arial" font-size="13" lengthAdjust="spacing" textLength="158.1899" x="180.9786" y="370.3638">presenta lista de grupos</text><text fill="#000000" font-family="Arial" font-size="13" lengthAdjust="spacing" textLength="190.0742" x="117.94" y="385.4966">&#8226; ID y nombre de cada grupo</text><text fill="#000000" font-family="Arial" font-size="13" lengthAdjust="spacing" textLength="188.481" x="117.94" y="400.6294">&#8226; Permite solicitar filtrar lista</text><text fill="#000000" font-family="Arial" font-size="13" lengthAdjust="spacing" textLength="241.9663" x="117.94" y="415.7622">&#8226; Permite solicitar crear grupo nuevo</text><text fill="#000000" font-family="Arial" font-size="13" lengthAdjust="spacing" textLength="202.1792" x="117.94" y="430.895">&#8226; Permite solicitar editar grupo</text><text fill="#000000" font-family="Arial" font-size="13" lengthAdjust="spacing" textLength="236.8247" x="117.94" y="446.0278">&#8226; Permite solicitar unirse a un grupo</text><text fill="#000000" font-family="Arial" font-size="13" lengthAdjust="spacing" textLength="216.9565" x="117.94" y="461.1606">&#8226; Permite solicitar eliminar grupo</text></g><!--link PasoLista to PasoLista--><g class="link" data-entity-1="PasoLista" data-entity-2="PasoLista" data-source-line="50" data-uid="lnk5" id="link_PasoLista_PasoLista"><path d="M132.12,505.0869 C141.85,504.5969 149.94,508.3269 149.94,516.2969 C149.94,524.2669 147.8424,528.2987 138.1124,527.8087" fill="none" id="PasoLista-to-PasoLista" style="stroke:#009900;stroke-width:1;"/><polygon fill="#009900" points="132.12,527.5069,140.9074,531.9545,137.1137,527.7584,141.3098,523.9646,132.12,527.5069" style="stroke:#009900;stroke-width:1;"/><path d="M154.94,496.2969 L154.94,536.2969 L400.94,536.2969 L400.94,506.2969 L390.94,496.2969 L154.94,496.2969" fill="#FFFFE0" style="stroke:#B0B060;stroke-width:0.5;"/><path d="M390.94,496.2969 L390.94,506.2969 L400.94,506.2969 L390.94,496.2969" fill="#FFFFE0" style="stroke:#B0B060;stroke-width:0.5;"/><text fill="#000000" font-family="Arial" font-size="13" font-weight="bold" lengthAdjust="spacing" textLength="104.8633" x="160.94" y="513.3638">Administrador</text><text fill="#000000" font-family="Arial" font-size="13" lengthAdjust="spacing" textLength="116.6509" x="269.9356" y="513.3638">solicita filtrar lista</text><text fill="#000000" font-family="Arial" font-size="13" font-weight="bold" lengthAdjust="spacing" textLength="58.9063" x="160.94" y="528.4966">Sistema</text><text fill="#000000" font-family="Arial" font-size="13" lengthAdjust="spacing" textLength="139.4199" x="223.9786" y="528.4966">presenta lista filtrada</text></g><!--link PasoLista to *end*AbrirGruposContainer--><g class="link" data-entity-1="PasoLista" data-entity-2=".end.AbrirGruposContainer" data-source-line="57" data-uid="lnk7" id="link_PasoLista_.end.AbrirGruposContainer"><path d="M106.94,541.3869 C106.94,563.7869 106.94,590.0669 106.94,606.2469" fill="none" id="PasoLista-to-*end*AbrirGruposContainer" style="stroke:#009900;stroke-width:1;"/><polygon fill="#009900" points="106.94,612.2469,110.94,603.2469,106.94,607.2469,102.94,603.2469,106.94,612.2469" style="stroke:#009900;stroke-width:1;"/><path d="M111.94,564.2969 L111.94,589.2969 L420.94,589.2969 L420.94,574.2969 L410.94,564.2969 L111.94,564.2969" fill="#FFFFE0" style="stroke:#B0B060;stroke-width:0.5;"/><path d="M410.94,564.2969 L410.94,574.2969 L420.94,574.2969 L410.94,564.2969" fill="#FFFFE0" style="stroke:#B0B060;stroke-width:0.5;"/><text fill="#000000" font-family="Arial" font-size="13" font-weight="bold" lengthAdjust="spacing" textLength="104.8633" x="117.94" y="581.3638">Administrador</text><text fill="#000000" font-family="Arial" font-size="13" lengthAdjust="spacing" textLength="179.2769" x="226.9356" y="581.3638">solicita una de las opciones</text></g><g id="GRUPO_ABIERTO"><rect fill="#FFFFFF" height="50" rx="12.5" ry="12.5" style="stroke:#000000;stroke-width:0.5;" width="138.7402" x="43.44" y="739"/><line style="stroke:#000000;stroke-width:0.5;" x1="43.44" x2="182.1802" y1="765.2969" y2="765.2969"/><text fill="#000000" font-family="sans-serif" font-size="14" lengthAdjust="spacing" textLength="118.7402" x="53.44" y="756.9951">GRUPO_ABIERTO</text></g><g id="ORGANIZACION_GRUPOS_ABIERTO"><rect fill="#FFFFFF" height="50" rx="12.5" ry="12.5" style="stroke:#000000;stroke-width:0.5;" width="264.9658" x="255.44" y="739"/><line style="stroke:#000000;stroke-width:0.5;" x1="255.44" x2="520.4058" y1="765.2969" y2="765.2969"/><text fill="#000000" font-family="sans-serif" font-size="14" lengthAdjust="spacing" textLength="244.9658" x="265.44" y="756.9951">ORGANIZACION_GRUPOS_ABIERTO</text></g><!--link SISTEMA_DISPONIBLE to AbrirGruposContainer--><g class="link" data-entity-1="SISTEMA_DISPONIBLE" data-entity-2="AbrirGruposContainer" data-source-line="68" data-uid="lnk8" id="link_SISTEMA_DISPONIBLE_AbrirGruposContainer"><path d="M246.14,57.13 C244.85,66.44 243.57,77.19 242.94,87 C241.94,102.52 242.74,106.45 242.94,122 C243.07,131.79 243.1089,135.7709 243.2789,145.8609" fill="none" id="SISTEMA_DISPONIBLE-to-AbrirGruposContainer" style="stroke:#009900;stroke-width:1;"/><polygon fill="#009900" points="243.38,151.86,247.2278,142.7939,243.2958,146.8607,239.229,142.9287,243.38,151.86" style="stroke:#009900;stroke-width:1;"/></g><!--link AbrirGruposContainer to SISTEMA_DISPONIBLE--><g class="link" data-entity-1="AbrirGruposContainer" data-entity-2="SISTEMA_DISPONIBLE" data-source-line="93" data-uid="lnk13" id="link_AbrirGruposContainer_SISTEMA_DISPONIBLE"><path d="M249.94,151.72 C249.94,113.11 249.94,84.84 249.94,63.16" fill="none" id="AbrirGruposContainer-to-SISTEMA_DISPONIBLE" style="stroke:#009900;stroke-width:1;"/><polygon fill="#009900" points="249.94,57.16,245.94,66.16,249.94,62.16,253.94,66.16,249.94,57.16" style="stroke:#009900;stroke-width:1;"/><path d="M254.94,92 L254.94,117 L400.94,117 L400.94,102 L390.94,92 L254.94,92" fill="#FFFFE0" style="stroke:#B0B060;stroke-width:0.5;"/><path d="M390.94,92 L390.94,102 L400.94,102 L390.94,92" fill="#FFFFE0" style="stroke:#B0B060;stroke-width:0.5;"/><text fill="#000000" font-family="Arial" font-size="13" lengthAdjust="spacing" textLength="125.9248" x="260.94" y="109.0669">completarGestion()</text></g><!--link AbrirGruposContainer to GRUPO_ABIERTO--><g class="link" data-entity-1="AbrirGruposContainer" data-entity-2="GRUPO_ABIERTO" data-source-line="73" data-uid="lnk9" id="link_AbrirGruposContainer_GRUPO_ABIERTO"><path d="M69.8,573.51 C46.97,604.69 27.05,638.6 13.94,674 C8.54,688.59 6,695.62 13.94,709 C21.39,721.54 27.7484,728.2508 40.3084,735.8608" fill="none" id="AbrirGruposContainer-to-GRUPO_ABIERTO" style="stroke:#009900;stroke-width:1;"/><polygon fill="#009900" points="45.44,738.97,39.8154,730.8852,41.1637,736.379,35.6699,737.7273,45.44,738.97" style="stroke:#009900;stroke-width:1;"/><path d="M18.94,679 L18.94,704 L122.94,704 L122.94,689 L112.94,679 L18.94,679" fill="#FFFFE0" style="stroke:#B0B060;stroke-width:0.5;"/><path d="M112.94,679 L112.94,689 L122.94,689 L112.94,679" fill="#FFFFE0" style="stroke:#B0B060;stroke-width:0.5;"/><text fill="#000000" font-family="Arial" font-size="13" lengthAdjust="spacing" textLength="83.8081" x="24.94" y="696.0669">crearGrupo()</text></g><!--link AbrirGruposContainer to GRUPO_ABIERTO--><g class="link" data-entity-1="AbrirGruposContainer" data-entity-2="GRUPO_ABIERTO" data-source-line="78" data-uid="lnk10" id="link_AbrirGruposContainer_GRUPO_ABIERTO"><path d="M157.7,644.06 C143.11,682.83 132.2741,711.6348 124.1041,733.3348" fill="none" id="AbrirGruposContainer-to-GRUPO_ABIERTO-1" style="stroke:#009900;stroke-width:1;"/><polygon fill="#009900" points="121.99,738.95,128.9046,731.9366,123.7518,734.2707,121.4177,729.1178,121.99,738.95" style="stroke:#009900;stroke-width:1;"/><path d="M151.94,679 L151.94,704 L260.94,704 L260.94,689 L250.94,679 L151.94,679" fill="#FFFFE0" style="stroke:#B0B060;stroke-width:0.5;"/><path d="M250.94,679 L250.94,689 L260.94,689 L250.94,679" fill="#FFFFE0" style="stroke:#B0B060;stroke-width:0.5;"/><text fill="#000000" font-family="Arial" font-size="13" lengthAdjust="spacing" textLength="88.2769" x="157.94" y="696.0669">editarGrupo()</text></g><!--link AbrirGruposContainer to ORGANIZACION_GRUPOS_ABIERTO--><g class="link" data-entity-1="AbrirGruposContainer" data-entity-2="ORGANIZACION_GRUPOS_ABIERTO" data-source-line="83" data-uid="lnk11" id="link_AbrirGruposContainer_ORGANIZACION_GRUPOS_ABIERTO"><path d="M295.79,644.15 C304.44,666.84 314.73,688.84 326.94,709 C333.76,720.25 339.1096,726.551 348.9696,734.981" fill="none" id="AbrirGruposContainer-to-ORGANIZACION_GRUPOS_ABIERTO" style="stroke:#009900;stroke-width:1;"/><polygon fill="#009900" points="353.53,738.88,349.2887,729.9912,349.7296,735.6308,344.09,736.0717,353.53,738.88" style="stroke:#009900;stroke-width:1;"/><path d="M331.94,679 L331.94,704 L455.94,704 L455.94,689 L445.94,679 L331.94,679" fill="#FFFFE0" style="stroke:#B0B060;stroke-width:0.5;"/><path d="M445.94,679 L445.94,689 L455.94,689 L445.94,679" fill="#FFFFE0" style="stroke:#B0B060;stroke-width:0.5;"/><text fill="#000000" font-family="Arial" font-size="13" lengthAdjust="spacing" textLength="103.0542" x="337.94" y="696.0669">eliminarGrupo()</text></g><!--link AbrirGruposContainer to ORGANIZACION_GRUPOS_ABIERTO--><g class="link" data-entity-1="AbrirGruposContainer" data-entity-2="ORGANIZACION_GRUPOS_ABIERTO" data-source-line="88" data-uid="lnk12" id="link_AbrirGruposContainer_ORGANIZACION_GRUPOS_ABIERTO"><path d="M429.96,600.15 C444.07,623.84 456.21,648.65 464.94,674 C470.01,688.71 472.12,695.2 464.94,709 C458.69,721.02 453.273,727.4434 442.223,735.3334" fill="none" id="AbrirGruposContainer-to-ORGANIZACION_GRUPOS_ABIERTO-1" style="stroke:#009900;stroke-width:1;"/><polygon fill="#009900" points="437.34,738.82,446.9889,736.8454,441.4092,735.9145,442.3401,730.3348,437.34,738.82" style="stroke:#009900;stroke-width:1;"/><path d="M473.94,679 L473.94,704 L593.94,704 L593.94,689 L583.94,679 L473.94,679" fill="#FFFFE0" style="stroke:#B0B060;stroke-width:0.5;"/><path d="M583.94,679 L583.94,689 L593.94,689 L583.94,679" fill="#FFFFE0" style="stroke:#B0B060;stroke-width:0.5;"/><text fill="#000000" font-family="Arial" font-size="13" lengthAdjust="spacing" textLength="99.106" x="479.94" y="696.0669">unirseAGrupo()</text></g><!--SRC=[jLNDQXin4BxxAORa4DlWuFvGoAMmJkomaDeccr9eAK7U7TjAj9AHj4bBAVHPUkkvZv0twPDq9AtjzSPEaq1riJmQVVhccvyzW6CbftnMQ9RokzyIRhWfc02UtVsIbgSCw0zUORuGgc6kkLmmpNB8bLJfNAiSOSg4mSgHcRDCtPPcgnPW5KoKjIg7Z6jCBLUoKVMtp29yQm2j7aklPreLCZjMGcduCESMmudI6UfWxGboyzP8QtKRZFlTxj5Hj-lDYMNQrdtxIz1W-bxb8DLE2li3MltkFHBxlMwl-oRO1qhQ8ICj8isPSD07qAUuCWLSyfGx2RzOr98azD4cSNBHVnTTdiJ9U3ICUsVzofLKvOi2ZLqwxx69vlfK5mjbcgqzO0QYjONIPncNg4l-EnLtXyit36G8JAQ2NI5HzDGCD0sN94K-qUZAW4y4jloraWVujyVCg3X4jVtmZ9Df-TwBG_3E2Zfl8L62jhR8_E6dzcVeaBKEw9EX90WkG-RSQhUZB2SnZTN4NxVRO08O5QWJ0sPU3U-FClCWImul3zSlEnfZZGP9jL3mf8JmZ9rpXSkAszdgT0UpX1mmPyHfKI87H0TTeUNMdny_8Jw1hqkPoIDb6Gjk6rvZr3aL_ofC3LCkA7XTORlRDzN8Iar05dZpBspC_CzZQ1IIQqFLGvj7-QFWbBWDy7g2NXr2hqY5bsFWewGsQ2OefXtQIyDT1RTM2V89WOxcixbzR8vsLizsLHz8QhYGiSr8t9yocjTKRYWmNPMNMeGjSHrGXvNzLW-7JgaZdXL38Nsj2Mf0zvQIM6k4oaGo581a0iro99bop9oUln-FBgDUt3-_69MsqVbfD8m_HiVnQ7Zf7PAL1o5U-EIiuYIHl33tfvkFRjlGgg8usWx6CC6f9PfH6cmjyaaG2iFSTB8K998q58YJnu2Ru61uNWXVR42Jamj5GEllLcFhl7ISDeEkwUwRoDzgjXhhcdqUMEYm9w0zf7qTkson_uCU6Zvw0lYMprjTMlh62NI2k7GfMS7z2m00]--></g></svg>