<svg xmlns="http://www.w3.org/2000/svg" xmlns:xlink="http://www.w3.org/1999/xlink" contentStyleType="text/css" data-diagram-type="STATE" height="780px" preserveAspectRatio="none" style="width:589px;height:780px;background:#FFFFFF;" version="1.1" viewBox="0 0 589 780" width="589px" zoomAndPan="magnify"><defs/><g><g id="SISTEMA_DISPONIBLE"><rect fill="#FFFFFF" height="50" rx="12.5" ry="12.5" style="stroke:#000000;stroke-width:0.5;" width="172.0654" x="164.3" y="7"/><line style="stroke:#000000;stroke-width:0.5;" x1="164.3" x2="336.3654" y1="33.2969" y2="33.2969"/><text fill="#000000" font-family="sans-serif" font-size="14" lengthAdjust="spacing" textLength="152.0654" x="174.3" y="24.9951">SISTEMA_DISPONIBLE</text></g><path d="M82.8,152 L417.8,152 A12.5,12.5 0 0 1 430.3,164.5 L430.3,178.2969 L70.3,178.2969 L70.3,164.5 A12.5,12.5 0 0 1 82.8,152" fill="#FFFFFF"/><rect fill="none" height="477.2969" rx="12.5" ry="12.5" style="stroke:#000000;stroke-width:0.5;" width="360" x="70.3" y="152"/><line style="stroke:#000000;stroke-width:0.5;" x1="70.3" x2="430.3" y1="178.2969" y2="178.2969"/><text fill="#000000" font-family="sans-serif" font-size="14" lengthAdjust="spacing" textLength="94.0146" x="203.2927" y="169.9951">abrirGrupos()</text><g id="AbrirGruposContainer.PasoInicial"><rect fill="#FFFFFF" height="50" rx="12.5" ry="12.5" style="stroke:#000000;stroke-width:0.5;" width="50" x="82.3" y="280.2969"/><line style="stroke:#000000;stroke-width:0.5;" x1="82.3" x2="132.3" y1="306.5938" y2="306.5938"/><text fill="#000000" font-family="sans-serif" font-size="14" lengthAdjust="spacing" textLength="4.4502" x="105.0749" y="298.292">&#160;</text></g><g id="AbrirGruposContainer.PasoLista"><rect fill="#FFFFFF" height="50" rx="12.5" ry="12.5" style="stroke:#000000;stroke-width:0.5;" width="50" x="82.3" y="476.2969"/><line style="stroke:#000000;stroke-width:0.5;" x1="82.3" x2="132.3" y1="502.5938" y2="502.5938"/><text fill="#000000" font-family="sans-serif" font-size="14" lengthAdjust="spacing" textLength="4.4502" x="105.0749" y="494.292">&#160;</text></g><ellipse cx="107.3" cy="199.2969" fill="#222222" rx="10" ry="10" style="stroke:#222222;stroke-width:1;"/><ellipse cx="107.3" cy="608.2969" fill="none" rx="11" ry="11" style="stroke:#222222;stroke-width:1;"/><ellipse cx="107.3" cy="608.2969" fill="#222222" rx="6" ry="6" style="stroke:#222222;stroke-width:1;"/><!--link *start*AbrirGruposContainer to PasoInicial--><g class="link" data-entity-1=".start.AbrirGruposContainer" data-entity-2="PasoInicial" data-source-line="32" data-uid="lnk3" id="link_.start.AbrirGruposContainer_PasoInicial"><path d="M107.3,209.5269 C107.3,225.2369 107.3,251.6569 107.3,274.1669" fill="none" id="*start*AbrirGruposContainer-to-PasoInicial" style="stroke:#009900;stroke-width:1;"/><polygon fill="#009900" points="107.3,280.1669,111.3,271.1669,107.3,275.1669,103.3,271.1669,107.3,280.1669" style="stroke:#009900;stroke-width:1;"/><path d="M112.3,232.2969 L112.3,257.2969 L371.3,257.2969 L371.3,242.2969 L361.3,232.2969 L112.3,232.2969" fill="#FFFFE0" style="stroke:#B0B060;stroke-width:0.5;"/><path d="M361.3,232.2969 L361.3,242.2969 L371.3,242.2969 L361.3,232.2969" fill="#FFFFE0" style="stroke:#B0B060;stroke-width:0.5;"/><text fill="#000000" font-family="Arial" font-size="13" font-weight="bold" lengthAdjust="spacing" textLength="104.8633" x="118.3" y="249.3638">Administrador</text><text fill="#000000" font-family="Arial" font-size="13" lengthAdjust="spacing" textLength="129.3716" x="227.2956" y="249.3638">solicita abrir grupos</text></g><!--link PasoInicial to PasoLista--><g class="link" data-entity-1="PasoInicial" data-entity-2="PasoLista" data-source-line="38" data-uid="lnk4" id="link_PasoInicial_PasoLista"><path d="M107.3,330.4769 C107.3,367.7569 107.3,432.8469 107.3,470.1169" fill="none" id="PasoInicial-to-PasoLista" style="stroke:#009900;stroke-width:1;"/><polygon fill="#009900" points="107.3,476.1169,111.3,467.1169,107.3,471.1169,103.3,467.1169,107.3,476.1169" style="stroke:#009900;stroke-width:1;"/><path d="M112.3,353.2969 L112.3,453.2969 L374.3,453.2969 L374.3,363.2969 L364.3,353.2969 L112.3,353.2969" fill="#FFFFE0" style="stroke:#B0B060;stroke-width:0.5;"/><path d="M364.3,353.2969 L364.3,363.2969 L374.3,363.2969 L364.3,353.2969" fill="#FFFFE0" style="stroke:#B0B060;stroke-width:0.5;"/><text fill="#000000" font-family="Arial" font-size="13" font-weight="bold" lengthAdjust="spacing" textLength="58.9063" x="118.3" y="370.3638">Sistema</text><text fill="#000000" font-family="Arial" font-size="13" lengthAdjust="spacing" textLength="158.1899" x="181.3386" y="370.3638">presenta lista de grupos</text><text fill="#000000" font-family="Arial" font-size="13" lengthAdjust="spacing" textLength="190.0742" x="118.3" y="385.4966">&#8226; ID y nombre de cada grupo</text><text fill="#000000" font-family="Arial" font-size="13" lengthAdjust="spacing" textLength="188.481" x="118.3" y="400.6294">&#8226; Permite solicitar filtrar lista</text><text fill="#000000" font-family="Arial" font-size="13" lengthAdjust="spacing" textLength="241.9663" x="118.3" y="415.7622">&#8226; Permite solicitar crear grupo nuevo</text><text fill="#000000" font-family="Arial" font-size="13" lengthAdjust="spacing" textLength="202.1792" x="118.3" y="430.895">&#8226; Permite solicitar editar grupo</text><text fill="#000000" font-family="Arial" font-size="13" lengthAdjust="spacing" textLength="216.9565" x="118.3" y="446.0278">&#8226; Permite solicitar eliminar grupo</text></g><!--link PasoLista to PasoLista--><g class="link" data-entity-1="PasoLista" data-entity-2="PasoLista" data-source-line="49" data-uid="lnk5" id="link_PasoLista_PasoLista"><path d="M132.48,490.0869 C142.21,489.5969 150.3,493.3269 150.3,501.2969 C150.3,509.2669 148.2024,513.2987 138.4724,512.8087" fill="none" id="PasoLista-to-PasoLista" style="stroke:#009900;stroke-width:1;"/><polygon fill="#009900" points="132.48,512.5069,141.2674,516.9545,137.4737,512.7584,141.6698,508.9646,132.48,512.5069" style="stroke:#009900;stroke-width:1;"/><path d="M155.3,481.2969 L155.3,521.2969 L401.3,521.2969 L401.3,491.2969 L391.3,481.2969 L155.3,481.2969" fill="#FFFFE0" style="stroke:#B0B060;stroke-width:0.5;"/><path d="M391.3,481.2969 L391.3,491.2969 L401.3,491.2969 L391.3,481.2969" fill="#FFFFE0" style="stroke:#B0B060;stroke-width:0.5;"/><text fill="#000000" font-family="Arial" font-size="13" font-weight="bold" lengthAdjust="spacing" textLength="104.8633" x="161.3" y="498.3638">Administrador</text><text fill="#000000" font-family="Arial" font-size="13" lengthAdjust="spacing" textLength="116.6509" x="270.2956" y="498.3638">solicita filtrar lista</text><text fill="#000000" font-family="Arial" font-size="13" font-weight="bold" lengthAdjust="spacing" textLength="58.9063" x="161.3" y="513.4966">Sistema</text><text fill="#000000" font-family="Arial" font-size="13" lengthAdjust="spacing" textLength="139.4199" x="224.3386" y="513.4966">presenta lista filtrada</text></g><!--link PasoLista to *end*AbrirGruposContainer--><g class="link" data-entity-1="PasoLista" data-entity-2=".end.AbrirGruposContainer" data-source-line="56" data-uid="lnk7" id="link_PasoLista_.end.AbrirGruposContainer"><path d="M107.3,526.3869 C107.3,548.7869 107.3,575.0669 107.3,591.2469" fill="none" id="PasoLista-to-*end*AbrirGruposContainer" style="stroke:#009900;stroke-width:1;"/><polygon fill="#009900" points="107.3,597.2469,111.3,588.2469,107.3,592.2469,103.3,588.2469,107.3,597.2469" style="stroke:#009900;stroke-width:1;"/><path d="M112.3,549.2969 L112.3,574.2969 L421.3,574.2969 L421.3,559.2969 L411.3,549.2969 L112.3,549.2969" fill="#FFFFE0" style="stroke:#B0B060;stroke-width:0.5;"/><path d="M411.3,549.2969 L411.3,559.2969 L421.3,559.2969 L411.3,549.2969" fill="#FFFFE0" style="stroke:#B0B060;stroke-width:0.5;"/><text fill="#000000" font-family="Arial" font-size="13" font-weight="bold" lengthAdjust="spacing" textLength="104.8633" x="118.3" y="566.3638">Administrador</text><text fill="#000000" font-family="Arial" font-size="13" lengthAdjust="spacing" textLength="179.2769" x="227.2956" y="566.3638">solicita una de las opciones</text></g><g id="GRUPO_ABIERTO"><rect fill="#FFFFFF" height="50" rx="12.5" ry="12.5" style="stroke:#000000;stroke-width:0.5;" width="138.7402" x="57.8" y="724"/><line style="stroke:#000000;stroke-width:0.5;" x1="57.8" x2="196.5402" y1="750.2969" y2="750.2969"/><text fill="#000000" font-family="sans-serif" font-size="14" lengthAdjust="spacing" textLength="118.7402" x="67.8" y="741.9951">GRUPO_ABIERTO</text></g><g id="GRUPOS_ABIERTO"><rect fill="#FFFFFF" height="50" rx="12.5" ry="12.5" style="stroke:#000000;stroke-width:0.5;" width="147.627" x="299.3" y="724"/><line style="stroke:#000000;stroke-width:0.5;" x1="299.3" x2="446.927" y1="750.2969" y2="750.2969"/><text fill="#000000" font-family="sans-serif" font-size="14" lengthAdjust="spacing" textLength="127.627" x="309.3" y="741.9951">GRUPOS_ABIERTO</text></g><!--link SISTEMA_DISPONIBLE to AbrirGruposContainer--><g class="link" data-entity-1="SISTEMA_DISPONIBLE" data-entity-2="AbrirGruposContainer" data-source-line="67" data-uid="lnk8" id="link_SISTEMA_DISPONIBLE_AbrirGruposContainer"><path d="M246.5,57.13 C245.21,66.44 243.93,77.19 243.3,87 C242.3,102.52 243.1,106.45 243.3,122 C243.43,131.76 243.4786,135.7109 243.6486,145.7709" fill="none" id="SISTEMA_DISPONIBLE-to-AbrirGruposContainer" style="stroke:#009900;stroke-width:1;"/><polygon fill="#009900" points="243.75,151.77,247.5974,142.7037,243.6655,146.7707,239.5985,142.8389,243.75,151.77" style="stroke:#009900;stroke-width:1;"/></g><!--link AbrirGruposContainer to SISTEMA_DISPONIBLE--><g class="link" data-entity-1="AbrirGruposContainer" data-entity-2="SISTEMA_DISPONIBLE" data-source-line="92" data-uid="lnk13" id="link_AbrirGruposContainer_SISTEMA_DISPONIBLE"><path d="M250.3,151.66 C250.3,113.21 250.3,84.93 250.3,63.22" fill="none" id="AbrirGruposContainer-to-SISTEMA_DISPONIBLE" style="stroke:#009900;stroke-width:1;"/><polygon fill="#009900" points="250.3,57.22,246.3,66.22,250.3,62.22,254.3,66.22,250.3,57.22" style="stroke:#009900;stroke-width:1;"/><path d="M255.3,92 L255.3,117 L401.3,117 L401.3,102 L391.3,92 L255.3,92" fill="#FFFFE0" style="stroke:#B0B060;stroke-width:0.5;"/><path d="M391.3,92 L391.3,102 L401.3,102 L391.3,92" fill="#FFFFE0" style="stroke:#B0B060;stroke-width:0.5;"/><text fill="#000000" font-family="Arial" font-size="13" lengthAdjust="spacing" textLength="125.9248" x="261.3" y="109.0669">completarGestion()</text></g><!--link AbrirGruposContainer to GRUPO_ABIERTO--><g class="link" data-entity-1="AbrirGruposContainer" data-entity-2="GRUPO_ABIERTO" data-source-line="72" data-uid="lnk9" id="link_AbrirGruposContainer_GRUPO_ABIERTO"><path d="M70.22,560.68 C47.38,591.08 27.44,624.24 14.3,659 C8.8,673.55 6,680.84 14.3,694 C24.39,710 35.239,718.8097 52.339,726.8397" fill="none" id="AbrirGruposContainer-to-GRUPO_ABIERTO" style="stroke:#009900;stroke-width:1;"/><polygon fill="#009900" points="57.77,729.39,51.3237,721.9438,53.2442,727.2647,47.9233,729.1851,57.77,729.39" style="stroke:#009900;stroke-width:1;"/><path d="M19.3,664 L19.3,689 L123.3,689 L123.3,674 L113.3,664 L19.3,664" fill="#FFFFE0" style="stroke:#B0B060;stroke-width:0.5;"/><path d="M113.3,664 L113.3,674 L123.3,674 L113.3,664" fill="#FFFFE0" style="stroke:#B0B060;stroke-width:0.5;"/><text fill="#000000" font-family="Arial" font-size="13" lengthAdjust="spacing" textLength="83.8081" x="25.3" y="681.0669">crearGrupo()</text></g><!--link AbrirGruposContainer to GRUPO_ABIERTO--><g class="link" data-entity-1="AbrirGruposContainer" data-entity-2="GRUPO_ABIERTO" data-source-line="77" data-uid="lnk10" id="link_AbrirGruposContainer_GRUPO_ABIERTO"><path d="M168.26,629.29 C154.95,667.86 145.0468,696.5581 137.5568,718.2681" fill="none" id="AbrirGruposContainer-to-GRUPO_ABIERTO-1" style="stroke:#009900;stroke-width:1;"/><polygon fill="#009900" points="135.6,723.94,142.3165,716.7367,137.2307,719.2134,134.754,714.1275,135.6,723.94" style="stroke:#009900;stroke-width:1;"/><path d="M162.3,664 L162.3,689 L271.3,689 L271.3,674 L261.3,664 L162.3,664" fill="#FFFFE0" style="stroke:#B0B060;stroke-width:0.5;"/><path d="M261.3,664 L261.3,674 L271.3,674 L261.3,664" fill="#FFFFE0" style="stroke:#B0B060;stroke-width:0.5;"/><text fill="#000000" font-family="Arial" font-size="13" lengthAdjust="spacing" textLength="88.2769" x="168.3" y="681.0669">editarGrupo()</text></g><!--link AbrirGruposContainer to GRUPOS_ABIERTO--><g class="link" data-entity-1="AbrirGruposContainer" data-entity-2="GRUPOS_ABIERTO" data-source-line="82" data-uid="lnk11" id="link_AbrirGruposContainer_GRUPOS_ABIERTO"><path d="M299.56,629.07 C307.52,651.54 316.72,673.54 327.3,694 C332.84,704.72 336.8894,710.6695 344.7094,719.4495" fill="none" id="AbrirGruposContainer-to-GRUPOS_ABIERTO" style="stroke:#009900;stroke-width:1;"/><polygon fill="#009900" points="348.7,723.93,345.7011,714.5488,345.3745,720.1962,339.7271,719.8696,348.7,723.93" style="stroke:#009900;stroke-width:1;"/><path d="M332.3,664 L332.3,689 L456.3,689 L456.3,674 L446.3,664 L332.3,664" fill="#FFFFE0" style="stroke:#B0B060;stroke-width:0.5;"/><path d="M446.3,664 L446.3,674 L456.3,674 L446.3,664" fill="#FFFFE0" style="stroke:#B0B060;stroke-width:0.5;"/><text fill="#000000" font-family="Arial" font-size="13" lengthAdjust="spacing" textLength="103.0542" x="338.3" y="681.0669">eliminarGrupo()</text></g><!--link AbrirGruposContainer to GRUPOS_ABIERTO--><g class="link" data-entity-1="AbrirGruposContainer" data-entity-2="GRUPOS_ABIERTO" data-source-line="87" data-uid="lnk12" id="link_AbrirGruposContainer_GRUPOS_ABIERTO"><path d="M430.52,587.13 C444.53,610.14 456.59,634.27 465.3,659 C470.46,673.67 473.03,680.5 465.3,694 C458.21,706.38 452.1394,712.9804 440.0094,720.6604" fill="none" id="AbrirGruposContainer-to-GRUPOS_ABIERTO-1" style="stroke:#009900;stroke-width:1;"/><polygon fill="#009900" points="434.94,723.87,444.6838,722.4351,439.1645,721.1953,440.4043,715.676,434.94,723.87" style="stroke:#009900;stroke-width:1;"/><path d="M474.3,664 L474.3,689 L582.3,689 L582.3,674 L572.3,664 L474.3,664" fill="#FFFFE0" style="stroke:#B0B060;stroke-width:0.5;"/><path d="M572.3,664 L572.3,674 L582.3,674 L572.3,664" fill="#FFFFE0" style="stroke:#B0B060;stroke-width:0.5;"/><text fill="#000000" font-family="Arial" font-size="13" lengthAdjust="spacing" textLength="87.2993" x="480.3" y="681.0669">abrirGrupos()</text></g><!--SRC=[hLNDRXen4Bxp5AFc440YeZ-gb4ibI212IXEKJTL3LKLcTm0dNW-olKchgbAVfRUU-mXvapv9n_O2omRQDAelBEFnv-_xF1xlmn7fgPmLHgJo_gU6MsaBeK1czp-qawa0_eFNc2yKDUoDr0jXH0uvQKhdXdA4gL0MArDsBZAwAyEE5k089kGSvP19WwcJf1lLV2SSmfS6yEYBz6PcgD3P4Iaoy7uk7SOPCXcQ6EqhJWlHdZ5q5uDxtUxXORSRmeaJnjLp1qlG6FfQvQ1f9uMz8Oz1zm69lNwtttqTuqFIxaom5pqZXVBG-p1WNHc1r3ALti9F3erc2uFQP9HS3jxshev7oVZyRDG_7LIMf9Gl2hHkcVnCJ8mq9wPOa6ssde6mq5j7-FYSa1fDoN-dutvokOU5347eL8bhP8g1ceMcbPgjo2S6VHd8YS9MM5RoWB3tM5WQHLNR9qybXvRxFJ-0a4pGUGC9AVvqHHOcFxG_GeUZTS1m6AH1IHrFpezskvVbRAPrXlcRTXji1EC2zMR0BBWHyb5d0MJ9uSN1UcTFOspG8hiM2vwTK86nJwvmMN4xNStkO9Pm0kQ2EIrAv8ZeeIkq_FZrxJkCZk7pqcREI4KcOjf6rXXDpiM_acbWAXMBDnMsktDJWwBq17I1jt_3nYpyF8O6Aia7iP5SD_pb0VIBL0Lvmy2QoxgPe9fs-5jRwIkojJ8y60mT8sTpzrZFTrR3TfV-S4XnGIOsbVW_fPfNN3weC5sL2otY9tCTyeqfxqzT3izoXJz9Gw53xIY-K7ulqbWhx4g7iIn02uLssM9isJPEBjwDpwzw_T7WulAy6ajMGGQv3EUnaiQ-12yUDgWWQ5lVgQ9ufXx62YMvgfkzDCPQd9CW55Ru1kDO5x8RpDqxOi4tOR0oBrIeB-3c9nKnqFhfQMnjUPxJfiwQrU4UX5NDLcDTfay3YvVaNz6IdN3bHVflW1lln6FWjZn3TV_uBLBeLVip8Lt1_Gq0]--></g></svg>