<svg xmlns="http://www.w3.org/2000/svg" xmlns:xlink="http://www.w3.org/1999/xlink" contentStyleType="text/css" data-diagram-type="STATE" height="795px" preserveAspectRatio="none" style="width:601px;height:795px;background:#FFFFFF;" version="1.1" viewBox="0 0 601 795" width="601px" zoomAndPan="magnify"><defs/><g><g id="SISTEMA_DISPONIBLE"><rect fill="#FFFFFF" height="50" rx="12.5" ry="12.5" style="stroke:#000000;stroke-width:0.5;" width="172.0654" x="164.3" y="7"/><line style="stroke:#000000;stroke-width:0.5;" x1="164.3" x2="336.3654" y1="33.2969" y2="33.2969"/><text fill="#000000" font-family="sans-serif" font-size="14" lengthAdjust="spacing" textLength="152.0654" x="174.3" y="24.9951">SISTEMA_DISPONIBLE</text></g><path d="M82.8,152 L417.8,152 A12.5,12.5 0 0 1 430.3,164.5 L430.3,178.2969 L70.3,178.2969 L70.3,164.5 A12.5,12.5 0 0 1 82.8,152" fill="#FFFFFF"/><rect fill="none" height="492.2969" rx="12.5" ry="12.5" style="stroke:#000000;stroke-width:0.5;" width="360" x="70.3" y="152"/><line style="stroke:#000000;stroke-width:0.5;" x1="70.3" x2="430.3" y1="178.2969" y2="178.2969"/><text fill="#000000" font-family="sans-serif" font-size="14" lengthAdjust="spacing" textLength="94.0146" x="203.2927" y="169.9951">abrirGrupos()</text><g id="AbrirGruposContainer.PasoInicial"><rect fill="#FFFFFF" height="50" rx="12.5" ry="12.5" style="stroke:#000000;stroke-width:0.5;" width="50" x="82.3" y="280.2969"/><line style="stroke:#000000;stroke-width:0.5;" x1="82.3" x2="132.3" y1="306.5938" y2="306.5938"/><text fill="#000000" font-family="sans-serif" font-size="14" lengthAdjust="spacing" textLength="4.4502" x="105.0749" y="298.292">&#160;</text></g><g id="AbrirGruposContainer.PasoLista"><rect fill="#FFFFFF" height="50" rx="12.5" ry="12.5" style="stroke:#000000;stroke-width:0.5;" width="50" x="82.3" y="491.2969"/><line style="stroke:#000000;stroke-width:0.5;" x1="82.3" x2="132.3" y1="517.5938" y2="517.5938"/><text fill="#000000" font-family="sans-serif" font-size="14" lengthAdjust="spacing" textLength="4.4502" x="105.0749" y="509.292">&#160;</text></g><ellipse cx="107.3" cy="199.2969" fill="#222222" rx="10" ry="10" style="stroke:#222222;stroke-width:1;"/><ellipse cx="107.3" cy="623.2969" fill="none" rx="11" ry="11" style="stroke:#222222;stroke-width:1;"/><ellipse cx="107.3" cy="623.2969" fill="#222222" rx="6" ry="6" style="stroke:#222222;stroke-width:1;"/><!--link *start*AbrirGruposContainer to PasoInicial--><g class="link" data-entity-1=".start.AbrirGruposContainer" data-entity-2="PasoInicial" data-source-line="32" data-uid="lnk3" id="link_.start.AbrirGruposContainer_PasoInicial"><path d="M107.3,209.5269 C107.3,225.2369 107.3,251.6569 107.3,274.1669" fill="none" id="*start*AbrirGruposContainer-to-PasoInicial" style="stroke:#009900;stroke-width:1;"/><polygon fill="#009900" points="107.3,280.1669,111.3,271.1669,107.3,275.1669,103.3,271.1669,107.3,280.1669" style="stroke:#009900;stroke-width:1;"/><path d="M112.3,232.2969 L112.3,257.2969 L371.3,257.2969 L371.3,242.2969 L361.3,232.2969 L112.3,232.2969" fill="#FFFFE0" style="stroke:#B0B060;stroke-width:0.5;"/><path d="M361.3,232.2969 L361.3,242.2969 L371.3,242.2969 L361.3,232.2969" fill="#FFFFE0" style="stroke:#B0B060;stroke-width:0.5;"/><text fill="#000000" font-family="Arial" font-size="13" font-weight="bold" lengthAdjust="spacing" textLength="104.8633" x="118.3" y="249.3638">Administrador</text><text fill="#000000" font-family="Arial" font-size="13" lengthAdjust="spacing" textLength="129.3716" x="227.2956" y="249.3638">solicita abrir grupos</text></g><!--link PasoInicial to PasoLista--><g class="link" data-entity-1="PasoInicial" data-entity-2="PasoLista" data-source-line="38" data-uid="lnk4" id="link_PasoInicial_PasoLista"><path d="M107.3,330.6769 C107.3,370.9569 107.3,444.8969 107.3,485.0669" fill="none" id="PasoInicial-to-PasoLista" style="stroke:#009900;stroke-width:1;"/><polygon fill="#009900" points="107.3,491.0669,111.3,482.0669,107.3,486.0669,103.3,482.0669,107.3,491.0669" style="stroke:#009900;stroke-width:1;"/><path d="M112.3,353.2969 L112.3,468.2969 L374.3,468.2969 L374.3,363.2969 L364.3,353.2969 L112.3,353.2969" fill="#FFFFE0" style="stroke:#B0B060;stroke-width:0.5;"/><path d="M364.3,353.2969 L364.3,363.2969 L374.3,363.2969 L364.3,353.2969" fill="#FFFFE0" style="stroke:#B0B060;stroke-width:0.5;"/><text fill="#000000" font-family="Arial" font-size="13" font-weight="bold" lengthAdjust="spacing" textLength="58.9063" x="118.3" y="370.3638">Sistema</text><text fill="#000000" font-family="Arial" font-size="13" lengthAdjust="spacing" textLength="158.1899" x="181.3386" y="370.3638">presenta lista de grupos</text><text fill="#000000" font-family="Arial" font-size="13" lengthAdjust="spacing" textLength="190.0742" x="118.3" y="385.4966">&#8226; ID y nombre de cada grupo</text><text fill="#000000" font-family="Arial" font-size="13" lengthAdjust="spacing" textLength="188.481" x="118.3" y="400.6294">&#8226; Permite solicitar filtrar lista</text><text fill="#000000" font-family="Arial" font-size="13" lengthAdjust="spacing" textLength="241.9663" x="118.3" y="415.7622">&#8226; Permite solicitar crear grupo nuevo</text><text fill="#000000" font-family="Arial" font-size="13" lengthAdjust="spacing" textLength="202.1792" x="118.3" y="430.895">&#8226; Permite solicitar editar grupo</text><text fill="#000000" font-family="Arial" font-size="13" lengthAdjust="spacing" textLength="236.8247" x="118.3" y="446.0278">&#8226; Permite solicitar unirse a un grupo</text><text fill="#000000" font-family="Arial" font-size="13" lengthAdjust="spacing" textLength="216.9565" x="118.3" y="461.1606">&#8226; Permite solicitar eliminar grupo</text></g><!--link PasoLista to PasoLista--><g class="link" data-entity-1="PasoLista" data-entity-2="PasoLista" data-source-line="50" data-uid="lnk5" id="link_PasoLista_PasoLista"><path d="M132.48,505.0869 C142.21,504.5969 150.3,508.3269 150.3,516.2969 C150.3,524.2669 148.2024,528.2987 138.4724,527.8087" fill="none" id="PasoLista-to-PasoLista" style="stroke:#009900;stroke-width:1;"/><polygon fill="#009900" points="132.48,527.5069,141.2674,531.9545,137.4737,527.7584,141.6698,523.9646,132.48,527.5069" style="stroke:#009900;stroke-width:1;"/><path d="M155.3,496.2969 L155.3,536.2969 L401.3,536.2969 L401.3,506.2969 L391.3,496.2969 L155.3,496.2969" fill="#FFFFE0" style="stroke:#B0B060;stroke-width:0.5;"/><path d="M391.3,496.2969 L391.3,506.2969 L401.3,506.2969 L391.3,496.2969" fill="#FFFFE0" style="stroke:#B0B060;stroke-width:0.5;"/><text fill="#000000" font-family="Arial" font-size="13" font-weight="bold" lengthAdjust="spacing" textLength="104.8633" x="161.3" y="513.3638">Administrador</text><text fill="#000000" font-family="Arial" font-size="13" lengthAdjust="spacing" textLength="116.6509" x="270.2956" y="513.3638">solicita filtrar lista</text><text fill="#000000" font-family="Arial" font-size="13" font-weight="bold" lengthAdjust="spacing" textLength="58.9063" x="161.3" y="528.4966">Sistema</text><text fill="#000000" font-family="Arial" font-size="13" lengthAdjust="spacing" textLength="139.4199" x="224.3386" y="528.4966">presenta lista filtrada</text></g><!--link PasoLista to *end*AbrirGruposContainer--><g class="link" data-entity-1="PasoLista" data-entity-2=".end.AbrirGruposContainer" data-source-line="57" data-uid="lnk7" id="link_PasoLista_.end.AbrirGruposContainer"><path d="M107.3,541.3869 C107.3,563.7869 107.3,590.0669 107.3,606.2469" fill="none" id="PasoLista-to-*end*AbrirGruposContainer" style="stroke:#009900;stroke-width:1;"/><polygon fill="#009900" points="107.3,612.2469,111.3,603.2469,107.3,607.2469,103.3,603.2469,107.3,612.2469" style="stroke:#009900;stroke-width:1;"/><path d="M112.3,564.2969 L112.3,589.2969 L421.3,589.2969 L421.3,574.2969 L411.3,564.2969 L112.3,564.2969" fill="#FFFFE0" style="stroke:#B0B060;stroke-width:0.5;"/><path d="M411.3,564.2969 L411.3,574.2969 L421.3,574.2969 L411.3,564.2969" fill="#FFFFE0" style="stroke:#B0B060;stroke-width:0.5;"/><text fill="#000000" font-family="Arial" font-size="13" font-weight="bold" lengthAdjust="spacing" textLength="104.8633" x="118.3" y="581.3638">Administrador</text><text fill="#000000" font-family="Arial" font-size="13" lengthAdjust="spacing" textLength="179.2769" x="227.2956" y="581.3638">solicita una de las opciones</text></g><g id="GRUPO_ABIERTO"><rect fill="#FFFFFF" height="50" rx="12.5" ry="12.5" style="stroke:#000000;stroke-width:0.5;" width="138.7402" x="57.8" y="739"/><line style="stroke:#000000;stroke-width:0.5;" x1="57.8" x2="196.5402" y1="765.2969" y2="765.2969"/><text fill="#000000" font-family="sans-serif" font-size="14" lengthAdjust="spacing" textLength="118.7402" x="67.8" y="756.9951">GRUPO_ABIERTO</text></g><g id="GRUPOS_ABIERTO"><rect fill="#FFFFFF" height="50" rx="12.5" ry="12.5" style="stroke:#000000;stroke-width:0.5;" width="147.627" x="299.3" y="739"/><line style="stroke:#000000;stroke-width:0.5;" x1="299.3" x2="446.927" y1="765.2969" y2="765.2969"/><text fill="#000000" font-family="sans-serif" font-size="14" lengthAdjust="spacing" textLength="127.627" x="309.3" y="756.9951">GRUPOS_ABIERTO</text></g><!--link SISTEMA_DISPONIBLE to AbrirGruposContainer--><g class="link" data-entity-1="SISTEMA_DISPONIBLE" data-entity-2="AbrirGruposContainer" data-source-line="68" data-uid="lnk8" id="link_SISTEMA_DISPONIBLE_AbrirGruposContainer"><path d="M246.49,57.13 C245.2,66.44 243.93,77.19 243.3,87 C242.3,102.52 243.1,106.45 243.3,122 C243.42,131.79 243.4689,135.7709 243.6389,145.8609" fill="none" id="SISTEMA_DISPONIBLE-to-AbrirGruposContainer" style="stroke:#009900;stroke-width:1;"/><polygon fill="#009900" points="243.74,151.86,247.5878,142.7939,243.6558,146.8607,239.589,142.9287,243.74,151.86" style="stroke:#009900;stroke-width:1;"/></g><!--link AbrirGruposContainer to SISTEMA_DISPONIBLE--><g class="link" data-entity-1="AbrirGruposContainer" data-entity-2="SISTEMA_DISPONIBLE" data-source-line="93" data-uid="lnk13" id="link_AbrirGruposContainer_SISTEMA_DISPONIBLE"><path d="M250.3,151.72 C250.3,113.11 250.3,84.84 250.3,63.16" fill="none" id="AbrirGruposContainer-to-SISTEMA_DISPONIBLE" style="stroke:#009900;stroke-width:1;"/><polygon fill="#009900" points="250.3,57.16,246.3,66.16,250.3,62.16,254.3,66.16,250.3,57.16" style="stroke:#009900;stroke-width:1;"/><path d="M255.3,92 L255.3,117 L401.3,117 L401.3,102 L391.3,92 L255.3,92" fill="#FFFFE0" style="stroke:#B0B060;stroke-width:0.5;"/><path d="M391.3,92 L391.3,102 L401.3,102 L391.3,92" fill="#FFFFE0" style="stroke:#B0B060;stroke-width:0.5;"/><text fill="#000000" font-family="Arial" font-size="13" lengthAdjust="spacing" textLength="125.9248" x="261.3" y="109.0669">completarGestion()</text></g><!--link AbrirGruposContainer to GRUPO_ABIERTO--><g class="link" data-entity-1="AbrirGruposContainer" data-entity-2="GRUPO_ABIERTO" data-source-line="73" data-uid="lnk9" id="link_AbrirGruposContainer_GRUPO_ABIERTO"><path d="M70.16,573.51 C47.33,604.69 27.4,638.6 14.3,674 C8.9,688.59 6,695.84 14.3,709 C24.39,725 35.239,733.8097 52.339,741.8397" fill="none" id="AbrirGruposContainer-to-GRUPO_ABIERTO" style="stroke:#009900;stroke-width:1;"/><polygon fill="#009900" points="57.77,744.39,51.3237,736.9438,53.2442,742.2647,47.9233,744.1851,57.77,744.39" style="stroke:#009900;stroke-width:1;"/><path d="M19.3,679 L19.3,704 L123.3,704 L123.3,689 L113.3,679 L19.3,679" fill="#FFFFE0" style="stroke:#B0B060;stroke-width:0.5;"/><path d="M113.3,679 L113.3,689 L123.3,689 L113.3,679" fill="#FFFFE0" style="stroke:#B0B060;stroke-width:0.5;"/><text fill="#000000" font-family="Arial" font-size="13" lengthAdjust="spacing" textLength="83.8081" x="25.3" y="696.0669">crearGrupo()</text></g><!--link AbrirGruposContainer to GRUPO_ABIERTO--><g class="link" data-entity-1="AbrirGruposContainer" data-entity-2="GRUPO_ABIERTO" data-source-line="78" data-uid="lnk10" id="link_AbrirGruposContainer_GRUPO_ABIERTO"><path d="M167.49,644.06 C154.39,682.83 144.6825,711.5663 137.3425,733.2663" fill="none" id="AbrirGruposContainer-to-GRUPO_ABIERTO-1" style="stroke:#009900;stroke-width:1;"/><polygon fill="#009900" points="135.42,738.95,142.0928,731.7062,137.0221,734.2136,134.5146,729.1428,135.42,738.95" style="stroke:#009900;stroke-width:1;"/><path d="M162.3,679 L162.3,704 L271.3,704 L271.3,689 L261.3,679 L162.3,679" fill="#FFFFE0" style="stroke:#B0B060;stroke-width:0.5;"/><path d="M261.3,679 L261.3,689 L271.3,689 L261.3,679" fill="#FFFFE0" style="stroke:#B0B060;stroke-width:0.5;"/><text fill="#000000" font-family="Arial" font-size="13" lengthAdjust="spacing" textLength="88.2769" x="168.3" y="696.0669">editarGrupo()</text></g><!--link AbrirGruposContainer to GRUPOS_ABIERTO--><g class="link" data-entity-1="AbrirGruposContainer" data-entity-2="GRUPOS_ABIERTO" data-source-line="83" data-uid="lnk11" id="link_AbrirGruposContainer_GRUPOS_ABIERTO"><path d="M299.74,644.09 C307.65,666.55 316.78,688.53 327.3,709 C332.81,719.74 336.8622,725.687 344.6722,734.467" fill="none" id="AbrirGruposContainer-to-GRUPOS_ABIERTO" style="stroke:#009900;stroke-width:1;"/><polygon fill="#009900" points="348.66,738.95,345.667,729.5669,345.3369,735.2141,339.6897,734.8839,348.66,738.95" style="stroke:#009900;stroke-width:1;"/><path d="M332.3,679 L332.3,704 L456.3,704 L456.3,689 L446.3,679 L332.3,679" fill="#FFFFE0" style="stroke:#B0B060;stroke-width:0.5;"/><path d="M446.3,679 L446.3,689 L456.3,689 L446.3,679" fill="#FFFFE0" style="stroke:#B0B060;stroke-width:0.5;"/><text fill="#000000" font-family="Arial" font-size="13" lengthAdjust="spacing" textLength="103.0542" x="338.3" y="696.0669">eliminarGrupo()</text></g><!--link AbrirGruposContainer to GRUPOS_ABIERTO--><g class="link" data-entity-1="AbrirGruposContainer" data-entity-2="GRUPOS_ABIERTO" data-source-line="88" data-uid="lnk12" id="link_AbrirGruposContainer_GRUPOS_ABIERTO"><path d="M430.32,600.15 C444.42,623.84 456.56,648.65 465.3,674 C470.36,688.71 473.03,695.5 465.3,709 C458.21,721.38 452.1282,727.9785 440.0082,735.6585" fill="none" id="AbrirGruposContainer-to-GRUPOS_ABIERTO-1" style="stroke:#009900;stroke-width:1;"/><polygon fill="#009900" points="434.94,738.87,444.6832,737.4315,439.1635,736.1937,440.4012,730.674,434.94,738.87" style="stroke:#009900;stroke-width:1;"/><path d="M474.3,679 L474.3,704 L594.3,704 L594.3,689 L584.3,679 L474.3,679" fill="#FFFFE0" style="stroke:#B0B060;stroke-width:0.5;"/><path d="M584.3,679 L584.3,689 L594.3,689 L584.3,679" fill="#FFFFE0" style="stroke:#B0B060;stroke-width:0.5;"/><text fill="#000000" font-family="Arial" font-size="13" lengthAdjust="spacing" textLength="99.106" x="480.3" y="696.0669">unirseAGrupo()</text></g><!--SRC=[hLNDRXen4Bxp5AFa440YeZ-gb4kb9O48AKrGDbKFLHMPtGauyNgGxKrQLPNwBBtrt4V8c_H9EhONM0YqILHVCEFnvs- - -TazE2Hz9IUb4Pcy_wNXLjfIA93v_K_jP2Q0_-0r5ZD53NiZzKmOKK11chAfeGBXIYYBjICx5JdTLMP7Ct04OtAE2iYbmSn9qeswlnCEuMi3UFL4TZCnLEhya1GP-32L3kC9cHnDjFOKkmLhOWpTHUDkjtjmqEq6S-g4SUk-_JbeD7shSz2qbSBkW5U_-u34Rg_Rwxw9zW5fTofOYyH8eJpq7lGvhfn0Qfb9B-5dXqQpX27QT9XUzDybbqV3T7HsEkoTz6jNCYfc9LetTzuHOoFDiIbdP9kj7H0MagM5q-U4r6Wg_biLzuVpDopa249dIbmZKmpKB3Ijr2n5CJReoq2E5RR2jOe7XBT7mj8mHhNvy4IoQVxUYtq8pWITjv2Iugqhyt3uiVq9EcnT1mp980rAwfWvlzhj92zOJEiCypVjDjW8nWNgnO19K2Fueyu3o9p3o_tbovx6oA15LYqMF2kX0cFlNEEou7QoEDt2B6K7B0HpcbN84T53rsZvzVlx3nWUmPUvpEoHYLn4jnMl4Pg2YtyHfe4hgJXuKsExtJSpA2fDG9Tu-ozipCFFOsYKMXhBrSERH_cZafou5V3r1BtQXrwPgI3784J9RT1CKLrrUA-jz1NSMYGe90GwHawcxh4vsbezcrNzIrBZXLoiHkB_LD6yvd93XTcYl6WMjynrm1rMzTjwE7pA7V6i64eTQarn0_gtIEDQ8zGcakK0j51evoF9LcFc-FpzwEmowGtxvnTdTLkwC3B8HSZ78ZJM9MZnSA25W3RDgJgAP-fXh52Ikw2PPD7MOfyKeRJ23oJ7SI6hmToz8XRyq0OhYrA5-W8Ubb8H0oq_LOsD8z9pMerpJUhGD-5MizLObkdpm69JFHKjtGfNDT9_0uoTd3m1RyDtQrr0_dWfz67xf92kuVu1]--></g></svg>