<svg xmlns="http://www.w3.org/2000/svg" xmlns:xlink="http://www.w3.org/1999/xlink" contentStyleType="text/css" data-diagram-type="STATE" height="795px" preserveAspectRatio="none" style="width:382px;height:795px;background:#FFFFFF;" version="1.1" viewBox="0 0 382 795" width="382px" zoomAndPan="magnify"><defs/><g><g id="SISTEMA_DISPONIBLE"><rect fill="#FFFFFF" height="50" rx="12.5" ry="12.5" style="stroke:#000000;stroke-width:0.5;" width="172.0654" x="101" y="7"/><line style="stroke:#000000;stroke-width:0.5;" x1="101" x2="273.0654" y1="33.2969" y2="33.2969"/><text fill="#000000" font-family="sans-serif" font-size="14" lengthAdjust="spacing" textLength="152.0654" x="111" y="24.9951">SISTEMA_DISPONIBLE</text></g><path d="M19.5,152 L354.5,152 A12.5,12.5 0 0 1 367,164.5 L367,178.2969 L7,178.2969 L7,164.5 A12.5,12.5 0 0 1 19.5,152" fill="#FFFFFF"/><rect fill="none" height="492.2969" rx="12.5" ry="12.5" style="stroke:#000000;stroke-width:0.5;" width="360" x="7" y="152"/><line style="stroke:#000000;stroke-width:0.5;" x1="7" x2="367" y1="178.2969" y2="178.2969"/><text fill="#000000" font-family="sans-serif" font-size="14" lengthAdjust="spacing" textLength="94.0146" x="139.9927" y="169.9951">abrirGrupos()</text><g id="AbrirGruposContainer.PasoInicial"><rect fill="#FFFFFF" height="50" rx="12.5" ry="12.5" style="stroke:#000000;stroke-width:0.5;" width="50" x="19" y="280.2969"/><line style="stroke:#000000;stroke-width:0.5;" x1="19" x2="69" y1="306.5938" y2="306.5938"/><text fill="#000000" font-family="sans-serif" font-size="14" lengthAdjust="spacing" textLength="4.4502" x="41.7749" y="298.292">&#160;</text></g><g id="AbrirGruposContainer.PasoLista"><rect fill="#FFFFFF" height="50" rx="12.5" ry="12.5" style="stroke:#000000;stroke-width:0.5;" width="50" x="19" y="491.2969"/><line style="stroke:#000000;stroke-width:0.5;" x1="19" x2="69" y1="517.5938" y2="517.5938"/><text fill="#000000" font-family="sans-serif" font-size="14" lengthAdjust="spacing" textLength="4.4502" x="41.7749" y="509.292">&#160;</text></g><ellipse cx="44" cy="199.2969" fill="#222222" rx="10" ry="10" style="stroke:#222222;stroke-width:1;"/><ellipse cx="44" cy="623.2969" fill="none" rx="11" ry="11" style="stroke:#222222;stroke-width:1;"/><ellipse cx="44" cy="623.2969" fill="#222222" rx="6" ry="6" style="stroke:#222222;stroke-width:1;"/><!--link *start*AbrirGruposContainer to PasoInicial--><g class="link" data-entity-1=".start.AbrirGruposContainer" data-entity-2="PasoInicial" data-source-line="32" data-uid="lnk3" id="link_.start.AbrirGruposContainer_PasoInicial"><path d="M44,209.5269 C44,225.2369 44,251.6569 44,274.1669" fill="none" id="*start*AbrirGruposContainer-to-PasoInicial" style="stroke:#009900;stroke-width:1;"/><polygon fill="#009900" points="44,280.1669,48,271.1669,44,275.1669,40,271.1669,44,280.1669" style="stroke:#009900;stroke-width:1;"/><path d="M49,232.2969 L49,257.2969 L308,257.2969 L308,242.2969 L298,232.2969 L49,232.2969" fill="#FFFFE0" style="stroke:#B0B060;stroke-width:0.5;"/><path d="M298,232.2969 L298,242.2969 L308,242.2969 L298,232.2969" fill="#FFFFE0" style="stroke:#B0B060;stroke-width:0.5;"/><text fill="#000000" font-family="Arial" font-size="13" font-weight="bold" lengthAdjust="spacing" textLength="104.8633" x="55" y="249.3638">Administrador</text><text fill="#000000" font-family="Arial" font-size="13" lengthAdjust="spacing" textLength="129.3716" x="163.9956" y="249.3638">solicita abrir grupos</text></g><!--link PasoInicial to PasoLista--><g class="link" data-entity-1="PasoInicial" data-entity-2="PasoLista" data-source-line="38" data-uid="lnk4" id="link_PasoInicial_PasoLista"><path d="M44,330.6769 C44,370.9569 44,444.8969 44,485.0669" fill="none" id="PasoInicial-to-PasoLista" style="stroke:#009900;stroke-width:1;"/><polygon fill="#009900" points="44,491.0669,48,482.0669,44,486.0669,40,482.0669,44,491.0669" style="stroke:#009900;stroke-width:1;"/><path d="M49,353.2969 L49,468.2969 L311,468.2969 L311,363.2969 L301,353.2969 L49,353.2969" fill="#FFFFE0" style="stroke:#B0B060;stroke-width:0.5;"/><path d="M301,353.2969 L301,363.2969 L311,363.2969 L301,353.2969" fill="#FFFFE0" style="stroke:#B0B060;stroke-width:0.5;"/><text fill="#000000" font-family="Arial" font-size="13" font-weight="bold" lengthAdjust="spacing" textLength="58.9063" x="55" y="370.3638">Sistema</text><text fill="#000000" font-family="Arial" font-size="13" lengthAdjust="spacing" textLength="158.1899" x="118.0386" y="370.3638">presenta lista de grupos</text><text fill="#000000" font-family="Arial" font-size="13" lengthAdjust="spacing" textLength="190.0742" x="55" y="385.4966">&#8226; ID y nombre de cada grupo</text><text fill="#000000" font-family="Arial" font-size="13" lengthAdjust="spacing" textLength="188.481" x="55" y="400.6294">&#8226; Permite solicitar filtrar lista</text><text fill="#000000" font-family="Arial" font-size="13" lengthAdjust="spacing" textLength="241.9663" x="55" y="415.7622">&#8226; Permite solicitar crear grupo nuevo</text><text fill="#000000" font-family="Arial" font-size="13" lengthAdjust="spacing" textLength="202.1792" x="55" y="430.895">&#8226; Permite solicitar editar grupo</text><text fill="#000000" font-family="Arial" font-size="13" lengthAdjust="spacing" textLength="236.8247" x="55" y="446.0278">&#8226; Permite solicitar unirse a un grupo</text><text fill="#000000" font-family="Arial" font-size="13" lengthAdjust="spacing" textLength="216.9565" x="55" y="461.1606">&#8226; Permite solicitar eliminar grupo</text></g><!--link PasoLista to PasoLista--><g class="link" data-entity-1="PasoLista" data-entity-2="PasoLista" data-source-line="50" data-uid="lnk5" id="link_PasoLista_PasoLista"><path d="M69.18,505.0869 C78.91,504.5969 87,508.3269 87,516.2969 C87,524.2669 84.9024,528.2987 75.1724,527.8087" fill="none" id="PasoLista-to-PasoLista" style="stroke:#009900;stroke-width:1;"/><polygon fill="#009900" points="69.18,527.5069,77.9674,531.9545,74.1737,527.7584,78.3698,523.9646,69.18,527.5069" style="stroke:#009900;stroke-width:1;"/><path d="M92,496.2969 L92,536.2969 L338,536.2969 L338,506.2969 L328,496.2969 L92,496.2969" fill="#FFFFE0" style="stroke:#B0B060;stroke-width:0.5;"/><path d="M328,496.2969 L328,506.2969 L338,506.2969 L328,496.2969" fill="#FFFFE0" style="stroke:#B0B060;stroke-width:0.5;"/><text fill="#000000" font-family="Arial" font-size="13" font-weight="bold" lengthAdjust="spacing" textLength="104.8633" x="98" y="513.3638">Administrador</text><text fill="#000000" font-family="Arial" font-size="13" lengthAdjust="spacing" textLength="116.6509" x="206.9956" y="513.3638">solicita filtrar lista</text><text fill="#000000" font-family="Arial" font-size="13" font-weight="bold" lengthAdjust="spacing" textLength="58.9063" x="98" y="528.4966">Sistema</text><text fill="#000000" font-family="Arial" font-size="13" lengthAdjust="spacing" textLength="139.4199" x="161.0386" y="528.4966">presenta lista filtrada</text></g><!--link PasoLista to *end*AbrirGruposContainer--><g class="link" data-entity-1="PasoLista" data-entity-2=".end.AbrirGruposContainer" data-source-line="57" data-uid="lnk7" id="link_PasoLista_.end.AbrirGruposContainer"><path d="M44,541.3869 C44,563.7869 44,590.0669 44,606.2469" fill="none" id="PasoLista-to-*end*AbrirGruposContainer" style="stroke:#009900;stroke-width:1;"/><polygon fill="#009900" points="44,612.2469,48,603.2469,44,607.2469,40,603.2469,44,612.2469" style="stroke:#009900;stroke-width:1;"/><path d="M49,564.2969 L49,589.2969 L358,589.2969 L358,574.2969 L348,564.2969 L49,564.2969" fill="#FFFFE0" style="stroke:#B0B060;stroke-width:0.5;"/><path d="M348,564.2969 L348,574.2969 L358,574.2969 L348,564.2969" fill="#FFFFE0" style="stroke:#B0B060;stroke-width:0.5;"/><text fill="#000000" font-family="Arial" font-size="13" font-weight="bold" lengthAdjust="spacing" textLength="104.8633" x="55" y="581.3638">Administrador</text><text fill="#000000" font-family="Arial" font-size="13" lengthAdjust="spacing" textLength="179.2769" x="163.9956" y="581.3638">solicita una de las opciones</text></g><g id="GRUPO_ABIERTO"><rect fill="#FFFFFF" height="50" rx="12.5" ry="12.5" style="stroke:#000000;stroke-width:0.5;" width="138.7402" x="28.5" y="739"/><line style="stroke:#000000;stroke-width:0.5;" x1="28.5" x2="167.2402" y1="765.2969" y2="765.2969"/><text fill="#000000" font-family="sans-serif" font-size="14" lengthAdjust="spacing" textLength="118.7402" x="38.5" y="756.9951">GRUPO_ABIERTO</text></g><g id="GRUPOS_ABIERTO"><rect fill="#FFFFFF" height="50" rx="12.5" ry="12.5" style="stroke:#000000;stroke-width:0.5;" width="147.627" x="203" y="739"/><line style="stroke:#000000;stroke-width:0.5;" x1="203" x2="350.627" y1="765.2969" y2="765.2969"/><text fill="#000000" font-family="sans-serif" font-size="14" lengthAdjust="spacing" textLength="127.627" x="213" y="756.9951">GRUPOS_ABIERTO</text></g><!--link SISTEMA_DISPONIBLE to AbrirGruposContainer--><g class="link" data-entity-1="SISTEMA_DISPONIBLE" data-entity-2="AbrirGruposContainer" data-source-line="68" data-uid="lnk8" id="link_SISTEMA_DISPONIBLE_AbrirGruposContainer"><path d="M183.2,57.13 C181.91,66.44 180.63,77.19 180,87 C179,102.52 179.8,106.45 180,122 C180.12,131.79 180.1689,135.7709 180.3389,145.8609" fill="none" id="SISTEMA_DISPONIBLE-to-AbrirGruposContainer" style="stroke:#009900;stroke-width:1;"/><polygon fill="#009900" points="180.44,151.86,184.2878,142.7939,180.3558,146.8607,176.289,142.9287,180.44,151.86" style="stroke:#009900;stroke-width:1;"/></g><!--link AbrirGruposContainer to SISTEMA_DISPONIBLE--><g class="link" data-entity-1="AbrirGruposContainer" data-entity-2="SISTEMA_DISPONIBLE" data-source-line="83" data-uid="lnk11" id="link_AbrirGruposContainer_SISTEMA_DISPONIBLE"><path d="M187,151.72 C187,113.11 187,84.84 187,63.16" fill="none" id="AbrirGruposContainer-to-SISTEMA_DISPONIBLE" style="stroke:#009900;stroke-width:1;"/><polygon fill="#009900" points="187,57.16,183,66.16,187,62.16,191,66.16,187,57.16" style="stroke:#009900;stroke-width:1;"/><path d="M192,92 L192,117 L338,117 L338,102 L328,92 L192,92" fill="#FFFFE0" style="stroke:#B0B060;stroke-width:0.5;"/><path d="M328,92 L328,102 L338,102 L328,92" fill="#FFFFE0" style="stroke:#B0B060;stroke-width:0.5;"/><text fill="#000000" font-family="Arial" font-size="13" lengthAdjust="spacing" textLength="125.9248" x="198" y="109.0669">completarGestion()</text></g><!--link AbrirGruposContainer to GRUPO_ABIERTO--><g class="link" data-entity-1="AbrirGruposContainer" data-entity-2="GRUPO_ABIERTO" data-source-line="73" data-uid="lnk9" id="link_AbrirGruposContainer_GRUPO_ABIERTO"><path d="M121.89,644.31 C119.51,654.33 117.2,664.25 115,674 C110.07,695.79 106.4336,714.8832 103.2336,732.8232" fill="none" id="AbrirGruposContainer-to-GRUPO_ABIERTO" style="stroke:#009900;stroke-width:1;"/><polygon fill="#009900" points="102.18,738.73,107.6983,730.5722,103.058,733.8077,99.8226,729.1674,102.18,738.73" style="stroke:#009900;stroke-width:1;"/><path d="M120,679 L120,704 L229,704 L229,689 L219,679 L120,679" fill="#FFFFE0" style="stroke:#B0B060;stroke-width:0.5;"/><path d="M219,679 L219,689 L229,689 L219,679" fill="#FFFFE0" style="stroke:#B0B060;stroke-width:0.5;"/><text fill="#000000" font-family="Arial" font-size="13" lengthAdjust="spacing" textLength="88.2769" x="126" y="696.0669">editarGrupo()</text></g><!--link AbrirGruposContainer to GRUPOS_ABIERTO--><g class="link" data-entity-1="AbrirGruposContainer" data-entity-2="GRUPOS_ABIERTO" data-source-line="78" data-uid="lnk10" id="link_AbrirGruposContainer_GRUPOS_ABIERTO"><path d="M247.59,644.06 C257.18,682.83 264.2512,711.4251 269.6112,733.1251" fill="none" id="AbrirGruposContainer-to-GRUPOS_ABIERTO" style="stroke:#009900;stroke-width:1;"/><polygon fill="#009900" points="271.05,738.95,272.7751,729.2534,269.851,734.0959,265.0085,731.1718,271.05,738.95" style="stroke:#009900;stroke-width:1;"/><path d="M267,679 L267,704 L375,704 L375,689 L365,679 L267,679" fill="#FFFFE0" style="stroke:#B0B060;stroke-width:0.5;"/><path d="M365,679 L365,689 L375,689 L365,679" fill="#FFFFE0" style="stroke:#B0B060;stroke-width:0.5;"/><text fill="#000000" font-family="Arial" font-size="13" lengthAdjust="spacing" textLength="87.2993" x="273" y="696.0669">abrirGrupos()</text></g><!--SRC=[dLNDRXen4Bxp5AFc440YeZ-gb4ibDe48AKrGDbKFLHMPtG6SU3t8zYQjgafzbjvwxYFaJVea7TiBB0HIL5ymu_7dRxxvsKCu8JsHqzA8J3x-rd0lRIaKoFpnbtOo4y1_y1QBkQA6lPDwBemee21DsSnGWJ0HocBjoCv4JW-LsT4S7C6OdAC2ScamSv9qe-xlX4FurW1UYSZkfePAdP-G8WCVPz9XF26JeudMHB5RiFQCeOTeFEXsZu-xtM1EdJ1kqxU_08scxtKEcdPIE1ZmwdUVa3X8kadtRRGFIBiBmLhqZ1JAGnz2d-FA2QIMcVGIVd5eD4iOeas7wNN_VU_cT9YEBY-6oNc_TYMZObwYTGld5s9if3apvPnii_K2X8NUoiBfSq9gD1N_dOhxmyKR5d84eJCbRf4f1ceMcbPgbg8O6_Hb8CSAM-5QnGF2soDXQHYZsdvuBjcqUE_b4GHdWiuxI4dnrfLvEFpK_WmTjcu2XcIG1YLrp9nVxNOlBrXCwmppD-qss0Z61Uh5W6bG8_YZpWF8WiEhezNBdiR8e4LMBHOyAw42O-zSuxBaThuytS4iPGSi17EQLyWHqKFNQFdrvyTF69x2ruNCx969N4ItDQyHceABVnccWObK7BofiTtjcnaKbIQWIxp_5pRcuMSV6gMMndBry6OlVrII4xS6lfcWrqUGb9aASWn2bDm6pHJLfCDxRQMluDOoGI4Xq35oEdFxvcXdzMnNzPcanWkvM8_4_wcYUSFbXWgpPNdHF6wPwu0xhEgtpN3ub3lYls8eTQWrnGtetoAD6urGcqYM0z12eLsC95kDcREh3wFBcruox5zTNzPjwTB88DSX7ylGM9UWnTE15WBQDgVgA9wfXx52IUw2PY-BjXRxf0Yb5NuWEOuBMGtcxXMnu8SsM5cKAjGNyB2KYXXezQbgR1sHdjDwd1jInpu8rvgjngfEdqTBTy6jJUvzuBPy63OW_TT1eIVfeoPTm_qB]--></g></svg>