<svg xmlns="http://www.w3.org/2000/svg" xmlns:xlink="http://www.w3.org/1999/xlink" contentStyleType="text/css" data-diagram-type="STATE" height="817px" preserveAspectRatio="none" style="width:384px;height:817px;background:#FFFFFF;" version="1.1" viewBox="0 0 384 817" width="384px" zoomAndPan="magnify"><defs/><g><rect fill="#FFFFFF" height="40" rx="12.5" ry="12.5" style="stroke:#000000;stroke-width:0.5;" width="137.627" x="120" y="7"/><text fill="#000000" font-family="sans-serif" font-size="14" lengthAdjust="spacing" textLength="127.627" x="125" y="31.8467">GRUPOS_ABIERTO</text><rect fill="#FFFFFF" height="40" rx="12.5" ry="12.5" style="stroke:#000000;stroke-width:0.5;" width="128.7402" x="124.5" y="771"/><text fill="#000000" font-family="sans-serif" font-size="14" lengthAdjust="spacing" textLength="118.7402" x="129.5" y="795.8467">GRUPO_ABIERTO</text><path d="M19.5,107 L358.5,107 A12.5,12.5 0 0 1 371,119.5 L371,133.2969 L7,133.2969 L7,119.5 A12.5,12.5 0 0 1 19.5,107" fill="#FFFFFF"/><rect fill="none" height="604.2969" rx="12.5" ry="12.5" style="stroke:#000000;stroke-width:0.5;" width="364" x="7" y="107"/><line style="stroke:#000000;stroke-width:0.5;" x1="7" x2="371" y1="133.2969" y2="133.2969"/><text fill="#000000" font-family="sans-serif" font-size="14" lengthAdjust="spacing" textLength="95.0674" x="141.4663" y="124.9951">editarGrupo()</text><rect fill="#FFFFFF" height="40" rx="12.5" ry="12.5" style="stroke:#000000;stroke-width:0.5;" width="50" x="19" y="235.2969"/><text fill="#000000" font-family="sans-serif" font-size="14" lengthAdjust="spacing" textLength="4.4502" x="41.7749" y="260.1436">&#160;</text><rect fill="#FFFFFF" height="40" rx="12.5" ry="12.5" style="stroke:#000000;stroke-width:0.5;" width="50" x="19" y="346.2969"/><text fill="#000000" font-family="sans-serif" font-size="14" lengthAdjust="spacing" textLength="4.4502" x="41.7749" y="371.1436">&#160;</text><rect fill="#FFFFFF" height="40" rx="12.5" ry="12.5" style="stroke:#000000;stroke-width:0.5;" width="50" x="19" y="457.2969"/><text fill="#000000" font-family="sans-serif" font-size="14" lengthAdjust="spacing" textLength="4.4502" x="41.7749" y="482.1436">&#160;</text><rect fill="#FFFFFF" height="40" rx="12.5" ry="12.5" style="stroke:#000000;stroke-width:0.5;" width="50" x="19" y="568.2969"/><text fill="#000000" font-family="sans-serif" font-size="14" lengthAdjust="spacing" textLength="4.4502" x="41.7749" y="593.1436">&#160;</text><ellipse cx="44" cy="154.2969" fill="#222222" rx="10" ry="10" style="stroke:#222222;stroke-width:1;"/><ellipse cx="44" cy="690.2969" fill="none" rx="11" ry="11" style="stroke:#222222;stroke-width:1;"/><ellipse cx="44" cy="690.2969" fill="#222222" rx="6" ry="6" style="stroke:#222222;stroke-width:1;"/><!--link *start*MainBlock to Paso1--><g class="link" data-entity-1=".start.MainBlock" data-entity-2="Paso1" data-source-line="22" data-uid="lnk3" id="link_.start.MainBlock_Paso1"><path d="M44,164.4369 C44,180.4169 44,207.7869 44,229.0669" fill="none" id="*start*MainBlock-to-Paso1" style="stroke:#008000;stroke-width:1;"/><polygon fill="#008000" points="44,235.0669,48,226.0669,44,230.0669,40,226.0669,44,235.0669" style="stroke:#008000;stroke-width:1;"/><path d="M49,187.2969 L49,212.2969 L316,212.2969 L316,197.2969 L306,187.2969 L49,187.2969" fill="#FFFFE0" style="stroke:#808080;stroke-width:0.5;"/><path d="M306,187.2969 L306,197.2969 L316,197.2969 L306,187.2969" fill="#FFFFE0" style="stroke:#808080;stroke-width:0.5;"/><text fill="#000000" font-family="sans-serif" font-size="13" font-weight="bold" lengthAdjust="spacing" textLength="162.1191" x="55" y="204.3638">Administrador solicita</text><text fill="#000000" font-family="sans-serif" font-size="13" lengthAdjust="spacing" textLength="80.4438" x="221.2515" y="204.3638">editar grupo</text></g><!--link Paso1 to Paso2--><g class="link" data-entity-1="Paso1" data-entity-2="Paso2" data-source-line="30" data-uid="lnk4" id="link_Paso1_Paso2"><path d="M44,275.5369 C44,295.4569 44,320.3969 44,340.2569" fill="none" id="Paso1-to-Paso2" style="stroke:#008000;stroke-width:1;"/><polygon fill="#008000" points="44,346.2569,48,337.2569,44,341.2569,40,337.2569,44,346.2569" style="stroke:#008000;stroke-width:1;"/><path d="M49,298.2969 L49,323.2969 L362,323.2969 L362,308.2969 L352,298.2969 L49,298.2969" fill="#FFFFE0" style="stroke:#808080;stroke-width:0.5;"/><path d="M352,298.2969 L352,308.2969 L362,308.2969 L352,298.2969" fill="#FFFFE0" style="stroke:#808080;stroke-width:0.5;"/><text fill="#000000" font-family="sans-serif" font-size="13" font-weight="bold" lengthAdjust="spacing" textLength="127.3784" x="55" y="315.3638">Sistema visualiza</text><text fill="#000000" font-family="sans-serif" font-size="13" lengthAdjust="spacing" textLength="161.1416" x="186.5107" y="315.3638">datos actuales del grupo</text></g><!--link Paso2 to Paso3--><g class="link" data-entity-1="Paso2" data-entity-2="Paso3" data-source-line="38" data-uid="lnk5" id="link_Paso2_Paso3"><path d="M44,386.5369 C44,406.4569 44,431.3969 44,451.2569" fill="none" id="Paso2-to-Paso3" style="stroke:#008000;stroke-width:1;"/><polygon fill="#008000" points="44,457.2569,48,448.2569,44,452.2569,40,448.2569,44,457.2569" style="stroke:#008000;stroke-width:1;"/><path d="M49,409.2969 L49,434.2969 L326,434.2969 L326,419.2969 L316,409.2969 L49,409.2969" fill="#FFFFE0" style="stroke:#808080;stroke-width:0.5;"/><path d="M316,409.2969 L316,419.2969 L326,419.2969 L316,409.2969" fill="#FFFFE0" style="stroke:#808080;stroke-width:0.5;"/><text fill="#000000" font-family="sans-serif" font-size="13" font-weight="bold" lengthAdjust="spacing" textLength="197.9263" x="55" y="426.3638">Sistema permite introducir</text><text fill="#000000" font-family="sans-serif" font-size="13" lengthAdjust="spacing" textLength="54.3677" x="257.0586" y="426.3638">cambios</text></g><!--link Paso3 to Paso4--><g class="link" data-entity-1="Paso3" data-entity-2="Paso4" data-source-line="46" data-uid="lnk6" id="link_Paso3_Paso4"><path d="M44,497.5369 C44,517.4569 44,542.3969 44,562.2569" fill="none" id="Paso3-to-Paso4" style="stroke:#008000;stroke-width:1;"/><polygon fill="#008000" points="44,568.2569,48,559.2569,44,563.2569,40,559.2569,44,568.2569" style="stroke:#008000;stroke-width:1;"/><path d="M49,520.2969 L49,545.2969 L308,545.2969 L308,530.2969 L298,520.2969 L49,520.2969" fill="#FFFFE0" style="stroke:#808080;stroke-width:0.5;"/><path d="M298,520.2969 L298,530.2969 L308,530.2969 L298,520.2969" fill="#FFFFE0" style="stroke:#808080;stroke-width:0.5;"/><text fill="#000000" font-family="sans-serif" font-size="13" font-weight="bold" lengthAdjust="spacing" textLength="179.7402" x="55" y="537.3638">Administrador introduce</text><text fill="#000000" font-family="sans-serif" font-size="13" lengthAdjust="spacing" textLength="54.3677" x="238.8726" y="537.3638">cambios</text></g><!--link Paso4 to *end*MainBlock--><g class="link" data-entity-1="Paso4" data-entity-2=".end.MainBlock" data-source-line="54" data-uid="lnk8" id="link_Paso4_.end.MainBlock"><path d="M44,608.5769 C44,629.6869 44,656.7369 44,673.2269" fill="none" id="Paso4-to-*end*MainBlock" style="stroke:#008000;stroke-width:1;"/><polygon fill="#008000" points="44,679.2269,48,670.2269,44,674.2269,40,670.2269,44,679.2269" style="stroke:#008000;stroke-width:1;"/><path d="M49,631.2969 L49,656.2969 L317,656.2969 L317,641.2969 L307,631.2969 L49,631.2969" fill="#FFFFE0" style="stroke:#808080;stroke-width:0.5;"/><path d="M307,631.2969 L307,641.2969 L317,641.2969 L307,631.2969" fill="#FFFFE0" style="stroke:#808080;stroke-width:0.5;"/><text fill="#000000" font-family="sans-serif" font-size="13" font-weight="bold" lengthAdjust="spacing" textLength="128.7622" x="55" y="648.3638">Sistema presenta</text><text fill="#000000" font-family="sans-serif" font-size="13" lengthAdjust="spacing" textLength="114.1626" x="187.8945" y="648.3638">grupo modificado</text></g><!--link GRUPOS_ABIERTO to MainBlock--><g class="link" data-entity-1="GRUPOS_ABIERTO" data-entity-2="MainBlock" data-source-line="61" data-uid="lnk9" id="link_GRUPOS_ABIERTO_MainBlock"><path d="M189,47.1 C189,61.1 189,75.92 189,100.62" fill="none" id="GRUPOS_ABIERTO-to-MainBlock" style="stroke:#008000;stroke-width:1;"/><polygon fill="#008000" points="189,106.62,193,97.62,189,101.62,185,97.62,189,106.62" style="stroke:#008000;stroke-width:1;"/></g><!--link GRUPO_ABIERTO to MainBlock--><g class="link" data-entity-1="GRUPO_ABIERTO" data-entity-2="MainBlock" data-source-line="62" data-uid="lnk10" id="link_GRUPO_ABIERTO_MainBlock"><path d="M195.35,770.78 C197.41,756.76 198.736,741.9433 199.906,717.2533" fill="none" id="GRUPO_ABIERTO-to-MainBlock" style="stroke:#008000;stroke-width:1;"/><polygon fill="#008000" points="200.19,711.26,195.7685,720.0606,199.9533,716.2544,203.7595,720.4392,200.19,711.26" style="stroke:#008000;stroke-width:1;"/></g><!--link MainBlock to GRUPO_ABIERTO--><g class="link" data-entity-1="MainBlock" data-entity-2="GRUPO_ABIERTO" data-source-line="65" data-uid="lnk11" id="link_MainBlock_GRUPO_ABIERTO"><path d="M178.44,711.26 C179.54,735.95 180.2376,750.8166 182.1776,764.8366" fill="none" id="MainBlock-to-GRUPO_ABIERTO" style="stroke:#008000;stroke-width:1;"/><polygon fill="#008000" points="183,770.78,185.7286,761.3167,182.3147,765.8272,177.8041,762.4132,183,770.78" style="stroke:#008000;stroke-width:1;"/></g><!--SRC=[ZPJFZjCm4CRlUOfHBxjRgPNwvzG3KhkgoagiThK58OGGcjfkEwhZ2RP3MH1FnIFmOaoSDcm4BCaXaiUJpxyPVvCzQGCcB-8ZQ1EKfo8IkooxW6M8P3d0PmebMXEoS21NeCSSGiHeu5i6yYnG7NQUIwUlsRA7jtkAfjvXhuslemihQIawzvwFTN3bZN7PzoV2Zl-f-ufs-_ZEMCl7FzHN7Xz5Hw17mueRjN1BNKiNFMhCQjxLmvlxk_N7-U9c-V3wxccmYOd2-Am0YlEYD24o59wSeWBj38ocY7xbou8lhquQlLQm1nZW5iajBAl3gPhqke0RHueuBTxtFy1Wy0BkCV0eHLBnxC2IgrjLFVt-NEVaA5ILIAc1hKX4xFTFAB2hZatvnkaaagLLpPRaAw8UzB8JnLmf-ld3IOSih4NPv0YZ6TnoTOW7o_2fDB2NdbRvjS8PTVmSwbcijWnzhIWrHhaCL36PA9tvV-9n1-Bn35xYXcngWlIYphXScyfAcgyQ-743F-a2NnYVYuM1n3oiIqLUgb2ORuZ3iz2JPw3dAhAVYRDamZRa6xP9mpRjxe4pcUa8DktGpSaChjbjoUTORsx9eMqufubJFDkfWzu4uv97qrL3pfgsf0I-pPb6TZAiJZPVvBTZMbFRdbSOQ3uwWMX6AslDxb_sHNmwXBKuKTH-J-GviVNvBm00]--></g></svg>