<svg xmlns="http://www.w3.org/2000/svg" xmlns:xlink="http://www.w3.org/1999/xlink" contentStyleType="text/css" data-diagram-type="STATE" height="731px" preserveAspectRatio="none" style="width:700px;height:731px;background:#FFFFFF;" version="1.1" viewBox="0 0 700 731" width="700px" zoomAndPan="magnify"><defs/><g><g id="GRUPOS_ABIERTO"><rect fill="#FFFFFF" height="50" rx="12.5" ry="12.5" style="stroke:#000000;stroke-width:0.5;" width="147.627" x="94" y="7"/><line style="stroke:#000000;stroke-width:0.5;" x1="94" x2="241.627" y1="33.2969" y2="33.2969"/><text fill="#000000" font-family="sans-serif" font-size="14" lengthAdjust="spacing" textLength="127.627" x="104" y="24.9951">GRUPOS_ABIERTO</text></g><g id="GRUPO_ABIERTO"><rect fill="#FFFFFF" height="50" rx="12.5" ry="12.5" style="stroke:#000000;stroke-width:0.5;" width="138.7402" x="277.5" y="7"/><line style="stroke:#000000;stroke-width:0.5;" x1="277.5" x2="416.2402" y1="33.2969" y2="33.2969"/><text fill="#000000" font-family="sans-serif" font-size="14" lengthAdjust="spacing" textLength="118.7402" x="287.5" y="24.9951">GRUPO_ABIERTO</text></g><g id="TAREAS_ABIERTO"><rect fill="#FFFFFF" height="50" rx="12.5" ry="12.5" style="stroke:#000000;stroke-width:0.5;" width="143.6211" x="452" y="7"/><line style="stroke:#000000;stroke-width:0.5;" x1="452" x2="595.6211" y1="33.2969" y2="33.2969"/><text fill="#000000" font-family="sans-serif" font-size="14" lengthAdjust="spacing" textLength="123.6211" x="462" y="24.9951">TAREAS_ABIERTO</text></g><path d="M19.5,118 L674.49,118 A12.5,12.5 0 0 1 686.99,130.5 L686.99,144.2969 L7,144.2969 L7,130.5 A12.5,12.5 0 0 1 19.5,118" fill="#FFFFFF"/><rect fill="none" height="462.2969" rx="12.5" ry="12.5" style="stroke:#000000;stroke-width:0.5;" width="679.99" x="7" y="118"/><line style="stroke:#000000;stroke-width:0.5;" x1="7" x2="686.99" y1="144.2969" y2="144.2969"/><text fill="#000000" font-family="sans-serif" font-size="14" lengthAdjust="spacing" textLength="95.0674" x="299.4613" y="135.9951">editarGrupo()</text><g id="EditarGrupoContainer.EstadoPreVisualizacion"><rect fill="#FFFFFF" height="50" rx="12.5" ry="12.5" style="stroke:#000000;stroke-width:0.5;" width="50" x="186.99" y="246.2969"/><line style="stroke:#000000;stroke-width:0.5;" x1="186.99" x2="236.99" y1="272.5938" y2="272.5938"/><text fill="#000000" font-family="sans-serif" font-size="14" lengthAdjust="spacing" textLength="4.4502" x="209.7649" y="264.292">&#160;</text></g><g id="EditarGrupoContainer.EstadoDecision"><rect fill="#FFFFFF" height="50" rx="12.5" ry="12.5" style="stroke:#000000;stroke-width:0.5;" width="50" x="186.99" y="427.2969"/><line style="stroke:#000000;stroke-width:0.5;" x1="186.99" x2="236.99" y1="453.5938" y2="453.5938"/><text fill="#000000" font-family="sans-serif" font-size="14" lengthAdjust="spacing" textLength="4.4502" x="209.7649" y="445.292">&#160;</text></g><ellipse cx="211.99" cy="165.2969" fill="#222222" rx="10" ry="10" style="stroke:#222222;stroke-width:1;"/><ellipse cx="211.99" cy="559.2969" fill="none" rx="11" ry="11" style="stroke:#222222;stroke-width:1;"/><ellipse cx="211.99" cy="559.2969" fill="#222222" rx="6" ry="6" style="stroke:#222222;stroke-width:1;"/><!--link *start*EditarGrupoContainer to EstadoPreVisualizacion--><g class="link" data-entity-1=".start.EditarGrupoContainer" data-entity-2="EstadoPreVisualizacion" data-source-line="31" data-uid="lnk3" id="link_.start.EditarGrupoContainer_EstadoPreVisualizacion"><path d="M211.99,175.5269 C211.99,191.2369 211.99,217.6569 211.99,240.1669" fill="none" id="*start*EditarGrupoContainer-to-EstadoPreVisualizacion" style="stroke:#009900;stroke-width:1;"/><polygon fill="#009900" points="211.99,246.1669,215.99,237.1669,211.99,241.1669,207.99,237.1669,211.99,246.1669" style="stroke:#009900;stroke-width:1;"/><path d="M216.99,198.2969 L216.99,223.2969 L476.99,223.2969 L476.99,208.2969 L466.99,198.2969 L216.99,198.2969" fill="#FFFFE0" style="stroke:#B0B060;stroke-width:0.5;"/><path d="M466.99,198.2969 L466.99,208.2969 L476.99,208.2969 L466.99,198.2969" fill="#FFFFE0" style="stroke:#B0B060;stroke-width:0.5;"/><text fill="#000000" font-family="Arial" font-size="13" font-weight="bold" lengthAdjust="spacing" textLength="104.8633" x="222.99" y="215.3638">Administrador</text><text fill="#000000" font-family="Arial" font-size="13" lengthAdjust="spacing" textLength="130.3491" x="331.9856" y="215.3638">solicita editar grupo</text></g><!--link EstadoPreVisualizacion to EstadoDecision--><g class="link" data-entity-1="EstadoPreVisualizacion" data-entity-2="EstadoDecision" data-source-line="36" data-uid="lnk4" id="link_EstadoPreVisualizacion_EstadoDecision"><path d="M186.74,274.8569 C144.27,279.7469 61.43,291.9669 43.99,314.2969 C18,347.5769 18,376.0169 43.99,409.2969 C61.43,431.6269 138.3094,443.1606 180.7794,448.0506" fill="none" id="EstadoPreVisualizacion-to-EstadoDecision" style="stroke:#009900;stroke-width:1;"/><polygon fill="#009900" points="186.74,448.7369,178.2566,443.7337,181.7728,448.165,177.3415,451.6812,186.74,448.7369" style="stroke:#009900;stroke-width:1;"/><path d="M48.99,319.2969 L48.99,404.2969 L353.99,404.2969 L353.99,329.2969 L343.99,319.2969 L48.99,319.2969" fill="#FFFFE0" style="stroke:#B0B060;stroke-width:0.5;"/><path d="M343.99,319.2969 L343.99,329.2969 L353.99,329.2969 L343.99,319.2969" fill="#FFFFE0" style="stroke:#B0B060;stroke-width:0.5;"/><text fill="#000000" font-family="Arial" font-size="13" font-weight="bold" lengthAdjust="spacing" textLength="58.9063" x="54.99" y="336.3638">Sistema</text><text fill="#000000" font-family="Arial" font-size="13" lengthAdjust="spacing" textLength="221.5713" x="118.0286" y="336.3638">visualiza datos actuales del grupo</text><text fill="#000000" font-family="Arial" font-size="13" font-weight="bold" lengthAdjust="spacing" textLength="58.9063" x="54.99" y="351.4966">Sistema</text><text fill="#000000" font-family="Arial" font-size="13" lengthAdjust="spacing" textLength="110.5952" x="118.0286" y="351.4966">permite solicitar:</text><ellipse cx="60.49" cy="362.1953" fill="#000000" rx="2.5" ry="2.5"/><text fill="#000000" font-family="Arial" font-size="13" lengthAdjust="spacing" textLength="116.0161" x="66.99" y="366.6294">modificar campos</text><ellipse cx="60.49" cy="377.3281" fill="#000000" rx="2.5" ry="2.5"/><text fill="#000000" font-family="Arial" font-size="13" lengthAdjust="spacing" textLength="93.5391" x="66.99" y="381.7622">guardar grupo</text><ellipse cx="60.49" cy="392.4609" fill="#000000" rx="2.5" ry="2.5"/><text fill="#000000" font-family="Arial" font-size="13" lengthAdjust="spacing" textLength="106.3677" x="66.99" y="396.895">cancelar edici&#243;n</text></g><!--reverse link EstadoPreVisualizacion to EstadoDecision--><g class="link" data-entity-1="EstadoPreVisualizacion" data-entity-2="EstadoDecision" data-source-line="46" data-uid="lnk6" id="link_EstadoPreVisualizacion_EstadoDecision"><path d="M243.0792,276.7359 C281.0792,282.6259 344.32,294.8569 358.99,314.2969 C384.41,348.0069 384.41,375.5869 358.99,409.2969 C344.32,428.7369 275.15,441.8869 237.15,447.7769" fill="none" id="EstadoPreVisualizacion-backto-EstadoDecision" style="stroke:#008000;stroke-width:1;"/><polygon fill="#008000" points="237.15,275.8169,245.4311,281.1482,242.091,276.5827,246.6565,273.2426,237.15,275.8169" style="stroke:#008000;stroke-width:1;"/><path d="M382.99,349.2969 L382.99,374.2969 L677.99,374.2969 L677.99,359.2969 L667.99,349.2969 L382.99,349.2969" fill="#FFFFE0" style="stroke:#B0B060;stroke-width:0.5;"/><path d="M667.99,349.2969 L667.99,359.2969 L677.99,359.2969 L667.99,349.2969" fill="#FFFFE0" style="stroke:#B0B060;stroke-width:0.5;"/><text fill="#000000" font-family="Arial" font-size="13" font-weight="bold" lengthAdjust="spacing" textLength="104.8633" x="388.99" y="366.3638">Administrador</text><text fill="#000000" font-family="Arial" font-size="13" lengthAdjust="spacing" textLength="165.9214" x="497.9856" y="366.3638">solicita modificar campos</text></g><!--link EstadoDecision to *end*EditarGrupoContainer--><g class="link" data-entity-1="EstadoDecision" data-entity-2=".end.EditarGrupoContainer" data-source-line="52" data-uid="lnk8" id="link_EstadoDecision_.end.EditarGrupoContainer"><path d="M186.94,456.5469 C147.88,462.1869 75.33,475.1469 59.99,495.2969 C50.57,507.6769 50.03,518.3469 59.99,530.2969 C78.02,551.9469 162.7535,556.7127 194.7735,557.8027" fill="none" id="EstadoDecision-to-*end*EditarGrupoContainer" style="stroke:#008000;stroke-width:1;"/><polygon fill="#008000" points="200.77,558.0069,191.9113,553.703,195.7729,557.8368,191.6391,561.6984,200.77,558.0069" style="stroke:#008000;stroke-width:1;"/><path d="M64.99,500.2969 L64.99,525.2969 L338.99,525.2969 L338.99,510.2969 L328.99,500.2969 L64.99,500.2969" fill="#FFFFE0" style="stroke:#B0B060;stroke-width:0.5;"/><path d="M328.99,500.2969 L328.99,510.2969 L338.99,510.2969 L328.99,500.2969" fill="#FFFFE0" style="stroke:#B0B060;stroke-width:0.5;"/><text fill="#000000" font-family="Arial" font-size="13" font-weight="bold" lengthAdjust="spacing" textLength="104.8633" x="70.99" y="517.3638">Administrador</text><text fill="#000000" font-family="Arial" font-size="13" lengthAdjust="spacing" textLength="144.5361" x="179.9856" y="517.3638">solicita guardar y salir</text></g><!--link EstadoDecision to *end*EditarGrupoContainer--><g class="link" data-entity-1="EstadoDecision" data-entity-2=".end.EditarGrupoContainer" data-source-line="57" data-uid="lnk9" id="link_EstadoDecision_.end.EditarGrupoContainer"><path d="M237.14,453.0969 C268.08,454.3869 319.5,461.8069 343.99,495.2969 C353.17,507.8569 353.78,518.2069 343.99,530.2969 C328.73,549.1369 257.8275,555.429 228.9575,557.299" fill="none" id="EstadoDecision-to-*end*EditarGrupoContainer-1" style="stroke:#FF0000;stroke-width:1;"/><polygon fill="#FF0000" points="222.97,557.6869,232.2097,561.0968,227.9595,557.3637,231.6926,553.1135,222.97,557.6869" style="stroke:#FF0000;stroke-width:1;"/><path d="M355.99,500.2969 L355.99,525.2969 L641.99,525.2969 L641.99,510.2969 L631.99,500.2969 L355.99,500.2969" fill="#FFFFE0" style="stroke:#B0B060;stroke-width:0.5;"/><path d="M631.99,500.2969 L631.99,510.2969 L641.99,510.2969 L631.99,500.2969" fill="#FFFFE0" style="stroke:#B0B060;stroke-width:0.5;"/><text fill="#000000" font-family="Arial" font-size="13" font-weight="bold" lengthAdjust="spacing" textLength="104.8633" x="361.99" y="517.3638">Administrador</text><text fill="#000000" font-family="Arial" font-size="13" lengthAdjust="spacing" textLength="156.2729" x="470.9856" y="517.3638">solicita cancelar edici&#243;n</text></g><g id="GrupoAbiertoFinal"><rect fill="#FFFFFF" height="50" rx="12.5" ry="12.5" style="stroke:#000000;stroke-width:0.5;" width="138.7402" x="277.5" y="675"/><line style="stroke:#000000;stroke-width:0.5;" x1="277.5" x2="416.2402" y1="701.2969" y2="701.2969"/><text fill="#000000" font-family="sans-serif" font-size="14" lengthAdjust="spacing" textLength="118.7402" x="287.5" y="692.9951">GRUPO_ABIERTO</text></g><!--link GRUPOS_ABIERTO to EditarGrupoContainer--><g class="link" data-entity-1="GRUPOS_ABIERTO" data-entity-2="EditarGrupoContainer" data-source-line="68" data-uid="lnk10" id="link_GRUPOS_ABIERTO_EditarGrupoContainer"><path d="M181.75,57.19 C190.39,72.39 199.5152,88.4637 213.2752,112.6737" fill="none" id="GRUPOS_ABIERTO-to-EditarGrupoContainer" style="stroke:#009900;stroke-width:1;"/><polygon fill="#009900" points="216.24,117.89,215.2704,108.089,213.7694,113.5431,208.3153,112.042,216.24,117.89" style="stroke:#009900;stroke-width:1;"/></g><!--link GRUPO_ABIERTO to EditarGrupoContainer--><g class="link" data-entity-1="GRUPO_ABIERTO" data-entity-2="EditarGrupoContainer" data-source-line="69" data-uid="lnk11" id="link_GRUPO_ABIERTO_EditarGrupoContainer"><path d="M347,57.19 C347,72.39 347,87.68 347,111.89" fill="none" id="GRUPO_ABIERTO-to-EditarGrupoContainer" style="stroke:#009900;stroke-width:1;"/><polygon fill="#009900" points="347,117.89,351,108.89,347,112.89,343,108.89,347,117.89" style="stroke:#009900;stroke-width:1;"/></g><!--link TAREAS_ABIERTO to EditarGrupoContainer--><g class="link" data-entity-1="TAREAS_ABIERTO" data-entity-2="EditarGrupoContainer" data-source-line="70" data-uid="lnk12" id="link_TAREAS_ABIERTO_EditarGrupoContainer"><path d="M510.41,57.19 C501.86,72.39 492.8502,88.4498 479.2402,112.6598" fill="none" id="TAREAS_ABIERTO-to-EditarGrupoContainer" style="stroke:#009900;stroke-width:1;"/><polygon fill="#009900" points="476.3,117.89,484.1972,112.0049,478.7502,113.5315,477.2235,108.0845,476.3,117.89" style="stroke:#009900;stroke-width:1;"/></g><!--link EditarGrupoContainer to GrupoAbiertoFinal--><g class="link" data-entity-1="EditarGrupoContainer" data-entity-2="GrupoAbiertoFinal" data-source-line="76" data-uid="lnk13" id="link_EditarGrupoContainer_GrupoAbiertoFinal"><path d="M274.76,580.09 C275.73,602.43 280.04,624.42 289,645 C294,656.48 298.311,662.6054 307.541,670.9154" fill="none" id="EditarGrupoContainer-to-GrupoAbiertoFinal" style="stroke:#008000;stroke-width:1;"/><polygon fill="#008000" points="312,674.93,307.9878,665.9354,308.2841,671.5845,302.635,671.8808,312,674.93" style="stroke:#008000;stroke-width:1;"/><text fill="#000000" font-family="sans-serif" font-size="13" lengthAdjust="spacing" textLength="69.8115" x="290" y="632.0669">"              "</text></g><!--link EditarGrupoContainer to GrupoAbiertoFinal--><g class="link" data-entity-1="EditarGrupoContainer" data-entity-2="GrupoAbiertoFinal" data-source-line="79" data-uid="lnk14" id="link_EditarGrupoContainer_GrupoAbiertoFinal"><path d="M362.86,580.34 C363.3,590.36 363.68,600.28 364,610 C364.51,625.55 366.36,629.62 364,645 C362.46,655.01 361.324,660.0135 358.224,669.2235" fill="none" id="EditarGrupoContainer-to-GrupoAbiertoFinal-1" style="stroke:#FF0000;stroke-width:1;"/><polygon fill="#FF0000" points="356.31,674.91,362.9721,667.6562,357.905,670.1712,355.39,665.1042,356.31,674.91" style="stroke:#FF0000;stroke-width:1;"/><path d="M371,615 L371,640 L498,640 L498,625 L488,615 L371,615" fill="#FFFFE0" style="stroke:#B0B060;stroke-width:0.5;"/><path d="M488,615 L488,625 L498,625 L488,615" fill="#FFFFE0" style="stroke:#B0B060;stroke-width:0.5;"/><text fill="#000000" font-family="Arial" font-size="13" lengthAdjust="spacing" textLength="106.3677" x="377" y="632.0669">cancelar edici&#243;n</text></g><!--SRC=[hLLBRjim4Dth58DuaSI02hUB0icYWEmegO723YGdBH041KFI3Xk954Wglw87w66wA7e4Nwn3qKeasqg1jbp8yinmtfklTc6av5miIaseMFwIS2jCIRB0t0XP44roo9LKz5ghdCESP8OtLEQQC7Mt4bjLW5LmfQnLEJ2XERL2oQ1fRudby3K0F4D2RnPQbPADLAOqVBmMbdkDqenhBnrcQ5P98wtLdHVs1eE3Wy6W4gUMQBjk6zTElUXRauDKdHHwntZYmGQ9td0m7BprycCbxOHWBY8jC4teUXTYZ8if0_pUSYtnXN7Wqch2IE13FadEJgVfvsWuZfFPj2bSaysY98wU3P-S0rLvKNA32Iwqa5GKhaRLbHtE12RXH9U5sjlV0M8WVfPWTIqHakjLpDLZTH6ySGLmglbvLNdnY8s0PUkmE-9Kc5fVFIxwbn26xrxoK-LSISY4z0Lofz-FM2waC2vHIlVxO5GcA3877n4iN02LFPUiSXBuycv5Qf1eaUm0Jn6OvmHXRsilm8Z5wX5gyJztPSmQ7DQl5LpdsB9FhFNXinaE3HDpGJ48Il92cOPgKHBDMj5vEIMIyWmL67qrYbiYtuLXIJFUo48TAeGNlONcN5wMnVyjnjPGrccbYC6mIOHq8q3CYmnnPqZaY8tpLuJg13w0GLJTsI1DOCtPlyB-eJwDJG1p8KbMhuDwJ5lZNarKDQ3HbU3QgcDtnRa8mn1cIJH9nwFnT1Ad47-QnSaaIfqc2DgRnFVybcaFMcZTPkrzqsst8fP67yP7IELzD1f7i8uHEhFNhrRDuBRWylkzm9MrTyvnc-wZTfQSZQQ742r_4YPo73RSQoBBY7kHm4tX-jJ0BQ7B7_ZhLZRCbNx4j6S437U2rdTgwwfxwZGCPoF9S8Zxh7Ls7EytJTuZNskFj9UeBsg_4ycrrZQSOAF1DZkexfxV]--></g></svg>