<svg xmlns="http://www.w3.org/2000/svg" xmlns:xlink="http://www.w3.org/1999/xlink" contentStyleType="text/css" data-diagram-type="STATE" height="817px" preserveAspectRatio="none" style="width:484px;height:817px;background:#FFFFFF;" version="1.1" viewBox="0 0 484 817" width="484px" zoomAndPan="magnify"><defs/><g><rect fill="#FFFFFF" height="40" rx="12.5" ry="12.5" style="stroke:#000000;stroke-width:0.5;" width="137.627" x="7" y="7"/><text fill="#000000" font-family="sans-serif" font-size="14" lengthAdjust="spacing" textLength="127.627" x="12" y="31.8467">GRUPOS_ABIERTO</text><rect fill="#FFFFFF" height="40" rx="12.5" ry="12.5" style="stroke:#000000;stroke-width:0.5;" width="128.7402" x="180.5" y="7"/><text fill="#000000" font-family="sans-serif" font-size="14" lengthAdjust="spacing" textLength="118.7402" x="185.5" y="31.8467">GRUPO_ABIERTO</text><rect fill="#FFFFFF" height="40" rx="12.5" ry="12.5" style="stroke:#000000;stroke-width:0.5;" width="133.6211" x="345" y="7"/><text fill="#000000" font-family="sans-serif" font-size="14" lengthAdjust="spacing" textLength="123.6211" x="350" y="31.8467">TAREAS_ABIERTO</text><rect fill="#FFFFFF" height="40" rx="12.5" ry="12.5" style="stroke:#000000;stroke-width:0.5;" width="128.7402" x="180.5" y="771"/><text fill="#000000" font-family="sans-serif" font-size="14" lengthAdjust="spacing" textLength="118.7402" x="185.5" y="795.8467">GRUPO_ABIERTO</text><path d="M75.5,107 L414.5,107 A12.5,12.5 0 0 1 427,119.5 L427,133.2969 L63,133.2969 L63,119.5 A12.5,12.5 0 0 1 75.5,107" fill="#FFFFFF"/><rect fill="none" height="604.2969" rx="12.5" ry="12.5" style="stroke:#000000;stroke-width:0.5;" width="364" x="63" y="107"/><line style="stroke:#000000;stroke-width:0.5;" x1="63" x2="427" y1="133.2969" y2="133.2969"/><text fill="#000000" font-family="sans-serif" font-size="14" lengthAdjust="spacing" textLength="95.0674" x="197.4663" y="124.9951">editarGrupo()</text><rect fill="#FFFFFF" height="40" rx="12.5" ry="12.5" style="stroke:#000000;stroke-width:0.5;" width="50" x="75" y="235.2969"/><text fill="#000000" font-family="sans-serif" font-size="14" lengthAdjust="spacing" textLength="4.4502" x="97.7749" y="260.1436">&#160;</text><rect fill="#FFFFFF" height="40" rx="12.5" ry="12.5" style="stroke:#000000;stroke-width:0.5;" width="50" x="75" y="346.2969"/><text fill="#000000" font-family="sans-serif" font-size="14" lengthAdjust="spacing" textLength="4.4502" x="97.7749" y="371.1436">&#160;</text><rect fill="#FFFFFF" height="40" rx="12.5" ry="12.5" style="stroke:#000000;stroke-width:0.5;" width="50" x="75" y="457.2969"/><text fill="#000000" font-family="sans-serif" font-size="14" lengthAdjust="spacing" textLength="4.4502" x="97.7749" y="482.1436">&#160;</text><rect fill="#FFFFFF" height="40" rx="12.5" ry="12.5" style="stroke:#000000;stroke-width:0.5;" width="50" x="75" y="568.2969"/><text fill="#000000" font-family="sans-serif" font-size="14" lengthAdjust="spacing" textLength="4.4502" x="97.7749" y="593.1436">&#160;</text><ellipse cx="100" cy="154.2969" fill="#222222" rx="10" ry="10" style="stroke:#222222;stroke-width:1;"/><ellipse cx="100" cy="690.2969" fill="none" rx="11" ry="11" style="stroke:#222222;stroke-width:1;"/><ellipse cx="100" cy="690.2969" fill="#222222" rx="6" ry="6" style="stroke:#222222;stroke-width:1;"/><!--link *start*MainBlock to Paso1--><g class="link" data-entity-1=".start.MainBlock" data-entity-2="Paso1" data-source-line="27" data-uid="lnk3" id="link_.start.MainBlock_Paso1"><path d="M100,164.4369 C100,180.4169 100,207.7869 100,229.0669" fill="none" id="*start*MainBlock-to-Paso1" style="stroke:#008000;stroke-width:1;"/><polygon fill="#008000" points="100,235.0669,104,226.0669,100,230.0669,96,226.0669,100,235.0669" style="stroke:#008000;stroke-width:1;"/><path d="M105,187.2969 L105,212.2969 L372,212.2969 L372,197.2969 L362,187.2969 L105,187.2969" fill="#FFFFE0" style="stroke:#808080;stroke-width:0.5;"/><path d="M362,187.2969 L362,197.2969 L372,197.2969 L362,187.2969" fill="#FFFFE0" style="stroke:#808080;stroke-width:0.5;"/><text fill="#000000" font-family="sans-serif" font-size="13" font-weight="bold" lengthAdjust="spacing" textLength="162.1191" x="111" y="204.3638">Administrador solicita</text><text fill="#000000" font-family="sans-serif" font-size="13" lengthAdjust="spacing" textLength="80.4438" x="277.2515" y="204.3638">editar grupo</text></g><!--link Paso1 to Paso2--><g class="link" data-entity-1="Paso1" data-entity-2="Paso2" data-source-line="35" data-uid="lnk4" id="link_Paso1_Paso2"><path d="M100,275.5369 C100,295.4569 100,320.3969 100,340.2569" fill="none" id="Paso1-to-Paso2" style="stroke:#008000;stroke-width:1;"/><polygon fill="#008000" points="100,346.2569,104,337.2569,100,341.2569,96,337.2569,100,346.2569" style="stroke:#008000;stroke-width:1;"/><path d="M105,298.2969 L105,323.2969 L418,323.2969 L418,308.2969 L408,298.2969 L105,298.2969" fill="#FFFFE0" style="stroke:#808080;stroke-width:0.5;"/><path d="M408,298.2969 L408,308.2969 L418,308.2969 L408,298.2969" fill="#FFFFE0" style="stroke:#808080;stroke-width:0.5;"/><text fill="#000000" font-family="sans-serif" font-size="13" font-weight="bold" lengthAdjust="spacing" textLength="127.3784" x="111" y="315.3638">Sistema visualiza</text><text fill="#000000" font-family="sans-serif" font-size="13" lengthAdjust="spacing" textLength="161.1416" x="242.5107" y="315.3638">datos actuales del grupo</text></g><!--link Paso2 to Paso3--><g class="link" data-entity-1="Paso2" data-entity-2="Paso3" data-source-line="43" data-uid="lnk5" id="link_Paso2_Paso3"><path d="M100,386.5369 C100,406.4569 100,431.3969 100,451.2569" fill="none" id="Paso2-to-Paso3" style="stroke:#008000;stroke-width:1;"/><polygon fill="#008000" points="100,457.2569,104,448.2569,100,452.2569,96,448.2569,100,457.2569" style="stroke:#008000;stroke-width:1;"/><path d="M105,409.2969 L105,434.2969 L382,434.2969 L382,419.2969 L372,409.2969 L105,409.2969" fill="#FFFFE0" style="stroke:#808080;stroke-width:0.5;"/><path d="M372,409.2969 L372,419.2969 L382,419.2969 L372,409.2969" fill="#FFFFE0" style="stroke:#808080;stroke-width:0.5;"/><text fill="#000000" font-family="sans-serif" font-size="13" font-weight="bold" lengthAdjust="spacing" textLength="197.9263" x="111" y="426.3638">Sistema permite introducir</text><text fill="#000000" font-family="sans-serif" font-size="13" lengthAdjust="spacing" textLength="54.3677" x="313.0586" y="426.3638">cambios</text></g><!--link Paso3 to Paso4--><g class="link" data-entity-1="Paso3" data-entity-2="Paso4" data-source-line="51" data-uid="lnk6" id="link_Paso3_Paso4"><path d="M100,497.5369 C100,517.4569 100,542.3969 100,562.2569" fill="none" id="Paso3-to-Paso4" style="stroke:#008000;stroke-width:1;"/><polygon fill="#008000" points="100,568.2569,104,559.2569,100,563.2569,96,559.2569,100,568.2569" style="stroke:#008000;stroke-width:1;"/><path d="M105,520.2969 L105,545.2969 L364,545.2969 L364,530.2969 L354,520.2969 L105,520.2969" fill="#FFFFE0" style="stroke:#808080;stroke-width:0.5;"/><path d="M354,520.2969 L354,530.2969 L364,530.2969 L354,520.2969" fill="#FFFFE0" style="stroke:#808080;stroke-width:0.5;"/><text fill="#000000" font-family="sans-serif" font-size="13" font-weight="bold" lengthAdjust="spacing" textLength="179.7402" x="111" y="537.3638">Administrador introduce</text><text fill="#000000" font-family="sans-serif" font-size="13" lengthAdjust="spacing" textLength="54.3677" x="294.8726" y="537.3638">cambios</text></g><!--link Paso4 to *end*MainBlock--><g class="link" data-entity-1="Paso4" data-entity-2=".end.MainBlock" data-source-line="59" data-uid="lnk8" id="link_Paso4_.end.MainBlock"><path d="M100,608.5769 C100,629.6869 100,656.7369 100,673.2269" fill="none" id="Paso4-to-*end*MainBlock" style="stroke:#008000;stroke-width:1;"/><polygon fill="#008000" points="100,679.2269,104,670.2269,100,674.2269,96,670.2269,100,679.2269" style="stroke:#008000;stroke-width:1;"/><path d="M105,631.2969 L105,656.2969 L371,656.2969 L371,641.2969 L361,631.2969 L105,631.2969" fill="#FFFFE0" style="stroke:#808080;stroke-width:0.5;"/><path d="M361,631.2969 L361,641.2969 L371,641.2969 L361,631.2969" fill="#FFFFE0" style="stroke:#808080;stroke-width:0.5;"/><text fill="#000000" font-family="sans-serif" font-size="13" font-weight="bold" lengthAdjust="spacing" textLength="127.3784" x="111" y="648.3638">Sistema visualiza</text><text fill="#000000" font-family="sans-serif" font-size="13" lengthAdjust="spacing" textLength="114.1626" x="242.5107" y="648.3638">grupo modificado</text></g><!--link GRUPOS_ABIERTO to MainBlock--><g class="link" data-entity-1="GRUPOS_ABIERTO" data-entity-2="MainBlock" data-source-line="67" data-uid="lnk9" id="link_GRUPOS_ABIERTO_MainBlock"><path d="M84.5,47.1 C90.72,61.1 97.5409,76.4381 108.5309,101.1381" fill="none" id="GRUPOS_ABIERTO-to-MainBlock" style="stroke:#008000;stroke-width:1;"/><polygon fill="#008000" points="110.97,106.62,110.9659,96.7711,108.9374,102.0518,103.6568,100.0233,110.97,106.62" style="stroke:#008000;stroke-width:1;"/></g><!--link GRUPO_ABIERTO_IN to MainBlock--><g class="link" data-entity-1="GRUPO_ABIERTO_IN" data-entity-2="MainBlock" data-source-line="68" data-uid="lnk10" id="link_GRUPO_ABIERTO_IN_MainBlock"><path d="M245,47.1 C245,61.1 245,75.92 245,100.62" fill="none" id="GRUPO_ABIERTO_IN-to-MainBlock" style="stroke:#008000;stroke-width:1;"/><polygon fill="#008000" points="245,106.62,249,97.62,245,101.62,241,97.62,245,106.62" style="stroke:#008000;stroke-width:1;"/></g><!--link TAREAS_ABIERTO to MainBlock--><g class="link" data-entity-1="TAREAS_ABIERTO" data-entity-2="MainBlock" data-source-line="69" data-uid="lnk11" id="link_TAREAS_ABIERTO_MainBlock"><path d="M403.6,47.1 C397.45,61.1 390.7131,76.4266 379.8631,101.1266" fill="none" id="TAREAS_ABIERTO-to-MainBlock" style="stroke:#008000;stroke-width:1;"/><polygon fill="#008000" points="377.45,106.62,384.7319,99.9887,379.4609,102.0422,377.4074,96.7712,377.45,106.62" style="stroke:#008000;stroke-width:1;"/></g><!--link MainBlock to GRUPO_ABIERTO_OUT--><g class="link" data-entity-1="MainBlock" data-entity-2="GRUPO_ABIERTO_OUT" data-source-line="72" data-uid="lnk12" id="link_MainBlock_GRUPO_ABIERTO_OUT"><path d="M245,711.26 C245,735.95 245,750.76 245,764.78" fill="none" id="MainBlock-to-GRUPO_ABIERTO_OUT" style="stroke:#008000;stroke-width:1;"/><polygon fill="#008000" points="245,770.78,249,761.78,245,765.78,241,761.78,245,770.78" style="stroke:#008000;stroke-width:1;"/></g><!--SRC=[bPJTQjj048NlzHI3RvmO4eZZgruKx61Ce6r2x512AM6ykxQdMUsekrBJjFIfyWXviSwk9AVA7wx0HXhDdlr6PtOsf0sOl2ZlG9kWF1KbiSkoFan3IPO3_A1GeJKX2pVa2lIOGoYnDF0x0xacg6xMdYkdJzYoXyyRAatzXhqslevEhAIbwDXxlgs3Cs-Co_xy8-puLTqFjDwKLyPQldscFlDu9pe2VNGOkL4BjzGrTQL7ZR0dcz8IzoNXCc0kBz4I1eYRWguAImfzKsXkd30O2oRfmEpYylpiUZmvdLuipW2J40Hou3alZ0UBO1_krwAGrPybBPYtAvfWhoFJ0zcy4xa-_THaBiONq_7ZSa4UjZN5akP2dYfQuZVUtrNzx78HbOwtIahWAwcGeV3a51Letu7HLAAV-QhWlQrq9vYaFoAvYMLrqpYL_lfmwaWHfuSlWwzmSF0UpZ7mKOeaOzc19LUtGRm6Wx7EoL68BecDWSK8sMqmQ51W7RTD-SRf99AbfvejoKUY7lIoXc8kQYP7o6DrqLqiezsgh7iu9jNBMhxXMtojMjqQz2kYTHN54xi3vl0Lp0qkoKgfiM153_SEzkOcjgKMSrlOuHRsU1TOwSfSpY2GT3_hIf4NQeNvaZYy2Ndy17AiId6bbJ4TZJg_vHhjRl9MRaUeqIjVJh5RaPUREoXZmGwtNAF49KtulzOc7o5dJIivp_g9fMd0Z0xXX9tvAKDIsgaF2zR2P-Ldwc4JG4ucEfamiBJylJAF9ophZWOuq7phX7HxeBAdC-65bEvyU251e9eXiPAFOhF7uzhcFfiDVm40]--></g></svg>