<svg xmlns="http://www.w3.org/2000/svg" xmlns:xlink="http://www.w3.org/1999/xlink" contentStyleType="text/css" data-diagram-type="STATE" height="731px" preserveAspectRatio="none" style="width:706px;height:731px;background:#FFFFFF;" version="1.1" viewBox="0 0 706 731" width="706px" zoomAndPan="magnify"><defs/><g><g id="InicioLista"><rect fill="#FFFFFF" height="50" rx="12.5" ry="12.5" style="stroke:#000000;stroke-width:0.5;" width="147.627" x="7" y="7"/><line style="stroke:#000000;stroke-width:0.5;" x1="7" x2="154.627" y1="33.2969" y2="33.2969"/><text fill="#000000" font-family="sans-serif" font-size="14" lengthAdjust="spacing" textLength="127.627" x="17" y="24.9951">GRUPOS_ABIERTO</text></g><g id="InicioDetalle"><rect fill="#FFFFFF" height="50" rx="12.5" ry="12.5" style="stroke:#000000;stroke-width:0.5;" width="138.7402" x="190.5" y="7"/><line style="stroke:#000000;stroke-width:0.5;" x1="190.5" x2="329.2402" y1="33.2969" y2="33.2969"/><text fill="#000000" font-family="sans-serif" font-size="14" lengthAdjust="spacing" textLength="118.7402" x="200.5" y="24.9951">GRUPO_ABIERTO</text></g><g id="InicioTareas"><rect fill="#FFFFFF" height="50" rx="12.5" ry="12.5" style="stroke:#000000;stroke-width:0.5;" width="143.6211" x="365" y="7"/><line style="stroke:#000000;stroke-width:0.5;" x1="365" x2="508.6211" y1="33.2969" y2="33.2969"/><text fill="#000000" font-family="sans-serif" font-size="14" lengthAdjust="spacing" textLength="123.6211" x="375" y="24.9951">TAREAS_ABIERTO</text></g><g id="InicioMiembros"><rect fill="#FFFFFF" height="50" rx="12.5" ry="12.5" style="stroke:#000000;stroke-width:0.5;" width="155.9395" x="544" y="7"/><line style="stroke:#000000;stroke-width:0.5;" x1="544" x2="699.9395" y1="33.2969" y2="33.2969"/><text fill="#000000" font-family="sans-serif" font-size="14" lengthAdjust="spacing" textLength="135.9395" x="554" y="24.9951">MIEMBRO_ABIERTO</text></g><path d="M20.5,118 L675.49,118 A12.5,12.5 0 0 1 687.99,130.5 L687.99,144.2969 L8,144.2969 L8,130.5 A12.5,12.5 0 0 1 20.5,118" fill="#FFFFFF"/><rect fill="none" height="462.2969" rx="12.5" ry="12.5" style="stroke:#000000;stroke-width:0.5;" width="679.99" x="8" y="118"/><line style="stroke:#000000;stroke-width:0.5;" x1="8" x2="687.99" y1="144.2969" y2="144.2969"/><text fill="#000000" font-family="sans-serif" font-size="14" lengthAdjust="spacing" textLength="95.0674" x="300.4613" y="135.9951">editarGrupo()</text><g id="EditarGrupoContainer.EstadoPreVisualizacion"><rect fill="#FFFFFF" height="50" rx="12.5" ry="12.5" style="stroke:#000000;stroke-width:0.5;" width="50" x="187.99" y="246.2969"/><line style="stroke:#000000;stroke-width:0.5;" x1="187.99" x2="237.99" y1="272.5938" y2="272.5938"/><text fill="#000000" font-family="sans-serif" font-size="14" lengthAdjust="spacing" textLength="4.4502" x="210.7649" y="264.292">&#160;</text></g><g id="EditarGrupoContainer.EstadoDecision"><rect fill="#FFFFFF" height="50" rx="12.5" ry="12.5" style="stroke:#000000;stroke-width:0.5;" width="50" x="187.99" y="427.2969"/><line style="stroke:#000000;stroke-width:0.5;" x1="187.99" x2="237.99" y1="453.5938" y2="453.5938"/><text fill="#000000" font-family="sans-serif" font-size="14" lengthAdjust="spacing" textLength="4.4502" x="210.7649" y="445.292">&#160;</text></g><ellipse cx="212.99" cy="165.2969" fill="#222222" rx="10" ry="10" style="stroke:#222222;stroke-width:1;"/><ellipse cx="212.99" cy="559.2969" fill="none" rx="11" ry="11" style="stroke:#222222;stroke-width:1;"/><ellipse cx="212.99" cy="559.2969" fill="#222222" rx="6" ry="6" style="stroke:#222222;stroke-width:1;"/><!--link *start*EditarGrupoContainer to EstadoPreVisualizacion--><g class="link" data-entity-1=".start.EditarGrupoContainer" data-entity-2="EstadoPreVisualizacion" data-source-line="32" data-uid="lnk3" id="link_.start.EditarGrupoContainer_EstadoPreVisualizacion"><path d="M212.99,175.5269 C212.99,191.2369 212.99,217.6569 212.99,240.1669" fill="none" id="*start*EditarGrupoContainer-to-EstadoPreVisualizacion" style="stroke:#009900;stroke-width:1;"/><polygon fill="#009900" points="212.99,246.1669,216.99,237.1669,212.99,241.1669,208.99,237.1669,212.99,246.1669" style="stroke:#009900;stroke-width:1;"/><path d="M217.99,198.2969 L217.99,223.2969 L477.99,223.2969 L477.99,208.2969 L467.99,198.2969 L217.99,198.2969" fill="#FFFFE0" style="stroke:#B0B060;stroke-width:0.5;"/><path d="M467.99,198.2969 L467.99,208.2969 L477.99,208.2969 L467.99,198.2969" fill="#FFFFE0" style="stroke:#B0B060;stroke-width:0.5;"/><text fill="#000000" font-family="Arial" font-size="13" font-weight="bold" lengthAdjust="spacing" textLength="104.8633" x="223.99" y="215.3638">Administrador</text><text fill="#000000" font-family="Arial" font-size="13" lengthAdjust="spacing" textLength="130.3491" x="332.9856" y="215.3638">solicita editar grupo</text></g><!--link EstadoPreVisualizacion to EstadoDecision--><g class="link" data-entity-1="EstadoPreVisualizacion" data-entity-2="EstadoDecision" data-source-line="37" data-uid="lnk4" id="link_EstadoPreVisualizacion_EstadoDecision"><path d="M187.74,274.8569 C145.27,279.7469 62.43,291.9669 44.99,314.2969 C19,347.5769 19,376.0169 44.99,409.2969 C62.43,431.6269 139.3094,443.1606 181.7794,448.0506" fill="none" id="EstadoPreVisualizacion-to-EstadoDecision" style="stroke:#009900;stroke-width:1;"/><polygon fill="#009900" points="187.74,448.7369,179.2566,443.7337,182.7728,448.165,178.3415,451.6812,187.74,448.7369" style="stroke:#009900;stroke-width:1;"/><path d="M49.99,319.2969 L49.99,404.2969 L354.99,404.2969 L354.99,329.2969 L344.99,319.2969 L49.99,319.2969" fill="#FFFFE0" style="stroke:#B0B060;stroke-width:0.5;"/><path d="M344.99,319.2969 L344.99,329.2969 L354.99,329.2969 L344.99,319.2969" fill="#FFFFE0" style="stroke:#B0B060;stroke-width:0.5;"/><text fill="#000000" font-family="Arial" font-size="13" font-weight="bold" lengthAdjust="spacing" textLength="58.9063" x="55.99" y="336.3638">Sistema</text><text fill="#000000" font-family="Arial" font-size="13" lengthAdjust="spacing" textLength="221.5713" x="119.0286" y="336.3638">visualiza datos actuales del grupo</text><text fill="#000000" font-family="Arial" font-size="13" font-weight="bold" lengthAdjust="spacing" textLength="58.9063" x="55.99" y="351.4966">Sistema</text><text fill="#000000" font-family="Arial" font-size="13" lengthAdjust="spacing" textLength="110.5952" x="119.0286" y="351.4966">permite solicitar:</text><ellipse cx="61.49" cy="362.1953" fill="#000000" rx="2.5" ry="2.5"/><text fill="#000000" font-family="Arial" font-size="13" lengthAdjust="spacing" textLength="116.0161" x="67.99" y="366.6294">modificar campos</text><ellipse cx="61.49" cy="377.3281" fill="#000000" rx="2.5" ry="2.5"/><text fill="#000000" font-family="Arial" font-size="13" lengthAdjust="spacing" textLength="93.5391" x="67.99" y="381.7622">guardar grupo</text><ellipse cx="61.49" cy="392.4609" fill="#000000" rx="2.5" ry="2.5"/><text fill="#000000" font-family="Arial" font-size="13" lengthAdjust="spacing" textLength="106.3677" x="67.99" y="396.895">cancelar edici&#243;n</text></g><!--reverse link EstadoPreVisualizacion to EstadoDecision--><g class="link" data-entity-1="EstadoPreVisualizacion" data-entity-2="EstadoDecision" data-source-line="47" data-uid="lnk6" id="link_EstadoPreVisualizacion_EstadoDecision"><path d="M244.0792,276.7359 C282.0792,282.6259 345.32,294.8569 359.99,314.2969 C385.41,348.0069 385.41,375.5869 359.99,409.2969 C345.32,428.7369 276.15,441.8869 238.15,447.7769" fill="none" id="EstadoPreVisualizacion-backto-EstadoDecision" style="stroke:#008000;stroke-width:1;"/><polygon fill="#008000" points="238.15,275.8169,246.4311,281.1482,243.091,276.5827,247.6565,273.2426,238.15,275.8169" style="stroke:#008000;stroke-width:1;"/><path d="M383.99,349.2969 L383.99,374.2969 L678.99,374.2969 L678.99,359.2969 L668.99,349.2969 L383.99,349.2969" fill="#FFFFE0" style="stroke:#B0B060;stroke-width:0.5;"/><path d="M668.99,349.2969 L668.99,359.2969 L678.99,359.2969 L668.99,349.2969" fill="#FFFFE0" style="stroke:#B0B060;stroke-width:0.5;"/><text fill="#000000" font-family="Arial" font-size="13" font-weight="bold" lengthAdjust="spacing" textLength="104.8633" x="389.99" y="366.3638">Administrador</text><text fill="#000000" font-family="Arial" font-size="13" lengthAdjust="spacing" textLength="165.9214" x="498.9856" y="366.3638">solicita modificar campos</text></g><!--link EstadoDecision to *end*EditarGrupoContainer--><g class="link" data-entity-1="EstadoDecision" data-entity-2=".end.EditarGrupoContainer" data-source-line="53" data-uid="lnk8" id="link_EstadoDecision_.end.EditarGrupoContainer"><path d="M187.94,456.5469 C148.88,462.1869 76.33,475.1469 60.99,495.2969 C51.57,507.6769 51.03,518.3469 60.99,530.2969 C79.02,551.9469 163.7535,556.7127 195.7735,557.8027" fill="none" id="EstadoDecision-to-*end*EditarGrupoContainer" style="stroke:#008000;stroke-width:1;"/><polygon fill="#008000" points="201.77,558.0069,192.9113,553.703,196.7729,557.8368,192.6391,561.6984,201.77,558.0069" style="stroke:#008000;stroke-width:1;"/><path d="M65.99,500.2969 L65.99,525.2969 L339.99,525.2969 L339.99,510.2969 L329.99,500.2969 L65.99,500.2969" fill="#FFFFE0" style="stroke:#B0B060;stroke-width:0.5;"/><path d="M329.99,500.2969 L329.99,510.2969 L339.99,510.2969 L329.99,500.2969" fill="#FFFFE0" style="stroke:#B0B060;stroke-width:0.5;"/><text fill="#000000" font-family="Arial" font-size="13" font-weight="bold" lengthAdjust="spacing" textLength="104.8633" x="71.99" y="517.3638">Administrador</text><text fill="#000000" font-family="Arial" font-size="13" lengthAdjust="spacing" textLength="144.5361" x="180.9856" y="517.3638">solicita guardar y salir</text></g><!--link EstadoDecision to *end*EditarGrupoContainer--><g class="link" data-entity-1="EstadoDecision" data-entity-2=".end.EditarGrupoContainer" data-source-line="58" data-uid="lnk9" id="link_EstadoDecision_.end.EditarGrupoContainer"><path d="M238.14,453.0969 C269.08,454.3869 320.5,461.8069 344.99,495.2969 C354.17,507.8569 354.78,518.2069 344.99,530.2969 C329.73,549.1369 258.8275,555.429 229.9575,557.299" fill="none" id="EstadoDecision-to-*end*EditarGrupoContainer-1" style="stroke:#FF0000;stroke-width:1;"/><polygon fill="#FF0000" points="223.97,557.6869,233.2097,561.0968,228.9595,557.3637,232.6926,553.1135,223.97,557.6869" style="stroke:#FF0000;stroke-width:1;"/><path d="M356.99,500.2969 L356.99,525.2969 L642.99,525.2969 L642.99,510.2969 L632.99,500.2969 L356.99,500.2969" fill="#FFFFE0" style="stroke:#B0B060;stroke-width:0.5;"/><path d="M632.99,500.2969 L632.99,510.2969 L642.99,510.2969 L632.99,500.2969" fill="#FFFFE0" style="stroke:#B0B060;stroke-width:0.5;"/><text fill="#000000" font-family="Arial" font-size="13" font-weight="bold" lengthAdjust="spacing" textLength="104.8633" x="362.99" y="517.3638">Administrador</text><text fill="#000000" font-family="Arial" font-size="13" lengthAdjust="spacing" textLength="156.2729" x="471.9856" y="517.3638">solicita cancelar edici&#243;n</text></g><g id="GrupoAbiertoFinal"><rect fill="#FFFFFF" height="50" rx="12.5" ry="12.5" style="stroke:#000000;stroke-width:0.5;" width="138.7402" x="278.5" y="675"/><line style="stroke:#000000;stroke-width:0.5;" x1="278.5" x2="417.2402" y1="701.2969" y2="701.2969"/><text fill="#000000" font-family="sans-serif" font-size="14" lengthAdjust="spacing" textLength="118.7402" x="288.5" y="692.9951">GRUPO_ABIERTO</text></g><!--link InicioLista to EditarGrupoContainer--><g class="link" data-entity-1="InicioLista" data-entity-2="EditarGrupoContainer" data-source-line="69" data-uid="lnk10" id="link_InicioLista_EditarGrupoContainer"><path d="M101.51,57.19 C114.39,72.39 128.5505,89.1029 149.0705,113.3129" fill="none" id="InicioLista-to-EditarGrupoContainer" style="stroke:#009900;stroke-width:1;"/><polygon fill="#009900" points="152.95,117.89,150.1822,108.4381,149.7171,114.0758,144.0794,113.6107,152.95,117.89" style="stroke:#009900;stroke-width:1;"/></g><!--link InicioDetalle to EditarGrupoContainer--><g class="link" data-entity-1="InicioDetalle" data-entity-2="EditarGrupoContainer" data-source-line="70" data-uid="lnk11" id="link_InicioDetalle_EditarGrupoContainer"><path d="M266.76,57.19 C271.01,72.39 275.3342,87.9017 282.1042,112.1117" fill="none" id="InicioDetalle-to-EditarGrupoContainer" style="stroke:#009900;stroke-width:1;"/><polygon fill="#009900" points="283.72,117.89,285.1485,108.1453,282.3735,113.0747,277.444,110.2997,283.72,117.89" style="stroke:#009900;stroke-width:1;"/></g><!--link InicioTareas to EditarGrupoContainer--><g class="link" data-entity-1="InicioTareas" data-entity-2="EditarGrupoContainer" data-source-line="71" data-uid="lnk12" id="link_InicioTareas_EditarGrupoContainer"><path d="M430.16,57.19 C425.87,72.39 421.4913,87.906 414.6513,112.116" fill="none" id="InicioTareas-to-EditarGrupoContainer" style="stroke:#009900;stroke-width:1;"/><polygon fill="#009900" points="413.02,117.89,419.3163,110.3166,414.3794,113.0784,411.6176,108.1415,413.02,117.89" style="stroke:#009900;stroke-width:1;"/></g><!--link InicioMiembros to EditarGrupoContainer--><g class="link" data-entity-1="InicioMiembros" data-entity-2="EditarGrupoContainer" data-source-line="72" data-uid="lnk13" id="link_InicioMiembros_EditarGrupoContainer"><path d="M600.95,57.19 C587.73,72.39 573.1579,89.1531 552.0979,113.3631" fill="none" id="InicioMiembros-to-EditarGrupoContainer" style="stroke:#009900;stroke-width:1;"/><polygon fill="#009900" points="548.16,117.89,557.0848,113.7249,551.4416,114.1176,551.0489,108.4744,548.16,117.89" style="stroke:#009900;stroke-width:1;"/></g><!--link EditarGrupoContainer to GrupoAbiertoFinal--><g class="link" data-entity-1="EditarGrupoContainer" data-entity-2="GrupoAbiertoFinal" data-source-line="77" data-uid="lnk14" id="link_EditarGrupoContainer_GrupoAbiertoFinal"><path d="M273.52,580.19 C274.48,602.51 278.86,624.47 288,645 C293.13,656.52 297.5498,662.6744 306.9898,670.9144" fill="none" id="EditarGrupoContainer-to-GrupoAbiertoFinal" style="stroke:#008000;stroke-width:1;"/><polygon fill="#008000" points="311.51,674.86,307.3601,665.9281,307.7432,671.572,302.0993,671.9551,311.51,674.86" style="stroke:#008000;stroke-width:1;"/><text fill="#000000" font-family="sans-serif" font-size="13" lengthAdjust="spacing" textLength="73.9438" x="289" y="632.0669">"               "</text></g><!--link EditarGrupoContainer to GrupoAbiertoFinal--><g class="link" data-entity-1="EditarGrupoContainer" data-entity-2="GrupoAbiertoFinal" data-source-line="80" data-uid="lnk15" id="link_EditarGrupoContainer_GrupoAbiertoFinal"><path d="M365.73,580.33 C366.22,590.35 366.65,600.28 367,610 C367.57,625.55 369.62,629.67 367,645 C365.29,654.99 364.0381,659.9725 360.6081,669.1125" fill="none" id="EditarGrupoContainer-to-GrupoAbiertoFinal-1" style="stroke:#FF0000;stroke-width:1;"/><polygon fill="#FF0000" points="358.5,674.73,365.4071,667.7092,360.2567,670.0488,357.9172,664.8984,358.5,674.73" style="stroke:#FF0000;stroke-width:1;"/><path d="M374,615 L374,640 L501,640 L501,625 L491,615 L374,615" fill="#FFFFE0" style="stroke:#B0B060;stroke-width:0.5;"/><path d="M491,615 L491,625 L501,625 L491,615" fill="#FFFFE0" style="stroke:#B0B060;stroke-width:0.5;"/><text fill="#000000" font-family="Arial" font-size="13" lengthAdjust="spacing" textLength="106.3677" x="380" y="632.0669">cancelar edici&#243;n</text></g><!--SRC=[hLNTQjim5BxtKnoQYoQ1Z6o3GNina1EdUEGFE-q6fGpLKbEjjXIEbRRRs0FiKNQzH-YBxSIAyzCu3MpJXR6EFfq_VVfq31sZRzHqZZnHJxyrtAjypbDGukcNjYhXG9CPjxXOoxZCBHellrDwnf5da1bjabiqcOGRdkPoOoc_vS8yBCtMpC0Qk3RMcWo4GfbOPRItYRVSIlZk0GsV9tTJD7CjEYOr21zlbPLknQ2GwAn-Ih32oX3DWpFMsksJatQxCCUMetsE3KgdplHZCmTjzgPGwz48sZj9rFosttxdx3sZxP1JBnWgdYvS7yFhLn344zOTnH1ycWJHa7ww0GJ3ISIw3EeiYaAVDJnN_j5PT3uUnP-P7mRHP7G4F8TGgqIPlYB45ge2r9MMfwaiOHCM1QpAsOIZv7a96uJ1m8-g_0sKpAxHv8j2tfI5G6Sq69_J_mZ6KJZiX6FMBrr9eQZdPpYVcNgZS1IiBSGqovMMk6nnyLbk10UccJ1Zb1S52zKt8YMnP0-kAnELb-l5vx9v1QtM-vVy54TiDAHAEpuiHhF9HAOqjHXf7pQRa9kK6c0vk8fWkYYWm4ij2YUUOrDbf8qajfBS4pocm3BZ5FQ-z0A2MvC3JopDPGv2fXivFDysavZH3LbbZQTh6DrHeMxe9YCaF9lHOQwNfdEEOgiwPq-uJcHA2rHz8GiLbH-3FqzIIPcj8goXsxL3wx8sHIdrrNpsVq-dihRdUSOKGn1hbBOIDSzVp90qIrEEnAI_IgZiw5V8AIhkPSncO9JYNyCUEB12YTwkBd0l7B9-AKSaGJxxC6hirvRYyh9h9T6QdjAaREIjrMe1ITWm3ZlXQ1YKwiQsr8r0dhUXN-vUL2Y2jwLVXs1ElWwXIl7QZpjKHipwOLb5eUIEIGlAF_ryLFIWrIyaFGKDhrBbLfoY-3izX5EIikrnj9JPTPIEErRtCjSZyyNi3xLWKLKWRuTBksGfYV87]--></g></svg>