<svg xmlns="http://www.w3.org/2000/svg" xmlns:xlink="http://www.w3.org/1999/xlink" contentStyleType="text/css" data-diagram-type="STATE" height="716px" preserveAspectRatio="none" style="width:741px;height:716px;background:#FFFFFF;" version="1.1" viewBox="0 0 741 716" width="741px" zoomAndPan="magnify"><defs/><g><g id="Inicio"><rect fill="#FFFFFF" height="50" rx="12.5" ry="12.5" style="stroke:#000000;stroke-width:0.5;" width="134.7344" x="300" y="7"/><line style="stroke:#000000;stroke-width:0.5;" x1="300" x2="434.7344" y1="33.2969" y2="33.2969"/><text fill="#000000" font-family="sans-serif" font-size="14" lengthAdjust="spacing" textLength="114.7344" x="310" y="24.9951">TAREA_ABIERTO</text></g><path d="M19.5,118 L715.45,118 A12.5,12.5 0 0 1 727.95,130.5 L727.95,144.2969 L7,144.2969 L7,130.5 A12.5,12.5 0 0 1 19.5,118" fill="#FFFFFF"/><rect fill="none" height="447.2969" rx="12.5" ry="12.5" style="stroke:#000000;stroke-width:0.5;" width="720.95" x="7" y="118"/><line style="stroke:#000000;stroke-width:0.5;" x1="7" x2="727.95" y1="144.2969" y2="144.2969"/><text fill="#000000" font-family="sans-serif" font-size="14" lengthAdjust="spacing" textLength="108.1309" x="313.4096" y="135.9951">eliminarTarea()</text><g id="EliminarTareaContainer.EstadoConfirmacion"><rect fill="#FFFFFF" height="50" rx="12.5" ry="12.5" style="stroke:#000000;stroke-width:0.5;" width="50" x="212.95" y="246.2969"/><line style="stroke:#000000;stroke-width:0.5;" x1="212.95" x2="262.95" y1="272.5938" y2="272.5938"/><text fill="#000000" font-family="sans-serif" font-size="14" lengthAdjust="spacing" textLength="4.4502" x="235.7249" y="264.292">&#160;</text></g><g id="EliminarTareaContainer.EstadoDecision"><rect fill="#FFFFFF" height="50" rx="12.5" ry="12.5" style="stroke:#000000;stroke-width:0.5;" width="50" x="212.95" y="412.2969"/><line style="stroke:#000000;stroke-width:0.5;" x1="212.95" x2="262.95" y1="438.5938" y2="438.5938"/><text fill="#000000" font-family="sans-serif" font-size="14" lengthAdjust="spacing" textLength="4.4502" x="235.7249" y="430.292">&#160;</text></g><ellipse cx="237.95" cy="165.2969" fill="#222222" rx="10" ry="10" style="stroke:#222222;stroke-width:1;"/><ellipse cx="237.95" cy="544.2969" fill="none" rx="11" ry="11" style="stroke:#222222;stroke-width:1;"/><ellipse cx="237.95" cy="544.2969" fill="#222222" rx="6" ry="6" style="stroke:#222222;stroke-width:1;"/><!--link *start*EliminarTareaContainer to EstadoConfirmacion--><g class="link" data-entity-1=".start.EliminarTareaContainer" data-entity-2="EstadoConfirmacion" data-source-line="29" data-uid="lnk3" id="link_.start.EliminarTareaContainer_EstadoConfirmacion"><path d="M237.95,175.5269 C237.95,191.2369 237.95,217.6569 237.95,240.1669" fill="none" id="*start*EliminarTareaContainer-to-EstadoConfirmacion" style="stroke:#009900;stroke-width:1;"/><polygon fill="#009900" points="237.95,246.1669,241.95,237.1669,237.95,241.1669,233.95,237.1669,237.95,246.1669" style="stroke:#009900;stroke-width:1;"/><path d="M242.95,198.2969 L242.95,223.2969 L513.95,223.2969 L513.95,208.2969 L503.95,198.2969 L242.95,198.2969" fill="#FFFFE0" style="stroke:#B0B060;stroke-width:0.5;"/><path d="M503.95,198.2969 L503.95,208.2969 L513.95,208.2969 L503.95,198.2969" fill="#FFFFE0" style="stroke:#B0B060;stroke-width:0.5;"/><text fill="#000000" font-family="Arial" font-size="13" font-weight="bold" lengthAdjust="spacing" textLength="104.8633" x="248.95" y="215.3638">Administrador</text><text fill="#000000" font-family="Arial" font-size="13" lengthAdjust="spacing" textLength="141.4575" x="357.9456" y="215.3638">solicita eliminar tarea</text></g><!--link EstadoConfirmacion to EstadoDecision--><g class="link" data-entity-1="EstadoConfirmacion" data-entity-2="EstadoDecision" data-source-line="34" data-uid="lnk4" id="link_EstadoConfirmacion_EstadoDecision"><path d="M237.95,296.4969 C237.95,327.5869 237.95,375.2469 237.95,406.2669" fill="none" id="EstadoConfirmacion-to-EstadoDecision" style="stroke:#009900;stroke-width:1;"/><polygon fill="#009900" points="237.95,412.2669,241.95,403.2669,237.95,407.2669,233.95,403.2669,237.95,412.2669" style="stroke:#009900;stroke-width:1;"/><path d="M242.95,319.2969 L242.95,389.2969 L551.95,389.2969 L551.95,329.2969 L541.95,319.2969 L242.95,319.2969" fill="#FFFFE0" style="stroke:#B0B060;stroke-width:0.5;"/><path d="M541.95,319.2969 L541.95,329.2969 L551.95,329.2969 L541.95,319.2969" fill="#FFFFE0" style="stroke:#B0B060;stroke-width:0.5;"/><text fill="#000000" font-family="Arial" font-size="13" font-weight="bold" lengthAdjust="spacing" textLength="58.9063" x="248.95" y="336.3638">Sistema</text><text fill="#000000" font-family="Arial" font-size="13" lengthAdjust="spacing" textLength="225.0688" x="311.9886" y="336.3638">presenta solicitud de confirmaci&#243;n</text><text fill="#000000" font-family="Arial" font-size="13" font-weight="bold" lengthAdjust="spacing" textLength="58.9063" x="248.95" y="351.4966">Sistema</text><text fill="#000000" font-family="Arial" font-size="13" lengthAdjust="spacing" textLength="110.5952" x="311.9886" y="351.4966">permite solicitar:</text><ellipse cx="254.45" cy="362.1953" fill="#000000" rx="2.5" ry="2.5"/><text fill="#000000" font-family="Arial" font-size="13" lengthAdjust="spacing" textLength="141.6353" x="260.95" y="366.6294">confirmar eliminaci&#243;n</text><ellipse cx="254.45" cy="377.3281" fill="#000000" rx="2.5" ry="2.5"/><text fill="#000000" font-family="Arial" font-size="13" lengthAdjust="spacing" textLength="134.2085" x="260.95" y="381.7622">cancelar eliminaci&#243;n</text></g><!--link EstadoDecision to *end*EliminarTareaContainer--><g class="link" data-entity-1="EstadoDecision" data-entity-2=".end.EliminarTareaContainer" data-source-line="43" data-uid="lnk6" id="link_EstadoDecision_.end.EliminarTareaContainer"><path d="M212.79,440.2069 C154.42,445.5569 18,463.7969 61.95,515.2969 C83.34,540.3569 184.9801,543.0597 220.5301,543.2797" fill="none" id="EstadoDecision-to-*end*EliminarTareaContainer" style="stroke:#008000;stroke-width:1;"/><polygon fill="#008000" points="226.53,543.3169,217.5549,539.2613,221.5301,543.2859,217.5054,547.2611,226.53,543.3169" style="stroke:#008000;stroke-width:1;"/><path d="M66.95,485.2969 L66.95,510.2969 L387.95,510.2969 L387.95,495.2969 L377.95,485.2969 L66.95,485.2969" fill="#FFFFE0" style="stroke:#B0B060;stroke-width:0.5;"/><path d="M377.95,485.2969 L377.95,495.2969 L387.95,495.2969 L377.95,485.2969" fill="#FFFFE0" style="stroke:#B0B060;stroke-width:0.5;"/><text fill="#000000" font-family="Arial" font-size="13" font-weight="bold" lengthAdjust="spacing" textLength="104.8633" x="72.95" y="502.3638">Administrador</text><text fill="#000000" font-family="Arial" font-size="13" lengthAdjust="spacing" textLength="191.5405" x="181.9456" y="502.3638">solicita confirmar eliminaci&#243;n</text></g><!--link EstadoDecision to *end*EliminarTareaContainer--><g class="link" data-entity-1="EstadoDecision" data-entity-2=".end.EliminarTareaContainer" data-source-line="48" data-uid="lnk7" id="link_EstadoDecision_.end.EliminarTareaContainer"><path d="M263.17,441.4269 C302.91,446.9369 377.24,459.7569 392.95,480.2969 C402.41,492.6469 402.93,503.3569 392.95,515.2969 C374.46,537.4369 287.1473,541.9182 254.9173,542.8782" fill="none" id="EstadoDecision-to-*end*EliminarTareaContainer-1" style="stroke:#FF0000;stroke-width:1;"/><polygon fill="#FF0000" points="248.92,543.0569,258.0351,546.7871,253.9178,542.908,257.7969,538.7907,248.92,543.0569" style="stroke:#FF0000;stroke-width:1;"/><path d="M404.95,485.2969 L404.95,510.2969 L718.95,510.2969 L718.95,495.2969 L708.95,485.2969 L404.95,485.2969" fill="#FFFFE0" style="stroke:#B0B060;stroke-width:0.5;"/><path d="M708.95,485.2969 L708.95,495.2969 L718.95,495.2969 L708.95,485.2969" fill="#FFFFE0" style="stroke:#B0B060;stroke-width:0.5;"/><text fill="#000000" font-family="Arial" font-size="13" font-weight="bold" lengthAdjust="spacing" textLength="104.8633" x="410.95" y="502.3638">Administrador</text><text fill="#000000" font-family="Arial" font-size="13" lengthAdjust="spacing" textLength="184.1138" x="519.9456" y="502.3638">solicita cancelar eliminaci&#243;n</text></g><g id="FinLista"><rect fill="#FFFFFF" height="50" rx="12.5" ry="12.5" style="stroke:#000000;stroke-width:0.5;" width="143.6211" x="208.5" y="660"/><line style="stroke:#000000;stroke-width:0.5;" x1="208.5" x2="352.1211" y1="686.2969" y2="686.2969"/><text fill="#000000" font-family="sans-serif" font-size="14" lengthAdjust="spacing" textLength="123.6211" x="218.5" y="677.9951">TAREAS_ABIERTO</text></g><g id="FinDetalle"><rect fill="#FFFFFF" height="50" rx="12.5" ry="12.5" style="stroke:#000000;stroke-width:0.5;" width="134.7344" x="388" y="660"/><line style="stroke:#000000;stroke-width:0.5;" x1="388" x2="522.7344" y1="686.2969" y2="686.2969"/><text fill="#000000" font-family="sans-serif" font-size="14" lengthAdjust="spacing" textLength="114.7344" x="398" y="677.9951">TAREA_ABIERTO</text></g><!--link Inicio to EliminarTareaContainer--><g class="link" data-entity-1="Inicio" data-entity-2="EliminarTareaContainer" data-source-line="60" data-uid="lnk8" id="link_Inicio_EliminarTareaContainer"><path d="M367.5,57.13 C367.5,72.35 367.5,87.67 367.5,111.86" fill="none" id="Inicio-to-EliminarTareaContainer" style="stroke:#009900;stroke-width:1;"/><polygon fill="#009900" points="367.5,117.86,371.5,108.86,367.5,112.86,363.5,108.86,367.5,117.86" style="stroke:#009900;stroke-width:1;"/></g><!--link EliminarTareaContainer to FinLista--><g class="link" data-entity-1="EliminarTareaContainer" data-entity-2="FinLista" data-source-line="63" data-uid="lnk9" id="link_EliminarTareaContainer_FinLista"><path d="M310.81,565.04 C301.04,603.39 293.7321,632.0659 288.1621,653.9159" fill="none" id="EliminarTareaContainer-to-FinLista" style="stroke:#008000;stroke-width:1;"/><polygon fill="#008000" points="286.68,659.73,292.7792,651.997,287.9151,654.8849,285.0271,650.0208,286.68,659.73" style="stroke:#008000;stroke-width:1;"/><text fill="#000000" font-family="sans-serif" font-size="13" lengthAdjust="spacing" textLength="73.9438" x="303.5" y="617.0669">"               "</text></g><!--link EliminarTareaContainer to FinDetalle--><g class="link" data-entity-1="EliminarTareaContainer" data-entity-2="FinDetalle" data-source-line="66" data-uid="lnk10" id="link_EliminarTareaContainer_FinDetalle"><path d="M424.85,565.04 C434.73,603.39 442.1229,632.0698 447.7529,653.9198" fill="none" id="EliminarTareaContainer-to-FinDetalle" style="stroke:#FF0000;stroke-width:1;"/><polygon fill="#FF0000" points="449.25,659.73,450.8778,650.0166,448.0024,654.8881,443.1309,652.0127,449.25,659.73" style="stroke:#FF0000;stroke-width:1;"/><path d="M445.5,600 L445.5,625 L600.5,625 L600.5,610 L590.5,600 L445.5,600" fill="#FFFFE0" style="stroke:#B0B060;stroke-width:0.5;"/><path d="M590.5,600 L590.5,610 L600.5,610 L590.5,600" fill="#FFFFE0" style="stroke:#B0B060;stroke-width:0.5;"/><text fill="#000000" font-family="Arial" font-size="13" lengthAdjust="spacing" textLength="134.2085" x="451.5" y="617.0669">cancelar eliminaci&#243;n</text></g><!--SRC=[fLJ1Qjj04BthAuRu4CVWelPGQ0u5sL7041omJ1i8eKoaZRtDQiVChfD2wGVqtA_ekRTU_METbInNJgmMsZq8UtPctioyUNiCOx9tUh5cpFNcXuK7xTPeG1URxzRh747-hD1pk2jHESyKkNjjLyXOGacMyYLJgU0EZLEjAxV4WXwtPayhy0Itv3sLK6XMkTTaexQ_Hw_WSmHoHfZVBvZMjXYJ8ORtI-rLVKDSAAwj8oDkbJLXfiVQs8lZDs_Yk39d7ja_zKsRfBNfIxi6IvqbzCxbfF6p8dgZU1I_hktdPFqKPHO9QpGXzJ6aqbT1e3vvnPQWKA2iPomG-bArliMJgExyQ9xCqkH3Cfgai_db4Q23YTMvfbQMdChLMZWWMB6skLu9oZPQ6LrgYpn7LjW_gUBJjaruzgYjucs3rMSR3BLx1LBj0vUo3i9FXy-PohLhxglFzU06XiEtNJcgmP85estDGZY3GL98VTg5UH0F1k38ICSUeUa6V2YzYb2sgD94DOlFS5hmU-LrG6S2gqeKq1Kh9vnWWxuk0alvBhLi_k4unQMivQveFltjjWldffKdUI17cojpw7w_qMF8qEX2HgzjM27vuTHYyrCQGdWWivRAGy46CFV4hU4qKu3XTM_1IjaRqQEL8GbN_qJA7tewH4uRdrNnt-X_7rXBS0xknCSeroZFYTvkyIFjootRqzkvjXS2ZTsA58ypvT4O5Q26mo7CPyaqcumdbzCqW_HgdiwcIHPkegYMRxsN1vKOShnyiIKuBDtcwzLaVWdzTqeUc1DOIfD12pAZggceGz0xWWMfwG5EHR3xvoZWlMhZZPFfEBr8nfFDjodqPoJZ0LQIow6LvqQU_gBkDZZBljLgxAwYHNDhKi-OFanbG-Cl]--></g></svg>