<svg xmlns="http://www.w3.org/2000/svg" xmlns:xlink="http://www.w3.org/1999/xlink" contentStyleType="text/css" data-diagram-type="STATE" height="792px" preserveAspectRatio="none" style="width:338px;height:792px;background:#FFFFFF;" version="1.1" viewBox="0 0 338 792" width="338px" zoomAndPan="magnify"><defs/><g><g id="TAREA_ABIERTO"><rect fill="#FFFFFF" height="50" rx="12.5" ry="12.5" style="stroke:#000000;stroke-width:0.5;" width="134.7344" x="98.5" y="7"/><line style="stroke:#000000;stroke-width:0.5;" x1="98.5" x2="233.2344" y1="33.2969" y2="33.2969"/><text fill="#000000" font-family="sans-serif" font-size="14" lengthAdjust="spacing" textLength="114.7344" x="108.5" y="24.9951">TAREA_ABIERTO</text></g><path d="M19.5,118 L312.5,118 A12.5,12.5 0 0 1 325,130.5 L325,144.2969 L7,144.2969 L7,130.5 A12.5,12.5 0 0 1 19.5,118" fill="#FFFFFF"/><rect fill="none" height="523.2969" rx="12.5" ry="12.5" style="stroke:#000000;stroke-width:0.5;" width="318" x="7" y="118"/><line style="stroke:#000000;stroke-width:0.5;" x1="7" x2="325" y1="144.2969" y2="144.2969"/><text fill="#000000" font-family="sans-serif" font-size="14" lengthAdjust="spacing" textLength="108.1309" x="111.9346" y="135.9951">eliminarTarea()</text><ellipse cx="44" cy="165.2969" fill="#222222" rx="10" ry="10" style="stroke:#222222;stroke-width:1;"/><g id="eliminarTarea.Confirmacion"><rect fill="#FFFFFF" height="50" rx="12.5" ry="12.5" style="stroke:#000000;stroke-width:0.5;" width="50" x="19" y="246.2969"/><line style="stroke:#000000;stroke-width:0.5;" x1="19" x2="69" y1="272.5938" y2="272.5938"/><text fill="#000000" font-family="sans-serif" font-size="14" lengthAdjust="spacing" textLength="4.4502" x="41.7749" y="264.292">&#160;</text></g><g id="eliminarTarea.Confirmacion2"><rect fill="#FFFFFF" height="50" rx="12.5" ry="12.5" style="stroke:#000000;stroke-width:0.5;" width="50" x="19" y="367.2969"/><line style="stroke:#000000;stroke-width:0.5;" x1="19" x2="69" y1="393.5938" y2="393.5938"/><text fill="#000000" font-family="sans-serif" font-size="14" lengthAdjust="spacing" textLength="4.4502" x="41.7749" y="385.292">&#160;</text></g><g id="eliminarTarea.Estado2"><rect fill="#FFFFFF" height="50" rx="12.5" ry="12.5" style="stroke:#000000;stroke-width:0.5;" width="50" x="19" y="488.2969"/><line style="stroke:#000000;stroke-width:0.5;" x1="19" x2="69" y1="514.5938" y2="514.5938"/><text fill="#000000" font-family="sans-serif" font-size="14" lengthAdjust="spacing" textLength="4.4502" x="41.7749" y="506.292">&#160;</text></g><ellipse cx="44" cy="620.2969" fill="none" rx="11" ry="11" style="stroke:#222222;stroke-width:1;"/><ellipse cx="44" cy="620.2969" fill="#222222" rx="6" ry="6" style="stroke:#222222;stroke-width:1;"/><!--link Inicio to Confirmacion--><g class="link" data-entity-1="Inicio" data-entity-2="Confirmacion" data-source-line="20" data-uid="lnk2" id="link_Inicio_Confirmacion"><path d="M44,175.5269 C44,191.2369 44,217.6569 44,240.1669" fill="none" id="Inicio-to-Confirmacion" style="stroke:#008000;stroke-width:1;"/><polygon fill="#008000" points="44,246.1669,48,237.1669,44,241.1669,40,237.1669,44,246.1669" style="stroke:#008000;stroke-width:1;"/><path d="M49,198.2969 L49,223.2969 L271,223.2969 L271,208.2969 L261,198.2969 L49,198.2969" fill="#FEFECE" style="stroke:#D7B75F;stroke-width:0.5;"/><path d="M261,198.2969 L261,208.2969 L271,208.2969 L261,198.2969" fill="#FEFECE" style="stroke:#D7B75F;stroke-width:0.5;"/><text fill="#000000" font-family="sans-serif" font-size="13" font-weight="bold" lengthAdjust="spacing" textLength="56.1196" x="55" y="215.3638">Usuario</text><text fill="#000000" font-family="sans-serif" font-size="13" lengthAdjust="spacing" textLength="141.4575" x="115.252" y="215.3638">solicita eliminar tarea</text></g><!--link Confirmacion to Confirmacion2--><g class="link" data-entity-1="Confirmacion" data-entity-2="Confirmacion2" data-source-line="25" data-uid="lnk3" id="link_Confirmacion_Confirmacion2"><path d="M44,296.3769 C44,317.0269 44,340.6169 44,361.2469" fill="none" id="Confirmacion-to-Confirmacion2" style="stroke:#008000;stroke-width:1;"/><polygon fill="#008000" points="44,367.2469,48,358.2469,44,362.2469,40,358.2469,44,367.2469" style="stroke:#008000;stroke-width:1;"/><path d="M49,319.2969 L49,344.2969 L267,344.2969 L267,329.2969 L257,319.2969 L49,319.2969" fill="#FEFECE" style="stroke:#D7B75F;stroke-width:0.5;"/><path d="M257,319.2969 L257,329.2969 L267,329.2969 L257,319.2969" fill="#FEFECE" style="stroke:#D7B75F;stroke-width:0.5;"/><text fill="#000000" font-family="sans-serif" font-size="13" font-weight="bold" lengthAdjust="spacing" textLength="58.9063" x="55" y="336.3638">Sistema</text><text fill="#000000" font-family="sans-serif" font-size="13" lengthAdjust="spacing" textLength="134.3608" x="118.0386" y="336.3638">solicita confirmaci&#243;n</text></g><!--link Confirmacion2 to Estado2--><g class="link" data-entity-1="Confirmacion2" data-entity-2="Estado2" data-source-line="30" data-uid="lnk4" id="link_Confirmacion2_Estado2"><path d="M44,417.3769 C44,438.0269 44,461.6169 44,482.2469" fill="none" id="Confirmacion2-to-Estado2" style="stroke:#008000;stroke-width:1;"/><polygon fill="#008000" points="44,488.2469,48,479.2469,44,483.2469,40,479.2469,44,488.2469" style="stroke:#008000;stroke-width:1;"/><path d="M49,440.2969 L49,465.2969 L280,465.2969 L280,450.2969 L270,440.2969 L49,440.2969" fill="#FEFECE" style="stroke:#D7B75F;stroke-width:0.5;"/><path d="M270,440.2969 L270,450.2969 L280,450.2969 L270,440.2969" fill="#FEFECE" style="stroke:#D7B75F;stroke-width:0.5;"/><text fill="#000000" font-family="sans-serif" font-size="13" font-weight="bold" lengthAdjust="spacing" textLength="56.1196" x="55" y="457.3638">Usuario</text><text fill="#000000" font-family="sans-serif" font-size="13" lengthAdjust="spacing" textLength="150.4712" x="115.252" y="457.3638">introduce confirmaci&#243;n</text></g><!--link Estado2 to Fin--><g class="link" data-entity-1="Estado2" data-entity-2="Fin" data-source-line="35" data-uid="lnk5" id="link_Estado2_Fin"><path d="M44,538.3869 C44,560.7869 44,587.0669 44,603.2469" fill="none" id="Estado2-to-Fin" style="stroke:#008000;stroke-width:1;"/><polygon fill="#008000" points="44,609.2469,48,600.2469,44,604.2469,40,600.2469,44,609.2469" style="stroke:#008000;stroke-width:1;"/><path d="M49,561.2969 L49,586.2969 L316,586.2969 L316,571.2969 L306,561.2969 L49,561.2969" fill="#FEFECE" style="stroke:#D7B75F;stroke-width:0.5;"/><path d="M306,561.2969 L306,571.2969 L316,571.2969 L306,561.2969" fill="#FEFECE" style="stroke:#D7B75F;stroke-width:0.5;"/><text fill="#000000" font-family="sans-serif" font-size="13" font-weight="bold" lengthAdjust="spacing" textLength="58.9063" x="55" y="578.3638">Sistema</text><text fill="#000000" font-family="sans-serif" font-size="13" lengthAdjust="spacing" textLength="183.8345" x="118.0386" y="578.3638">presenta listado actualizado</text></g><g id="TAREAS_ABIERTO"><rect fill="#FFFFFF" height="50" rx="12.5" ry="12.5" style="stroke:#000000;stroke-width:0.5;" width="143.6211" x="94" y="736"/><line style="stroke:#000000;stroke-width:0.5;" x1="94" x2="237.6211" y1="762.2969" y2="762.2969"/><text fill="#000000" font-family="sans-serif" font-size="14" lengthAdjust="spacing" textLength="123.6211" x="104" y="753.9951">TAREAS_ABIERTO</text></g><!--link TAREA_ABIERTO to eliminarTarea--><g class="link" data-entity-1="TAREA_ABIERTO" data-entity-2="eliminarTarea" data-source-line="43" data-uid="lnk6" id="link_TAREA_ABIERTO_eliminarTarea"><path d="M166,57.02 C166,72.09 166,87.27 166,111.63" fill="none" id="TAREA_ABIERTO-to-eliminarTarea" style="stroke:#008000;stroke-width:1;"/><polygon fill="#008000" points="166,117.63,170,108.63,166,112.63,162,108.63,166,117.63" style="stroke:#008000;stroke-width:1;"/></g><!--link eliminarTarea to TAREAS_ABIERTO--><g class="link" data-entity-1="eliminarTarea" data-entity-2="TAREAS_ABIERTO" data-source-line="44" data-uid="lnk7" id="link_eliminarTarea_TAREAS_ABIERTO"><path d="M166,641.23 C166,679.96 166,708.08 166,729.69" fill="none" id="eliminarTarea-to-TAREAS_ABIERTO" style="stroke:#008000;stroke-width:1;"/><polygon fill="#008000" points="166,735.69,170,726.69,166,730.69,162,726.69,166,735.69" style="stroke:#008000;stroke-width:1;"/><path d="M171,676 L171,701 L297,701 L297,686 L287,676 L171,676" fill="#FEFECE" style="stroke:#D7B75F;stroke-width:0.5;"/><path d="M287,676 L287,686 L297,686 L287,676" fill="#FEFECE" style="stroke:#D7B75F;stroke-width:0.5;"/><text fill="#000000" font-family="sans-serif" font-size="13" lengthAdjust="spacing" textLength="105.2695" x="177" y="693.0669">Tarea eliminada</text></g><!--SRC=[XPB1JiCm38RlVOg8NU0mKKr2ur1LQaShxOIq3N54NXiWMkfCJYea44_58_1YP6ae3MKZXwgn__oVRLdl1Ew1e67QWE7iBMBsv53jdaYrM2-KLCJkduNXNKPHpQcBvjBAN3GZKYzTS1B7rt4SH- -HxgrH7NMUb4LPB8gHz-Hcdi-lIciJTOLjibMHFMJvibXjRh-3ProAHY3G1eZ3-SKP0ys2cCTwENE29OfAA9OaDaecJSUAXS97GGrO6PxEpiRfmjvgzKUY56YX76kFT1zVp7IQZgbkRWgP5DZD-N2IRNgdMo2XaijjohIIri10tpOpXxwTtAASHzG_7Y96pDbnw02-5jhm1a9urTjyVc38xZiDK0u-dDH_s67F0WsfkgtuAQwxUOAZsV6VdEgmiJrnpT4s9eLpO52P5gHujVyX9bpGzS-61Wlh2WWMCmhNz93_vJ2girFwTxLry3Ly0G00]--></g></svg>