<svg xmlns="http://www.w3.org/2000/svg" xmlns:xlink="http://www.w3.org/1999/xlink" contentStyleType="text/css" data-diagram-type="STATE" height="721px" preserveAspectRatio="none" style="width:388px;height:721px;background:#FFFFFF;" version="1.1" viewBox="0 0 388 721" width="388px" zoomAndPan="magnify"><defs/><g><rect fill="#FFFFFF" height="40" rx="12.5" ry="12.5" style="stroke:#000000;stroke-width:0.5;" width="137.627" x="122" y="7"/><text fill="#000000" font-family="sans-serif" font-size="14" lengthAdjust="spacing" textLength="127.627" x="127" y="31.8467">GRUPOS_ABIERTO</text><path d="M19.5,107 L362.5,107 A12.5,12.5 0 0 1 375,119.5 L375,133.2969 L7,133.2969 L7,119.5 A12.5,12.5 0 0 1 19.5,107" fill="#FFFFFF"/><rect fill="none" height="508.2969" rx="12.5" ry="12.5" style="stroke:#000000;stroke-width:0.5;" width="368" x="7" y="107"/><line style="stroke:#000000;stroke-width:0.5;" x1="7" x2="375" y1="133.2969" y2="133.2969"/><text fill="#000000" font-family="sans-serif" font-size="14" lengthAdjust="spacing" textLength="110.9814" x="135.5093" y="124.9951">eliminarGrupo()</text><rect fill="#FFFFFF" height="40" rx="12.5" ry="12.5" style="stroke:#000000;stroke-width:0.5;" width="50" x="19" y="235.2969"/><text fill="#000000" font-family="sans-serif" font-size="14" lengthAdjust="spacing" textLength="4.4502" x="41.7749" y="260.1436">&#160;</text><rect fill="#FFFFFF" height="40" rx="12.5" ry="12.5" style="stroke:#000000;stroke-width:0.5;" width="50" x="19" y="346.2969"/><text fill="#000000" font-family="sans-serif" font-size="14" lengthAdjust="spacing" textLength="4.4502" x="41.7749" y="371.1436">&#160;</text><rect fill="#FFFFFF" height="40" rx="12.5" ry="12.5" style="stroke:#000000;stroke-width:0.5;" width="50" x="19" y="457.2969"/><text fill="#000000" font-family="sans-serif" font-size="14" lengthAdjust="spacing" textLength="4.4502" x="41.7749" y="482.1436">&#160;</text><ellipse cx="44" cy="154.2969" fill="#222222" rx="10" ry="10" style="stroke:#222222;stroke-width:1;"/><ellipse cx="44" cy="594.2969" fill="none" rx="11" ry="11" style="stroke:#222222;stroke-width:1;"/><ellipse cx="44" cy="594.2969" fill="#222222" rx="6" ry="6" style="stroke:#222222;stroke-width:1;"/><!--link *start*MainBlock to Paso1--><g class="link" data-entity-1=".start.MainBlock" data-entity-2="Paso1" data-source-line="17" data-uid="lnk3" id="link_.start.MainBlock_Paso1"><path d="M44,164.4369 C44,180.4169 44,207.7869 44,229.0669" fill="none" id="*start*MainBlock-to-Paso1" style="stroke:#008000;stroke-width:1;"/><polygon fill="#008000" points="44,235.0669,48,226.0669,44,230.0669,40,226.0669,44,235.0669" style="stroke:#008000;stroke-width:1;"/><path d="M49,187.2969 L49,212.2969 L324,212.2969 L324,197.2969 L314,187.2969 L49,187.2969" fill="#FFFFE0" style="stroke:#808080;stroke-width:0.5;"/><path d="M314,187.2969 L314,197.2969 L324,197.2969 L314,187.2969" fill="#FFFFE0" style="stroke:#808080;stroke-width:0.5;"/><text fill="#000000" font-family="sans-serif" font-size="13" font-weight="bold" lengthAdjust="spacing" textLength="104.8633" x="55" y="204.3638">Administrador</text><text fill="#000000" font-family="sans-serif" font-size="13" lengthAdjust="spacing" textLength="145.1265" x="163.9956" y="204.3638">solicita eliminar grupo</text></g><!--link Paso1 to Paso2--><g class="link" data-entity-1="Paso1" data-entity-2="Paso2" data-source-line="23" data-uid="lnk4" id="link_Paso1_Paso2"><path d="M44,275.5369 C44,295.4569 44,320.3969 44,340.2569" fill="none" id="Paso1-to-Paso2" style="stroke:#008000;stroke-width:1;"/><polygon fill="#008000" points="44,346.2569,48,337.2569,44,341.2569,40,337.2569,44,346.2569" style="stroke:#008000;stroke-width:1;"/><path d="M49,298.2969 L49,323.2969 L366,323.2969 L366,308.2969 L356,298.2969 L49,298.2969" fill="#FFFFE0" style="stroke:#808080;stroke-width:0.5;"/><path d="M356,298.2969 L356,308.2969 L366,308.2969 L356,298.2969" fill="#FFFFE0" style="stroke:#808080;stroke-width:0.5;"/><text fill="#000000" font-family="sans-serif" font-size="13" font-weight="bold" lengthAdjust="spacing" textLength="58.9063" x="55" y="315.3638">Sistema</text><text fill="#000000" font-family="sans-serif" font-size="13" lengthAdjust="spacing" textLength="233.5303" x="118.0386" y="315.3638">solicita confirmaci&#243;n de eliminaci&#243;n</text></g><!--link Paso2 to Paso3--><g class="link" data-entity-1="Paso2" data-entity-2="Paso3" data-source-line="29" data-uid="lnk5" id="link_Paso2_Paso3"><path d="M44,386.5369 C44,406.4569 44,431.3969 44,451.2569" fill="none" id="Paso2-to-Paso3" style="stroke:#008000;stroke-width:1;"/><polygon fill="#008000" points="44,457.2569,48,448.2569,44,452.2569,40,448.2569,44,457.2569" style="stroke:#008000;stroke-width:1;"/><path d="M49,409.2969 L49,434.2969 L345,434.2969 L345,419.2969 L335,409.2969 L49,409.2969" fill="#FFFFE0" style="stroke:#808080;stroke-width:0.5;"/><path d="M335,409.2969 L335,419.2969 L345,419.2969 L335,409.2969" fill="#FFFFE0" style="stroke:#808080;stroke-width:0.5;"/><text fill="#000000" font-family="sans-serif" font-size="13" font-weight="bold" lengthAdjust="spacing" textLength="104.8633" x="55" y="426.3638">Administrador</text><text fill="#000000" font-family="sans-serif" font-size="13" lengthAdjust="spacing" textLength="166.1816" x="163.9956" y="426.3638">introduce la confirmaci&#243;n</text></g><!--link Paso3 to *end*MainBlock--><g class="link" data-entity-1="Paso3" data-entity-2=".end.MainBlock" data-source-line="35" data-uid="lnk7" id="link_Paso3_.end.MainBlock"><path d="M44,497.5469 C44,522.2269 44,558.1169 44,577.2369" fill="none" id="Paso3-to-*end*MainBlock" style="stroke:#008000;stroke-width:1;"/><polygon fill="#008000" points="44,583.2369,48,574.2369,44,578.2369,40,574.2369,44,583.2369" style="stroke:#008000;stroke-width:1;"/><path d="M49,520.2969 L49,560.2969 L242,560.2969 L242,530.2969 L232,520.2969 L49,520.2969" fill="#FFFFE0" style="stroke:#808080;stroke-width:0.5;"/><path d="M232,520.2969 L232,530.2969 L242,530.2969 L232,520.2969" fill="#FFFFE0" style="stroke:#808080;stroke-width:0.5;"/><text fill="#000000" font-family="sans-serif" font-size="13" font-weight="bold" lengthAdjust="spacing" textLength="58.9063" x="55" y="537.3638">Sistema</text><text fill="#000000" font-family="sans-serif" font-size="13" lengthAdjust="spacing" textLength="105.6187" x="118.0386" y="537.3638">elimina el grupo</text><text fill="#000000" font-family="sans-serif" font-size="13" lengthAdjust="spacing" textLength="117.1587" x="55" y="552.4966">y actualiza la lista</text></g><rect fill="#FFFFFF" height="40" rx="12.5" ry="12.5" style="stroke:#000000;stroke-width:0.5;" width="137.627" x="122" y="675"/><text fill="#000000" font-family="sans-serif" font-size="14" lengthAdjust="spacing" textLength="127.627" x="127" y="699.8467">GRUPOS_ABIERTO</text><!--link GRUPOS_ABIERTO to MainBlock--><g class="link" data-entity-1="GRUPOS_ABIERTO" data-entity-2="MainBlock" data-source-line="45" data-uid="lnk8" id="link_GRUPOS_ABIERTO_MainBlock"><path d="M191,47.28 C191,61.4 191,76.3 191,100.73" fill="none" id="GRUPOS_ABIERTO-to-MainBlock" style="stroke:#008000;stroke-width:1;"/><polygon fill="#008000" points="191,106.73,195,97.73,191,101.73,187,97.73,191,106.73" style="stroke:#008000;stroke-width:1;"/></g><!--link MainBlock to GRUPOS_ABIERTO_FINAL--><g class="link" data-entity-1="MainBlock" data-entity-2="GRUPOS_ABIERTO_FINAL" data-source-line="46" data-uid="lnk9" id="link_MainBlock_GRUPOS_ABIERTO_FINAL"><path d="M191,615.32 C191,639.82 191,654.77 191,668.87" fill="none" id="MainBlock-to-GRUPOS_ABIERTO_FINAL" style="stroke:#008000;stroke-width:1;"/><polygon fill="#008000" points="191,674.87,195,665.87,191,669.87,187,665.87,191,674.87" style="stroke:#008000;stroke-width:1;"/></g><!--SRC=[bPB1RXCn48RlVehHNg0hvK1oHqgg4bKgj6gBK8MgQcgRP8ZNiuozYbB4K_KH-c9uxIHj0aJ5brt_jkV_nlxdP2pOfeqhC3PeeJOIUwN2WdoBWWs4YD72JmLfJ50lPiATDyViME3BdA8jAop6Ib4dBctBwbY4bqMSYhLU_NfHsFC_wvxHR1vlh7Ey_AFwL72LwgWtS9BG30DvqeGEK8JkKHNUwUNdY_Ehk_7azEJo-bojrSewQiYZJALh-UrH1HZW8vAVEDQBDSpN-XO6W_TmWO7VPIMJiWT7llJLZxeUcrIBGfH48NKDWLqYYGWR5vZrDlc4zIQNKNbMQB91Jr11bUKYRBo7XxolagzjyAMhPl-Df45DJuyU-cSj67b-46Au3p7SGep-vmB8Hs7JQGjk3-UW_MZVVfJjqpkyxWRMVQPlkN3Oxbe1wjYXemViaLmwWhieEKZ7Oh7X09s7Act6K44VKVZHMS3qPnyqfiM-fvOGy1w_yoPHkq7BWTgLxZwSVXgVARMhmi3mqgSkj-bJppdShFsjq6y0]--></g></svg>