<svg xmlns="http://www.w3.org/2000/svg" xmlns:xlink="http://www.w3.org/1999/xlink" contentStyleType="text/css" data-diagram-type="STATE" height="804px" preserveAspectRatio="none" style="width:418px;height:804px;background:#FFFFFF;" version="1.1" viewBox="0 0 418 804" width="418px" zoomAndPan="magnify"><defs/><g><g id="Inicio"><rect fill="#FFFFFF" height="50" rx="12.5" ry="12.5" style="stroke:#000000;stroke-width:0.5;" width="147.627" x="132" y="7"/><line style="stroke:#000000;stroke-width:0.5;" x1="132" x2="279.627" y1="33.2969" y2="33.2969"/><text fill="#000000" font-family="sans-serif" font-size="14" lengthAdjust="spacing" textLength="127.627" x="142" y="24.9951">GRUPOS_ABIERTO</text></g><path d="M19.5,118 L392.5,118 A12.5,12.5 0 0 1 405,130.5 L405,144.2969 L7,144.2969 L7,130.5 A12.5,12.5 0 0 1 19.5,118" fill="#FFFFFF"/><rect fill="none" height="553.2969" rx="12.5" ry="12.5" style="stroke:#000000;stroke-width:0.5;" width="398" x="7" y="118"/><line style="stroke:#000000;stroke-width:0.5;" x1="7" x2="405" y1="144.2969" y2="144.2969"/><text fill="#000000" font-family="sans-serif" font-size="14" lengthAdjust="spacing" textLength="110.9814" x="150.5093" y="135.9951">eliminarGrupo()</text><g id="EliminarGrupoContainer.Paso1"><rect fill="#FFFFFF" height="50" rx="12.5" ry="12.5" style="stroke:#000000;stroke-width:0.5;" width="50" x="19" y="246.2969"/><line style="stroke:#000000;stroke-width:0.5;" x1="19" x2="69" y1="272.5938" y2="272.5938"/><text fill="#000000" font-family="sans-serif" font-size="14" lengthAdjust="spacing" textLength="4.4502" x="41.7749" y="264.292">&#160;</text></g><g id="EliminarGrupoContainer.Paso2"><rect fill="#FFFFFF" height="50" rx="12.5" ry="12.5" style="stroke:#000000;stroke-width:0.5;" width="50" x="19" y="397.2969"/><line style="stroke:#000000;stroke-width:0.5;" x1="19" x2="69" y1="423.5938" y2="423.5938"/><text fill="#000000" font-family="sans-serif" font-size="14" lengthAdjust="spacing" textLength="4.4502" x="41.7749" y="415.292">&#160;</text></g><g id="EliminarGrupoContainer.Paso3"><rect fill="#FFFFFF" height="50" rx="12.5" ry="12.5" style="stroke:#000000;stroke-width:0.5;" width="50" x="19" y="518.2969"/><line style="stroke:#000000;stroke-width:0.5;" x1="19" x2="69" y1="544.5938" y2="544.5938"/><text fill="#000000" font-family="sans-serif" font-size="14" lengthAdjust="spacing" textLength="4.4502" x="41.7749" y="536.292">&#160;</text></g><ellipse cx="44" cy="165.2969" fill="#222222" rx="10" ry="10" style="stroke:#222222;stroke-width:1;"/><ellipse cx="44" cy="650.2969" fill="none" rx="11" ry="11" style="stroke:#222222;stroke-width:1;"/><ellipse cx="44" cy="650.2969" fill="#222222" rx="6" ry="6" style="stroke:#222222;stroke-width:1;"/><!--link *start*EliminarGrupoContainer to Paso1--><g class="link" data-entity-1=".start.EliminarGrupoContainer" data-entity-2="Paso1" data-source-line="23" data-uid="lnk3" id="link_.start.EliminarGrupoContainer_Paso1"><path d="M44,175.5269 C44,191.2369 44,217.6569 44,240.1669" fill="none" id="*start*EliminarGrupoContainer-to-Paso1" style="stroke:#009900;stroke-width:1;"/><polygon fill="#009900" points="44,246.1669,48,237.1669,44,241.1669,40,237.1669,44,246.1669" style="stroke:#009900;stroke-width:1;"/><path d="M49,198.2969 L49,223.2969 L324,223.2969 L324,208.2969 L314,198.2969 L49,198.2969" fill="#FFFFE0" style="stroke:#B0B060;stroke-width:0.5;"/><path d="M314,198.2969 L314,208.2969 L324,208.2969 L314,198.2969" fill="#FFFFE0" style="stroke:#B0B060;stroke-width:0.5;"/><text fill="#000000" font-family="sans-serif" font-size="13" font-weight="bold" lengthAdjust="spacing" textLength="104.8633" x="55" y="215.3638">Administrador</text><text fill="#000000" font-family="sans-serif" font-size="13" lengthAdjust="spacing" textLength="145.1265" x="163.9956" y="215.3638">solicita eliminar grupo</text></g><!--link Paso1 to Paso2--><g class="link" data-entity-1="Paso1" data-entity-2="Paso2" data-source-line="28" data-uid="lnk4" id="link_Paso1_Paso2"><path d="M44,296.5669 C44,324.2769 44,363.3369 44,391.0369" fill="none" id="Paso1-to-Paso2" style="stroke:#009900;stroke-width:1;"/><polygon fill="#009900" points="44,397.0369,48,388.0369,44,392.0369,40,388.0369,44,397.0369" style="stroke:#009900;stroke-width:1;"/><path d="M49,319.2969 L49,374.2969 L396,374.2969 L396,329.2969 L386,319.2969 L49,319.2969" fill="#FFFFE0" style="stroke:#B0B060;stroke-width:0.5;"/><path d="M386,319.2969 L386,329.2969 L396,329.2969 L386,319.2969" fill="#FFFFE0" style="stroke:#B0B060;stroke-width:0.5;"/><text fill="#000000" font-family="sans-serif" font-size="13" font-weight="bold" lengthAdjust="spacing" textLength="58.9063" x="55" y="336.3638">Sistema</text><text fill="#000000" font-family="sans-serif" font-size="13" lengthAdjust="spacing" textLength="225.0688" x="118.0386" y="336.3638">presenta solicitud de confirmaci&#243;n</text><text fill="#000000" font-family="sans-serif" font-size="13" lengthAdjust="spacing" textLength="7.668" x="55" y="351.4966">&#8226;</text><text fill="#000000" font-family="sans-serif" font-size="13" font-weight="bold" lengthAdjust="spacing" textLength="58.9063" x="66.8003" y="351.4966">Sistema</text><text fill="#000000" font-family="sans-serif" font-size="13" lengthAdjust="spacing" textLength="251.9829" x="129.8389" y="351.4966">permite solicitar confirmar eliminaci&#243;n</text><text fill="#000000" font-family="sans-serif" font-size="13" lengthAdjust="spacing" textLength="7.668" x="55" y="366.6294">&#8226;</text><text fill="#000000" font-family="sans-serif" font-size="13" font-weight="bold" lengthAdjust="spacing" textLength="58.9063" x="66.8003" y="366.6294">Sistema</text><text fill="#000000" font-family="sans-serif" font-size="13" lengthAdjust="spacing" textLength="244.5562" x="129.8389" y="366.6294">permite solicitar cancelar eliminaci&#243;n</text></g><!--link Paso2 to Paso3--><g class="link" data-entity-1="Paso2" data-entity-2="Paso3" data-source-line="35" data-uid="lnk5" id="link_Paso2_Paso3"><path d="M44,447.3769 C44,468.0269 44,491.6169 44,512.2469" fill="none" id="Paso2-to-Paso3" style="stroke:#009900;stroke-width:1;"/><polygon fill="#009900" points="44,518.2469,48,509.2469,44,513.2469,40,509.2469,44,518.2469" style="stroke:#009900;stroke-width:1;"/><path d="M49,470.2969 L49,495.2969 L370,495.2969 L370,480.2969 L360,470.2969 L49,470.2969" fill="#FFFFE0" style="stroke:#B0B060;stroke-width:0.5;"/><path d="M360,470.2969 L360,480.2969 L370,480.2969 L360,470.2969" fill="#FFFFE0" style="stroke:#B0B060;stroke-width:0.5;"/><text fill="#000000" font-family="sans-serif" font-size="13" font-weight="bold" lengthAdjust="spacing" textLength="104.8633" x="55" y="487.3638">Administrador</text><text fill="#000000" font-family="sans-serif" font-size="13" lengthAdjust="spacing" textLength="191.5405" x="163.9956" y="487.3638">solicita confirmar eliminaci&#243;n</text></g><!--link Paso3 to *end*EliminarGrupoContainer--><g class="link" data-entity-1="Paso3" data-entity-2=".end.EliminarGrupoContainer" data-source-line="40" data-uid="lnk7" id="link_Paso3_.end.EliminarGrupoContainer"><path d="M44,568.3869 C44,590.7869 44,617.0669 44,633.2469" fill="none" id="Paso3-to-*end*EliminarGrupoContainer" style="stroke:#009900;stroke-width:1;"/><polygon fill="#009900" points="44,639.2469,48,630.2469,44,634.2469,40,630.2469,44,639.2469" style="stroke:#009900;stroke-width:1;"/><path d="M49,591.2969 L49,616.2969 L370,616.2969 L370,601.2969 L360,591.2969 L49,591.2969" fill="#FFFFE0" style="stroke:#B0B060;stroke-width:0.5;"/><path d="M360,591.2969 L360,601.2969 L370,601.2969 L360,591.2969" fill="#FFFFE0" style="stroke:#B0B060;stroke-width:0.5;"/><text fill="#000000" font-family="sans-serif" font-size="13" font-weight="bold" lengthAdjust="spacing" textLength="58.9063" x="55" y="608.3638">Sistema</text><text fill="#000000" font-family="sans-serif" font-size="13" lengthAdjust="spacing" textLength="236.9707" x="118.0386" y="608.3638">presenta lista de grupos actualizada</text></g><g id="Fin"><rect fill="#FFFFFF" height="50" rx="12.5" ry="12.5" style="stroke:#000000;stroke-width:0.5;" width="147.627" x="132" y="748"/><line style="stroke:#000000;stroke-width:0.5;" x1="132" x2="279.627" y1="774.2969" y2="774.2969"/><text fill="#000000" font-family="sans-serif" font-size="14" lengthAdjust="spacing" textLength="127.627" x="142" y="765.9951">GRUPOS_ABIERTO</text></g><!--link Inicio to EliminarGrupoContainer--><g class="link" data-entity-1="Inicio" data-entity-2="EliminarGrupoContainer" data-source-line="48" data-uid="lnk8" id="link_Inicio_EliminarGrupoContainer"><path d="M206,57.21 C206,72.29 206,87.44 206,111.88" fill="none" id="Inicio-to-EliminarGrupoContainer" style="stroke:#009900;stroke-width:1;"/><polygon fill="#009900" points="206,117.88,210,108.88,206,112.88,202,108.88,206,117.88" style="stroke:#009900;stroke-width:1;"/></g><!--link EliminarGrupoContainer to Fin--><g class="link" data-entity-1="EliminarGrupoContainer" data-entity-2="Fin" data-source-line="49" data-uid="lnk9" id="link_EliminarGrupoContainer_Fin"><path d="M260.77,671.18 C261.99,681.23 263.08,691.19 264,701 C264.71,708.52 267.02,711.07 264,718 C259,729.48 254.689,735.6054 245.459,743.9154" fill="none" id="EliminarGrupoContainer-to-Fin" style="stroke:#009900;stroke-width:1;"/><polygon fill="#009900" points="241,747.93,250.365,744.8808,244.7159,744.5845,245.0122,738.9354,241,747.93" style="stroke:#009900;stroke-width:1;"/></g><!--link EliminarGrupoContainer to Fin--><g class="link" data-entity-1="EliminarGrupoContainer" data-entity-2="Fin" data-source-line="50" data-uid="lnk10" id="link_EliminarGrupoContainer_Fin"><path d="M128.51,671.27 C126.81,681.27 125.29,691.2 124,701 C123.01,708.49 120.42,711.35 124,718 C130.55,730.15 136.2053,736.6361 147.6553,744.4561" fill="none" id="EliminarGrupoContainer-to-Fin-1" style="stroke:#FF0000;stroke-width:1;"/><polygon fill="#FF0000" points="152.61,747.84,147.4339,739.461,148.4811,745.0201,142.922,746.0673,152.61,747.84" style="stroke:#FF0000;stroke-width:1;"/><text fill="#000000" font-family="sans-serif" font-size="13" lengthAdjust="spacing" textLength="134.2085" x="125" y="714.0669">cancelar eliminaci&#243;n</text></g><!--SRC=[dLDBIWD14DtFAOfaemF2c80G5q8cH75bI1GN4gISRZEDFLsXkaD04JoBL_08tiIJsDEJ395C0h6NhwhUU_Lf-wBC71aBACXGbZCL4fvHMndPEcHp5BHSmOxcu0YUo3agG2YMcLDaeiryXqx2MmJ-fPYzp9WMHWn84yDzhfoi8iH2SeMcsgS5jCzComfi9qclboJH-oQtePtKxKl_XiaMUJjDqkIiuWdEMbVZkz7DvB6VNW_7jpSjG0lNHcMAwWofLQ4CyXKlvdHq75A6czY0Z4Db9A_ChEeWP8xGqcapt6c6kr707-8fd9nSR124Vic0LgOQKFdYk2-y5MKT-yrm78CbxVqxXBLnc9KkGuKq8j1K4e6w5kdi4vbu0LcWfv-pjD8tlDPP210ICZBFYWlCrFUNgUj-FZx_raek_CvhYrpNyThjmGHeCgcRwhTxxTIzTlyrq3rcjyMwGSnlyS2nQWzXETAmDGkOkGLgzOe2_ohjlU5BvRzXTSZ1H_F1HZlkkAme6NQ57zeinPJLB7TL9fmtB-8N]--></g></svg>