<svg xmlns="http://www.w3.org/2000/svg" xmlns:xlink="http://www.w3.org/1999/xlink" contentStyleType="text/css" data-diagram-type="STATE" height="731px" preserveAspectRatio="none" style="width:813px;height:731px;background:#FFFFFF;" version="1.1" viewBox="0 0 813 731" width="813px" zoomAndPan="magnify"><defs/><g><g id="EntradaLista"><rect fill="#FFFFFF" height="50" rx="12.5" ry="12.5" style="stroke:#000000;stroke-width:0.5;" width="188.0205" x="148.5" y="7"/><line style="stroke:#000000;stroke-width:0.5;" x1="148.5" x2="336.5205" y1="33.2969" y2="33.2969"/><text fill="#000000" font-family="sans-serif" font-size="14" lengthAdjust="spacing" textLength="168.0205" x="158.5" y="24.9951">INVITACIONES_ABIERTO</text></g><g id="EntradaDetalle"><rect fill="#FFFFFF" height="50" rx="12.5" ry="12.5" style="stroke:#000000;stroke-width:0.5;" width="170.2881" x="371.5" y="7"/><line style="stroke:#000000;stroke-width:0.5;" x1="371.5" x2="541.7881" y1="33.2969" y2="33.2969"/><text fill="#000000" font-family="sans-serif" font-size="14" lengthAdjust="spacing" textLength="150.2881" x="381.5" y="24.9951">INVITACION_ABIERTO</text></g><path d="M19.5,118 L679.18,118 A12.5,12.5 0 0 1 691.68,130.5 L691.68,144.2969 L7,144.2969 L7,130.5 A12.5,12.5 0 0 1 19.5,118" fill="#FFFFFF"/><rect fill="none" height="462.2969" rx="12.5" ry="12.5" style="stroke:#000000;stroke-width:0.5;" width="684.68" x="7" y="118"/><line style="stroke:#000000;stroke-width:0.5;" x1="7" x2="691.68" y1="144.2969" y2="144.2969"/><text fill="#000000" font-family="sans-serif" font-size="14" lengthAdjust="spacing" textLength="120.4082" x="289.1359" y="135.9951">editarInvitacion()</text><g id="MainBlock.EstadoVisualizacion"><rect fill="#FFFFFF" height="50" rx="12.5" ry="12.5" style="stroke:#000000;stroke-width:0.5;" width="50" x="230.68" y="246.2969"/><line style="stroke:#000000;stroke-width:0.5;" x1="230.68" x2="280.68" y1="272.5938" y2="272.5938"/><text fill="#000000" font-family="sans-serif" font-size="14" lengthAdjust="spacing" textLength="4.4502" x="253.4549" y="264.292">&#160;</text></g><g id="MainBlock.EstadoDecision"><rect fill="#FFFFFF" height="50" rx="12.5" ry="12.5" style="stroke:#000000;stroke-width:0.5;" width="50" x="230.68" y="427.2969"/><line style="stroke:#000000;stroke-width:0.5;" x1="230.68" x2="280.68" y1="453.5938" y2="453.5938"/><text fill="#000000" font-family="sans-serif" font-size="14" lengthAdjust="spacing" textLength="4.4502" x="253.4549" y="445.292">&#160;</text></g><ellipse cx="255.68" cy="165.2969" fill="#222222" rx="10" ry="10" style="stroke:#222222;stroke-width:1;"/><ellipse cx="255.68" cy="559.2969" fill="none" rx="11" ry="11" style="stroke:#222222;stroke-width:1;"/><ellipse cx="255.68" cy="559.2969" fill="#222222" rx="6" ry="6" style="stroke:#222222;stroke-width:1;"/><!--link *start*MainBlock to EstadoVisualizacion--><g class="link" data-entity-1=".start.MainBlock" data-entity-2="EstadoVisualizacion" data-source-line="30" data-uid="lnk3" id="link_.start.MainBlock_EstadoVisualizacion"><path d="M255.68,175.5269 C255.68,191.2369 255.68,217.6569 255.68,240.1669" fill="none" id="*start*MainBlock-to-EstadoVisualizacion" style="stroke:#009900;stroke-width:1;"/><polygon fill="#009900" points="255.68,246.1669,259.68,237.1669,255.68,241.1669,251.68,237.1669,255.68,246.1669" style="stroke:#009900;stroke-width:1;"/><path d="M260.68,198.2969 L260.68,223.2969 L505.68,223.2969 L505.68,208.2969 L495.68,198.2969 L260.68,198.2969" fill="#FFFFE0" style="stroke:#B0B060;stroke-width:0.5;"/><path d="M495.68,198.2969 L495.68,208.2969 L505.68,208.2969 L495.68,198.2969" fill="#FFFFE0" style="stroke:#B0B060;stroke-width:0.5;"/><text fill="#000000" font-family="Arial" font-size="13" font-weight="bold" lengthAdjust="spacing" textLength="64.4033" x="266.68" y="215.3638">Miembro</text><text fill="#000000" font-family="Arial" font-size="13" lengthAdjust="spacing" textLength="155.4795" x="335.2156" y="215.3638">solicita editar invitaci&#243;n</text></g><!--link EstadoVisualizacion to EstadoDecision--><g class="link" data-entity-1="EstadoVisualizacion" data-entity-2="EstadoDecision" data-source-line="35" data-uid="lnk4" id="link_EstadoVisualizacion_EstadoDecision"><path d="M255.68,296.4369 C255.68,330.6969 255.68,387.0469 255.68,421.2569" fill="none" id="EstadoVisualizacion-to-EstadoDecision" style="stroke:#009900;stroke-width:1;"/><polygon fill="#009900" points="255.68,427.2569,259.68,418.2569,255.68,422.2569,251.68,418.2569,255.68,427.2569" style="stroke:#009900;stroke-width:1;"/><path d="M260.68,319.2969 L260.68,404.2969 L628.68,404.2969 L628.68,329.2969 L618.68,319.2969 L260.68,319.2969" fill="#FFFFE0" style="stroke:#B0B060;stroke-width:0.5;"/><path d="M618.68,319.2969 L618.68,329.2969 L628.68,329.2969 L618.68,319.2969" fill="#FFFFE0" style="stroke:#B0B060;stroke-width:0.5;"/><text fill="#000000" font-family="Arial" font-size="13" font-weight="bold" lengthAdjust="spacing" textLength="58.9063" x="266.68" y="336.3638">Sistema</text><text fill="#000000" font-family="Arial" font-size="13" lengthAdjust="spacing" textLength="199.8687" x="329.7186" y="336.3638">visualiza datos de la invitaci&#243;n</text><text fill="#000000" font-family="Arial" font-size="13" font-weight="bold" lengthAdjust="spacing" textLength="58.9063" x="266.68" y="351.4966">Sistema</text><text fill="#000000" font-family="Arial" font-size="13" lengthAdjust="spacing" textLength="110.5952" x="329.7186" y="351.4966">permite solicitar:</text><ellipse cx="272.18" cy="362.1953" fill="#000000" rx="2.5" ry="2.5"/><text fill="#000000" font-family="Arial" font-size="13" lengthAdjust="spacing" textLength="335.499" x="278.68" y="366.6294">introducir cambios en el estado (Aceptar/Rechazar)</text><ellipse cx="272.18" cy="377.3281" fill="#000000" rx="2.5" ry="2.5"/><text fill="#000000" font-family="Arial" font-size="13" lengthAdjust="spacing" textLength="109.8652" x="278.68" y="381.7622">guardar cambios</text><ellipse cx="272.18" cy="392.4609" fill="#000000" rx="2.5" ry="2.5"/><text fill="#000000" font-family="Arial" font-size="13" lengthAdjust="spacing" textLength="106.3677" x="278.68" y="396.895">cancelar edici&#243;n</text></g><!--link EstadoDecision to *end*MainBlock--><g class="link" data-entity-1="EstadoDecision" data-entity-2=".end.MainBlock" data-source-line="45" data-uid="lnk6" id="link_EstadoDecision_.end.MainBlock"><path d="M230.39,454.6669 C168.52,458.9169 18,475.0669 65.68,530.2969 C89.16,557.4869 201.7502,558.794 238.6902,558.504" fill="none" id="EstadoDecision-to-*end*MainBlock" style="stroke:#008000;stroke-width:1;"/><polygon fill="#008000" points="244.69,558.4569,235.6589,554.5277,239.6902,558.4961,235.7217,562.5274,244.69,558.4569" style="stroke:#008000;stroke-width:1;"/><path d="M70.68,500.2969 L70.68,525.2969 L419.68,525.2969 L419.68,510.2969 L409.68,500.2969 L70.68,500.2969" fill="#FFFFE0" style="stroke:#B0B060;stroke-width:0.5;"/><path d="M409.68,500.2969 L409.68,510.2969 L419.68,510.2969 L409.68,500.2969" fill="#FFFFE0" style="stroke:#B0B060;stroke-width:0.5;"/><text fill="#000000" font-family="Arial" font-size="13" font-weight="bold" lengthAdjust="spacing" textLength="64.4033" x="76.68" y="517.3638">Miembro</text><text fill="#000000" font-family="Arial" font-size="13" lengthAdjust="spacing" textLength="260.0825" x="145.2156" y="517.3638">introduce los cambios y solicita guardar</text></g><!--link EstadoDecision to *end*MainBlock--><g class="link" data-entity-1="EstadoDecision" data-entity-2=".end.MainBlock" data-source-line="50" data-uid="lnk7" id="link_EstadoDecision_.end.MainBlock"><path d="M280.69,455.4969 C337.23,461.3969 466.81,480.6269 424.68,530.2969 C404.2,554.4569 306.8095,557.7196 272.6495,558.1596" fill="none" id="EstadoDecision-to-*end*MainBlock-1" style="stroke:#FF0000;stroke-width:1;"/><polygon fill="#FF0000" points="266.65,558.2369,275.7008,562.1206,271.6496,558.1725,275.5977,554.1213,266.65,558.2369" style="stroke:#FF0000;stroke-width:1;"/><path d="M437.68,500.2969 L437.68,525.2969 L682.68,525.2969 L682.68,510.2969 L672.68,500.2969 L437.68,500.2969" fill="#FFFFE0" style="stroke:#B0B060;stroke-width:0.5;"/><path d="M672.68,500.2969 L672.68,510.2969 L682.68,510.2969 L672.68,500.2969" fill="#FFFFE0" style="stroke:#B0B060;stroke-width:0.5;"/><text fill="#000000" font-family="Arial" font-size="13" font-weight="bold" lengthAdjust="spacing" textLength="64.4033" x="443.68" y="517.3638">Miembro</text><text fill="#000000" font-family="Arial" font-size="13" lengthAdjust="spacing" textLength="156.2729" x="512.2156" y="517.3638">solicita cancelar edici&#243;n</text></g><g id="FinInvitacion"><rect fill="#FFFFFF" height="50" rx="12.5" ry="12.5" style="stroke:#000000;stroke-width:0.5;" width="170.2881" x="207.5" y="675"/><line style="stroke:#000000;stroke-width:0.5;" x1="207.5" x2="377.7881" y1="701.2969" y2="701.2969"/><text fill="#000000" font-family="sans-serif" font-size="14" lengthAdjust="spacing" textLength="150.2881" x="217.5" y="692.9951">INVITACION_ABIERTO</text></g><g id="FinLista"><rect fill="#FFFFFF" height="50" rx="12.5" ry="12.5" style="stroke:#000000;stroke-width:0.5;" width="188.0205" x="534.5" y="675"/><line style="stroke:#000000;stroke-width:0.5;" x1="534.5" x2="722.5205" y1="701.2969" y2="701.2969"/><text fill="#000000" font-family="sans-serif" font-size="14" lengthAdjust="spacing" textLength="168.0205" x="544.5" y="692.9951">INVITACIONES_ABIERTO</text></g><!--link EntradaLista to MainBlock--><g class="link" data-entity-1="EntradaLista" data-entity-2="MainBlock" data-source-line="62" data-uid="lnk8" id="link_EntradaLista_MainBlock"><path d="M250.72,57.19 C255.88,72.39 261.1789,87.9993 269.4089,112.2093" fill="none" id="EntradaLista-to-MainBlock" style="stroke:#009900;stroke-width:1;"/><polygon fill="#009900" points="271.34,117.89,272.2305,108.0815,269.7307,113.1561,264.6562,110.6563,271.34,117.89" style="stroke:#009900;stroke-width:1;"/></g><!--link EntradaDetalle to MainBlock--><g class="link" data-entity-1="EntradaDetalle" data-entity-2="MainBlock" data-source-line="63" data-uid="lnk9" id="link_EntradaDetalle_MainBlock"><path d="M448.28,57.19 C443.12,72.39 437.8211,87.9993 429.5911,112.2093" fill="none" id="EntradaDetalle-to-MainBlock" style="stroke:#009900;stroke-width:1;"/><polygon fill="#009900" points="427.66,117.89,434.3438,110.6563,429.2693,113.1561,426.7695,108.0815,427.66,117.89" style="stroke:#009900;stroke-width:1;"/></g><!--link MainBlock to FinInvitacion--><g class="link" data-entity-1="MainBlock" data-entity-2="FinInvitacion" data-source-line="66" data-uid="lnk10" id="link_MainBlock_FinInvitacion"><path d="M239.1,580.05 C236.21,590.06 233.65,600.07 231.5,610 C228.21,625.2 225.11,630.82 231.5,645 C236.73,656.61 241.2692,662.8198 250.8592,671.0598" fill="none" id="MainBlock-to-FinInvitacion" style="stroke:#008000;stroke-width:1;"/><polygon fill="#008000" points="255.41,674.97,251.1905,666.0708,251.6176,671.7115,245.9769,672.1386,255.41,674.97" style="stroke:#008000;stroke-width:1;"/><text fill="#000000" font-family="sans-serif" font-size="13" lengthAdjust="spacing" textLength="73.9438" x="232.5" y="632.0669">"               "</text></g><!--link MainBlock to FinInvitacion--><g class="link" data-entity-1="MainBlock" data-entity-2="FinInvitacion" data-source-line="69" data-uid="lnk11" id="link_MainBlock_FinInvitacion"><path d="M323.39,580.26 C319.6,602.24 315.32,624.11 310.5,645 C308.21,654.92 306.8173,659.9317 303.6173,669.1517" fill="none" id="MainBlock-to-FinInvitacion-1" style="stroke:#FF0000;stroke-width:1;"/><polygon fill="#FF0000" points="301.65,674.82,308.3798,667.6291,303.2894,670.0964,300.8221,665.006,301.65,674.82" style="stroke:#FF0000;stroke-width:1;"/><path d="M322.5,615 L322.5,640 L551.5,640 L551.5,625 L541.5,615 L322.5,615" fill="#FFFFE0" style="stroke:#B0B060;stroke-width:0.5;"/><path d="M541.5,615 L541.5,625 L551.5,625 L541.5,615" fill="#FFFFE0" style="stroke:#B0B060;stroke-width:0.5;"/><text fill="#000000" font-family="Arial" font-size="13" lengthAdjust="spacing" textLength="208.584" x="328.5" y="632.0669">cancelar edici&#243;n (desde detalle)</text></g><!--link MainBlock to FinLista--><g class="link" data-entity-1="MainBlock" data-entity-2="FinLista" data-source-line="74" data-uid="lnk12" id="link_MainBlock_FinLista"><path d="M541.12,580.06 C549.07,590.14 556.9,600.15 564.5,610 C581.13,631.55 595.7079,651.8755 608.3779,669.9655" fill="none" id="MainBlock-to-FinLista" style="stroke:#FF0000;stroke-width:1;"/><polygon fill="#FF0000" points="611.82,674.88,609.9333,665.2136,608.9516,670.7846,603.3806,669.803,611.82,674.88" style="stroke:#FF0000;stroke-width:1;"/><path d="M594.5,615 L594.5,640 L806.5,640 L806.5,625 L796.5,615 L594.5,615" fill="#FFFFE0" style="stroke:#B0B060;stroke-width:0.5;"/><path d="M796.5,615 L796.5,625 L806.5,625 L796.5,615" fill="#FFFFE0" style="stroke:#B0B060;stroke-width:0.5;"/><text fill="#000000" font-family="Arial" font-size="13" lengthAdjust="spacing" textLength="191.1089" x="600.5" y="632.0669">cancelar edici&#243;n (desde lista)</text></g><!--SRC=[bLNDRXen4BxlKup28GiIAUsXKdAe18HKI0sH0AMLegWQx07SU6tazP8qLH-WZz9pRxtoOfrTBx24qgG-xAxi-Vdc-sQynz2rPgfccKEXLhyCB5MQeGObLp-DLm81WQJowDwxR67ZUfJUARD0XmaarbWnTpOXcA9EgNAKpb7Q-tBRsmLu2nFhlKr0AaV2AskYghr7J_0j0buT57SpPpCZkrPR1n_dobCuiKwI2xiTpMR5RjivUnysQwtMwMchLMoF6BD_QjjR1mrRtwiOZ3q8eNR1gzVQ0r7hj3gjjs7_mXe_GEQYxHJgFFGnzBWkQLEW1q_Ey8Sa8ECTIeIOSQi9Cg55xKVzmNL_tExshmQzqUTsfzyRZg-E05F6N3XyK6ouR_mtqtFog3Lj4O2moIAZb5LOE6M4MZ32CbHGjs-M_18iIrmlGbsYCXrjnLr9IV4eNI0aAq9V5_sY7WlVGqRd95IwFYyUDurRQ3RV7GnIY64DQ6M2SlbgD2uL9HDd6mr8hLQ28PVT2QeiW7kui2SZYo1Hq7q_JINz3hm3cKTCFoN8cPVhA23H1qqrxkL_whKWbt0VRt2xiwqPEtjdPIQK0u79HEKjOu0qK90lRWjQiC-h8OavFgAhLvnd6Jg96y_AYK0ZIFCHStI8cMCOSJ6IfM8GtAJyaT9izTlaHIsjpWmZu1ereF3MLTXSimRDczhC4PbR7dd3fBAsBzDmNJOJo1MlA_-wrROixQ2WLGYEv7y3s2HwXgcTOPugWvegGnst9_Z5rf-PpGjbjaFsxD2pTHXuJjniDc4yR0z6_M08lK_Ztd3G7kKdKLIz7ugctenkj7iVF3daoAzFIlNp9bxzU51yGSJNn1TSFTfU01jzsNsd2ZZZ8TzTHtdODoURfkAutS1j-Bt4GyjK0HE6XXkR_pH6BRcvb9cIKznVEsahckxIjwVide0GIqevkmorrwDj__mZHU3yvT5rRh-D_GS0]--></g></svg>