<svg xmlns="http://www.w3.org/2000/svg" xmlns:xlink="http://www.w3.org/1999/xlink" contentStyleType="text/css" data-diagram-type="STATE" height="837px" preserveAspectRatio="none" style="width:745px;height:837px;background:#FFFFFF;" version="1.1" viewBox="0 0 745 837" width="745px" zoomAndPan="magnify"><defs/><g><g id="EntradaLista"><rect fill="#FFFFFF" height="50" rx="12.5" ry="12.5" style="stroke:#000000;stroke-width:0.5;" width="188.0205" x="74.5" y="7"/><line style="stroke:#000000;stroke-width:0.5;" x1="74.5" x2="262.5205" y1="33.2969" y2="33.2969"/><text fill="#000000" font-family="sans-serif" font-size="14" lengthAdjust="spacing" textLength="168.0205" x="84.5" y="24.9951">INVITACIONES_ABIERTO</text></g><g id="EntradaDetalle"><rect fill="#FFFFFF" height="50" rx="12.5" ry="12.5" style="stroke:#000000;stroke-width:0.5;" width="170.2881" x="297.5" y="7"/><line style="stroke:#000000;stroke-width:0.5;" x1="297.5" x2="467.7881" y1="33.2969" y2="33.2969"/><text fill="#000000" font-family="sans-serif" font-size="14" lengthAdjust="spacing" textLength="150.2881" x="307.5" y="24.9951">INVITACION_ABIERTO</text></g><path d="M19.5,118 L531.5,118 A12.5,12.5 0 0 1 544,130.5 L544,144.2969 L7,144.2969 L7,130.5 A12.5,12.5 0 0 1 19.5,118" fill="#FFFFFF"/><rect fill="none" height="568.2969" rx="12.5" ry="12.5" style="stroke:#000000;stroke-width:0.5;" width="537" x="7" y="118"/><line style="stroke:#000000;stroke-width:0.5;" x1="7" x2="544" y1="144.2969" y2="144.2969"/><text fill="#000000" font-family="sans-serif" font-size="14" lengthAdjust="spacing" textLength="120.4082" x="215.2959" y="135.9951">editarInvitacion()</text><g id="MainBlock.Paso1"><rect fill="#FFFFFF" height="50" rx="12.5" ry="12.5" style="stroke:#000000;stroke-width:0.5;" width="50" x="19" y="246.2969"/><line style="stroke:#000000;stroke-width:0.5;" x1="19" x2="69" y1="272.5938" y2="272.5938"/><text fill="#000000" font-family="sans-serif" font-size="14" lengthAdjust="spacing" textLength="4.4502" x="41.7749" y="264.292">&#160;</text></g><g id="MainBlock.Paso2"><rect fill="#FFFFFF" height="50" rx="12.5" ry="12.5" style="stroke:#000000;stroke-width:0.5;" width="50" x="19" y="412.2969"/><line style="stroke:#000000;stroke-width:0.5;" x1="19" x2="69" y1="438.5938" y2="438.5938"/><text fill="#000000" font-family="sans-serif" font-size="14" lengthAdjust="spacing" textLength="4.4502" x="41.7749" y="430.292">&#160;</text></g><g id="MainBlock.Paso3"><rect fill="#FFFFFF" height="50" rx="12.5" ry="12.5" style="stroke:#000000;stroke-width:0.5;" width="50" x="19" y="533.2969"/><line style="stroke:#000000;stroke-width:0.5;" x1="19" x2="69" y1="559.5938" y2="559.5938"/><text fill="#000000" font-family="sans-serif" font-size="14" lengthAdjust="spacing" textLength="4.4502" x="41.7749" y="551.292">&#160;</text></g><ellipse cx="44" cy="165.2969" fill="#222222" rx="10" ry="10" style="stroke:#222222;stroke-width:1;"/><ellipse cx="44" cy="665.2969" fill="none" rx="11" ry="11" style="stroke:#222222;stroke-width:1;"/><ellipse cx="44" cy="665.2969" fill="#222222" rx="6" ry="6" style="stroke:#222222;stroke-width:1;"/><!--link *start*MainBlock to Paso1--><g class="link" data-entity-1=".start.MainBlock" data-entity-2="Paso1" data-source-line="31" data-uid="lnk3" id="link_.start.MainBlock_Paso1"><path d="M44,175.5269 C44,191.2369 44,217.6569 44,240.1669" fill="none" id="*start*MainBlock-to-Paso1" style="stroke:#009900;stroke-width:1;"/><polygon fill="#009900" points="44,246.1669,48,237.1669,44,241.1669,40,237.1669,44,246.1669" style="stroke:#009900;stroke-width:1;"/><path d="M49,198.2969 L49,223.2969 L294,223.2969 L294,208.2969 L284,198.2969 L49,198.2969" fill="#FFFFE0" style="stroke:#B0B060;stroke-width:0.5;"/><path d="M284,198.2969 L284,208.2969 L294,208.2969 L284,198.2969" fill="#FFFFE0" style="stroke:#B0B060;stroke-width:0.5;"/><text fill="#000000" font-family="Arial" font-size="13" font-weight="bold" lengthAdjust="spacing" textLength="64.4033" x="55" y="215.3638">Miembro</text><text fill="#000000" font-family="Arial" font-size="13" lengthAdjust="spacing" textLength="155.4795" x="123.5356" y="215.3638">solicita editar invitaci&#243;n</text></g><!--link Paso1 to Paso2--><g class="link" data-entity-1="Paso1" data-entity-2="Paso2" data-source-line="36" data-uid="lnk4" id="link_Paso1_Paso2"><path d="M44,296.4969 C44,327.5869 44,375.2469 44,406.2669" fill="none" id="Paso1-to-Paso2" style="stroke:#009900;stroke-width:1;"/><polygon fill="#009900" points="44,412.2669,48,403.2669,44,407.2669,40,403.2669,44,412.2669" style="stroke:#009900;stroke-width:1;"/><path d="M49,319.2969 L49,389.2969 L535,389.2969 L535,329.2969 L525,319.2969 L49,319.2969" fill="#FFFFE0" style="stroke:#B0B060;stroke-width:0.5;"/><path d="M525,319.2969 L525,329.2969 L535,329.2969 L525,319.2969" fill="#FFFFE0" style="stroke:#B0B060;stroke-width:0.5;"/><text fill="#000000" font-family="Arial" font-size="13" font-weight="bold" lengthAdjust="spacing" textLength="58.9063" x="55" y="336.3638">Sistema</text><text fill="#000000" font-family="Arial" font-size="13" lengthAdjust="spacing" textLength="199.8687" x="118.0386" y="336.3638">visualiza datos de la invitaci&#243;n</text><text fill="#000000" font-family="Arial" font-size="13" lengthAdjust="spacing" textLength="7.668" x="55" y="351.4966">&#8226;</text><text fill="#000000" font-family="Arial" font-size="13" font-weight="bold" lengthAdjust="spacing" textLength="58.9063" x="66.8003" y="351.4966">Sistema</text><text fill="#000000" font-family="Arial" font-size="13" lengthAdjust="spacing" textLength="390.5967" x="129.8389" y="351.4966">permite introducir cambios en el estado (Aceptar/Rechazar)</text><text fill="#000000" font-family="Arial" font-size="13" lengthAdjust="spacing" textLength="7.668" x="55" y="366.6294">&#8226;</text><text fill="#000000" font-family="Arial" font-size="13" font-weight="bold" lengthAdjust="spacing" textLength="58.9063" x="66.8003" y="366.6294">Sistema</text><text fill="#000000" font-family="Arial" font-size="13" lengthAdjust="spacing" textLength="220.2129" x="129.8389" y="366.6294">permite solicitar guardar cambios</text><text fill="#000000" font-family="Arial" font-size="13" lengthAdjust="spacing" textLength="7.668" x="55" y="381.7622">&#8226;</text><text fill="#000000" font-family="Arial" font-size="13" font-weight="bold" lengthAdjust="spacing" textLength="58.9063" x="66.8003" y="381.7622">Sistema</text><text fill="#000000" font-family="Arial" font-size="13" lengthAdjust="spacing" textLength="216.7153" x="129.8389" y="381.7622">permite solicitar cancelar edici&#243;n</text></g><!--link Paso2 to Paso3--><g class="link" data-entity-1="Paso2" data-entity-2="Paso3" data-source-line="44" data-uid="lnk5" id="link_Paso2_Paso3"><path d="M44,462.3769 C44,483.0269 44,506.6169 44,527.2469" fill="none" id="Paso2-to-Paso3" style="stroke:#009900;stroke-width:1;"/><polygon fill="#009900" points="44,533.2469,48,524.2469,44,528.2469,40,524.2469,44,533.2469" style="stroke:#009900;stroke-width:1;"/><path d="M49,485.2969 L49,510.2969 L398,510.2969 L398,495.2969 L388,485.2969 L49,485.2969" fill="#FFFFE0" style="stroke:#B0B060;stroke-width:0.5;"/><path d="M388,485.2969 L388,495.2969 L398,495.2969 L388,485.2969" fill="#FFFFE0" style="stroke:#B0B060;stroke-width:0.5;"/><text fill="#000000" font-family="Arial" font-size="13" font-weight="bold" lengthAdjust="spacing" textLength="64.4033" x="55" y="502.3638">Miembro</text><text fill="#000000" font-family="Arial" font-size="13" lengthAdjust="spacing" textLength="260.0825" x="123.5356" y="502.3638">introduce los cambios y solicita guardar</text></g><!--link Paso3 to *end*MainBlock--><g class="link" data-entity-1="Paso3" data-entity-2=".end.MainBlock" data-source-line="49" data-uid="lnk7" id="link_Paso3_.end.MainBlock"><path d="M44,583.3869 C44,605.7869 44,632.0669 44,648.2469" fill="none" id="Paso3-to-*end*MainBlock" style="stroke:#009900;stroke-width:1;"/><polygon fill="#009900" points="44,654.2469,48,645.2469,44,649.2469,40,645.2469,44,654.2469" style="stroke:#009900;stroke-width:1;"/><path d="M49,606.2969 L49,631.2969 L351,631.2969 L351,616.2969 L341,606.2969 L49,606.2969" fill="#FFFFE0" style="stroke:#B0B060;stroke-width:0.5;"/><path d="M341,606.2969 L341,616.2969 L351,616.2969 L341,606.2969" fill="#FFFFE0" style="stroke:#B0B060;stroke-width:0.5;"/><text fill="#000000" font-family="Arial" font-size="13" font-weight="bold" lengthAdjust="spacing" textLength="58.9063" x="55" y="623.3638">Sistema</text><text fill="#000000" font-family="Arial" font-size="13" lengthAdjust="spacing" textLength="218.0928" x="118.0386" y="623.3638">visualiza la invitaci&#243;n actualizada</text></g><g id="FinInvitacion"><rect fill="#FFFFFF" height="50" rx="12.5" ry="12.5" style="stroke:#000000;stroke-width:0.5;" width="170.2881" x="161.5" y="781"/><line style="stroke:#000000;stroke-width:0.5;" x1="161.5" x2="331.7881" y1="807.2969" y2="807.2969"/><text fill="#000000" font-family="sans-serif" font-size="14" lengthAdjust="spacing" textLength="150.2881" x="171.5" y="798.9951">INVITACION_ABIERTO</text></g><g id="FinLista"><rect fill="#FFFFFF" height="50" rx="12.5" ry="12.5" style="stroke:#000000;stroke-width:0.5;" width="188.0205" x="460.5" y="781"/><line style="stroke:#000000;stroke-width:0.5;" x1="460.5" x2="648.5205" y1="807.2969" y2="807.2969"/><text fill="#000000" font-family="sans-serif" font-size="14" lengthAdjust="spacing" textLength="168.0205" x="470.5" y="798.9951">INVITACIONES_ABIERTO</text></g><!--link EntradaLista to MainBlock--><g class="link" data-entity-1="EntradaLista" data-entity-2="MainBlock" data-source-line="62" data-uid="lnk8" id="link_EntradaLista_MainBlock"><path d="M175.52,57.15 C179.89,72.18 184.3562,87.5182 191.4562,111.9582" fill="none" id="EntradaLista-to-MainBlock" style="stroke:#009900;stroke-width:1;"/><polygon fill="#009900" points="193.13,117.72,194.4604,107.9614,191.7351,112.9185,186.778,110.1932,193.13,117.72" style="stroke:#009900;stroke-width:1;"/></g><!--link EntradaDetalle to MainBlock--><g class="link" data-entity-1="EntradaDetalle" data-entity-2="MainBlock" data-source-line="63" data-uid="lnk9" id="link_EntradaDetalle_MainBlock"><path d="M375.48,57.15 C371.11,72.18 366.6438,87.5182 359.5438,111.9582" fill="none" id="EntradaDetalle-to-MainBlock" style="stroke:#009900;stroke-width:1;"/><polygon fill="#009900" points="357.87,117.72,364.222,110.1932,359.2649,112.9185,356.5396,107.9614,357.87,117.72" style="stroke:#009900;stroke-width:1;"/></g><!--link MainBlock to FinInvitacion--><g class="link" data-entity-1="MainBlock" data-entity-2="FinInvitacion" data-source-line="66" data-uid="lnk10" id="link_MainBlock_FinInvitacion"><path d="M241.47,686.09 C240.73,696.18 240.06,706.17 239.5,716 C238.61,731.53 238.5,735.48 239.5,751 C240.13,760.81 240.5865,765.6168 241.8765,774.9268" fill="none" id="MainBlock-to-FinInvitacion" style="stroke:#009900;stroke-width:1;"/><polygon fill="#009900" points="242.7,780.87,245.4269,771.4062,242.0138,775.9173,237.5026,772.5042,242.7,780.87" style="stroke:#009900;stroke-width:1;"/></g><!--link MainBlock to FinInvitacion--><g class="link" data-entity-1="MainBlock" data-entity-2="FinInvitacion" data-source-line="69" data-uid="lnk11" id="link_MainBlock_FinInvitacion"><path d="M255.08,686.02 C252.26,725.15 250.2332,753.2857 248.6732,774.8357" fill="none" id="MainBlock-to-FinInvitacion-1" style="stroke:#FF0000;stroke-width:1;"/><polygon fill="#FF0000" points="248.24,780.82,252.8794,772.1323,248.601,775.833,244.9002,771.5547,248.24,780.82" style="stroke:#FF0000;stroke-width:1;"/><path d="M258.5,721 L258.5,746 L487.5,746 L487.5,731 L477.5,721 L258.5,721" fill="#FFFFE0" style="stroke:#B0B060;stroke-width:0.5;"/><path d="M477.5,721 L477.5,731 L487.5,731 L477.5,721" fill="#FFFFE0" style="stroke:#B0B060;stroke-width:0.5;"/><text fill="#000000" font-family="Arial" font-size="13" lengthAdjust="spacing" textLength="208.584" x="264.5" y="738.0669">cancelar edici&#243;n (desde detalle)</text></g><!--link MainBlock to FinLista--><g class="link" data-entity-1="MainBlock" data-entity-2="FinLista" data-source-line="74" data-uid="lnk12" id="link_MainBlock_FinLista"><path d="M480.67,686.38 C487.41,696.34 494.04,706.23 500.5,716 C514.76,737.56 526.9024,757.6257 537.5224,775.7157" fill="none" id="MainBlock-to-FinLista" style="stroke:#FF0000;stroke-width:1;"/><polygon fill="#FF0000" points="540.56,780.89,539.4531,771.1035,538.0287,776.5781,532.5541,775.1537,540.56,780.89" style="stroke:#FF0000;stroke-width:1;"/><path d="M526.5,721 L526.5,746 L738.5,746 L738.5,731 L728.5,721 L526.5,721" fill="#FFFFE0" style="stroke:#B0B060;stroke-width:0.5;"/><path d="M728.5,721 L728.5,731 L738.5,731 L728.5,721" fill="#FFFFE0" style="stroke:#B0B060;stroke-width:0.5;"/><text fill="#000000" font-family="Arial" font-size="13" lengthAdjust="spacing" textLength="191.1089" x="532.5" y="738.0669">cancelar edici&#243;n (desde lista)</text></g><!--SRC=[bLLBRjim4Dth58Da4Tk0KyS62cHJGB8LL8LhkvQJ5WY2OYmoCHE9D2WwQLCKw5cwwxf7o4rwaev8-QCuNouaUpXyy-RD3BK7NINFnSL2OoBk_agu5la2KqYKp4Lkk3JSow-4dAF6338bLJBJAkDmZcc-kPNFaAcRqcpK78o2gJ96PS24veaHIdgR_WODXnyUq0emkRhGQY5PLwLAm-UPeB1sHsd6jRC6ARbPgw-rkd76tLRhyB3LikROe3RtVSCbg3FztEGWrQCKTezeXQqj4hj1AsYzTVOZ9Sq0IGjV2qmBw3qus8SmdlYzOGoz4CB1PEptVAZvut4K-7NFPRqJ3KwYYT-DXeCm_ke7KJYU37S0Ss9hD3Bia_IuxVoGQuyRJ5DUn6xlGz0VVZeEOJIE1jrevFU9H1-wVZmis1p7moKcPuB4YkGrlHAgJArkCJ-Ya46gagjI5VieZu3r666k3XusjnysTpnhFssSGRFvRWF0ggyaf4AwKXMhqVWeU3RLgj60NAKY8OBWs88ewLARMdykcGLn0IpmAaJxgH1nqTaPKWZNxU8MWQ5HEJ0EAMu5AjQ_Nxyh9-TSPzIbv6kqOej4Q4Wmcme2uH9u2foKO8fAd_0viNypviaCRr7NduLSvgtXOe6QuGhv5ISJb0bFwGTfzvHYxPLYdPSLPPal2KMfBbF-lYvMoVcHU1qRZvhXjVMfbWKmCMw3OJMIdS9EPGfZln_P8Gpy3qDeGapNdQ032ioYA9DU49Z6elWZ6W1JVsRoZeHSJywp8qtURfo9LxFPX2vvVB5knT_2MavoqNqvSK2jnHIzpQl0YhOQJgyw-lSs2J0cPPZDv-xFDq4NSUs4qnLMXnbHHi0fNYflFUlDq_8MFIEWQd8hC3iQPLEv2jJ6wbBLuJtbx8ELjWgfEJkZBuBSmjmg-bQlGiqfmLo2TM_THq-4S2g_73qj_DVO_m40]--></g></svg>