<svg xmlns="http://www.w3.org/2000/svg" xmlns:xlink="http://www.w3.org/1999/xlink" contentStyleType="text/css" data-diagram-type="STATE" height="540px" preserveAspectRatio="none" style="width:366px;height:540px;background:#FFFFFF;" version="1.1" viewBox="0 0 366 540" width="366px" zoomAndPan="magnify"><defs/><g><g id="TAREA_ABIERTO"><rect fill="#FFFFFF" height="50" rx="12.5" ry="12.5" style="stroke:#000000;stroke-width:0.5;" width="134.7344" x="112.5" y="7"/><line style="stroke:#000000;stroke-width:0.5;" x1="112.5" x2="247.2344" y1="33.2969" y2="33.2969"/><text fill="#000000" font-family="sans-serif" font-size="14" lengthAdjust="spacing" textLength="114.7344" x="122.5" y="24.9951">TAREA_ABIERTO</text></g><path d="M19.5,117 L340.5,117 A12.5,12.5 0 0 1 353,129.5 L353,143.2969 L7,143.2969 L7,129.5 A12.5,12.5 0 0 1 19.5,117" fill="#FFFFFF"/><rect fill="none" height="417.2969" rx="12.5" ry="12.5" style="stroke:#000000;stroke-width:0.5;" width="346" x="7" y="117"/><line style="stroke:#000000;stroke-width:0.5;" x1="7" x2="353" y1="143.2969" y2="143.2969"/><text fill="#000000" font-family="sans-serif" font-size="14" lengthAdjust="spacing" textLength="92.2168" x="133.8916" y="134.9951">editarTarea()</text><ellipse cx="44" cy="164.2969" fill="#222222" rx="10" ry="10" style="stroke:#222222;stroke-width:1;"/><g id="editarTarea.Edicion"><rect fill="#FFFFFF" height="50" rx="12.5" ry="12.5" style="stroke:#000000;stroke-width:0.5;" width="50" x="19" y="245.2969"/><line style="stroke:#000000;stroke-width:0.5;" x1="19" x2="69" y1="271.5938" y2="271.5938"/><text fill="#000000" font-family="sans-serif" font-size="14" lengthAdjust="spacing" textLength="4.4502" x="41.7749" y="263.292">&#160;</text></g><g id="editarTarea.Guardado"><rect fill="#FFFFFF" height="50" rx="12.5" ry="12.5" style="stroke:#000000;stroke-width:0.5;" width="50" x="19" y="366.2969"/><line style="stroke:#000000;stroke-width:0.5;" x1="19" x2="69" y1="392.5938" y2="392.5938"/><text fill="#000000" font-family="sans-serif" font-size="14" lengthAdjust="spacing" textLength="4.4502" x="41.7749" y="384.292">&#160;</text></g><ellipse cx="44" cy="513.2969" fill="none" rx="11" ry="11" style="stroke:#222222;stroke-width:1;"/><ellipse cx="44" cy="513.2969" fill="#222222" rx="6" ry="6" style="stroke:#222222;stroke-width:1;"/><!--link Inicio to Edicion--><g class="link" data-entity-1="Inicio" data-entity-2="Edicion" data-source-line="19" data-uid="lnk2" id="link_Inicio_Edicion"><path d="M44,174.5269 C44,190.2369 44,216.6569 44,239.1669" fill="none" id="Inicio-to-Edicion" style="stroke:#008000;stroke-width:1;"/><polygon fill="#008000" points="44,245.1669,48,236.1669,44,240.1669,40,236.1669,44,245.1669" style="stroke:#008000;stroke-width:1;"/><path d="M49,197.2969 L49,222.2969 L344,222.2969 L344,207.2969 L334,197.2969 L49,197.2969" fill="#FEFECE" style="stroke:#D7B75F;stroke-width:0.5;"/><path d="M334,197.2969 L334,207.2969 L344,207.2969 L334,197.2969" fill="#FEFECE" style="stroke:#D7B75F;stroke-width:0.5;"/><text fill="#000000" font-family="sans-serif" font-size="13" font-weight="bold" lengthAdjust="spacing" textLength="56.1196" x="55" y="214.3638">Usuario</text><text fill="#000000" font-family="sans-serif" font-size="13" lengthAdjust="spacing" textLength="214.3857" x="115.252" y="214.3638">solicita introducir modificaciones</text></g><!--link Edicion to Guardado--><g class="link" data-entity-1="Edicion" data-entity-2="Guardado" data-source-line="24" data-uid="lnk3" id="link_Edicion_Guardado"><path d="M44,295.3769 C44,316.0269 44,339.6169 44,360.2469" fill="none" id="Edicion-to-Guardado" style="stroke:#008000;stroke-width:1;"/><polygon fill="#008000" points="44,366.2469,48,357.2469,44,361.2469,40,357.2469,44,366.2469" style="stroke:#008000;stroke-width:1;"/><path d="M49,318.2969 L49,343.2969 L291,343.2969 L291,328.2969 L281,318.2969 L49,318.2969" fill="#FEFECE" style="stroke:#D7B75F;stroke-width:0.5;"/><path d="M281,318.2969 L281,328.2969 L291,328.2969 L281,318.2969" fill="#FEFECE" style="stroke:#D7B75F;stroke-width:0.5;"/><text fill="#000000" font-family="sans-serif" font-size="13" font-weight="bold" lengthAdjust="spacing" textLength="58.9063" x="55" y="335.3638">Sistema</text><text fill="#000000" font-family="sans-serif" font-size="13" lengthAdjust="spacing" textLength="158.1138" x="118.0386" y="335.3638">permite introducir datos</text></g><!--link Guardado to Fin--><g class="link" data-entity-1="Guardado" data-entity-2="Fin" data-source-line="29" data-uid="lnk4" id="link_Guardado_Fin"><path d="M44,416.5769 C44,442.8769 44,477.5669 44,496.2769" fill="none" id="Guardado-to-Fin" style="stroke:#008000;stroke-width:1;"/><polygon fill="#008000" points="44,502.2769,48,493.2769,44,497.2769,40,493.2769,44,502.2769" style="stroke:#008000;stroke-width:1;"/><path d="M49,439.2969 L49,479.2969 L304,479.2969 L304,449.2969 L294,439.2969 L49,439.2969" fill="#FEFECE" style="stroke:#D7B75F;stroke-width:0.5;"/><path d="M294,439.2969 L294,449.2969 L304,449.2969 L294,439.2969" fill="#FEFECE" style="stroke:#D7B75F;stroke-width:0.5;"/><text fill="#000000" font-family="sans-serif" font-size="13" font-weight="bold" lengthAdjust="spacing" textLength="56.1196" x="55" y="456.3638">Usuario</text><text fill="#000000" font-family="sans-serif" font-size="13" lengthAdjust="spacing" textLength="102.0576" x="115.252" y="456.3638">introduce datos</text><text fill="#000000" font-family="sans-serif" font-size="13" font-weight="bold" lengthAdjust="spacing" textLength="58.9063" x="55" y="471.4966">Sistema</text><text fill="#000000" font-family="sans-serif" font-size="13" lengthAdjust="spacing" textLength="171.3677" x="118.0386" y="471.4966">muestra tarea actualizada</text></g><!--link TAREA_ABIERTO to editarTarea--><g class="link" data-entity-1="TAREA_ABIERTO" data-entity-2="editarTarea" data-source-line="36" data-uid="lnk5" id="link_TAREA_ABIERTO_editarTarea"><path d="M172.55,57.35 C170.61,72.4 169.434,87.3242 168.554,110.8842" fill="none" id="TAREA_ABIERTO-to-editarTarea" style="stroke:#008000;stroke-width:1;"/><polygon fill="#008000" points="168.33,116.88,172.6631,108.0356,168.5166,111.8835,164.6687,107.737,168.33,116.88" style="stroke:#008000;stroke-width:1;"/></g><!--link editarTarea to TAREA_ABIERTO--><g class="link" data-entity-1="editarTarea" data-entity-2="TAREA_ABIERTO" data-source-line="37" data-uid="lnk6" id="link_editarTarea_TAREA_ABIERTO"><path d="M192.36,116.88 C191.43,93.32 190.7498,78.3451 188.6998,63.2951" fill="none" id="editarTarea-to-TAREA_ABIERTO" style="stroke:#008000;stroke-width:1;"/><polygon fill="#008000" points="187.89,57.35,185.1413,66.8075,188.5648,62.3043,193.0681,65.7278,187.89,57.35" style="stroke:#008000;stroke-width:1;"/></g><!--SRC=[ZP91JuGm48Nl_8fckUXX8nUp7WW9h63sPB9YF9fPMdMoqDbCIqmq_dTBOHKMDx474jwRVc_QZjcZFW138um5gyHd8DpAeDg_ChLQhgac5azlQ5Nl44l5lPhLhiohAJEzzs8OHJTH50LVWVb1QpfB3ekyoDVvZ1tUhhBLTU4mGTzOcMxpz3dDDlcsl3-A2oNH0fV02Yuk5mAC62b3v50glBtHM269E7OgsoIPL-Iogz1puwu5bY1fxXIe7L5fEV3yPqXQBfC9qjy5QL6Zxk-kM_4kUJGEZnHVxH9Xg7ORB0ZKbacs5R9eIE8BLj21bF4xNQ37_MOEGJvqqkwvr0SqLZNWKm-A6_VCur09bawo_D-HxOFSwVzziYDRZT1_jDAqobW6OVqpGcLRgF4394nxSSCn6GlVpcW0Wl4mTDwa-Xi0]--></g></svg>