<svg xmlns="http://www.w3.org/2000/svg" xmlns:xlink="http://www.w3.org/1999/xlink" contentStyleType="text/css" data-diagram-type="STATE" height="756px" preserveAspectRatio="none" style="width:366px;height:756px;background:#FFFFFF;" version="1.1" viewBox="0 0 366 756" width="366px" zoomAndPan="magnify"><defs/><g><g id="TAREAS_ABIERTO"><rect fill="#FFFFFF" height="50" rx="12.5" ry="12.5" style="stroke:#000000;stroke-width:0.5;" width="143.6211" x="21" y="7"/><line style="stroke:#000000;stroke-width:0.5;" x1="21" x2="164.6211" y1="33.2969" y2="33.2969"/><text fill="#000000" font-family="sans-serif" font-size="14" lengthAdjust="spacing" textLength="123.6211" x="31" y="24.9951">TAREAS_ABIERTO</text></g><g id="TAREA_ABIERTO_IN"><rect fill="#FFFFFF" height="50" rx="12.5" ry="12.5" style="stroke:#000000;stroke-width:0.5;" width="134.7344" x="200.5" y="7"/><line style="stroke:#000000;stroke-width:0.5;" x1="200.5" x2="335.2344" y1="33.2969" y2="33.2969"/><text fill="#000000" font-family="sans-serif" font-size="14" lengthAdjust="spacing" textLength="114.7344" x="210.5" y="24.9951">TAREA_ABIERTO</text></g><path d="M19.5,117 L340.5,117 A12.5,12.5 0 0 1 353,129.5 L353,143.2969 L7,143.2969 L7,129.5 A12.5,12.5 0 0 1 19.5,117" fill="#FFFFFF"/><rect fill="none" height="523.2969" rx="12.5" ry="12.5" style="stroke:#000000;stroke-width:0.5;" width="346" x="7" y="117"/><line style="stroke:#000000;stroke-width:0.5;" x1="7" x2="353" y1="143.2969" y2="143.2969"/><text fill="#000000" font-family="sans-serif" font-size="14" lengthAdjust="spacing" textLength="92.2168" x="133.8916" y="134.9951">editarTarea()</text><ellipse cx="44" cy="164.2969" fill="#222222" rx="10" ry="10" style="stroke:#222222;stroke-width:1;"/><g id="editarTarea.Estado1"><rect fill="#FFFFFF" height="50" rx="12.5" ry="12.5" style="stroke:#000000;stroke-width:0.5;" width="50" x="19" y="245.2969"/><line style="stroke:#000000;stroke-width:0.5;" x1="19" x2="69" y1="271.5938" y2="271.5938"/><text fill="#000000" font-family="sans-serif" font-size="14" lengthAdjust="spacing" textLength="4.4502" x="41.7749" y="263.292">&#160;</text></g><g id="editarTarea.Estado2"><rect fill="#FFFFFF" height="50" rx="12.5" ry="12.5" style="stroke:#000000;stroke-width:0.5;" width="50" x="19" y="366.2969"/><line style="stroke:#000000;stroke-width:0.5;" x1="19" x2="69" y1="392.5938" y2="392.5938"/><text fill="#000000" font-family="sans-serif" font-size="14" lengthAdjust="spacing" textLength="4.4502" x="41.7749" y="384.292">&#160;</text></g><g id="editarTarea.Estado3"><rect fill="#FFFFFF" height="50" rx="12.5" ry="12.5" style="stroke:#000000;stroke-width:0.5;" width="50" x="19" y="487.2969"/><line style="stroke:#000000;stroke-width:0.5;" x1="19" x2="69" y1="513.5938" y2="513.5938"/><text fill="#000000" font-family="sans-serif" font-size="14" lengthAdjust="spacing" textLength="4.4502" x="41.7749" y="505.292">&#160;</text></g><ellipse cx="44" cy="619.2969" fill="none" rx="11" ry="11" style="stroke:#222222;stroke-width:1;"/><ellipse cx="44" cy="619.2969" fill="#222222" rx="6" ry="6" style="stroke:#222222;stroke-width:1;"/><!--link Inicio to Estado1--><g class="link" data-entity-1="Inicio" data-entity-2="Estado1" data-source-line="21" data-uid="lnk2" id="link_Inicio_Estado1"><path d="M44,174.5269 C44,190.2369 44,216.6569 44,239.1669" fill="none" id="Inicio-to-Estado1" style="stroke:#008000;stroke-width:1;"/><polygon fill="#008000" points="44,245.1669,48,236.1669,44,240.1669,40,236.1669,44,245.1669" style="stroke:#008000;stroke-width:1;"/><path d="M49,197.2969 L49,222.2969 L344,222.2969 L344,207.2969 L334,197.2969 L49,197.2969" fill="#FEFECE" style="stroke:#D7B75F;stroke-width:0.5;"/><path d="M334,197.2969 L334,207.2969 L344,207.2969 L334,197.2969" fill="#FEFECE" style="stroke:#D7B75F;stroke-width:0.5;"/><text fill="#000000" font-family="sans-serif" font-size="13" font-weight="bold" lengthAdjust="spacing" textLength="56.1196" x="55" y="214.3638">Usuario</text><text fill="#000000" font-family="sans-serif" font-size="13" lengthAdjust="spacing" textLength="214.3857" x="115.252" y="214.3638">solicita introducir modificaciones</text></g><!--link Estado1 to Estado2--><g class="link" data-entity-1="Estado1" data-entity-2="Estado2" data-source-line="26" data-uid="lnk3" id="link_Estado1_Estado2"><path d="M44,295.3769 C44,316.0269 44,339.6169 44,360.2469" fill="none" id="Estado1-to-Estado2" style="stroke:#008000;stroke-width:1;"/><polygon fill="#008000" points="44,366.2469,48,357.2469,44,361.2469,40,357.2469,44,366.2469" style="stroke:#008000;stroke-width:1;"/><path d="M49,318.2969 L49,343.2969 L291,343.2969 L291,328.2969 L281,318.2969 L49,318.2969" fill="#FEFECE" style="stroke:#D7B75F;stroke-width:0.5;"/><path d="M281,318.2969 L281,328.2969 L291,328.2969 L281,318.2969" fill="#FEFECE" style="stroke:#D7B75F;stroke-width:0.5;"/><text fill="#000000" font-family="sans-serif" font-size="13" font-weight="bold" lengthAdjust="spacing" textLength="58.9063" x="55" y="335.3638">Sistema</text><text fill="#000000" font-family="sans-serif" font-size="13" lengthAdjust="spacing" textLength="158.1138" x="118.0386" y="335.3638">permite introducir datos</text></g><!--link Estado2 to Estado3--><g class="link" data-entity-1="Estado2" data-entity-2="Estado3" data-source-line="31" data-uid="lnk4" id="link_Estado2_Estado3"><path d="M44,416.3769 C44,437.0269 44,460.6169 44,481.2469" fill="none" id="Estado2-to-Estado3" style="stroke:#008000;stroke-width:1;"/><polygon fill="#008000" points="44,487.2469,48,478.2469,44,482.2469,40,478.2469,44,487.2469" style="stroke:#008000;stroke-width:1;"/><path d="M49,439.2969 L49,464.2969 L232,464.2969 L232,449.2969 L222,439.2969 L49,439.2969" fill="#FEFECE" style="stroke:#D7B75F;stroke-width:0.5;"/><path d="M222,439.2969 L222,449.2969 L232,449.2969 L222,439.2969" fill="#FEFECE" style="stroke:#D7B75F;stroke-width:0.5;"/><text fill="#000000" font-family="sans-serif" font-size="13" font-weight="bold" lengthAdjust="spacing" textLength="56.1196" x="55" y="456.3638">Usuario</text><text fill="#000000" font-family="sans-serif" font-size="13" lengthAdjust="spacing" textLength="102.0576" x="115.252" y="456.3638">introduce datos</text></g><!--link Estado3 to Fin--><g class="link" data-entity-1="Estado3" data-entity-2="Fin" data-source-line="36" data-uid="lnk5" id="link_Estado3_Fin"><path d="M44,537.3869 C44,559.7869 44,586.0669 44,602.2469" fill="none" id="Estado3-to-Fin" style="stroke:#008000;stroke-width:1;"/><polygon fill="#008000" points="44,608.2469,48,599.2469,44,603.2469,40,599.2469,44,608.2469" style="stroke:#008000;stroke-width:1;"/><path d="M49,560.2969 L49,585.2969 L304,585.2969 L304,570.2969 L294,560.2969 L49,560.2969" fill="#FEFECE" style="stroke:#D7B75F;stroke-width:0.5;"/><path d="M294,560.2969 L294,570.2969 L304,570.2969 L294,560.2969" fill="#FEFECE" style="stroke:#D7B75F;stroke-width:0.5;"/><text fill="#000000" font-family="sans-serif" font-size="13" font-weight="bold" lengthAdjust="spacing" textLength="58.9063" x="55" y="577.3638">Sistema</text><text fill="#000000" font-family="sans-serif" font-size="13" lengthAdjust="spacing" textLength="171.3677" x="118.0386" y="577.3638">muestra tarea actualizada</text></g><g id="TAREA_ABIERTO_OUT"><rect fill="#FFFFFF" height="50" rx="12.5" ry="12.5" style="stroke:#000000;stroke-width:0.5;" width="134.7344" x="112.5" y="700"/><line style="stroke:#000000;stroke-width:0.5;" x1="112.5" x2="247.2344" y1="726.2969" y2="726.2969"/><text fill="#000000" font-family="sans-serif" font-size="14" lengthAdjust="spacing" textLength="114.7344" x="122.5" y="717.9951">TAREA_ABIERTO</text></g><!--link TAREAS_ABIERTO to editarTarea--><g class="link" data-entity-1="TAREAS_ABIERTO" data-entity-2="editarTarea" data-source-line="44" data-uid="lnk6" id="link_TAREAS_ABIERTO_editarTarea"><path d="M99.12,57.22 C102.87,72.08 106.631,86.9826 112.651,110.8226" fill="none" id="TAREAS_ABIERTO-to-editarTarea" style="stroke:#008000;stroke-width:1;"/><polygon fill="#008000" points="114.12,116.64,115.7948,106.9346,112.8958,111.7922,108.0383,108.8932,114.12,116.64" style="stroke:#008000;stroke-width:1;"/></g><!--link TAREA_ABIERTO_IN to editarTarea--><g class="link" data-entity-1="TAREA_ABIERTO_IN" data-entity-2="editarTarea" data-source-line="45" data-uid="lnk7" id="link_TAREA_ABIERTO_IN_editarTarea"><path d="M261.81,57.22 C258.02,72.08 254.2027,86.9861 248.1227,110.8261" fill="none" id="TAREA_ABIERTO_IN-to-editarTarea" style="stroke:#008000;stroke-width:1;"/><polygon fill="#008000" points="246.64,116.64,252.74,108.9076,247.8756,111.7951,244.9882,106.9307,246.64,116.64" style="stroke:#008000;stroke-width:1;"/></g><!--link editarTarea to TAREA_ABIERTO_OUT--><g class="link" data-entity-1="editarTarea" data-entity-2="TAREA_ABIERTO_OUT" data-source-line="46" data-uid="lnk8" id="link_editarTarea_TAREA_ABIERTO_OUT"><path d="M180,640.17 C180,664.11 180,678.93 180,693.83" fill="none" id="editarTarea-to-TAREA_ABIERTO_OUT" style="stroke:#008000;stroke-width:1;"/><polygon fill="#008000" points="180,699.83,184,690.83,180,694.83,176,690.83,180,699.83" style="stroke:#008000;stroke-width:1;"/></g><!--SRC=[ZPB1Qy8m5CRl-Ik2NhR3MASCToY5rhNWPO9MTfHdast1Df6NbC76_lV5jBhKuZI7Gh_tylrU7f_U2ha3X8fg0uRJRqBjIQ3OlgEg9PkgKY5z_H26DnM5Z6EZ9gLjSsgCg3uRSHW4Jq4Ga1-YZzPIdNKUPccMJjEUz_1vaamUCsj3ci7oU976otMSpD95Fc_5WLCFue22fXrbFNivt1zm9WnW3iZXvjQrUaexNTjANNacHI4K3KEheecYVaTg_vXwE5SOdIkC-uLCI4lYahKSzsadkBkBEYYtJYLfAMIp_lq9Dz5Aru12XVURY6fLshi6g9065QiBWRHIJBo90godvDhTj41dzyTiGHvqz2zqARJX5JZeZcDbW-8p6HXrWl8m8mypllfj1tj-mNtitErchtv0LNDj4AXncO32r52ABs3GPHn3UJ5_yrLEI3UwRYWlUkGqiRq6FwVxMW_n2m00]--></g></svg>