<svg xmlns="http://www.w3.org/2000/svg" xmlns:xlink="http://www.w3.org/1999/xlink" contentStyleType="text/css" data-diagram-type="STATE" height="982px" preserveAspectRatio="none" style="width:1293px;height:982px;background:#FFFFFF;" version="1.1" viewBox="0 0 1293 982" width="1293px" zoomAndPan="magnify"><defs/><g><!--cluster EditarTareaContainer--><g class="cluster" data-entity="EditarTareaContainer" data-source-line="25" data-uid="ent0004" id="cluster_EditarTareaContainer"><path d="M189.5,112 L937.5,112 A12.5,12.5 0 0 1 950,124.5 L950,133.2969 L177,133.2969 L177,124.5 A12.5,12.5 0 0 1 189.5,112" fill="#FFFFFF"/><rect fill="none" height="864" rx="12.5" ry="12.5" style="stroke:#000000;stroke-width:0.5;" width="773" x="177" y="112"/><line style="stroke:#000000;stroke-width:0.5;" x1="177" x2="950" y1="133.2969" y2="133.2969"/><text fill="#000000" font-family="sans-serif" font-size="14" lengthAdjust="spacing" textLength="92.2168" x="517.3916" y="128.9951">editarTarea()</text></g><g id="EditarTareaContainer.PasoRecepcion"><rect fill="#FFFFFF" height="50" rx="12.5" ry="12.5" style="stroke:#000000;stroke-width:0.5;" width="50" x="342" y="270"/><line style="stroke:#000000;stroke-width:0.5;" x1="342" x2="392" y1="296.2969" y2="296.2969"/><text fill="#000000" font-family="sans-serif" font-size="14" lengthAdjust="spacing" textLength="4.4502" x="364.7749" y="287.9951">&#160;</text></g><g id="EditarTareaContainer.PasoVisualizacion"><rect fill="#FFFFFF" height="50" rx="12.5" ry="12.5" style="stroke:#000000;stroke-width:0.5;" width="50" x="342" y="521"/><line style="stroke:#000000;stroke-width:0.5;" x1="342" x2="392" y1="547.2969" y2="547.2969"/><text fill="#000000" font-family="sans-serif" font-size="14" lengthAdjust="spacing" textLength="8.9004" x="362.5498" y="538.9951">&#160;&#160;</text></g><g id="EditarTareaContainer.PasoMenuOpciones"><rect fill="#FFFFFF" height="50" rx="12.5" ry="12.5" style="stroke:#000000;stroke-width:0.5;" width="50" x="551" y="681"/><line style="stroke:#000000;stroke-width:0.5;" x1="551" x2="601" y1="707.2969" y2="707.2969"/><text fill="#000000" font-family="sans-serif" font-size="14" lengthAdjust="spacing" textLength="13.3506" x="569.3247" y="698.9951">&#160;&#160;&#160;</text></g><g id="EditarTareaContainer.PasoPreValidacion"><rect fill="#FFFFFF" height="50" rx="12.5" ry="12.5" style="stroke:#000000;stroke-width:0.5;" width="50" x="817" y="521"/><line style="stroke:#000000;stroke-width:0.5;" x1="817" x2="867" y1="547.2969" y2="547.2969"/><text fill="#000000" font-family="sans-serif" font-size="14" lengthAdjust="spacing" textLength="17.8008" x="833.0996" y="538.9951">&#160;&#160;&#160;&#160;</text></g><g id="EditarTareaContainer.PasoValidacion"><rect fill="#FFFFFF" height="50" rx="12.5" ry="12.5" style="stroke:#000000;stroke-width:0.5;" width="50" x="277" y="681"/><line style="stroke:#000000;stroke-width:0.5;" x1="277" x2="327" y1="707.2969" y2="707.2969"/><text fill="#000000" font-family="sans-serif" font-size="14" lengthAdjust="spacing" textLength="22.251" x="290.8745" y="698.9951">&#160;&#160;&#160;&#160;&#160;</text></g><ellipse cx="367" cy="165" fill="#222222" rx="10" ry="10" style="stroke:#222222;stroke-width:1;"/><ellipse cx="496" cy="941" fill="none" rx="11" ry="11" style="stroke:#222222;stroke-width:1;"/><ellipse cx="496" cy="941" fill="#222222" rx="6" ry="6" style="stroke:#222222;stroke-width:1;"/><g id="TAREAS_ABIERTO"><rect fill="#FFFFFF" height="50" rx="12.5" ry="12.5" style="stroke:#000000;stroke-width:0.5;" width="143.6211" x="113" y="7"/><line style="stroke:#000000;stroke-width:0.5;" x1="113" x2="256.6211" y1="33.2969" y2="33.2969"/><text fill="#000000" font-family="sans-serif" font-size="14" lengthAdjust="spacing" textLength="123.6211" x="123" y="24.9951">TAREAS_ABIERTO</text></g><g id="TareaInicio"><rect fill="#FFFFFF" height="50" rx="12.5" ry="12.5" style="stroke:#000000;stroke-width:0.5;" width="134.7344" x="943.5" y="7"/><line style="stroke:#000000;stroke-width:0.5;" x1="943.5" x2="1078.2344" y1="33.2969" y2="33.2969"/><text fill="#000000" font-family="sans-serif" font-size="14" lengthAdjust="spacing" textLength="114.7344" x="953.5" y="24.9951">TAREA_ABIERTO</text></g><g id="TareaFin"><rect fill="#FFFFFF" height="50" rx="12.5" ry="12.5" style="stroke:#000000;stroke-width:0.5;" width="134.7344" x="17.5" y="916"/><line style="stroke:#000000;stroke-width:0.5;" x1="17.5" x2="152.2344" y1="942.2969" y2="942.2969"/><text fill="#000000" font-family="sans-serif" font-size="14" lengthAdjust="spacing" textLength="114.7344" x="27.5" y="933.9951">TAREA_ABIERTO</text></g><g id="EstadoMetodos"><rect fill="#FFFFFF" height="50" rx="12.5" ry="12.5" style="stroke:#000000;stroke-width:0.5;" width="50" x="974" y="916"/><line style="stroke:#000000;stroke-width:0.5;" x1="974" x2="1024" y1="942.2969" y2="942.2969"/><text fill="#000000" font-family="sans-serif" font-size="14" lengthAdjust="spacing" textLength="26.7012" x="985.6494" y="933.9951">&#160;&#160;&#160;&#160;&#160;&#160;</text></g><!--link *start*EditarTareaContainer to PasoRecepcion--><g class="link" data-entity-1=".start.EditarTareaContainer" data-entity-2="PasoRecepcion" data-source-line="35" data-uid="lnk3" id="link_.start.EditarTareaContainer_PasoRecepcion"><path d="M367,175.21 C367,194.81 367,235.23 367,263.89" fill="none" id="*start*EditarTareaContainer-to-PasoRecepcion" style="stroke:#009900;stroke-width:1;"/><polygon fill="#009900" points="367,269.89,371,260.89,367,264.89,363,260.89,367,269.89" style="stroke:#009900;stroke-width:1;"/><path d="M372,210 L372,235 L628,235 L628,220 L618,210 L372,210" fill="#FFFFE0" style="stroke:#B0B060;stroke-width:0.5;"/><path d="M618,210 L618,220 L628,220 L618,210" fill="#FFFFE0" style="stroke:#B0B060;stroke-width:0.5;"/><text fill="#000000" font-family="Arial" font-size="13" font-weight="bold" lengthAdjust="spacing" textLength="104.8633" x="378" y="227.0669">Administrador</text><text fill="#000000" font-family="Arial" font-size="13" lengthAdjust="spacing" textLength="126.6802" x="486.9956" y="227.0669">solicita editar tarea</text></g><!--link PasoRecepcion to PasoVisualizacion--><g class="link" data-entity-1="PasoRecepcion" data-entity-2="PasoVisualizacion" data-source-line="38" data-uid="lnk4" id="link_PasoRecepcion_PasoVisualizacion"><path d="M367,320.33 C367,368.05 367,467.43 367,514.94" fill="none" id="PasoRecepcion-to-PasoVisualizacion" style="stroke:#009900;stroke-width:1;"/><polygon fill="#009900" points="367,520.94,371,511.94,367,515.94,363,511.94,367,520.94" style="stroke:#009900;stroke-width:1;"/><path d="M372,355 L372,486 L617,486 L617,365 L607,355 L372,355" fill="#FFFFE0" style="stroke:#B0B060;stroke-width:0.5;"/><path d="M607,355 L607,365 L617,365 L607,355" fill="#FFFFE0" style="stroke:#B0B060;stroke-width:0.5;"/><text fill="#000000" font-family="Arial" font-size="13" font-weight="bold" lengthAdjust="spacing" textLength="58.9063" x="378" y="372.0669">Sistema</text><text fill="#000000" font-family="Arial" font-size="13" lengthAdjust="spacing" textLength="161.1543" x="441.0386" y="372.0669">presenta datos actuales:</text><ellipse cx="383.5" cy="382.7656" fill="#000000" rx="2.5" ry="2.5"/><text fill="#000000" font-family="Arial" font-size="13" lengthAdjust="spacing" textLength="142.2256" x="390" y="387.1997">Nombre y descripci&#243;n</text><ellipse cx="383.5" cy="397.8984" fill="#000000" rx="2.5" ry="2.5"/><text fill="#000000" font-family="Arial" font-size="13" lengthAdjust="spacing" textLength="126.0962" x="390" y="402.3325">Usuarios asignados</text><ellipse cx="383.5" cy="413.0313" fill="#000000" rx="2.5" ry="2.5"/><text fill="#000000" font-family="Arial" font-size="13" lengthAdjust="spacing" textLength="90.4287" x="390" y="417.4653">Recordatorios</text><ellipse cx="383.5" cy="428.1641" fill="#000000" rx="2.5" ry="2.5"/><text fill="#000000" font-family="Arial" font-size="13" lengthAdjust="spacing" textLength="79.2759" x="390" y="432.5981">Localizaci&#243;n</text><ellipse cx="383.5" cy="443.2969" fill="#000000" rx="2.5" ry="2.5"/><text fill="#000000" font-family="Arial" font-size="13" lengthAdjust="spacing" textLength="47.9502" x="390" y="447.731">Horario</text><ellipse cx="383.5" cy="458.4297" fill="#000000" rx="2.5" ry="2.5"/><text fill="#000000" font-family="Arial" font-size="13" lengthAdjust="spacing" textLength="118.8535" x="390" y="462.8638">Estado de la tarea</text><ellipse cx="383.5" cy="473.5625" fill="#000000" rx="2.5" ry="2.5"/><text fill="#000000" font-family="Arial" font-size="13" lengthAdjust="spacing" textLength="135.9922" x="390" y="477.9966">Relaciones de tareas</text></g><!--link PasoVisualizacion to PasoMenuOpciones--><g class="link" data-entity-1="PasoVisualizacion" data-entity-2="PasoMenuOpciones" data-source-line="50" data-uid="lnk5" id="link_PasoVisualizacion_PasoMenuOpciones"><path d="M392.26,559.92 C409.92,569.71 433.39,584.3 451,601 C470.87,619.85 466.89,632.41 487,651 C506.11,668.66 526.5357,680.8127 545.4257,690.4527" fill="none" id="PasoVisualizacion-to-PasoMenuOpciones" style="stroke:#009900;stroke-width:1;"/><polygon fill="#009900" points="550.77,693.18,544.5717,685.5261,546.3164,690.9072,540.9353,692.6519,550.77,693.18" style="stroke:#009900;stroke-width:1;"/><path d="M492,613.5 L492,638.5 L736,638.5 L736,623.5 L726,613.5 L492,613.5" fill="#FFFFE0" style="stroke:#B0B060;stroke-width:0.5;"/><path d="M726,613.5 L726,623.5 L736,623.5 L726,613.5" fill="#FFFFE0" style="stroke:#B0B060;stroke-width:0.5;"/><text fill="#000000" font-family="Arial" font-size="13" font-weight="bold" lengthAdjust="spacing" textLength="104.8633" x="498" y="630.5669">Administrador</text><text fill="#000000" font-family="Arial" font-size="13" lengthAdjust="spacing" textLength="114.645" x="606.9956" y="630.5669">selecciona acci&#243;n</text></g><!--link PasoPreValidacion to PasoValidacion--><g class="link" data-entity-1="PasoPreValidacion" data-entity-2="PasoValidacion" data-source-line="57" data-uid="lnk6" id="link_PasoPreValidacion_PasoValidacion"><path d="M816.8,567.12 C805.33,576.81 791.91,588.94 781,601 C762.64,621.31 768.57,637.06 745,651 C726.83,661.75 424.3301,692.7516 333.1501,701.8916" fill="none" id="PasoPreValidacion-to-PasoValidacion" style="stroke:#008000;stroke-width:1;"/><polygon fill="#008000" points="327.18,702.49,336.5341,705.5724,332.1551,701.9913,335.7362,697.6123,327.18,702.49" style="stroke:#008000;stroke-width:1;"/><path d="M786,613.5 L786,638.5 L918,638.5 L918,623.5 L908,613.5 L786,613.5" fill="#FFFFE0" style="stroke:#B0B060;stroke-width:0.5;"/><path d="M908,613.5 L908,623.5 L918,623.5 L908,613.5" fill="#FFFFE0" style="stroke:#B0B060;stroke-width:0.5;"/><text fill="#000000" font-family="Arial" font-size="13" lengthAdjust="spacing" textLength="111.8584" x="792" y="630.5669">validarConflicto()</text></g><!--reverse link PasoVisualizacion to PasoValidacion--><g class="link" data-entity-1="PasoVisualizacion" data-entity-2="PasoValidacion" data-source-line="62" data-uid="lnk8" id="link_PasoVisualizacion_PasoValidacion"><path d="M336.0321,550.5971 C306.1721,555.2671 263.4,567.02 241,601 C228.77,619.55 231.88,630.74 241,651 C248.38,667.38 263.45,680.8 276.76,690.16" fill="none" id="PasoVisualizacion-backto-PasoValidacion" style="stroke:#FF0000;stroke-width:1;"/><polygon fill="#FF0000" points="341.96,549.67,332.45,547.1087,337.0201,550.4426,333.6862,555.0126,341.96,549.67" style="stroke:#FF0000;stroke-width:1;"/><path d="M246,606 L246,646 L442,646 L442,616 L432,606 L246,606" fill="#FFFFE0" style="stroke:#B0B060;stroke-width:0.5;"/><path d="M432,606 L432,616 L442,616 L432,606" fill="#FFFFE0" style="stroke:#B0B060;stroke-width:0.5;"/><text fill="#000000" font-family="Arial" font-size="13" font-weight="bold" lengthAdjust="spacing" textLength="58.9063" x="252" y="623.0669">Sistema</text><text fill="#000000" font-family="Arial" font-size="13" lengthAdjust="spacing" textLength="109.0273" x="315.0386" y="623.0669">detecta conflicto</text><text fill="#000000" font-family="Arial" font-size="13" lengthAdjust="spacing" textLength="175.3857" x="252" y="638.1997">Muestra campos afectados</text></g><!--link PasoValidacion to *end*EditarTareaContainer--><g class="link" data-entity-1="PasoValidacion" data-entity-2=".end.EditarTareaContainer" data-source-line="68" data-uid="lnk10" id="link_PasoValidacion_.end.EditarTareaContainer"><path d="M307.77,731.13 C317.83,768.58 341.85,841.07 386,886 C415.22,915.74 458.3894,930.0289 479.7294,935.8189" fill="none" id="PasoValidacion-to-*end*EditarTareaContainer" style="stroke:#008000;stroke-width:1;"/><polygon fill="#008000" points="485.52,937.39,477.8815,931.1729,480.6945,936.0807,475.7866,938.8937,485.52,937.39" style="stroke:#008000;stroke-width:1;"/><path d="M391,803.5 L391,843.5 L614,843.5 L614,813.5 L604,803.5 L391,803.5" fill="#FFFFE0" style="stroke:#B0B060;stroke-width:0.5;"/><path d="M604,803.5 L604,813.5 L614,813.5 L604,803.5" fill="#FFFFE0" style="stroke:#B0B060;stroke-width:0.5;"/><text fill="#000000" font-family="Arial" font-size="13" font-weight="bold" lengthAdjust="spacing" textLength="58.9063" x="397" y="820.5669">Sistema</text><text fill="#000000" font-family="Arial" font-size="13" lengthAdjust="spacing" textLength="139.731" x="460.0386" y="820.5669">confirma sin conflicto</text><text fill="#000000" font-family="Arial" font-size="13" lengthAdjust="spacing" textLength="106.3423" x="397" y="835.6997">Guarda cambios</text></g><!--link EstadoMetodos to *end*EditarTareaContainer--><g class="link" data-entity-1="EstadoMetodos" data-entity-2=".end.EditarTareaContainer" data-source-line="74" data-uid="lnk11" id="link_EstadoMetodos_.end.EditarTareaContainer"><path d="M973.94,941 C882.83,941 577.21,941 513.45,941" fill="none" id="EstadoMetodos-to-*end*EditarTareaContainer" style="stroke:#FF0000;stroke-width:1;"/><polygon fill="#FF0000" points="507.45,941,516.45,945,512.45,941,516.45,937,507.45,941" style="stroke:#FF0000;stroke-width:1;"/><path d="M597.5,908 L597.5,933 L883.5,933 L883.5,918 L873.5,908 L597.5,908" fill="#FFFFE0" style="stroke:#B0B060;stroke-width:0.5;"/><path d="M873.5,908 L873.5,918 L883.5,918 L873.5,908" fill="#FFFFE0" style="stroke:#B0B060;stroke-width:0.5;"/><text fill="#000000" font-family="Arial" font-size="13" font-weight="bold" lengthAdjust="spacing" textLength="104.8633" x="603.5" y="925.0669">Administrador</text><text fill="#000000" font-family="Arial" font-size="13" lengthAdjust="spacing" textLength="156.2729" x="712.4956" y="925.0669">solicita cancelar edici&#243;n</text></g><!--link TAREAS_ABIERTO to EditarTareaContainer--><g class="link" data-entity-1="TAREAS_ABIERTO" data-entity-2="EditarTareaContainer" data-source-line="87" data-uid="lnk12" id="link_TAREAS_ABIERTO_EditarTareaContainer"><path d="M185,57.03 C185,66.3375 185,77.5425 185,89.1473 C185,94.9498 185,100.8521 185,106.6673 C185,108.1211 185,109.5694 185,111.0094 C185,111.1893 185,105.3692 185,105.5489" fill="none" id="TAREAS_ABIERTO-to-EditarTareaContainer" style="stroke:#009900;stroke-width:1;"/><polygon fill="#009900" points="185,111.5489,189,102.5489,185,106.5489,181,102.5489,185,111.5489" style="stroke:#009900;stroke-width:1;"/></g><!--link TareaInicio to EditarTareaContainer--><g class="link" data-entity-1="TareaInicio" data-entity-2="EditarTareaContainer" data-source-line="88" data-uid="lnk13" id="link_TareaInicio_EditarTareaContainer"><path d="M943.19,35.89 C751.86,44.36 219.93,70.13 193,96 C190.3425,98.5525 188.2113,101.4839 186.5178,104.665 C185.671,106.2556 184.9337,107.9086 184.2948,109.6078 C184.1351,110.0326 183.9815,110.4603 183.8339,110.8907 C183.7601,111.1059 183.6878,111.3217 183.617,111.5382 C183.5816,111.6464 185.3728,106.0395 185.3381,106.148" fill="none" id="TareaInicio-to-EditarTareaContainer" style="stroke:#009900;stroke-width:1;"/><polygon fill="#009900" points="183.5118,111.8633,190.0615,104.5079,185.0337,107.1006,182.4411,102.0728,183.5118,111.8633" style="stroke:#009900;stroke-width:1;"/></g><!--link PasoMenuOpciones to EstadoMetodos--><g class="link" data-entity-1="PasoMenuOpciones" data-entity-2="EstadoMetodos" data-source-line="91" data-uid="lnk14" id="link_PasoMenuOpciones_EstadoMetodos"><path d="M599.05,731.01 C607.13,740.03 615.93,750.62 623,761 C658.25,812.76 636.48,850.42 688,886 C734.77,918.3 887.05,901.5 942,916 C952.8,918.85 958.7467,920.9042 968.5167,925.2442" fill="none" id="PasoMenuOpciones-to-EstadoMetodos" style="stroke:#009900;stroke-width:1;"/><polygon fill="#009900" points="974,927.68,967.3989,920.3708,969.4306,925.6502,964.1511,927.6819,974,927.68" style="stroke:#009900;stroke-width:1;"/><path d="M693,766 L693,881 L918,881 L918,776 L908,766 L693,766" fill="#FFFFE0" style="stroke:#B0B060;stroke-width:0.5;"/><path d="M908,766 L908,776 L918,776 L908,766" fill="#FFFFE0" style="stroke:#B0B060;stroke-width:0.5;"/><ellipse cx="704.5" cy="778.6328" fill="#000000" rx="2.5" ry="2.5"/><text fill="#000000" font-family="Arial" font-size="13" lengthAdjust="spacing" textLength="192.9751" x="711" y="783.0669">Modificar nombre/descripci&#243;n</text><ellipse cx="704.5" cy="793.7656" fill="#000000" rx="2.5" ry="2.5"/><text fill="#000000" font-family="Arial" font-size="13" lengthAdjust="spacing" textLength="153.8101" x="711" y="798.1997">asignarTareaAUsuario()</text><ellipse cx="704.5" cy="808.8984" fill="#000000" rx="2.5" ry="2.5"/><text fill="#000000" font-family="Arial" font-size="13" lengthAdjust="spacing" textLength="126.2803" x="711" y="813.3325">establecerHorario()</text><ellipse cx="704.5" cy="824.0313" fill="#000000" rx="2.5" ry="2.5"/><text fill="#000000" font-family="Arial" font-size="13" lengthAdjust="spacing" textLength="131.0537" x="711" y="828.4653">definirLocalizacion()</text><ellipse cx="704.5" cy="839.1641" fill="#000000" rx="2.5" ry="2.5"/><text fill="#000000" font-family="Arial" font-size="13" lengthAdjust="spacing" textLength="160.4751" x="711" y="843.5981">configurarRecordatorio()</text><ellipse cx="704.5" cy="854.2969" fill="#000000" rx="2.5" ry="2.5"/><text fill="#000000" font-family="Arial" font-size="13" lengthAdjust="spacing" textLength="119.3169" x="711" y="858.731">relacionarTareas()</text><ellipse cx="704.5" cy="869.4297" fill="#000000" rx="2.5" ry="2.5"/><text fill="#000000" font-family="Arial" font-size="13" lengthAdjust="spacing" textLength="135.4146" x="711" y="873.8638">marcarCompletada()</text></g><!--reverse link PasoPreValidacion to EstadoMetodos--><g class="link" data-entity-1="PasoPreValidacion" data-entity-2="EstadoMetodos" data-source-line="108" data-uid="lnk16" id="link_PasoPreValidacion_EstadoMetodos"><path d="M872.606,559.0023 C891.966,567.6723 912.34,579.89 927,601 C962.95,652.76 988.28,846.84 996.3,915.63" fill="none" id="PasoPreValidacion-backto-EstadoMetodos" style="stroke:#008000;stroke-width:1;"/><polygon fill="#008000" points="867.13,556.55,873.7091,563.8791,871.6933,558.5936,876.9788,556.5778,867.13,556.55" style="stroke:#008000;stroke-width:1;"/><path d="M972,693.5 L972,718.5 L1246,718.5 L1246,703.5 L1236,693.5 L972,693.5" fill="#FFFFE0" style="stroke:#B0B060;stroke-width:0.5;"/><path d="M1236,693.5 L1236,703.5 L1246,703.5 L1236,693.5" fill="#FFFFE0" style="stroke:#B0B060;stroke-width:0.5;"/><text fill="#000000" font-family="Arial" font-size="13" font-weight="bold" lengthAdjust="spacing" textLength="104.8633" x="978" y="710.5669">Administrador</text><text fill="#000000" font-family="Arial" font-size="13" lengthAdjust="spacing" textLength="144.5361" x="1086.9956" y="710.5669">solicita guardar y salir</text></g><!--reverse link TareaInicio to EstadoMetodos--><g class="link" data-entity-1="TareaInicio" data-entity-2="EstadoMetodos" data-source-line="114" data-uid="lnk18" id="link_TareaInicio_EstadoMetodos"><path d="M1084.5892,37.097 C1166.0192,45.377 1286,72.38 1286,164 C1286,164 1286,164 1286,707 C1286,841.3 1094.25,911.72 1024.22,932.96" fill="none" id="TareaInicio-backto-EstadoMetodos" style="stroke:#009900;stroke-width:1;"/><polygon fill="#009900" points="1078.62,36.49,1087.1692,41.3799,1083.5944,36.9958,1087.9785,33.421,1078.62,36.49" style="stroke:#009900;stroke-width:1;"/></g><!--link EditarTareaContainer to TareaFin--><g class="link" data-entity-1="EditarTareaContainer" data-entity-2="TareaFin" data-source-line="117" data-uid="lnk19" id="link_EditarTareaContainer_TareaFin"><path d="M176.9293,203.4269 C176.8949,203.6098 176.8604,203.7931 176.826,203.9769 C176.757,204.3445 176.688,204.714 176.6189,205.0852 C176.3426,206.5703 176.0655,208.0844 175.7888,209.625 C171.36,234.275 167,265.725 167,294 C167,294 167,294 167,707 C167,787.19 126.2275,869.3409 102.6375,910.6109" fill="none" id="EditarTareaContainer-to-TareaFin" style="stroke:#008000;stroke-width:1;"/><polygon fill="#008000" points="99.66,915.82,107.599,909.9914,102.1413,911.4791,100.6536,906.0214,99.66,915.82" style="stroke:#008000;stroke-width:1;"/></g><!--link EditarTareaContainer to TareaFin--><g class="link" data-entity-1="EditarTareaContainer" data-entity-2="TareaFin" data-source-line="118" data-uid="lnk20" id="link_EditarTareaContainer_TareaFin"><path d="M176.5915,167.6368 C176.2781,167.7026 175.9569,167.7705 175.628,167.8404 C170.3666,168.9598 163.1466,170.6149 154.635,172.8755 C137.6119,177.3966 115.4225,184.3394 93.4025,194.2613 C49.3625,214.105 6,245.865 6,294 C6,294 6,294 6,707 C6,786.87 45.2608,869.1214 67.9908,910.4914" fill="none" id="EditarTareaContainer-to-TareaFin-1" style="stroke:#FF0000;stroke-width:1;"/><polygon fill="#FF0000" points="70.88,915.75,70.0519,905.936,68.4723,911.3679,63.0405,909.7883,70.88,915.75" style="stroke:#FF0000;stroke-width:1;"/><text fill="#000000" font-family="sans-serif" font-size="13" lengthAdjust="spacing" textLength="106.3677" x="7" y="550.5669">cancelar edici&#243;n</text></g><!--link PasoValidacion to TareaFin--><!--link TareaFin to EstadoMetodos--><!--SRC=[ZLRDRjj64BxhAGRnmP80gsgRfeWF1LOIRJEGA8EKt1I1KQp8bRGsjIilIQTfqGVeES-HKs-zwiKw-qEAj2GaD20OixFp_tspvt1nSG73QN3bNyz3ClHtdmEuywCv6UkJLlR8nPOgke6D539UAxbXiAHfncf7sPecygCJvt8BkOI5p7EvWOGh5kTSYbPTFwSvWxzQWD-0neyh9GkH36Kg5VowvZcp9r8bJ5df84Kr8oLAoOzMUDRllttRxnjnb5ELlzJrIgDMz7Sz1Y5FXd1sXP_NFmZYRD0VzDzO-PKKUK2n5aHncchJvwQIt_V02sOX6P48sYGC_G7fs4AQd6Saz4ZqEnduNZYREk4h8os5hu1cCAEAKL_mcClIyWyztQQP5tYZQGYteHyC_TkoIzOEIpYMmTnjTumTRoyPOiIK2wPSrkRd73oycyWCkCYP4Z8pOcSF_zo7fcvf9aCMissikrdNgjISrXtF2fhoF-cXPgdgD2TC55DZa6Kl59scKxnLx0vD9iTCEjNI-LxDPNYL5W-op0_xhZROC7tqeNkFrVlbI6PcEAI0b8l7I-XsIRBXWcUvmbAfRXSocM9hSWgsuf3h0k-hsZ1OkJWiIzrDgonrjnkX9xQXw6UhMCQmRP3G77j4unmjiEnohmo1t2mKWq-Gi2nM75tk_XMrypawLLnVplXAw5RN3Z58d6-qhJLgyh6CNQHDOpTIQMCrYHqVT0ufhPMXD9zIsrojO4wj5oOIatopP8q2LMKxc96lDeUbBDRw50kspy1DWuRIUFVvsXyI67bmHyR-oD5UsyksJ561-IpHn9hggB7yQ9XQ45iJWSpf9TmmU2guoHvJTnUU2WRFJEo-eE-dOlT5TqKRIM63qlzwpW9POo7r54b0UkGBLZDXRomBZ4H7f1rCM2wnSPrUiruDKC35XxELOapS8nMBSkIQc3awRyz61obEB76eSzdkD5fKUTotgU5JiUI-s7xJY4FhSC8JbkD-e12NxftEf62wen3JpLOFxr9hbSDxOdoEr0BZGfH_6zXq21p90J8k3k81k4OS9IQW1JyPHwDVPNbSGxuIo4cEYQc84KXAayr-d2lVrUhv4LTFD2EZQGJU-vaN1bEzWWRatRI-WKujcoikMdLE1Ri_wlcKZbwRJUIzz_4dWj-01CCnUOV_QY-eurd8PAtcjZE8FhQGMhLjTre93KUcmq1J6Eb2yKN1iLRGdcXiWRvesSZxmt1zf_MIFwprHau7tUZ2H2PyoMEik33a-jq1jNOTczeOYUDOXvmkuEZI1QAPAKUOrKd2bjXajUTNAQepCt-h0Y_KQRawLevCdTEiEjXG5MlyRhOfmynmzRUguN0T-wa7-2O98dzeUpRo8kG-R-m61dnyLuGJR-HFRG_rlK4FekaORym8NCz9E28XzZf2lWoXFPQ6whOuaWYV3ghV5InzPa0jOUAm2irfCNr05flVTe1k2-oavbQg3shSfOjwW1iBtufOcll_i6UdqRCoi5Mu83Cqe1gb6VOWz6PJH8fU1PFTFxEfHa_x1jtWc2cSCDevZCq-EsrmHnvgRtgcIle5UEK7PEo0SVGfzfAqAoYUqgxnIQaBbqSeeWpcPqCAuNmumzUzpjA15PaXcFau1mHFlKu9NO8bPROdkCTKZYX8zJWhhacwNMkPXXiwjnXhKE-Q9ycHZ3H-cNvxs-ifKer2urfYPgbPvanlLvOmEotu13UxyHFG1NsGhIhroflYgtN-4jp_0m00]--></g></svg>