<svg xmlns="http://www.w3.org/2000/svg" xmlns:xlink="http://www.w3.org/1999/xlink" contentStyleType="text/css" data-diagram-type="STATE" height="1236px" preserveAspectRatio="none" style="width:1995px;height:1236px;background:#FFFFFF;" version="1.1" viewBox="0 0 1995 1236" width="1995px" zoomAndPan="magnify"><defs/><g><g id="TAREAS_ABIERTO"><rect fill="#FFFFFF" height="50" rx="12.5" ry="12.5" style="stroke:#000000;stroke-width:0.5;" width="143.6211" x="835.5" y="7"/><line style="stroke:#000000;stroke-width:0.5;" x1="835.5" x2="979.1211" y1="33.2969" y2="33.2969"/><text fill="#000000" font-family="sans-serif" font-size="14" lengthAdjust="spacing" textLength="123.6211" x="845.5" y="24.9951">TAREAS_ABIERTO</text></g><g id="TareaInicio"><rect fill="#FFFFFF" height="50" rx="12.5" ry="12.5" style="stroke:#000000;stroke-width:0.5;" width="134.7344" x="1015" y="7"/><line style="stroke:#000000;stroke-width:0.5;" x1="1015" x2="1149.7344" y1="33.2969" y2="33.2969"/><text fill="#000000" font-family="sans-serif" font-size="14" lengthAdjust="spacing" textLength="114.7344" x="1025" y="24.9951">TAREA_ABIERTO</text></g><path d="M19.5,118 L1969.18,118 A12.5,12.5 0 0 1 1981.68,130.5 L1981.68,144.2969 L7,144.2969 L7,130.5 A12.5,12.5 0 0 1 19.5,118" fill="#FFFFFF"/><rect fill="none" height="967.2969" rx="12.5" ry="12.5" style="stroke:#000000;stroke-width:0.5;" width="1974.68" x="7" y="118"/><line style="stroke:#000000;stroke-width:0.5;" x1="7" x2="1981.68" y1="144.2969" y2="144.2969"/><text fill="#000000" font-family="sans-serif" font-size="14" lengthAdjust="spacing" textLength="92.2168" x="948.2316" y="135.9951">editarTarea()</text><g id="EditarTareaContainer.PasoVisualizacion"><rect fill="#FFFFFF" height="50" rx="12.5" ry="12.5" style="stroke:#000000;stroke-width:0.5;" width="50" x="1400.68" y="286.7969"/><line style="stroke:#000000;stroke-width:0.5;" x1="1400.68" x2="1450.68" y1="313.0938" y2="313.0938"/><text fill="#000000" font-family="sans-serif" font-size="14" lengthAdjust="spacing" textLength="4.4502" x="1423.4549" y="304.792">&#160;</text></g><g id="EditarTareaContainer.PasoMenuOpciones"><rect fill="#FFFFFF" height="50" rx="12.5" ry="12.5" style="stroke:#000000;stroke-width:0.5;" width="50" x="667.68" y="554.2969"/><line style="stroke:#000000;stroke-width:0.5;" x1="667.68" x2="717.68" y1="580.5938" y2="580.5938"/><text fill="#000000" font-family="sans-serif" font-size="14" lengthAdjust="spacing" textLength="4.4502" x="690.4549" y="572.292">&#160;</text></g><g id="EditarTareaContainer.PasoDecisionFinal"><rect fill="#FFFFFF" height="50" rx="12.5" ry="12.5" style="stroke:#000000;stroke-width:0.5;" width="50" x="754.68" y="675.2969"/><line style="stroke:#000000;stroke-width:0.5;" x1="754.68" x2="804.68" y1="701.5938" y2="701.5938"/><text fill="#000000" font-family="sans-serif" font-size="14" lengthAdjust="spacing" textLength="4.4502" x="777.4549" y="693.292">&#160;</text></g><g id="EditarTareaContainer.PasoPreValidacion"><rect fill="#FFFFFF" height="50" rx="12.5" ry="12.5" style="stroke:#000000;stroke-width:0.5;" width="50" x="1002.68" y="796.2969"/><line style="stroke:#000000;stroke-width:0.5;" x1="1002.68" x2="1052.68" y1="822.5938" y2="822.5938"/><text fill="#000000" font-family="sans-serif" font-size="14" lengthAdjust="spacing" textLength="4.4502" x="1025.4549" y="814.292">&#160;</text></g><g id="EditarTareaContainer.PasoValidacion"><rect fill="#FFFFFF" height="50" rx="12.5" ry="12.5" style="stroke:#000000;stroke-width:0.5;" width="50" x="1073.68" y="917.2969"/><line style="stroke:#000000;stroke-width:0.5;" x1="1073.68" x2="1123.68" y1="943.5938" y2="943.5938"/><text fill="#000000" font-family="sans-serif" font-size="14" lengthAdjust="spacing" textLength="4.4502" x="1096.4549" y="935.292">&#160;</text></g><ellipse cx="1425.68" cy="165.2969" fill="#222222" rx="10" ry="10" style="stroke:#222222;stroke-width:1;"/><ellipse cx="795.68" cy="1064.2969" fill="none" rx="11" ry="11" style="stroke:#222222;stroke-width:1;"/><ellipse cx="795.68" cy="1064.2969" fill="#222222" rx="6" ry="6" style="stroke:#222222;stroke-width:1;"/><g class="entity" data-entity="GMN2" data-source-line="44" data-uid="ent0003" id="entity_GMN2"><path d="M1137.18,246.2969 L1137.18,377.3594 A0,0 0 0 0 1137.18,377.3594 L1382.3729,377.3594 A0,0 0 0 0 1382.3729,377.3594 L1382.3729,315.7969 L1400.57,311.7969 L1382.3729,307.7969 L1382.3729,256.2969 L1372.3729,246.2969 L1137.18,246.2969 A0,0 0 0 0 1137.18,246.2969" fill="#FFFFE0" style="stroke:#B0B060;stroke-width:0.5;"/><path d="M1372.3729,246.2969 L1372.3729,256.2969 L1382.3729,256.2969 L1372.3729,246.2969" fill="#FFFFE0" style="stroke:#B0B060;stroke-width:0.5;"/><text fill="#000000" font-family="Arial" font-size="13" font-weight="bold" lengthAdjust="spacing" textLength="58.9063" x="1143.18" y="263.3638">Sistema</text><text fill="#000000" font-family="Arial" font-size="13" lengthAdjust="spacing" textLength="161.1543" x="1206.2186" y="263.3638">presenta datos actuales:</text><ellipse cx="1148.68" cy="274.0625" fill="#000000" rx="2.5" ry="2.5"/><text fill="#000000" font-family="Arial" font-size="13" lengthAdjust="spacing" textLength="142.2256" x="1155.18" y="278.4966">Nombre y descripci&#243;n</text><ellipse cx="1148.68" cy="289.1953" fill="#000000" rx="2.5" ry="2.5"/><text fill="#000000" font-family="Arial" font-size="13" lengthAdjust="spacing" textLength="126.0962" x="1155.18" y="293.6294">Usuarios asignados</text><ellipse cx="1148.68" cy="304.3281" fill="#000000" rx="2.5" ry="2.5"/><text fill="#000000" font-family="Arial" font-size="13" lengthAdjust="spacing" textLength="90.4287" x="1155.18" y="308.7622">Recordatorios</text><ellipse cx="1148.68" cy="319.4609" fill="#000000" rx="2.5" ry="2.5"/><text fill="#000000" font-family="Arial" font-size="13" lengthAdjust="spacing" textLength="79.2759" x="1155.18" y="323.895">Localizaci&#243;n</text><ellipse cx="1148.68" cy="334.5938" fill="#000000" rx="2.5" ry="2.5"/><text fill="#000000" font-family="Arial" font-size="13" lengthAdjust="spacing" textLength="47.9502" x="1155.18" y="339.0278">Horario</text><ellipse cx="1148.68" cy="349.7266" fill="#000000" rx="2.5" ry="2.5"/><text fill="#000000" font-family="Arial" font-size="13" lengthAdjust="spacing" textLength="118.8535" x="1155.18" y="354.1606">Estado de la tarea</text><ellipse cx="1148.68" cy="364.8594" fill="#000000" rx="2.5" ry="2.5"/><text fill="#000000" font-family="Arial" font-size="13" lengthAdjust="spacing" textLength="135.9922" x="1155.18" y="369.2935">Relaciones de tareas</text></g><!--link *start*EditarTareaContainer to PasoVisualizacion--><g class="link" data-entity-1=".start.EditarTareaContainer" data-entity-2="PasoVisualizacion" data-source-line="37" data-uid="lnk3" id="link_.start.EditarTareaContainer_PasoVisualizacion"><path d="M1425.68,175.3369 C1425.68,197.2669 1425.68,247.9069 1425.68,280.5869" fill="none" id="*start*EditarTareaContainer-to-PasoVisualizacion" style="stroke:#009900;stroke-width:1;"/><polygon fill="#009900" points="1425.68,286.5869,1429.68,277.5869,1425.68,281.5869,1421.68,277.5869,1425.68,286.5869" style="stroke:#009900;stroke-width:1;"/><path d="M1430.68,198.2969 L1430.68,223.2969 L1686.68,223.2969 L1686.68,208.2969 L1676.68,198.2969 L1430.68,198.2969" fill="#FFFFE0" style="stroke:#B0B060;stroke-width:0.5;"/><path d="M1676.68,198.2969 L1676.68,208.2969 L1686.68,208.2969 L1676.68,198.2969" fill="#FFFFE0" style="stroke:#B0B060;stroke-width:0.5;"/><text fill="#000000" font-family="Arial" font-size="13" font-weight="bold" lengthAdjust="spacing" textLength="104.8633" x="1436.68" y="215.3638">Administrador</text><text fill="#000000" font-family="Arial" font-size="13" lengthAdjust="spacing" textLength="126.6802" x="1545.6756" y="215.3638">solicita editar tarea</text></g><!--link PasoVisualizacion to PasoMenuOpciones--><g class="link" data-entity-1="PasoVisualizacion" data-entity-2="PasoMenuOpciones" data-source-line="55" data-uid="lnk4" id="link_PasoVisualizacion_PasoMenuOpciones"><path d="M1418.93,337.0869 C1413.65,351.2669 1404.78,368.1269 1390.68,377.2969 C1348.45,404.7569 1213.8,384.0769 1164.68,395.2969 C986.68,435.9769 792.1095,528.4695 723.0595,562.8995" fill="none" id="PasoVisualizacion-to-PasoMenuOpciones" style="stroke:#009900;stroke-width:1;"/><polygon fill="#009900" points="717.69,565.5769,727.5292,565.1405,722.1646,563.3457,723.9594,557.9811,717.69,565.5769" style="stroke:#009900;stroke-width:1;"/><path d="M1169.68,400.2969 L1169.68,531.2969 L1406.68,531.2969 L1406.68,410.2969 L1396.68,400.2969 L1169.68,400.2969" fill="#FFFFE0" style="stroke:#B0B060;stroke-width:0.5;"/><path d="M1396.68,400.2969 L1396.68,410.2969 L1406.68,410.2969 L1396.68,400.2969" fill="#FFFFE0" style="stroke:#B0B060;stroke-width:0.5;"/><text fill="#000000" font-family="Arial" font-size="13" font-weight="bold" lengthAdjust="spacing" textLength="104.8633" x="1175.68" y="417.3638">Administrador</text><text fill="#000000" font-family="Arial" font-size="13" lengthAdjust="spacing" textLength="50.1528" x="1284.6756" y="417.3638">solicita:</text><ellipse cx="1181.18" cy="428.0625" fill="#000000" rx="2.5" ry="2.5"/><text fill="#000000" font-family="Arial" font-size="13" lengthAdjust="spacing" textLength="204.5532" x="1187.68" y="432.4966">Modificar nombre y descripci&#243;n</text><ellipse cx="1181.18" cy="443.1953" fill="#000000" rx="2.5" ry="2.5"/><text fill="#000000" font-family="Arial" font-size="13" lengthAdjust="spacing" textLength="151.9438" x="1187.68" y="447.6294">Asignar tarea a usuario</text><ellipse cx="1181.18" cy="458.3281" fill="#000000" rx="2.5" ry="2.5"/><text fill="#000000" font-family="Arial" font-size="13" lengthAdjust="spacing" textLength="118.9487" x="1187.68" y="462.7622">Establecer horario</text><ellipse cx="1181.18" cy="473.4609" fill="#000000" rx="2.5" ry="2.5"/><text fill="#000000" font-family="Arial" font-size="13" lengthAdjust="spacing" textLength="123.1699" x="1187.68" y="477.895">Definir localizaci&#243;n</text><ellipse cx="1181.18" cy="488.5938" fill="#000000" rx="2.5" ry="2.5"/><text fill="#000000" font-family="Arial" font-size="13" lengthAdjust="spacing" textLength="152.7056" x="1187.68" y="493.0278">Configurar recordatorio</text><ellipse cx="1181.18" cy="503.7266" fill="#000000" rx="2.5" ry="2.5"/><text fill="#000000" font-family="Arial" font-size="13" lengthAdjust="spacing" textLength="114.1499" x="1187.68" y="508.1606">Relacionar tareas</text><ellipse cx="1181.18" cy="518.8594" fill="#000000" rx="2.5" ry="2.5"/><text fill="#000000" font-family="Arial" font-size="13" lengthAdjust="spacing" textLength="126.0264" x="1187.68" y="523.2935">Marcar completada</text></g><!--link PasoMenuOpciones to PasoDecisionFinal--><g class="link" data-entity-1="PasoMenuOpciones" data-entity-2="PasoDecisionFinal" data-source-line="68" data-uid="lnk5" id="link_PasoMenuOpciones_PasoDecisionFinal"><path d="M717.92,580.5169 C776.22,581.6269 917.48,587.8669 946.68,622.2969 C988.3,671.3569 866.9049,690.2384 810.7949,696.3384" fill="none" id="PasoMenuOpciones-to-PasoDecisionFinal" style="stroke:#009900;stroke-width:1;"/><polygon fill="#009900" points="804.83,696.9869,814.2096,699.9907,809.8007,696.4465,813.345,692.0376,804.83,696.9869" style="stroke:#009900;stroke-width:1;"/><path d="M960.68,627.2969 L960.68,652.2969 L1185.68,652.2969 L1185.68,637.2969 L1175.68,627.2969 L960.68,627.2969" fill="#FFFFE0" style="stroke:#B0B060;stroke-width:0.5;"/><path d="M1175.68,627.2969 L1175.68,637.2969 L1185.68,637.2969 L1175.68,627.2969" fill="#FFFFE0" style="stroke:#B0B060;stroke-width:0.5;"/><text fill="#000000" font-family="Arial" font-size="13" lengthAdjust="spacing" textLength="204.5532" x="966.68" y="644.3638">Modificar nombre y descripci&#243;n</text></g><!--link PasoMenuOpciones to PasoDecisionFinal--><g class="link" data-entity-1="PasoMenuOpciones" data-entity-2="PasoDecisionFinal" data-source-line="73" data-uid="lnk6" id="link_PasoMenuOpciones_PasoDecisionFinal"><path d="M717.74,580.4569 C814.78,581.3269 1162.12,586.8969 1194.68,622.2969 C1205.21,633.7469 1205.11,645.7569 1194.68,657.2969 C1168.43,686.3369 896.3977,696.1196 810.6877,698.5096" fill="none" id="PasoMenuOpciones-to-PasoDecisionFinal-1" style="stroke:#009900;stroke-width:1;"/><polygon fill="#009900" points="804.69,698.6769,813.798,702.4245,809.6881,698.5375,813.575,694.4276,804.69,698.6769" style="stroke:#009900;stroke-width:1;"/><path d="M1207.68,627.2969 L1207.68,652.2969 L1381.68,652.2969 L1381.68,637.2969 L1371.68,627.2969 L1207.68,627.2969" fill="#FFFFE0" style="stroke:#B0B060;stroke-width:0.5;"/><path d="M1371.68,627.2969 L1371.68,637.2969 L1381.68,637.2969 L1371.68,627.2969" fill="#FFFFE0" style="stroke:#B0B060;stroke-width:0.5;"/><text fill="#000000" font-family="Arial" font-size="13" lengthAdjust="spacing" textLength="153.8101" x="1213.68" y="644.3638">asignarTareaAUsuario()</text></g><!--link PasoMenuOpciones to PasoDecisionFinal--><g class="link" data-entity-1="PasoMenuOpciones" data-entity-2="PasoDecisionFinal" data-source-line="78" data-uid="lnk7" id="link_PasoMenuOpciones_PasoDecisionFinal"><path d="M667.6,580.9369 C549.2,584.0569 50.97,598.5569 28.68,622.2969 C18.04,633.6369 18,645.9969 28.68,657.2969 C54.17,684.2469 620.2011,696.3345 748.3611,698.7345" fill="none" id="PasoMenuOpciones-to-PasoDecisionFinal-2" style="stroke:#009900;stroke-width:1;"/><polygon fill="#009900" points="754.36,698.8469,745.4365,694.6791,749.3609,698.7533,745.2867,702.6777,754.36,698.8469" style="stroke:#009900;stroke-width:1;"/><path d="M33.68,627.2969 L33.68,652.2969 L180.68,652.2969 L180.68,637.2969 L170.68,627.2969 L33.68,627.2969" fill="#FFFFE0" style="stroke:#B0B060;stroke-width:0.5;"/><path d="M170.68,627.2969 L170.68,637.2969 L180.68,637.2969 L170.68,627.2969" fill="#FFFFE0" style="stroke:#B0B060;stroke-width:0.5;"/><text fill="#000000" font-family="Arial" font-size="13" lengthAdjust="spacing" textLength="126.2803" x="39.68" y="644.3638">establecerHorario()</text></g><!--link PasoMenuOpciones to PasoDecisionFinal--><g class="link" data-entity-1="PasoMenuOpciones" data-entity-2="PasoDecisionFinal" data-source-line="83" data-uid="lnk8" id="link_PasoMenuOpciones_PasoDecisionFinal"><path d="M667.56,580.5369 C572.67,581.7069 239.93,588.2269 208.68,622.2969 C198.17,633.7669 198.09,645.8969 208.68,657.2969 C246.28,697.7569 642.96,699.6288 748.49,699.4188" fill="none" id="PasoMenuOpciones-to-PasoDecisionFinal-3" style="stroke:#009900;stroke-width:1;"/><polygon fill="#009900" points="754.49,699.4069,745.4821,695.4248,749.49,699.4168,745.498,703.4248,754.49,699.4069" style="stroke:#009900;stroke-width:1;"/><path d="M213.68,627.2969 L213.68,652.2969 L365.68,652.2969 L365.68,637.2969 L355.68,627.2969 L213.68,627.2969" fill="#FFFFE0" style="stroke:#B0B060;stroke-width:0.5;"/><path d="M355.68,627.2969 L355.68,637.2969 L365.68,637.2969 L355.68,627.2969" fill="#FFFFE0" style="stroke:#B0B060;stroke-width:0.5;"/><text fill="#000000" font-family="Arial" font-size="13" lengthAdjust="spacing" textLength="131.0537" x="219.68" y="644.3638">definirLocalizacion()</text></g><!--link PasoMenuOpciones to PasoDecisionFinal--><g class="link" data-entity-1="PasoMenuOpciones" data-entity-2="PasoDecisionFinal" data-source-line="88" data-uid="lnk9" id="link_PasoMenuOpciones_PasoDecisionFinal"><path d="M667.45,579.8169 C601.97,579.1769 429.19,581.4469 393.68,622.2969 C383.48,634.0369 383.3,645.7169 393.68,657.2969 C417.82,684.2069 666.5039,695.2903 748.4439,698.2503" fill="none" id="PasoMenuOpciones-to-PasoDecisionFinal-4" style="stroke:#009900;stroke-width:1;"/><polygon fill="#009900" points="754.44,698.4669,745.5903,694.1446,749.4433,698.2864,745.3015,702.1394,754.44,698.4669" style="stroke:#009900;stroke-width:1;"/><path d="M398.68,627.2969 L398.68,652.2969 L579.68,652.2969 L579.68,637.2969 L569.68,627.2969 L398.68,627.2969" fill="#FFFFE0" style="stroke:#B0B060;stroke-width:0.5;"/><path d="M569.68,627.2969 L569.68,637.2969 L579.68,637.2969 L569.68,627.2969" fill="#FFFFE0" style="stroke:#B0B060;stroke-width:0.5;"/><text fill="#000000" font-family="Arial" font-size="13" lengthAdjust="spacing" textLength="160.4751" x="404.68" y="644.3638">configurarRecordatorio()</text></g><!--link PasoMenuOpciones to PasoDecisionFinal--><g class="link" data-entity-1="PasoMenuOpciones" data-entity-2="PasoDecisionFinal" data-source-line="93" data-uid="lnk10" id="link_PasoMenuOpciones_PasoDecisionFinal"><path d="M667.33,585.2569 C647.3,590.6569 620.63,601.4669 607.68,622.2969 C599.47,635.5069 598.08,645.0669 607.68,657.2969 C625.67,680.2069 705.3051,691.559 748.5751,696.259" fill="none" id="PasoMenuOpciones-to-PasoDecisionFinal-5" style="stroke:#009900;stroke-width:1;"/><polygon fill="#009900" points="754.54,696.9069,746.0246,691.9584,749.5692,696.3669,745.1607,699.9116,754.54,696.9069" style="stroke:#009900;stroke-width:1;"/><path d="M612.68,627.2969 L612.68,652.2969 L752.68,652.2969 L752.68,637.2969 L742.68,627.2969 L612.68,627.2969" fill="#FFFFE0" style="stroke:#B0B060;stroke-width:0.5;"/><path d="M742.68,627.2969 L742.68,637.2969 L752.68,637.2969 L742.68,627.2969" fill="#FFFFE0" style="stroke:#B0B060;stroke-width:0.5;"/><text fill="#000000" font-family="Arial" font-size="13" lengthAdjust="spacing" textLength="119.3169" x="618.68" y="644.3638">relacionarTareas()</text></g><!--link PasoMenuOpciones to PasoDecisionFinal--><g class="link" data-entity-1="PasoMenuOpciones" data-entity-2="PasoDecisionFinal" data-source-line="98" data-uid="lnk11" id="link_PasoMenuOpciones_PasoDecisionFinal"><path d="M717.83,591.0969 C731.45,598.1469 747.52,608.5869 757.68,622.2969 C769.11,637.7169 773.6473,652.9646 776.2873,669.2046" fill="none" id="PasoMenuOpciones-to-PasoDecisionFinal-6" style="stroke:#009900;stroke-width:1;"/><polygon fill="#009900" points="777.25,675.1269,779.7541,665.6017,776.4477,670.1917,771.8577,666.8853,777.25,675.1269" style="stroke:#009900;stroke-width:1;"/><path d="M778.68,627.2969 L778.68,652.2969 L934.68,652.2969 L934.68,637.2969 L924.68,627.2969 L778.68,627.2969" fill="#FFFFE0" style="stroke:#B0B060;stroke-width:0.5;"/><path d="M924.68,627.2969 L924.68,637.2969 L934.68,637.2969 L924.68,627.2969" fill="#FFFFE0" style="stroke:#B0B060;stroke-width:0.5;"/><text fill="#000000" font-family="Arial" font-size="13" lengthAdjust="spacing" textLength="135.4146" x="784.68" y="644.3638">marcarCompletada()</text></g><!--reverse link PasoVisualizacion to PasoDecisionFinal--><g class="link" data-entity-1="PasoVisualizacion" data-entity-2="PasoDecisionFinal" data-source-line="104" data-uid="lnk13" id="link_PasoVisualizacion_PasoDecisionFinal"><path d="M1427.493,342.7882 C1431.323,413.8382 1437.84,614.7769 1390.68,657.2969 C1346.61,697.0369 914.74,699.4069 804.96,699.3669" fill="none" id="PasoVisualizacion-backto-PasoDecisionFinal" style="stroke:#008000;stroke-width:1;"/><polygon fill="#008000" points="1427.17,336.7969,1423.6602,345.9991,1427.4391,341.7896,1431.6486,345.5685,1427.17,336.7969" style="stroke:#008000;stroke-width:1;"/><path d="M1429.68,566.7969 L1429.68,591.7969 L1737.68,591.7969 L1737.68,576.7969 L1727.68,566.7969 L1429.68,566.7969" fill="#FFFFE0" style="stroke:#B0B060;stroke-width:0.5;"/><path d="M1727.68,566.7969 L1727.68,576.7969 L1737.68,576.7969 L1727.68,566.7969" fill="#FFFFE0" style="stroke:#B0B060;stroke-width:0.5;"/><text fill="#000000" font-family="Arial" font-size="13" font-weight="bold" lengthAdjust="spacing" textLength="104.8633" x="1435.68" y="583.8638">Administrador</text><text fill="#000000" font-family="Arial" font-size="13" lengthAdjust="spacing" textLength="178.9468" x="1544.6756" y="583.8638">solicita m&#225;s modificaciones</text></g><!--link PasoDecisionFinal to PasoPreValidacion--><g class="link" data-entity-1="PasoDecisionFinal" data-entity-2="PasoPreValidacion" data-source-line="112" data-uid="lnk14" id="link_PasoDecisionFinal_PasoPreValidacion"><path d="M804.83,713.3669 C852.36,736.1669 949.4805,782.7713 997.0605,805.6013" fill="none" id="PasoDecisionFinal-to-PasoPreValidacion" style="stroke:#008000;stroke-width:1;"/><polygon fill="#008000" points="1002.47,808.1969,996.0861,800.6971,997.9621,806.0339,992.6253,807.9098,1002.47,808.1969" style="stroke:#008000;stroke-width:1;"/><path d="M938.68,748.2969 L938.68,773.2969 L1212.68,773.2969 L1212.68,758.2969 L1202.68,748.2969 L938.68,748.2969" fill="#FFFFE0" style="stroke:#B0B060;stroke-width:0.5;"/><path d="M1202.68,748.2969 L1202.68,758.2969 L1212.68,758.2969 L1202.68,748.2969" fill="#FFFFE0" style="stroke:#B0B060;stroke-width:0.5;"/><text fill="#000000" font-family="Arial" font-size="13" font-weight="bold" lengthAdjust="spacing" textLength="104.8633" x="944.68" y="765.3638">Administrador</text><text fill="#000000" font-family="Arial" font-size="13" lengthAdjust="spacing" textLength="144.5361" x="1053.6756" y="765.3638">solicita guardar y salir</text></g><!--link PasoPreValidacion to PasoValidacion--><g class="link" data-entity-1="PasoPreValidacion" data-entity-2="PasoValidacion" data-source-line="118" data-uid="lnk15" id="link_PasoPreValidacion_PasoValidacion"><path d="M1052.85,839.1669 C1061.48,846.0569 1070.51,854.6769 1076.68,864.2969 C1086.97,880.3269 1091.4443,895.3578 1094.4143,911.3478" fill="none" id="PasoPreValidacion-to-PasoValidacion" style="stroke:#008000;stroke-width:1;"/><polygon fill="#008000" points="1095.51,917.2469,1097.7992,907.6677,1094.5969,912.331,1089.9337,909.1287,1095.51,917.2469" style="stroke:#008000;stroke-width:1;"/><path d="M1096.68,869.2969 L1096.68,894.2969 L1228.68,894.2969 L1228.68,879.2969 L1218.68,869.2969 L1096.68,869.2969" fill="#FFFFE0" style="stroke:#B0B060;stroke-width:0.5;"/><path d="M1218.68,869.2969 L1218.68,879.2969 L1228.68,879.2969 L1218.68,869.2969" fill="#FFFFE0" style="stroke:#B0B060;stroke-width:0.5;"/><text fill="#000000" font-family="Arial" font-size="13" lengthAdjust="spacing" textLength="111.8584" x="1102.68" y="886.3638">validarConflicto()</text></g><!--reverse link PasoVisualizacion to PasoValidacion--><g class="link" data-entity-1="PasoVisualizacion" data-entity-2="PasoValidacion" data-source-line="124" data-uid="lnk17" id="link_PasoVisualizacion_PasoValidacion"><path d="M1456.6534,320.4002 C1536.2734,341.3002 1771.68,416.4569 1771.68,578.2969 C1771.68,578.2969 1771.68,578.2969 1771.68,822.2969 C1771.68,889.4069 1246.01,930.8469 1123.84,939.5669" fill="none" id="PasoVisualizacion-backto-PasoValidacion" style="stroke:#FF0000;stroke-width:1;"/><polygon fill="#FF0000" points="1450.85,318.8769,1458.5395,325.0309,1455.6862,320.1464,1460.5707,317.293,1450.85,318.8769" style="stroke:#FF0000;stroke-width:1;"/><path d="M1776.68,680.2969 L1776.68,720.2969 L1972.68,720.2969 L1972.68,690.2969 L1962.68,680.2969 L1776.68,680.2969" fill="#FFFFE0" style="stroke:#B0B060;stroke-width:0.5;"/><path d="M1962.68,680.2969 L1962.68,690.2969 L1972.68,690.2969 L1962.68,680.2969" fill="#FFFFE0" style="stroke:#B0B060;stroke-width:0.5;"/><text fill="#000000" font-family="Arial" font-size="13" font-weight="bold" lengthAdjust="spacing" textLength="58.9063" x="1782.68" y="697.3638">Sistema</text><text fill="#000000" font-family="Arial" font-size="13" lengthAdjust="spacing" textLength="109.0273" x="1845.7186" y="697.3638">detecta conflicto</text><text fill="#000000" font-family="Arial" font-size="13" lengthAdjust="spacing" textLength="175.3857" x="1782.68" y="712.4966">Muestra campos afectados</text></g><!--link PasoValidacion to *end*EditarTareaContainer--><g class="link" data-entity-1="PasoValidacion" data-entity-2=".end.EditarTareaContainer" data-source-line="131" data-uid="lnk19" id="link_PasoValidacion_.end.EditarTareaContainer"><path d="M1073.63,953.2169 C1010.68,978.1469 853.4682,1040.407 811.3382,1057.097" fill="none" id="PasoValidacion-to-*end*EditarTareaContainer" style="stroke:#008000;stroke-width:1;"/><polygon fill="#008000" points="805.76,1059.3069,815.6006,1059.7109,810.4085,1057.4653,812.6541,1052.2733,805.76,1059.3069" style="stroke:#008000;stroke-width:1;"/><path d="M997.68,990.2969 L997.68,1030.2969 L1220.68,1030.2969 L1220.68,1000.2969 L1210.68,990.2969 L997.68,990.2969" fill="#FFFFE0" style="stroke:#B0B060;stroke-width:0.5;"/><path d="M1210.68,990.2969 L1210.68,1000.2969 L1220.68,1000.2969 L1210.68,990.2969" fill="#FFFFE0" style="stroke:#B0B060;stroke-width:0.5;"/><text fill="#000000" font-family="Arial" font-size="13" font-weight="bold" lengthAdjust="spacing" textLength="58.9063" x="1003.68" y="1007.3638">Sistema</text><text fill="#000000" font-family="Arial" font-size="13" lengthAdjust="spacing" textLength="139.731" x="1066.7186" y="1007.3638">confirma sin conflicto</text><text fill="#000000" font-family="Arial" font-size="13" lengthAdjust="spacing" textLength="106.3423" x="1003.68" y="1022.4966">Guarda cambios</text></g><!--link PasoDecisionFinal to *end*EditarTareaContainer--><g class="link" data-entity-1="PasoDecisionFinal" data-entity-2=".end.EditarTareaContainer" data-source-line="138" data-uid="lnk20" id="link_PasoDecisionFinal_.end.EditarTareaContainer"><path d="M778.19,725.3969 C776.13,762.7069 773.07,836.6569 776.68,899.2969 C780.07,957.9569 789.3132,1021.9058 793.2132,1047.4158" fill="none" id="PasoDecisionFinal-to-*end*EditarTareaContainer" style="stroke:#FF0000;stroke-width:1;"/><polygon fill="#FF0000" points="794.12,1053.3469,796.7139,1043.8457,793.3644,1048.4043,788.8058,1045.0547,794.12,1053.3469" style="stroke:#FF0000;stroke-width:1;"/><path d="M781.68,869.2969 L781.68,894.2969 L1067.68,894.2969 L1067.68,879.2969 L1057.68,869.2969 L781.68,869.2969" fill="#FFFFE0" style="stroke:#B0B060;stroke-width:0.5;"/><path d="M1057.68,869.2969 L1057.68,879.2969 L1067.68,879.2969 L1057.68,869.2969" fill="#FFFFE0" style="stroke:#B0B060;stroke-width:0.5;"/><text fill="#000000" font-family="Arial" font-size="13" font-weight="bold" lengthAdjust="spacing" textLength="104.8633" x="787.68" y="886.3638">Administrador</text><text fill="#000000" font-family="Arial" font-size="13" lengthAdjust="spacing" textLength="156.2729" x="896.6756" y="886.3638">solicita cancelar edici&#243;n</text></g><g id="TareaFin"><rect fill="#FFFFFF" height="50" rx="12.5" ry="12.5" style="stroke:#000000;stroke-width:0.5;" width="134.7344" x="927" y="1180"/><line style="stroke:#000000;stroke-width:0.5;" x1="927" x2="1061.7344" y1="1206.2969" y2="1206.2969"/><text fill="#000000" font-family="sans-serif" font-size="14" lengthAdjust="spacing" textLength="114.7344" x="937" y="1197.9951">TAREA_ABIERTO</text></g><!--link TAREAS_ABIERTO to EditarTareaContainer--><g class="link" data-entity-1="TAREAS_ABIERTO" data-entity-2="EditarTareaContainer" data-source-line="148" data-uid="lnk21" id="link_TAREAS_ABIERTO_EditarTareaContainer"><path d="M911.18,57.02 C913.45,71.79 915.7412,86.7492 919.5812,111.8092" fill="none" id="TAREAS_ABIERTO-to-EditarTareaContainer" style="stroke:#009900;stroke-width:1;"/><polygon fill="#009900" points="920.49,117.74,923.0807,108.238,919.7327,112.7977,915.173,109.4497,920.49,117.74" style="stroke:#009900;stroke-width:1;"/></g><!--link TareaInicio to EditarTareaContainer--><g class="link" data-entity-1="TareaInicio" data-entity-2="EditarTareaContainer" data-source-line="149" data-uid="lnk22" id="link_TareaInicio_EditarTareaContainer"><path d="M1078.77,57.02 C1076.48,71.79 1074.1703,86.751 1070.2803,111.811" fill="none" id="TareaInicio-to-EditarTareaContainer" style="stroke:#009900;stroke-width:1;"/><polygon fill="#009900" points="1069.36,117.74,1074.6932,109.4601,1070.127,112.7992,1066.7879,108.2329,1069.36,117.74" style="stroke:#009900;stroke-width:1;"/></g><!--link EditarTareaContainer to TareaFin--><g class="link" data-entity-1="EditarTareaContainer" data-entity-2="TareaFin" data-source-line="151" data-uid="lnk23" id="link_EditarTareaContainer_TareaFin"><path d="M938.34,1085.22 C937.67,1095.23 937.05,1105.17 936.5,1115 C935.62,1130.53 930.29,1135.74 936.5,1150 C941.5,1161.48 945.811,1167.6054 955.041,1175.9154" fill="none" id="EditarTareaContainer-to-TareaFin" style="stroke:#008000;stroke-width:1;"/><polygon fill="#008000" points="959.5,1179.93,955.4878,1170.9354,955.7841,1176.5845,950.135,1176.8808,959.5,1179.93" style="stroke:#008000;stroke-width:1;"/><text fill="#000000" font-family="sans-serif" font-size="13" lengthAdjust="spacing" textLength="69.8115" x="937.5" y="1137.0669">"              "</text></g><!--link EditarTareaContainer to TareaFin--><g class="link" data-entity-1="EditarTareaContainer" data-entity-2="TareaFin" data-source-line="153" data-uid="lnk24" id="link_EditarTareaContainer_TareaFin"><path d="M1010.96,1085.34 C1011.16,1095.31 1011.34,1105.21 1011.5,1115 C1011.76,1130.55 1013.86,1134.62 1011.5,1150 C1009.96,1160.01 1008.824,1165.0135 1005.724,1174.2235" fill="none" id="EditarTareaContainer-to-TareaFin-1" style="stroke:#FF0000;stroke-width:1;"/><polygon fill="#FF0000" points="1003.81,1179.91,1010.4721,1172.6562,1005.405,1175.1712,1002.89,1170.1042,1003.81,1179.91" style="stroke:#FF0000;stroke-width:1;"/><path d="M1018.5,1120 L1018.5,1145 L1145.5,1145 L1145.5,1130 L1135.5,1120 L1018.5,1120" fill="#FFFFE0" style="stroke:#B0B060;stroke-width:0.5;"/><path d="M1135.5,1120 L1135.5,1130 L1145.5,1130 L1135.5,1120" fill="#FFFFE0" style="stroke:#B0B060;stroke-width:0.5;"/><text fill="#000000" font-family="Arial" font-size="13" lengthAdjust="spacing" textLength="106.3677" x="1024.5" y="1137.0669">cancelar edici&#243;n</text></g><!--SRC=[jLVDRXit4BxhAGRsmR812qhQfhKE1LRIAbLWIuPMLWC4GK7jKXAJNL8WkGxIeW-JOywzzUeNwv3B_TDg4pUjzs1OGt9-llbcE3o3aU0Rjaqb2Td3NnpkcKf93A7WYYbDkQOTzPxnFP4aWKHm4UwaI2XiIAogIsf78l71YRNOWnQm5bgB128cQQYPu9tgVaqqXJywWD-GXE-tKgGy6ebOIFXrnz2iNH4oeZAJ3cFSPgMUbE939Zpjzw-k-dqh3ZIH-d2ldolDH7zMVU2YrONJ2Nv-l-74wR0_xB_8v1F1zOmW5fva93Qgp-3oyXByOEcDvm7uhvV-OeR_Z7tmPyk5D_RCUYSBVUajV2_upHjE_SLoxeGdLfeBJu0eM199oPIpa0bZmCUDaS3y9FkKAWHvBnaFsPx40w0HGmZiWUvvhh4cj1hzKeB9ruHnAXqCziyPtAPS2mKH1SB3cBoZm908aWjbDpZDOBNT4YLMbZJiT-GGPldebXlAq_dUhDCM9MCQCeNh4yOHpOet1jFPdRyoa3fe4T6NTzvYZ3yif4SLtagwGgyYwvNJrdIziYCtwUm-wu73tVn-S_4MJVtS4g-b4kg86SzuPxwB2ozA6CSwafWpUN41IiIeK1ENAj0c2NO_vP5Lqd76d_S0_LTOW5bXbbPYkj4WDYsEP7O3Kxi9GOjxfmGYOb9AGeq7g1gKcs4cahMay17phKB9zgMzRFqERKXc3YksvHY9gYmkQ8ZbWRhDZehyMeJEiRgoNuGqoYeInsWaMqmgWEJgOvAHncomg-eeNj_r02dsyBVzsO2co5o3XlyoSLNSRaJ4DYp4DFAl8EXPu5owWK2Q8Ne0mZgc8LRYhe7Gc6xG6Gbn2wP52vSWA-au0cFkGpLJDqIQ64n7YIccuZWVlqTy7pvhaMV_4Cm2uMOP7uNuCU0LFXH5-L-jPWpEUf_dU8sjyccCqIAdZlHFPYdA25BMdE1FPYiio5Oj_ISp9mlcsgIf9pEKs38O5LLmQCZLmGyz6APXJ4qxmYPUahLX2YxVd6ubfVnjkl_VxetauPF2CIohdKeREtJJt9cJwxjNyzfL6VYttYA_CztE5tZHUC4SdWqWoAoa4GONvqqAkjSntMBNYe6dz5vOMcE_jXD1WX28yw_5ZuCXTmZKxkHlGc2BNaNODZw2GaNoQFG_kfYU3y0BixdMHAIoMn6w0R49F8XeXquHk7VkuQ4oiFeeSIomnqILgPQcNMCmMhHGx2Ul1wlI2vXurzTJd1sxnS5pGAkhbCRtEA59oTOOqqAygsIYxgsaqJUGi1mY8gfnWYUszgq3PHitGwZ45PBipOImCVloEw8HsB0UcFzwkfm765Z0EDI3GmP1TqLny6wBgPO17CuU5udjNX8veD10CvoNbbmccZLh2UAg1oESYcrR-cBj6z0VvruhryFCaAntciAZBxuu0i-IfdnmjBqjqE5S3xvHPi5qD9tF_5oP5rWLzTUAxQt7dX6TockbVLFdw0kao2aUons30KxgjU-a_RG1l7Asqq2x2MSEvJy0]--></g></svg>