<svg xmlns="http://www.w3.org/2000/svg" xmlns:xlink="http://www.w3.org/1999/xlink" contentStyleType="text/css" data-diagram-type="DESCRIPTION" height="533px" preserveAspectRatio="none" style="width:671px;height:533px;background:#FFFFFF;" version="1.1" viewBox="0 0 671 533" width="671px" zoomAndPan="magnify"><defs/><g><!--cluster Gesti?n de Tareas--><g class="cluster" data-entity="Gesti.n de Tareas" data-source-line="5" data-uid="ent0004" id="cluster_Gesti.n de Tareas"><path d="M154.5,6 L298.3369,6 A3.75,3.75 0 0 1 300.8369,8.5 L307.8369,28.2969 L661.5,28.2969 A2.5,2.5 0 0 1 664,30.7969 L664,384.5 A2.5,2.5 0 0 1 661.5,387 L154.5,387 A2.5,2.5 0 0 1 152,384.5 L152,8.5 A2.5,2.5 0 0 1 154.5,6" fill="none" style="stroke:#000000;stroke-width:1.5;"/><line style="stroke:#000000;stroke-width:1.5;" x1="152" x2="307.8369" y1="28.2969" y2="28.2969"/><text fill="#000000" font-family="sans-serif" font-size="14" font-weight="bold" lengthAdjust="spacing" textLength="142.8369" x="156" y="20.9951">Gesti&#243;n de Tareas</text></g><!--entity UC5--><g class="entity" data-entity="UC5" data-source-line="6" data-uid="ent0005" id="entity_UC5"><ellipse cx="244.7422" cy="127.2484" fill="#F1F1F1" rx="76.7422" ry="17.7484" style="stroke:#181818;stroke-width:0.5;"/><text fill="#000000" font-family="sans-serif" font-size="14" lengthAdjust="spacing" textLength="122.9307" x="183.2769" y="131.8969">Relacionar tareas</text></g><!--entity UC1--><g class="entity" data-entity="UC1" data-source-line="7" data-uid="ent0006" id="entity_UC1"><ellipse cx="244.6596" cy="196.1319" fill="#F1F1F1" rx="61.1596" ry="14.6319" style="stroke:#181818;stroke-width:0.5;"/><text fill="#000000" font-family="sans-serif" font-size="14" lengthAdjust="spacing" textLength="83.0088" x="203.1552" y="200.7804">Crear Tarea</text></g><!--entity UC2--><g class="entity" data-entity="UC2" data-source-line="8" data-uid="ent0007" id="entity_UC2"><ellipse cx="244.4656" cy="262.0931" fill="#F1F1F1" rx="70.9656" ry="16.5931" style="stroke:#181818;stroke-width:0.5;"/><text fill="#000000" font-family="sans-serif" font-size="14" lengthAdjust="spacing" textLength="108.8008" x="190.0653" y="266.7416">Modificar Tarea</text></g><!--entity UC3--><g class="entity" data-entity="UC3" data-source-line="9" data-uid="ent0008" id="entity_UC3"><ellipse cx="244.7327" cy="330.0465" fill="#F1F1F1" rx="68.2327" ry="16.0465" style="stroke:#181818;stroke-width:0.5;"/><text fill="#000000" font-family="sans-serif" font-size="14" lengthAdjust="spacing" textLength="101.8896" x="193.7878" y="334.695">Eliminar Tarea</text></g><!--entity UC4--><g class="entity" data-entity="UC4" data-source-line="10" data-uid="ent0009" id="entity_UC4"><ellipse cx="546.1181" cy="347.8236" fill="#F1F1F1" rx="102.1181" ry="22.8236" style="stroke:#181818;stroke-width:0.5;"/><text fill="#000000" font-family="sans-serif" font-size="14" lengthAdjust="spacing" textLength="180.7148" x="455.7606" y="352.472">Marcar como Completada</text></g><!--entity UC5a--><g class="entity" data-entity="UC5a" data-source-line="11" data-uid="ent0010" id="entity_UC5a"><ellipse cx="545.9315" cy="126.9863" fill="#F1F1F1" rx="72.9315" ry="16.9863" style="stroke:#181818;stroke-width:0.5;"/><text fill="#000000" font-family="sans-serif" font-size="14" lengthAdjust="spacing" textLength="113.6748" x="489.0941" y="131.6347">A&#241;adir Subtarea</text></g><!--entity UC5b--><g class="entity" data-entity="UC5b" data-source-line="12" data-uid="ent0011" id="entity_UC5b"><ellipse cx="546.1394" cy="57.8279" fill="#F1F1F1" rx="72.1394" ry="16.8279" style="stroke:#181818;stroke-width:0.5;"/><text fill="#000000" font-family="sans-serif" font-size="14" lengthAdjust="spacing" textLength="111.7197" x="490.2795" y="62.4763">Quitar Subtarea</text></g><!--entity UC6--><g class="entity" data-entity="UC6" data-source-line="13" data-uid="ent0012" id="entity_UC6"><ellipse cx="546.1086" cy="270.8217" fill="#F1F1F1" rx="79.6086" ry="18.3217" style="stroke:#181818;stroke-width:0.5;"/><text fill="#000000" font-family="sans-serif" font-size="14" lengthAdjust="spacing" textLength="129.7529" x="481.2322" y="275.4702">Establecer Horario</text></g><!--entity UC7--><g class="entity" data-entity="UC7" data-source-line="14" data-uid="ent0013" id="entity_UC7"><ellipse cx="546.0093" cy="197.9019" fill="#F1F1F1" rx="82.5093" ry="18.9019" style="stroke:#181818;stroke-width:0.5;"/><text fill="#000000" font-family="sans-serif" font-size="14" lengthAdjust="spacing" textLength="136.5547" x="477.7319" y="202.5503">Definir Localizaci&#243;n</text></g><!--entity Admin--><g class="entity" data-entity="Admin" data-source-line="2" data-uid="ent0002" id="entity_Admin"><ellipse cx="55.54" cy="232.5" fill="#F1F1F1" rx="8" ry="8" style="stroke:#181818;stroke-width:0.5;"/><path d="M55.54,240.5 L55.54,267.5 M42.54,248.5 L68.54,248.5 M55.54,267.5 L42.54,282.5 M55.54,267.5 L68.54,282.5" fill="none" style="stroke:#181818;stroke-width:0.5;"/><text fill="#000000" font-family="sans-serif" font-size="14" lengthAdjust="spacing" textLength="99.0801" x="6" y="296.9951">Administrador</text></g><!--entity Miem--><g class="entity" data-entity="Miem" data-source-line="3" data-uid="ent0003" id="entity_Miem"><ellipse cx="244.7139" cy="460.5" fill="#F1F1F1" rx="8" ry="8" style="stroke:#181818;stroke-width:0.5;"/><path d="M244.7139,468.5 L244.7139,495.5 M231.7139,476.5 L257.7139,476.5 M244.7139,495.5 L231.7139,510.5 M244.7139,495.5 L257.7139,510.5" fill="none" style="stroke:#181818;stroke-width:0.5;"/><text fill="#000000" font-family="sans-serif" font-size="14" lengthAdjust="spacing" textLength="61.4277" x="214" y="524.9951">Miembro</text></g><!--link Admin to UC1--><g class="link" data-entity-1="Admin" data-entity-2="UC1" data-source-line="17" data-uid="lnk14" id="link_Admin_UC1"><path d="M105.36,242.42 C117.9,237.56 131.41,232.47 144,228 C164.35,220.78 181.5557,215.158 200.2757,209.278" fill="none" id="Admin-to-UC1" style="stroke:#181818;stroke-width:1;"/><polygon fill="#181818" points="206,207.48,196.2149,206.3608,201.2298,208.9783,198.6123,213.9932,206,207.48" style="stroke:#181818;stroke-width:1;"/></g><!--link Admin to UC2--><g class="link" data-entity-1="Admin" data-entity-2="UC2" data-source-line="18" data-uid="lnk15" id="link_Admin_UC2"><path d="M105.14,262 C125.92,262 144.57,262 167.27,262" fill="none" id="Admin-to-UC2" style="stroke:#181818;stroke-width:1;"/><polygon fill="#181818" points="173.27,262,164.27,258,168.27,262,164.27,266,173.27,262" style="stroke:#181818;stroke-width:1;"/></g><!--link Admin to UC3--><g class="link" data-entity-1="Admin" data-entity-2="UC3" data-source-line="19" data-uid="lnk16" id="link_Admin_UC3"><path d="M105.42,281.42 C117.96,286.28 131.45,291.42 144,296 C163.72,303.2 180.1141,308.874 198.4541,315.054" fill="none" id="Admin-to-UC3" style="stroke:#181818;stroke-width:1;"/><polygon fill="#181818" points="204.14,316.97,196.8885,310.3055,199.4018,315.3734,194.3339,317.8866,204.14,316.97" style="stroke:#181818;stroke-width:1;"/></g><!--link Admin to UC4--><g class="link" data-entity-1="Admin" data-entity-2="UC4" data-source-line="20" data-uid="lnk17" id="link_Admin_UC4"><path d="M77.91,300.15 C93.07,323.02 115.72,350.08 144,363 C255.53,413.94 397.4362,389.2717 478.8662,367.9217" fill="none" id="Admin-to-UC4" style="stroke:#181818;stroke-width:1;"/><polygon fill="#181818" points="484.67,366.4,474.9498,364.8133,479.8335,367.6681,476.9787,372.5518,484.67,366.4" style="stroke:#181818;stroke-width:1;"/></g><!--link Miem to UC4--><g class="link" data-entity-1="Miem" data-entity-2="UC4" data-source-line="21" data-uid="lnk18" id="link_Miem_UC4"><path d="M275.03,480.25 C309.16,468.61 366.7,447.83 414,425 C448.33,408.43 480.5631,389.2277 506.5531,372.8577" fill="none" id="Miem-to-UC4" style="stroke:#181818;stroke-width:1;"/><polygon fill="#181818" points="511.63,369.66,501.8829,371.072,507.3993,372.3248,506.1465,377.8411,511.63,369.66" style="stroke:#181818;stroke-width:1;"/></g><!--link Admin to UC5--><g class="link" data-entity-1="Admin" data-entity-2="UC5" data-source-line="22" data-uid="lnk19" id="link_Admin_UC5"><path d="M83.29,223.91 C99.04,203.82 120.45,180.07 144,164 C158.99,153.77 171.509,147.8894 188.209,142.1194" fill="none" id="Admin-to-UC5" style="stroke:#181818;stroke-width:1;"/><polygon fill="#181818" points="193.88,140.16,184.0672,139.3184,189.1541,141.7928,186.6797,146.8798,193.88,140.16" style="stroke:#181818;stroke-width:1;"/></g><!--reverse link UC5 to UC5a--><g class="link" data-entity-1="UC5" data-entity-2="UC5a" data-source-line="23" data-uid="lnk20" id="link_UC5_UC5a"><path d="M327.08,127 C373.6,127 426.91,127 472.8,127" fill="none" id="UC5-backto-UC5a" style="stroke:#181818;stroke-width:1;stroke-dasharray:7,7;"/><polygon fill="#181818" points="321.08,127,330.08,131,326.08,127,330.08,123,321.08,127" style="stroke:#181818;stroke-width:1;"/><text fill="#000000" font-family="sans-serif" font-size="13" lengthAdjust="spacing" textLength="61.1851" x="352" y="123.0669">&#171;extend&#187;</text></g><!--reverse link UC5 to UC5b--><g class="link" data-entity-1="UC5" data-entity-2="UC5b" data-source-line="24" data-uid="lnk21" id="link_UC5_UC5b"><path d="M304.887,113.3135 C360.077,100.6035 439.65,82.27 493.92,69.77" fill="none" id="UC5-backto-UC5b" style="stroke:#181818;stroke-width:1;stroke-dasharray:7,7;"/><polygon fill="#181818" points="299.04,114.66,308.7081,116.5382,303.9125,113.5379,306.9127,108.7422,299.04,114.66" style="stroke:#181818;stroke-width:1;"/><text fill="#000000" font-family="sans-serif" font-size="13" lengthAdjust="spacing" textLength="61.1851" x="352" y="85.0669">&#171;extend&#187;</text></g><!--reverse link UC2 to UC4--><g class="link" data-entity-1="UC2" data-entity-2="UC4" data-source-line="25" data-uid="lnk22" id="link_UC2_UC4"><path d="M295.7771,276.4355 C346.7071,291.0555 424.69,313.45 482.22,329.97" fill="none" id="UC2-backto-UC4" style="stroke:#181818;stroke-width:1;stroke-dasharray:7,7;"/><polygon fill="#181818" points="290.01,274.78,297.557,281.108,294.8159,276.1596,299.7643,273.4185,290.01,274.78" style="stroke:#181818;stroke-width:1;"/><text fill="#000000" font-family="sans-serif" font-size="13" lengthAdjust="spacing" textLength="61.1851" x="352" y="291.0669">&#171;extend&#187;</text></g><!--reverse link UC1 to UC6--><g class="link" data-entity-1="UC1" data-entity-2="UC6" data-source-line="26" data-uid="lnk23" id="link_UC1_UC6"><path d="M292.3716,208.0816 C311.8916,213.0916 329.73,217.65 351,223 C398.11,234.86 451.71,248.1 490.62,257.67" fill="none" id="UC1-backto-UC6" style="stroke:#181818;stroke-width:1;stroke-dasharray:7,7;"/><polygon fill="#181818" points="286.56,206.59,294.283,212.7018,291.403,207.833,296.2719,204.953,286.56,206.59" style="stroke:#181818;stroke-width:1;"/><text fill="#000000" font-family="sans-serif" font-size="13" lengthAdjust="spacing" textLength="61.1851" x="352" y="219.0669">&#171;extend&#187;</text></g><!--reverse link UC1 to UC7--><g class="link" data-entity-1="UC1" data-entity-2="UC7" data-source-line="27" data-uid="lnk24" id="link_UC1_UC7"><path d="M311.7499,196.4398 C357.0099,196.7398 413.52,197.12 463.28,197.45" fill="none" id="UC1-backto-UC7" style="stroke:#181818;stroke-width:1;stroke-dasharray:7,7;"/><polygon fill="#181818" points="305.75,196.4,314.7233,200.4596,310.7499,196.4331,314.7763,192.4597,305.75,196.4" style="stroke:#181818;stroke-width:1;"/><text fill="#000000" font-family="sans-serif" font-size="13" lengthAdjust="spacing" textLength="61.1851" x="352" y="193.0669">&#171;extend&#187;</text></g><!--SRC=[VP5DQiCm48NtESNWVGBvXn8C8Itjebdqxm1ZQPmEjQqmKg2qz52bHyZ5AijEIInJRIJU-_HipIieT-0C2EzU7MWMKevDDK3bZ42orYLNR9sWDf80MWZAoTuobPcOODJdmG3ysgDwmnr1SalMyV6d0atmZ49e4_WCIBqEbXHQZprIWSf_50LSI_cybyqyHZVUbYQhXSOnj3MQSrOTS1A3DmNxntIuQKyWIfscJ6bWOyfzGGxrYP_5_FhuZNwKy7J8t5do76FquS0UYSYivsUjmwmWHG9tHb3OjF0YPgyfzxK9t1k51N_uwVeMMdm9WVzgkWfrmd2O_eqoA8qmwGhJw4xp-hhx2-7iJjEYts4r6eKfm1MiLlJkgD9fsdMpFdVIkhC-SzoQY__CvONv2m00]--></g></svg>