<svg xmlns="http://www.w3.org/2000/svg" xmlns:xlink="http://www.w3.org/1999/xlink" contentStyleType="text/css" data-diagram-type="DESCRIPTION" height="558px" preserveAspectRatio="none" style="width:826px;height:558px;background:#FFFFFF;" version="1.1" viewBox="0 0 826 558" width="826px" zoomAndPan="magnify"><defs/><g><!--cluster Gesti?n de Tareas--><g class="cluster" data-entity="Gesti.n de Tareas" data-source-line="6" data-uid="ent0004" id="cluster_Gesti.n de Tareas"><path d="M328.5,13.7 L472.3369,13.7 A3.75,3.75 0 0 1 474.8369,16.2 L481.8369,35.9969 L816.5,35.9969 A2.5,2.5 0 0 1 819,38.4969 L819,549.2 A2.5,2.5 0 0 1 816.5,551.7 L328.5,551.7 A2.5,2.5 0 0 1 326,549.2 L326,16.2 A2.5,2.5 0 0 1 328.5,13.7" fill="none" style="stroke:#000000;stroke-width:1.5;"/><line style="stroke:#000000;stroke-width:1.5;" x1="326" x2="481.8369" y1="35.9969" y2="35.9969"/><text fill="#000000" font-family="sans-serif" font-size="14" font-weight="bold" lengthAdjust="spacing" textLength="142.8369" x="330" y="28.6951">Gesti&#243;n de Tareas</text></g><!--entity UC1--><g class="entity" data-entity="UC1" data-source-line="8" data-uid="ent0005" id="entity_UC1"><ellipse cx="412.7478" cy="385.6496" fill="#F1F1F1" rx="62.7478" ry="14.9496" style="stroke:#181818;stroke-width:0.5;"/><text fill="#000000" font-family="sans-serif" font-size="14" lengthAdjust="spacing" textLength="87.4043" x="369.0457" y="390.298">crearTarea()</text></g><!--entity UC2--><g class="entity" data-entity="UC2" data-source-line="9" data-uid="ent0006" id="entity_UC2"><ellipse cx="412.5298" cy="251.506" fill="#F1F1F1" rx="64.5298" ry="15.306" style="stroke:#181818;stroke-width:0.5;"/><text fill="#000000" font-family="sans-serif" font-size="14" lengthAdjust="spacing" textLength="92.2168" x="366.4214" y="256.1544">editarTarea()</text></g><!--entity UC3--><g class="entity" data-entity="UC3" data-source-line="10" data-uid="ent0007" id="entity_UC3"><ellipse cx="412.6978" cy="318.7396" fill="#F1F1F1" rx="70.6978" ry="16.5396" style="stroke:#181818;stroke-width:0.5;"/><text fill="#000000" font-family="sans-serif" font-size="14" lengthAdjust="spacing" textLength="108.1309" x="358.6324" y="323.388">eliminarTarea()</text></g><!--entity UC4--><g class="entity" data-entity="UC4" data-source-line="11" data-uid="ent0008" id="entity_UC4"><ellipse cx="704.526" cy="515.9052" fill="#F1F1F1" rx="86.526" ry="19.7052" style="stroke:#181818;stroke-width:0.5;"/><text fill="#000000" font-family="sans-serif" font-size="14" lengthAdjust="spacing" textLength="145.8311" x="631.6105" y="520.5536">marcarCompletada()</text></g><!--entity UC8--><g class="entity" data-entity="UC8" data-source-line="12" data-uid="ent0009" id="entity_UC8"><ellipse cx="412.6363" cy="455.9273" fill="#F1F1F1" rx="64.1363" ry="15.2273" style="stroke:#181818;stroke-width:0.5;"/><text fill="#000000" font-family="sans-serif" font-size="14" lengthAdjust="spacing" textLength="91.1641" x="367.0543" y="460.5757">abrirTareas()</text></g><!--entity UC5--><g class="entity" data-entity="UC5" data-source-line="15" data-uid="ent0010" id="entity_UC5"><ellipse cx="704.5768" cy="66.9154" fill="#F1F1F1" rx="79.0768" ry="18.2154" style="stroke:#181818;stroke-width:0.5;"/><text fill="#000000" font-family="sans-serif" font-size="14" lengthAdjust="spacing" textLength="128.4951" x="640.3292" y="71.5638">relacionarTareas()</text></g><!--entity UC6--><g class="entity" data-entity="UC6" data-source-line="16" data-uid="ent0011" id="entity_UC6"><ellipse cx="704.2687" cy="441.5537" fill="#F1F1F1" rx="82.2687" ry="18.8537" style="stroke:#181818;stroke-width:0.5;"/><text fill="#000000" font-family="sans-serif" font-size="14" lengthAdjust="spacing" textLength="135.9941" x="636.2716" y="446.2022">establecerHorario()</text></g><!--entity UC7--><g class="entity" data-entity="UC7" data-source-line="17" data-uid="ent0012" id="entity_UC7"><ellipse cx="704.4842" cy="367.4968" fill="#F1F1F1" rx="84.4842" ry="19.2968" style="stroke:#181818;stroke-width:0.5;"/><text fill="#000000" font-family="sans-serif" font-size="14" lengthAdjust="spacing" textLength="141.1348" x="633.9169" y="372.1453">definirLocalizacion()</text></g><!--entity UC9--><g class="entity" data-entity="UC9" data-source-line="18" data-uid="ent0013" id="entity_UC9"><ellipse cx="704.7169" cy="295.7434" fill="#F1F1F1" rx="75.7169" ry="17.5434" style="stroke:#181818;stroke-width:0.5;"/><text fill="#000000" font-family="sans-serif" font-size="14" lengthAdjust="spacing" textLength="120.4629" x="644.4855" y="300.3918">validarConflicto()</text></g><!--entity UC10--><g class="entity" data-entity="UC10" data-source-line="19" data-uid="ent0014" id="entity_UC10"><ellipse cx="704.533" cy="220.8066" fill="#F1F1F1" rx="98.533" ry="22.1066" style="stroke:#181818;stroke-width:0.5;"/><text fill="#000000" font-family="sans-serif" font-size="14" lengthAdjust="spacing" textLength="172.8193" x="618.1233" y="225.455">configurarRecordatorio()</text></g><!--entity UC11--><g class="entity" data-entity="UC11" data-source-line="20" data-uid="ent0015" id="entity_UC11"><ellipse cx="704.2996" cy="141.6599" fill="#F1F1F1" rx="95.2996" ry="21.4599" style="stroke:#181818;stroke-width:0.5;"/><text fill="#000000" font-family="sans-serif" font-size="14" lengthAdjust="spacing" textLength="165.6416" x="621.4788" y="146.3084">asignarTareaAUsuario()</text></g><!--entity Admin--><g class="entity" data-entity="Admin" data-source-line="3" data-uid="ent0002" id="entity_Admin"><ellipse cx="142.6025" cy="256.2" fill="#F1F1F1" rx="8" ry="8" style="stroke:#181818;stroke-width:0.5;"/><path d="M142.6025,264.2 L142.6025,291.2 M129.6025,272.2 L155.6025,272.2 M142.6025,291.2 L129.6025,306.2 M142.6025,291.2 L155.6025,306.2" fill="none" style="stroke:#181818;stroke-width:0.5;"/><text fill="#000000" font-family="sans-serif" font-size="14" lengthAdjust="spacing" textLength="273.2051" x="6" y="320.6951">Administrador/ Miembro Administrador</text></g><!--entity Miem--><g class="entity" data-entity="Miem" data-source-line="4" data-uid="ent0003" id="entity_Miem"><ellipse cx="142.7139" cy="466.2" fill="#F1F1F1" rx="8" ry="8" style="stroke:#181818;stroke-width:0.5;"/><path d="M142.7139,474.2 L142.7139,501.2 M129.7139,482.2 L155.7139,482.2 M142.7139,501.2 L129.7139,516.2 M142.7139,501.2 L155.7139,516.2" fill="none" style="stroke:#181818;stroke-width:0.5;"/><text fill="#000000" font-family="sans-serif" font-size="14" lengthAdjust="spacing" textLength="61.4277" x="112" y="530.6951">Miembro</text></g><!--link Admin to UC1--><g class="link" data-entity-1="Admin" data-entity-2="UC1" data-source-line="24" data-uid="lnk16" id="link_Admin_UC1"><path d="M241.15,323.73 C266.15,333.32 293.03,343.5 318,352.7 C337.06,359.72 352.7457,365.3012 370.2357,371.4112" fill="none" id="Admin-to-UC1" style="stroke:#181818;stroke-width:1;"/><polygon fill="#181818" points="375.9,373.39,368.7227,366.6456,371.1797,371.741,366.0843,374.198,375.9,373.39" style="stroke:#181818;stroke-width:1;"/></g><!--link Admin to UC2--><g class="link" data-entity-1="Admin" data-entity-2="UC2" data-source-line="25" data-uid="lnk17" id="link_Admin_UC2"><path d="M279.07,268.5 C305.94,265.09 326.7877,262.4453 349.1677,259.6053" fill="none" id="Admin-to-UC2" style="stroke:#181818;stroke-width:1;"/><polygon fill="#181818" points="355.12,258.85,345.688,256.0148,350.1598,259.4794,346.6952,263.9512,355.12,258.85" style="stroke:#181818;stroke-width:1;"/></g><!--link Admin to UC3--><g class="link" data-entity-1="Admin" data-entity-2="UC3" data-source-line="26" data-uid="lnk18" id="link_Admin_UC3"><path d="M279.07,302.39 C303.87,305.45 322.635,307.7561 343.895,310.3761" fill="none" id="Admin-to-UC3" style="stroke:#181818;stroke-width:1;"/><polygon fill="#181818" points="349.85,311.11,341.4068,306.0392,344.8875,310.4984,340.4283,313.9792,349.85,311.11" style="stroke:#181818;stroke-width:1;"/></g><!--link Admin to UC4--><g class="link" data-entity-1="Admin" data-entity-2="UC4" data-source-line="27" data-uid="lnk19" id="link_Admin_UC4"><path d="M181,247.56 C262.51,169.15 457.95,6 576,114.7 C635.54,169.53 557.61,412.82 606,477.7 C614.47,489.06 621.3114,494.6651 634.4114,500.2551" fill="none" id="Admin-to-UC4" style="stroke:#181818;stroke-width:1;"/><polygon fill="#181818" points="639.93,502.61,633.2221,495.3987,635.3312,500.6476,630.0822,502.7567,639.93,502.61" style="stroke:#181818;stroke-width:1;"/></g><!--link Admin to UC5--><g class="link" data-entity-1="Admin" data-entity-2="UC5" data-source-line="28" data-uid="lnk20" id="link_Admin_UC5"><path d="M159.08,247.62 C182.71,195.61 233.06,104.5 309,66.7 C421.05,10.93 568.3156,33.4226 646.7656,51.6426" fill="none" id="Admin-to-UC5" style="stroke:#181818;stroke-width:1;"/><polygon fill="#181818" points="652.61,53,644.7482,47.0676,647.7396,51.8689,642.9384,54.8602,652.61,53" style="stroke:#181818;stroke-width:1;"/></g><!--link Admin to UC8--><g class="link" data-entity-1="Admin" data-entity-2="UC8" data-source-line="29" data-uid="lnk21" id="link_Admin_UC8"><path d="M187.17,323.87 C221.18,352.28 270.44,390.67 318,417.7 C335.98,427.92 351.6271,434.6965 369.3271,441.2865" fill="none" id="Admin-to-UC8" style="stroke:#181818;stroke-width:1;"/><polygon fill="#181818" points="374.95,443.38,367.9113,436.4911,370.2642,441.6354,365.1199,443.9884,374.95,443.38" style="stroke:#181818;stroke-width:1;"/></g><!--link Miem to UC4--><g class="link" data-entity-1="Miem" data-entity-2="UC4" data-source-line="32" data-uid="lnk22" id="link_Miem_UC4"><path d="M173.21,496.76 C255.97,499.72 485.3938,507.9056 612.9238,512.4656" fill="none" id="Miem-to-UC4" style="stroke:#181818;stroke-width:1;"/><polygon fill="#181818" points="618.92,512.68,610.0687,508.361,613.9232,512.5013,609.7828,516.3558,618.92,512.68" style="stroke:#181818;stroke-width:1;"/></g><!--link Miem to UC8--><g class="link" data-entity-1="Miem" data-entity-2="UC8" data-source-line="33" data-uid="lnk23" id="link_Miem_UC8"><path d="M173.2,491.27 C217.77,484.62 296.6757,472.8355 352.1657,464.5555" fill="none" id="Miem-to-UC8" style="stroke:#181818;stroke-width:1;"/><polygon fill="#181818" points="358.1,463.67,348.6082,461.042,353.1548,464.4079,349.7889,468.9544,358.1,463.67" style="stroke:#181818;stroke-width:1;"/></g><!--reverse link UC2 to UC4--><g class="link" data-entity-1="UC2" data-entity-2="UC4" data-source-line="36" data-uid="lnk24" id="link_UC2_UC4"><path d="M459.64,266.1395 C470.39,271.0895 475.6,275.4 483,284.7 C521.55,333.13 477.08,370.29 513,420.7 C543.77,463.89 599.9,488.51 643.29,501.81" fill="none" id="UC2-backto-UC4" style="stroke:#181818;stroke-width:1;stroke-dasharray:7,7;"/><polygon fill="#181818" points="454.19,263.63,460.692,271.0276,458.7316,265.7213,464.038,263.761,454.19,263.63" style="stroke:#181818;stroke-width:1;"/><text fill="#000000" font-family="sans-serif" font-size="13" lengthAdjust="spacing" textLength="61.1851" x="514" y="416.7669">&#171;extend&#187;</text></g><!--reverse link UC2 to UC5--><g class="link" data-entity-1="UC2" data-entity-2="UC5" data-source-line="37" data-uid="lnk25" id="link_UC2_UC5"><path d="M433.5926,232.4714 C464.8926,203.0614 533.89,141.72 606,102.7 C621.71,94.2 639.85,86.89 656.19,81.12" fill="none" id="UC2-backto-UC5" style="stroke:#181818;stroke-width:1;stroke-dasharray:7,7;"/><polygon fill="#181818" points="429.22,236.58,438.518,233.3322,432.8638,233.1562,433.0399,227.5021,429.22,236.58" style="stroke:#181818;stroke-width:1;"/><text fill="#000000" font-family="sans-serif" font-size="13" lengthAdjust="spacing" textLength="61.1851" x="514" y="119.7669">&#171;extend&#187;</text></g><!--reverse link UC2 to UC6--><g class="link" data-entity-1="UC2" data-entity-2="UC6" data-source-line="38" data-uid="lnk26" id="link_UC2_UC6"><path d="M458.1315,266.4643 C469.1015,271.4543 474.79,275.73 483,284.7 C508.92,313.02 486.44,337.99 513,365.7 C544.01,398.06 564.37,388.08 606,404.7 C623.65,411.75 643.23,419.24 660.18,425.63" fill="none" id="UC2-backto-UC6" style="stroke:#181818;stroke-width:1;stroke-dasharray:7,7;"/><polygon fill="#181818" points="452.67,263.98,459.2061,271.3475,457.2213,266.0503,462.5185,264.0655,452.67,263.98" style="stroke:#181818;stroke-width:1;"/><text fill="#000000" font-family="sans-serif" font-size="13" lengthAdjust="spacing" textLength="61.1851" x="514" y="361.7669">&#171;extend&#187;</text></g><!--reverse link UC2 to UC7--><g class="link" data-entity-1="UC2" data-entity-2="UC7" data-source-line="39" data-uid="lnk27" id="link_UC2_UC7"><path d="M452.3558,267.3648 C464.2158,272.7348 471.91,277.02 483,284.7 C498.24,295.26 496.93,304.45 513,313.7 C550.39,335.22 596.9,348.62 634.61,356.69" fill="none" id="UC2-backto-UC7" style="stroke:#181818;stroke-width:1;stroke-dasharray:7,7;"/><polygon fill="#181818" points="446.89,264.89,453.4388,272.2461,451.4449,266.9524,456.7386,264.9584,446.89,264.89" style="stroke:#181818;stroke-width:1;"/><text fill="#000000" font-family="sans-serif" font-size="13" lengthAdjust="spacing" textLength="61.1851" x="514" y="309.7669">&#171;extend&#187;</text></g><!--reverse link UC2 to UC9--><g class="link" data-entity-1="UC2" data-entity-2="UC9" data-source-line="40" data-uid="lnk28" id="link_UC2_UC9"><path d="M457.1103,265.9361 C475.5203,271.5361 492.34,275.96 513,279.7 C551.21,286.62 594.29,290.55 629.8,292.79" fill="none" id="UC2-backto-UC9" style="stroke:#181818;stroke-width:1;stroke-dasharray:7,7;"/><polygon fill="#181818" points="451.37,264.19,458.8164,270.636,456.1536,265.6451,461.1445,262.9823,451.37,264.19" style="stroke:#181818;stroke-width:1;"/><text fill="#000000" font-family="sans-serif" font-size="13" lengthAdjust="spacing" textLength="61.1851" x="514" y="275.7669">&#171;extend&#187;</text></g><!--reverse link UC2 to UC10--><g class="link" data-entity-1="UC2" data-entity-2="UC10" data-source-line="41" data-uid="lnk29" id="link_UC2_UC10"><path d="M482.5897,254.0736 C512.7697,254.3936 543.36,253.57 576,249.7 C597.53,247.15 620.74,242.46 641.38,237.59" fill="none" id="UC2-backto-UC10" style="stroke:#181818;stroke-width:1;stroke-dasharray:7,7;"/><polygon fill="#181818" points="476.59,254.01,485.5471,258.1052,481.5897,254.063,485.6319,250.1056,476.59,254.01" style="stroke:#181818;stroke-width:1;"/><text fill="#000000" font-family="sans-serif" font-size="13" lengthAdjust="spacing" textLength="61.1851" x="514" y="245.7669">&#171;extend&#187;</text></g><!--reverse link UC2 to UC11--><g class="link" data-entity-1="UC2" data-entity-2="UC11" data-source-line="42" data-uid="lnk30" id="link_UC2_UC11"><path d="M455.4237,236.901 C488.4337,225.171 532.81,209.17 576,192.7 C576.52,192.5 620.5,174.91 656.65,160.44" fill="none" id="UC2-backto-UC11" style="stroke:#181818;stroke-width:1;stroke-dasharray:7,7;"/><polygon fill="#181818" points="449.77,238.91,459.5898,239.6656,454.4814,237.2358,456.9112,232.1274,449.77,238.91" style="stroke:#181818;stroke-width:1;"/><text fill="#000000" font-family="sans-serif" font-size="13" lengthAdjust="spacing" textLength="61.1851" x="514" y="188.7669">&#171;extend&#187;</text></g><!--SRC=[XPFFRjim3CRlUWeYboQ7TdNRzCyG12YoeJrim50q3y18J2fCiG9IAOOMVQezmbvij99waJTZliZqzzCdKgG3BHEa2EnNJmcSPxB9nzeOj2ao36xTsjTU4gEB_06-UbelE4BnUG0eko_lk_PO5fftOpPel-EAO717aloldpKuWaTaGXd0gm5zZc264gKHvXBX6_lQ-Wq6aYnlXIoAEbZTn7dhS9HFcC-gaY3dKnSvwo31QxvTwBo4riWMUHRNcq09tH_kekHmmNxd92roRVvLb2wVr2e4Wk7d7ubgqSic6PL-J06j2jWr7NUAa8IBG9RuFZAoZoruMOAEbjek_X8j1l-IlLlqgaIVbN1DqVKoUErcozrqkg20Nstrs0UoaHrgumyIg4uxLoH-zLxFxLosHRPLPTwCEOA7VTqa-qbKTOECGA6SE9CZE3wUvkOVHcT5T5v45qKqBgBh_oMmdsdJhAtVGV2N0G7jEjnC-r0p0xqpIxMM0FYa3TF_pY44XFOkRMRn6UiN7RUHQJPDJawQe-0ZJ2RPq4sd1yAuJxZi4wxwX9i-eJhjLQf2-Gq0]--></g></svg>