<svg xmlns="http://www.w3.org/2000/svg" xmlns:xlink="http://www.w3.org/1999/xlink" contentStyleType="text/css" data-diagram-type="DESCRIPTION" height="559px" preserveAspectRatio="none" style="width:828px;height:559px;background:#FFFFFF;" version="1.1" viewBox="0 0 828 559" width="828px" zoomAndPan="magnify"><defs/><g><!--cluster Gesti?n de Tareas--><g class="cluster" data-entity="Gesti.n de Tareas" data-source-line="6" data-uid="ent0004" id="cluster_Gesti.n de Tareas"><path d="M328.5,14.14 L472.3369,14.14 A3.75,3.75 0 0 1 474.8369,16.64 L481.8369,36.4369 L818.5,36.4369 A2.5,2.5 0 0 1 821,38.9369 L821,549.64 A2.5,2.5 0 0 1 818.5,552.14 L328.5,552.14 A2.5,2.5 0 0 1 326,549.64 L326,16.64 A2.5,2.5 0 0 1 328.5,14.14" fill="none" style="stroke:#000000;stroke-width:1.5;"/><line style="stroke:#000000;stroke-width:1.5;" x1="326" x2="481.8369" y1="36.4369" y2="36.4369"/><text fill="#000000" font-family="sans-serif" font-size="14" font-weight="bold" lengthAdjust="spacing" textLength="142.8369" x="330" y="29.1351">Gesti&#243;n de Tareas</text></g><!--entity UC1--><g class="entity" data-entity="UC1" data-source-line="8" data-uid="ent0005" id="entity_UC1"><ellipse cx="412.7478" cy="386.0896" fill="#F1F1F1" rx="62.7478" ry="14.9496" style="stroke:#181818;stroke-width:0.5;"/><text fill="#000000" font-family="sans-serif" font-size="14" lengthAdjust="spacing" textLength="87.4043" x="369.0457" y="390.738">crearTarea()</text></g><!--entity UC2--><g class="entity" data-entity="UC2" data-source-line="9" data-uid="ent0006" id="entity_UC2"><ellipse cx="412.5298" cy="251.946" fill="#F1F1F1" rx="64.5298" ry="15.306" style="stroke:#181818;stroke-width:0.5;"/><text fill="#000000" font-family="sans-serif" font-size="14" lengthAdjust="spacing" textLength="92.2168" x="366.4214" y="256.5944">editarTarea()</text></g><!--entity UC3--><g class="entity" data-entity="UC3" data-source-line="10" data-uid="ent0007" id="entity_UC3"><ellipse cx="412.6978" cy="319.1796" fill="#F1F1F1" rx="70.6978" ry="16.5396" style="stroke:#181818;stroke-width:0.5;"/><text fill="#000000" font-family="sans-serif" font-size="14" lengthAdjust="spacing" textLength="108.1309" x="358.6324" y="323.828">eliminarTarea()</text></g><!--entity UC4--><g class="entity" data-entity="UC4" data-source-line="11" data-uid="ent0008" id="entity_UC4"><ellipse cx="706.526" cy="516.3452" fill="#F1F1F1" rx="86.526" ry="19.7052" style="stroke:#181818;stroke-width:0.5;"/><text fill="#000000" font-family="sans-serif" font-size="14" lengthAdjust="spacing" textLength="145.8311" x="633.6105" y="520.9936">marcarCompletada()</text></g><!--entity UC8--><g class="entity" data-entity="UC8" data-source-line="12" data-uid="ent0009" id="entity_UC8"><ellipse cx="412.6363" cy="456.3673" fill="#F1F1F1" rx="64.1363" ry="15.2273" style="stroke:#181818;stroke-width:0.5;"/><text fill="#000000" font-family="sans-serif" font-size="14" lengthAdjust="spacing" textLength="91.1641" x="367.0543" y="461.0157">abrirTareas()</text></g><!--entity UC5--><g class="entity" data-entity="UC5" data-source-line="15" data-uid="ent0010" id="entity_UC5"><ellipse cx="706.5768" cy="67.3554" fill="#F1F1F1" rx="79.0768" ry="18.2154" style="stroke:#181818;stroke-width:0.5;"/><text fill="#000000" font-family="sans-serif" font-size="14" lengthAdjust="spacing" textLength="128.4951" x="642.3292" y="72.0038">relacionarTareas()</text></g><!--entity UC6--><g class="entity" data-entity="UC6" data-source-line="16" data-uid="ent0011" id="entity_UC6"><ellipse cx="706.2687" cy="441.9937" fill="#F1F1F1" rx="82.2687" ry="18.8537" style="stroke:#181818;stroke-width:0.5;"/><text fill="#000000" font-family="sans-serif" font-size="14" lengthAdjust="spacing" textLength="135.9941" x="638.2716" y="446.6422">establecerHorario()</text></g><!--entity UC7--><g class="entity" data-entity="UC7" data-source-line="17" data-uid="ent0012" id="entity_UC7"><ellipse cx="706.4842" cy="367.9368" fill="#F1F1F1" rx="84.4842" ry="19.2968" style="stroke:#181818;stroke-width:0.5;"/><text fill="#000000" font-family="sans-serif" font-size="14" lengthAdjust="spacing" textLength="141.1348" x="635.9169" y="372.5853">definirLocalizacion()</text></g><!--entity UC9--><g class="entity" data-entity="UC9" data-source-line="18" data-uid="ent0013" id="entity_UC9"><ellipse cx="706.7169" cy="296.1834" fill="#F1F1F1" rx="75.7169" ry="17.5434" style="stroke:#181818;stroke-width:0.5;"/><text fill="#000000" font-family="sans-serif" font-size="14" lengthAdjust="spacing" textLength="120.4629" x="646.4855" y="300.8318">validarConflicto()</text></g><!--entity UC10--><g class="entity" data-entity="UC10" data-source-line="19" data-uid="ent0014" id="entity_UC10"><ellipse cx="706.533" cy="221.2466" fill="#F1F1F1" rx="98.533" ry="22.1066" style="stroke:#181818;stroke-width:0.5;"/><text fill="#000000" font-family="sans-serif" font-size="14" lengthAdjust="spacing" textLength="172.8193" x="620.1233" y="225.895">configurarRecordatorio()</text></g><!--entity UC11--><g class="entity" data-entity="UC11" data-source-line="20" data-uid="ent0015" id="entity_UC11"><ellipse cx="706.2996" cy="142.0999" fill="#F1F1F1" rx="95.2996" ry="21.4599" style="stroke:#181818;stroke-width:0.5;"/><text fill="#000000" font-family="sans-serif" font-size="14" lengthAdjust="spacing" textLength="165.6416" x="623.4788" y="146.7484">asignarTareaAUsuario()</text></g><!--entity Admin--><g class="entity" data-entity="Admin" data-source-line="3" data-uid="ent0002" id="entity_Admin"><ellipse cx="142.6025" cy="256.64" fill="#F1F1F1" rx="8" ry="8" style="stroke:#181818;stroke-width:0.5;"/><path d="M142.6025,264.64 L142.6025,291.64 M129.6025,272.64 L155.6025,272.64 M142.6025,291.64 L129.6025,306.64 M142.6025,291.64 L155.6025,306.64" fill="none" style="stroke:#181818;stroke-width:0.5;"/><text fill="#000000" font-family="sans-serif" font-size="14" lengthAdjust="spacing" textLength="273.2051" x="6" y="321.1351">Administrador/ Miembro Administrador</text></g><!--entity Miem--><g class="entity" data-entity="Miem" data-source-line="4" data-uid="ent0003" id="entity_Miem"><ellipse cx="142.7139" cy="466.64" fill="#F1F1F1" rx="8" ry="8" style="stroke:#181818;stroke-width:0.5;"/><path d="M142.7139,474.64 L142.7139,501.64 M129.7139,482.64 L155.7139,482.64 M142.7139,501.64 L129.7139,516.64 M142.7139,501.64 L155.7139,516.64" fill="none" style="stroke:#181818;stroke-width:0.5;"/><text fill="#000000" font-family="sans-serif" font-size="14" lengthAdjust="spacing" textLength="61.4277" x="112" y="531.1351">Miembro</text></g><!--link Admin to UC1--><g class="link" data-entity-1="Admin" data-entity-2="UC1" data-source-line="24" data-uid="lnk16" id="link_Admin_UC1"><path d="M241.15,324.17 C266.15,333.76 293.03,343.94 318,353.14 C337.06,360.16 352.7457,365.7412 370.2357,371.8512" fill="none" id="Admin-to-UC1" style="stroke:#181818;stroke-width:1;"/><polygon fill="#181818" points="375.9,373.83,368.7227,367.0856,371.1797,372.181,366.0843,374.638,375.9,373.83" style="stroke:#181818;stroke-width:1;"/></g><!--link Admin to UC2--><g class="link" data-entity-1="Admin" data-entity-2="UC2" data-source-line="25" data-uid="lnk17" id="link_Admin_UC2"><path d="M279.07,268.94 C305.94,265.53 326.7877,262.8853 349.1677,260.0453" fill="none" id="Admin-to-UC2" style="stroke:#181818;stroke-width:1;"/><polygon fill="#181818" points="355.12,259.29,345.688,256.4548,350.1598,259.9194,346.6952,264.3912,355.12,259.29" style="stroke:#181818;stroke-width:1;"/></g><!--link Admin to UC3--><g class="link" data-entity-1="Admin" data-entity-2="UC3" data-source-line="26" data-uid="lnk18" id="link_Admin_UC3"><path d="M279.07,302.83 C303.87,305.89 322.635,308.1961 343.895,310.8161" fill="none" id="Admin-to-UC3" style="stroke:#181818;stroke-width:1;"/><polygon fill="#181818" points="349.85,311.55,341.4068,306.4792,344.8875,310.9384,340.4283,314.4192,349.85,311.55" style="stroke:#181818;stroke-width:1;"/></g><!--link Admin to UC4--><g class="link" data-entity-1="Admin" data-entity-2="UC4" data-source-line="27" data-uid="lnk19" id="link_Admin_UC4"><path d="M181.19,247.93 C263.09,169.4 459.47,6 578,115.14 C637.54,169.97 559.61,413.26 608,478.14 C616.47,489.5 623.3114,495.1051 636.4114,500.6951" fill="none" id="Admin-to-UC4" style="stroke:#181818;stroke-width:1;"/><polygon fill="#181818" points="641.93,503.05,635.2221,495.8387,637.3312,501.0876,632.0822,503.1967,641.93,503.05" style="stroke:#181818;stroke-width:1;"/></g><!--link Admin to UC5--><g class="link" data-entity-1="Admin" data-entity-2="UC5" data-source-line="28" data-uid="lnk20" id="link_Admin_UC5"><path d="M159.08,248.06 C182.71,196.05 233.06,104.94 309,67.14 C421.77,11.01 570.0861,33.7703 648.8261,52.0903" fill="none" id="Admin-to-UC5" style="stroke:#181818;stroke-width:1;"/><polygon fill="#181818" points="654.67,53.45,646.8106,47.5146,649.8001,52.3169,644.9977,55.3064,654.67,53.45" style="stroke:#181818;stroke-width:1;"/></g><!--link Admin to UC8--><g class="link" data-entity-1="Admin" data-entity-2="UC8" data-source-line="29" data-uid="lnk21" id="link_Admin_UC8"><path d="M187.17,324.31 C221.18,352.72 270.44,391.11 318,418.14 C335.98,428.36 351.6271,435.1365 369.3271,441.7265" fill="none" id="Admin-to-UC8" style="stroke:#181818;stroke-width:1;"/><polygon fill="#181818" points="374.95,443.82,367.9113,436.9311,370.2642,442.0754,365.1199,444.4284,374.95,443.82" style="stroke:#181818;stroke-width:1;"/></g><!--link Miem to UC4--><g class="link" data-entity-1="Miem" data-entity-2="UC4" data-source-line="32" data-uid="lnk22" id="link_Miem_UC4"><path d="M173.32,497.2 C256.43,500.16 486.9538,508.3667 614.8838,512.9167" fill="none" id="Miem-to-UC4" style="stroke:#181818;stroke-width:1;"/><polygon fill="#181818" points="620.88,513.13,612.0279,508.8126,615.8832,512.9523,611.7435,516.8076,620.88,513.13" style="stroke:#181818;stroke-width:1;"/></g><!--link Miem to UC8--><g class="link" data-entity-1="Miem" data-entity-2="UC8" data-source-line="33" data-uid="lnk23" id="link_Miem_UC8"><path d="M173.2,491.71 C217.77,485.06 296.6757,473.2755 352.1657,464.9955" fill="none" id="Miem-to-UC8" style="stroke:#181818;stroke-width:1;"/><polygon fill="#181818" points="358.1,464.11,348.6082,461.482,353.1548,464.8479,349.7889,469.3944,358.1,464.11" style="stroke:#181818;stroke-width:1;"/></g><!--reverse link UC2 to UC4--><g class="link" data-entity-1="UC2" data-entity-2="UC4" data-source-line="36" data-uid="lnk24" id="link_UC2_UC4"><path d="M459.7619,266.4853 C470.5119,271.4253 475.69,275.77 483,285.14 C524.82,338.75 470.7,381.92 513,435.14 C543.23,473.18 594.56,493.59 636.61,504.4" fill="none" id="UC2-backto-UC4" style="stroke:#181818;stroke-width:1;stroke-dasharray:7,7;"/><polygon fill="#181818" points="454.31,263.98,460.8176,271.3726,458.8533,266.0678,464.1581,264.1034,454.31,263.98" style="stroke:#181818;stroke-width:1;"/><text fill="#000000" font-family="sans-serif" font-size="13" lengthAdjust="spacing" textLength="61.1851" x="515" y="431.2069">&#171;extend&#187;</text></g><!--reverse link UC2 to UC5--><g class="link" data-entity-1="UC2" data-entity-2="UC5" data-source-line="37" data-uid="lnk25" id="link_UC2_UC5"><path d="M433.7832,232.9135 C465.4432,203.4635 535.22,142.05 608,103.14 C623.75,94.72 641.9,87.43 658.24,81.65" fill="none" id="UC2-backto-UC5" style="stroke:#181818;stroke-width:1;stroke-dasharray:7,7;"/><polygon fill="#181818" points="429.39,237,438.7042,233.799,433.051,233.5946,433.2554,227.9414,429.39,237" style="stroke:#181818;stroke-width:1;"/><text fill="#000000" font-family="sans-serif" font-size="13" lengthAdjust="spacing" textLength="61.1851" x="515" y="120.2069">&#171;extend&#187;</text></g><!--reverse link UC2 to UC6--><g class="link" data-entity-1="UC2" data-entity-2="UC6" data-source-line="38" data-uid="lnk26" id="link_UC2_UC6"><path d="M458.1315,266.9043 C469.1015,271.8943 474.79,276.17 483,285.14 C508.92,313.46 486.33,338.53 513,366.14 C546.82,401.16 598.77,420.4 640.18,430.75" fill="none" id="UC2-backto-UC6" style="stroke:#181818;stroke-width:1;stroke-dasharray:7,7;"/><polygon fill="#181818" points="452.67,264.42,459.2061,271.7875,457.2213,266.4903,462.5185,264.5055,452.67,264.42" style="stroke:#181818;stroke-width:1;"/><text fill="#000000" font-family="sans-serif" font-size="13" lengthAdjust="spacing" textLength="61.1851" x="515" y="362.2069">&#171;extend&#187;</text></g><!--reverse link UC2 to UC7--><g class="link" data-entity-1="UC2" data-entity-2="UC7" data-source-line="39" data-uid="lnk27" id="link_UC2_UC7"><path d="M452.3558,267.8048 C464.2158,273.1748 471.91,277.46 483,285.14 C498.24,295.7 496.92,304.91 513,314.14 C550.78,335.82 597.78,349.22 635.88,357.25" fill="none" id="UC2-backto-UC7" style="stroke:#181818;stroke-width:1;stroke-dasharray:7,7;"/><polygon fill="#181818" points="446.89,265.33,453.4388,272.6861,451.4449,267.3924,456.7386,265.3984,446.89,265.33" style="stroke:#181818;stroke-width:1;"/><text fill="#000000" font-family="sans-serif" font-size="13" lengthAdjust="spacing" textLength="61.1851" x="515" y="310.2069">&#171;extend&#187;</text></g><!--reverse link UC2 to UC9--><g class="link" data-entity-1="UC2" data-entity-2="UC9" data-source-line="40" data-uid="lnk28" id="link_UC2_UC9"><path d="M457.1103,266.3861 C475.5203,271.9861 492.34,276.41 513,280.14 C551.94,287.17 595.88,291.12 631.94,293.33" fill="none" id="UC2-backto-UC9" style="stroke:#181818;stroke-width:1;stroke-dasharray:7,7;"/><polygon fill="#181818" points="451.37,264.64,458.8164,271.086,456.1536,266.0951,461.1445,263.4323,451.37,264.64" style="stroke:#181818;stroke-width:1;"/><text fill="#000000" font-family="sans-serif" font-size="13" lengthAdjust="spacing" textLength="63.0068" x="514" y="276.2069">&#171;include&#187;</text></g><!--reverse link UC2 to UC10--><g class="link" data-entity-1="UC2" data-entity-2="UC10" data-source-line="41" data-uid="lnk29" id="link_UC2_UC10"><path d="M482.5796,254.5484 C513.2896,254.8984 544.67,254.09 578,250.14 C599.53,247.59 622.74,242.91 643.38,238.04" fill="none" id="UC2-backto-UC10" style="stroke:#181818;stroke-width:1;stroke-dasharray:7,7;"/><polygon fill="#181818" points="476.58,254.48,485.5338,258.5823,481.5797,254.537,485.625,250.5828,476.58,254.48" style="stroke:#181818;stroke-width:1;"/><text fill="#000000" font-family="sans-serif" font-size="13" lengthAdjust="spacing" textLength="61.1851" x="515" y="246.2069">&#171;extend&#187;</text></g><!--reverse link UC2 to UC11--><g class="link" data-entity-1="UC2" data-entity-2="UC11" data-source-line="42" data-uid="lnk30" id="link_UC2_UC11"><path d="M455.5632,237.528 C488.9932,225.828 534.17,209.76 578,193.14 C578.52,192.94 622.5,175.35 658.65,160.88" fill="none" id="UC2-backto-UC11" style="stroke:#181818;stroke-width:1;stroke-dasharray:7,7;"/><polygon fill="#181818" points="449.9,239.51,459.7161,240.3124,454.6193,237.8583,457.0734,232.7615,449.9,239.51" style="stroke:#181818;stroke-width:1;"/><text fill="#000000" font-family="sans-serif" font-size="13" lengthAdjust="spacing" textLength="61.1851" x="515" y="189.2069">&#171;extend&#187;</text></g><!--SRC=[XPFFJXj13CRlynHMBYG7A0k4FrKK2GNK7bgfGkG1d1adZ9ZiHFO48Qe-LH-15yCx2TlCbeXSDjxlvs_iiJVGF46Am7xnaC1v9fjyh8r1co93xzejVUqbCRh8N-2df-MC8nIlUu2oUVEUjSMoqFmtPeNs4HS4lMyaoR_-hS4Ht2CJIWz-6z3V0KnGeZJ2L2ByObzRly90akMra4LH1wj9d5FxWtp2T5AL13cVkiX91mbUw-r2foMqHBR8axXS1Khe_d5d9OSpzXidQP5Byr5J-hXHgn08-hVFYMhHooOPb7vC0QqAs3KTTfgGXBD0blXxP6GVM_2y11tDTLpy8reC_YLxj-X5YJufuPgcwtdmEisMk-fCGG6_MEknTsGZEzJ1xnHG7NUkIFpYlP_hgQoBQglA_37c0EwsVPDiDr7L5J82XNBZJ8xWy72SXxyRdHJHQH6T5T6mY2u_As2xqwPvjduxmNy61BIPSBFjVQqCzCuirTe2u8CEJByxXn0GshkqcSKdh5zqtGQcIHeT7JL7mLSOZRAX6uztXE4-uNoVSB5FkCg2VdLXxQXGgkDzELLLA6y0]--></g></svg>