<svg xmlns="http://www.w3.org/2000/svg" xmlns:xlink="http://www.w3.org/1999/xlink" contentStyleType="text/css" data-diagram-type="DESCRIPTION" height="420px" preserveAspectRatio="none" style="width:628px;height:420px;background:#FFFFFF;" version="1.1" viewBox="0 0 628 420" width="628px" zoomAndPan="magnify"><defs/><g><!--cluster Gesti?n de Tareas--><g class="cluster" data-entity="Gesti.n de Tareas" data-source-line="6" data-uid="ent0004" id="cluster_Gesti.n de Tareas"><path d="M154.5,26.23 L298.3369,26.23 A3.75,3.75 0 0 1 300.8369,28.73 L307.8369,48.5269 L618.5,48.5269 A2.5,2.5 0 0 1 621,51.0269 L621,403.73 A2.5,2.5 0 0 1 618.5,406.23 L154.5,406.23 A2.5,2.5 0 0 1 152,403.73 L152,28.73 A2.5,2.5 0 0 1 154.5,26.23" fill="none" style="stroke:#000000;stroke-width:1.5;"/><line style="stroke:#000000;stroke-width:1.5;" x1="152" x2="307.8369" y1="48.5269" y2="48.5269"/><text fill="#000000" font-family="sans-serif" font-size="14" font-weight="bold" lengthAdjust="spacing" textLength="142.8369" x="156" y="41.2251">Gesti&#243;n de Tareas</text></g><!--entity UC1--><g class="entity" data-entity="UC1" data-source-line="7" data-uid="ent0005" id="entity_UC1"><ellipse cx="238.7478" cy="130.1796" fill="#F1F1F1" rx="62.7478" ry="14.9496" style="stroke:#181818;stroke-width:0.5;"/><text fill="#000000" font-family="sans-serif" font-size="14" lengthAdjust="spacing" textLength="87.4043" x="195.0457" y="134.828">crearTarea()</text></g><!--entity UC2--><g class="entity" data-entity="UC2" data-source-line="8" data-uid="ent0006" id="entity_UC2"><ellipse cx="238.5298" cy="264.036" fill="#F1F1F1" rx="64.5298" ry="15.306" style="stroke:#181818;stroke-width:0.5;"/><text fill="#000000" font-family="sans-serif" font-size="14" lengthAdjust="spacing" textLength="92.2168" x="192.4214" y="268.6844">editarTarea()</text></g><!--entity UC3--><g class="entity" data-entity="UC3" data-source-line="9" data-uid="ent0007" id="entity_UC3"><ellipse cx="238.6978" cy="197.2696" fill="#F1F1F1" rx="70.6978" ry="16.5396" style="stroke:#181818;stroke-width:0.5;"/><text fill="#000000" font-family="sans-serif" font-size="14" lengthAdjust="spacing" textLength="108.1309" x="184.6324" y="201.918">eliminarTarea()</text></g><!--entity UC4--><g class="entity" data-entity="UC4" data-source-line="10" data-uid="ent0008" id="entity_UC4"><ellipse cx="518.526" cy="370.4352" fill="#F1F1F1" rx="86.526" ry="19.7052" style="stroke:#181818;stroke-width:0.5;"/><text fill="#000000" font-family="sans-serif" font-size="14" lengthAdjust="spacing" textLength="145.8311" x="445.6105" y="375.0836">marcarCompletada()</text></g><!--entity UC5--><g class="entity" data-entity="UC5" data-source-line="11" data-uid="ent0009" id="entity_UC5"><ellipse cx="518.5768" cy="297.4454" fill="#F1F1F1" rx="79.0768" ry="18.2154" style="stroke:#181818;stroke-width:0.5;"/><text fill="#000000" font-family="sans-serif" font-size="14" lengthAdjust="spacing" textLength="128.4951" x="454.3292" y="302.0938">relacionarTareas()</text></g><!--entity UC6--><g class="entity" data-entity="UC6" data-source-line="12" data-uid="ent0010" id="entity_UC6"><ellipse cx="518.2687" cy="80.0837" fill="#F1F1F1" rx="82.2687" ry="18.8537" style="stroke:#181818;stroke-width:0.5;"/><text fill="#000000" font-family="sans-serif" font-size="14" lengthAdjust="spacing" textLength="135.9941" x="450.2716" y="84.7322">establecerHorario()</text></g><!--entity UC7--><g class="entity" data-entity="UC7" data-source-line="13" data-uid="ent0011" id="entity_UC7"><ellipse cx="518.4842" cy="154.0268" fill="#F1F1F1" rx="84.4842" ry="19.2968" style="stroke:#181818;stroke-width:0.5;"/><text fill="#000000" font-family="sans-serif" font-size="14" lengthAdjust="spacing" textLength="141.1348" x="447.9169" y="158.6753">definirLocalizacion()</text></g><!--entity UC8--><g class="entity" data-entity="UC8" data-source-line="14" data-uid="ent0012" id="entity_UC8"><ellipse cx="238.6363" cy="330.4573" fill="#F1F1F1" rx="64.1363" ry="15.2273" style="stroke:#181818;stroke-width:0.5;"/><text fill="#000000" font-family="sans-serif" font-size="14" lengthAdjust="spacing" textLength="91.1641" x="193.0543" y="335.1057">abrirTareas()</text></g><!--entity UC9--><g class="entity" data-entity="UC9" data-source-line="15" data-uid="ent0013" id="entity_UC9"><ellipse cx="518.7169" cy="226.2734" fill="#F1F1F1" rx="75.7169" ry="17.5434" style="stroke:#181818;stroke-width:0.5;"/><text fill="#000000" font-family="sans-serif" font-size="14" lengthAdjust="spacing" textLength="120.4629" x="458.4855" y="230.9218">validarConflicto()</text></g><!--entity Admin--><g class="entity" data-entity="Admin" data-source-line="3" data-uid="ent0002" id="entity_Admin"><ellipse cx="55.54" cy="167.73" fill="#F1F1F1" rx="8" ry="8" style="stroke:#181818;stroke-width:0.5;"/><path d="M55.54,175.73 L55.54,202.73 M42.54,183.73 L68.54,183.73 M55.54,202.73 L42.54,217.73 M55.54,202.73 L68.54,217.73" fill="none" style="stroke:#181818;stroke-width:0.5;"/><text fill="#000000" font-family="sans-serif" font-size="14" lengthAdjust="spacing" textLength="99.0801" x="6" y="232.2251">Administrador</text></g><!--entity Miem--><g class="entity" data-entity="Miem" data-source-line="4" data-uid="ent0003" id="entity_Miem"><ellipse cx="55.7139" cy="347.73" fill="#F1F1F1" rx="8" ry="8" style="stroke:#181818;stroke-width:0.5;"/><path d="M55.7139,355.73 L55.7139,382.73 M42.7139,363.73 L68.7139,363.73 M55.7139,382.73 L42.7139,397.73 M55.7139,382.73 L68.7139,397.73" fill="none" style="stroke:#181818;stroke-width:0.5;"/><text fill="#000000" font-family="sans-serif" font-size="14" lengthAdjust="spacing" textLength="61.4277" x="25" y="412.2251">Miembro</text></g><!--link Admin to UC1--><g class="link" data-entity-1="Admin" data-entity-2="UC1" data-source-line="18" data-uid="lnk14" id="link_Admin_UC1"><path d="M105.45,177.9 C117.99,173.03 131.47,167.87 144,163.23 C163.05,156.17 178.7347,150.5859 196.2247,144.4859" fill="none" id="Admin-to-UC1" style="stroke:#181818;stroke-width:1;"/><polygon fill="#181818" points="201.89,142.51,192.0748,141.697,197.1689,144.1566,194.7093,149.2507,201.89,142.51" style="stroke:#181818;stroke-width:1;"/></g><!--link Admin to UC3--><g class="link" data-entity-1="Admin" data-entity-2="UC3" data-source-line="19" data-uid="lnk15" id="link_Admin_UC3"><path d="M105,197.23 C124.27,197.23 140.8,197.23 161.76,197.23" fill="none" id="Admin-to-UC3" style="stroke:#181818;stroke-width:1;"/><polygon fill="#181818" points="167.76,197.23,158.76,193.23,162.76,197.23,158.76,201.23,167.76,197.23" style="stroke:#181818;stroke-width:1;"/></g><!--link Admin to UC4--><g class="link" data-entity-1="Admin" data-entity-2="UC4" data-source-line="20" data-uid="lnk16" id="link_Admin_UC4"><path d="M79.04,159.17 C94.36,137.03 116.77,110.87 144,97.23 C246.7,45.79 316.08,6 402,82.23 C443.86,119.36 398.76,287.22 432,332.23 C439.53,342.42 444.9917,347.3318 456.4817,352.8518" fill="none" id="Admin-to-UC4" style="stroke:#181818;stroke-width:1;"/><polygon fill="#181818" points="461.89,355.45,455.5098,347.9472,457.3831,353.2848,452.0455,355.1582,461.89,355.45" style="stroke:#181818;stroke-width:1;"/></g><!--link Admin to UC8--><g class="link" data-entity-1="Admin" data-entity-2="UC8" data-source-line="21" data-uid="lnk17" id="link_Admin_UC8"><path d="M82.29,235.29 C98.02,256.05 119.75,280.79 144,297.23 C158.68,307.18 170.9604,312.6472 187.2404,317.8072" fill="none" id="Admin-to-UC8" style="stroke:#181818;stroke-width:1;"/><polygon fill="#181818" points="192.96,319.62,185.5892,313.0877,188.1937,318.1093,183.1721,320.7138,192.96,319.62" style="stroke:#181818;stroke-width:1;"/></g><!--reverse link UC2 to Admin--><g class="link" data-entity-1="UC2" data-entity-2="Admin" data-source-line="22" data-uid="lnk19" id="link_UC2_Admin"><path d="M194.8858,249.511 C177.6558,243.491 162.56,238.11 144,231.23 C131.47,226.59 117.99,221.43 105.45,216.56" fill="none" id="UC2-backto-Admin" style="stroke:#181818;stroke-width:1;"/><polygon fill="#181818" points="200.55,251.49,193.373,244.7453,195.8298,249.8408,190.7343,252.2976,200.55,251.49" style="stroke:#181818;stroke-width:1;"/></g><!--link Miem to UC8--><g class="link" data-entity-1="Miem" data-entity-2="UC8" data-source-line="24" data-uid="lnk20" id="link_Miem_UC8"><path d="M86.39,369.47 C116.01,361.78 155.8523,351.4267 189.2323,342.7667" fill="none" id="Miem-to-UC8" style="stroke:#181818;stroke-width:1;"/><polygon fill="#181818" points="195.04,341.26,185.3239,339.6483,190.2002,342.5156,187.3329,347.3919,195.04,341.26" style="stroke:#181818;stroke-width:1;"/></g><!--link Miem to UC4--><g class="link" data-entity-1="Miem" data-entity-2="UC4" data-source-line="25" data-uid="lnk21" id="link_Miem_UC4"><path d="M86.04,376.78 C154.7,375.74 321.1707,373.2109 426.0807,371.6209" fill="none" id="Miem-to-UC4" style="stroke:#181818;stroke-width:1;"/><polygon fill="#181818" points="432.08,371.53,423.0204,367.6668,427.0806,371.6058,423.1416,375.6659,432.08,371.53" style="stroke:#181818;stroke-width:1;"/></g><!--reverse link UC2 to UC5--><g class="link" data-entity-1="UC2" data-entity-2="UC5" data-source-line="28" data-uid="lnk22" id="link_UC2_UC5"><path d="M289.1542,276.8286 C306.4042,280.8386 320.6,283.65 339,286.23 C371.9,290.85 408.48,293.53 439.92,295.09" fill="none" id="UC2-backto-UC5" style="stroke:#181818;stroke-width:1;stroke-dasharray:7,7;"/><polygon fill="#181818" points="283.31,275.47,291.1705,281.4039,288.1801,276.6021,292.982,273.6117,283.31,275.47" style="stroke:#181818;stroke-width:1;"/><text fill="#000000" font-family="sans-serif" font-size="13" lengthAdjust="spacing" textLength="61.1851" x="340" y="282.2969">&#171;extend&#187;</text></g><!--reverse link UC2 to UC4--><g class="link" data-entity-1="UC2" data-entity-2="UC4" data-source-line="29" data-uid="lnk23" id="link_UC2_UC4"><path d="M276.3108,280.2778 C288.4608,285.8678 296.88,290.18 309,297.23 C323.07,305.42 324.32,311.19 339,318.23 C375.53,335.74 419.14,348.58 454.11,357.12" fill="none" id="UC2-backto-UC4" style="stroke:#181818;stroke-width:1;stroke-dasharray:7,7;"/><polygon fill="#181818" points="270.86,277.77,277.3643,285.1656,275.4023,279.8598,280.708,277.8979,270.86,277.77" style="stroke:#181818;stroke-width:1;"/><text fill="#000000" font-family="sans-serif" font-size="13" lengthAdjust="spacing" textLength="61.1851" x="340" y="314.2969">&#171;extend&#187;</text></g><!--reverse link UC2 to UC9--><g class="link" data-entity-1="UC2" data-entity-2="UC9" data-source-line="30" data-uid="lnk24" id="link_UC2_UC9"><path d="M301.0347,255.8169 C346.5847,249.5869 405.17,241.58 452.99,235.05" fill="none" id="UC2-backto-UC9" style="stroke:#181818;stroke-width:1;stroke-dasharray:7,7;"/><polygon fill="#181818" points="295.09,256.63,304.549,259.3735,300.0439,255.9524,303.4649,251.4473,295.09,256.63" style="stroke:#181818;stroke-width:1;"/><text fill="#000000" font-family="sans-serif" font-size="13" lengthAdjust="spacing" textLength="61.1851" x="340" y="239.2969">&#171;extend&#187;</text></g><!--reverse link UC1 to UC6--><g class="link" data-entity-1="UC1" data-entity-2="UC6" data-source-line="31" data-uid="lnk25" id="link_UC1_UC6"><path d="M294.7853,120.2883 C340.5053,112.0683 402.86,100.85 452.89,91.85" fill="none" id="UC1-backto-UC6" style="stroke:#181818;stroke-width:1;stroke-dasharray:7,7;"/><polygon fill="#181818" points="288.88,121.35,298.4458,123.6943,293.8011,120.4652,297.0302,115.8205,288.88,121.35" style="stroke:#181818;stroke-width:1;"/><text fill="#000000" font-family="sans-serif" font-size="13" lengthAdjust="spacing" textLength="61.1851" x="340" y="99.2969">&#171;extend&#187;</text></g><!--reverse link UC1 to UC7--><g class="link" data-entity-1="UC1" data-entity-2="UC7" data-source-line="32" data-uid="lnk26" id="link_UC1_UC7"><path d="M278.2295,144.824 C297.3395,151.444 316.33,156.89 339,160.23 C372.59,165.18 410.1,164.8 442.04,162.74" fill="none" id="UC1-backto-UC7" style="stroke:#181818;stroke-width:1;stroke-dasharray:7,7;"/><polygon fill="#181818" points="272.56,142.86,279.7549,149.5856,277.2845,144.4967,282.3735,142.0263,272.56,142.86" style="stroke:#181818;stroke-width:1;"/><text fill="#000000" font-family="sans-serif" font-size="13" lengthAdjust="spacing" textLength="61.1851" x="340" y="156.2969">&#171;extend&#187;</text></g><!--SRC=[TPBDJiCm383lUGgh5-2mITlAVb1L2Uq01xWWU00lyOP5sanEG0Z4K_48l1Xfj9Mb4ZdL_huuZHrBsm31WV3kEO1X8HtOjKgX3awWk3ODj-o3e75I07f8cIE-PsesuXBelfNQetx17K5nGpxmptSBXk0HXT0NyAaWhbTF6drKTCnAOkSNgSJJUf8RP3WCbUb0iHn_Q2ZDSgb1qIXhr-mj1JH_NfbxGXPrlF-XdE-zoy6XFk36aYQvTOB2hXVdkMXe6_idTqwZvOzKkrSNkOeRuU6nornvYqLCTuzsQpbEeFTMwakfD1aOZUhKnzDebaLb5YsFaOrF8MMcIdMpxFb9K2fr1W-79f7lPallWLhVJLh5hL2Dnrsxu0ggAY5JroUW_0-iCW2HJ0vaFjno18iC_080]--></g></svg>