<svg xmlns="http://www.w3.org/2000/svg" xmlns:xlink="http://www.w3.org/1999/xlink" contentStyleType="text/css" data-diagram-type="DESCRIPTION" height="551px" preserveAspectRatio="none" style="width:719px;height:551px;background:#FFFFFF;" version="1.1" viewBox="0 0 719 551" width="719px" zoomAndPan="magnify"><defs/><g><!--cluster Gesti?n de Tareas--><g class="cluster" data-entity="Gesti.n de Tareas" data-source-line="13" data-uid="ent0007" id="cluster_Gesti.n de Tareas"><rect fill="none" height="538" rx="2.5" ry="2.5" style="stroke:#181818;stroke-width:1;" width="495" x="218" y="7"/><text fill="#000000" font-family="sans-serif" font-size="14" font-weight="bold" lengthAdjust="spacing" textLength="142.8369" x="394.0815" y="21.9951">Gesti&#243;n de Tareas</text></g><!--entity UC8--><g class="entity" data-entity="UC8" data-source-line="14" data-uid="ent0008" id="entity_UC8"><ellipse cx="304.6363" cy="394.2273" fill="#F1F1F1" rx="64.1363" ry="15.2273" style="stroke:#181818;stroke-width:0.5;"/><text fill="#000000" font-family="sans-serif" font-size="14" lengthAdjust="spacing" textLength="91.1641" x="259.0543" y="398.8757">abrirTareas()</text></g><!--entity UC4--><g class="entity" data-entity="UC4" data-source-line="15" data-uid="ent0009" id="entity_UC4"><ellipse cx="598.526" cy="509.2052" fill="#F1F1F1" rx="86.526" ry="19.7052" style="stroke:#181818;stroke-width:0.5;"/><text fill="#000000" font-family="sans-serif" font-size="14" lengthAdjust="spacing" textLength="145.8311" x="525.6105" y="513.8536">marcarCompletada()</text></g><!--entity UC1--><g class="entity" data-entity="UC1" data-source-line="16" data-uid="ent0010" id="entity_UC1"><ellipse cx="304.7478" cy="213.9496" fill="#F1F1F1" rx="62.7478" ry="14.9496" style="stroke:#181818;stroke-width:0.5;"/><text fill="#000000" font-family="sans-serif" font-size="14" lengthAdjust="spacing" textLength="87.4043" x="261.0457" y="218.598">crearTarea()</text></g><!--entity UC2--><g class="entity" data-entity="UC2" data-source-line="17" data-uid="ent0011" id="entity_UC2"><ellipse cx="304.5298" cy="279.806" fill="#F1F1F1" rx="64.5298" ry="15.306" style="stroke:#181818;stroke-width:0.5;"/><text fill="#000000" font-family="sans-serif" font-size="14" lengthAdjust="spacing" textLength="92.2168" x="258.4214" y="284.4544">editarTarea()</text></g><!--entity UC3--><g class="entity" data-entity="UC3" data-source-line="18" data-uid="ent0012" id="entity_UC3"><ellipse cx="304.6978" cy="147.0396" fill="#F1F1F1" rx="70.6978" ry="16.5396" style="stroke:#181818;stroke-width:0.5;"/><text fill="#000000" font-family="sans-serif" font-size="14" lengthAdjust="spacing" textLength="108.1309" x="250.6324" y="151.688">eliminarTarea()</text></g><!--entity UC5--><g class="entity" data-entity="UC5" data-source-line="19" data-uid="ent0013" id="entity_UC5"><ellipse cx="598.5768" cy="60.2154" fill="#F1F1F1" rx="79.0768" ry="18.2154" style="stroke:#181818;stroke-width:0.5;"/><text fill="#000000" font-family="sans-serif" font-size="14" lengthAdjust="spacing" textLength="128.4951" x="534.3292" y="64.8638">relacionarTareas()</text></g><!--entity UC6--><g class="entity" data-entity="UC6" data-source-line="22" data-uid="ent0014" id="entity_UC6"><ellipse cx="598.2687" cy="434.8537" fill="#F1F1F1" rx="82.2687" ry="18.8537" style="stroke:#181818;stroke-width:0.5;"/><text fill="#000000" font-family="sans-serif" font-size="14" lengthAdjust="spacing" textLength="135.9941" x="530.2716" y="439.5022">establecerHorario()</text></g><!--entity UC7--><g class="entity" data-entity="UC7" data-source-line="23" data-uid="ent0015" id="entity_UC7"><ellipse cx="598.4842" cy="360.7968" fill="#F1F1F1" rx="84.4842" ry="19.2968" style="stroke:#181818;stroke-width:0.5;"/><text fill="#000000" font-family="sans-serif" font-size="14" lengthAdjust="spacing" textLength="141.1348" x="527.9169" y="365.4453">definirLocalizacion()</text></g><!--entity UC9--><g class="entity" data-entity="UC9" data-source-line="24" data-uid="ent0016" id="entity_UC9"><ellipse cx="598.7169" cy="289.0434" fill="#F1F1F1" rx="75.7169" ry="17.5434" style="stroke:#181818;stroke-width:0.5;"/><text fill="#000000" font-family="sans-serif" font-size="14" lengthAdjust="spacing" textLength="120.4629" x="538.4855" y="293.6918">validarConflicto()</text></g><!--entity UC10--><g class="entity" data-entity="UC10" data-source-line="25" data-uid="ent0017" id="entity_UC10"><ellipse cx="598.533" cy="214.1066" fill="#F1F1F1" rx="98.533" ry="22.1066" style="stroke:#181818;stroke-width:0.5;"/><text fill="#000000" font-family="sans-serif" font-size="14" lengthAdjust="spacing" textLength="172.8193" x="512.1233" y="218.755">configurarRecordatorio()</text></g><!--entity UC11--><g class="entity" data-entity="UC11" data-source-line="26" data-uid="ent0018" id="entity_UC11"><ellipse cx="598.2996" cy="134.9599" fill="#F1F1F1" rx="95.2996" ry="21.4599" style="stroke:#181818;stroke-width:0.5;"/><text fill="#000000" font-family="sans-serif" font-size="14" lengthAdjust="spacing" textLength="165.6416" x="515.4788" y="139.6084">asignarTareaAUsuario()</text></g><!--entity Admin--><g class="entity" data-entity="Admin" data-source-line="5" data-uid="ent0002" id="entity_Admin"><ellipse cx="88.54" cy="73.5" fill="#F1F1F1" rx="8" ry="8" style="stroke:#181818;stroke-width:0.5;"/><path d="M88.54,81.5 L88.54,108.5 M75.54,89.5 L101.54,89.5 M88.54,108.5 L75.54,123.5 M88.54,108.5 L101.54,123.5" fill="none" style="stroke:#181818;stroke-width:0.5;"/><text fill="#000000" font-family="sans-serif" font-size="14" lengthAdjust="spacing" textLength="99.0801" x="39" y="137.9951">Administrador</text></g><!--entity MiemAdmin--><g class="entity" data-entity="MiemAdmin" data-source-line="6" data-uid="ent0003" id="entity_MiemAdmin"><ellipse cx="88.479" cy="184.5" fill="#F1F1F1" rx="8" ry="8" style="stroke:#181818;stroke-width:0.5;"/><path d="M88.479,192.5 L88.479,219.5 M75.479,200.5 L101.479,200.5 M88.479,219.5 L75.479,234.5 M88.479,219.5 L101.479,234.5" fill="none" style="stroke:#181818;stroke-width:0.5;"/><text fill="#000000" font-family="sans-serif" font-size="14" lengthAdjust="spacing" textLength="164.958" x="6" y="248.9951">Miembro Administrador</text></g><!--entity Miem--><g class="entity" data-entity="Miem" data-source-line="7" data-uid="ent0004" id="entity_Miem"><ellipse cx="88.7139" cy="364.5" fill="#F1F1F1" rx="8" ry="8" style="stroke:#181818;stroke-width:0.5;"/><path d="M88.7139,372.5 L88.7139,399.5 M75.7139,380.5 L101.7139,380.5 M88.7139,399.5 L75.7139,414.5 M88.7139,399.5 L101.7139,414.5" fill="none" style="stroke:#181818;stroke-width:0.5;"/><text fill="#000000" font-family="sans-serif" font-size="14" lengthAdjust="spacing" textLength="61.4277" x="58" y="428.9951">Miembro</text></g><!--link Admin to MiemAdmin--><g class="link" data-entity-1="Admin" data-entity-2="MiemAdmin" data-source-line="10" data-uid="lnk5" id="link_Admin_MiemAdmin"><path d="M88.5,141.13 C88.5,152.7 88.5,146.27 88.5,157.84" fill="none" id="Admin-to-MiemAdmin" style="stroke:#181818;stroke-width:1;"/><polygon fill="none" points="88.5,175.84,94.5,157.84,82.5,157.84,88.5,175.84" style="stroke:#181818;stroke-width:1;"/></g><!--link MiemAdmin to Miem--><g class="link" data-entity-1="MiemAdmin" data-entity-2="Miem" data-source-line="11" data-uid="lnk6" id="link_MiemAdmin_Miem"><path d="M88.5,252.19 C88.5,286.68 88.5,303.18 88.5,337.68" fill="none" id="MiemAdmin-to-Miem" style="stroke:#181818;stroke-width:1;"/><polygon fill="none" points="88.5,355.68,94.5,337.68,82.5,337.68,88.5,355.68" style="stroke:#181818;stroke-width:1;"/></g><!--link Miem to UC8--><g class="link" data-entity-1="Miem" data-entity-2="UC8" data-source-line="32" data-uid="lnk19" id="link_Miem_UC8"><path d="M119.26,394 C150.38,394 194.17,394 234.15,394" fill="none" id="Miem-to-UC8" style="stroke:#181818;stroke-width:1;"/><polygon fill="#181818" points="240.15,394,231.15,390,235.15,394,231.15,398,240.15,394" style="stroke:#181818;stroke-width:1;"/></g><!--link Miem to UC4--><g class="link" data-entity-1="Miem" data-entity-2="UC4" data-source-line="33" data-uid="lnk20" id="link_Miem_UC4"><path d="M119.09,402.62 C143.4,409.59 178.8,419.43 210,427 C322.6,454.31 448.9627,480.0324 526.2127,495.2224" fill="none" id="Miem-to-UC4" style="stroke:#181818;stroke-width:1;"/><polygon fill="#181818" points="532.1,496.38,524.0409,490.7187,527.1939,495.4153,522.4973,498.5684,532.1,496.38" style="stroke:#181818;stroke-width:1;"/></g><!--link MiemAdmin to UC1--><g class="link" data-entity-1="MiemAdmin" data-entity-2="UC1" data-source-line="36" data-uid="lnk21" id="link_MiemAdmin_UC1"><path d="M171.01,214 C194.52,214 213.77,214 235.85,214" fill="none" id="MiemAdmin-to-UC1" style="stroke:#181818;stroke-width:1;"/><polygon fill="#181818" points="241.85,214,232.85,210,236.85,214,232.85,218,241.85,214" style="stroke:#181818;stroke-width:1;"/></g><!--link MiemAdmin to UC2--><g class="link" data-entity-1="MiemAdmin" data-entity-2="UC2" data-source-line="37" data-uid="lnk22" id="link_MiemAdmin_UC2"><path d="M171.01,239.14 C202.91,248.98 232.2769,258.0305 258.3269,266.0705" fill="none" id="MiemAdmin-to-UC2" style="stroke:#181818;stroke-width:1;"/><polygon fill="#181818" points="264.06,267.84,256.6399,261.3637,259.2824,266.3654,254.2806,269.0079,264.06,267.84" style="stroke:#181818;stroke-width:1;"/></g><!--link MiemAdmin to UC3--><g class="link" data-entity-1="MiemAdmin" data-entity-2="UC3" data-source-line="38" data-uid="lnk23" id="link_MiemAdmin_UC3"><path d="M171.01,188.48 C201.84,178.83 229.9446,170.0343 255.6946,161.9643" fill="none" id="MiemAdmin-to-UC3" style="stroke:#181818;stroke-width:1;"/><polygon fill="#181818" points="261.42,160.17,251.6357,159.0446,256.6488,161.6653,254.0281,166.6784,261.42,160.17" style="stroke:#181818;stroke-width:1;"/></g><!--link MiemAdmin to UC5--><g class="link" data-entity-1="MiemAdmin" data-entity-2="UC5" data-source-line="39" data-uid="lnk24" id="link_MiemAdmin_UC5"><path d="M148.74,175.96 C156.47,170.24 164.09,164.18 171,158 C190.73,140.36 186.73,125.6 210,113 C308.37,59.73 434.6118,52.9211 516.3918,54.9511" fill="none" id="MiemAdmin-to-UC5" style="stroke:#181818;stroke-width:1;"/><polygon fill="#181818" points="522.39,55.1,513.492,50.8779,517.3915,54.9759,513.2935,58.8754,522.39,55.1" style="stroke:#181818;stroke-width:1;"/></g><!--reverse link UC2 to UC4--><g class="link" data-entity-1="UC2" data-entity-2="UC4" data-source-line="42" data-uid="lnk25" id="link_UC2_UC4"><path d="M323.9796,299.5896 C338.6396,315.3996 357.55,336.8 375,361 C390.16,382.02 386.96,392.4 405,411 C439.94,447.02 455.19,449.42 500,472 C515.52,479.82 533.11,486.98 549.04,492.87" fill="none" id="UC2-backto-UC4" style="stroke:#181818;stroke-width:1;stroke-dasharray:7,7;"/><polygon fill="#181818" points="319.9,295.19,323.0863,304.5092,323.2997,298.8564,328.9525,299.0697,319.9,295.19" style="stroke:#181818;stroke-width:1;"/><text fill="#000000" font-family="sans-serif" font-size="13" lengthAdjust="spacing" textLength="61.1851" x="407" y="407.0669">&#171;extend&#187;</text></g><!--reverse link UC2 to UC5--><g class="link" data-entity-1="UC2" data-entity-2="UC5" data-source-line="43" data-uid="lnk26" id="link_UC2_UC5"><path d="M349.4666,265.0132 C360.6766,259.8332 366.67,255.31 375,246 C401.42,216.44 380.9,193.48 405,162 C436.25,121.18 454.41,119.76 500,96 C516,87.66 534.38,80.34 550.83,74.52" fill="none" id="UC2-backto-UC5" style="stroke:#181818;stroke-width:1;stroke-dasharray:7,7;"/><polygon fill="#181818" points="344.02,267.53,353.8678,267.3859,348.5588,265.4327,350.5121,260.1237,344.02,267.53" style="stroke:#181818;stroke-width:1;"/><text fill="#000000" font-family="sans-serif" font-size="13" lengthAdjust="spacing" textLength="61.1851" x="407" y="108.0669">&#171;extend&#187;</text></g><!--reverse link UC2 to UC6--><g class="link" data-entity-1="UC2" data-entity-2="UC6" data-source-line="44" data-uid="lnk27" id="link_UC2_UC6"><path d="M328.0483,298.9061 C347.3883,314.7761 374.84,336.06 405,354 C444.99,377.79 457.11,379.96 500,398 C517.19,405.23 536.33,412.63 553.07,418.9" fill="none" id="UC2-backto-UC6" style="stroke:#181818;stroke-width:1;stroke-dasharray:7,7;"/><polygon fill="#181818" points="323.41,295.1,327.83,303.9013,327.2752,298.2717,332.9048,297.7169,323.41,295.1" style="stroke:#181818;stroke-width:1;"/><text fill="#000000" font-family="sans-serif" font-size="13" lengthAdjust="spacing" textLength="61.1851" x="407" y="350.0669">&#171;extend&#187;</text></g><!--reverse link UC2 to UC7--><g class="link" data-entity-1="UC2" data-entity-2="UC7" data-source-line="45" data-uid="lnk28" id="link_UC2_UC7"><path d="M349.3591,294.1645 C367.8291,300.0245 384.64,305.19 405,311 C450.16,323.89 501.66,337.2 540.03,346.84" fill="none" id="UC2-backto-UC7" style="stroke:#181818;stroke-width:1;stroke-dasharray:7,7;"/><polygon fill="#181818" points="343.64,292.35,351.0089,298.8844,348.4059,293.8621,353.4282,291.259,343.64,292.35" style="stroke:#181818;stroke-width:1;"/><text fill="#000000" font-family="sans-serif" font-size="13" lengthAdjust="spacing" textLength="61.1851" x="407" y="307.0669">&#171;extend&#187;</text></g><!--link UC2 to UC9--><g class="link" data-entity-1="UC2" data-entity-2="UC9" data-source-line="46" data-uid="lnk29" id="link_UC2_UC9"><path d="M368.5,281.94 C414.02,283.34 469.6629,285.0545 517.5229,286.5345" fill="none" id="UC2-to-UC9" style="stroke:#181818;stroke-width:1;stroke-dasharray:7,7;"/><polygon fill="#181818" points="523.52,286.72,514.6479,282.4437,518.5224,286.5655,514.4007,290.4399,523.52,286.72" style="stroke:#181818;stroke-width:1;"/><text fill="#000000" font-family="sans-serif" font-size="13" lengthAdjust="spacing" textLength="63.0068" x="406" y="280.0669">&#171;include&#187;</text></g><!--reverse link UC2 to UC10--><g class="link" data-entity-1="UC2" data-entity-2="UC10" data-source-line="47" data-uid="lnk30" id="link_UC2_UC10"><path d="M357.9422,268.1465 C405.5222,257.3865 474.08,241.9 528.49,229.6" fill="none" id="UC2-backto-UC10" style="stroke:#181818;stroke-width:1;stroke-dasharray:7,7;"/><polygon fill="#181818" points="352.09,269.47,361.7506,271.3863,356.9668,268.3671,359.986,263.5833,352.09,269.47" style="stroke:#181818;stroke-width:1;"/><text fill="#000000" font-family="sans-serif" font-size="13" lengthAdjust="spacing" textLength="61.1851" x="407" y="240.0669">&#171;extend&#187;</text></g><!--reverse link UC2 to UC11--><g class="link" data-entity-1="UC2" data-entity-2="UC11" data-source-line="48" data-uid="lnk31" id="link_UC2_UC11"><path d="M343.0981,264.0049 C355.2181,258.3549 363.42,253.82 375,246 C389.87,235.96 390.07,228.94 405,219 C443.88,193.1 457.18,192.68 500,174 C515.87,167.07 533.39,159.92 549.15,153.66" fill="none" id="UC2-backto-UC11" style="stroke:#181818;stroke-width:1;stroke-dasharray:7,7;"/><polygon fill="#181818" points="337.66,266.54,347.5073,266.3628,342.1918,264.4274,344.1271,259.1119,337.66,266.54" style="stroke:#181818;stroke-width:1;"/><text fill="#000000" font-family="sans-serif" font-size="13" lengthAdjust="spacing" textLength="61.1851" x="407" y="183.0669">&#171;extend&#187;</text></g><!--SRC=[TPF1Rjim38RlVWeYboP07THjqwv1423BOHtGNRhr0HYPSONAKYR9nPfjJzL7w8kDLcB7SfOSOaZ_HueKVobQU_06h2oUFUJIal3IwCIzIBr1YoLiKBnWGT_zcoAePTI5eYGvWpHDOI6yiUG0bTI4kN7mRApS6krHbQGz0O92aDkVbIIROnsKO1q4WqLUIYsTjnnd1u0EmauZVvDKhgo1OwnM_eUsObtTFLdIGYAG4wYCHZxyK1iCGm98vuTipMAKx9VXKj8_7IJfm96Q9FjxWi4NSbv-l6l82NwW9NG3-9q0_of70XqZkBBIxhJXA5JzjFmK8oLQWNPfoeqYpxMtt7NC2KwoIzKIMKnGBdqVkUmXId9BVUWgXYmf5EmDx5S-2LpuEuCbEZO1jruvKtzohbwnN-BpdCUL8a7stbYqqhIvRc8mfpNFtZuO7g7SXkDRz3P6Nvd8wnlJQoNP5Yrtrxim1cHHyR6F90nRaXtKAI2xw8tAoQ9fUV7aggZQB4l-DY_XSNyz5BfltaLjTmOQBmy_Sz8fEACCl9A5Dn3x2TjHy1O7p8CPEelhReReDS2mCTiKWX7EOJTj_kv7UWw7kOswzWsfiwETowETgwETITFpmyTx8GNM3NVQ_yhFtchSDSyPOJOUrst056Op-kL9v_DvHvYS4cvE2RV7mdXSLtON1Ac5gdAAGhABKycoB5B-0G00]--></g></svg>