<svg xmlns="http://www.w3.org/2000/svg" xmlns:xlink="http://www.w3.org/1999/xlink" contentStyleType="text/css" data-diagram-type="DESCRIPTION" height="403px" preserveAspectRatio="none" style="width:628px;height:403px;background:#FFFFFF;" version="1.1" viewBox="0 0 628 403" width="628px" zoomAndPan="magnify"><defs/><g><!--cluster Gesti?n de Tareas--><g class="cluster" data-entity="Gesti.n de Tareas" data-source-line="5" data-uid="ent0004" id="cluster_Gesti.n de Tareas"><path d="M154.5,44.26 L298.3369,44.26 A3.75,3.75 0 0 1 300.8369,46.76 L307.8369,66.5569 L618.5,66.5569 A2.5,2.5 0 0 1 621,69.0569 L621,351.76 A2.5,2.5 0 0 1 618.5,354.26 L154.5,354.26 A2.5,2.5 0 0 1 152,351.76 L152,46.76 A2.5,2.5 0 0 1 154.5,44.26" fill="none" style="stroke:#000000;stroke-width:1.5;"/><line style="stroke:#000000;stroke-width:1.5;" x1="152" x2="307.8369" y1="66.5569" y2="66.5569"/><text fill="#000000" font-family="sans-serif" font-size="14" font-weight="bold" lengthAdjust="spacing" textLength="142.8369" x="156" y="59.2551">Gesti&#243;n de Tareas</text></g><!--entity UC1--><g class="entity" data-entity="UC1" data-source-line="6" data-uid="ent0005" id="entity_UC1"><ellipse cx="238.7478" cy="113.2096" fill="#F1F1F1" rx="62.7478" ry="14.9496" style="stroke:#181818;stroke-width:0.5;"/><text fill="#000000" font-family="sans-serif" font-size="14" lengthAdjust="spacing" textLength="87.4043" x="195.0457" y="117.858">crearTarea()</text></g><!--entity UC2--><g class="entity" data-entity="UC2" data-source-line="7" data-uid="ent0006" id="entity_UC2"><ellipse cx="238.5298" cy="247.066" fill="#F1F1F1" rx="64.5298" ry="15.306" style="stroke:#181818;stroke-width:0.5;"/><text fill="#000000" font-family="sans-serif" font-size="14" lengthAdjust="spacing" textLength="92.2168" x="192.4214" y="251.7144">editarTarea()</text></g><!--entity UC3--><g class="entity" data-entity="UC3" data-source-line="8" data-uid="ent0007" id="entity_UC3"><ellipse cx="238.6978" cy="180.2996" fill="#F1F1F1" rx="70.6978" ry="16.5396" style="stroke:#181818;stroke-width:0.5;"/><text fill="#000000" font-family="sans-serif" font-size="14" lengthAdjust="spacing" textLength="108.1309" x="184.6324" y="184.948">eliminarTarea()</text></g><!--entity UC4--><g class="entity" data-entity="UC4" data-source-line="9" data-uid="ent0008" id="entity_UC4"><ellipse cx="518.526" cy="318.4652" fill="#F1F1F1" rx="86.526" ry="19.7052" style="stroke:#181818;stroke-width:0.5;"/><text fill="#000000" font-family="sans-serif" font-size="14" lengthAdjust="spacing" textLength="145.8311" x="445.6105" y="323.1136">marcarCompletada()</text></g><!--entity UC5--><g class="entity" data-entity="UC5" data-source-line="10" data-uid="ent0009" id="entity_UC5"><ellipse cx="518.5768" cy="245.4754" fill="#F1F1F1" rx="79.0768" ry="18.2154" style="stroke:#181818;stroke-width:0.5;"/><text fill="#000000" font-family="sans-serif" font-size="14" lengthAdjust="spacing" textLength="128.4951" x="454.3292" y="250.1238">relacionarTareas()</text></g><!--entity UC6--><g class="entity" data-entity="UC6" data-source-line="11" data-uid="ent0010" id="entity_UC6"><ellipse cx="518.2687" cy="173.1137" fill="#F1F1F1" rx="82.2687" ry="18.8537" style="stroke:#181818;stroke-width:0.5;"/><text fill="#000000" font-family="sans-serif" font-size="14" lengthAdjust="spacing" textLength="135.9941" x="450.2716" y="177.7622">establecerHorario()</text></g><!--entity UC7--><g class="entity" data-entity="UC7" data-source-line="12" data-uid="ent0011" id="entity_UC7"><ellipse cx="518.4842" cy="99.0568" fill="#F1F1F1" rx="84.4842" ry="19.2968" style="stroke:#181818;stroke-width:0.5;"/><text fill="#000000" font-family="sans-serif" font-size="14" lengthAdjust="spacing" textLength="141.1348" x="447.9169" y="103.7053">definirLocalizacion()</text></g><!--entity UC8--><g class="entity" data-entity="UC8" data-source-line="13" data-uid="ent0012" id="entity_UC8"><ellipse cx="238.6363" cy="313.4873" fill="#F1F1F1" rx="64.1363" ry="15.2273" style="stroke:#181818;stroke-width:0.5;"/><text fill="#000000" font-family="sans-serif" font-size="14" lengthAdjust="spacing" textLength="91.1641" x="193.0543" y="318.1357">abrirTareas()</text></g><!--entity Admin--><g class="entity" data-entity="Admin" data-source-line="2" data-uid="ent0002" id="entity_Admin"><ellipse cx="55.54" cy="150.76" fill="#F1F1F1" rx="8" ry="8" style="stroke:#181818;stroke-width:0.5;"/><path d="M55.54,158.76 L55.54,185.76 M42.54,166.76 L68.54,166.76 M55.54,185.76 L42.54,200.76 M55.54,185.76 L68.54,200.76" fill="none" style="stroke:#181818;stroke-width:0.5;"/><text fill="#000000" font-family="sans-serif" font-size="14" lengthAdjust="spacing" textLength="99.0801" x="6" y="215.2551">Administrador</text></g><!--entity Miem--><g class="entity" data-entity="Miem" data-source-line="3" data-uid="ent0003" id="entity_Miem"><ellipse cx="55.7139" cy="330.76" fill="#F1F1F1" rx="8" ry="8" style="stroke:#181818;stroke-width:0.5;"/><path d="M55.7139,338.76 L55.7139,365.76 M42.7139,346.76 L68.7139,346.76 M55.7139,365.76 L42.7139,380.76 M55.7139,365.76 L68.7139,380.76" fill="none" style="stroke:#181818;stroke-width:0.5;"/><text fill="#000000" font-family="sans-serif" font-size="14" lengthAdjust="spacing" textLength="61.4277" x="25" y="395.2551">Miembro</text></g><!--link Admin to UC1--><g class="link" data-entity-1="Admin" data-entity-2="UC1" data-source-line="16" data-uid="lnk13" id="link_Admin_UC1"><path d="M105.45,160.93 C117.99,156.06 131.47,150.9 144,146.26 C163.05,139.2 178.7347,133.6159 196.2247,127.5159" fill="none" id="Admin-to-UC1" style="stroke:#181818;stroke-width:1;"/><polygon fill="#181818" points="201.89,125.54,192.0748,124.727,197.1689,127.1866,194.7093,132.2807,201.89,125.54" style="stroke:#181818;stroke-width:1;"/></g><!--link Admin to UC3--><g class="link" data-entity-1="Admin" data-entity-2="UC3" data-source-line="17" data-uid="lnk14" id="link_Admin_UC3"><path d="M105,180.26 C124.27,180.26 140.8,180.26 161.76,180.26" fill="none" id="Admin-to-UC3" style="stroke:#181818;stroke-width:1;"/><polygon fill="#181818" points="167.76,180.26,158.76,176.26,162.76,180.26,158.76,184.26,167.76,180.26" style="stroke:#181818;stroke-width:1;"/></g><!--link Admin to UC4--><g class="link" data-entity-1="Admin" data-entity-2="UC4" data-source-line="18" data-uid="lnk15" id="link_Admin_UC4"><path d="M78.17,142.22 C93.37,119.63 115.96,92.99 144,80.26 C248.42,32.88 315.49,6 402,81.26 C469.48,139.97 377.79,209.11 432,280.26 C439.68,290.34 445.2099,295.2056 456.6999,300.7156" fill="none" id="Admin-to-UC4" style="stroke:#181818;stroke-width:1;"/><polygon fill="#181818" points="462.11,303.31,455.7245,295.8117,457.6016,301.148,452.2653,303.0251,462.11,303.31" style="stroke:#181818;stroke-width:1;"/></g><!--link Admin to UC8--><g class="link" data-entity-1="Admin" data-entity-2="UC8" data-source-line="19" data-uid="lnk16" id="link_Admin_UC8"><path d="M82.29,218.32 C98.02,239.08 119.75,263.82 144,280.26 C158.68,290.21 170.9604,295.6772 187.2404,300.8372" fill="none" id="Admin-to-UC8" style="stroke:#181818;stroke-width:1;"/><polygon fill="#181818" points="192.96,302.65,185.5892,296.1177,188.1937,301.1393,183.1721,303.7438,192.96,302.65" style="stroke:#181818;stroke-width:1;"/></g><!--reverse link UC2 to Admin--><g class="link" data-entity-1="UC2" data-entity-2="Admin" data-source-line="20" data-uid="lnk18" id="link_UC2_Admin"><path d="M194.8858,232.541 C177.6558,226.521 162.56,221.14 144,214.26 C131.47,209.62 117.99,204.46 105.45,199.59" fill="none" id="UC2-backto-Admin" style="stroke:#181818;stroke-width:1;"/><polygon fill="#181818" points="200.55,234.52,193.373,227.7753,195.8298,232.8708,190.7343,235.3276,200.55,234.52" style="stroke:#181818;stroke-width:1;"/></g><!--link Miem to UC8--><g class="link" data-entity-1="Miem" data-entity-2="UC8" data-source-line="21" data-uid="lnk19" id="link_Miem_UC8"><path d="M86.39,352.5 C116.01,344.81 155.8523,334.4567 189.2323,325.7967" fill="none" id="Miem-to-UC8" style="stroke:#181818;stroke-width:1;"/><polygon fill="#181818" points="195.04,324.29,185.3239,322.6783,190.2002,325.5456,187.3329,330.4219,195.04,324.29" style="stroke:#181818;stroke-width:1;"/></g><!--link Miem to UC4--><g class="link" data-entity-1="Miem" data-entity-2="UC4" data-source-line="22" data-uid="lnk20" id="link_Miem_UC4"><path d="M86.1,359.37 C133.32,357.78 228.58,353.88 309,346.26 C355,341.9 400.5125,335.8838 440.7925,330.0238" fill="none" id="Miem-to-UC4" style="stroke:#181818;stroke-width:1;"/><polygon fill="#181818" points="446.73,329.16,437.2479,326.4974,441.7821,329.8798,438.3996,334.414,446.73,329.16" style="stroke:#181818;stroke-width:1;"/></g><!--reverse link UC2 to UC5--><g class="link" data-entity-1="UC2" data-entity-2="UC5" data-source-line="23" data-uid="lnk21" id="link_UC2_UC5"><path d="M309.2798,246.757 C349.7598,246.467 396.41,246.13 439.39,245.82" fill="none" id="UC2-backto-UC5" style="stroke:#181818;stroke-width:1;stroke-dasharray:7,7;"/><polygon fill="#181818" points="303.28,246.8,312.3084,250.7354,308.2799,246.7642,312.2511,242.7356,303.28,246.8" style="stroke:#181818;stroke-width:1;"/><text fill="#000000" font-family="sans-serif" font-size="13" lengthAdjust="spacing" textLength="61.1851" x="340" y="242.3269">&#171;extend&#187;</text></g><!--reverse link UC2 to UC4--><g class="link" data-entity-1="UC2" data-entity-2="UC4" data-source-line="24" data-uid="lnk22" id="link_UC2_UC4"><path d="M289.0532,259.9155 C336.9132,272.1455 407.99,290.29 460.53,303.71" fill="none" id="UC2-backto-UC4" style="stroke:#181818;stroke-width:1;stroke-dasharray:7,7;"/><polygon fill="#181818" points="283.24,258.43,290.9695,264.5337,288.0843,259.6679,292.9501,256.7828,283.24,258.43" style="stroke:#181818;stroke-width:1;"/><text fill="#000000" font-family="sans-serif" font-size="13" lengthAdjust="spacing" textLength="61.1851" x="340" y="271.3269">&#171;extend&#187;</text></g><!--reverse link UC1 to UC6--><g class="link" data-entity-1="UC1" data-entity-2="UC6" data-source-line="25" data-uid="lnk23" id="link_UC1_UC6"><path d="M291.585,124.5057 C338.755,134.6857 406.29,149.26 457.82,160.38" fill="none" id="UC1-backto-UC6" style="stroke:#181818;stroke-width:1;stroke-dasharray:7,7;"/><polygon fill="#181818" points="285.72,123.24,293.6736,129.0486,290.6075,124.2948,295.3613,121.2286,285.72,123.24" style="stroke:#181818;stroke-width:1;"/><text fill="#000000" font-family="sans-serif" font-size="13" lengthAdjust="spacing" textLength="61.1851" x="340" y="132.3269">&#171;extend&#187;</text></g><!--reverse link UC1 to UC7--><g class="link" data-entity-1="UC1" data-entity-2="UC7" data-source-line="26" data-uid="lnk24" id="link_UC1_UC7"><path d="M305.8124,109.9186 C345.5824,107.9186 392.16,105.57 435.67,103.38" fill="none" id="UC1-backto-UC7" style="stroke:#181818;stroke-width:1;stroke-dasharray:7,7;"/><polygon fill="#181818" points="299.82,110.22,309.0095,113.7629,304.8137,109.9689,308.6077,105.773,299.82,110.22" style="stroke:#181818;stroke-width:1;"/><text fill="#000000" font-family="sans-serif" font-size="13" lengthAdjust="spacing" textLength="61.1851" x="340" y="102.3269">&#171;extend&#187;</text></g><!--SRC=[VP91JiCm44NtESKeArYqKcbeArH5Gbt00dPmW8azBIESk1eR2O4u5KVWOZXk2MaSrQlelwV9wDk6jXwy1U7TYmVDGigpRJ9KtWhajxhcXfqNr5PoG0Sn-SEFJ7KbDeBsEyiWd3sgLzmHv7VaFFzyDw09db08NGwVKMdFcoE5BcWg48dyuZAEUjxCKeiq-w5sDQ8P3WiEnNagrYWAPMFhlI6F-jyjKbV8e0gr7CUwphqUMS1vh0mfadihA6mxUP7AchQXNtcm2Wr_n7zq-ZBLiH8Uhh2AsjUX-dWxC9cKNOVzP9uaHPAi-ea9hoEcXwBRApxHUi5XKZ1XFPsspS0DhDVqxgdHPJc0nHYS7U7Y75oUm5y0]--></g></svg>