<svg xmlns="http://www.w3.org/2000/svg" xmlns:xlink="http://www.w3.org/1999/xlink" contentStyleType="text/css" data-diagram-type="DESCRIPTION" height="576px" preserveAspectRatio="none" style="width:652px;height:576px;background:#FFFFFF;" version="1.1" viewBox="0 0 652 576" width="652px" zoomAndPan="magnify"><defs/><g><!--cluster Gesti?n de Tareas--><g class="cluster" data-entity="Gesti.n de Tareas" data-source-line="6" data-uid="ent0004" id="cluster_Gesti.n de Tareas"><path d="M154.5,6 L298.3369,6 A3.75,3.75 0 0 1 300.8369,8.5 L307.8369,28.2969 L642.5,28.2969 A2.5,2.5 0 0 1 645,30.7969 L645,540.5 A2.5,2.5 0 0 1 642.5,543 L154.5,543 A2.5,2.5 0 0 1 152,540.5 L152,8.5 A2.5,2.5 0 0 1 154.5,6" fill="none" style="stroke:#000000;stroke-width:1.5;"/><line style="stroke:#000000;stroke-width:1.5;" x1="152" x2="307.8369" y1="28.2969" y2="28.2969"/><text fill="#000000" font-family="sans-serif" font-size="14" font-weight="bold" lengthAdjust="spacing" textLength="142.8369" x="156" y="20.9951">Gesti&#243;n de Tareas</text></g><!--entity UC1--><g class="entity" data-entity="UC1" data-source-line="8" data-uid="ent0005" id="entity_UC1"><ellipse cx="238.7478" cy="382.9496" fill="#F1F1F1" rx="62.7478" ry="14.9496" style="stroke:#181818;stroke-width:0.5;"/><text fill="#000000" font-family="sans-serif" font-size="14" lengthAdjust="spacing" textLength="87.4043" x="195.0457" y="387.598">crearTarea()</text></g><!--entity UC2--><g class="entity" data-entity="UC2" data-source-line="9" data-uid="ent0006" id="entity_UC2"><ellipse cx="238.5298" cy="248.806" fill="#F1F1F1" rx="64.5298" ry="15.306" style="stroke:#181818;stroke-width:0.5;"/><text fill="#000000" font-family="sans-serif" font-size="14" lengthAdjust="spacing" textLength="92.2168" x="192.4214" y="253.4544">editarTarea()</text></g><!--entity UC3--><g class="entity" data-entity="UC3" data-source-line="10" data-uid="ent0007" id="entity_UC3"><ellipse cx="238.6978" cy="316.0396" fill="#F1F1F1" rx="70.6978" ry="16.5396" style="stroke:#181818;stroke-width:0.5;"/><text fill="#000000" font-family="sans-serif" font-size="14" lengthAdjust="spacing" textLength="108.1309" x="184.6324" y="320.688">eliminarTarea()</text></g><!--entity UC4--><g class="entity" data-entity="UC4" data-source-line="11" data-uid="ent0008" id="entity_UC4"><ellipse cx="530.526" cy="132.2052" fill="#F1F1F1" rx="86.526" ry="19.7052" style="stroke:#181818;stroke-width:0.5;"/><text fill="#000000" font-family="sans-serif" font-size="14" lengthAdjust="spacing" textLength="145.8311" x="457.6105" y="136.8536">marcarCompletada()</text></g><!--entity UC8--><g class="entity" data-entity="UC8" data-source-line="12" data-uid="ent0009" id="entity_UC8"><ellipse cx="238.6363" cy="448.2273" fill="#F1F1F1" rx="64.1363" ry="15.2273" style="stroke:#181818;stroke-width:0.5;"/><text fill="#000000" font-family="sans-serif" font-size="14" lengthAdjust="spacing" textLength="91.1641" x="193.0543" y="452.8757">abrirTareas()</text></g><!--entity UC5--><g class="entity" data-entity="UC5" data-source-line="15" data-uid="ent0010" id="entity_UC5"><ellipse cx="530.5768" cy="59.2154" fill="#F1F1F1" rx="79.0768" ry="18.2154" style="stroke:#181818;stroke-width:0.5;"/><text fill="#000000" font-family="sans-serif" font-size="14" lengthAdjust="spacing" textLength="128.4951" x="466.3292" y="63.8638">relacionarTareas()</text></g><!--entity UC6--><g class="entity" data-entity="UC6" data-source-line="16" data-uid="ent0011" id="entity_UC6"><ellipse cx="530.2687" cy="507.8537" fill="#F1F1F1" rx="82.2687" ry="18.8537" style="stroke:#181818;stroke-width:0.5;"/><text fill="#000000" font-family="sans-serif" font-size="14" lengthAdjust="spacing" textLength="135.9941" x="462.2716" y="512.5022">establecerHorario()</text></g><!--entity UC7--><g class="entity" data-entity="UC7" data-source-line="17" data-uid="ent0012" id="entity_UC7"><ellipse cx="530.4842" cy="433.7968" fill="#F1F1F1" rx="84.4842" ry="19.2968" style="stroke:#181818;stroke-width:0.5;"/><text fill="#000000" font-family="sans-serif" font-size="14" lengthAdjust="spacing" textLength="141.1348" x="459.9169" y="438.4453">definirLocalizacion()</text></g><!--entity UC9--><g class="entity" data-entity="UC9" data-source-line="18" data-uid="ent0013" id="entity_UC9"><ellipse cx="530.7169" cy="362.0434" fill="#F1F1F1" rx="75.7169" ry="17.5434" style="stroke:#181818;stroke-width:0.5;"/><text fill="#000000" font-family="sans-serif" font-size="14" lengthAdjust="spacing" textLength="120.4629" x="470.4855" y="366.6918">validarConflicto()</text></g><!--entity UC10--><g class="entity" data-entity="UC10" data-source-line="19" data-uid="ent0014" id="entity_UC10"><ellipse cx="530.533" cy="287.1066" fill="#F1F1F1" rx="98.533" ry="22.1066" style="stroke:#181818;stroke-width:0.5;"/><text fill="#000000" font-family="sans-serif" font-size="14" lengthAdjust="spacing" textLength="172.8193" x="444.1233" y="291.755">configurarRecordatorio()</text></g><!--entity UC11--><g class="entity" data-entity="UC11" data-source-line="20" data-uid="ent0015" id="entity_UC11"><ellipse cx="530.2996" cy="207.9599" fill="#F1F1F1" rx="95.2996" ry="21.4599" style="stroke:#181818;stroke-width:0.5;"/><text fill="#000000" font-family="sans-serif" font-size="14" lengthAdjust="spacing" textLength="165.6416" x="447.4788" y="212.6084">asignarTareaAUsuario()</text></g><!--entity Admin--><g class="entity" data-entity="Admin" data-source-line="3" data-uid="ent0002" id="entity_Admin"><ellipse cx="55.54" cy="286.5" fill="#F1F1F1" rx="8" ry="8" style="stroke:#181818;stroke-width:0.5;"/><path d="M55.54,294.5 L55.54,321.5 M42.54,302.5 L68.54,302.5 M55.54,321.5 L42.54,336.5 M55.54,321.5 L68.54,336.5" fill="none" style="stroke:#181818;stroke-width:0.5;"/><text fill="#000000" font-family="sans-serif" font-size="14" lengthAdjust="spacing" textLength="99.0801" x="6" y="350.9951">Administrador</text></g><!--entity Miem--><g class="entity" data-entity="Miem" data-source-line="4" data-uid="ent0003" id="entity_Miem"><ellipse cx="55.7139" cy="465.5" fill="#F1F1F1" rx="8" ry="8" style="stroke:#181818;stroke-width:0.5;"/><path d="M55.7139,473.5 L55.7139,500.5 M42.7139,481.5 L68.7139,481.5 M55.7139,500.5 L42.7139,515.5 M55.7139,500.5 L68.7139,515.5" fill="none" style="stroke:#181818;stroke-width:0.5;"/><text fill="#000000" font-family="sans-serif" font-size="14" lengthAdjust="spacing" textLength="61.4277" x="25" y="529.9951">Miembro</text></g><!--link Admin to UC1--><g class="link" data-entity-1="Admin" data-entity-2="UC1" data-source-line="24" data-uid="lnk16" id="link_Admin_UC1"><path d="M105.45,335.33 C117.99,340.2 131.47,345.36 144,350 C163.05,357.06 178.7347,362.6441 196.2247,368.7441" fill="none" id="Admin-to-UC1" style="stroke:#181818;stroke-width:1;"/><polygon fill="#181818" points="201.89,370.72,194.7093,363.9793,197.1689,369.0734,192.0748,371.533,201.89,370.72" style="stroke:#181818;stroke-width:1;"/></g><!--link Admin to UC2--><g class="link" data-entity-1="Admin" data-entity-2="UC2" data-source-line="25" data-uid="lnk17" id="link_Admin_UC2"><path d="M105.45,296.67 C117.99,291.8 131.47,286.64 144,282 C162.56,275.12 177.6558,269.739 194.8858,263.719" fill="none" id="Admin-to-UC2" style="stroke:#181818;stroke-width:1;"/><polygon fill="#181818" points="200.55,261.74,190.7343,260.9324,195.8298,263.3892,193.373,268.4847,200.55,261.74" style="stroke:#181818;stroke-width:1;"/></g><!--link Admin to UC3--><g class="link" data-entity-1="Admin" data-entity-2="UC3" data-source-line="26" data-uid="lnk18" id="link_Admin_UC3"><path d="M105,316 C124.27,316 140.8,316 161.76,316" fill="none" id="Admin-to-UC3" style="stroke:#181818;stroke-width:1;"/><polygon fill="#181818" points="167.76,316,158.76,312,162.76,316,158.76,320,167.76,316" style="stroke:#181818;stroke-width:1;"/></g><!--link Admin to UC4--><g class="link" data-entity-1="Admin" data-entity-2="UC4" data-source-line="27" data-uid="lnk19" id="link_Admin_UC4"><path d="M85.21,277.84 C101.21,258.04 122.26,234.24 144,216 C221.6,150.89 241.43,125.22 339,98 C390.29,83.69 445.473,98.0207 484.353,112.6207" fill="none" id="Admin-to-UC4" style="stroke:#181818;stroke-width:1;"/><polygon fill="#181818" points="489.97,114.73,482.9506,107.8214,485.2891,112.9723,480.1383,115.3108,489.97,114.73" style="stroke:#181818;stroke-width:1;"/></g><!--link Admin to UC8--><g class="link" data-entity-1="Admin" data-entity-2="UC8" data-source-line="28" data-uid="lnk20" id="link_Admin_UC8"><path d="M82.73,354.16 C98.46,374.61 120.03,398.84 144,415 C158.7,424.91 170.9907,430.3761 187.2607,435.5361" fill="none" id="Admin-to-UC8" style="stroke:#181818;stroke-width:1;"/><polygon fill="#181818" points="192.98,437.35,185.6103,430.8164,188.2139,435.8385,183.1919,438.4421,192.98,437.35" style="stroke:#181818;stroke-width:1;"/></g><!--link Miem to UC4--><g class="link" data-entity-1="Miem" data-entity-2="UC4" data-source-line="31" data-uid="lnk21" id="link_Miem_UC4"><path d="M86.25,505.87 C152.66,528 314.09,569.67 402,488 C454.16,439.54 388.86,225.64 432,169 C440.34,158.05 446.8018,152.7057 459.5218,147.2757" fill="none" id="Miem-to-UC4" style="stroke:#181818;stroke-width:1;"/><polygon fill="#181818" points="465.04,144.92,455.1922,144.7747,460.4415,146.883,458.3331,152.1323,465.04,144.92" style="stroke:#181818;stroke-width:1;"/></g><!--link Miem to UC8--><g class="link" data-entity-1="Miem" data-entity-2="UC8" data-source-line="32" data-uid="lnk22" id="link_Miem_UC8"><path d="M86.39,487.24 C116.01,479.55 155.8523,469.1967 189.2323,460.5367" fill="none" id="Miem-to-UC8" style="stroke:#181818;stroke-width:1;"/><polygon fill="#181818" points="195.04,459.03,185.3239,457.4183,190.2002,460.2856,187.3329,465.1619,195.04,459.03" style="stroke:#181818;stroke-width:1;"/></g><!--reverse link UC2 to UC4--><g class="link" data-entity-1="UC2" data-entity-2="UC4" data-source-line="35" data-uid="lnk23" id="link_UC2_UC4"><path d="M276.5827,233.1847 C314.6127,217.0347 374.99,191.66 432,169 C449.16,162.18 468.13,154.92 484.73,148.65" fill="none" id="UC2-backto-UC4" style="stroke:#181818;stroke-width:1;stroke-dasharray:7,7;"/><polygon fill="#181818" points="271.06,235.53,280.9075,235.6939,275.6622,233.5756,277.7805,228.3303,271.06,235.53" style="stroke:#181818;stroke-width:1;"/><text fill="#000000" font-family="sans-serif" font-size="13" lengthAdjust="spacing" textLength="61.1851" x="340" y="178.0669">&#171;extend&#187;</text></g><!--reverse link UC2 to UC5--><g class="link" data-entity-1="UC2" data-entity-2="UC5" data-source-line="36" data-uid="lnk24" id="link_UC2_UC5"><path d="M258.1521,229.5772 C288.3221,198.8272 357.24,133.05 432,95 C448.24,86.73 466.84,79.39 483.42,73.52" fill="none" id="UC2-backto-UC5" style="stroke:#181818;stroke-width:1;stroke-dasharray:7,7;"/><polygon fill="#181818" points="253.95,233.86,263.1083,230.2371,257.4517,230.291,257.3979,224.6344,253.95,233.86" style="stroke:#181818;stroke-width:1;"/><text fill="#000000" font-family="sans-serif" font-size="13" lengthAdjust="spacing" textLength="61.1851" x="340" y="111.0669">&#171;extend&#187;</text></g><!--reverse link UC2 to UC6--><g class="link" data-entity-1="UC2" data-entity-2="UC6" data-source-line="37" data-uid="lnk25" id="link_UC2_UC6"><path d="M285.7819,263.3253 C296.5319,268.2653 301.71,272.61 309,282 C351.52,336.72 294.49,381.89 339,435 C368.92,470.7 418.36,488.98 459.38,498.32" fill="none" id="UC2-backto-UC6" style="stroke:#181818;stroke-width:1;stroke-dasharray:7,7;"/><polygon fill="#181818" points="280.33,260.82,286.8376,268.2126,284.8733,262.9078,290.1781,260.9434,280.33,260.82" style="stroke:#181818;stroke-width:1;"/><text fill="#000000" font-family="sans-serif" font-size="13" lengthAdjust="spacing" textLength="61.1851" x="340" y="431.0669">&#171;extend&#187;</text></g><!--reverse link UC2 to UC7--><g class="link" data-entity-1="UC2" data-entity-2="UC7" data-source-line="38" data-uid="lnk26" id="link_UC2_UC7"><path d="M284.3434,263.5802 C295.3134,268.5602 300.96,272.89 309,282 C337.18,313.93 308.76,343.02 339,373 C369.33,403.07 414.49,418.33 453.23,426.07" fill="none" id="UC2-backto-UC7" style="stroke:#181818;stroke-width:1;stroke-dasharray:7,7;"/><polygon fill="#181818" points="278.88,261.1,285.4216,268.4625,283.4328,263.1668,288.7285,261.178,278.88,261.1" style="stroke:#181818;stroke-width:1;"/><text fill="#000000" font-family="sans-serif" font-size="13" lengthAdjust="spacing" textLength="61.1851" x="340" y="369.0669">&#171;extend&#187;</text></g><!--reverse link UC2 to UC9--><g class="link" data-entity-1="UC2" data-entity-2="UC9" data-source-line="39" data-uid="lnk27" id="link_UC2_UC9"><path d="M280.4921,264.351 C292.0321,269.541 298.97,273.8 309,282 C326.21,296.06 320.26,310.06 339,322 C373.77,344.15 418.67,354.27 456.14,358.8" fill="none" id="UC2-backto-UC9" style="stroke:#181818;stroke-width:1;stroke-dasharray:7,7;"/><polygon fill="#181818" points="275.02,261.89,281.5874,269.2295,279.5801,263.9408,284.8688,261.9335,275.02,261.89" style="stroke:#181818;stroke-width:1;"/><text fill="#000000" font-family="sans-serif" font-size="13" lengthAdjust="spacing" textLength="61.1851" x="340" y="318.0669">&#171;extend&#187;</text></g><!--reverse link UC2 to UC10--><g class="link" data-entity-1="UC2" data-entity-2="UC10" data-source-line="40" data-uid="lnk28" id="link_UC2_UC10"><path d="M271.0148,265.7568 C290.5848,275.4668 312.97,284.85 339,290 C371.77,296.49 408.34,297.39 440.6,296.1" fill="none" id="UC2-backto-UC10" style="stroke:#181818;stroke-width:1;stroke-dasharray:7,7;"/><polygon fill="#181818" points="265.64,263.09,271.9243,270.6734,270.119,265.3123,275.48,263.507,265.64,263.09" style="stroke:#181818;stroke-width:1;"/><text fill="#000000" font-family="sans-serif" font-size="13" lengthAdjust="spacing" textLength="61.1851" x="340" y="286.0669">&#171;extend&#187;</text></g><!--reverse link UC2 to UC11--><g class="link" data-entity-1="UC2" data-entity-2="UC11" data-source-line="41" data-uid="lnk29" id="link_UC2_UC11"><path d="M306.2175,243.8806 C336.8275,241.2206 368.48,237.92 402,233 C421.08,230.2 441.64,226.48 460.56,222.77" fill="none" id="UC2-backto-UC11" style="stroke:#181818;stroke-width:1;stroke-dasharray:7,7;"/><polygon fill="#181818" points="300.24,244.4,309.5525,247.6058,305.2212,243.9671,308.8599,239.6359,300.24,244.4" style="stroke:#181818;stroke-width:1;"/><text fill="#000000" font-family="sans-serif" font-size="13" lengthAdjust="spacing" textLength="61.1851" x="340" y="229.0669">&#171;extend&#187;</text></g><!--SRC=[XPFFJXin4CRlVefHBYG74Ck_08eYeRHg3qL2Y3p0n9w4KPrrD7PGHTMdwYFmOioQiCJRhjYBT_Rx-VECPzRJCa4A8BnwJE1Oo2OEjJ5eKn0OtBWrrnoJe0io08oGlxpBjqphXOGiDE_6RD3-n1N1u1l5n2z_Qt043oY4SG2_3UXp03EC8JR2F0Qu4wujRz1JpF8saiMe3bOtITuw7EKJvhEg9CXnwY8d7SIpvjk5JajeZM9HPc6zyPJGVN1d9OSBuJUds2ANvdz5wV95hRmd67xzbQYEUgiKHwMVa4Uh0dPDppj5n8GBJvRaUn0K3YruKOAEbjek-H4iUdxEtYqwBj4d9LnJTBtqhDrikQjE5nJWrLQFlISRnA4sVY-1whXpHP5Nx_NSpEEsoBQgp1zZ3k1-LpV5tSYfka5180_5n9aSmU7XD3T_FpefejCYEYkYoy-Et4snQTRMOI_unu20tdhQpFTGSm6z9Kkr9Wtug2tINyeXU8JszcncyGdhPnsmaMasJOwEcgFW6YQJREYcqptXl4-uw1F6VS9Ldr0TzofLeRm2]--></g></svg>