<svg xmlns="http://www.w3.org/2000/svg" xmlns:xlink="http://www.w3.org/1999/xlink" contentStyleType="text/css" data-diagram-type="DESCRIPTION" height="572px" preserveAspectRatio="none" style="width:652px;height:572px;background:#FFFFFF;" version="1.1" viewBox="0 0 652 572" width="652px" zoomAndPan="magnify"><defs/><g><!--cluster Gesti?n de Tareas--><g class="cluster" data-entity="Gesti.n de Tareas" data-source-line="6" data-uid="ent0004" id="cluster_Gesti.n de Tareas"><path d="M154.5,27.9 L298.3369,27.9 A3.75,3.75 0 0 1 300.8369,30.4 L307.8369,50.1969 L642.5,50.1969 A2.5,2.5 0 0 1 645,52.6969 L645,563.4 A2.5,2.5 0 0 1 642.5,565.9 L154.5,565.9 A2.5,2.5 0 0 1 152,563.4 L152,30.4 A2.5,2.5 0 0 1 154.5,27.9" fill="none" style="stroke:#000000;stroke-width:1.5;"/><line style="stroke:#000000;stroke-width:1.5;" x1="152" x2="307.8369" y1="50.1969" y2="50.1969"/><text fill="#000000" font-family="sans-serif" font-size="14" font-weight="bold" lengthAdjust="spacing" textLength="142.8369" x="156" y="42.8951">Gesti&#243;n de Tareas</text></g><!--entity UC1--><g class="entity" data-entity="UC1" data-source-line="8" data-uid="ent0005" id="entity_UC1"><ellipse cx="238.7478" cy="399.8496" fill="#F1F1F1" rx="62.7478" ry="14.9496" style="stroke:#181818;stroke-width:0.5;"/><text fill="#000000" font-family="sans-serif" font-size="14" lengthAdjust="spacing" textLength="87.4043" x="195.0457" y="404.498">crearTarea()</text></g><!--entity UC2--><g class="entity" data-entity="UC2" data-source-line="9" data-uid="ent0006" id="entity_UC2"><ellipse cx="238.5298" cy="265.706" fill="#F1F1F1" rx="64.5298" ry="15.306" style="stroke:#181818;stroke-width:0.5;"/><text fill="#000000" font-family="sans-serif" font-size="14" lengthAdjust="spacing" textLength="92.2168" x="192.4214" y="270.3544">editarTarea()</text></g><!--entity UC3--><g class="entity" data-entity="UC3" data-source-line="10" data-uid="ent0007" id="entity_UC3"><ellipse cx="238.6978" cy="332.9396" fill="#F1F1F1" rx="70.6978" ry="16.5396" style="stroke:#181818;stroke-width:0.5;"/><text fill="#000000" font-family="sans-serif" font-size="14" lengthAdjust="spacing" textLength="108.1309" x="184.6324" y="337.588">eliminarTarea()</text></g><!--entity UC4--><g class="entity" data-entity="UC4" data-source-line="11" data-uid="ent0008" id="entity_UC4"><ellipse cx="530.526" cy="530.1052" fill="#F1F1F1" rx="86.526" ry="19.7052" style="stroke:#181818;stroke-width:0.5;"/><text fill="#000000" font-family="sans-serif" font-size="14" lengthAdjust="spacing" textLength="145.8311" x="457.6105" y="534.7536">marcarCompletada()</text></g><!--entity UC8--><g class="entity" data-entity="UC8" data-source-line="12" data-uid="ent0009" id="entity_UC8"><ellipse cx="238.6363" cy="470.1273" fill="#F1F1F1" rx="64.1363" ry="15.2273" style="stroke:#181818;stroke-width:0.5;"/><text fill="#000000" font-family="sans-serif" font-size="14" lengthAdjust="spacing" textLength="91.1641" x="193.0543" y="474.7757">abrirTareas()</text></g><!--entity UC5--><g class="entity" data-entity="UC5" data-source-line="15" data-uid="ent0010" id="entity_UC5"><ellipse cx="530.5768" cy="81.1154" fill="#F1F1F1" rx="79.0768" ry="18.2154" style="stroke:#181818;stroke-width:0.5;"/><text fill="#000000" font-family="sans-serif" font-size="14" lengthAdjust="spacing" textLength="128.4951" x="466.3292" y="85.7638">relacionarTareas()</text></g><!--entity UC6--><g class="entity" data-entity="UC6" data-source-line="16" data-uid="ent0011" id="entity_UC6"><ellipse cx="530.2687" cy="455.7537" fill="#F1F1F1" rx="82.2687" ry="18.8537" style="stroke:#181818;stroke-width:0.5;"/><text fill="#000000" font-family="sans-serif" font-size="14" lengthAdjust="spacing" textLength="135.9941" x="462.2716" y="460.4022">establecerHorario()</text></g><!--entity UC7--><g class="entity" data-entity="UC7" data-source-line="17" data-uid="ent0012" id="entity_UC7"><ellipse cx="530.4842" cy="381.6968" fill="#F1F1F1" rx="84.4842" ry="19.2968" style="stroke:#181818;stroke-width:0.5;"/><text fill="#000000" font-family="sans-serif" font-size="14" lengthAdjust="spacing" textLength="141.1348" x="459.9169" y="386.3453">definirLocalizacion()</text></g><!--entity UC9--><g class="entity" data-entity="UC9" data-source-line="18" data-uid="ent0013" id="entity_UC9"><ellipse cx="530.7169" cy="309.9434" fill="#F1F1F1" rx="75.7169" ry="17.5434" style="stroke:#181818;stroke-width:0.5;"/><text fill="#000000" font-family="sans-serif" font-size="14" lengthAdjust="spacing" textLength="120.4629" x="470.4855" y="314.5918">validarConflicto()</text></g><!--entity UC10--><g class="entity" data-entity="UC10" data-source-line="19" data-uid="ent0014" id="entity_UC10"><ellipse cx="530.533" cy="235.0066" fill="#F1F1F1" rx="98.533" ry="22.1066" style="stroke:#181818;stroke-width:0.5;"/><text fill="#000000" font-family="sans-serif" font-size="14" lengthAdjust="spacing" textLength="172.8193" x="444.1233" y="239.655">configurarRecordatorio()</text></g><!--entity UC11--><g class="entity" data-entity="UC11" data-source-line="20" data-uid="ent0015" id="entity_UC11"><ellipse cx="530.2996" cy="155.8599" fill="#F1F1F1" rx="95.2996" ry="21.4599" style="stroke:#181818;stroke-width:0.5;"/><text fill="#000000" font-family="sans-serif" font-size="14" lengthAdjust="spacing" textLength="165.6416" x="447.4788" y="160.5084">asignarTareaAUsuario()</text></g><!--entity Admin--><g class="entity" data-entity="Admin" data-source-line="3" data-uid="ent0002" id="entity_Admin"><ellipse cx="55.54" cy="270.4" fill="#F1F1F1" rx="8" ry="8" style="stroke:#181818;stroke-width:0.5;"/><path d="M55.54,278.4 L55.54,305.4 M42.54,286.4 L68.54,286.4 M55.54,305.4 L42.54,320.4 M55.54,305.4 L68.54,320.4" fill="none" style="stroke:#181818;stroke-width:0.5;"/><text fill="#000000" font-family="sans-serif" font-size="14" lengthAdjust="spacing" textLength="99.0801" x="6" y="334.8951">Administrador</text></g><!--entity Miem--><g class="entity" data-entity="Miem" data-source-line="4" data-uid="ent0003" id="entity_Miem"><ellipse cx="55.7139" cy="480.4" fill="#F1F1F1" rx="8" ry="8" style="stroke:#181818;stroke-width:0.5;"/><path d="M55.7139,488.4 L55.7139,515.4 M42.7139,496.4 L68.7139,496.4 M55.7139,515.4 L42.7139,530.4 M55.7139,515.4 L68.7139,530.4" fill="none" style="stroke:#181818;stroke-width:0.5;"/><text fill="#000000" font-family="sans-serif" font-size="14" lengthAdjust="spacing" textLength="61.4277" x="25" y="544.8951">Miembro</text></g><!--link Admin to UC1--><g class="link" data-entity-1="Admin" data-entity-2="UC1" data-source-line="24" data-uid="lnk16" id="link_Admin_UC1"><path d="M100.96,338.23 C114.23,348.46 129.2,358.88 144,366.9 C160.5,375.84 174.1905,381.3056 191.0305,386.7456" fill="none" id="Admin-to-UC1" style="stroke:#181818;stroke-width:1;"/><polygon fill="#181818" points="196.74,388.59,189.4054,382.0171,191.9821,387.053,186.9462,389.6297,196.74,388.59" style="stroke:#181818;stroke-width:1;"/></g><!--link Admin to UC2--><g class="link" data-entity-1="Admin" data-entity-2="UC2" data-source-line="25" data-uid="lnk17" id="link_Admin_UC2"><path d="M105,290.79 C130.45,286.01 155.6933,281.2686 181.3833,276.4386" fill="none" id="Admin-to-UC2" style="stroke:#181818;stroke-width:1;"/><polygon fill="#181818" points="187.28,275.33,177.6959,273.0618,182.3661,276.2539,179.1741,280.9241,187.28,275.33" style="stroke:#181818;stroke-width:1;"/></g><!--link Admin to UC3--><g class="link" data-entity-1="Admin" data-entity-2="UC3" data-source-line="26" data-uid="lnk18" id="link_Admin_UC3"><path d="M105,308.74 C128.88,313.1 151.8677,317.2818 176.5577,321.7918" fill="none" id="Admin-to-UC3" style="stroke:#181818;stroke-width:1;"/><polygon fill="#181818" points="182.46,322.87,174.3253,317.3179,177.5414,321.9715,172.8877,325.1877,182.46,322.87" style="stroke:#181818;stroke-width:1;"/></g><!--link Admin to UC4--><g class="link" data-entity-1="Admin" data-entity-2="UC4" data-source-line="27" data-uid="lnk19" id="link_Admin_UC4"><path d="M88.39,261.76 C153.85,187.86 305.38,39.93 402,128.9 C461.54,183.73 383.61,427.02 432,491.9 C440.47,503.26 447.3114,508.8651 460.4114,514.4551" fill="none" id="Admin-to-UC4" style="stroke:#181818;stroke-width:1;"/><polygon fill="#181818" points="465.93,516.81,459.2221,509.5987,461.3312,514.8476,456.0822,516.9567,465.93,516.81" style="stroke:#181818;stroke-width:1;"/></g><!--link Admin to UC5--><g class="link" data-entity-1="Admin" data-entity-2="UC5" data-source-line="28" data-uid="lnk20" id="link_Admin_UC5"><path d="M57.64,261.53 C61.48,210.49 76.7,121.93 135,80.9 C241.41,6 401.4363,40.5452 479.8363,64.2252" fill="none" id="Admin-to-UC5" style="stroke:#181818;stroke-width:1;"/><polygon fill="#181818" points="485.58,65.96,478.121,59.5286,480.7936,64.5143,475.8079,67.1869,485.58,65.96" style="stroke:#181818;stroke-width:1;"/></g><!--link Admin to UC8--><g class="link" data-entity-1="Admin" data-entity-2="UC8" data-source-line="29" data-uid="lnk21" id="link_Admin_UC8"><path d="M73.87,337.99 C88.84,367.12 112.93,406.48 144,431.9 C158.78,443.99 172.266,450.7004 189.376,456.6804" fill="none" id="Admin-to-UC8" style="stroke:#181818;stroke-width:1;"/><polygon fill="#181818" points="195.04,458.66,187.8637,451.9146,190.32,457.0103,185.2242,459.4666,195.04,458.66" style="stroke:#181818;stroke-width:1;"/></g><!--link Miem to UC4--><g class="link" data-entity-1="Miem" data-entity-2="UC4" data-source-line="32" data-uid="lnk22" id="link_Miem_UC4"><path d="M86.09,511.15 C156.77,514.14 331.5754,521.5261 439.2254,526.0861" fill="none" id="Miem-to-UC4" style="stroke:#181818;stroke-width:1;"/><polygon fill="#181818" points="445.22,526.34,436.3973,521.9627,440.2245,526.1284,436.0588,529.9555,445.22,526.34" style="stroke:#181818;stroke-width:1;"/></g><!--link Miem to UC8--><g class="link" data-entity-1="Miem" data-entity-2="UC8" data-source-line="33" data-uid="lnk23" id="link_Miem_UC8"><path d="M86.39,503.29 C114.9,496.99 152.4214,488.705 185.4014,481.415" fill="none" id="Miem-to-UC8" style="stroke:#181818;stroke-width:1;"/><polygon fill="#181818" points="191.26,480.12,181.6088,478.1568,186.3778,481.1992,183.3355,485.9682,191.26,480.12" style="stroke:#181818;stroke-width:1;"/></g><!--reverse link UC2 to UC4--><g class="link" data-entity-1="UC2" data-entity-2="UC4" data-source-line="36" data-uid="lnk24" id="link_UC2_UC4"><path d="M285.64,280.3395 C296.39,285.2895 301.6,289.6 309,298.9 C347.55,347.33 303.08,384.49 339,434.9 C369.77,478.09 425.9,502.71 469.29,516.01" fill="none" id="UC2-backto-UC4" style="stroke:#181818;stroke-width:1;stroke-dasharray:7,7;"/><polygon fill="#181818" points="280.19,277.83,286.692,285.2276,284.7316,279.9213,290.038,277.961,280.19,277.83" style="stroke:#181818;stroke-width:1;"/><text fill="#000000" font-family="sans-serif" font-size="13" lengthAdjust="spacing" textLength="61.1851" x="340" y="430.9669">&#171;extend&#187;</text></g><!--reverse link UC2 to UC5--><g class="link" data-entity-1="UC2" data-entity-2="UC5" data-source-line="37" data-uid="lnk25" id="link_UC2_UC5"><path d="M259.5926,246.6714 C290.8926,217.2614 359.89,155.92 432,116.9 C447.71,108.4 465.85,101.09 482.19,95.32" fill="none" id="UC2-backto-UC5" style="stroke:#181818;stroke-width:1;stroke-dasharray:7,7;"/><polygon fill="#181818" points="255.22,250.78,264.518,247.5322,258.8638,247.3562,259.0399,241.7021,255.22,250.78" style="stroke:#181818;stroke-width:1;"/><text fill="#000000" font-family="sans-serif" font-size="13" lengthAdjust="spacing" textLength="61.1851" x="340" y="133.9669">&#171;extend&#187;</text></g><!--reverse link UC2 to UC6--><g class="link" data-entity-1="UC2" data-entity-2="UC6" data-source-line="38" data-uid="lnk26" id="link_UC2_UC6"><path d="M284.1315,280.6643 C295.1015,285.6543 300.79,289.93 309,298.9 C334.92,327.22 312.44,352.19 339,379.9 C370.01,412.26 390.37,402.28 432,418.9 C449.65,425.95 469.23,433.44 486.18,439.83" fill="none" id="UC2-backto-UC6" style="stroke:#181818;stroke-width:1;stroke-dasharray:7,7;"/><polygon fill="#181818" points="278.67,278.18,285.2061,285.5475,283.2213,280.2503,288.5185,278.2655,278.67,278.18" style="stroke:#181818;stroke-width:1;"/><text fill="#000000" font-family="sans-serif" font-size="13" lengthAdjust="spacing" textLength="61.1851" x="340" y="375.9669">&#171;extend&#187;</text></g><!--reverse link UC2 to UC7--><g class="link" data-entity-1="UC2" data-entity-2="UC7" data-source-line="39" data-uid="lnk27" id="link_UC2_UC7"><path d="M278.3558,281.5648 C290.2158,286.9348 297.91,291.22 309,298.9 C324.24,309.46 322.93,318.65 339,327.9 C376.39,349.42 422.9,362.82 460.61,370.89" fill="none" id="UC2-backto-UC7" style="stroke:#181818;stroke-width:1;stroke-dasharray:7,7;"/><polygon fill="#181818" points="272.89,279.09,279.4388,286.4461,277.4449,281.1524,282.7386,279.1584,272.89,279.09" style="stroke:#181818;stroke-width:1;"/><text fill="#000000" font-family="sans-serif" font-size="13" lengthAdjust="spacing" textLength="61.1851" x="340" y="323.9669">&#171;extend&#187;</text></g><!--reverse link UC2 to UC9--><g class="link" data-entity-1="UC2" data-entity-2="UC9" data-source-line="40" data-uid="lnk28" id="link_UC2_UC9"><path d="M283.1103,280.1361 C301.5203,285.7361 318.34,290.16 339,293.9 C377.21,300.82 420.29,304.75 455.8,306.99" fill="none" id="UC2-backto-UC9" style="stroke:#181818;stroke-width:1;stroke-dasharray:7,7;"/><polygon fill="#181818" points="277.37,278.39,284.8164,284.836,282.1536,279.8451,287.1445,277.1823,277.37,278.39" style="stroke:#181818;stroke-width:1;"/><text fill="#000000" font-family="sans-serif" font-size="13" lengthAdjust="spacing" textLength="61.1851" x="340" y="289.9669">&#171;extend&#187;</text></g><!--reverse link UC2 to UC10--><g class="link" data-entity-1="UC2" data-entity-2="UC10" data-source-line="41" data-uid="lnk29" id="link_UC2_UC10"><path d="M308.5897,268.2736 C338.7697,268.5936 369.36,267.77 402,263.9 C423.53,261.35 446.74,256.66 467.38,251.79" fill="none" id="UC2-backto-UC10" style="stroke:#181818;stroke-width:1;stroke-dasharray:7,7;"/><polygon fill="#181818" points="302.59,268.21,311.5471,272.3052,307.5897,268.263,311.6319,264.3056,302.59,268.21" style="stroke:#181818;stroke-width:1;"/><text fill="#000000" font-family="sans-serif" font-size="13" lengthAdjust="spacing" textLength="61.1851" x="340" y="259.9669">&#171;extend&#187;</text></g><!--reverse link UC2 to UC11--><g class="link" data-entity-1="UC2" data-entity-2="UC11" data-source-line="42" data-uid="lnk30" id="link_UC2_UC11"><path d="M281.4237,251.101 C314.4337,239.371 358.81,223.37 402,206.9 C402.52,206.7 446.5,189.11 482.65,174.64" fill="none" id="UC2-backto-UC11" style="stroke:#181818;stroke-width:1;stroke-dasharray:7,7;"/><polygon fill="#181818" points="275.77,253.11,285.5898,253.8656,280.4814,251.4358,282.9112,246.3274,275.77,253.11" style="stroke:#181818;stroke-width:1;"/><text fill="#000000" font-family="sans-serif" font-size="13" lengthAdjust="spacing" textLength="61.1851" x="340" y="202.9669">&#171;extend&#187;</text></g><!--SRC=[XPFFJXin4CRlVefHBYG740k4FrKK2QLLEO1KeUO19lOaM7NMqOo345MVYaVWnJfhmZPUM7Kltjdlvyypdjb0omGf0llLGmBdcMpoiJO6ROeCWsktzhMNnEWY3m05yfTt-SxJUi4n2ysxCHkqlt15CFXEalphImsEu2SoeGpWjm5z3c264gKHvXBX1_lQ-Wq6aYnlXIoAEbZTn7dhS9HFcC-gaY3dKnSvwI31QxvTwBI4riWMUHRNcq09tJ_khEHmmVxDILhaqdnMb2vVrIe4Wk6tfqIrwAsIZ4e_fe1M1UoQZZj5IC9584jy4ndPnnOyBq57IsqNtqQBmJzdxnQzAD579LnJTBqCNhlPSbUTBYZWLrizzfviP8VQ-Bq4gkFE5ObVlTTpFPTjaMrLcJ_67C3zhcwItSYfka56e035n9aSmU7XD3T_FpefejCYEYkYSH5T_Y-1tKoRPctzze8F1WJqrk5cseUQ6UYTMQgr1C07RPZ-O0uX8BHtQJEBZrW_wxYDJBDfSdJK70LVO3B9XcuwtHF6VS9vdt3H9rpr2TLnhr8Loby0]--></g></svg>