<svg xmlns="http://www.w3.org/2000/svg" xmlns:xlink="http://www.w3.org/1999/xlink" contentStyleType="text/css" data-diagram-type="STATE" height="580px" preserveAspectRatio="none" style="width:435px;height:580px;background:#FFFFFF;" version="1.1" viewBox="0 0 435 580" width="435px" zoomAndPan="magnify"><defs/><g><rect fill="#F1F1F1" height="40" rx="12.5" ry="12.5" style="stroke:#181818;stroke-width:0.5;" width="162.0654" x="85.5" y="7"/><text fill="#000000" font-family="sans-serif" font-size="14" lengthAdjust="spacing" textLength="152.0654" x="90.5" y="31.8467">SISTEMA_DISPONIBLE</text><path d="M19.5,108 L313.5,108 A12.5,12.5 0 0 1 326,120.5 L326,134.2969 L7,134.2969 L7,120.5 A12.5,12.5 0 0 1 19.5,108" fill="#F1F1F1"/><rect fill="none" height="331.2969" rx="12.5" ry="12.5" style="stroke:#181818;stroke-width:0.5;" width="319" x="7" y="108"/><line style="stroke:#181818;stroke-width:0.5;" x1="7" x2="326" y1="134.2969" y2="134.2969"/><text fill="#000000" font-family="sans-serif" font-size="14" lengthAdjust="spacing" textLength="131.585" x="100.7075" y="125.9951">abrirPlanificacion()</text><rect fill="#F1F1F1" height="40" rx="12.5" ry="12.5" style="stroke:#181818;stroke-width:0.5;" width="50" x="19" y="236.2969"/><text fill="#000000" font-family="sans-serif" font-size="14" lengthAdjust="spacing" textLength="4.4502" x="41.7749" y="261.1436">&#160;</text><ellipse cx="44" cy="155.2969" fill="#222222" rx="10" ry="10" style="stroke:#222222;stroke-width:1;"/><ellipse cx="44" cy="418.2969" fill="none" rx="11" ry="11" style="stroke:#222222;stroke-width:1;"/><ellipse cx="44" cy="418.2969" fill="#222222" rx="6" ry="6" style="stroke:#222222;stroke-width:1;"/><!--link *start*abrirPlanificacion to MostrandoPlanificacion--><g class="link" data-entity-1=".start.abrirPlanificacion" data-entity-2="MostrandoPlanificacion" data-source-line="11" data-uid="lnk4" id="link_.start.abrirPlanificacion_MostrandoPlanificacion"><path d="M44,165.4369 C44,181.4169 44,208.7869 44,230.0669" fill="none" id="*start*abrirPlanificacion-to-MostrandoPlanificacion" style="stroke:#008000;stroke-width:1;"/><polygon fill="#008000" points="44,236.0669,48,227.0669,44,231.0669,40,227.0669,44,236.0669" style="stroke:#008000;stroke-width:1;"/><path d="M49,188.2969 L49,213.2969 L296,213.2969 L296,198.2969 L286,188.2969 L49,188.2969" fill="#FEFFDD" style="stroke:#181818;stroke-width:0.5;"/><path d="M286,188.2969 L286,198.2969 L296,198.2969 L286,188.2969" fill="#FEFFDD" style="stroke:#181818;stroke-width:0.5;"/><text fill="#000000" font-family="sans-serif" font-size="13" font-weight="bold" lengthAdjust="spacing" textLength="56.1196" x="55" y="205.3638">Usuario</text><text fill="#000000" font-family="sans-serif" font-size="13" lengthAdjust="spacing" textLength="166.4927" x="115.252" y="205.3638">solicita abrir planificaci&#243;n</text></g><!--link MostrandoPlanificacion to *end*abrirPlanificacion--><g class="link" data-entity-1="MostrandoPlanificacion" data-entity-2=".end.abrirPlanificacion" data-source-line="16" data-uid="lnk6" id="link_MostrandoPlanificacion_.end.abrirPlanificacion"><path d="M44,276.5969 C44,310.8369 44,375.0769 44,401.2069" fill="none" id="MostrandoPlanificacion-to-*end*abrirPlanificacion" style="stroke:#008000;stroke-width:1;"/><polygon fill="#008000" points="44,407.2069,48,398.2069,44,402.2069,40,398.2069,44,407.2069" style="stroke:#008000;stroke-width:1;"/><path d="M49,299.2969 L49,384.2969 L317,384.2969 L317,309.2969 L307,299.2969 L49,299.2969" fill="#FEFFDD" style="stroke:#181818;stroke-width:0.5;"/><path d="M307,299.2969 L307,309.2969 L317,309.2969 L307,299.2969" fill="#FEFFDD" style="stroke:#181818;stroke-width:0.5;"/><text fill="#000000" font-family="sans-serif" font-size="13" font-weight="bold" lengthAdjust="spacing" textLength="58.9063" x="55" y="316.3638">Sistema</text><text fill="#000000" font-family="sans-serif" font-size="13" lengthAdjust="spacing" textLength="184.3105" x="118.0386" y="316.3638">muestra planificaci&#243;n actual</text><text fill="#000000" font-family="sans-serif" font-size="13" lengthAdjust="spacing" textLength="185.4277" x="55" y="331.4966">&#8226; Lista de tareas vinculables</text><text fill="#000000" font-family="sans-serif" font-size="13" lengthAdjust="spacing" textLength="141.4194" x="55" y="346.6294">&#8226; Horario configurado</text><text fill="#000000" font-family="sans-serif" font-size="13" lengthAdjust="spacing" textLength="102.229" x="55" y="361.7622">&#8226; Recordatorios</text><text fill="#000000" font-family="sans-serif" font-size="13" lengthAdjust="spacing" textLength="91.0762" x="55" y="376.895">&#8226; Localizaci&#243;n</text></g><rect fill="#F1F1F1" height="40" rx="12.5" ry="12.5" style="stroke:#181818;stroke-width:0.5;" width="185.8066" x="73.5" y="534"/><text fill="#000000" font-family="sans-serif" font-size="14" lengthAdjust="spacing" textLength="175.8066" x="78.5" y="558.8467">PLANIFICACION_ABIERTO</text><!--link in1 to abrirPlanificacion--><g class="link" data-entity-1="in1" data-entity-2="abrirPlanificacion" data-source-line="5" data-uid="lnk2" id="link_in1_abrirPlanificacion"><path d="M166.5,47.19 C166.5,61.82 166.5,77.55 166.5,101.83" fill="none" id="in1-to-abrirPlanificacion" style="stroke:#008000;stroke-width:1;"/><polygon fill="#008000" points="166.5,107.83,170.5,98.83,166.5,102.83,162.5,98.83,166.5,107.83" style="stroke:#008000;stroke-width:1;"/></g><!--link abrirPlanificacion to PLANIFICACION_ABIERTO--><g class="link" data-entity-1="abrirPlanificacion" data-entity-2="PLANIFICACION_ABIERTO" data-source-line="26" data-uid="lnk8" id="link_abrirPlanificacion_PLANIFICACION_ABIERTO"><path d="M166.5,439.32 C166.5,477.37 166.5,506.79 166.5,527.67" fill="none" id="abrirPlanificacion-to-PLANIFICACION_ABIERTO" style="stroke:#008000;stroke-width:1;"/><polygon fill="#008000" points="166.5,533.67,170.5,524.67,166.5,528.67,162.5,524.67,166.5,533.67" style="stroke:#008000;stroke-width:1;"/><path d="M171.5,474 L171.5,499 L428.5,499 L428.5,484 L418.5,474 L171.5,474" fill="#FEFFDD" style="stroke:#181818;stroke-width:0.5;"/><path d="M418.5,474 L418.5,484 L428.5,484 L418.5,474" fill="#FEFFDD" style="stroke:#181818;stroke-width:0.5;"/><text fill="#000000" font-family="sans-serif" font-size="13" lengthAdjust="spacing" textLength="236.8184" x="177.5" y="491.0669">Planificaci&#243;n disponible para edici&#243;n</text></g><!--SRC=[VL9TIiD047xVKmpnHOKYlfT2MYi6qZOqzQcKCjbiwz1aD-nkX2g2P_4A7i6RU18tYJ-DgSxRpiptjxjtb0eGUM7ta0h3DHMMb6HcHx90ZJba98NT5m8AbUsh0sF6eXL0yXBGW1S7yM8yyTTNGHpDfi4m77kiclMM9rijX5pr1e299XrbA6b377cbyCdIdTIatVRfcGUFZ86h1ZbHncgKgUgYmMiMb-UhbetZa7fLAaVfu2xXhcvKrKy6jwP4JQf_aGp0g8muMMnCG_53ylRQi0YPraoD_1yE3nqvX__AnsIioB6MpqjHyVtI1UIsnEmRzFxy0g53eNjFiAY5kv1xahpCCCc4QUtTA5s50wxaXhQbnbIrvdF1bKxHAhVKHeQAOqOFnw8_CNRaKGz3Hw4_3Qw3aJyAPjErFmp6yyMCTQuWQkTCoHHAaWi1rSy4aLAZ_gNy0G00]--></g></svg>