<svg xmlns="http://www.w3.org/2000/svg" xmlns:xlink="http://www.w3.org/1999/xlink" contentStyleType="text/css" data-diagram-type="STATE" height="716px" preserveAspectRatio="none" style="width:990px;height:716px;background:#FFFFFF;" version="1.1" viewBox="0 0 990 716" width="990px" zoomAndPan="magnify"><defs/><g><g id="Inicio"><rect fill="#FFFFFF" height="50" rx="12.5" ry="12.5" style="stroke:#000000;stroke-width:0.5;" width="172.0654" x="331.98" y="7"/><line style="stroke:#000000;stroke-width:0.5;" x1="331.98" x2="504.0454" y1="33.2969" y2="33.2969"/><text fill="#000000" font-family="sans-serif" font-size="14" lengthAdjust="spacing" textLength="152.0654" x="341.98" y="24.9951">SISTEMA_DISPONIBLE</text></g><path d="M232.48,118 L603.48,118 A12.5,12.5 0 0 1 615.98,130.5 L615.98,144.2969 L219.98,144.2969 L219.98,130.5 A12.5,12.5 0 0 1 232.48,118" fill="#FFFFFF"/><rect fill="none" height="447.2969" rx="12.5" ry="12.5" style="stroke:#000000;stroke-width:0.5;" width="396" x="219.98" y="118"/><line style="stroke:#000000;stroke-width:0.5;" x1="219.98" x2="615.98" y1="144.2969" y2="144.2969"/><text fill="#000000" font-family="sans-serif" font-size="14" lengthAdjust="spacing" textLength="131.585" x="352.1875" y="135.9951">abrirPlanificacion()</text><g id="AbrirPlanificacionContainer.PasoInicial"><rect fill="#FFFFFF" height="50" rx="12.5" ry="12.5" style="stroke:#000000;stroke-width:0.5;" width="50" x="231.98" y="246.2969"/><line style="stroke:#000000;stroke-width:0.5;" x1="231.98" x2="281.98" y1="272.5938" y2="272.5938"/><text fill="#000000" font-family="sans-serif" font-size="14" lengthAdjust="spacing" textLength="4.4502" x="254.7549" y="264.292">&#160;</text></g><g id="AbrirPlanificacionContainer.PasoVisualizacion"><rect fill="#FFFFFF" height="50" rx="12.5" ry="12.5" style="stroke:#000000;stroke-width:0.5;" width="50" x="231.98" y="412.2969"/><line style="stroke:#000000;stroke-width:0.5;" x1="231.98" x2="281.98" y1="438.5938" y2="438.5938"/><text fill="#000000" font-family="sans-serif" font-size="14" lengthAdjust="spacing" textLength="4.4502" x="254.7549" y="430.292">&#160;</text></g><ellipse cx="256.98" cy="165.2969" fill="#222222" rx="10" ry="10" style="stroke:#222222;stroke-width:1;"/><ellipse cx="256.98" cy="544.2969" fill="none" rx="11" ry="11" style="stroke:#222222;stroke-width:1;"/><ellipse cx="256.98" cy="544.2969" fill="#222222" rx="6" ry="6" style="stroke:#222222;stroke-width:1;"/><!--link *start*AbrirPlanificacionContainer to PasoInicial--><g class="link" data-entity-1=".start.AbrirPlanificacionContainer" data-entity-2="PasoInicial" data-source-line="29" data-uid="lnk3" id="link_.start.AbrirPlanificacionContainer_PasoInicial"><path d="M256.98,175.5269 C256.98,191.2369 256.98,217.6569 256.98,240.1669" fill="none" id="*start*AbrirPlanificacionContainer-to-PasoInicial" style="stroke:#009900;stroke-width:1;"/><polygon fill="#009900" points="256.98,246.1669,260.98,237.1669,256.98,241.1669,252.98,237.1669,256.98,246.1669" style="stroke:#009900;stroke-width:1;"/><path d="M261.98,198.2969 L261.98,223.2969 L508.98,223.2969 L508.98,208.2969 L498.98,198.2969 L261.98,198.2969" fill="#FFFFE0" style="stroke:#B0B060;stroke-width:0.5;"/><path d="M498.98,198.2969 L498.98,208.2969 L508.98,208.2969 L498.98,198.2969" fill="#FFFFE0" style="stroke:#B0B060;stroke-width:0.5;"/><text fill="#000000" font-family="Arial" font-size="13" font-weight="bold" lengthAdjust="spacing" textLength="56.1196" x="267.98" y="215.3638">Usuario</text><text fill="#000000" font-family="Arial" font-size="13" lengthAdjust="spacing" textLength="166.4927" x="328.232" y="215.3638">solicita abrir planificaci&#243;n</text></g><!--link PasoInicial to PasoVisualizacion--><g class="link" data-entity-1="PasoInicial" data-entity-2="PasoVisualizacion" data-source-line="34" data-uid="lnk4" id="link_PasoInicial_PasoVisualizacion"><path d="M256.98,296.4969 C256.98,327.5869 256.98,375.2469 256.98,406.2669" fill="none" id="PasoInicial-to-PasoVisualizacion" style="stroke:#009900;stroke-width:1;"/><polygon fill="#009900" points="256.98,412.2669,260.98,403.2669,256.98,407.2669,252.98,403.2669,256.98,412.2669" style="stroke:#009900;stroke-width:1;"/><path d="M261.98,319.2969 L261.98,389.2969 L606.98,389.2969 L606.98,329.2969 L596.98,319.2969 L261.98,319.2969" fill="#FFFFE0" style="stroke:#B0B060;stroke-width:0.5;"/><path d="M596.98,319.2969 L596.98,329.2969 L606.98,329.2969 L596.98,319.2969" fill="#FFFFE0" style="stroke:#B0B060;stroke-width:0.5;"/><text fill="#000000" font-family="Arial" font-size="13" font-weight="bold" lengthAdjust="spacing" textLength="58.9063" x="267.98" y="336.3638">Sistema</text><text fill="#000000" font-family="Arial" font-size="13" lengthAdjust="spacing" textLength="229.0806" x="331.0186" y="336.3638">permite solicitar establecer horario</text><text fill="#000000" font-family="Arial" font-size="13" font-weight="bold" lengthAdjust="spacing" textLength="58.9063" x="267.98" y="351.4966">Sistema</text><text fill="#000000" font-family="Arial" font-size="13" lengthAdjust="spacing" textLength="231.7593" x="331.0186" y="351.4966">permite solicitar definir localizaci&#243;n</text><text fill="#000000" font-family="Arial" font-size="13" font-weight="bold" lengthAdjust="spacing" textLength="58.9063" x="267.98" y="366.6294">Sistema</text><text fill="#000000" font-family="Arial" font-size="13" lengthAdjust="spacing" textLength="261.1235" x="331.0186" y="366.6294">permite solicitar configurar recordatorio</text><text fill="#000000" font-family="Arial" font-size="13" font-weight="bold" lengthAdjust="spacing" textLength="58.9063" x="267.98" y="381.7622">Sistema</text><text fill="#000000" font-family="Arial" font-size="13" lengthAdjust="spacing" textLength="261.3647" x="331.0186" y="381.7622">permite solicitar asignar tarea a usuario</text></g><!--link PasoVisualizacion to *end*AbrirPlanificacionContainer--><g class="link" data-entity-1="PasoVisualizacion" data-entity-2=".end.AbrirPlanificacionContainer" data-source-line="42" data-uid="lnk6" id="link_PasoVisualizacion_.end.AbrirPlanificacionContainer"><path d="M256.98,462.3869 C256.98,484.7869 256.98,511.0669 256.98,527.2469" fill="none" id="PasoVisualizacion-to-*end*AbrirPlanificacionContainer" style="stroke:#009900;stroke-width:1;"/><polygon fill="#009900" points="256.98,533.2469,260.98,524.2469,256.98,528.2469,252.98,524.2469,256.98,533.2469" style="stroke:#009900;stroke-width:1;"/><path d="M261.98,485.2969 L261.98,510.2969 L521.98,510.2969 L521.98,495.2969 L511.98,485.2969 L261.98,485.2969" fill="#FFFFE0" style="stroke:#B0B060;stroke-width:0.5;"/><path d="M511.98,485.2969 L511.98,495.2969 L521.98,495.2969 L511.98,485.2969" fill="#FFFFE0" style="stroke:#B0B060;stroke-width:0.5;"/><text fill="#000000" font-family="Arial" font-size="13" font-weight="bold" lengthAdjust="spacing" textLength="56.1196" x="267.98" y="502.3638">Usuario</text><text fill="#000000" font-family="Arial" font-size="13" lengthAdjust="spacing" textLength="179.2769" x="328.232" y="502.3638">solicita una de las opciones</text></g><g id="SalidaPlanificacion"><rect fill="#FFFFFF" height="50" rx="12.5" ry="12.5" style="stroke:#000000;stroke-width:0.5;" width="195.8066" x="218.98" y="660"/><line style="stroke:#000000;stroke-width:0.5;" x1="218.98" x2="414.7866" y1="686.2969" y2="686.2969"/><text fill="#000000" font-family="sans-serif" font-size="14" lengthAdjust="spacing" textLength="175.8066" x="228.98" y="677.9951">PLANIFICACION_ABIERTO</text></g><g id="SalidaSistema"><rect fill="#FFFFFF" height="50" rx="12.5" ry="12.5" style="stroke:#000000;stroke-width:0.5;" width="172.0654" x="786.98" y="660"/><line style="stroke:#000000;stroke-width:0.5;" x1="786.98" x2="959.0454" y1="686.2969" y2="686.2969"/><text fill="#000000" font-family="sans-serif" font-size="14" lengthAdjust="spacing" textLength="152.0654" x="796.98" y="677.9951">SISTEMA_DISPONIBLE</text></g><!--link Inicio to AbrirPlanificacionContainer--><g class="link" data-entity-1="Inicio" data-entity-2="AbrirPlanificacionContainer" data-source-line="53" data-uid="lnk7" id="link_Inicio_AbrirPlanificacionContainer"><path d="M417.98,57.13 C417.98,72.35 417.98,87.67 417.98,111.86" fill="none" id="Inicio-to-AbrirPlanificacionContainer" style="stroke:#009900;stroke-width:1;"/><polygon fill="#009900" points="417.98,117.86,421.98,108.86,417.98,112.86,413.98,108.86,417.98,117.86" style="stroke:#009900;stroke-width:1;"/></g><!--link AbrirPlanificacionContainer to SalidaPlanificacion--><g class="link" data-entity-1="AbrirPlanificacionContainer" data-entity-2="SalidaPlanificacion" data-source-line="56" data-uid="lnk8" id="link_AbrirPlanificacionContainer_SalidaPlanificacion"><path d="M219.77,416.7 C141.69,456.83 60.24,514.94 15.98,595 C8.45,608.61 6,618.07 15.98,630 C41.61,660.64 135.1563,673.4778 212.8263,679.2178" fill="none" id="AbrirPlanificacionContainer-to-SalidaPlanificacion" style="stroke:#009900;stroke-width:1;"/><polygon fill="#009900" points="218.81,679.66,210.1293,675.0076,213.8236,679.2915,209.5397,682.9858,218.81,679.66" style="stroke:#009900;stroke-width:1;"/><path d="M20.98,600 L20.98,625 L167.98,625 L167.98,610 L157.98,600 L20.98,600" fill="#FFFFE0" style="stroke:#B0B060;stroke-width:0.5;"/><path d="M157.98,600 L157.98,610 L167.98,610 L157.98,600" fill="#FFFFE0" style="stroke:#B0B060;stroke-width:0.5;"/><text fill="#000000" font-family="Arial" font-size="13" lengthAdjust="spacing" textLength="126.2803" x="26.98" y="617.0669">establecerHorario()</text></g><!--link AbrirPlanificacionContainer to SalidaPlanificacion--><g class="link" data-entity-1="AbrirPlanificacionContainer" data-entity-2="SalidaPlanificacion" data-source-line="61" data-uid="lnk9" id="link_AbrirPlanificacionContainer_SalidaPlanificacion"><path d="M225.42,565.04 C220.75,574.89 216.57,584.89 212.98,595 C207.78,609.66 204.9,616.71 212.98,630 C220.64,642.61 227.1377,649.3422 239.9177,656.9122" fill="none" id="AbrirPlanificacionContainer-to-SalidaPlanificacion-1" style="stroke:#009900;stroke-width:1;"/><polygon fill="#009900" points="245.08,659.97,239.375,651.9417,240.7781,657.4218,235.2979,658.8248,245.08,659.97" style="stroke:#009900;stroke-width:1;"/><path d="M217.98,600 L217.98,625 L369.98,625 L369.98,610 L359.98,600 L217.98,600" fill="#FFFFE0" style="stroke:#B0B060;stroke-width:0.5;"/><path d="M359.98,600 L359.98,610 L369.98,610 L359.98,600" fill="#FFFFE0" style="stroke:#B0B060;stroke-width:0.5;"/><text fill="#000000" font-family="Arial" font-size="13" lengthAdjust="spacing" textLength="131.0537" x="223.98" y="617.0669">definirLocalizacion()</text></g><!--link AbrirPlanificacionContainer to SalidaPlanificacion--><g class="link" data-entity-1="AbrirPlanificacionContainer" data-entity-2="SalidaPlanificacion" data-source-line="66" data-uid="lnk10" id="link_AbrirPlanificacionContainer_SalidaPlanificacion"><path d="M404.3,565.07 C398.1,587.74 389.86,609.83 378.98,630 C372.81,641.43 367.784,647.6887 357.944,655.9987" fill="none" id="AbrirPlanificacionContainer-to-SalidaPlanificacion-2" style="stroke:#009900;stroke-width:1;"/><polygon fill="#009900" points="353.36,659.87,362.8169,657.1191,357.18,656.6439,357.6552,651.0071,353.36,659.87" style="stroke:#009900;stroke-width:1;"/><path d="M397.98,600 L397.98,625 L578.98,625 L578.98,610 L568.98,600 L397.98,600" fill="#FFFFE0" style="stroke:#B0B060;stroke-width:0.5;"/><path d="M568.98,600 L568.98,610 L578.98,610 L568.98,600" fill="#FFFFE0" style="stroke:#B0B060;stroke-width:0.5;"/><text fill="#000000" font-family="Arial" font-size="13" lengthAdjust="spacing" textLength="160.4751" x="403.98" y="617.0669">configurarRecordatorio()</text></g><!--link AbrirPlanificacionContainer to SalidaPlanificacion--><g class="link" data-entity-1="AbrirPlanificacionContainer" data-entity-2="SalidaPlanificacion" data-source-line="71" data-uid="lnk11" id="link_AbrirPlanificacionContainer_SalidaPlanificacion"><path d="M611.73,565.15 C614.1,587.7 608.66,609.73 591.98,630 C569.64,657.15 490.8816,670.2673 421.3016,677.0573" fill="none" id="AbrirPlanificacionContainer-to-SalidaPlanificacion-3" style="stroke:#009900;stroke-width:1;"/><polygon fill="#009900" points="415.33,677.64,424.6759,680.747,420.3064,677.1544,423.899,672.7848,415.33,677.64" style="stroke:#009900;stroke-width:1;"/><path d="M613.98,600 L613.98,625 L787.98,625 L787.98,610 L777.98,600 L613.98,600" fill="#FFFFE0" style="stroke:#B0B060;stroke-width:0.5;"/><path d="M777.98,600 L777.98,610 L787.98,610 L777.98,600" fill="#FFFFE0" style="stroke:#B0B060;stroke-width:0.5;"/><text fill="#000000" font-family="Arial" font-size="13" lengthAdjust="spacing" textLength="153.8101" x="619.98" y="617.0669">asignarTareaAUsuario()</text></g><!--link AbrirPlanificacionContainer to SalidaSistema--><g class="link" data-entity-1="AbrirPlanificacionContainer" data-entity-2="SalidaSistema" data-source-line="76" data-uid="lnk12" id="link_AbrirPlanificacionContainer_SalidaSistema"><path d="M616.38,456.81 C678.46,496.79 745.23,544.43 800.98,595 C822.47,614.5 839.3748,635.8232 852.9348,654.7432" fill="none" id="AbrirPlanificacionContainer-to-SalidaSistema" style="stroke:#009900;stroke-width:1;"/><polygon fill="#009900" points="856.43,659.62,854.4384,649.9746,853.5173,655.556,847.9359,654.6349,856.43,659.62" style="stroke:#009900;stroke-width:1;"/><path d="M837.98,600 L837.98,625 L983.98,625 L983.98,610 L973.98,600 L837.98,600" fill="#FFFFE0" style="stroke:#B0B060;stroke-width:0.5;"/><path d="M973.98,600 L973.98,610 L983.98,610 L973.98,600" fill="#FFFFE0" style="stroke:#B0B060;stroke-width:0.5;"/><text fill="#000000" font-family="Arial" font-size="13" lengthAdjust="spacing" textLength="125.9248" x="843.98" y="617.0669">completarGestion()</text></g><!--SRC=[hLHDZzem4BtdLrZBeO2qKawLzb8feT16ee0sR7kegjMG673NyKIsqLQj-glw4_h7Tco7xuNTLlW26dlUUpFp9kP1g1eqLAn2XSLIOyNP7AJXaTbScIMK-DY4BTRC8fkXjLYnKcXUM84gsdrlmNBsAs9qKYWU5XfNgkoXHCs-B8NbuGProNM8ffAU-MYYDJw6O2kERsxYs8Tp2zeUlkslGKFezwu6XISbj0Pq-l6HY5OQf_7R41-WiYEWNYHQW7JGRrYVwYhHi98JizLG0ckJN363JXHAligpVDh_bDo_p_B9U9Ibm_uL0yCo9Gg13gD7k5pnakXABbaF33gyEuDh29XfeISIb9YB0YXDjJiU93cwS60W5DTDeIT7uouRUEQn9iJhHL5jprv-5cO5KlpqF07WQ_SRkxv-TvJhEusAIQ72MDpfTky8G0liTfb1IQyjC5yQgxSb_FsZV0PNfOS9H3i46y9zFMTeSs4ihu1eQwuhyjg6NZDEPSuaBwXXIzHEtIiJIpuNYgHBB1eHQ-KlvnQevcAn8Zf6yo2xWSNNCuCH2qM_z9zJ0zagTFL4r_Qwv7j7G_l78QqKE4TACWBM3eURVRR3NSY9qQ_23BxZPXCcmsIK3R9Uqil6e_iapVgtqx6tLtY_P-GNrYTaD6rgjeZ_yD9sbZ4AM-RBFhChn_a1FZgtNmxpETq7RTqQx6FmLxiJRQTq0OB6YCED3ztNuR8KMx_UxjZrqYoDhwVEradZml_WM7lYg8QgbfnsvWDDPBz7Jm00]--></g></svg>