<svg xmlns="http://www.w3.org/2000/svg" xmlns:xlink="http://www.w3.org/1999/xlink" contentStyleType="text/css" data-diagram-type="STATE" height="716px" preserveAspectRatio="none" style="width:642px;height:716px;background:#FFFFFF;" version="1.1" viewBox="0 0 642 716" width="642px" zoomAndPan="magnify"><defs/><g><g id="Inicio"><rect fill="#FFFFFF" height="50" rx="12.5" ry="12.5" style="stroke:#000000;stroke-width:0.5;" width="172.0654" x="113" y="7"/><line style="stroke:#000000;stroke-width:0.5;" x1="113" x2="285.0654" y1="33.2969" y2="33.2969"/><text fill="#000000" font-family="sans-serif" font-size="14" lengthAdjust="spacing" textLength="152.0654" x="123" y="24.9951">SISTEMA_DISPONIBLE</text></g><g id="EntradaLista"><rect fill="#FFFFFF" height="50" rx="12.5" ry="12.5" style="stroke:#000000;stroke-width:0.5;" width="188.0205" x="320" y="7"/><line style="stroke:#000000;stroke-width:0.5;" x1="320" x2="508.0205" y1="33.2969" y2="33.2969"/><text fill="#000000" font-family="sans-serif" font-size="14" lengthAdjust="spacing" textLength="168.0205" x="330" y="24.9951">INVITACIONES_ABIERTO</text></g><path d="M144.5,118 L467.5,118 A12.5,12.5 0 0 1 480,130.5 L480,144.2969 L132,144.2969 L132,130.5 A12.5,12.5 0 0 1 144.5,118" fill="#FFFFFF"/><rect fill="none" height="447.2969" rx="12.5" ry="12.5" style="stroke:#000000;stroke-width:0.5;" width="348" x="132" y="118"/><line style="stroke:#000000;stroke-width:0.5;" x1="132" x2="480" y1="144.2969" y2="144.2969"/><text fill="#000000" font-family="sans-serif" font-size="14" lengthAdjust="spacing" textLength="127.9688" x="242.0156" y="135.9951">abrirInvitaciones()</text><g id="AbrirInvitacionesContainer.PasoInicial"><rect fill="#FFFFFF" height="50" rx="12.5" ry="12.5" style="stroke:#000000;stroke-width:0.5;" width="50" x="144" y="246.2969"/><line style="stroke:#000000;stroke-width:0.5;" x1="144" x2="194" y1="272.5938" y2="272.5938"/><text fill="#000000" font-family="sans-serif" font-size="14" lengthAdjust="spacing" textLength="4.4502" x="166.7749" y="264.292">&#160;</text></g><g id="AbrirInvitacionesContainer.PasoLista"><rect fill="#FFFFFF" height="50" rx="12.5" ry="12.5" style="stroke:#000000;stroke-width:0.5;" width="50" x="144" y="412.2969"/><line style="stroke:#000000;stroke-width:0.5;" x1="144" x2="194" y1="438.5938" y2="438.5938"/><text fill="#000000" font-family="sans-serif" font-size="14" lengthAdjust="spacing" textLength="4.4502" x="166.7749" y="430.292">&#160;</text></g><ellipse cx="169" cy="165.2969" fill="#222222" rx="10" ry="10" style="stroke:#222222;stroke-width:1;"/><ellipse cx="169" cy="544.2969" fill="none" rx="11" ry="11" style="stroke:#222222;stroke-width:1;"/><ellipse cx="169" cy="544.2969" fill="#222222" rx="6" ry="6" style="stroke:#222222;stroke-width:1;"/><!--link *start*AbrirInvitacionesContainer to PasoInicial--><g class="link" data-entity-1=".start.AbrirInvitacionesContainer" data-entity-2="PasoInicial" data-source-line="31" data-uid="lnk3" id="link_.start.AbrirInvitacionesContainer_PasoInicial"><path d="M169,175.5269 C169,191.2369 169,217.6569 169,240.1669" fill="none" id="*start*AbrirInvitacionesContainer-to-PasoInicial" style="stroke:#009900;stroke-width:1;"/><polygon fill="#009900" points="169,246.1669,173,237.1669,169,241.1669,165,237.1669,169,246.1669" style="stroke:#009900;stroke-width:1;"/><path d="M174,198.2969 L174,223.2969 L426,223.2969 L426,208.2969 L416,198.2969 L174,198.2969" fill="#FFFFE0" style="stroke:#B0B060;stroke-width:0.5;"/><path d="M416,198.2969 L416,208.2969 L426,208.2969 L416,198.2969" fill="#FFFFE0" style="stroke:#B0B060;stroke-width:0.5;"/><text fill="#000000" font-family="Arial" font-size="13" font-weight="bold" lengthAdjust="spacing" textLength="64.4033" x="180" y="215.3638">Miembro</text><text fill="#000000" font-family="Arial" font-size="13" lengthAdjust="spacing" textLength="162.5" x="248.5356" y="215.3638">solicita abrir invitaciones</text></g><!--link PasoInicial to PasoLista--><g class="link" data-entity-1="PasoInicial" data-entity-2="PasoLista" data-source-line="36" data-uid="lnk4" id="link_PasoInicial_PasoLista"><path d="M169,296.4969 C169,327.5869 169,375.2469 169,406.2669" fill="none" id="PasoInicial-to-PasoLista" style="stroke:#009900;stroke-width:1;"/><polygon fill="#009900" points="169,412.2669,173,403.2669,169,407.2669,165,403.2669,169,412.2669" style="stroke:#009900;stroke-width:1;"/><path d="M174,319.2969 L174,389.2969 L471,389.2969 L471,329.2969 L461,319.2969 L174,319.2969" fill="#FFFFE0" style="stroke:#B0B060;stroke-width:0.5;"/><path d="M461,319.2969 L461,329.2969 L471,329.2969 L461,319.2969" fill="#FFFFE0" style="stroke:#B0B060;stroke-width:0.5;"/><text fill="#000000" font-family="Arial" font-size="13" font-weight="bold" lengthAdjust="spacing" textLength="58.9063" x="180" y="336.3638">Sistema</text><text fill="#000000" font-family="Arial" font-size="13" lengthAdjust="spacing" textLength="191.3184" x="243.0386" y="336.3638">presenta lista de invitaciones</text><text fill="#000000" font-family="Arial" font-size="13" lengthAdjust="spacing" textLength="276.834" x="180" y="351.4966">&#8226; Identificador y estado de cada invitaci&#243;n</text><text fill="#000000" font-family="Arial" font-size="13" lengthAdjust="spacing" textLength="188.481" x="180" y="366.6294">&#8226; Permite solicitar filtrar lista</text><text fill="#000000" font-family="Arial" font-size="13" lengthAdjust="spacing" textLength="227.3096" x="180" y="381.7622">&#8226; Permite solicitar editar invitaci&#243;n</text></g><!--link PasoLista to PasoLista--><g class="link" data-entity-1="PasoLista" data-entity-2="PasoLista" data-source-line="44" data-uid="lnk5" id="link_PasoLista_PasoLista"><path d="M194.18,426.0869 C203.91,425.5969 212,429.3269 212,437.2969 C212,445.2669 209.9024,449.2987 200.1724,448.8087" fill="none" id="PasoLista-to-PasoLista" style="stroke:#009900;stroke-width:1;"/><polygon fill="#009900" points="194.18,448.5069,202.9674,452.9545,199.1737,448.7584,203.3698,444.9646,194.18,448.5069" style="stroke:#009900;stroke-width:1;"/><path d="M217,417.2969 L217,457.2969 L440,457.2969 L440,427.2969 L430,417.2969 L217,417.2969" fill="#FFFFE0" style="stroke:#B0B060;stroke-width:0.5;"/><path d="M430,417.2969 L430,427.2969 L440,427.2969 L430,417.2969" fill="#FFFFE0" style="stroke:#B0B060;stroke-width:0.5;"/><text fill="#000000" font-family="Arial" font-size="13" font-weight="bold" lengthAdjust="spacing" textLength="64.4033" x="223" y="434.3638">Miembro</text><text fill="#000000" font-family="Arial" font-size="13" lengthAdjust="spacing" textLength="116.6509" x="291.5356" y="434.3638">solicita filtrar lista</text><text fill="#000000" font-family="Arial" font-size="13" font-weight="bold" lengthAdjust="spacing" textLength="58.9063" x="223" y="449.4966">Sistema</text><text fill="#000000" font-family="Arial" font-size="13" lengthAdjust="spacing" textLength="139.4199" x="286.0386" y="449.4966">presenta lista filtrada</text></g><!--link PasoLista to *end*AbrirInvitacionesContainer--><g class="link" data-entity-1="PasoLista" data-entity-2=".end.AbrirInvitacionesContainer" data-source-line="50" data-uid="lnk7" id="link_PasoLista_.end.AbrirInvitacionesContainer"><path d="M169,462.3869 C169,484.7869 169,511.0669 169,527.2469" fill="none" id="PasoLista-to-*end*AbrirInvitacionesContainer" style="stroke:#009900;stroke-width:1;"/><polygon fill="#009900" points="169,533.2469,173,524.2469,169,528.2469,165,524.2469,169,533.2469" style="stroke:#009900;stroke-width:1;"/><path d="M174,485.2969 L174,510.2969 L442,510.2969 L442,495.2969 L432,485.2969 L174,485.2969" fill="#FFFFE0" style="stroke:#B0B060;stroke-width:0.5;"/><path d="M432,485.2969 L432,495.2969 L442,495.2969 L432,485.2969" fill="#FFFFE0" style="stroke:#B0B060;stroke-width:0.5;"/><text fill="#000000" font-family="Arial" font-size="13" font-weight="bold" lengthAdjust="spacing" textLength="64.4033" x="180" y="502.3638">Miembro</text><text fill="#000000" font-family="Arial" font-size="13" lengthAdjust="spacing" textLength="179.2769" x="248.5356" y="502.3638">solicita una de las opciones</text></g><g id="FinDetalle"><rect fill="#FFFFFF" height="50" rx="12.5" ry="12.5" style="stroke:#000000;stroke-width:0.5;" width="170.2881" x="7" y="660"/><line style="stroke:#000000;stroke-width:0.5;" x1="7" x2="177.2881" y1="686.2969" y2="686.2969"/><text fill="#000000" font-family="sans-serif" font-size="14" lengthAdjust="spacing" textLength="150.2881" x="17" y="677.9951">INVITACION_ABIERTO</text></g><g id="FinLista"><rect fill="#FFFFFF" height="50" rx="12.5" ry="12.5" style="stroke:#000000;stroke-width:0.5;" width="188.0205" x="212" y="660"/><line style="stroke:#000000;stroke-width:0.5;" x1="212" x2="400.0205" y1="686.2969" y2="686.2969"/><text fill="#000000" font-family="sans-serif" font-size="14" lengthAdjust="spacing" textLength="168.0205" x="222" y="677.9951">INVITACIONES_ABIERTO</text></g><g id="FinSistema"><rect fill="#FFFFFF" height="50" rx="12.5" ry="12.5" style="stroke:#000000;stroke-width:0.5;" width="172.0654" x="435" y="660"/><line style="stroke:#000000;stroke-width:0.5;" x1="435" x2="607.0654" y1="686.2969" y2="686.2969"/><text fill="#000000" font-family="sans-serif" font-size="14" lengthAdjust="spacing" textLength="152.0654" x="445" y="677.9951">SISTEMA_DISPONIBLE</text></g><!--link Inicio to AbrirInvitacionesContainer--><g class="link" data-entity-1="Inicio" data-entity-2="AbrirInvitacionesContainer" data-source-line="64" data-uid="lnk8" id="link_Inicio_AbrirInvitacionesContainer"><path d="M207.4,57.13 C212.69,72.35 218.1376,88.0035 226.5576,112.1935" fill="none" id="Inicio-to-AbrirInvitacionesContainer" style="stroke:#009900;stroke-width:1;"/><polygon fill="#009900" points="228.53,117.86,229.3491,108.0453,226.8863,113.1379,221.7937,110.6751,228.53,117.86" style="stroke:#009900;stroke-width:1;"/></g><!--link EntradaLista to AbrirInvitacionesContainer--><g class="link" data-entity-1="EntradaLista" data-entity-2="AbrirInvitacionesContainer" data-source-line="65" data-uid="lnk9" id="link_EntradaLista_AbrirInvitacionesContainer"><path d="M405.53,57.13 C400.18,72.35 394.677,88.0086 386.187,112.1986" fill="none" id="EntradaLista-to-AbrirInvitacionesContainer" style="stroke:#009900;stroke-width:1;"/><polygon fill="#009900" points="384.2,117.86,390.9548,110.6925,385.8558,113.1421,383.4062,108.0432,384.2,117.86" style="stroke:#009900;stroke-width:1;"/></g><!--link AbrirInvitacionesContainer to FinDetalle--><g class="link" data-entity-1="AbrirInvitacionesContainer" data-entity-2="FinDetalle" data-source-line="68" data-uid="lnk10" id="link_AbrirInvitacionesContainer_FinDetalle"><path d="M166.55,565.04 C142.52,603.39 124.0856,632.7955 110.3956,654.6455" fill="none" id="AbrirInvitacionesContainer-to-FinDetalle" style="stroke:#009900;stroke-width:1;"/><polygon fill="#009900" points="107.21,659.73,115.3781,654.2271,109.8647,655.493,108.5988,649.9796,107.21,659.73" style="stroke:#009900;stroke-width:1;"/><path d="M149,600 L149,625 L281,625 L281,610 L271,600 L149,600" fill="#FFFFE0" style="stroke:#B0B060;stroke-width:0.5;"/><path d="M271,600 L271,610 L281,610 L271,600" fill="#FFFFE0" style="stroke:#B0B060;stroke-width:0.5;"/><text fill="#000000" font-family="Arial" font-size="13" lengthAdjust="spacing" textLength="111.8076" x="155" y="617.0669">editarInvitacion()</text></g><!--link AbrirInvitacionesContainer to FinLista--><g class="link" data-entity-1="AbrirInvitacionesContainer" data-entity-2="FinLista" data-source-line="73" data-uid="lnk11" id="link_AbrirInvitacionesContainer_FinLista"><path d="M306,565.04 C306,603.39 306,631.88 306,653.73" fill="none" id="AbrirInvitacionesContainer-to-FinLista" style="stroke:#009900;stroke-width:1;"/><polygon fill="#009900" points="306,659.73,310,650.73,306,654.73,302,650.73,306,659.73" style="stroke:#009900;stroke-width:1;"/><path d="M311,600 L311,625 L450,625 L450,610 L440,600 L311,600" fill="#FFFFE0" style="stroke:#B0B060;stroke-width:0.5;"/><path d="M440,600 L440,610 L450,610 L440,600" fill="#FFFFE0" style="stroke:#B0B060;stroke-width:0.5;"/><text fill="#000000" font-family="Arial" font-size="13" lengthAdjust="spacing" textLength="118.8281" x="317" y="617.0669">abrirInvitaciones()</text></g><!--link AbrirInvitacionesContainer to FinSistema--><g class="link" data-entity-1="AbrirInvitacionesContainer" data-entity-2="FinSistema" data-source-line="78" data-uid="lnk12" id="link_AbrirInvitacionesContainer_FinSistema"><path d="M446.11,565.04 C470.25,603.39 488.7744,632.8018 502.5244,654.6518" fill="none" id="AbrirInvitacionesContainer-to-FinSistema" style="stroke:#009900;stroke-width:1;"/><polygon fill="#009900" points="505.72,659.73,504.312,649.9823,503.057,655.4982,497.5411,654.2432,505.72,659.73" style="stroke:#009900;stroke-width:1;"/><path d="M489,600 L489,625 L635,625 L635,610 L625,600 L489,600" fill="#FFFFE0" style="stroke:#B0B060;stroke-width:0.5;"/><path d="M625,600 L625,610 L635,610 L625,600" fill="#FFFFE0" style="stroke:#B0B060;stroke-width:0.5;"/><text fill="#000000" font-family="Arial" font-size="13" lengthAdjust="spacing" textLength="125.9248" x="495" y="617.0669">completarGestion()</text></g><!--SRC=[bLNHQjim57tFLroQXxQ156-3GLy6Sk8MZTJEudGRZ54KMsdKsbAGbPOn1lkMlUrvdz0_sPViIafQnqcJLIyXLqVdNfrxZtm8FIMdudgXMIOU_aYu4zM25I3oXz_IY8m1_k4tl9mN2d8ERAA5FjUBkQgEZblLhP1pfba9fP8gcsbLSfYoekArhMh6SdM_31ir1wDWeenH9UH2yym89Ljrl666m_SMu0fPTdkjrKBcFLKe3Pzcmd2_etJEjO-61S9Sb6Yjxdsm7GIdfq7WmgbXsZInqOhKXtxKQv3gsHBQPxYYOAE8TXY4mLiVFrFIn0or85gmmb8VmgiJYD8nwISfz2E8ul68z0aSaT68XWIbTBS-I6awZYx8LP-cmoIcuI0w05O1bI8JQWMYyKSw9ZsQn55wHK8QZSQ9WqNIQ9QpWK2WpVdw1C91yk4oWk68nZqw90DCFe0UIHDRnMMQh3XTOwcy4mO7GKcExNMKf1d7UJ5CIAwN-ZpRKRkv90T7DMILSXT1IRPkBkksUrywNw7RVRTnnZL6IIY4z5sqgzEv4BoSQDNfGAKAH1lc9nL4hNA7vp9t93vDZVundQzYHx8K0Rnac6okUSLH3aJW6UkFZNns_Vtv2sYEG355H-KuBD-0uu7SMGeZxF4SMd3js93h4aV-yLeQfgB09ckVSW-Mv-wdIRwfWRipTBMudfd_bM6Bvjjhsw6OFv2pzRBidsPfM1NEn0lhMKZNb0BdIyst3O5pvfirPwPaG9qnG_8-ETwqt9hXpeJiSyEAWk_r9aAzfBkTZh2bMhQqRhSB-534AVMC47qUHwEOf7R70fQEh_2QbNsUjHOJrlBFXHFjUV-swg_5FYocIbaXRAOPRbfxiHk5AcKUUTpQyL1OxffIZVxv8NqwYT-Lfm7Tp-f5RN1kUSrUHBfgGOCsK_WTn5leSxJlUgd_0000]--></g></svg>