<svg xmlns="http://www.w3.org/2000/svg" xmlns:xlink="http://www.w3.org/1999/xlink" contentStyleType="text/css" data-diagram-type="STATE" height="716px" preserveAspectRatio="none" style="width:642px;height:716px;background:#FFFFFF;" version="1.1" viewBox="0 0 642 716" width="642px" zoomAndPan="magnify"><defs/><g><g id="Inicio"><rect fill="#FFFFFF" height="50" rx="12.5" ry="12.5" style="stroke:#000000;stroke-width:0.5;" width="172.0654" x="220" y="7"/><line style="stroke:#000000;stroke-width:0.5;" x1="220" x2="392.0654" y1="33.2969" y2="33.2969"/><text fill="#000000" font-family="sans-serif" font-size="14" lengthAdjust="spacing" textLength="152.0654" x="230" y="24.9951">SISTEMA_DISPONIBLE</text></g><path d="M137.5,118 L474.5,118 A12.5,12.5 0 0 1 487,130.5 L487,144.2969 L125,144.2969 L125,130.5 A12.5,12.5 0 0 1 137.5,118" fill="#FFFFFF"/><rect fill="none" height="447.2969" rx="12.5" ry="12.5" style="stroke:#000000;stroke-width:0.5;" width="362" x="125" y="118"/><line style="stroke:#000000;stroke-width:0.5;" x1="125" x2="487" y1="144.2969" y2="144.2969"/><text fill="#000000" font-family="sans-serif" font-size="14" lengthAdjust="spacing" textLength="127.9688" x="242.0156" y="135.9951">abrirInvitaciones()</text><g id="MainBlock.PasoInicial"><rect fill="#FFFFFF" height="50" rx="12.5" ry="12.5" style="stroke:#000000;stroke-width:0.5;" width="50" x="137" y="246.2969"/><line style="stroke:#000000;stroke-width:0.5;" x1="137" x2="187" y1="272.5938" y2="272.5938"/><text fill="#000000" font-family="sans-serif" font-size="14" lengthAdjust="spacing" textLength="4.4502" x="159.7749" y="264.292">&#160;</text></g><g id="MainBlock.PasoLista"><rect fill="#FFFFFF" height="50" rx="12.5" ry="12.5" style="stroke:#000000;stroke-width:0.5;" width="50" x="137" y="412.2969"/><line style="stroke:#000000;stroke-width:0.5;" x1="137" x2="187" y1="438.5938" y2="438.5938"/><text fill="#000000" font-family="sans-serif" font-size="14" lengthAdjust="spacing" textLength="4.4502" x="159.7749" y="430.292">&#160;</text></g><ellipse cx="162" cy="165.2969" fill="#222222" rx="10" ry="10" style="stroke:#222222;stroke-width:1;"/><ellipse cx="162" cy="544.2969" fill="none" rx="11" ry="11" style="stroke:#222222;stroke-width:1;"/><ellipse cx="162" cy="544.2969" fill="#222222" rx="6" ry="6" style="stroke:#222222;stroke-width:1;"/><!--link *start*MainBlock to PasoInicial--><g class="link" data-entity-1=".start.MainBlock" data-entity-2="PasoInicial" data-source-line="32" data-uid="lnk3" id="link_.start.MainBlock_PasoInicial"><path d="M162,175.5269 C162,191.2369 162,217.6569 162,240.1669" fill="none" id="*start*MainBlock-to-PasoInicial" style="stroke:#009900;stroke-width:1;"/><polygon fill="#009900" points="162,246.1669,166,237.1669,162,241.1669,158,237.1669,162,246.1669" style="stroke:#009900;stroke-width:1;"/><path d="M167,198.2969 L167,223.2969 L419,223.2969 L419,208.2969 L409,198.2969 L167,198.2969" fill="#FFFFE0" style="stroke:#B0B060;stroke-width:0.5;"/><path d="M409,198.2969 L409,208.2969 L419,208.2969 L409,198.2969" fill="#FFFFE0" style="stroke:#B0B060;stroke-width:0.5;"/><text fill="#000000" font-family="Arial" font-size="13" font-weight="bold" lengthAdjust="spacing" textLength="64.4033" x="173" y="215.3638">Miembro</text><text fill="#000000" font-family="Arial" font-size="13" lengthAdjust="spacing" textLength="162.5" x="241.5356" y="215.3638">solicita abrir invitaciones</text></g><!--link PasoInicial to PasoLista--><g class="link" data-entity-1="PasoInicial" data-entity-2="PasoLista" data-source-line="38" data-uid="lnk4" id="link_PasoInicial_PasoLista"><path d="M162,296.4969 C162,327.5869 162,375.2469 162,406.2669" fill="none" id="PasoInicial-to-PasoLista" style="stroke:#009900;stroke-width:1;"/><polygon fill="#009900" points="162,412.2669,166,403.2669,162,407.2669,158,403.2669,162,412.2669" style="stroke:#009900;stroke-width:1;"/><path d="M167,319.2969 L167,389.2969 L478,389.2969 L478,329.2969 L468,319.2969 L167,319.2969" fill="#FFFFE0" style="stroke:#B0B060;stroke-width:0.5;"/><path d="M468,319.2969 L468,329.2969 L478,329.2969 L468,319.2969" fill="#FFFFE0" style="stroke:#B0B060;stroke-width:0.5;"/><text fill="#000000" font-family="Arial" font-size="13" font-weight="bold" lengthAdjust="spacing" textLength="58.9063" x="173" y="336.3638">Sistema</text><text fill="#000000" font-family="Arial" font-size="13" lengthAdjust="spacing" textLength="191.3184" x="236.0386" y="336.3638">presenta lista de invitaciones</text><text fill="#000000" font-family="Arial" font-size="13" lengthAdjust="spacing" textLength="276.834" x="173" y="351.4966">&#8226; Identificador y estado de cada invitaci&#243;n</text><text fill="#000000" font-family="Arial" font-size="13" lengthAdjust="spacing" textLength="7.668" x="173" y="366.6294">&#8226;</text><text fill="#000000" font-family="Arial" font-size="13" font-weight="bold" lengthAdjust="spacing" textLength="58.9063" x="184.8003" y="366.6294">Sistema</text><text fill="#000000" font-family="Arial" font-size="13" lengthAdjust="spacing" textLength="177.0933" x="247.8389" y="366.6294">permite solicitar filtrar lista</text><text fill="#000000" font-family="Arial" font-size="13" lengthAdjust="spacing" textLength="7.668" x="173" y="381.7622">&#8226;</text><text fill="#000000" font-family="Arial" font-size="13" font-weight="bold" lengthAdjust="spacing" textLength="58.9063" x="184.8003" y="381.7622">Sistema</text><text fill="#000000" font-family="Arial" font-size="13" lengthAdjust="spacing" textLength="215.9219" x="247.8389" y="381.7622">permite solicitar editar invitaci&#243;n</text></g><!--link PasoLista to PasoLista--><g class="link" data-entity-1="PasoLista" data-entity-2="PasoLista" data-source-line="47" data-uid="lnk5" id="link_PasoLista_PasoLista"><path d="M187.18,426.0869 C196.91,425.5969 205,429.3269 205,437.2969 C205,445.2669 202.9024,449.2987 193.1724,448.8087" fill="none" id="PasoLista-to-PasoLista" style="stroke:#009900;stroke-width:1;"/><polygon fill="#009900" points="187.18,448.5069,195.9674,452.9545,192.1737,448.7584,196.3698,444.9646,187.18,448.5069" style="stroke:#009900;stroke-width:1;"/><path d="M210,417.2969 L210,457.2969 L433,457.2969 L433,427.2969 L423,417.2969 L210,417.2969" fill="#FFFFE0" style="stroke:#B0B060;stroke-width:0.5;"/><path d="M423,417.2969 L423,427.2969 L433,427.2969 L423,417.2969" fill="#FFFFE0" style="stroke:#B0B060;stroke-width:0.5;"/><text fill="#000000" font-family="Arial" font-size="13" font-weight="bold" lengthAdjust="spacing" textLength="64.4033" x="216" y="434.3638">Miembro</text><text fill="#000000" font-family="Arial" font-size="13" lengthAdjust="spacing" textLength="116.6509" x="284.5356" y="434.3638">solicita filtrar lista</text><text fill="#000000" font-family="Arial" font-size="13" font-weight="bold" lengthAdjust="spacing" textLength="58.9063" x="216" y="449.4966">Sistema</text><text fill="#000000" font-family="Arial" font-size="13" lengthAdjust="spacing" textLength="139.4199" x="279.0386" y="449.4966">presenta lista filtrada</text></g><!--link PasoLista to *end*MainBlock--><g class="link" data-entity-1="PasoLista" data-entity-2=".end.MainBlock" data-source-line="54" data-uid="lnk7" id="link_PasoLista_.end.MainBlock"><path d="M162,462.3869 C162,484.7869 162,511.0669 162,527.2469" fill="none" id="PasoLista-to-*end*MainBlock" style="stroke:#009900;stroke-width:1;"/><polygon fill="#009900" points="162,533.2469,166,524.2469,162,528.2469,158,524.2469,162,533.2469" style="stroke:#009900;stroke-width:1;"/><path d="M167,485.2969 L167,510.2969 L435,510.2969 L435,495.2969 L425,485.2969 L167,485.2969" fill="#FFFFE0" style="stroke:#B0B060;stroke-width:0.5;"/><path d="M425,485.2969 L425,495.2969 L435,495.2969 L425,485.2969" fill="#FFFFE0" style="stroke:#B0B060;stroke-width:0.5;"/><text fill="#000000" font-family="Arial" font-size="13" font-weight="bold" lengthAdjust="spacing" textLength="64.4033" x="173" y="502.3638">Miembro</text><text fill="#000000" font-family="Arial" font-size="13" lengthAdjust="spacing" textLength="179.2769" x="241.5356" y="502.3638">solicita una de las opciones</text></g><g id="FinDetalle"><rect fill="#FFFFFF" height="50" rx="12.5" ry="12.5" style="stroke:#000000;stroke-width:0.5;" width="170.2881" x="7" y="660"/><line style="stroke:#000000;stroke-width:0.5;" x1="7" x2="177.2881" y1="686.2969" y2="686.2969"/><text fill="#000000" font-family="sans-serif" font-size="14" lengthAdjust="spacing" textLength="150.2881" x="17" y="677.9951">INVITACION_ABIERTO</text></g><g id="FinLista"><rect fill="#FFFFFF" height="50" rx="12.5" ry="12.5" style="stroke:#000000;stroke-width:0.5;" width="188.0205" x="212" y="660"/><line style="stroke:#000000;stroke-width:0.5;" x1="212" x2="400.0205" y1="686.2969" y2="686.2969"/><text fill="#000000" font-family="sans-serif" font-size="14" lengthAdjust="spacing" textLength="168.0205" x="222" y="677.9951">INVITACIONES_ABIERTO</text></g><g id="FinSistema"><rect fill="#FFFFFF" height="50" rx="12.5" ry="12.5" style="stroke:#000000;stroke-width:0.5;" width="172.0654" x="435" y="660"/><line style="stroke:#000000;stroke-width:0.5;" x1="435" x2="607.0654" y1="686.2969" y2="686.2969"/><text fill="#000000" font-family="sans-serif" font-size="14" lengthAdjust="spacing" textLength="152.0654" x="445" y="677.9951">SISTEMA_DISPONIBLE</text></g><!--link Inicio to MainBlock--><g class="link" data-entity-1="Inicio" data-entity-2="MainBlock" data-source-line="68" data-uid="lnk8" id="link_Inicio_MainBlock"><path d="M306,57.13 C306,72.35 306,87.67 306,111.86" fill="none" id="Inicio-to-MainBlock" style="stroke:#009900;stroke-width:1;"/><polygon fill="#009900" points="306,117.86,310,108.86,306,112.86,302,108.86,306,117.86" style="stroke:#009900;stroke-width:1;"/></g><!--link MainBlock to FinDetalle--><g class="link" data-entity-1="MainBlock" data-entity-2="FinDetalle" data-source-line="71" data-uid="lnk9" id="link_MainBlock_FinDetalle"><path d="M166.55,565.04 C142.52,603.39 124.0856,632.7955 110.3956,654.6455" fill="none" id="MainBlock-to-FinDetalle" style="stroke:#009900;stroke-width:1;"/><polygon fill="#009900" points="107.21,659.73,115.3781,654.2271,109.8647,655.493,108.5988,649.9796,107.21,659.73" style="stroke:#009900;stroke-width:1;"/><path d="M149,600 L149,625 L281,625 L281,610 L271,600 L149,600" fill="#FFFFE0" style="stroke:#B0B060;stroke-width:0.5;"/><path d="M271,600 L271,610 L281,610 L271,600" fill="#FFFFE0" style="stroke:#B0B060;stroke-width:0.5;"/><text fill="#000000" font-family="Arial" font-size="13" lengthAdjust="spacing" textLength="111.8076" x="155" y="617.0669">editarInvitacion()</text></g><!--link MainBlock to FinLista--><g class="link" data-entity-1="MainBlock" data-entity-2="FinLista" data-source-line="77" data-uid="lnk10" id="link_MainBlock_FinLista"><path d="M306,565.04 C306,603.39 306,631.88 306,653.73" fill="none" id="MainBlock-to-FinLista" style="stroke:#009900;stroke-width:1;"/><polygon fill="#009900" points="306,659.73,310,650.73,306,654.73,302,650.73,306,659.73" style="stroke:#009900;stroke-width:1;"/></g><!--link MainBlock to FinSistema--><g class="link" data-entity-1="MainBlock" data-entity-2="FinSistema" data-source-line="80" data-uid="lnk11" id="link_MainBlock_FinSistema"><path d="M446.11,565.04 C470.25,603.39 488.7744,632.8018 502.5244,654.6518" fill="none" id="MainBlock-to-FinSistema" style="stroke:#009900;stroke-width:1;"/><polygon fill="#009900" points="505.72,659.73,504.312,649.9823,503.057,655.4982,497.5411,654.2432,505.72,659.73" style="stroke:#009900;stroke-width:1;"/><path d="M489,600 L489,625 L635,625 L635,610 L625,600 L489,600" fill="#FFFFE0" style="stroke:#B0B060;stroke-width:0.5;"/><path d="M625,600 L625,610 L635,610 L625,600" fill="#FFFFE0" style="stroke:#B0B060;stroke-width:0.5;"/><text fill="#000000" font-family="Arial" font-size="13" lengthAdjust="spacing" textLength="125.9248" x="495" y="617.0669">completarGestion()</text></g><!--SRC=[bLLBRjim4Dtx58Da4Tk00hS52cHJGBBbGeKZkvQJ5WY2W9Pecmb56XITj2WATDjhTDTrZv2Rz2GTafByJP1gOtauVFFU_7G2NIbcRBvI96MFVmJSis95EB3iyRVGB2L0GAyAeBSqNt9PG2gLegcMHQEuOs995CaXbqAc2oLp2ZF22xfnL2n89XzAivPBq1AcKckPGyOC49EYiUclYQRmhG7u12Izcokv4bbNSgdWqu9fwawaogXore2ZcxNwIia7PppkTCxEEXrhJZHHUjSth42TwVic1o6Vf73SnoVix94u3Zf1vwspzwNGCS5S-8eHRg1FuDKfXCd4xmsX5q8OJyP-puUcFnv7WTzgED57IPHCmdF_fXSbes4S1OFm24W1aM0famRbzIa4W-77Yn16uoZkHYD_W7W3wFg91Rv8XXKMcIgc8d7FDDPL2beqMnRid30HS9dUbGAVB8avF84GuJAiUaQ1Y9IJMmfCQAe4rjzubD70Oez88IrPL7tmSC3GL44xMU2zWqHoVDMhp9vSjQ_1G-ikcgsA5C2PS2KqJxjzpcW-LRBTXiB1OCSQxSXpBTxwKv5Pa8f07TPm62bQKA7B8K2vt78rdXj4QcA3-lG9MWawq9mWhMM9x10Dz1upy_pzyGkY31tP3ASkmvxw2jHctrn12wdl8SEjQrlHgCfnIkfaA9WnhXN-hWMzx1xDxCzkqDqi1gkKKqEnR-CWtMP2-Sp3Tr4mqqkjEeisQ-0fDb_eboRoG7qFAtecv-v2HhO5c3zLAr1EqxhqSkbUaMAVYQhXTrNWARRgVr9V2Ti170V2HDdlJRijtbJR8Z5JdVY3o6wBmFymh9T555z64xyR3UCRFuZ2yMHenmm9zwWcdDDznp3PTNNPVtxze5kPM4FDypp0xHKdaKE4yFCa7CT-OawCGoXigb5bOPQ6KcnA6jMiOyxg1MIS4yAPzON7dryOxg7c9SMbse85TfonMoMRCsFQSBt3lAjoqL-xMbNIzmhYcdcz3vkjnhgHQnukAg_Qfaa53bvX1r2GUpeljuDh2DBQ9EBYbmkk1bpY6ASIFvpKZD8Svza2D2zNbDzZTl0xQpDp0AhA-PwK6k-zWTkIyWy0]--></g></svg>