<svg xmlns="http://www.w3.org/2000/svg" xmlns:xlink="http://www.w3.org/1999/xlink" contentStyleType="text/css" data-diagram-type="SALT" height="255px" preserveAspectRatio="none" style="width:304px;height:255px;background:#FFFFFF;" version="1.1" viewBox="0 0 304 255" width="304px" zoomAndPan="magnify"><defs/><g><rect fill="#EEEEEE" height="16.9688" style="stroke:#000000;stroke-width:1;" width="167" x="6" y="6"/><text fill="#000000" font-family="monospace" font-size="12" lengthAdjust="spacing" textLength="108.3691" x="8" y="19.1387">Vincular&#160;Tareas</text><line style="stroke:#000000;stroke-width:1;" x1="162" x2="162" y1="6" y2="22.9688"/><polygon fill="#000000" points="165,12,171,12,168,17.9688" style="stroke:#000000;stroke-width:1;"/><text fill="#000000" font-family="sans-serif" font-size="12" lengthAdjust="spacing" textLength="79.1602" x="6" y="37.1074">Tarea actual:</text><text fill="#000000" font-family="sans-serif" font-size="12" font-weight="bold" lengthAdjust="spacing" textLength="207.2695" x="88.9746" y="37.1074">TSK-101: Redactar Documento</text><text fill="#000000" font-family="sans-serif" font-size="12" lengthAdjust="spacing" textLength="167.0098" x="6" y="69.0449">Seleccione tarea a vincular:</text><rect fill="#EEEEEE" height="16.9688" style="stroke:#000000;stroke-width:1;" width="207" x="6" y="73.875"/><text fill="#000000" font-family="sans-serif" font-size="12" lengthAdjust="spacing" textLength="160.541" x="8" y="87.0137">TSK-102: Dise&#241;ar Mockups</text><line style="stroke:#000000;stroke-width:1;" x1="202" x2="202" y1="73.875" y2="90.8438"/><polygon fill="#000000" points="205,79.875,211,79.875,208,85.8438" style="stroke:#000000;stroke-width:1;"/><text fill="#000000" font-family="sans-serif" font-size="12" lengthAdjust="spacing" textLength="100.1777" x="6" y="120.9512">Tipo de relaci&#243;n:</text><text fill="#000000" font-family="sans-serif" font-size="12" lengthAdjust="spacing" textLength="60.0352" x="26" y="136.9199">Bloquea a</text><ellipse cx="13" cy="132.7656" fill="none" rx="5" ry="5" style="stroke:#000000;stroke-width:1.5;"/><ellipse cx="13" cy="132.7656" fill="#000000" rx="2" ry="2" style="stroke:#000000;stroke-width:1.5;"/><text fill="#000000" font-family="sans-serif" font-size="12" lengthAdjust="spacing" textLength="73.043" x="26" y="152.8887">Depende de</text><ellipse cx="13" cy="148.7344" fill="none" rx="5" ry="5" style="stroke:#000000;stroke-width:1.5;"/><text fill="#000000" font-family="sans-serif" font-size="12" lengthAdjust="spacing" textLength="98.9707" x="26" y="168.8574">Relacionada con</text><ellipse cx="13" cy="164.7031" fill="none" rx="5" ry="5" style="stroke:#000000;stroke-width:1.5;"/><text fill="#000000" font-family="sans-serif" font-size="12" lengthAdjust="spacing" textLength="62.3027" x="6" y="202.7949">[Cancelar]</text><line style="stroke:#000000;stroke-width:1;" x1="6" x2="96.1875" y1="189.6563" y2="189.6563"/><line style="stroke:#000000;stroke-width:1;" x1="6" x2="6" y1="189.6563" y2="208.625"/><line style="stroke:#000000;stroke-width:1;" x1="6" x2="96.1875" y1="208.625" y2="208.625"/><line style="stroke:#000000;stroke-width:1;" x1="96.1875" x2="96.1875" y1="208.625" y2="218.625"/><text fill="#000000" font-family="sans-serif" font-size="12" lengthAdjust="spacing" textLength="90.1875" x="6" y="231.7637">[Crear V&#237;nculo]</text><line style="stroke:#000000;stroke-width:1;" x1="6" x2="96.1875" y1="218.625" y2="218.625"/><line style="stroke:#000000;stroke-width:1;" x1="6" x2="6" y1="218.625" y2="237.5938"/><line style="stroke:#000000;stroke-width:1;" x1="6" x2="96.1875" y1="237.5938" y2="237.5938"/><line style="stroke:#000000;stroke-width:1;" x1="96.1875" x2="96.1875" y1="237.5938" y2="247.5938"/><line style="stroke:#000000;stroke-width:1;" x1="5" x2="297.2441" y1="5" y2="5"/><line style="stroke:#000000;stroke-width:1;" x1="5" x2="297.2441" y1="248.5938" y2="248.5938"/><line style="stroke:#000000;stroke-width:1;" x1="5" x2="5" y1="5" y2="24.9688"/><line style="stroke:#000000;stroke-width:1;" x1="297.2441" x2="297.2441" y1="5" y2="24.9688"/><line style="stroke:#000000;stroke-width:1;" x1="5" x2="5" y1="188.6563" y2="248.5938"/><line style="stroke:#000000;stroke-width:1;" x1="297.2441" x2="297.2441" y1="188.6563" y2="248.5938"/><line style="stroke:#000000;stroke-width:1;" x1="5" x2="5" y1="156.7188" y2="172.6875"/><line style="stroke:#000000;stroke-width:1;" x1="297.2441" x2="297.2441" y1="156.7188" y2="172.6875"/><line style="stroke:#000000;stroke-width:1;" x1="5" x2="5" y1="124.7813" y2="140.75"/><line style="stroke:#000000;stroke-width:1;" x1="297.2441" x2="297.2441" y1="124.7813" y2="140.75"/><line style="stroke:#000000;stroke-width:1;" x1="5" x2="5" y1="92.8438" y2="108.8125"/><line style="stroke:#000000;stroke-width:1;" x1="297.2441" x2="297.2441" y1="92.8438" y2="108.8125"/><line style="stroke:#000000;stroke-width:1;" x1="5" x2="5" y1="56.9063" y2="72.875"/><line style="stroke:#000000;stroke-width:1;" x1="297.2441" x2="297.2441" y1="56.9063" y2="72.875"/><line style="stroke:#000000;stroke-width:1;" x1="5" x2="5" y1="24.9688" y2="40.9375"/><line style="stroke:#000000;stroke-width:1;" x1="297.2441" x2="297.2441" y1="24.9688" y2="40.9375"/><line style="stroke:#000000;stroke-width:1;" x1="5" x2="5" y1="172.6875" y2="188.6563"/><line style="stroke:#000000;stroke-width:1;" x1="297.2441" x2="297.2441" y1="172.6875" y2="188.6563"/><line style="stroke:#000000;stroke-width:1;" x1="5" x2="5" y1="140.75" y2="156.7188"/><line style="stroke:#000000;stroke-width:1;" x1="297.2441" x2="297.2441" y1="140.75" y2="156.7188"/><line style="stroke:#000000;stroke-width:1;" x1="5" x2="5" y1="108.8125" y2="124.7813"/><line style="stroke:#000000;stroke-width:1;" x1="297.2441" x2="297.2441" y1="108.8125" y2="124.7813"/><line style="stroke:#000000;stroke-width:1;" x1="5" x2="5" y1="72.875" y2="92.8438"/><line style="stroke:#000000;stroke-width:1;" x1="297.2441" x2="297.2441" y1="72.875" y2="92.8438"/><line style="stroke:#000000;stroke-width:1;" x1="5" x2="5" y1="40.9375" y2="56.9063"/><line style="stroke:#000000;stroke-width:1;" x1="297.2441" x2="297.2441" y1="40.9375" y2="56.9063"/><!--SRC=[HP71RXen48RlVeeH9w22xY8QfJv5PDDAm2OHBAXI5QIfTugi6fjwxPMY98-KGzL7uCKoBXlrOCl-_S_dt-Eh9g0F3Pe0dWmgxIpw2ZrX8vu-281ThxVLLaM37ivwhxTZ_TyQK8M8Hi9mMAqNeppB9QoePfNTXLFnG3QuuP3zOnvhCgJI5GJXN0vjnvRfgZDZ8g7G3Pt-CADqwbSyDhiEKEcZWvgwgAU_DfNrlmrWPjplc81f3mCew4YMZJLrmkhzSJM2ShRZFNq4dk7xDLh51ly0pxpXP1wsfzUKp3smuKMyY2lcfJO9SM_GXasvX9PymqZ8nvDiyccSP_qg4jow5h8fv9cSP7Bw6Sfr1Uby8FfVxvVGkEWL1zDDyFf730mOY3cs2AjeWpwGX3lEFYyMxmBSs5PxPrClnNnR_ZTSJ4Sp7RYjdgF0jXG5_SJ8NtbZbQkrtKlOL5z6bsA9TXznpsooujenrpzAiD6ODm00]--></g></svg>