<svg xmlns="http://www.w3.org/2000/svg" xmlns:xlink="http://www.w3.org/1999/xlink" contentStyleType="text/css" data-diagram-type="STATE" height="529px" preserveAspectRatio="none" style="width:340px;height:529px;background:#FFFFFF;" version="1.1" viewBox="0 0 340 529" width="340px" zoomAndPan="magnify"><defs/><g><g id="TAREAS_ABIERTO"><rect fill="#FFFFFF" height="50" rx="12.5" ry="12.5" style="stroke:#000000;stroke-width:0.5;" width="143.6211" x="95" y="7"/><line style="stroke:#000000;stroke-width:0.5;" x1="95" x2="238.6211" y1="33.2969" y2="33.2969"/><text fill="#000000" font-family="sans-serif" font-size="14" lengthAdjust="spacing" textLength="123.6211" x="105" y="24.9951">TAREAS_ABIERTO</text></g><g id="TAREAS_ABIERTO_FINAL"><rect fill="#FFFFFF" height="50" rx="12.5" ry="12.5" style="stroke:#000000;stroke-width:0.5;" width="143.6211" x="95" y="473"/><line style="stroke:#000000;stroke-width:0.5;" x1="95" x2="238.6211" y1="499.2969" y2="499.2969"/><text fill="#000000" font-family="sans-serif" font-size="14" lengthAdjust="spacing" textLength="123.6211" x="105" y="490.9951">TAREAS_ABIERTO</text></g><path d="M19.5,117 L314.5,117 A12.5,12.5 0 0 1 327,129.5 L327,143.2969 L7,143.2969 L7,129.5 A12.5,12.5 0 0 1 19.5,117" fill="#FFFFFF"/><rect fill="none" height="296.2969" rx="12.5" ry="12.5" style="stroke:#000000;stroke-width:0.5;" width="320" x="7" y="117"/><line style="stroke:#000000;stroke-width:0.5;" x1="7" x2="327" y1="143.2969" y2="143.2969"/><text fill="#000000" font-family="sans-serif" font-size="14" lengthAdjust="spacing" textLength="145.8311" x="94.0845" y="134.9951">marcarCompletada()</text><ellipse cx="44" cy="164.2969" fill="#222222" rx="10" ry="10" style="stroke:#222222;stroke-width:1;"/><g id="marcarCompletada.Intermedio"><rect fill="#FFFFFF" height="50" rx="12.5" ry="12.5" style="stroke:#000000;stroke-width:0.5;" width="50" x="19" y="245.2969"/><line style="stroke:#000000;stroke-width:0.5;" x1="19" x2="69" y1="271.5938" y2="271.5938"/><text fill="#000000" font-family="sans-serif" font-size="14" lengthAdjust="spacing" textLength="4.4502" x="41.7749" y="263.292">&#160;</text></g><ellipse cx="44" cy="392.2969" fill="none" rx="11" ry="11" style="stroke:#222222;stroke-width:1;"/><ellipse cx="44" cy="392.2969" fill="#222222" rx="6" ry="6" style="stroke:#222222;stroke-width:1;"/><!--link Inicio to Intermedio--><g class="link" data-entity-1="Inicio" data-entity-2="Intermedio" data-source-line="19" data-uid="lnk2" id="link_Inicio_Intermedio"><path d="M44,174.5269 C44,190.2369 44,216.6569 44,239.1669" fill="none" id="Inicio-to-Intermedio" style="stroke:#008000;stroke-width:1;"/><polygon fill="#008000" points="44,245.1669,48,236.1669,44,240.1669,40,236.1669,44,245.1669" style="stroke:#008000;stroke-width:1;"/><path d="M49,197.2969 L49,222.2969 L307,222.2969 L307,207.2969 L297,197.2969 L49,197.2969" fill="#FEFECE" style="stroke:#D7B75F;stroke-width:0.5;"/><path d="M297,197.2969 L297,207.2969 L307,207.2969 L297,197.2969" fill="#FEFECE" style="stroke:#D7B75F;stroke-width:0.5;"/><text fill="#000000" font-family="sans-serif" font-size="13" font-weight="bold" lengthAdjust="spacing" textLength="56.1196" x="55" y="214.3638">Usuario</text><text fill="#000000" font-family="sans-serif" font-size="13" lengthAdjust="spacing" textLength="177.3789" x="115.252" y="214.3638">solicita marcar completada</text></g><!--link Intermedio to Fin--><g class="link" data-entity-1="Intermedio" data-entity-2="Fin" data-source-line="24" data-uid="lnk3" id="link_Intermedio_Fin"><path d="M44,295.5769 C44,321.8769 44,356.5669 44,375.2769" fill="none" id="Intermedio-to-Fin" style="stroke:#008000;stroke-width:1;"/><polygon fill="#008000" points="44,381.2769,48,372.2769,44,376.2769,40,372.2769,44,381.2769" style="stroke:#008000;stroke-width:1;"/><path d="M49,318.2969 L49,358.2969 L318,358.2969 L318,328.2969 L308,318.2969 L49,318.2969" fill="#FEFECE" style="stroke:#D7B75F;stroke-width:0.5;"/><path d="M308,318.2969 L308,328.2969 L318,328.2969 L308,318.2969" fill="#FEFECE" style="stroke:#D7B75F;stroke-width:0.5;"/><text fill="#000000" font-family="sans-serif" font-size="13" font-weight="bold" lengthAdjust="spacing" textLength="58.9063" x="55" y="335.3638">Sistema</text><text fill="#000000" font-family="sans-serif" font-size="13" lengthAdjust="spacing" textLength="185.4976" x="118.0386" y="335.3638">visualiza estado completado</text><ellipse cx="60.5" cy="346.0625" fill="#000000" rx="2.5" ry="2.5"/><text fill="#000000" font-family="sans-serif" font-size="13" lengthAdjust="spacing" textLength="116.3208" x="67" y="350.4966">Fecha finalizaci&#243;n</text></g><!--link TAREAS_ABIERTO to marcarCompletada--><g class="link" data-entity-1="TAREAS_ABIERTO" data-entity-2="marcarCompletada" data-source-line="31" data-uid="lnk4" id="link_TAREAS_ABIERTO_marcarCompletada"><path d="M167,57.28 C167,72.63 167,87.88 167,110.95" fill="none" id="TAREAS_ABIERTO-to-marcarCompletada" style="stroke:#008000;stroke-width:1;"/><polygon fill="#008000" points="167,116.95,171,107.95,167,111.95,163,107.95,167,116.95" style="stroke:#008000;stroke-width:1;"/></g><!--link marcarCompletada to TAREAS_ABIERTO_FINAL--><g class="link" data-entity-1="marcarCompletada" data-entity-2="TAREAS_ABIERTO_FINAL" data-source-line="32" data-uid="lnk5" id="link_marcarCompletada_TAREAS_ABIERTO_FINAL"><path d="M167,413.28 C167,436.34 167,451.57 167,466.88" fill="none" id="marcarCompletada-to-TAREAS_ABIERTO_FINAL" style="stroke:#008000;stroke-width:1;"/><polygon fill="#008000" points="167,472.88,171,463.88,167,467.88,163,463.88,167,472.88" style="stroke:#008000;stroke-width:1;"/></g><!--SRC=[VL7DIiD04BxdAORsea8n5wc744Xg0WLHQ2iUopHPxT1af-nk5HIVoaVmnTnkjjKarJtiuTllRsVqXkGM5TQW3He1xm7OasAnULQya-M4ArRmk2OZcXTMfL0DcbQMvj14ANvjm64ONeTX67m4-cWj-K_dOPxbsIJhUGzlnkduAhSsGLDiaSooPBvCqcasMznxSD161u2wGrpcqxlazc0og54LQ2FgRIKCbdXsxZHTs9Vr8d2SgQI26AB8eih4yIc64QeM9N7_BITffKAMNkWkRpaQnLsjcnXBg4Ws4zwVQ1K_w1qgukXo5OFcoieD-lPG7EixXSroDh_Z3XakqbRwDsjEseWQNTOBsU2AtX24_LR9Fs5yb5n0BeermXD9HotewrEsgzXjjjVZYdId7_JMiMUTskit]--></g></svg>