<svg xmlns="http://www.w3.org/2000/svg" xmlns:xlink="http://www.w3.org/1999/xlink" contentStyleType="text/css" data-diagram-type="STATE" height="716px" preserveAspectRatio="none" style="width:577px;height:716px;background:#FFFFFF;" version="1.1" viewBox="0 0 577 716" width="577px" zoomAndPan="magnify"><defs/><g><g id="Inicio"><rect fill="#FFFFFF" height="50" rx="12.5" ry="12.5" style="stroke:#000000;stroke-width:0.5;" width="143.6211" x="213.5" y="7"/><line style="stroke:#000000;stroke-width:0.5;" x1="213.5" x2="357.1211" y1="33.2969" y2="33.2969"/><text fill="#000000" font-family="sans-serif" font-size="14" lengthAdjust="spacing" textLength="123.6211" x="223.5" y="24.9951">TAREAS_ABIERTO</text></g><path d="M19.5,118 L551.44,118 A12.5,12.5 0 0 1 563.94,130.5 L563.94,144.2969 L7,144.2969 L7,130.5 A12.5,12.5 0 0 1 19.5,118" fill="#FFFFFF"/><rect fill="none" height="447.2969" rx="12.5" ry="12.5" style="stroke:#000000;stroke-width:0.5;" width="556.94" x="7" y="118"/><line style="stroke:#000000;stroke-width:0.5;" x1="7" x2="563.94" y1="144.2969" y2="144.2969"/><text fill="#000000" font-family="sans-serif" font-size="14" lengthAdjust="spacing" textLength="145.8311" x="212.5545" y="135.9951">marcarCompletada()</text><g id="MarcarCompletadaContainer.EstadoConfirmacion"><rect fill="#FFFFFF" height="50" rx="12.5" ry="12.5" style="stroke:#000000;stroke-width:0.5;" width="50" x="153.94" y="246.2969"/><line style="stroke:#000000;stroke-width:0.5;" x1="153.94" x2="203.94" y1="272.5938" y2="272.5938"/><text fill="#000000" font-family="sans-serif" font-size="14" lengthAdjust="spacing" textLength="4.4502" x="176.7149" y="264.292">&#160;</text></g><g id="MarcarCompletadaContainer.EstadoDecision"><rect fill="#FFFFFF" height="50" rx="12.5" ry="12.5" style="stroke:#000000;stroke-width:0.5;" width="50" x="153.94" y="412.2969"/><line style="stroke:#000000;stroke-width:0.5;" x1="153.94" x2="203.94" y1="438.5938" y2="438.5938"/><text fill="#000000" font-family="sans-serif" font-size="14" lengthAdjust="spacing" textLength="4.4502" x="176.7149" y="430.292">&#160;</text></g><ellipse cx="178.94" cy="165.2969" fill="#222222" rx="10" ry="10" style="stroke:#222222;stroke-width:1;"/><ellipse cx="178.94" cy="544.2969" fill="none" rx="11" ry="11" style="stroke:#222222;stroke-width:1;"/><ellipse cx="178.94" cy="544.2969" fill="#222222" rx="6" ry="6" style="stroke:#222222;stroke-width:1;"/><!--link *start*MarcarCompletadaContainer to EstadoConfirmacion--><g class="link" data-entity-1=".start.MarcarCompletadaContainer" data-entity-2="EstadoConfirmacion" data-source-line="26" data-uid="lnk3" id="link_.start.MarcarCompletadaContainer_EstadoConfirmacion"><path d="M178.94,175.5269 C178.94,191.2369 178.94,217.6569 178.94,240.1669" fill="none" id="*start*MarcarCompletadaContainer-to-EstadoConfirmacion" style="stroke:#009900;stroke-width:1;"/><polygon fill="#009900" points="178.94,246.1669,182.94,237.1669,178.94,241.1669,174.94,237.1669,178.94,246.1669" style="stroke:#009900;stroke-width:1;"/><path d="M183.94,198.2969 L183.94,223.2969 L519.94,223.2969 L519.94,208.2969 L509.94,198.2969 L183.94,198.2969" fill="#FFFFE0" style="stroke:#B0B060;stroke-width:0.5;"/><path d="M509.94,198.2969 L509.94,208.2969 L519.94,208.2969 L509.94,198.2969" fill="#FFFFE0" style="stroke:#B0B060;stroke-width:0.5;"/><text fill="#000000" font-family="Arial" font-size="13" font-weight="bold" lengthAdjust="spacing" textLength="56.1196" x="189.94" y="215.3638">Usuario</text><text fill="#000000" font-family="Arial" font-size="13" lengthAdjust="spacing" textLength="255.7344" x="250.192" y="215.3638">solicita marcar tarea como completada</text></g><!--link EstadoConfirmacion to EstadoDecision--><g class="link" data-entity-1="EstadoConfirmacion" data-entity-2="EstadoDecision" data-source-line="31" data-uid="lnk4" id="link_EstadoConfirmacion_EstadoDecision"><path d="M178.94,296.4969 C178.94,327.5869 178.94,375.2469 178.94,406.2669" fill="none" id="EstadoConfirmacion-to-EstadoDecision" style="stroke:#009900;stroke-width:1;"/><polygon fill="#009900" points="178.94,412.2669,182.94,403.2669,178.94,407.2669,174.94,403.2669,178.94,412.2669" style="stroke:#009900;stroke-width:1;"/><path d="M183.94,319.2969 L183.94,389.2969 L554.94,389.2969 L554.94,329.2969 L544.94,319.2969 L183.94,319.2969" fill="#FFFFE0" style="stroke:#B0B060;stroke-width:0.5;"/><path d="M544.94,319.2969 L544.94,329.2969 L554.94,329.2969 L544.94,319.2969" fill="#FFFFE0" style="stroke:#B0B060;stroke-width:0.5;"/><text fill="#000000" font-family="Arial" font-size="13" font-weight="bold" lengthAdjust="spacing" textLength="58.9063" x="189.94" y="336.3638">Sistema</text><text fill="#000000" font-family="Arial" font-size="13" lengthAdjust="spacing" textLength="287.0283" x="252.9786" y="336.3638">presenta solicitud de confirmaci&#243;n de cierre</text><text fill="#000000" font-family="Arial" font-size="13" font-weight="bold" lengthAdjust="spacing" textLength="58.9063" x="189.94" y="351.4966">Sistema</text><text fill="#000000" font-family="Arial" font-size="13" lengthAdjust="spacing" textLength="110.5952" x="252.9786" y="351.4966">permite solicitar:</text><ellipse cx="195.44" cy="362.1953" fill="#000000" rx="2.5" ry="2.5"/><text fill="#000000" font-family="Arial" font-size="13" lengthAdjust="spacing" textLength="289.2246" x="201.94" y="366.6294">confirmar finalizaci&#243;n (registra fecha actual)</text><ellipse cx="195.44" cy="377.3281" fill="#000000" rx="2.5" ry="2.5"/><text fill="#000000" font-family="Arial" font-size="13" lengthAdjust="spacing" textLength="101.6196" x="201.94" y="381.7622">cancelar acci&#243;n</text></g><!--link EstadoDecision to *end*MarcarCompletadaContainer--><g class="link" data-entity-1="EstadoDecision" data-entity-2=".end.MarcarCompletadaContainer" data-source-line="39" data-uid="lnk6" id="link_EstadoDecision_.end.MarcarCompletadaContainer"><path d="M153.74,441.6169 C114.86,447.3169 43.13,460.3069 27.94,480.2969 C18.53,492.6869 18,503.3369 27.94,515.2969 C45.84,536.8169 129.9937,541.6658 161.8037,542.7858" fill="none" id="EstadoDecision-to-*end*MarcarCompletadaContainer" style="stroke:#008000;stroke-width:1;"/><polygon fill="#008000" points="167.8,542.9969,158.9463,538.6827,162.8031,542.8209,158.6648,546.6777,167.8,542.9969" style="stroke:#008000;stroke-width:1;"/><path d="M32.94,485.2969 L32.94,510.2969 L303.94,510.2969 L303.94,495.2969 L293.94,485.2969 L32.94,485.2969" fill="#FFFFE0" style="stroke:#B0B060;stroke-width:0.5;"/><path d="M293.94,485.2969 L293.94,495.2969 L303.94,495.2969 L293.94,485.2969" fill="#FFFFE0" style="stroke:#B0B060;stroke-width:0.5;"/><text fill="#000000" font-family="Arial" font-size="13" font-weight="bold" lengthAdjust="spacing" textLength="56.1196" x="38.94" y="502.3638">Usuario</text><text fill="#000000" font-family="Arial" font-size="13" lengthAdjust="spacing" textLength="190.2456" x="99.192" y="502.3638">solicita confirmar finalizaci&#243;n</text></g><!--link EstadoDecision to *end*MarcarCompletadaContainer--><g class="link" data-entity-1="EstadoDecision" data-entity-2=".end.MarcarCompletadaContainer" data-source-line="44" data-uid="lnk7" id="link_EstadoDecision_.end.MarcarCompletadaContainer"><path d="M203.99,438.2369 C234.5,439.6869 284.94,447.3169 308.94,480.2969 C318.1,492.8769 318.72,503.1969 308.94,515.2969 C294,533.7969 224.916,540.2468 196.156,542.2168" fill="none" id="EstadoDecision-to-*end*MarcarCompletadaContainer-1" style="stroke:#FF0000;stroke-width:1;"/><polygon fill="#FF0000" points="190.17,542.6269,199.4223,546.0025,195.1583,542.2852,198.8756,538.0212,190.17,542.6269" style="stroke:#FF0000;stroke-width:1;"/><path d="M320.94,485.2969 L320.94,510.2969 L552.94,510.2969 L552.94,495.2969 L542.94,485.2969 L320.94,485.2969" fill="#FFFFE0" style="stroke:#B0B060;stroke-width:0.5;"/><path d="M542.94,485.2969 L542.94,495.2969 L552.94,495.2969 L542.94,485.2969" fill="#FFFFE0" style="stroke:#B0B060;stroke-width:0.5;"/><text fill="#000000" font-family="Arial" font-size="13" font-weight="bold" lengthAdjust="spacing" textLength="56.1196" x="326.94" y="502.3638">Usuario</text><text fill="#000000" font-family="Arial" font-size="13" lengthAdjust="spacing" textLength="151.5249" x="387.192" y="502.3638">solicita cancelar acci&#243;n</text></g><g id="FinLista"><rect fill="#FFFFFF" height="50" rx="12.5" ry="12.5" style="stroke:#000000;stroke-width:0.5;" width="143.6211" x="213.5" y="660"/><line style="stroke:#000000;stroke-width:0.5;" x1="213.5" x2="357.1211" y1="686.2969" y2="686.2969"/><text fill="#000000" font-family="sans-serif" font-size="14" lengthAdjust="spacing" textLength="123.6211" x="223.5" y="677.9951">TAREAS_ABIERTO</text></g><!--link Inicio to MarcarCompletadaContainer--><g class="link" data-entity-1="Inicio" data-entity-2="MarcarCompletadaContainer" data-source-line="52" data-uid="lnk8" id="link_Inicio_MarcarCompletadaContainer"><path d="M285.5,57.13 C285.5,72.35 285.5,87.67 285.5,111.86" fill="none" id="Inicio-to-MarcarCompletadaContainer" style="stroke:#009900;stroke-width:1;"/><polygon fill="#009900" points="285.5,117.86,289.5,108.86,285.5,112.86,281.5,108.86,285.5,117.86" style="stroke:#009900;stroke-width:1;"/></g><!--link MarcarCompletadaContainer to FinLista--><g class="link" data-entity-1="MarcarCompletadaContainer" data-entity-2="FinLista" data-source-line="54" data-uid="lnk9" id="link_MarcarCompletadaContainer_FinLista"><path d="M211.43,565.28 C212.16,587.56 216.37,609.51 225.5,630 C230.63,641.52 235.0498,647.6744 244.4898,655.9144" fill="none" id="MarcarCompletadaContainer-to-FinLista" style="stroke:#008000;stroke-width:1;"/><polygon fill="#008000" points="249.01,659.86,244.8601,650.9281,245.2432,656.572,239.5993,656.9551,249.01,659.86" style="stroke:#008000;stroke-width:1;"/><text fill="#000000" font-family="sans-serif" font-size="13" lengthAdjust="spacing" textLength="73.9438" x="226.5" y="617.0669">"               "</text></g><!--link MarcarCompletadaContainer to FinLista--><g class="link" data-entity-1="MarcarCompletadaContainer" data-entity-2="FinLista" data-source-line="56" data-uid="lnk10" id="link_MarcarCompletadaContainer_FinLista"><path d="M310.57,565.13 C309.95,587.12 308.08,609.04 304.5,630 C302.79,639.99 301.5381,644.9725 298.1081,654.1125" fill="none" id="MarcarCompletadaContainer-to-FinLista-1" style="stroke:#FF0000;stroke-width:1;"/><polygon fill="#FF0000" points="296,659.73,302.9071,652.7092,297.7567,655.0488,295.4172,649.8984,296,659.73" style="stroke:#FF0000;stroke-width:1;"/><path d="M313.5,600 L313.5,625 L435.5,625 L435.5,610 L425.5,600 L313.5,600" fill="#FFFFE0" style="stroke:#B0B060;stroke-width:0.5;"/><path d="M425.5,600 L425.5,610 L435.5,610 L425.5,600" fill="#FFFFE0" style="stroke:#B0B060;stroke-width:0.5;"/><text fill="#000000" font-family="Arial" font-size="13" lengthAdjust="spacing" textLength="101.6196" x="319.5" y="617.0669">cancelar acci&#243;n</text></g><!--SRC=[fLFRQjj047tNLmpsIo8mwAcGF1IaL8P0Bn2dz264CDqTsqka7JDQ4sZfL_KJ-cCThovLuYf9wJmiwEpCcJDdDSszypiKhA5cpsOhN1EiiMeeQOQhPekM7peuy0u2mrSEWMkmJiW4npuPvmSC1DyJq2ZGt6-4zzvUSCK2NxOkK7l3OabQjAWqBQAv23-qu3pBpiwoBCAhW1AUvfOzQGlz66lmF2bXljGeioCHyo8hiZSjlcGVFg9waOl3AbB7eMRN-LMPh-xouhAykluq0spWqZlZUCYeKGmgPRshAA35azEOzU49VA4Tq7cIJcKyEWg85QL-MTQyjPCQpS7aYPntP5pJtyVZ9hs5nUBj54TqXprKphTM7Y9DFpTx5CTf2WrNEbH0QAS1jPyG3DTyEBeHOYLv6-cIzacE-eraF98v8M7bca0rgeITK4FgKQzbRy6ITk-fV_tq4N0aGdzd8AdrRnk6aVC_QGEHmDfvhDotZl94QACCWh0ciqL04_POdOuhqHkgj11DB9cqePyN5ZVpZH3vMrqZhtRew_pZCqoeVLLh8ViVZPyTzjczM3h_Nft496at9Fu9askG9DCRClYd13qhdEi6F8xP2nmZ8mPjHquS3TmF-ni0]--></g></svg>