<svg xmlns="http://www.w3.org/2000/svg" xmlns:xlink="http://www.w3.org/1999/xlink" contentStyleType="text/css" data-diagram-type="STATE" height="595px" preserveAspectRatio="none" style="width:374px;height:595px;background:#FFFFFF;" version="1.1" viewBox="0 0 374 595" width="374px" zoomAndPan="magnify"><defs/><g><rect fill="#FFFFFF" height="40" rx="12.5" ry="12.5" style="stroke:#000000;stroke-width:0.5;" width="196.4844" x="85.76" y="7"/><text fill="#000000" font-family="sans-serif" font-size="14" lengthAdjust="spacing" textLength="186.4844" x="90.76" y="31.8467">AUTOMATIZACION_ACTIVA</text><path d="M19.5,107 L348.5,107 A12.5,12.5 0 0 1 361,119.5 L361,133.2969 L7,133.2969 L7,119.5 A12.5,12.5 0 0 1 19.5,107" fill="#FFFFFF"/><rect fill="none" height="382.2969" rx="12.5" ry="12.5" style="stroke:#000000;stroke-width:0.5;" width="354" x="7" y="107"/><line style="stroke:#000000;stroke-width:0.5;" x1="7" x2="361" y1="133.2969" y2="133.2969"/><text fill="#000000" font-family="sans-serif" font-size="14" lengthAdjust="spacing" textLength="131.7217" x="118.1392" y="124.9951">detectarConflicto()</text><rect fill="#FFFFFF" height="40" rx="12.5" ry="12.5" style="stroke:#000000;stroke-width:0.5;" width="50" x="19" y="235.2969"/><text fill="#000000" font-family="sans-serif" font-size="14" lengthAdjust="spacing" textLength="4.4502" x="41.7749" y="260.1436">&#160;</text><rect fill="#FFFFFF" height="40" rx="12.5" ry="12.5" style="stroke:#000000;stroke-width:0.5;" width="50" x="19" y="346.2969"/><text fill="#000000" font-family="sans-serif" font-size="14" lengthAdjust="spacing" textLength="4.4502" x="41.7749" y="371.1436">&#160;</text><ellipse cx="44" cy="154.2969" fill="#222222" rx="10" ry="10" style="stroke:#222222;stroke-width:1;"/><ellipse cx="44" cy="468.2969" fill="none" rx="11" ry="11" style="stroke:#222222;stroke-width:1;"/><ellipse cx="44" cy="468.2969" fill="#222222" rx="6" ry="6" style="stroke:#222222;stroke-width:1;"/><!--link *start*MainBlock to Paso1--><g class="link" data-entity-1=".start.MainBlock" data-entity-2="Paso1" data-link-type="dependency" data-source-line="21" data-uid="lnk3" id="link_.start.MainBlock_Paso1"><path d="M44,164.7869 C44,180.8569 44,207.7269 44,228.8469" fill="none" id="*start*MainBlock-to-Paso1" style="stroke:#008000;stroke-width:1;"/><polygon fill="#008000" points="44,234.8469,48,225.8469,44,229.8469,40,225.8469,44,234.8469" style="stroke:#008000;stroke-width:1;"/><path d="M49,187.2969 L49,212.2969 L340,212.2969 L340,197.2969 L330,187.2969 L49,187.2969" fill="#FFFFE0" style="stroke:#808080;stroke-width:0.5;"/><path d="M330,187.2969 L330,197.2969 L340,197.2969 L330,187.2969" fill="#FFFFE0" style="stroke:#808080;stroke-width:0.5;"/><text fill="#000000" font-family="sans-serif" font-size="13" font-weight="bold" lengthAdjust="spacing" textLength="96.5796" x="55" y="204.3638">Actor solicita</text><text fill="#000000" font-family="sans-serif" font-size="13" lengthAdjust="spacing" textLength="170.187" x="155.7119" y="204.3638">comprobaci&#243;n de horarios</text></g><!--link Paso1 to Paso2--><g class="link" data-entity-1="Paso1" data-entity-2="Paso2" data-link-type="dependency" data-source-line="27" data-uid="lnk4" id="link_Paso1_Paso2"><path d="M44,275.7869 C44,295.6269 44,320.1969 44,339.9769" fill="none" id="Paso1-to-Paso2" style="stroke:#008000;stroke-width:1;"/><polygon fill="#008000" points="44,345.9769,48,336.9769,44,340.9769,40,336.9769,44,345.9769" style="stroke:#008000;stroke-width:1;"/><path d="M49,298.2969 L49,323.2969 L349,323.2969 L349,308.2969 L339,298.2969 L49,298.2969" fill="#FFFFE0" style="stroke:#808080;stroke-width:0.5;"/><path d="M339,298.2969 L339,308.2969 L349,308.2969 L339,298.2969" fill="#FFFFE0" style="stroke:#808080;stroke-width:0.5;"/><text fill="#000000" font-family="sans-serif" font-size="13" font-weight="bold" lengthAdjust="spacing" textLength="184.666" x="55" y="315.3638">Sistema permite solicitar</text><text fill="#000000" font-family="sans-serif" font-size="13" lengthAdjust="spacing" textLength="90.6128" x="243.7983" y="315.3638">la verificaci&#243;n</text></g><!--link Paso2 to *end*MainBlock--><g class="link" data-entity-1="Paso2" data-entity-2=".end.MainBlock" data-link-type="dependency" data-source-line="34" data-uid="lnk6" id="link_Paso2_.end.MainBlock"><path d="M44,386.5769 C44,407.5769 44,434.3769 44,450.9569" fill="none" id="Paso2-to-*end*MainBlock" style="stroke:#008000;stroke-width:1;"/><polygon fill="#008000" points="44,456.9569,48,447.9569,44,451.9569,40,447.9569,44,456.9569" style="stroke:#008000;stroke-width:1;"/><path d="M49,409.2969 L49,434.2969 L352,434.2969 L352,419.2969 L342,409.2969 L49,409.2969" fill="#FFFFE0" style="stroke:#808080;stroke-width:0.5;"/><path d="M342,409.2969 L342,419.2969 L352,419.2969 L342,409.2969" fill="#FFFFE0" style="stroke:#808080;stroke-width:0.5;"/><text fill="#000000" font-family="sans-serif" font-size="13" font-weight="bold" lengthAdjust="spacing" textLength="128.7622" x="55" y="426.3638">Sistema presenta</text><text fill="#000000" font-family="sans-serif" font-size="13" lengthAdjust="spacing" textLength="149.4048" x="187.8945" y="426.3638">el conflicto encontrado</text></g><rect fill="#FFFFFF" height="40" rx="12.5" ry="12.5" style="stroke:#000000;stroke-width:0.5;" width="159.0508" x="104.47" y="549.3"/><text fill="#000000" font-family="sans-serif" font-size="14" lengthAdjust="spacing" textLength="149.0508" x="109.47" y="574.1467">CONFLICTO_ABIERTO</text><!--link AUTOMATIZACION_ACTIVA to MainBlock--><g class="link" data-entity-1="AUTOMATIZACION_ACTIVA" data-entity-2="MainBlock" data-link-type="dependency" data-source-line="44" data-uid="lnk7" id="link_AUTOMATIZACION_ACTIVA_MainBlock"><path d="M184,47.36 C184,61.64 184,76.7 184,100.62" fill="none" id="AUTOMATIZACION_ACTIVA-to-MainBlock" style="stroke:#008000;stroke-width:1;"/><polygon fill="#008000" points="184,106.62,188,97.62,184,101.62,180,97.62,184,106.62" style="stroke:#008000;stroke-width:1;"/></g><!--link MainBlock to CONFLICTO_ABIERTO--><g class="link" data-entity-1="MainBlock" data-entity-2="CONFLICTO_ABIERTO" data-link-type="dependency" data-source-line="45" data-uid="lnk8" id="link_MainBlock_CONFLICTO_ABIERTO"><path d="M184,489.73 C184,513.72 184,528.82 184,543.1" fill="none" id="MainBlock-to-CONFLICTO_ABIERTO" style="stroke:#008000;stroke-width:1;"/><polygon fill="#008000" points="184,549.1,188,540.1,184,544.1,180,540.1,184,549.1" style="stroke:#008000;stroke-width:1;"/></g><!--SRC=[dLFBRjim4BphAnQv935W5FMnXmAqgmO2OYkGbHHjKGGqjOu9IwIwf6C7HRygdz0VwugoPHLs3wqEWhIFsPdbSAKB1Ang_m85EaMwzjgQA79hRMf9iWBdfKVu4G4_OwdMJsGtffZOqX9yMccFRSPIWTH6noMNXQWWijisU4E89lhP0pRshxYt-cdbFsDPskq9-Wt95yQ9MbxYFa-d8a- -Y4cIpXx594yUn25vKQ17vILtccMfbRTNrnSW7KobDkFIglL-VdXTmWTSQgEL_lLg07SrTsWleLaGunNMGKCSy9cZ1CZQ25sJLhQgDOjk6WFKVZo4ONVIsRVdmwFZzA-3Rp0SlkzLX_rO0wKsxJPRaWz82mjUBahv3k8I9CiYcAUtoIJ9HLSu68YGSBQLCHW4ccGNBS-6zygI96rTQ49JX95H-0iqEaAZVo7ajFDOIRYBiscInnsr37fDLx63KiBIKXKsNA3I1DytlEiZ0hDLw6HJk9UnAQvx2kU7EgIAZTXf9HRBFSz8UgbLxrnEDOw2Hbx-VodCudayomMyWUbzFCypSOuScmHDE02MfWvEP2xyxObzzIUrpjgJTFQHDvUdZsASn5cUHj4bi9DnnpUKZOSxZsIaYyxU0HWMTcjOM-VrwEZwG-van6y0]--></g></svg>