<svg xmlns="http://www.w3.org/2000/svg" xmlns:xlink="http://www.w3.org/1999/xlink" contentStyleType="text/css" data-diagram-type="DESCRIPTION" height="410px" preserveAspectRatio="none" style="width:427px;height:410px;background:#FFFFFF;" version="1.1" viewBox="0 0 427 410" width="427px" zoomAndPan="magnify"><defs/><g><!--cluster Planificaci?n y Detalles--><g class="cluster" data-entity="Planificaci.n y Detalles" data-source-line="5" data-uid="ent0004" id="cluster_Planificaci.n y Detalles"><path d="M151.5,6 L336.6465,6 A3.75,3.75 0 0 1 339.1465,8.5 L346.1465,28.2969 L417.5,28.2969 A2.5,2.5 0 0 1 420,30.7969 L420,400.5 A2.5,2.5 0 0 1 417.5,403 L151.5,403 A2.5,2.5 0 0 1 149,400.5 L149,8.5 A2.5,2.5 0 0 1 151.5,6" fill="none" style="stroke:#000000;stroke-width:1.5;"/><line style="stroke:#000000;stroke-width:1.5;" x1="149" x2="346.1465" y1="28.2969" y2="28.2969"/><text fill="#000000" font-family="sans-serif" font-size="14" font-weight="bold" lengthAdjust="spacing" textLength="184.1465" x="153" y="20.9951">Planificaci&#243;n y Detalles</text></g><!--entity UC_D1--><g class="entity" data-entity="UC_D1" data-source-line="6" data-uid="ent0005" id="entity_UC_D1"><ellipse cx="284.6086" cy="127.8217" fill="#F1F1F1" rx="79.6086" ry="18.3217" style="stroke:#181818;stroke-width:0.5;"/><text fill="#000000" font-family="sans-serif" font-size="14" lengthAdjust="spacing" textLength="129.7529" x="219.7322" y="132.4702">Establecer Horario</text></g><!--entity UC_D2--><g class="entity" data-entity="UC_D2" data-source-line="7" data-uid="ent0006" id="entity_UC_D2"><ellipse cx="284.5093" cy="200.9019" fill="#F1F1F1" rx="82.5093" ry="18.9019" style="stroke:#181818;stroke-width:0.5;"/><text fill="#000000" font-family="sans-serif" font-size="14" lengthAdjust="spacing" textLength="136.5547" x="216.2319" y="205.5503">Definir Localizaci&#243;n</text></g><!--entity UC_D3--><g class="entity" data-entity="UC_D3" data-source-line="8" data-uid="ent0007" id="entity_UC_D3"><ellipse cx="284.5498" cy="277.21" fill="#F1F1F1" rx="96.5498" ry="21.71" style="stroke:#181818;stroke-width:0.5;"/><text fill="#000000" font-family="sans-serif" font-size="14" lengthAdjust="spacing" textLength="168.4238" x="200.3379" y="281.8584">Configurar Recordatorio</text></g><!--entity UC_D4--><g class="entity" data-entity="UC_D4" data-source-line="9" data-uid="ent0008" id="entity_UC_D4"><ellipse cx="284.3275" cy="57.7655" fill="#F1F1F1" rx="69.3275" ry="16.2655" style="stroke:#181818;stroke-width:0.5;"/><text fill="#000000" font-family="sans-serif" font-size="14" lengthAdjust="spacing" textLength="104.6787" x="231.9881" y="62.4139">Asignar Tareas</text></g><!--entity UC_D5--><g class="entity" data-entity="UC_D5" data-source-line="11" data-uid="ent0009" id="entity_UC_D5"><ellipse cx="284.3646" cy="359.7729" fill="#F1F1F1" rx="119.3646" ry="26.2729" style="stroke:#181818;stroke-width:0.5;"/><text fill="#000000" font-family="sans-serif" font-size="14" lengthAdjust="spacing" textLength="217.998" x="175.3655" y="364.4214">Visualizar Listado de Conflictos</text></g><!--entity Admin--><g class="entity" data-entity="Admin" data-source-line="2" data-uid="ent0002" id="entity_Admin"><ellipse cx="55.54" cy="171.5" fill="#F1F1F1" rx="8" ry="8" style="stroke:#181818;stroke-width:0.5;"/><path d="M55.54,179.5 L55.54,206.5 M42.54,187.5 L68.54,187.5 M55.54,206.5 L42.54,221.5 M55.54,206.5 L68.54,221.5" fill="none" style="stroke:#181818;stroke-width:0.5;"/><text fill="#000000" font-family="sans-serif" font-size="14" lengthAdjust="spacing" textLength="99.0801" x="6" y="235.9951">Administrador</text></g><!--entity Miem--><g class="entity" data-entity="Miem" data-source-line="3" data-uid="ent0003" id="entity_Miem"><ellipse cx="55.7139" cy="306.5" fill="#F1F1F1" rx="8" ry="8" style="stroke:#181818;stroke-width:0.5;"/><path d="M55.7139,314.5 L55.7139,341.5 M42.7139,322.5 L68.7139,322.5 M55.7139,341.5 L42.7139,356.5 M55.7139,341.5 L68.7139,356.5" fill="none" style="stroke:#181818;stroke-width:0.5;"/><text fill="#000000" font-family="sans-serif" font-size="14" lengthAdjust="spacing" textLength="61.4277" x="25" y="370.9951">Miembro</text></g><!--link Admin to UC_D1--><g class="link" data-entity-1="Admin" data-entity-2="UC_D1" data-source-line="14" data-uid="lnk10" id="link_Admin_UC_D1"><path d="M105.11,178.08 C116.72,173.07 129.18,168.05 141,164 C168.28,154.65 193.3997,147.915 219.4797,141.775" fill="none" id="Admin-to-UC_D1" style="stroke:#181818;stroke-width:1;"/><polygon fill="#181818" points="225.32,140.4,215.6429,138.5689,220.4531,141.5458,217.4762,146.356,225.32,140.4" style="stroke:#181818;stroke-width:1;"/></g><!--link Admin to UC_D2--><g class="link" data-entity-1="Admin" data-entity-2="UC_D2" data-source-line="15" data-uid="lnk11" id="link_Admin_UC_D2"><path d="M105.2,201 C133.34,201 163.47,201 195.84,201" fill="none" id="Admin-to-UC_D2" style="stroke:#181818;stroke-width:1;"/><polygon fill="#181818" points="201.84,201,192.84,197,196.84,201,192.84,205,201.84,201" style="stroke:#181818;stroke-width:1;"/></g><!--link Admin to UC_D3--><g class="link" data-entity-1="Admin" data-entity-2="UC_D3" data-source-line="16" data-uid="lnk12" id="link_Admin_UC_D3"><path d="M105.23,223.03 C116.84,227.92 129.27,232.87 141,237 C166.45,245.95 189.2085,252.722 214.0285,259.442" fill="none" id="Admin-to-UC_D3" style="stroke:#181818;stroke-width:1;"/><polygon fill="#181818" points="219.82,261.01,212.1781,254.797,214.9938,259.7033,210.0874,262.5189,219.82,261.01" style="stroke:#181818;stroke-width:1;"/></g><!--link Miem to UC_D3--><g class="link" data-entity-1="Miem" data-entity-2="UC_D3" data-source-line="17" data-uid="lnk13" id="link_Miem_UC_D3"><path d="M86.18,328.29 C120.19,319.45 171.0728,306.2187 214.9928,294.8087" fill="none" id="Miem-to-UC_D3" style="stroke:#181818;stroke-width:1;"/><polygon fill="#181818" points="220.8,293.3,211.0834,291.6915,215.9606,294.5572,213.0949,299.4345,220.8,293.3" style="stroke:#181818;stroke-width:1;"/></g><!--link Admin to UC_D4--><g class="link" data-entity-1="Admin" data-entity-2="UC_D4" data-source-line="18" data-uid="lnk14" id="link_Admin_UC_D4"><path d="M76.92,162.97 C91.66,139.09 113.73,109.58 141,92 C164.3,76.97 187.6856,69.6467 213.6456,64.9567" fill="none" id="Admin-to-UC_D4" style="stroke:#181818;stroke-width:1;"/><polygon fill="#181818" points="219.55,63.89,209.9822,61.5538,214.6297,64.7789,211.4045,69.4263,219.55,63.89" style="stroke:#181818;stroke-width:1;"/></g><!--link Admin to UC_D5--><g class="link" data-entity-1="Admin" data-entity-2="UC_D5" data-source-line="19" data-uid="lnk15" id="link_Admin_UC_D5"><path d="M80.76,239.16 C99.98,268.35 126.01,305.34 141,316 C157.03,327.41 170.4209,334.0136 189.3109,340.3436" fill="none" id="Admin-to-UC_D5" style="stroke:#181818;stroke-width:1;"/><polygon fill="#181818" points="195,342.25,187.7373,335.5977,190.2591,340.6613,185.1954,343.1831,195,342.25" style="stroke:#181818;stroke-width:1;"/></g><!--link Miem to UC_D5--><g class="link" data-entity-1="Miem" data-entity-2="UC_D5" data-source-line="20" data-uid="lnk16" id="link_Miem_UC_D5"><path d="M86.18,339.14 C109.43,341.6 137.3232,344.5496 170.4532,348.0496" fill="none" id="Miem-to-UC_D5" style="stroke:#181818;stroke-width:1;"/><polygon fill="#181818" points="176.42,348.68,167.89,343.7566,171.4477,348.1547,167.0496,351.7123,176.42,348.68" style="stroke:#181818;stroke-width:1;"/></g><!--SRC=[NP11JWCn34NtEOKr-oveErkageF40YHK5RR8JJo3rJH1JcO1Y5Dn12w69uNIDAjy- -NR-Pxw33c2yF2ImR6GpHo3GPkZGBDo1mwSig2BqW0cA9M_zZtJOIUnDAQxCQzezpWGD0yU0_TiqVBtLu0tw2YZzvGQ-32WPqnaCIbvapBkF5aIk8s2maU_n_LpTrMJ7VMwZS1TjEZv_MXzWkSrl8wXvs5KGzYGZU9GLpxpNjJuAl4GbDsY4AOJjInKZJvn6ijytKIpqMZ04KppF6ik_uzRysbC2Gnci-lV7zLwVg4NPihnJDRjvOLkQxpz0G00]--></g></svg>