<svg xmlns="http://www.w3.org/2000/svg" xmlns:xlink="http://www.w3.org/1999/xlink" contentStyleType="text/css" data-diagram-type="DESCRIPTION" height="408px" preserveAspectRatio="none" style="width:559px;height:408px;background:#FFFFFF;" version="1.1" viewBox="0 0 559 408" width="559px" zoomAndPan="magnify"><defs/><g><!--cluster Planificaci?n y Detalles--><g class="cluster" data-entity="Planificaci.n y Detalles" data-source-line="4" data-uid="ent0003" id="cluster_Planificaci.n y Detalles"><path d="M325.5,6 L510.6465,6 A3.75,3.75 0 0 1 513.1465,8.5 L520.1465,28.2969 L549.5,28.2969 A2.5,2.5 0 0 1 552,30.7969 L552,398.5 A2.5,2.5 0 0 1 549.5,401 L325.5,401 A2.5,2.5 0 0 1 323,398.5 L323,8.5 A2.5,2.5 0 0 1 325.5,6" fill="none" style="stroke:#000000;stroke-width:1.5;"/><line style="stroke:#000000;stroke-width:1.5;" x1="323" x2="520.1465" y1="28.2969" y2="28.2969"/><text fill="#000000" font-family="sans-serif" font-size="14" font-weight="bold" lengthAdjust="spacing" textLength="184.1465" x="327" y="20.9951">Planificaci&#243;n y Detalles</text></g><!--entity UC_D1--><g class="entity" data-entity="UC_D1" data-source-line="5" data-uid="ent0004" id="entity_UC_D1"><ellipse cx="437.3859" cy="59.9772" fill="#F1F1F1" rx="80.3859" ry="18.4772" style="stroke:#181818;stroke-width:0.5;"/><text fill="#000000" font-family="sans-serif" font-size="14" lengthAdjust="spacing" textLength="131.585" x="371.5934" y="64.6256">abrirPlanificacion()</text></g><!--entity UC_D2--><g class="entity" data-entity="UC_D2" data-source-line="6" data-uid="ent0005" id="entity_UC_D2"><ellipse cx="437.2687" cy="132.8537" fill="#F1F1F1" rx="82.2687" ry="18.8537" style="stroke:#181818;stroke-width:0.5;"/><text fill="#000000" font-family="sans-serif" font-size="14" lengthAdjust="spacing" textLength="135.9941" x="369.2716" y="137.5022">establecerHorario()</text></g><!--entity UC_D3--><g class="entity" data-entity="UC_D3" data-source-line="7" data-uid="ent0006" id="entity_UC_D3"><ellipse cx="437.4842" cy="206.7968" fill="#F1F1F1" rx="84.4842" ry="19.2968" style="stroke:#181818;stroke-width:0.5;"/><text fill="#000000" font-family="sans-serif" font-size="14" lengthAdjust="spacing" textLength="141.1348" x="366.9169" y="211.4453">definirLocalizacion()</text></g><!--entity UC_D4--><g class="entity" data-entity="UC_D4" data-source-line="8" data-uid="ent0007" id="entity_UC_D4"><ellipse cx="437.533" cy="284.1066" fill="#F1F1F1" rx="98.533" ry="22.1066" style="stroke:#181818;stroke-width:0.5;"/><text fill="#000000" font-family="sans-serif" font-size="14" lengthAdjust="spacing" textLength="172.8193" x="351.1233" y="288.755">configurarRecordatorio()</text></g><!--entity UC_D5--><g class="entity" data-entity="UC_D5" data-source-line="9" data-uid="ent0008" id="entity_UC_D5"><ellipse cx="437.2996" cy="362.9599" fill="#F1F1F1" rx="95.2996" ry="21.4599" style="stroke:#181818;stroke-width:0.5;"/><text fill="#000000" font-family="sans-serif" font-size="14" lengthAdjust="spacing" textLength="165.6416" x="354.4788" y="367.6084">asignarTareaAUsuario()</text></g><!--entity Admin--><g class="entity" data-entity="Admin" data-source-line="2" data-uid="ent0002" id="entity_Admin"><ellipse cx="142.6025" cy="177.5" fill="#F1F1F1" rx="8" ry="8" style="stroke:#181818;stroke-width:0.5;"/><path d="M142.6025,185.5 L142.6025,212.5 M129.6025,193.5 L155.6025,193.5 M142.6025,212.5 L129.6025,227.5 M142.6025,212.5 L155.6025,227.5" fill="none" style="stroke:#181818;stroke-width:0.5;"/><text fill="#000000" font-family="sans-serif" font-size="14" lengthAdjust="spacing" textLength="273.2051" x="6" y="241.9951">Administrador/ Miembro Administrador</text></g><!--link Admin to UC_D1--><g class="link" data-entity-1="Admin" data-entity-2="UC_D1" data-source-line="12" data-uid="lnk9" id="link_Admin_UC_D1"><path d="M193.81,168.93 C226.86,145.35 271.83,115.87 315,96 C335.59,86.53 353.4864,80.4469 374.4564,74.6569" fill="none" id="Admin-to-UC_D1" style="stroke:#181818;stroke-width:1;"/><polygon fill="#181818" points="380.24,73.06,370.5,71.5996,375.4203,74.3907,372.6292,79.3111,380.24,73.06" style="stroke:#181818;stroke-width:1;"/></g><!--link Admin to UC_D2--><g class="link" data-entity-1="Admin" data-entity-2="UC_D2" data-source-line="13" data-uid="lnk10" id="link_Admin_UC_D2"><path d="M279.28,172.71 C315.35,163.6 346.4823,155.728 375.4923,148.408" fill="none" id="Admin-to-UC_D2" style="stroke:#181818;stroke-width:1;"/><polygon fill="#181818" points="381.31,146.94,371.6049,145.2635,376.462,148.1633,373.5621,153.0204,381.31,146.94" style="stroke:#181818;stroke-width:1;"/></g><!--link Admin to UC_D3--><g class="link" data-entity-1="Admin" data-entity-2="UC_D3" data-source-line="14" data-uid="lnk11" id="link_Admin_UC_D3"><path d="M279.28,207 C304.28,207 323.7,207 346.6,207" fill="none" id="Admin-to-UC_D3" style="stroke:#181818;stroke-width:1;"/><polygon fill="#181818" points="352.6,207,343.6,203,347.6,207,343.6,211,352.6,207" style="stroke:#181818;stroke-width:1;"/></g><!--link Admin to UC_D4--><g class="link" data-entity-1="Admin" data-entity-2="UC_D4" data-source-line="15" data-uid="lnk12" id="link_Admin_UC_D4"><path d="M279.28,242.68 C311.91,251.26 339.4573,258.494 366.9873,265.734" fill="none" id="Admin-to-UC_D4" style="stroke:#181818;stroke-width:1;"/><polygon fill="#181818" points="372.79,267.26,365.1033,261.1025,367.9544,265.9883,363.0686,268.8394,372.79,267.26" style="stroke:#181818;stroke-width:1;"/></g><!--link Admin to UC_D5--><g class="link" data-entity-1="Admin" data-entity-2="UC_D5" data-source-line="16" data-uid="lnk13" id="link_Admin_UC_D5"><path d="M191.93,245.1 C225.12,269.83 270.96,301.38 315,323 C334.04,332.35 350.0613,338.4744 369.8413,344.7544" fill="none" id="Admin-to-UC_D5" style="stroke:#181818;stroke-width:1;"/><polygon fill="#181818" points="375.56,346.57,368.1924,340.0341,370.7944,345.057,365.7715,347.659,375.56,346.57" style="stroke:#181818;stroke-width:1;"/></g><!--SRC=[NP2zJWD138JxVGhhgb14YFoqI14fA42AK58ZdzTtiTYiaNUl88YduX5uCLQ18hlkPlHfDEF0GuQiO38UCtWnfYmQ7L9MWsxZJn8bPKElTWlFmgVU52gx0qn_ZdFlI6yuCdIxW5468IJv-Oxm0LlE60Ad3ZuTb9iI4wP2OczYLxZ6sSqbyl3mkhshMKuP-y34zgY69dg5BchKyr0gsfCI1ZctkSiQ9es3Z5E9V65IyrZ6L-6hfdEICQBjqHWtXpGrLTRkoxdBHs0-l_yVKkj5evUDNZLw_Gi0]--></g></svg>