<svg xmlns="http://www.w3.org/2000/svg" xmlns:xlink="http://www.w3.org/1999/xlink" contentStyleType="text/css" data-diagram-type="DESCRIPTION" height="408px" preserveAspectRatio="none" style="width:451px;height:408px;background:#FFFFFF;" version="1.1" viewBox="0 0 451 408" width="451px" zoomAndPan="magnify"><defs/><g><!--cluster Planificaci?n y Detalles--><g class="cluster" data-entity="Planificaci.n y Detalles" data-source-line="8" data-uid="ent0005" id="cluster_Planificaci.n y Detalles"><path d="M217.5,6 L402.6465,6 A3.75,3.75 0 0 1 405.1465,8.5 L412.1465,28.2969 L441.5,28.2969 A2.5,2.5 0 0 1 444,30.7969 L444,398.5 A2.5,2.5 0 0 1 441.5,401 L217.5,401 A2.5,2.5 0 0 1 215,398.5 L215,8.5 A2.5,2.5 0 0 1 217.5,6" fill="none" style="stroke:#000000;stroke-width:1.5;"/><line style="stroke:#000000;stroke-width:1.5;" x1="215" x2="412.1465" y1="28.2969" y2="28.2969"/><text fill="#000000" font-family="sans-serif" font-size="14" font-weight="bold" lengthAdjust="spacing" textLength="184.1465" x="219" y="20.9951">Planificaci&#243;n y Detalles</text></g><!--entity UC_D1--><g class="entity" data-entity="UC_D1" data-source-line="9" data-uid="ent0006" id="entity_UC_D1"><ellipse cx="329.3859" cy="59.9772" fill="#F1F1F1" rx="80.3859" ry="18.4772" style="stroke:#181818;stroke-width:0.5;"/><text fill="#000000" font-family="sans-serif" font-size="14" lengthAdjust="spacing" textLength="131.585" x="263.5934" y="64.6256">abrirPlanificacion()</text></g><!--entity UC_D2--><g class="entity" data-entity="UC_D2" data-source-line="10" data-uid="ent0007" id="entity_UC_D2"><ellipse cx="329.2687" cy="132.8537" fill="#F1F1F1" rx="82.2687" ry="18.8537" style="stroke:#181818;stroke-width:0.5;"/><text fill="#000000" font-family="sans-serif" font-size="14" lengthAdjust="spacing" textLength="135.9941" x="261.2716" y="137.5022">establecerHorario()</text></g><!--entity UC_D3--><g class="entity" data-entity="UC_D3" data-source-line="11" data-uid="ent0008" id="entity_UC_D3"><ellipse cx="329.4842" cy="206.7968" fill="#F1F1F1" rx="84.4842" ry="19.2968" style="stroke:#181818;stroke-width:0.5;"/><text fill="#000000" font-family="sans-serif" font-size="14" lengthAdjust="spacing" textLength="141.1348" x="258.9169" y="211.4453">definirLocalizacion()</text></g><!--entity UC_D4--><g class="entity" data-entity="UC_D4" data-source-line="12" data-uid="ent0009" id="entity_UC_D4"><ellipse cx="329.533" cy="284.1066" fill="#F1F1F1" rx="98.533" ry="22.1066" style="stroke:#181818;stroke-width:0.5;"/><text fill="#000000" font-family="sans-serif" font-size="14" lengthAdjust="spacing" textLength="172.8193" x="243.1233" y="288.755">configurarRecordatorio()</text></g><!--entity UC_D5--><g class="entity" data-entity="UC_D5" data-source-line="13" data-uid="ent0010" id="entity_UC_D5"><ellipse cx="329.2996" cy="362.9599" fill="#F1F1F1" rx="95.2996" ry="21.4599" style="stroke:#181818;stroke-width:0.5;"/><text fill="#000000" font-family="sans-serif" font-size="14" lengthAdjust="spacing" textLength="165.6416" x="246.4788" y="367.6084">asignarTareaAUsuario()</text></g><!--entity Admin--><g class="entity" data-entity="Admin" data-source-line="3" data-uid="ent0002" id="entity_Admin"><ellipse cx="88.54" cy="66.5" fill="#F1F1F1" rx="8" ry="8" style="stroke:#181818;stroke-width:0.5;"/><path d="M88.54,74.5 L88.54,101.5 M75.54,82.5 L101.54,82.5 M88.54,101.5 L75.54,116.5 M88.54,101.5 L101.54,116.5" fill="none" style="stroke:#181818;stroke-width:0.5;"/><text fill="#000000" font-family="sans-serif" font-size="14" lengthAdjust="spacing" textLength="99.0801" x="39" y="130.9951">Administrador</text></g><!--entity MiemAdmin--><g class="entity" data-entity="MiemAdmin" data-source-line="4" data-uid="ent0003" id="entity_MiemAdmin"><ellipse cx="88.479" cy="177.5" fill="#F1F1F1" rx="8" ry="8" style="stroke:#181818;stroke-width:0.5;"/><path d="M88.479,185.5 L88.479,212.5 M75.479,193.5 L101.479,193.5 M88.479,212.5 L75.479,227.5 M88.479,212.5 L101.479,227.5" fill="none" style="stroke:#181818;stroke-width:0.5;"/><text fill="#000000" font-family="sans-serif" font-size="14" lengthAdjust="spacing" textLength="164.958" x="6" y="241.9951">Miembro Administrador</text></g><!--link Admin to MiemAdmin--><g class="link" data-entity-1="Admin" data-entity-2="MiemAdmin" data-source-line="6" data-uid="lnk4" id="link_Admin_MiemAdmin"><path d="M88.5,134.13 C88.5,145.7 88.5,139.27 88.5,150.84" fill="none" id="Admin-to-MiemAdmin" style="stroke:#181818;stroke-width:1;"/><polygon fill="none" points="88.5,168.84,94.5,150.84,82.5,150.84,88.5,168.84" style="stroke:#181818;stroke-width:1;"/></g><!--link MiemAdmin to UC_D1--><g class="link" data-entity-1="MiemAdmin" data-entity-2="UC_D1" data-source-line="16" data-uid="lnk11" id="link_MiemAdmin_UC_D1"><path d="M150.81,168.83 C157.96,163.25 164.88,157.26 171,151 C191.42,130.11 183.56,113.44 207,96 C223.24,83.92 237.7182,77.4735 257.0082,72.1235" fill="none" id="MiemAdmin-to-UC_D1" style="stroke:#181818;stroke-width:1;"/><polygon fill="#181818" points="262.79,70.52,253.0483,69.0708,257.9719,71.8563,255.1864,76.7798,262.79,70.52" style="stroke:#181818;stroke-width:1;"/></g><!--link MiemAdmin to UC_D2--><g class="link" data-entity-1="MiemAdmin" data-entity-2="UC_D2" data-source-line="17" data-uid="lnk12" id="link_MiemAdmin_UC_D2"><path d="M171.01,181.22 C183.07,177.44 195.36,173.61 207,170 C230.59,162.69 251.0586,156.4425 273.0686,149.7625" fill="none" id="MiemAdmin-to-UC_D2" style="stroke:#181818;stroke-width:1;"/><polygon fill="#181818" points="278.81,148.02,269.0362,146.8062,274.0255,149.4721,271.3596,154.4614,278.81,148.02" style="stroke:#181818;stroke-width:1;"/></g><!--link MiemAdmin to UC_D3--><g class="link" data-entity-1="MiemAdmin" data-entity-2="UC_D3" data-source-line="18" data-uid="lnk13" id="link_MiemAdmin_UC_D3"><path d="M171.08,207 C194.88,207 214.92,207 238.85,207" fill="none" id="MiemAdmin-to-UC_D3" style="stroke:#181818;stroke-width:1;"/><polygon fill="#181818" points="244.85,207,235.85,203,239.85,207,235.85,211,244.85,207" style="stroke:#181818;stroke-width:1;"/></g><!--link MiemAdmin to UC_D4--><g class="link" data-entity-1="MiemAdmin" data-entity-2="UC_D4" data-source-line="19" data-uid="lnk14" id="link_MiemAdmin_UC_D4"><path d="M171.08,233.28 C204.48,244.04 236.5785,254.3917 266.7785,264.1117" fill="none" id="MiemAdmin-to-UC_D4" style="stroke:#181818;stroke-width:1;"/><polygon fill="#181818" points="272.49,265.95,265.1483,259.385,267.7304,264.4181,262.6973,267.0003,272.49,265.95" style="stroke:#181818;stroke-width:1;"/></g><!--link MiemAdmin to UC_D5--><g class="link" data-entity-1="MiemAdmin" data-entity-2="UC_D5" data-source-line="20" data-uid="lnk15" id="link_MiemAdmin_UC_D5"><path d="M119.86,245.07 C141.74,270.28 173.24,302.37 207,323 C224.05,333.42 238.4153,339.6318 257.2953,345.6718" fill="none" id="MiemAdmin-to-UC_D5" style="stroke:#181818;stroke-width:1;"/><polygon fill="#181818" points="263.01,347.5,255.6568,340.9479,258.2478,345.9765,253.2192,348.5675,263.01,347.5" style="stroke:#181818;stroke-width:1;"/></g><!--SRC=[RP2xJiH034Nx-Geh5HGfs4UxqeejA412YAsHupZ1sjanyamANb_59_1Z3E6X91itbkuzkdvuRX8a1PFsCK4jnfH4WtD8IGsARNsK834Prce5O8HU-RDlX8-LAPnYtyuFwle6PJ-YVDiChIUa0xOCnQt788qGadn-17Y67IVqdcC1hmvoTP49OoQnCh41hk7il9-ultpONOnPZWahpyHsfOOcEa0NOxJc9bzWrqhevMMQknp3fA6HjikHTqngDUPdZC9NavsZj07j7ernku_TP9MrUtVk_ojGbflVOqwrnOosdD5MCzhw2m00]--></g></svg>