<svg xmlns="http://www.w3.org/2000/svg" xmlns:xlink="http://www.w3.org/1999/xlink" contentStyleType="text/css" data-diagram-type="DESCRIPTION" height="648px" preserveAspectRatio="none" style="width:416px;height:648px;background:#FFFFFF;" version="1.1" viewBox="0 0 416 648" width="416px" zoomAndPan="magnify"><defs/><g><!--cluster Organizaci?n y Grupos--><g class="cluster" data-entity="Organizaci.n y Grupos" data-source-line="10" data-uid="ent0007" id="cluster_Organizaci.n y Grupos"><path d="M217.5,6 L397.0273,6 A3.75,3.75 0 0 1 399.5273,8.5 L406.5273,28.2969 L406.5,28.2969 A2.5,2.5 0 0 1 409,30.7969 L409,638.5 A2.5,2.5 0 0 1 406.5,641 L217.5,641 A2.5,2.5 0 0 1 215,638.5 L215,8.5 A2.5,2.5 0 0 1 217.5,6" fill="none" style="stroke:#000000;stroke-width:1.5;"/><line style="stroke:#000000;stroke-width:1.5;" x1="215" x2="406.5273" y1="28.2969" y2="28.2969"/><text fill="#000000" font-family="sans-serif" font-size="14" font-weight="bold" lengthAdjust="spacing" textLength="178.5273" x="219" y="20.9951">Organizaci&#243;n y Grupos</text></g><!--entity UC_G1--><g class="entity" data-entity="UC_G1" data-source-line="11" data-uid="ent0008" id="entity_UC_G1"><ellipse cx="311.2981" cy="56.1596" fill="#F1F1F1" rx="63.7981" ry="15.1596" style="stroke:#181818;stroke-width:0.5;"/><text fill="#000000" font-family="sans-serif" font-size="14" lengthAdjust="spacing" textLength="90.2549" x="266.1707" y="60.8081">crearGrupo()</text></g><!--entity UC_G4--><g class="entity" data-entity="UC_G4" data-source-line="12" data-uid="ent0009" id="entity_UC_G4"><ellipse cx="311.3415" cy="122.7683" fill="#F1F1F1" rx="71.8415" ry="16.7683" style="stroke:#181818;stroke-width:0.5;"/><text fill="#000000" font-family="sans-serif" font-size="14" lengthAdjust="spacing" textLength="110.9814" x="255.8507" y="127.4167">eliminarGrupo()</text></g><!--entity UC_G2--><g class="entity" data-entity="UC_G2" data-source-line="13" data-uid="ent0010" id="entity_UC_G2"><ellipse cx="311.5012" cy="192.1002" fill="#F1F1F1" rx="71.0012" ry="16.6002" style="stroke:#181818;stroke-width:0.5;"/><text fill="#000000" font-family="sans-serif" font-size="14" lengthAdjust="spacing" textLength="108.8896" x="257.0564" y="196.7487">invitarUsuario()</text></g><!--entity UC_G3--><g class="entity" data-entity="UC_G3" data-source-line="14" data-uid="ent0011" id="entity_UC_G3"><ellipse cx="311.6049" cy="259.021" fill="#F1F1F1" rx="65.6049" ry="15.521" style="stroke:#181818;stroke-width:0.5;"/><text fill="#000000" font-family="sans-serif" font-size="14" lengthAdjust="spacing" textLength="95.0674" x="264.0712" y="263.6694">editarGrupo()</text></g><!--entity UC_G5--><g class="entity" data-entity="UC_G5" data-source-line="15" data-uid="ent0012" id="entity_UC_G5"><ellipse cx="311.3871" cy="326.9774" fill="#F1F1F1" rx="72.8871" ry="16.9774" style="stroke:#181818;stroke-width:0.5;"/><text fill="#000000" font-family="sans-serif" font-size="14" lengthAdjust="spacing" textLength="113.5654" x="254.6044" y="331.6259">editarMiembro()</text></g><!--entity UC_G6--><g class="entity" data-entity="UC_G6" data-source-line="16" data-uid="ent0013" id="entity_UC_G6"><ellipse cx="311.4929" cy="397.7986" fill="#F1F1F1" rx="79.4929" ry="18.2986" style="stroke:#181818;stroke-width:0.5;"/><text fill="#000000" font-family="sans-serif" font-size="14" lengthAdjust="spacing" textLength="129.4795" x="246.7531" y="402.447">eliminarMiembro()</text></g><!--entity UC_G7--><g class="entity" data-entity="UC_G7" data-source-line="17" data-uid="ent0014" id="entity_UC_G7"><ellipse cx="311.7062" cy="466.9412" fill="#F1F1F1" rx="65.2062" ry="15.4412" style="stroke:#181818;stroke-width:0.5;"/><text fill="#000000" font-family="sans-serif" font-size="14" lengthAdjust="spacing" textLength="94.0146" x="264.6989" y="471.5897">abrirGrupos()</text></g><!--entity UC_G8--><g class="entity" data-entity="UC_G8" data-source-line="18" data-uid="ent0015" id="entity_UC_G8"><ellipse cx="311.3546" cy="536.1709" fill="#F1F1F1" rx="78.8546" ry="18.1709" style="stroke:#181818;stroke-width:0.5;"/><text fill="#000000" font-family="sans-serif" font-size="14" lengthAdjust="spacing" textLength="127.9688" x="247.3703" y="540.8194">abrirInvitaciones()</text></g><!--entity UC_G9--><g class="entity" data-entity="UC_G9" data-source-line="19" data-uid="ent0016" id="entity_UC_G9"><ellipse cx="311.6943" cy="607.0389" fill="#F1F1F1" rx="75.6943" ry="17.5389" style="stroke:#181818;stroke-width:0.5;"/><text fill="#000000" font-family="sans-serif" font-size="14" lengthAdjust="spacing" textLength="120.4082" x="251.4902" y="611.6873">editarInvitacion()</text></g><!--entity Admin--><g class="entity" data-entity="Admin" data-source-line="3" data-uid="ent0002" id="entity_Admin"><ellipse cx="88.54" cy="93.5" fill="#F1F1F1" rx="8" ry="8" style="stroke:#181818;stroke-width:0.5;"/><path d="M88.54,101.5 L88.54,128.5 M75.54,109.5 L101.54,109.5 M88.54,128.5 L75.54,143.5 M88.54,128.5 L101.54,143.5" fill="none" style="stroke:#181818;stroke-width:0.5;"/><text fill="#000000" font-family="sans-serif" font-size="14" lengthAdjust="spacing" textLength="99.0801" x="39" y="157.9951">Administrador</text></g><!--entity MiemAdmin--><g class="entity" data-entity="MiemAdmin" data-source-line="4" data-uid="ent0003" id="entity_MiemAdmin"><ellipse cx="88.479" cy="263.5" fill="#F1F1F1" rx="8" ry="8" style="stroke:#181818;stroke-width:0.5;"/><path d="M88.479,271.5 L88.479,298.5 M75.479,279.5 L101.479,279.5 M88.479,298.5 L75.479,313.5 M88.479,298.5 L101.479,313.5" fill="none" style="stroke:#181818;stroke-width:0.5;"/><text fill="#000000" font-family="sans-serif" font-size="14" lengthAdjust="spacing" textLength="164.958" x="6" y="327.9951">Miembro Administrador</text></g><!--entity Miem--><g class="entity" data-entity="Miem" data-source-line="5" data-uid="ent0004" id="entity_Miem"><ellipse cx="88.7139" cy="471.5" fill="#F1F1F1" rx="8" ry="8" style="stroke:#181818;stroke-width:0.5;"/><path d="M88.7139,479.5 L88.7139,506.5 M75.7139,487.5 L101.7139,487.5 M88.7139,506.5 L75.7139,521.5 M88.7139,506.5 L101.7139,521.5" fill="none" style="stroke:#181818;stroke-width:0.5;"/><text fill="#000000" font-family="sans-serif" font-size="14" lengthAdjust="spacing" textLength="61.4277" x="58" y="535.9951">Miembro</text></g><!--link Admin to MiemAdmin--><g class="link" data-entity-1="Admin" data-entity-2="MiemAdmin" data-source-line="7" data-uid="lnk5" id="link_Admin_MiemAdmin"><path d="M88.5,161.1 C88.5,192.34 88.5,205.58 88.5,236.82" fill="none" id="Admin-to-MiemAdmin" style="stroke:#181818;stroke-width:1;"/><polygon fill="none" points="88.5,254.82,94.5,236.82,82.5,236.82,88.5,254.82" style="stroke:#181818;stroke-width:1;"/></g><!--link MiemAdmin to Miem--><g class="link" data-entity-1="MiemAdmin" data-entity-2="Miem" data-source-line="8" data-uid="lnk6" id="link_MiemAdmin_Miem"><path d="M88.5,331.14 C88.5,375.03 88.5,400.92 88.5,444.81" fill="none" id="MiemAdmin-to-Miem" style="stroke:#181818;stroke-width:1;"/><polygon fill="none" points="88.5,462.81,94.5,444.81,82.5,444.81,88.5,462.81" style="stroke:#181818;stroke-width:1;"/></g><!--link Admin to UC_G1--><g class="link" data-entity-1="Admin" data-entity-2="UC_G1" data-source-line="22" data-uid="lnk17" id="link_Admin_UC_G1"><path d="M138.27,108.21 C178.31,96.07 228.5382,80.8512 265.6682,69.5912" fill="none" id="Admin-to-UC_G1" style="stroke:#181818;stroke-width:1;"/><polygon fill="#181818" points="271.41,67.85,261.6365,66.634,266.6252,69.301,263.9582,74.2897,271.41,67.85" style="stroke:#181818;stroke-width:1;"/></g><!--link Admin to UC_G4--><g class="link" data-entity-1="Admin" data-entity-2="UC_G4" data-source-line="23" data-uid="lnk18" id="link_Admin_UC_G4"><path d="M138.27,123 C167.89,123 200.22,123 233.2,123" fill="none" id="Admin-to-UC_G4" style="stroke:#181818;stroke-width:1;"/><polygon fill="#181818" points="239.2,123,230.2,119,234.2,123,230.2,127,239.2,123" style="stroke:#181818;stroke-width:1;"/></g><!--link MiemAdmin to UC_G2--><g class="link" data-entity-1="MiemAdmin" data-entity-2="UC_G2" data-source-line="25" data-uid="lnk19" id="link_MiemAdmin_UC_G2"><path d="M150.79,254.97 C168.55,244.8 188.22,234.34 207,226 C225.67,217.71 241.2805,212.1513 259.7105,206.4213" fill="none" id="MiemAdmin-to-UC_G2" style="stroke:#181818;stroke-width:1;"/><polygon fill="#181818" points="265.44,204.64,255.6582,203.4923,260.6654,206.1244,258.0333,211.1316,265.44,204.64" style="stroke:#181818;stroke-width:1;"/></g><!--link MiemAdmin to UC_G3--><g class="link" data-entity-1="MiemAdmin" data-entity-2="UC_G3" data-source-line="26" data-uid="lnk20" id="link_MiemAdmin_UC_G3"><path d="M171.16,280.44 C199.44,276.09 224.4997,272.2318 250.0597,268.3018" fill="none" id="MiemAdmin-to-UC_G3" style="stroke:#181818;stroke-width:1;"/><polygon fill="#181818" points="255.99,267.39,246.4867,264.8042,251.0481,268.1499,247.7024,272.7113,255.99,267.39" style="stroke:#181818;stroke-width:1;"/></g><!--link MiemAdmin to UC_G5--><g class="link" data-entity-1="MiemAdmin" data-entity-2="UC_G5" data-source-line="27" data-uid="lnk21" id="link_MiemAdmin_UC_G5"><path d="M171.16,305.56 C197.35,309.59 219.9398,313.0675 244.3098,316.8175" fill="none" id="MiemAdmin-to-UC_G5" style="stroke:#181818;stroke-width:1;"/><polygon fill="#181818" points="250.24,317.73,241.953,312.4077,245.2982,316.9696,240.7363,320.3147,250.24,317.73" style="stroke:#181818;stroke-width:1;"/></g><!--link MiemAdmin to UC_G6--><g class="link" data-entity-1="MiemAdmin" data-entity-2="UC_G6" data-source-line="28" data-uid="lnk22" id="link_MiemAdmin_UC_G6"><path d="M150.58,331.15 C168.42,341.52 188.18,352.28 207,361 C225.01,369.34 239.7849,375.0724 257.7349,381.2324" fill="none" id="MiemAdmin-to-UC_G6" style="stroke:#181818;stroke-width:1;"/><polygon fill="#181818" points="263.41,383.18,256.1957,376.4752,258.6807,381.557,253.5989,384.0421,263.41,383.18" style="stroke:#181818;stroke-width:1;"/></g><!--link Miem to UC_G7--><g class="link" data-entity-1="Miem" data-entity-2="UC_G7" data-source-line="30" data-uid="lnk23" id="link_Miem_UC_G7"><path d="M119.31,496.41 C154.3,491.03 207.0998,482.9125 250.2498,476.2725" fill="none" id="Miem-to-UC_G7" style="stroke:#181818;stroke-width:1;"/><polygon fill="#181818" points="256.18,475.36,246.6763,472.7754,251.2382,476.1205,247.8931,480.6823,256.18,475.36" style="stroke:#181818;stroke-width:1;"/></g><!--link Miem to UC_G8--><g class="link" data-entity-1="Miem" data-entity-2="UC_G8" data-source-line="31" data-uid="lnk24" id="link_Miem_UC_G8"><path d="M119.31,505.72 C151.59,510.83 198.1438,518.2121 239.9738,524.8321" fill="none" id="Miem-to-UC_G8" style="stroke:#181818;stroke-width:1;"/><polygon fill="#181818" points="245.9,525.77,237.6359,520.4123,240.9615,524.9884,236.3854,528.314,245.9,525.77" style="stroke:#181818;stroke-width:1;"/></g><!--link Miem to UC_G9--><g class="link" data-entity-1="Miem" data-entity-2="UC_G9" data-source-line="32" data-uid="lnk25" id="link_Miem_UC_G9"><path d="M119.01,520.87 C142.24,535.93 175.79,556.46 207,571 C225.37,579.56 240.6635,585.3357 258.9235,591.3757" fill="none" id="Miem-to-UC_G9" style="stroke:#181818;stroke-width:1;"/><polygon fill="#181818" points="264.62,593.26,257.3315,586.636,259.873,591.6898,254.8191,594.2312,264.62,593.26" style="stroke:#181818;stroke-width:1;"/></g><!--SRC=[RP4zRiCm38LtdOBmb0mUclyi0OeCGOUYK-Q2aLM7Q285b5oWJNAg7g4NgwEuhcHBa_ZU9v8Y3-hDWJF0LEuT5CHAEZ9Q29JEC6IFnP4qMSTO6Cu0BNZbptucTTonWJvsSr9eQmhXRSXzwVoo2fwqjuuhn0dbEvOAiXSkKTCNIlhvrl096wvEncPm5b2VoYg9jiOaAsJl3OQ-z7Rzkdc86NMWkbGVcyGOwGzoo5jR8LF8ZJhfYXlMJJPEGSrC0coQRgqFpc8GTqptcZQ0vWdeoNz3rajM8Rf8zVVF1kHINDlTvQjce74y4U4A6t6KqCO9RPhGPlU4RJoFmqKSBdy1]--></g></svg>