<svg xmlns="http://www.w3.org/2000/svg" xmlns:xlink="http://www.w3.org/1999/xlink" contentStyleType="text/css" data-diagram-type="DESCRIPTION" height="648px" preserveAspectRatio="none" style="width:696px;height:648px;background:#FFFFFF;" version="1.1" viewBox="0 0 696 648" width="696px" zoomAndPan="magnify"><defs/><g><!--cluster Organizaci?n y Grupos--><g class="cluster" data-entity="Organizaci.n y Grupos" data-source-line="13" data-uid="ent0009" id="cluster_Organizaci.n y Grupos"><path d="M497.5,6 L677.0273,6 A3.75,3.75 0 0 1 679.5273,8.5 L686.5273,28.2969 L686.5,28.2969 A2.5,2.5 0 0 1 689,30.7969 L689,638.5 A2.5,2.5 0 0 1 686.5,641 L497.5,641 A2.5,2.5 0 0 1 495,638.5 L495,8.5 A2.5,2.5 0 0 1 497.5,6" fill="none" style="stroke:#000000;stroke-width:1.5;"/><line style="stroke:#000000;stroke-width:1.5;" x1="495" x2="686.5273" y1="28.2969" y2="28.2969"/><text fill="#000000" font-family="sans-serif" font-size="14" font-weight="bold" lengthAdjust="spacing" textLength="178.5273" x="499" y="20.9951">Organizaci&#243;n y Grupos</text></g><!--entity UC_G1--><g class="entity" data-entity="UC_G1" data-source-line="14" data-uid="ent0010" id="entity_UC_G1"><ellipse cx="591.2981" cy="541.1596" fill="#F1F1F1" rx="63.7981" ry="15.1596" style="stroke:#181818;stroke-width:0.5;"/><text fill="#000000" font-family="sans-serif" font-size="14" lengthAdjust="spacing" textLength="90.2549" x="546.1707" y="545.8081">crearGrupo()</text></g><!--entity UC_G4--><g class="entity" data-entity="UC_G4" data-source-line="15" data-uid="ent0011" id="entity_UC_G4"><ellipse cx="591.3415" cy="607.7683" fill="#F1F1F1" rx="71.8415" ry="16.7683" style="stroke:#181818;stroke-width:0.5;"/><text fill="#000000" font-family="sans-serif" font-size="14" lengthAdjust="spacing" textLength="110.9814" x="535.8507" y="612.4167">eliminarGrupo()</text></g><!--entity UC_G2--><g class="entity" data-entity="UC_G2" data-source-line="16" data-uid="ent0012" id="entity_UC_G2"><ellipse cx="591.5012" cy="266.1002" fill="#F1F1F1" rx="71.0012" ry="16.6002" style="stroke:#181818;stroke-width:0.5;"/><text fill="#000000" font-family="sans-serif" font-size="14" lengthAdjust="spacing" textLength="108.8896" x="537.0564" y="270.7487">invitarUsuario()</text></g><!--entity UC_G3--><g class="entity" data-entity="UC_G3" data-source-line="17" data-uid="ent0013" id="entity_UC_G3"><ellipse cx="591.6049" cy="333.021" fill="#F1F1F1" rx="65.6049" ry="15.521" style="stroke:#181818;stroke-width:0.5;"/><text fill="#000000" font-family="sans-serif" font-size="14" lengthAdjust="spacing" textLength="95.0674" x="544.0712" y="337.6694">editarGrupo()</text></g><!--entity UC_G5--><g class="entity" data-entity="UC_G5" data-source-line="18" data-uid="ent0014" id="entity_UC_G5"><ellipse cx="591.3871" cy="400.9774" fill="#F1F1F1" rx="72.8871" ry="16.9774" style="stroke:#181818;stroke-width:0.5;"/><text fill="#000000" font-family="sans-serif" font-size="14" lengthAdjust="spacing" textLength="113.5654" x="534.6044" y="405.6259">editarMiembro()</text></g><!--entity UC_G6--><g class="entity" data-entity="UC_G6" data-source-line="19" data-uid="ent0015" id="entity_UC_G6"><ellipse cx="591.4929" cy="471.7986" fill="#F1F1F1" rx="79.4929" ry="18.2986" style="stroke:#181818;stroke-width:0.5;"/><text fill="#000000" font-family="sans-serif" font-size="14" lengthAdjust="spacing" textLength="129.4795" x="526.7531" y="476.447">eliminarMiembro()</text></g><!--entity UC_G7--><g class="entity" data-entity="UC_G7" data-source-line="20" data-uid="ent0016" id="entity_UC_G7"><ellipse cx="591.7062" cy="56.9412" fill="#F1F1F1" rx="65.2062" ry="15.4412" style="stroke:#181818;stroke-width:0.5;"/><text fill="#000000" font-family="sans-serif" font-size="14" lengthAdjust="spacing" textLength="94.0146" x="544.6989" y="61.5897">abrirGrupos()</text></g><!--entity UC_G8--><g class="entity" data-entity="UC_G8" data-source-line="21" data-uid="ent0017" id="entity_UC_G8"><ellipse cx="591.3546" cy="126.1709" fill="#F1F1F1" rx="78.8546" ry="18.1709" style="stroke:#181818;stroke-width:0.5;"/><text fill="#000000" font-family="sans-serif" font-size="14" lengthAdjust="spacing" textLength="127.9688" x="527.3703" y="130.8194">abrirInvitaciones()</text></g><!--entity UC_G9--><g class="entity" data-entity="UC_G9" data-source-line="22" data-uid="ent0018" id="entity_UC_G9"><ellipse cx="591.6943" cy="197.0389" fill="#F1F1F1" rx="75.6943" ry="17.5389" style="stroke:#181818;stroke-width:0.5;"/><text fill="#000000" font-family="sans-serif" font-size="14" lengthAdjust="spacing" textLength="120.4082" x="531.4902" y="201.6873">editarInvitacion()</text></g><!--entity Admin--><g class="entity" data-entity="Admin" data-source-line="3" data-uid="ent0002" id="entity_Admin"><ellipse cx="55.54" cy="442.5" fill="#F1F1F1" rx="8" ry="8" style="stroke:#181818;stroke-width:0.5;"/><path d="M55.54,450.5 L55.54,477.5 M42.54,458.5 L68.54,458.5 M55.54,477.5 L42.54,492.5 M55.54,477.5 L68.54,492.5" fill="none" style="stroke:#181818;stroke-width:0.5;"/><text fill="#000000" font-family="sans-serif" font-size="14" lengthAdjust="spacing" textLength="99.0801" x="6" y="506.9951">Administrador</text></g><!--entity MiemAdmin--><g class="entity" data-entity="MiemAdmin" data-source-line="4" data-uid="ent0003" id="entity_MiemAdmin"><ellipse cx="247.479" cy="336.5" fill="#F1F1F1" rx="8" ry="8" style="stroke:#181818;stroke-width:0.5;"/><path d="M247.479,344.5 L247.479,371.5 M234.479,352.5 L260.479,352.5 M247.479,371.5 L234.479,386.5 M247.479,371.5 L260.479,386.5" fill="none" style="stroke:#181818;stroke-width:0.5;"/><text fill="#000000" font-family="sans-serif" font-size="14" lengthAdjust="spacing" textLength="164.958" x="165" y="400.9951">Miembro Administrador</text></g><!--entity Miem--><g class="entity" data-entity="Miem" data-source-line="5" data-uid="ent0004" id="entity_Miem"><ellipse cx="420.7139" cy="138.5" fill="#F1F1F1" rx="8" ry="8" style="stroke:#181818;stroke-width:0.5;"/><path d="M420.7139,146.5 L420.7139,173.5 M407.7139,154.5 L433.7139,154.5 M420.7139,173.5 L407.7139,188.5 M420.7139,173.5 L433.7139,188.5" fill="none" style="stroke:#181818;stroke-width:0.5;"/><text fill="#000000" font-family="sans-serif" font-size="14" lengthAdjust="spacing" textLength="61.4277" x="390" y="202.9951">Miembro</text></g><!--link Admin to MiemAdmin--><!--link Admin to MiemAdmin--><g class="link" data-entity-1="Admin" data-entity-2="MiemAdmin" data-source-line="10" data-uid="lnk7" id="link_Admin_MiemAdmin"><path d="M103.47,433.97 C122.04,422.19 128.0886,418.0068 149.0886,406.6768" fill="none" id="Admin-to-MiemAdmin" style="stroke:#181818;stroke-width:1;"/><polygon fill="none" points="164.93,398.13,146.2396,401.3964,151.9375,411.9573,164.93,398.13" style="stroke:#181818;stroke-width:1;"/></g><!--link MiemAdmin to Miem--><!--link MiemAdmin to Miem--><g class="link" data-entity-1="MiemAdmin" data-entity-2="Miem" data-source-line="11" data-uid="lnk8" id="link_MiemAdmin_Miem"><path d="M273,327.83 C303.84,287.43 344.2548,238.8078 377.3448,204.7078" fill="none" id="MiemAdmin-to-Miem" style="stroke:#181818;stroke-width:1;"/><polygon fill="none" points="389.88,191.79,373.0389,200.5294,381.6507,208.8862,389.88,191.79" style="stroke:#181818;stroke-width:1;"/></g><!--link Admin to UC_G1--><g class="link" data-entity-1="Admin" data-entity-2="UC_G1" data-source-line="25" data-uid="lnk19" id="link_Admin_UC_G1"><path d="M105.3,478.31 C204.69,491.15 424.0395,519.4912 528.9195,533.0412" fill="none" id="Admin-to-UC_G1" style="stroke:#181818;stroke-width:1;"/><polygon fill="#181818" points="534.87,533.81,526.4567,528.6898,529.9112,533.1693,525.4317,536.6239,534.87,533.81" style="stroke:#181818;stroke-width:1;"/></g><!--link Admin to UC_G4--><g class="link" data-entity-1="Admin" data-entity-2="UC_G4" data-source-line="26" data-uid="lnk20" id="link_Admin_UC_G4"><path d="M105.1,492.63 C123.63,500.01 145.08,507.98 165,514 C294.27,553.05 444.2337,582.2936 526.7537,597.0536" fill="none" id="Admin-to-UC_G4" style="stroke:#181818;stroke-width:1;"/><polygon fill="#181818" points="532.66,598.11,524.5049,592.5878,527.7381,597.2296,523.0963,600.4629,532.66,598.11" style="stroke:#181818;stroke-width:1;"/></g><!--link MiemAdmin to UC_G2--><g class="link" data-entity-1="MiemAdmin" data-entity-2="UC_G2" data-source-line="28" data-uid="lnk21" id="link_MiemAdmin_UC_G2"><path d="M330.03,341.69 C349.66,335.87 370.57,329.69 390,324 C443.55,308.31 499.4641,292.1696 540.1141,280.4696" fill="none" id="MiemAdmin-to-UC_G2" style="stroke:#181818;stroke-width:1;"/><polygon fill="#181818" points="545.88,278.81,536.1247,277.4554,541.0751,280.193,538.3375,285.1433,545.88,278.81" style="stroke:#181818;stroke-width:1;"/></g><!--link MiemAdmin to UC_G3--><g class="link" data-entity-1="MiemAdmin" data-entity-2="UC_G3" data-source-line="29" data-uid="lnk22" id="link_MiemAdmin_UC_G3"><path d="M330.42,358.1 C392.07,352.15 469.1878,344.7067 524.6978,339.3467" fill="none" id="MiemAdmin-to-UC_G3" style="stroke:#181818;stroke-width:1;"/><polygon fill="#181818" points="530.67,338.77,521.3272,335.6535,525.6931,339.2506,522.0961,343.6165,530.67,338.77" style="stroke:#181818;stroke-width:1;"/></g><!--link MiemAdmin to UC_G5--><g class="link" data-entity-1="MiemAdmin" data-entity-2="UC_G5" data-source-line="30" data-uid="lnk23" id="link_MiemAdmin_UC_G5"><path d="M330.42,374.38 C389.8,380.46 463.1012,387.9586 518.4512,393.6286" fill="none" id="MiemAdmin-to-UC_G5" style="stroke:#181818;stroke-width:1;"/><polygon fill="#181818" points="524.42,394.24,515.8745,389.3437,519.446,393.7305,515.0592,397.302,524.42,394.24" style="stroke:#181818;stroke-width:1;"/></g><!--link MiemAdmin to UC_G6--><g class="link" data-entity-1="MiemAdmin" data-entity-2="UC_G6" data-source-line="31" data-uid="lnk24" id="link_MiemAdmin_UC_G6"><path d="M330.42,391.39 C396.82,411.97 482.3391,438.4733 537.2391,455.4933" fill="none" id="MiemAdmin-to-UC_G6" style="stroke:#181818;stroke-width:1;"/><polygon fill="#181818" points="542.97,457.27,535.5581,450.7844,538.1942,455.7894,533.1892,458.4256,542.97,457.27" style="stroke:#181818;stroke-width:1;"/></g><!--link Miem to UC_G7--><g class="link" data-entity-1="Miem" data-entity-2="UC_G7" data-source-line="33" data-uid="lnk25" id="link_Miem_UC_G7"><path d="M446.57,129.79 C457.52,115.6 471.43,100.44 487,90 C503.06,79.24 517.0732,73.4211 535.0332,68.3811" fill="none" id="Miem-to-UC_G7" style="stroke:#181818;stroke-width:1;"/><polygon fill="#181818" points="540.81,66.76,531.064,65.3404,535.996,68.1109,533.2255,73.0429,540.81,66.76" style="stroke:#181818;stroke-width:1;"/></g><!--link Miem to UC_G8--><g class="link" data-entity-1="Miem" data-entity-2="UC_G8" data-source-line="34" data-uid="lnk26" id="link_Miem_UC_G8"><path d="M451.32,160.59 C475.11,154.68 503.1972,147.6975 531.5972,140.6375" fill="none" id="Miem-to-UC_G8" style="stroke:#181818;stroke-width:1;"/><polygon fill="#181818" points="537.42,139.19,527.7208,137.4794,532.5677,140.3962,529.6508,145.2431,537.42,139.19" style="stroke:#181818;stroke-width:1;"/></g><!--link Miem to UC_G9--><g class="link" data-entity-1="Miem" data-entity-2="UC_G9" data-source-line="35" data-uid="lnk27" id="link_Miem_UC_G9"><path d="M451.32,173.12 C473.12,176.86 497.5064,181.0457 524.2664,185.6357" fill="none" id="Miem-to-UC_G9" style="stroke:#181818;stroke-width:1;"/><polygon fill="#181818" points="530.18,186.65,521.9858,181.1861,525.252,185.8047,520.6333,189.0709,530.18,186.65" style="stroke:#181818;stroke-width:1;"/></g><!--SRC=[RPAvJWCn48PxFyLeAoYs87UQI8WYea1KgH124zlPZ4ZiQEm5SJqLZy2BiN6MnSxQbUV_lpbyxFJ6WxV0L6qzA68jFLaZ14fl6OfhjIT3pZCgomMWWw3ysNUazsksqCUEJWxjJ2623UN3bfJIvb7PLrD6UTqkXtJPGVfSvFDYKuW3ocUiD1JtNA6XTvJqystW3PPS7wmhu4D0isgd9Re6awoHWtTn6SPUtJmjhr96xwZfrCT6AKRcXJpoojN857E3itBgY9qN6-QWzZuZR9mVhGzEKX3NJAUUBeAc6UWs74Cs7qJ7w2mttpyRaNFnrRrSkMWlD8r78dx1LXnaj6566sUqoQbW5q_JS9Q6yry0]--></g></svg>