<svg xmlns="http://www.w3.org/2000/svg" xmlns:xlink="http://www.w3.org/1999/xlink" contentStyleType="text/css" data-diagram-type="CLASS" height="254px" preserveAspectRatio="none" style="width:488px;height:254px;background:#FFFFFF;" version="1.1" viewBox="0 0 488 254" width="488px" zoomAndPan="magnify"><defs/><g><!--cluster Nivel 2 - Usuario--><g class="cluster" data-entity="Nivel 2 - Usuario" data-source-line="5" data-uid="ent0002" id="cluster_Nivel 2 - Usuario"><path d="M38.5,6 L170.0459,6 A3.75,3.75 0 0 1 172.5459,8.5 L179.5459,28.2969 L311.5,28.2969 A2.5,2.5 0 0 1 314,30.7969 L314,99.5 A2.5,2.5 0 0 1 311.5,102 L38.5,102 A2.5,2.5 0 0 1 36,99.5 L36,8.5 A2.5,2.5 0 0 1 38.5,6" fill="none" style="stroke:#000000;stroke-width:1.5;"/><line style="stroke:#000000;stroke-width:1.5;" x1="36" x2="179.5459" y1="28.2969" y2="28.2969"/><text fill="#000000" font-family="sans-serif" font-size="14" font-weight="bold" lengthAdjust="spacing" textLength="130.5459" x="40" y="20.9951">Nivel 2 - Usuario</text></g><!--cluster Nivel 3 - Grupo--><g class="cluster" data-entity="Nivel 3 - Grupo" data-source-line="11" data-uid="ent0004" id="cluster_Nivel 3 - Grupo"><path d="M8.5,151 L127.6113,151 A3.75,3.75 0 0 1 130.1113,153.5 L137.1113,173.2969 L478.5,173.2969 A2.5,2.5 0 0 1 481,175.7969 L481,244.5 A2.5,2.5 0 0 1 478.5,247 L8.5,247 A2.5,2.5 0 0 1 6,244.5 L6,153.5 A2.5,2.5 0 0 1 8.5,151" fill="none" style="stroke:#000000;stroke-width:1.5;"/><line style="stroke:#000000;stroke-width:1.5;" x1="6" x2="137.1113" y1="173.2969" y2="173.2969"/><text fill="#000000" font-family="sans-serif" font-size="14" font-weight="bold" lengthAdjust="spacing" textLength="118.1113" x="10" y="165.9951">Nivel 3 - Grupo</text></g><g class="entity" data-entity="usuario1" data-source-line="6" data-uid="ent0003" id="entity_usuario1"><rect fill="#F1F1F1" height="44.5938" rx="2.5" ry="2.5" style="stroke:#181818;stroke-width:0.5;" width="245.5361" x="52" y="41"/><text fill="#000000" font-family="sans-serif" font-size="14" lengthAdjust="spacing" textLength="60.7373" x="144.3994" y="55.9951">usuario1</text><line style="stroke:#181818;stroke-width:0.5;" x1="53" x2="296.5361" y1="61.2969" y2="61.2969"/><text fill="#000000" font-family="sans-serif" font-size="14" lengthAdjust="spacing" textLength="233.5361" x="58" y="78.292">nombre = "Jos&#233; Manuel Bre&#241;osa"</text></g><g class="entity" data-entity="grupo1" data-source-line="12" data-uid="ent0005" id="entity_grupo1"><rect fill="#F1F1F1" height="44.5938" rx="2.5" ry="2.5" style="stroke:#181818;stroke-width:0.5;" width="150.3594" x="22" y="186"/><text fill="#000000" font-family="sans-serif" font-size="14" lengthAdjust="spacing" textLength="49.875" x="72.2422" y="200.9951">grupo1</text><line style="stroke:#181818;stroke-width:0.5;" x1="23" x2="171.3594" y1="206.2969" y2="206.2969"/><text fill="#000000" font-family="sans-serif" font-size="14" lengthAdjust="spacing" textLength="138.3594" x="28" y="223.292">nombre = "Familia"</text></g><g class="entity" data-entity="invitaci.n1" data-source-line="15" data-uid="ent0006" id="entity_invitaci.n1"><rect fill="#F1F1F1" height="44.5938" rx="2.5" ry="2.5" style="stroke:#181818;stroke-width:0.5;" width="159.2461" x="306.5" y="186"/><text fill="#000000" font-family="sans-serif" font-size="14" lengthAdjust="spacing" textLength="76.9385" x="347.6538" y="200.9951">invitaci&#243;n1</text><line style="stroke:#181818;stroke-width:0.5;" x1="307.5" x2="464.7461" y1="206.2969" y2="206.2969"/><text fill="#000000" font-family="sans-serif" font-size="14" lengthAdjust="spacing" textLength="147.2461" x="312.5" y="223.292">estado = "Aceptada"</text></g><!--reverse link usuario1 to grupo1--><g class="link" data-entity-1="usuario1" data-entity-2="grupo1" data-source-line="21" data-uid="lnk7" id="link_usuario1_grupo1"><path codeLine="21" d="M157.4043,96.755 C142.7443,123.635 123.67,158.61 108.96,185.58" fill="none" id="usuario1-backto-grupo1" style="stroke:#181818;stroke-width:1;"/><polygon fill="none" points="163.15,86.22,156.7655,89.5723,157.4043,96.755,163.7888,93.4027,163.15,86.22" style="stroke:#181818;stroke-width:1;"/><polygon fill="#000000" points="148.606,130.956,155.517,124.4223,150.3567,121.608,148.606,130.956" style="stroke:#000000;stroke-width:1;"/><text fill="#000000" font-family="sans-serif" font-size="13" lengthAdjust="spacing" textLength="78.1714" x="160" y="131.0669">pertenece a</text></g><!--link usuario1 to invitaci?n1--><g class="link" data-entity-1="usuario1" data-entity-2="invitaci.n1" data-source-line="24" data-uid="lnk8" id="link_usuario1_invitaci.n1"><path codeLine="24" d="M207.05,86.22 C246.82,113.17 309.2832,155.5038 349.0332,182.4438" fill="none" id="usuario1-to-invitaci&#243;n1" style="stroke:#181818;stroke-width:1;"/><polygon fill="#181818" points="354,185.81,348.7939,177.4496,349.861,183.0049,344.3057,184.0719,354,185.81" style="stroke:#181818;stroke-width:1;"/><polygon fill="#000000" points="283.139,129.3715,277.3002,121.8642,274.0027,126.7299,283.139,129.3715" style="stroke:#000000;stroke-width:1;"/><text fill="#000000" font-family="sans-serif" font-size="13" lengthAdjust="spacing" textLength="35.5088" x="288" y="131.0669">envia</text></g><!--reverse link grupo1 to invitaci?n1--><g class="link" data-entity-1="grupo1" data-entity-2="invitaci.n1" data-source-line="25" data-uid="lnk10" id="link_grupo1_invitaci.n1"><path codeLine="25" d="M184.18,208.5 C225.4,208.5 264.49,208.5 306.4,208.5" fill="none" id="grupo1-backto-invitaci&#243;n1" style="stroke:#181818;stroke-width:1;"/><polygon fill="#181818" points="172.18,208.5,178.18,212.5,184.18,208.5,178.18,204.5,172.18,208.5" style="stroke:#181818;stroke-width:1;"/><polygon fill="#000000" points="189.25,197.0664,198.2951,200.0053,198.2951,194.1275,189.25,197.0664" style="stroke:#000000;stroke-width:1;"/><text fill="#000000" font-family="sans-serif" font-size="13" lengthAdjust="spacing" textLength="85.9663" x="203.25" y="201.5669">para unirse a</text></g><!--SRC=[PP71IWCn54Nt-OhBR0GXe7OtOA4k50LTA7v09dsMryxaXIJJXT8FSYb-mloOcMcdxU0kkIydvuOayKY2IbAI1aiEP1EBKt73pfjW6jZQnBX8AN3L9dgqujxuat2br0LUU4irRagynzO45kMDtPWLeJXCeCTHWIy5IBNE0hJxx7h802TD5GYtA9uaTjzuDgxDz5sWxaUYAVAXdTeTVRCI3w7r_sopR1i6nU7UWstLPwDhwhit3TSy67h76GHsMqx6SlVhHfPYCalfkOKbdzSZYDmkrtkbUW_01tQMlQdLyQcYzTYaXAUGo94b6CnFg3YAv-8JhVLysgW4vMrFJs9TqqVIbsUc_8be7OSukFu0]--></g></svg>