<svg xmlns="http://www.w3.org/2000/svg" xmlns:xlink="http://www.w3.org/1999/xlink" contentStyleType="text/css" data-diagram-type="CLASS" height="414px" preserveAspectRatio="none" style="width:1137px;height:414px;background:#FFFFFF;" version="1.1" viewBox="0 0 1137 414" width="1137px" zoomAndPan="magnify"><defs/><g><!--cluster Nivel 1 - Tareas--><g class="cluster" data-entity="Nivel 1 - Tareas" data-source-line="5" data-uid="ent0002" id="cluster_Nivel 1 - Tareas"><path d="M172.5,150.6 L296.7861,150.6 A3.75,3.75 0 0 1 299.2861,153.1 L306.2861,172.8969 L718.5,172.8969 A2.5,2.5 0 0 1 721,175.3969 L721,259.99 A2.5,2.5 0 0 1 718.5,262.49 L172.5,262.49 A2.5,2.5 0 0 1 170,259.99 L170,153.1 A2.5,2.5 0 0 1 172.5,150.6" fill="none" style="stroke:#000000;stroke-width:1.5;"/><line style="stroke:#000000;stroke-width:1.5;" x1="170" x2="306.2861" y1="172.8969" y2="172.8969"/><text fill="#000000" font-family="sans-serif" font-size="14" font-weight="bold" lengthAdjust="spacing" textLength="123.2861" x="174" y="165.5951">Nivel 1 - Tareas</text></g><!--cluster Nivel 2 - Usuario--><g class="cluster" data-entity="Nivel 2 - Usuario" data-source-line="18" data-uid="ent0005" id="cluster_Nivel 2 - Usuario"><path d="M161.5,6 L293.0459,6 A3.75,3.75 0 0 1 295.5459,8.5 L302.5459,28.2969 L434.5,28.2969 A2.5,2.5 0 0 1 437,30.7969 L437,99.1 A2.5,2.5 0 0 1 434.5,101.6 L161.5,101.6 A2.5,2.5 0 0 1 159,99.1 L159,8.5 A2.5,2.5 0 0 1 161.5,6" fill="none" style="stroke:#000000;stroke-width:1.5;"/><line style="stroke:#000000;stroke-width:1.5;" x1="159" x2="302.5459" y1="28.2969" y2="28.2969"/><text fill="#000000" font-family="sans-serif" font-size="14" font-weight="bold" lengthAdjust="spacing" textLength="130.5459" x="163" y="20.9951">Nivel 2 - Usuario</text></g><!--cluster Nivel 3 - Grupo--><g class="cluster" data-entity="Nivel 3 - Grupo" data-source-line="25" data-uid="ent0007" id="cluster_Nivel 3 - Grupo"><path d="M534.5,6 L653.6113,6 A3.75,3.75 0 0 1 656.1113,8.5 L663.1113,28.2969 L711.5,28.2969 A2.5,2.5 0 0 1 714,30.7969 L714,99.1 A2.5,2.5 0 0 1 711.5,101.6 L534.5,101.6 A2.5,2.5 0 0 1 532,99.1 L532,8.5 A2.5,2.5 0 0 1 534.5,6" fill="none" style="stroke:#000000;stroke-width:1.5;"/><line style="stroke:#000000;stroke-width:1.5;" x1="532" x2="663.1113" y1="28.2969" y2="28.2969"/><text fill="#000000" font-family="sans-serif" font-size="14" font-weight="bold" lengthAdjust="spacing" textLength="118.1113" x="536" y="20.9951">Nivel 3 - Grupo</text></g><!--cluster Nivel 4 - Clases auxiliares--><g class="cluster" data-entity="Nivel 4 - Clases auxiliares" data-source-line="32" data-uid="ent0009" id="cluster_Nivel 4 - Clases auxiliares"><path d="M8.5,311.49 L212.1855,311.49 A3.75,3.75 0 0 1 214.6855,313.99 L221.6855,333.7869 L1127.5,333.7869 A2.5,2.5 0 0 1 1130,336.2869 L1130,404.58 A2.5,2.5 0 0 1 1127.5,407.08 L8.5,407.08 A2.5,2.5 0 0 1 6,404.58 L6,313.99 A2.5,2.5 0 0 1 8.5,311.49" fill="none" style="stroke:#000000;stroke-width:1.5;"/><line style="stroke:#000000;stroke-width:1.5;" x1="6" x2="221.6855" y1="333.7869" y2="333.7869"/><text fill="#000000" font-family="sans-serif" font-size="14" font-weight="bold" lengthAdjust="spacing" textLength="202.6855" x="10" y="326.4851">Nivel 4 - Clases auxiliares</text></g><g class="entity" data-entity="tarea1" data-source-line="6" data-uid="ent0003" id="entity_tarea1"><rect fill="#F1F1F1" height="60.8906" rx="2.5" ry="2.5" style="stroke:#181818;stroke-width:0.5;" width="218.7393" x="486.63" y="185.6"/><text fill="#000000" font-family="sans-serif" font-size="14" lengthAdjust="spacing" textLength="45.9238" x="573.0377" y="200.5951">tarea1</text><line style="stroke:#181818;stroke-width:0.5;" x1="487.63" x2="704.3693" y1="205.8969" y2="205.8969"/><text fill="#000000" font-family="sans-serif" font-size="14" lengthAdjust="spacing" textLength="206.7393" x="492.63" y="222.892">titulo = "Recoger a los ni&#241;os"</text><text fill="#000000" font-family="sans-serif" font-size="14" lengthAdjust="spacing" textLength="149.7002" x="492.63" y="239.1889">tieneConflicto = "No"</text></g><g class="entity" data-entity="tarea2" data-source-line="11" data-uid="ent0004" id="entity_tarea2"><rect fill="#F1F1F1" height="60.8906" rx="2.5" ry="2.5" style="stroke:#181818;stroke-width:0.5;" width="266.0645" x="185.97" y="185.6"/><text fill="#000000" font-family="sans-serif" font-size="14" lengthAdjust="spacing" textLength="45.9238" x="296.0403" y="200.5951">tarea2</text><line style="stroke:#181818;stroke-width:0.5;" x1="186.97" x2="451.0345" y1="205.8969" y2="205.8969"/><text fill="#000000" font-family="sans-serif" font-size="14" lengthAdjust="spacing" textLength="254.0645" x="191.97" y="222.892">titulo = "Llevar al abuelo al m&#233;dico"</text><text fill="#000000" font-family="sans-serif" font-size="14" lengthAdjust="spacing" textLength="143.4385" x="191.97" y="239.1889">tieneConflicto = "S&#237;"</text></g><g class="entity" data-entity="usuario1" data-source-line="19" data-uid="ent0006" id="entity_usuario1"><rect fill="#F1F1F1" height="44.5938" rx="2.5" ry="2.5" style="stroke:#181818;stroke-width:0.5;" width="245.5361" x="175.23" y="41"/><text fill="#000000" font-family="sans-serif" font-size="14" lengthAdjust="spacing" textLength="60.7373" x="267.6294" y="55.9951">usuario1</text><line style="stroke:#181818;stroke-width:0.5;" x1="176.23" x2="419.7661" y1="61.2969" y2="61.2969"/><text fill="#000000" font-family="sans-serif" font-size="14" lengthAdjust="spacing" textLength="233.5361" x="181.23" y="78.292">nombre = "Jos&#233; Manuel Bre&#241;osa"</text></g><g class="entity" data-entity="grupo1" data-source-line="26" data-uid="ent0008" id="entity_grupo1"><rect fill="#F1F1F1" height="44.5938" rx="2.5" ry="2.5" style="stroke:#181818;stroke-width:0.5;" width="150.3594" x="547.82" y="41"/><text fill="#000000" font-family="sans-serif" font-size="14" lengthAdjust="spacing" textLength="49.875" x="598.0622" y="55.9951">grupo1</text><line style="stroke:#181818;stroke-width:0.5;" x1="548.82" x2="697.1794" y1="61.2969" y2="61.2969"/><text fill="#000000" font-family="sans-serif" font-size="14" lengthAdjust="spacing" textLength="138.3594" x="553.82" y="78.292">nombre = "Familia"</text></g><g class="entity" data-entity="conflictoHorario1" data-source-line="34" data-uid="ent0010" id="entity_conflictoHorario1"><rect fill="#F1F1F1" height="44.5938" rx="2.5" ry="2.5" style="stroke:#181818;stroke-width:0.5;" width="259.3516" x="22.32" y="346.49"/><text fill="#000000" font-family="sans-serif" font-size="14" lengthAdjust="spacing" textLength="120.1416" x="91.925" y="361.4851">conflictoHorario1</text><line style="stroke:#181818;stroke-width:0.5;" x1="23.32" x2="280.6716" y1="366.7869" y2="366.7869"/><text fill="#000000" font-family="sans-serif" font-size="14" lengthAdjust="spacing" textLength="247.3516" x="28.32" y="383.782">tipo = "Solapamiento entre tareas"</text></g><g class="entity" data-entity="recordatorioA" data-source-line="39" data-uid="ent0011" id="entity_recordatorioA"><rect fill="#F1F1F1" height="44.5938" rx="2.5" ry="2.5" style="stroke:#181818;stroke-width:0.5;" width="214.3574" x="646.82" y="346.49"/><text fill="#000000" font-family="sans-serif" font-size="14" lengthAdjust="spacing" textLength="95.6963" x="706.1506" y="361.4851">recordatorioA</text><line style="stroke:#181818;stroke-width:0.5;" x1="647.82" x2="860.1774" y1="366.7869" y2="366.7869"/><text fill="#000000" font-family="sans-serif" font-size="14" lengthAdjust="spacing" textLength="202.3574" x="652.82" y="383.782">medio = "Notificaci&#243;n m&#243;vil"</text></g><g class="entity" data-entity="recordatorioB" data-source-line="43" data-uid="ent0012" id="entity_recordatorioB"><rect fill="#F1F1F1" height="44.5938" rx="2.5" ry="2.5" style="stroke:#181818;stroke-width:0.5;" width="218.2334" x="895.88" y="346.49"/><text fill="#000000" font-family="sans-serif" font-size="14" lengthAdjust="spacing" textLength="95.7236" x="957.1349" y="361.4851">recordatorioB</text><line style="stroke:#181818;stroke-width:0.5;" x1="896.88" x2="1113.1134" y1="366.7869" y2="366.7869"/><text fill="#000000" font-family="sans-serif" font-size="14" lengthAdjust="spacing" textLength="206.2334" x="901.88" y="383.782">medio = "Correo electr&#243;nico"</text></g><g class="entity" data-entity="localizacion1" data-source-line="47" data-uid="ent0013" id="entity_localizacion1"><rect fill="#F1F1F1" height="44.5938" rx="2.5" ry="2.5" style="stroke:#181818;stroke-width:0.5;" width="133.6797" x="317.16" y="346.49"/><text fill="#000000" font-family="sans-serif" font-size="14" lengthAdjust="spacing" textLength="90.3711" x="338.8143" y="361.4851">localizacion1</text><line style="stroke:#181818;stroke-width:0.5;" x1="318.16" x2="449.8397" y1="366.7869" y2="366.7869"/><text fill="#000000" font-family="sans-serif" font-size="14" lengthAdjust="spacing" textLength="121.6797" x="323.16" y="383.782">lugar = "Colegio"</text></g><g class="entity" data-entity="horario1" data-source-line="51" data-uid="ent0014" id="entity_horario1"><rect fill="#F1F1F1" height="44.5938" rx="2.5" ry="2.5" style="stroke:#181818;stroke-width:0.5;" width="126.5156" x="485.74" y="346.49"/><text fill="#000000" font-family="sans-serif" font-size="14" lengthAdjust="spacing" textLength="58.8916" x="519.552" y="361.4851">horario1</text><line style="stroke:#181818;stroke-width:0.5;" x1="486.74" x2="611.2556" y1="366.7869" y2="366.7869"/><text fill="#000000" font-family="sans-serif" font-size="14" lengthAdjust="spacing" textLength="114.5156" x="491.74" y="383.782">rango = "14:30"</text></g><!--reverse link grupo1 to tarea1--><g class="link" data-entity-1="grupo1" data-entity-2="tarea1" data-link-type="composition" data-source-line="57" data-uid="lnk15" id="link_grupo1_tarea1"><path codeLine="57" d="M655.6265,95.0195 C667.6565,108.4195 670.31,117.35 664,134.6 C657.02,153.66 643.31,171.31 630.02,185.2" fill="none" id="grupo1-backto-tarea1" style="stroke:#181818;stroke-width:1;"/><polygon fill="#181818" points="647.61,86.09,648.6418,93.2269,655.6265,95.0195,654.5948,87.8826,647.61,86.09" style="stroke:#181818;stroke-width:1;"/><polygon fill="#000000" points="668.6343,130.9763,673.9321,123.0779,668.2777,121.4724,668.6343,130.9763" style="stroke:#000000;stroke-width:1;"/><text fill="#000000" font-family="sans-serif" font-size="13" lengthAdjust="spacing" textLength="55.8911" x="679" y="130.6669">gestiona</text></g><!--reverse link grupo1 to tarea2--><g class="link" data-entity-1="grupo1" data-entity-2="tarea2" data-link-type="composition" data-source-line="58" data-uid="lnk16" id="link_grupo1_tarea2"><path codeLine="58" d="M600.1481,95.1799 C587.0981,111.5799 574.29,123.77 551,134.6 C517.8,150.04 504.26,132.7 469,142.6 C434.19,152.36 397.62,169.86 369.29,185.22" fill="none" id="grupo1-backto-tarea2" style="stroke:#181818;stroke-width:1;"/><polygon fill="#181818" points="607.62,85.79,600.7541,87.9943,600.1481,95.1799,607.014,92.9756,607.62,85.79" style="stroke:#181818;stroke-width:1;"/><polygon fill="#000000" points="576.3418,127.9832,585.8365,127.4346,583.7007,121.9585,576.3418,127.9832" style="stroke:#000000;stroke-width:1;"/><text fill="#000000" font-family="sans-serif" font-size="13" lengthAdjust="spacing" textLength="55.8911" x="590" y="130.6669">gestiona</text></g><!--reverse link usuario1 to tarea1--><g class="link" data-entity-1="usuario1" data-entity-2="tarea1" data-link-type="aggregation" data-source-line="60" data-uid="lnk17" id="link_usuario1_tarea1"><path codeLine="60" d="M360.0287,90.8088 C394.5687,105.8788 430.02,122.06 470,142.6 C495.7,155.8 523.62,171.68 546.63,185.21" fill="none" id="usuario1-backto-tarea1" style="stroke:#181818;stroke-width:1;"/><polygon fill="none" points="349.03,86.01,352.9298,92.0756,360.0287,90.8088,356.129,84.7432,349.03,86.01" style="stroke:#181818;stroke-width:1;"/><polygon fill="#000000" points="460.4616,128.4235,453.7172,121.7179,451.0638,126.9628,460.4616,128.4235" style="stroke:#000000;stroke-width:1;"/><text fill="#000000" font-family="sans-serif" font-size="13" lengthAdjust="spacing" textLength="77.6191" x="465" y="130.6669">participa en</text></g><!--reverse link usuario1 to tarea2--><g class="link" data-entity-1="usuario1" data-entity-2="tarea2" data-link-type="aggregation" data-source-line="61" data-uid="lnk18" id="link_usuario1_tarea2"><path codeLine="61" d="M302.6662,97.7852 C306.2962,123.8352 310.76,155.88 314.84,185.17" fill="none" id="usuario1-backto-tarea2" style="stroke:#181818;stroke-width:1;"/><polygon fill="none" points="301.01,85.9,297.8764,92.3946,302.6662,97.7852,305.7998,91.2905,301.01,85.9" style="stroke:#181818;stroke-width:1;"/><polygon fill="#000000" points="312.6899,131.1186,314.3527,121.7545,308.531,122.5655,312.6899,131.1186" style="stroke:#000000;stroke-width:1;"/><text fill="#000000" font-family="sans-serif" font-size="13" lengthAdjust="spacing" textLength="77.6191" x="321" y="130.6669">participa en</text></g><!--link tarea2 to usuario1--><g class="link" data-entity-1="tarea2" data-entity-2="usuario1" data-link-type="dependency" data-source-line="76" data-uid="lnk27" id="link_tarea2_usuario1"><path codeLine="76" d="M228.11,185.12 C163.33,163.59 87.28,137.79 85,134.6 C55.25,92.91 106.3081,76.1855 168.7981,69.1055" fill="none" id="tarea2-to-usuario1" style="stroke:#181818;stroke-width:1;"/><polygon fill="#181818" points="174.76,68.43,165.3669,65.4686,169.7918,68.9929,166.2675,73.4178,174.76,68.43" style="stroke:#181818;stroke-width:1;"/><polygon fill="#000000" points="87.724,121.7145,89.2246,131.1059,94.4581,128.4303,87.724,121.7145" style="stroke:#000000;stroke-width:1;"/><text fill="#000000" font-family="sans-serif" font-size="13" lengthAdjust="spacing" textLength="198.6118" x="99" y="130.6669">se devuelve para reprogramar</text></g><!--reverse link usuario1 to grupo1--><g class="link" data-entity-1="usuario1" data-entity-2="grupo1" data-link-type="aggregation" data-source-line="62" data-uid="lnk19" id="link_usuario1_grupo1"><path codeLine="62" d="M432.87,63.3 C475.47,63.3 509.94,63.3 547.57,63.3" fill="none" id="usuario1-backto-grupo1" style="stroke:#181818;stroke-width:1;"/><polygon fill="none" points="420.87,63.3,426.87,67.3,432.87,63.3,426.87,59.3,420.87,63.3" style="stroke:#181818;stroke-width:1;"/><polygon fill="#000000" points="447.79,51.8664,438.7449,48.9275,438.7449,54.8053,447.79,51.8664" style="stroke:#000000;stroke-width:1;"/><text fill="#000000" font-family="sans-serif" font-size="13" lengthAdjust="spacing" textLength="78.1714" x="451.79" y="56.3669">pertenece a</text></g><!--link tarea1 to localizacion1--><g class="link" data-entity-1="tarea1" data-entity-2="localizacion1" data-link-type="dependency" data-source-line="65" data-uid="lnk20" id="link_tarea1_localizacion1"><path codeLine="65" d="M520.95,246.93 C502.53,255.82 483.4,266.45 467,278.49 C440.55,297.9 419.4341,321.8356 403.9341,341.4156" fill="none" id="tarea1-to-localizacion1" style="stroke:#181818;stroke-width:1;"/><polygon fill="#181818" points="400.21,346.12,408.9324,341.5462,403.3134,342.1997,402.6599,336.5807,400.21,346.12" style="stroke:#181818;stroke-width:1;"/><polygon fill="#000000" points="468.1099,290.1975,476.9935,286.8017,473.3009,282.2286,468.1099,290.1975" style="stroke:#000000;stroke-width:1;"/><text fill="#000000" font-family="sans-serif" font-size="13" lengthAdjust="spacing" textLength="82.5957" x="481" y="291.5569">se realiza en</text></g><!--link tarea1 to horario1--><g class="link" data-entity-1="tarea1" data-entity-2="horario1" data-link-type="dependency" data-source-line="66" data-uid="lnk21" id="link_tarea1_horario1"><path codeLine="66" d="M586.71,246.82 C577.56,276.17 565.5949,314.5516 557.4749,340.6116" fill="none" id="tarea1-to-horario1" style="stroke:#181818;stroke-width:1;"/><polygon fill="#181818" points="555.69,346.34,562.1862,338.9374,557.1774,341.5664,554.5484,336.5575,555.69,346.34" style="stroke:#181818;stroke-width:1;"/><polygon fill="#000000" points="579.5121,291.8299,585.0095,284.0691,579.398,282.32,579.5121,291.8299" style="stroke:#000000;stroke-width:1;"/><text fill="#000000" font-family="sans-serif" font-size="13" lengthAdjust="spacing" textLength="103.0161" x="590" y="291.5569">se programa en</text></g><!--reverse link tarea1 to recordatorioA--><g class="link" data-entity-1="tarea1" data-entity-2="recordatorioA" data-link-type="composition" data-source-line="69" data-uid="lnk22" id="link_tarea1_recordatorioA"><path codeLine="69" d="M670.1088,252.9687 C685.0388,261.7987 689.8,266.32 702,278.49 C721.68,298.13 736.59,326.72 745.3,346.22" fill="none" id="tarea1-backto-recordatorioA" style="stroke:#181818;stroke-width:1;"/><polygon fill="#181818" points="659.78,246.86,662.9082,253.3573,670.1088,252.9687,666.9806,246.4714,659.78,246.86" style="stroke:#181818;stroke-width:1;"/><polygon fill="#000000" points="715.8615,283.1641,719.2512,292.0501,723.8269,288.3606,715.8615,283.1641" style="stroke:#000000;stroke-width:1;"/><text fill="#000000" font-family="sans-serif" font-size="13" lengthAdjust="spacing" textLength="88.6577" x="728" y="291.5569">notifica sobre</text></g><!--reverse link tarea1 to recordatorioB--><g class="link" data-entity-1="tarea1" data-entity-2="recordatorioB" data-link-type="composition" data-source-line="70" data-uid="lnk23" id="link_tarea1_recordatorioB"><path codeLine="70" d="M717.4264,245.4399 C755.5964,255.3299 786.79,264.63 825,278.49 C849.86,287.5 855.22,291.92 879,303.49 C907.38,317.29 939.01,333.44 963.49,346.1" fill="none" id="tarea1-backto-recordatorioB" style="stroke:#181818;stroke-width:1;"/><polygon fill="#181818" points="705.81,242.43,710.6149,247.8071,717.4264,245.4399,712.6215,240.0628,705.81,242.43" style="stroke:#181818;stroke-width:1;"/><polygon fill="#000000" points="862.3723,285.1633,869.6312,291.3081,871.8567,285.8679,862.3723,285.1633" style="stroke:#000000;stroke-width:1;"/><text fill="#000000" font-family="sans-serif" font-size="13" lengthAdjust="spacing" textLength="88.6577" x="876" y="291.5569">notifica sobre</text></g><!--reverse link tarea2 to conflictoHorario1--><g class="link" data-entity-1="tarea2" data-entity-2="conflictoHorario1" data-link-type="dependency" data-source-line="73" data-uid="lnk24" id="link_tarea2_conflictoHorario1"><path codeLine="73" d="M184.5009,248.3719 C130.8809,261.4519 85.85,273.52 82,278.49 C64.1,301.62 90.52,327.96 115.87,346.01" fill="none" id="tarea2-backto-conflictoHorario1" style="stroke:#181818;stroke-width:1;"/><polygon fill="#181818" points="190.33,246.95,180.6384,245.1969,185.4724,248.1349,182.5343,252.969,190.33,246.95" style="stroke:#181818;stroke-width:1;"/><polygon fill="#000000" points="89.8753,282.9658,82.2695,288.6757,87.0782,292.0558,89.8753,282.9658" style="stroke:#000000;stroke-width:1;"/><text fill="#000000" font-family="sans-serif" font-size="13" lengthAdjust="spacing" textLength="132.3931" x="96" y="291.5569">provoca un conflicto</text></g><!--reverse link tarea1 to conflictoHorario1--><g class="link" data-entity-1="tarea1" data-entity-2="conflictoHorario1" data-link-type="dependency" data-source-line="74" data-uid="lnk25" id="link_tarea1_conflictoHorario1"><path codeLine="74" d="M532.0481,249.399 C511.2581,258.649 492.83,265.31 470,270.49 C431.17,279.29 328.95,266.42 291,278.49 C246.72,292.57 202.82,324.58 176.55,346.2" fill="none" id="tarea1-backto-conflictoHorario1" style="stroke:#181818;stroke-width:1;"/><polygon fill="#181818" points="537.53,246.96,527.6811,246.964,532.9618,248.9925,530.9332,254.2731,537.53,246.96" style="stroke:#181818;stroke-width:1;"/><polygon fill="#000000" points="300.8243,285.7428,291.3249,285.2835,292.8692,290.9549,300.8243,285.7428" style="stroke:#000000;stroke-width:1;"/><text fill="#000000" font-family="sans-serif" font-size="13" lengthAdjust="spacing" textLength="132.3931" x="305" y="291.5569">provoca un conflicto</text></g><!--link conflictoHorario1 to usuario1--><g class="link" data-entity-1="conflictoHorario1" data-entity-2="usuario1" data-link-type="dependency" data-source-line="75" data-uid="lnk26" id="link_conflictoHorario1_usuario1"><path codeLine="75" d="M114.22,346.02 C96.69,333.67 77.63,316.47 68,295.49 C35.04,223.62 19.64,179.36 69,117.6 C83.17,99.86 122.3744,88.5299 168.8444,80.1899" fill="none" id="conflictoHorario1-to-usuario1" style="stroke:#181818;stroke-width:1;"/><polygon fill="#181818" points="174.75,79.13,165.1849,76.7827,169.8286,80.0132,166.5981,84.6569,174.75,79.13" style="stroke:#181818;stroke-width:1;"/><polygon fill="#000000" points="62.0064,211.2087,57.307,219.4772,63.0646,220.6603,62.0064,211.2087" style="stroke:#000000;stroke-width:1;"/><text fill="#000000" font-family="sans-serif" font-size="13" lengthAdjust="spacing" textLength="60.3027" x="70" y="220.6069">notifica a</text></g><!--SRC=[bLJBRjim4BphAnQ-f2rW895p4j80ST0dsXoIjdUQsgZRq5o1f8GWHJueXnwAV89_B4izR5bAKFHYsDpXpCxEqe5B20mh3e7Na9D37OXjuc_8bigfDMYZl3yBmT6g2lX9ixsYEuJ393c02whHm546tvH3vPDIwHjL8Cow0ioxoWn-9m2y-YNq4EBHKNC242XKXk4jp2vHSu4E51ZsO6dpb_simw35SxRNXdHei1SSA_V9Y3ITa7unM2lXDA1M5SgPV5jl7dBI_1BtrUPFItw_ivXcyDrNoX6FFQRYiIljcQpQizwcvVNAOQJ_p7xp05-LbNPWwJ3QL1F1HGOVN5LEv1OYrnJsn8fuCfLwhzPaQ4f-dC4x6oXNENh0su3EJiCx5gLpoLuWghgDF0wR77UokX_RHtP3iu7ATf9iL2aze9N9oeTq5TfrwCCxW1_neWVPEtQv2jpyAjdJog3VIGthPvtC6dFgjY7GDMcbQVDe9Tx7cinuFuO4op71EJk7qg8Hf1EERZk6zmrhPUXEDDZsFarLo6urzmqMDBdpStyiJjcYaJiwpXQ7WrGkqJIyCkhIaTLKgcY-I_NDVDu_cGmAzF5zAZY5IJtTgoV9TWLvo22lEb2Ka4G4DGMb_m1riW925-JnQ8H6Riz7lrMHIRMyuCdkLYRf6fhFJqUppS2ZnDMSjF83w7Qa3QfqNCX_L0ThEXYkaVAiIUNn6vXdku1NTRD_htkDECpzNSlaGRNh1PxZmpfv2Rjy1Wim3ZZEOzkCD38UIGedmZjzMbbqMykae1eQs7RpdxUcq3ZURT039wfF81r3984SQ_aVgx7rvR1FnC7f4m00]--></g></svg>