<svg xmlns="http://www.w3.org/2000/svg" xmlns:xlink="http://www.w3.org/1999/xlink" contentStyleType="text/css" data-diagram-type="CLASS" height="492px" preserveAspectRatio="none" style="width:811px;height:492px;background:#FFFFFF;" version="1.1" viewBox="0 0 811 492" width="811px" zoomAndPan="magnify"><defs/><g><!--cluster Nivel 1--><g class="cluster" data-entity="Nivel 1" data-source-line="7" data-uid="ent0002" id="cluster_Nivel 1"><path d="M375.5,270 L431.0508,270 A3.75,3.75 0 0 1 433.5508,272.5 L440.5508,292.2969 L595.5,292.2969 A2.5,2.5 0 0 1 598,294.7969 L598,350.5 A2.5,2.5 0 0 1 595.5,353 L375.5,353 A2.5,2.5 0 0 1 373,350.5 L373,272.5 A2.5,2.5 0 0 1 375.5,270" fill="none" style="stroke:#000000;stroke-width:1.5;"/><line style="stroke:#000000;stroke-width:1.5;" x1="373" x2="440.5508" y1="292.2969" y2="292.2969"/><text fill="#000000" font-family="sans-serif" font-size="14" font-weight="bold" lengthAdjust="spacing" textLength="54.5508" x="377" y="284.9951">Nivel 1</text></g><!--cluster Nivel 2--><g class="cluster" data-entity="Nivel 2" data-source-line="12" data-uid="ent0004" id="cluster_Nivel 2"><path d="M532.5,6 L588.0508,6 A3.75,3.75 0 0 1 590.5508,8.5 L597.5508,28.2969 L645.5,28.2969 A2.5,2.5 0 0 1 648,30.7969 L648,86.5 A2.5,2.5 0 0 1 645.5,89 L532.5,89 A2.5,2.5 0 0 1 530,86.5 L530,8.5 A2.5,2.5 0 0 1 532.5,6" fill="none" style="stroke:#000000;stroke-width:1.5;"/><line style="stroke:#000000;stroke-width:1.5;" x1="530" x2="597.5508" y1="28.2969" y2="28.2969"/><text fill="#000000" font-family="sans-serif" font-size="14" font-weight="bold" lengthAdjust="spacing" textLength="54.5508" x="534" y="20.9951">Nivel 2</text></g><!--cluster Nivel 3--><g class="cluster" data-entity="Nivel 3" data-source-line="17" data-uid="ent0006" id="cluster_Nivel 3"><path d="M538.5,138 L594.0508,138 A3.75,3.75 0 0 1 596.5508,140.5 L603.5508,160.2969 L639.5,160.2969 A2.5,2.5 0 0 1 642,162.7969 L642,218.5 A2.5,2.5 0 0 1 639.5,221 L538.5,221 A2.5,2.5 0 0 1 536,218.5 L536,140.5 A2.5,2.5 0 0 1 538.5,138" fill="none" style="stroke:#000000;stroke-width:1.5;"/><line style="stroke:#000000;stroke-width:1.5;" x1="536" x2="603.5508" y1="160.2969" y2="160.2969"/><text fill="#000000" font-family="sans-serif" font-size="14" font-weight="bold" lengthAdjust="spacing" textLength="54.5508" x="540" y="152.9951">Nivel 3</text></g><!--cluster Nivel 4--><g class="cluster" data-entity="Nivel 4" data-source-line="22" data-uid="ent0008" id="cluster_Nivel 4"><path d="M8.5,402 L64.0508,402 A3.75,3.75 0 0 1 66.5508,404.5 L73.5508,424.2969 L784.5,424.2969 A2.5,2.5 0 0 1 787,426.7969 L787,482.5 A2.5,2.5 0 0 1 784.5,485 L8.5,485 A2.5,2.5 0 0 1 6,482.5 L6,404.5 A2.5,2.5 0 0 1 8.5,402" fill="none" style="stroke:#000000;stroke-width:1.5;"/><line style="stroke:#000000;stroke-width:1.5;" x1="6" x2="73.5508" y1="424.2969" y2="424.2969"/><text fill="#000000" font-family="sans-serif" font-size="14" font-weight="bold" lengthAdjust="spacing" textLength="54.5508" x="10" y="416.9951">Nivel 4</text></g><!--class Tarea--><g class="entity" data-entity="Tarea" data-source-line="8" data-uid="ent0003" id="entity_Tarea"><rect fill="#F1F1F1" height="32" rx="2.5" ry="2.5" style="stroke:#181818;stroke-width:0.5;" width="72.0791" x="388.96" y="305"/><ellipse cx="403.96" cy="321" fill="#ADD1B2" rx="11" ry="11" style="stroke:#181818;stroke-width:1;"/><path d="M406.9288,326.6406 Q406.3506,326.9375 405.71,327.0781 Q405.0694,327.2344 404.3663,327.2344 Q401.8663,327.2344 400.5381,325.5938 Q399.2256,323.9375 399.2256,320.8125 Q399.2256,317.6875 400.5381,316.0313 Q401.8663,314.375 404.3663,314.375 Q405.0694,314.375 405.71,314.5313 Q406.3663,314.6875 406.9288,314.9844 L406.9288,317.7031 Q406.3038,317.125 405.71,316.8594 Q405.1163,316.5781 404.4913,316.5781 Q403.1475,316.5781 402.46,317.6563 Q401.7725,318.7188 401.7725,320.8125 Q401.7725,322.9063 402.46,323.9844 Q403.1475,325.0469 404.4913,325.0469 Q405.1163,325.0469 405.71,324.7813 Q406.3038,324.5 406.9288,323.9219 L406.9288,326.6406 Z " fill="#000000"/><text fill="#000000" font-family="sans-serif" font-size="14" lengthAdjust="spacing" textLength="40.0791" x="417.96" y="325.8467">Tarea</text></g><!--class Usuario--><g class="entity" data-entity="Usuario" data-source-line="13" data-uid="ent0005" id="entity_Usuario"><rect fill="#F1F1F1" height="32" rx="2.5" ry="2.5" style="stroke:#181818;stroke-width:0.5;" width="85.2041" x="546.4" y="41"/><ellipse cx="561.4" cy="57" fill="#ADD1B2" rx="11" ry="11" style="stroke:#181818;stroke-width:1;"/><path d="M564.3688,62.6406 Q563.7906,62.9375 563.15,63.0781 Q562.5094,63.2344 561.8063,63.2344 Q559.3063,63.2344 557.9781,61.5938 Q556.6656,59.9375 556.6656,56.8125 Q556.6656,53.6875 557.9781,52.0313 Q559.3063,50.375 561.8063,50.375 Q562.5094,50.375 563.15,50.5313 Q563.8063,50.6875 564.3688,50.9844 L564.3688,53.7031 Q563.7438,53.125 563.15,52.8594 Q562.5563,52.5781 561.9313,52.5781 Q560.5875,52.5781 559.9,53.6563 Q559.2125,54.7188 559.2125,56.8125 Q559.2125,58.9063 559.9,59.9844 Q560.5875,61.0469 561.9313,61.0469 Q562.5563,61.0469 563.15,60.7813 Q563.7438,60.5 564.3688,59.9219 L564.3688,62.6406 Z " fill="#000000"/><text fill="#000000" font-family="sans-serif" font-size="14" lengthAdjust="spacing" textLength="53.2041" x="575.4" y="61.8467">Usuario</text></g><!--class Grupo--><g class="entity" data-entity="Grupo" data-source-line="18" data-uid="ent0007" id="entity_Grupo"><rect fill="#F1F1F1" height="32" rx="2.5" ry="2.5" style="stroke:#181818;stroke-width:0.5;" width="74.9297" x="551.54" y="173"/><ellipse cx="566.54" cy="189" fill="#ADD1B2" rx="11" ry="11" style="stroke:#181818;stroke-width:1;"/><path d="M569.5088,194.6406 Q568.9306,194.9375 568.29,195.0781 Q567.6494,195.2344 566.9463,195.2344 Q564.4463,195.2344 563.1181,193.5938 Q561.8056,191.9375 561.8056,188.8125 Q561.8056,185.6875 563.1181,184.0313 Q564.4463,182.375 566.9463,182.375 Q567.6494,182.375 568.29,182.5313 Q568.9463,182.6875 569.5088,182.9844 L569.5088,185.7031 Q568.8838,185.125 568.29,184.8594 Q567.6963,184.5781 567.0713,184.5781 Q565.7275,184.5781 565.04,185.6563 Q564.3525,186.7188 564.3525,188.8125 Q564.3525,190.9063 565.04,191.9844 Q565.7275,193.0469 567.0713,193.0469 Q567.6963,193.0469 568.29,192.7813 Q568.8838,192.5 569.5088,191.9219 L569.5088,194.6406 Z " fill="#000000"/><text fill="#000000" font-family="sans-serif" font-size="14" lengthAdjust="spacing" textLength="42.9297" x="580.54" y="193.8467">Grupo</text></g><!--class ConflictoHorario--><g class="entity" data-entity="ConflictoHorario" data-source-line="23" data-uid="ent0009" id="entity_ConflictoHorario"><rect fill="#F1F1F1" height="32" rx="2.5" ry="2.5" style="stroke:#181818;stroke-width:0.5;" width="145.3125" x="625.34" y="437"/><ellipse cx="640.34" cy="453" fill="#ADD1B2" rx="11" ry="11" style="stroke:#181818;stroke-width:1;"/><path d="M643.3088,458.6406 Q642.7306,458.9375 642.09,459.0781 Q641.4494,459.2344 640.7463,459.2344 Q638.2463,459.2344 636.9181,457.5938 Q635.6056,455.9375 635.6056,452.8125 Q635.6056,449.6875 636.9181,448.0313 Q638.2463,446.375 640.7463,446.375 Q641.4494,446.375 642.09,446.5313 Q642.7463,446.6875 643.3088,446.9844 L643.3088,449.7031 Q642.6838,449.125 642.09,448.8594 Q641.4963,448.5781 640.8713,448.5781 Q639.5275,448.5781 638.84,449.6563 Q638.1525,450.7188 638.1525,452.8125 Q638.1525,454.9063 638.84,455.9844 Q639.5275,457.0469 640.8713,457.0469 Q641.4963,457.0469 642.09,456.7813 Q642.6838,456.5 643.3088,455.9219 L643.3088,458.6406 Z " fill="#000000"/><text fill="#000000" font-family="sans-serif" font-size="14" lengthAdjust="spacing" textLength="113.3125" x="654.34" y="457.8467">ConflictoHorario</text></g><!--class Localizacion--><g class="entity" data-entity="Localizacion" data-source-line="24" data-uid="ent0010" id="entity_Localizacion"><rect fill="#F1F1F1" height="32" rx="2.5" ry="2.5" style="stroke:#181818;stroke-width:0.5;" width="117.374" x="22.31" y="437"/><ellipse cx="37.31" cy="453" fill="#ADD1B2" rx="11" ry="11" style="stroke:#181818;stroke-width:1;"/><path d="M40.2788,458.6406 Q39.7006,458.9375 39.06,459.0781 Q38.4194,459.2344 37.7163,459.2344 Q35.2163,459.2344 33.8881,457.5938 Q32.5756,455.9375 32.5756,452.8125 Q32.5756,449.6875 33.8881,448.0313 Q35.2163,446.375 37.7163,446.375 Q38.4194,446.375 39.06,446.5313 Q39.7163,446.6875 40.2788,446.9844 L40.2788,449.7031 Q39.6538,449.125 39.06,448.8594 Q38.4663,448.5781 37.8413,448.5781 Q36.4975,448.5781 35.81,449.6563 Q35.1225,450.7188 35.1225,452.8125 Q35.1225,454.9063 35.81,455.9844 Q36.4975,457.0469 37.8413,457.0469 Q38.4663,457.0469 39.06,456.7813 Q39.6538,456.5 40.2788,455.9219 L40.2788,458.6406 Z " fill="#000000"/><text fill="#000000" font-family="sans-serif" font-size="14" lengthAdjust="spacing" textLength="85.374" x="51.31" y="457.8467">Localizacion</text></g><!--class Horario--><g class="entity" data-entity="Horario" data-source-line="25" data-uid="ent0011" id="entity_Horario"><rect fill="#F1F1F1" height="32" rx="2.5" ry="2.5" style="stroke:#181818;stroke-width:0.5;" width="83.6387" x="175.18" y="437"/><ellipse cx="190.18" cy="453" fill="#ADD1B2" rx="11" ry="11" style="stroke:#181818;stroke-width:1;"/><path d="M193.1488,458.6406 Q192.5706,458.9375 191.93,459.0781 Q191.2894,459.2344 190.5863,459.2344 Q188.0863,459.2344 186.7581,457.5938 Q185.4456,455.9375 185.4456,452.8125 Q185.4456,449.6875 186.7581,448.0313 Q188.0863,446.375 190.5863,446.375 Q191.2894,446.375 191.93,446.5313 Q192.5863,446.6875 193.1488,446.9844 L193.1488,449.7031 Q192.5238,449.125 191.93,448.8594 Q191.3363,448.5781 190.7113,448.5781 Q189.3675,448.5781 188.68,449.6563 Q187.9925,450.7188 187.9925,452.8125 Q187.9925,454.9063 188.68,455.9844 Q189.3675,457.0469 190.7113,457.0469 Q191.3363,457.0469 191.93,456.7813 Q192.5238,456.5 193.1488,455.9219 L193.1488,458.6406 Z " fill="#000000"/><text fill="#000000" font-family="sans-serif" font-size="14" lengthAdjust="spacing" textLength="51.6387" x="204.18" y="457.8467">Horario</text></g><!--class Recordatorio--><g class="entity" data-entity="Recordatorio" data-source-line="26" data-uid="ent0012" id="entity_Recordatorio"><rect fill="#F1F1F1" height="32" rx="2.5" ry="2.5" style="stroke:#181818;stroke-width:0.5;" width="122.0908" x="293.95" y="437"/><ellipse cx="308.95" cy="453" fill="#ADD1B2" rx="11" ry="11" style="stroke:#181818;stroke-width:1;"/><path d="M311.9188,458.6406 Q311.3406,458.9375 310.7,459.0781 Q310.0594,459.2344 309.3563,459.2344 Q306.8563,459.2344 305.5281,457.5938 Q304.2156,455.9375 304.2156,452.8125 Q304.2156,449.6875 305.5281,448.0313 Q306.8563,446.375 309.3563,446.375 Q310.0594,446.375 310.7,446.5313 Q311.3563,446.6875 311.9188,446.9844 L311.9188,449.7031 Q311.2938,449.125 310.7,448.8594 Q310.1063,448.5781 309.4813,448.5781 Q308.1375,448.5781 307.45,449.6563 Q306.7625,450.7188 306.7625,452.8125 Q306.7625,454.9063 307.45,455.9844 Q308.1375,457.0469 309.4813,457.0469 Q310.1063,457.0469 310.7,456.7813 Q311.2938,456.5 311.9188,455.9219 L311.9188,458.6406 Z " fill="#000000"/><text fill="#000000" font-family="sans-serif" font-size="14" lengthAdjust="spacing" textLength="90.0908" x="322.95" y="457.8467">Recordatorio</text></g><!--class RelacionTareas--><g class="entity" data-entity="RelacionTareas" data-source-line="27" data-uid="ent0013" id="entity_RelacionTareas"><rect fill="#F1F1F1" height="32" rx="2.5" ry="2.5" style="stroke:#181818;stroke-width:0.5;" width="139.208" x="451.4" y="437"/><ellipse cx="466.4" cy="453" fill="#ADD1B2" rx="11" ry="11" style="stroke:#181818;stroke-width:1;"/><path d="M469.3688,458.6406 Q468.7906,458.9375 468.15,459.0781 Q467.5094,459.2344 466.8063,459.2344 Q464.3063,459.2344 462.9781,457.5938 Q461.6656,455.9375 461.6656,452.8125 Q461.6656,449.6875 462.9781,448.0313 Q464.3063,446.375 466.8063,446.375 Q467.5094,446.375 468.15,446.5313 Q468.8063,446.6875 469.3688,446.9844 L469.3688,449.7031 Q468.7438,449.125 468.15,448.8594 Q467.5563,448.5781 466.9313,448.5781 Q465.5875,448.5781 464.9,449.6563 Q464.2125,450.7188 464.2125,452.8125 Q464.2125,454.9063 464.9,455.9844 Q465.5875,457.0469 466.9313,457.0469 Q467.5563,457.0469 468.15,456.7813 Q468.7438,456.5 469.3688,455.9219 L469.3688,458.6406 Z " fill="#000000"/><text fill="#000000" font-family="sans-serif" font-size="14" lengthAdjust="spacing" textLength="107.208" x="480.4" y="457.8467">RelacionTareas</text></g><!--reverse link Grupo to Tarea--><g class="link" data-entity-1="Grupo" data-entity-2="Tarea" data-link-type="composition" data-source-line="31" data-uid="lnk14" id="link_Grupo_Tarea"><path codeLine="31" d="M560.1365,212.8748 C528.5765,237.8948 475.98,279.59 444.43,304.6" fill="none" id="Grupo-backto-Tarea" style="stroke:#181818;stroke-width:1;"/><polygon fill="#181818" points="569.54,205.42,562.3533,206.0129,560.1365,212.8748,567.3232,212.2819,569.54,205.42" style="stroke:#181818;stroke-width:1;"/><polygon fill="#000000" points="534.9182,242.4603,526.0044,245.7762,529.6558,250.3823,534.9182,242.4603" style="stroke:#000000;stroke-width:1;"/><text fill="#000000" font-family="sans-serif" font-size="13" lengthAdjust="spacing" textLength="91.0127" x="540" y="250.0669">es gestionada</text></g><!--reverse link Usuario to Tarea--><g class="link" data-entity-1="Usuario" data-entity-2="Tarea" data-link-type="aggregation" data-source-line="32" data-uid="lnk15" id="link_Usuario_Tarea"><path codeLine="32" d="M534.4519,70.692 C500.8919,80.392 467.65,95.78 444,130 C406.3,184.54 415.91,269.83 421.92,304.53" fill="none" id="Usuario-backto-Tarea" style="stroke:#181818;stroke-width:1;"/><polygon fill="none" points="545.98,67.36,539.1053,65.1833,534.4519,70.692,541.3266,72.8687,545.98,67.36" style="stroke:#181818;stroke-width:1;"/><polygon fill="#000000" points="446.8318,193.5718,453.4023,186.6959,448.1059,184.147,446.8318,193.5718" style="stroke:#000000;stroke-width:1;"/><text fill="#000000" font-family="sans-serif" font-size="13" lengthAdjust="spacing" textLength="77.6191" x="458" y="193.5669">participa en</text></g><!--reverse link Usuario to Grupo--><g class="link" data-entity-1="Usuario" data-entity-2="Grupo" data-link-type="aggregation" data-source-line="33" data-uid="lnk16" id="link_Usuario_Grupo"><path codeLine="33" d="M589,85.42 C589,110.44 589,147.59 589,172.6" fill="none" id="Usuario-backto-Grupo" style="stroke:#181818;stroke-width:1;"/><polygon fill="none" points="589,73.42,585,79.42,589,85.42,593,79.42,589,73.42" style="stroke:#181818;stroke-width:1;"/><polygon fill="#000000" points="594,118.5664,596.9389,109.5213,591.0611,109.5213,594,118.5664" style="stroke:#000000;stroke-width:1;"/><text fill="#000000" font-family="sans-serif" font-size="13" lengthAdjust="spacing" textLength="78.1714" x="603" y="118.0669">pertenece a</text></g><!--reverse link Tarea to Tarea--><g class="link" data-entity-1="Tarea" data-entity-2="Tarea" data-link-type="composition" data-source-line="34" data-uid="lnk17" id="link_Tarea_Tarea"><path codeLine="34" d="M473.1502,309.7734 C491.5202,308.2734 496.04,312.67 496.04,321 C496.04,329.33 479.56,332.75 461.19,331.25" fill="none" id="Tarea-backto-Tarea" style="stroke:#181818;stroke-width:1;"/><polygon fill="#181818" points="461.19,310.75,467.4956,314.2484,473.1502,309.7734,466.8446,306.275,461.19,310.75" style="stroke:#181818;stroke-width:1;"/><polygon fill="#000000" points="500.6331,326.0498,504.2984,317.2739,498.44,316.7956,500.6331,326.0498" style="stroke:#000000;stroke-width:1;"/><text fill="#000000" font-family="sans-serif" font-size="13" lengthAdjust="spacing" textLength="78.019" x="515.04" y="325.5669">subtarea de</text></g><!--reverse link Tarea to ConflictoHorario--><g class="link" data-entity-1="Tarea" data-entity-2="ConflictoHorario" data-link-type="dependency" data-source-line="37" data-uid="lnk18" id="link_Tarea_ConflictoHorario"><path codeLine="37" d="M467.2454,328.104 C503.6554,334.284 554.61,345.85 599,369 C633.2,386.84 666.14,418.18 684.07,436.82" fill="none" id="Tarea-backto-ConflictoHorario" style="stroke:#181818;stroke-width:1;"/><polygon fill="#181818" points="461.33,327.1,469.5337,332.5497,466.2595,327.9367,470.8725,324.6625,461.33,327.1" style="stroke:#181818;stroke-width:1;"/><polygon fill="#000000" points="625.5304,375.3253,632.2987,382.0067,634.9333,376.7523,625.5304,375.3253" style="stroke:#000000;stroke-width:1;"/><text fill="#000000" font-family="sans-serif" font-size="13" lengthAdjust="spacing" textLength="52.8506" x="639" y="382.0669">afecta a</text></g><!--reverse link Usuario to ConflictoHorario--><g class="link" data-entity-1="Usuario" data-entity-2="ConflictoHorario" data-link-type="dependency" data-source-line="38" data-uid="lnk19" id="link_Usuario_ConflictoHorario"><path codeLine="38" d="M637.7667,68.7418 C658.9167,75.4818 676.89,85.27 690,105 C761.88,213.15 718.41,385.11 702.86,436.81" fill="none" id="Usuario-backto-ConflictoHorario" style="stroke:#181818;stroke-width:1;"/><polygon fill="#181818" points="632.05,66.92,639.4106,73.4638,636.8139,68.4382,641.8396,65.8415,632.05,66.92" style="stroke:#181818;stroke-width:1;"/><polygon fill="#000000" points="733.1293,240.6428,731.8104,250.0615,737.5985,249.0379,733.1293,240.6428" style="stroke:#000000;stroke-width:1;"/><text fill="#000000" font-family="sans-serif" font-size="13" lengthAdjust="spacing" textLength="60.3027" x="743" y="250.0669">notifica a</text></g><!--link Tarea to Localizacion--><g class="link" data-entity-1="Tarea" data-entity-2="Localizacion" data-link-type="dependency" data-source-line="39" data-uid="lnk20" id="link_Tarea_Localizacion"><path codeLine="39" d="M388.57,323.45 C317.33,326.96 162.84,338.01 121,369 C98.76,385.47 89.6663,411.7453 85.2363,430.8353" fill="none" id="Tarea-to-Localizacion" style="stroke:#181818;stroke-width:1;"/><polygon fill="#181818" points="83.88,436.68,89.8109,428.8172,85.0103,431.8094,82.018,427.0088,83.88,436.68" style="stroke:#181818;stroke-width:1;"/><polygon fill="#000000" points="121.2866,379.235,130.794,378.9869,128.8324,373.446,121.2866,379.235" style="stroke:#000000;stroke-width:1;"/><text fill="#000000" font-family="sans-serif" font-size="13" lengthAdjust="spacing" textLength="82.5957" x="135" y="382.0669">se realiza en</text></g><!--link Tarea to Horario--><g class="link" data-entity-1="Tarea" data-entity-2="Horario" data-link-type="dependency" data-source-line="40" data-uid="lnk21" id="link_Tarea_Horario"><path codeLine="40" d="M388.56,326.69 C340.33,333.61 258.96,348.07 238,369 C220.01,386.96 216.7642,411.9605 216.5342,430.5605" fill="none" id="Tarea-to-Horario" style="stroke:#181818;stroke-width:1;"/><polygon fill="#181818" points="216.46,436.56,220.571,427.6101,216.5218,431.5604,212.5716,427.5112,216.46,436.56" style="stroke:#181818;stroke-width:1;"/><polygon fill="#000000" points="238.7197,380.1509,247.9819,377.9914,244.9437,372.9597,238.7197,380.1509" style="stroke:#000000;stroke-width:1;"/><text fill="#000000" font-family="sans-serif" font-size="13" lengthAdjust="spacing" textLength="116.3271" x="252" y="382.0669">se programara en</text></g><!--link Tarea to Recordatorio--><g class="link" data-entity-1="Tarea" data-entity-2="Recordatorio" data-link-type="dependency" data-source-line="41" data-uid="lnk22" id="link_Tarea_Recordatorio"><path codeLine="41" d="M409.38,337.44 C401.26,346.12 391.67,357.51 385,369 C372.23,391 364.9679,413.5758 360.3379,430.7958" fill="none" id="Tarea-to-Recordatorio" style="stroke:#181818;stroke-width:1;"/><polygon fill="#181818" points="358.78,436.59,364.9797,428.9373,360.0783,431.7615,357.2541,426.8601,358.78,436.59" style="stroke:#181818;stroke-width:1;"/><polygon fill="#000000" points="387.6747,381.9928,394.483,375.3521,389.2794,372.6186,387.6747,381.9928" style="stroke:#000000;stroke-width:1;"/><text fill="#000000" font-family="sans-serif" font-size="13" lengthAdjust="spacing" textLength="48.2041" x="399" y="382.0669">notifica</text></g><!--link Tarea to RelacionTareas--><g class="link" data-entity-1="Tarea" data-entity-2="RelacionTareas" data-link-type="dependency" data-source-line="42" data-uid="lnk23" id="link_Tarea_RelacionTareas"><path codeLine="42" d="M436.39,337.42 C454.87,362.44 487.5956,406.7635 506.0656,431.7735" fill="none" id="Tarea-to-RelacionTareas" style="stroke:#181818;stroke-width:1;"/><polygon fill="#181818" points="509.63,436.6,507.5011,426.984,506.6597,432.5779,501.0657,431.7365,509.63,436.6" style="stroke:#181818;stroke-width:1;"/><polygon fill="#000000" points="477.9702,381.5886,474.9612,372.5666,470.2329,376.0582,477.9702,381.5886" style="stroke:#000000;stroke-width:1;"/><text fill="#000000" font-family="sans-serif" font-size="13" lengthAdjust="spacing" textLength="106.2153" x="484" y="382.0669">se relaciona con</text></g><!--SRC=[TPB1QiCm38RlUGhHos0GsDgUGWcC7RR1sA7R7a1rrDOqjOAjxD2nTvyI9zJ9s2sHlr_w_Sl23GZ3ZaNu39NrPCIoouws8ZYJ7BaAyGT5lDsrGY4B9-iQz7W6KsC83-F9Ys7tRYy4Trbs0s_sYsguB-03FM7Me3dXWM0nr1VmdK5iC10_LzMoWC_GehSyrorJtSWaobK1Jxvj_kXMgIuIYMfTm9Q21g4NxH2zv4o_JlMFxFQrDSBFx7i3uy4h6wpj1KsNuLYSGriox2iKdXRhNjL74QAtiKO16c-TiGtMwgnt3xTv7dE30XGug7r5iKBOP4Ckm0cZ2nFRjG1oK4wGs50HyaAEZ2vRYIXCnuHs9_sdfbJE3EhgGMFoNOg3TAFIULBQ1VVwnX1Id_-GZiNkhObix9ddvIJapXNfrBuGRtO5hvsKQJmVzCdgivrZwJxIgLCcNSyuDTQmltpv2m00]--></g></svg>