<svg xmlns="http://www.w3.org/2000/svg" xmlns:xlink="http://www.w3.org/1999/xlink" contentStyleType="text/css" data-diagram-type="STATE" height="631px" preserveAspectRatio="none" style="width:348px;height:631px;background:#FFFFFF;" version="1.1" viewBox="0 0 348 631" width="348px" zoomAndPan="magnify"><defs/><g><rect fill="#F1F1F1" height="40" rx="12.5" ry="12.5" style="stroke:#181818;stroke-width:0.5;" width="185.8066" x="78" y="7"/><text fill="#000000" font-family="sans-serif" font-size="14" lengthAdjust="spacing" textLength="175.8066" x="83" y="31.8467">PLANIFICACION_ABIERTO</text><path d="M19.5,108 L322.5,108 A12.5,12.5 0 0 1 335,120.5 L335,134.2969 L7,134.2969 L7,120.5 A12.5,12.5 0 0 1 19.5,108" fill="#F1F1F1"/><rect fill="none" height="382.2969" rx="12.5" ry="12.5" style="stroke:#181818;stroke-width:0.5;" width="328" x="7" y="108"/><line style="stroke:#181818;stroke-width:0.5;" x1="7" x2="335" y1="134.2969" y2="134.2969"/><text fill="#000000" font-family="sans-serif" font-size="14" lengthAdjust="spacing" textLength="165.6416" x="88.1792" y="125.9951">asignarTareaAUsuario()</text><rect fill="#F1F1F1" height="40" rx="12.5" ry="12.5" style="stroke:#181818;stroke-width:0.5;" width="50" x="19" y="236.2969"/><text fill="#000000" font-family="sans-serif" font-size="14" lengthAdjust="spacing" textLength="4.4502" x="41.7749" y="261.1436">&#160;</text><rect fill="#F1F1F1" height="40" rx="12.5" ry="12.5" style="stroke:#181818;stroke-width:0.5;" width="50" x="19" y="347.2969"/><text fill="#000000" font-family="sans-serif" font-size="14" lengthAdjust="spacing" textLength="4.4502" x="41.7749" y="372.1436">&#160;</text><ellipse cx="44" cy="155.2969" fill="#222222" rx="10" ry="10" style="stroke:#222222;stroke-width:1;"/><ellipse cx="44" cy="469.2969" fill="none" rx="11" ry="11" style="stroke:#222222;stroke-width:1;"/><ellipse cx="44" cy="469.2969" fill="#222222" rx="6" ry="6" style="stroke:#222222;stroke-width:1;"/><!--link *start*asignarTareaAUsuario to IngresandoAsignacion--><g class="link" data-entity-1=".start.asignarTareaAUsuario" data-entity-2="IngresandoAsignacion" data-source-line="12" data-uid="lnk4" id="link_.start.asignarTareaAUsuario_IngresandoAsignacion"><path d="M44,165.4369 C44,181.4169 44,208.7869 44,230.0669" fill="none" id="*start*asignarTareaAUsuario-to-IngresandoAsignacion" style="stroke:#008000;stroke-width:1;"/><polygon fill="#008000" points="44,236.0669,48,227.0669,44,231.0669,40,227.0669,44,236.0669" style="stroke:#008000;stroke-width:1;"/><path d="M49,188.2969 L49,213.2969 L326,213.2969 L326,198.2969 L316,188.2969 L49,188.2969" fill="#FEFFDD" style="stroke:#181818;stroke-width:0.5;"/><path d="M316,188.2969 L316,198.2969 L326,198.2969 L316,188.2969" fill="#FEFFDD" style="stroke:#181818;stroke-width:0.5;"/><text fill="#000000" font-family="sans-serif" font-size="13" font-weight="bold" lengthAdjust="spacing" textLength="56.1196" x="55" y="205.3638">Usuario</text><text fill="#000000" font-family="sans-serif" font-size="13" lengthAdjust="spacing" textLength="196.187" x="115.252" y="205.3638">introduce usuario destinatario</text></g><!--link IngresandoAsignacion to ValidandoAsignacion--><g class="link" data-entity-1="IngresandoAsignacion" data-entity-2="ValidandoAsignacion" data-source-line="17" data-uid="lnk5" id="link_IngresandoAsignacion_ValidandoAsignacion"><path d="M44,276.5369 C44,296.4569 44,321.3969 44,341.2569" fill="none" id="IngresandoAsignacion-to-ValidandoAsignacion" style="stroke:#008000;stroke-width:1;"/><polygon fill="#008000" points="44,347.2569,48,338.2569,44,342.2569,40,338.2569,44,347.2569" style="stroke:#008000;stroke-width:1;"/><path d="M49,299.2969 L49,324.2969 L318,324.2969 L318,309.2969 L308,299.2969 L49,299.2969" fill="#FEFFDD" style="stroke:#181818;stroke-width:0.5;"/><path d="M308,299.2969 L308,309.2969 L318,309.2969 L308,299.2969" fill="#FEFFDD" style="stroke:#181818;stroke-width:0.5;"/><text fill="#000000" font-family="sans-serif" font-size="13" font-weight="bold" lengthAdjust="spacing" textLength="58.9063" x="55" y="316.3638">Sistema</text><text fill="#000000" font-family="sans-serif" font-size="13" lengthAdjust="spacing" textLength="185.6245" x="118.0386" y="316.3638">valida existencia del usuario</text></g><!--link ValidandoAsignacion to *end*asignarTareaAUsuario--><g class="link" data-entity-1="ValidandoAsignacion" data-entity-2=".end.asignarTareaAUsuario" data-source-line="22" data-uid="lnk7" id="link_ValidandoAsignacion_.end.asignarTareaAUsuario"><path d="M44,387.5769 C44,408.6869 44,435.7369 44,452.2269" fill="none" id="ValidandoAsignacion-to-*end*asignarTareaAUsuario" style="stroke:#008000;stroke-width:1;"/><polygon fill="#008000" points="44,458.2269,48,449.2269,44,453.2269,40,449.2269,44,458.2269" style="stroke:#008000;stroke-width:1;"/><path d="M49,410.2969 L49,435.2969 L257,435.2969 L257,420.2969 L247,410.2969 L49,410.2969" fill="#FEFFDD" style="stroke:#181818;stroke-width:0.5;"/><path d="M247,410.2969 L247,420.2969 L257,420.2969 L247,410.2969" fill="#FEFFDD" style="stroke:#181818;stroke-width:0.5;"/><text fill="#000000" font-family="sans-serif" font-size="13" font-weight="bold" lengthAdjust="spacing" textLength="58.9063" x="55" y="427.3638">Sistema</text><text fill="#000000" font-family="sans-serif" font-size="13" lengthAdjust="spacing" textLength="124.2808" x="118.0386" y="427.3638">registra asignaci&#243;n</text></g><rect fill="#F1F1F1" height="40" rx="12.5" ry="12.5" style="stroke:#181818;stroke-width:0.5;" width="185.8066" x="78" y="585"/><text fill="#000000" font-family="sans-serif" font-size="14" lengthAdjust="spacing" textLength="175.8066" x="83" y="609.8467">PLANIFICACION_ABIERTO</text><!--link in1 to asignarTareaAUsuario--><g class="link" data-entity-1="in1" data-entity-2="asignarTareaAUsuario" data-source-line="5" data-uid="lnk2" id="link_in1_asignarTareaAUsuario"><path d="M171,47.42 C171,61.93 171,77.4 171,101.78" fill="none" id="in1-to-asignarTareaAUsuario" style="stroke:#008000;stroke-width:1;"/><polygon fill="#008000" points="171,107.78,175,98.78,171,102.78,167,98.78,171,107.78" style="stroke:#008000;stroke-width:1;"/></g><!--link asignarTareaAUsuario to PLANIFICACION_ABIERTO--><g class="link" data-entity-1="asignarTareaAUsuario" data-entity-2="PLANIFICACION_ABIERTO" data-source-line="28" data-uid="lnk9" id="link_asignarTareaAUsuario_PLANIFICACION_ABIERTO"><path d="M171,490.37 C171,529.14 171,558.34 171,578.97" fill="none" id="asignarTareaAUsuario-to-PLANIFICACION_ABIERTO" style="stroke:#008000;stroke-width:1;"/><polygon fill="#008000" points="171,584.97,175,575.97,171,579.97,167,575.97,171,584.97" style="stroke:#008000;stroke-width:1;"/><path d="M176,525 L176,550 L297,550 L297,535 L287,525 L176,525" fill="#FEFFDD" style="stroke:#181818;stroke-width:0.5;"/><path d="M287,525 L287,535 L297,535 L287,525" fill="#FEFFDD" style="stroke:#181818;stroke-width:0.5;"/><text fill="#000000" font-family="sans-serif" font-size="13" lengthAdjust="spacing" textLength="100.3755" x="182" y="542.0669">Tarea asignada</text></g><!--SRC=[ZLB1IiGm4BtdAqAzgB28zwLG5uM2x8gkNfP5PfkX3jjEIfAAHVmgFy4VCyssq6M3cDjathptvYLlf51YtRXEAhI5eSQHPc7tn0qOg6L5ZAvhK3Qwwlf22El0eII-bc1byd2VBVExV94jyjNoDRl9Rn_NgqJqxTdch3I8l9sb7aebWrc3GSYURGk6z4WLwmNkMEFy8f6VGaX_3jCvUn4Bh7GMu8LV84pBP89wWOfK71HGcyljaTyOQm2ozcn-s6Un3nVzcU_ImTxyQfVwR9pHgYrGjiCsFbn732witKyWgq1rK8_kCBKJiV-dcoUo3ci8Rjx3hCIF_euB0k-c6fr5pCIYcdhnKVrRss3fAmF36nVqyyt7abz2HDz_gXZzO-94Fn0CIWh4AF4B]--></g></svg>