<svg xmlns="http://www.w3.org/2000/svg" xmlns:xlink="http://www.w3.org/1999/xlink" contentStyleType="text/css" data-diagram-type="STATE" height="731px" preserveAspectRatio="none" style="width:677px;height:731px;background:#FFFFFF;" version="1.1" viewBox="0 0 677 731" width="677px" zoomAndPan="magnify"><defs/><g><g id="Inicio"><rect fill="#FFFFFF" height="50" rx="12.5" ry="12.5" style="stroke:#000000;stroke-width:0.5;" width="195.8066" x="237.5" y="7"/><line style="stroke:#000000;stroke-width:0.5;" x1="237.5" x2="433.3066" y1="33.2969" y2="33.2969"/><text fill="#000000" font-family="sans-serif" font-size="14" lengthAdjust="spacing" textLength="175.8066" x="247.5" y="24.9951">PLANIFICACION_ABIERTO</text></g><path d="M19.5,118 L651.08,118 A12.5,12.5 0 0 1 663.58,130.5 L663.58,144.2969 L7,144.2969 L7,130.5 A12.5,12.5 0 0 1 19.5,118" fill="#FFFFFF"/><rect fill="none" height="462.2969" rx="12.5" ry="12.5" style="stroke:#000000;stroke-width:0.5;" width="656.58" x="7" y="118"/><line style="stroke:#000000;stroke-width:0.5;" x1="7" x2="663.58" y1="144.2969" y2="144.2969"/><text fill="#000000" font-family="sans-serif" font-size="14" lengthAdjust="spacing" textLength="165.6416" x="252.4692" y="135.9951">asignarTareaAUsuario()</text><g id="AsignarTareaContainer.PasoInicial"><rect fill="#FFFFFF" height="50" rx="12.5" ry="12.5" style="stroke:#000000;stroke-width:0.5;" width="50" x="206.58" y="246.2969"/><line style="stroke:#000000;stroke-width:0.5;" x1="206.58" x2="256.58" y1="272.5938" y2="272.5938"/><text fill="#000000" font-family="sans-serif" font-size="14" lengthAdjust="spacing" textLength="4.4502" x="229.3549" y="264.292">&#160;</text></g><g id="AsignarTareaContainer.PasoDatos"><rect fill="#FFFFFF" height="50" rx="12.5" ry="12.5" style="stroke:#000000;stroke-width:0.5;" width="50" x="206.58" y="427.2969"/><line style="stroke:#000000;stroke-width:0.5;" x1="206.58" x2="256.58" y1="453.5938" y2="453.5938"/><text fill="#000000" font-family="sans-serif" font-size="14" lengthAdjust="spacing" textLength="4.4502" x="229.3549" y="445.292">&#160;</text></g><ellipse cx="231.58" cy="165.2969" fill="#222222" rx="10" ry="10" style="stroke:#222222;stroke-width:1;"/><ellipse cx="231.58" cy="559.2969" fill="none" rx="11" ry="11" style="stroke:#222222;stroke-width:1;"/><ellipse cx="231.58" cy="559.2969" fill="#222222" rx="6" ry="6" style="stroke:#222222;stroke-width:1;"/><!--link *start*AsignarTareaContainer to PasoInicial--><g class="link" data-entity-1=".start.AsignarTareaContainer" data-entity-2="PasoInicial" data-source-line="29" data-uid="lnk3" id="link_.start.AsignarTareaContainer_PasoInicial"><path d="M231.58,175.5269 C231.58,191.2369 231.58,217.6569 231.58,240.1669" fill="none" id="*start*AsignarTareaContainer-to-PasoInicial" style="stroke:#009900;stroke-width:1;"/><polygon fill="#009900" points="231.58,246.1669,235.58,237.1669,231.58,241.1669,227.58,237.1669,231.58,246.1669" style="stroke:#009900;stroke-width:1;"/><path d="M236.58,198.2969 L236.58,223.2969 L518.58,223.2969 L518.58,208.2969 L508.58,198.2969 L236.58,198.2969" fill="#FFFFE0" style="stroke:#B0B060;stroke-width:0.5;"/><path d="M508.58,198.2969 L508.58,208.2969 L518.58,208.2969 L508.58,198.2969" fill="#FFFFE0" style="stroke:#B0B060;stroke-width:0.5;"/><text fill="#000000" font-family="Arial" font-size="13" font-weight="bold" lengthAdjust="spacing" textLength="56.1196" x="242.58" y="215.3638">Usuario</text><text fill="#000000" font-family="Arial" font-size="13" lengthAdjust="spacing" textLength="200.9224" x="302.832" y="215.3638">solicita asignar tarea a usuario</text></g><!--link PasoInicial to PasoDatos--><g class="link" data-entity-1="PasoInicial" data-entity-2="PasoDatos" data-source-line="34" data-uid="lnk4" id="link_PasoInicial_PasoDatos"><path d="M231.58,296.4369 C231.58,330.6969 231.58,387.0469 231.58,421.2569" fill="none" id="PasoInicial-to-PasoDatos" style="stroke:#009900;stroke-width:1;"/><polygon fill="#009900" points="231.58,427.2569,235.58,418.2569,231.58,422.2569,227.58,418.2569,231.58,427.2569" style="stroke:#009900;stroke-width:1;"/><path d="M236.58,319.2969 L236.58,404.2969 L543.58,404.2969 L543.58,329.2969 L533.58,319.2969 L236.58,319.2969" fill="#FFFFE0" style="stroke:#B0B060;stroke-width:0.5;"/><path d="M533.58,319.2969 L533.58,329.2969 L543.58,329.2969 L533.58,319.2969" fill="#FFFFE0" style="stroke:#B0B060;stroke-width:0.5;"/><text fill="#000000" font-family="Arial" font-size="13" font-weight="bold" lengthAdjust="spacing" textLength="58.9063" x="242.58" y="336.3638">Sistema</text><text fill="#000000" font-family="Arial" font-size="13" lengthAdjust="spacing" textLength="223.3423" x="305.6186" y="336.3638">presenta formulario de asignaci&#243;n</text><text fill="#000000" font-family="Arial" font-size="13" font-weight="bold" lengthAdjust="spacing" textLength="58.9063" x="242.58" y="351.4966">Sistema</text><text fill="#000000" font-family="Arial" font-size="13" lengthAdjust="spacing" textLength="110.5952" x="305.6186" y="351.4966">permite solicitar:</text><text fill="#000000" font-family="Arial" font-size="13" lengthAdjust="spacing" textLength="208.9458" x="242.58" y="366.6294">&#8226; introducir usuario destinatario</text><text fill="#000000" font-family="Arial" font-size="13" lengthAdjust="spacing" textLength="137.0586" x="242.58" y="381.7622">&#8226; guardar asignaci&#243;n</text><text fill="#000000" font-family="Arial" font-size="13" lengthAdjust="spacing" textLength="141.1147" x="242.58" y="396.895">&#8226; cancelar asignaci&#243;n</text></g><!--link PasoDatos to *end*AsignarTareaContainer--><g class="link" data-entity-1="PasoDatos" data-entity-2=".end.AsignarTareaContainer" data-source-line="44" data-uid="lnk6" id="link_PasoDatos_.end.AsignarTareaContainer"><path d="M206.28,455.4369 C149.08,461.2069 18,480.1769 60.58,530.2969 C81.32,554.7169 179.9303,557.8226 214.4803,558.1926" fill="none" id="PasoDatos-to-*end*AsignarTareaContainer" style="stroke:#008000;stroke-width:1;"/><polygon fill="#008000" points="220.48,558.2569,211.5234,554.1607,215.4803,558.2033,211.4377,562.1603,220.48,558.2569" style="stroke:#008000;stroke-width:1;"/><path d="M65.58,500.2969 L65.58,525.2969 L377.58,525.2969 L377.58,510.2969 L367.58,500.2969 L65.58,500.2969" fill="#FFFFE0" style="stroke:#B0B060;stroke-width:0.5;"/><path d="M367.58,500.2969 L367.58,510.2969 L377.58,510.2969 L367.58,500.2969" fill="#FFFFE0" style="stroke:#B0B060;stroke-width:0.5;"/><text fill="#000000" font-family="Arial" font-size="13" font-weight="bold" lengthAdjust="spacing" textLength="56.1196" x="71.58" y="517.3638">Usuario</text><text fill="#000000" font-family="Arial" font-size="13" lengthAdjust="spacing" textLength="231.3721" x="131.832" y="517.3638">introduce usuario y solicita guardar</text></g><!--link PasoDatos to *end*AsignarTareaContainer--><g class="link" data-entity-1="PasoDatos" data-entity-2=".end.AsignarTareaContainer" data-source-line="49" data-uid="lnk7" id="link_PasoDatos_.end.AsignarTareaContainer"><path d="M256.78,456.6169 C295.67,462.3169 367.39,475.3069 382.58,495.2969 C391.99,507.6869 392.53,518.3369 382.58,530.2969 C364.68,551.8169 280.5363,556.6658 248.7163,557.7858" fill="none" id="PasoDatos-to-*end*AsignarTareaContainer-1" style="stroke:#FF0000;stroke-width:1;"/><polygon fill="#FF0000" points="242.72,557.9969,251.8551,561.6778,247.7169,557.821,251.5737,553.6828,242.72,557.9969" style="stroke:#FF0000;stroke-width:1;"/><path d="M394.58,500.2969 L394.58,525.2969 L654.58,525.2969 L654.58,510.2969 L644.58,500.2969 L394.58,500.2969" fill="#FFFFE0" style="stroke:#B0B060;stroke-width:0.5;"/><path d="M644.58,500.2969 L644.58,510.2969 L654.58,510.2969 L644.58,500.2969" fill="#FFFFE0" style="stroke:#B0B060;stroke-width:0.5;"/><text fill="#000000" font-family="Arial" font-size="13" font-weight="bold" lengthAdjust="spacing" textLength="56.1196" x="400.58" y="517.3638">Usuario</text><text fill="#000000" font-family="Arial" font-size="13" lengthAdjust="spacing" textLength="179.2197" x="460.832" y="517.3638">solicita cancelar asignaci&#243;n</text></g><g id="SalidaPlanificacion"><rect fill="#FFFFFF" height="50" rx="12.5" ry="12.5" style="stroke:#000000;stroke-width:0.5;" width="195.8066" x="237.5" y="675"/><line style="stroke:#000000;stroke-width:0.5;" x1="237.5" x2="433.3066" y1="701.2969" y2="701.2969"/><text fill="#000000" font-family="sans-serif" font-size="14" lengthAdjust="spacing" textLength="175.8066" x="247.5" y="692.9951">PLANIFICACION_ABIERTO</text></g><!--link Inicio to AsignarTareaContainer--><g class="link" data-entity-1="Inicio" data-entity-2="AsignarTareaContainer" data-source-line="59" data-uid="lnk8" id="link_Inicio_AsignarTareaContainer"><path d="M335.5,57.19 C335.5,72.39 335.5,87.68 335.5,111.89" fill="none" id="Inicio-to-AsignarTareaContainer" style="stroke:#009900;stroke-width:1;"/><polygon fill="#009900" points="335.5,117.89,339.5,108.89,335.5,112.89,331.5,108.89,335.5,117.89" style="stroke:#009900;stroke-width:1;"/></g><!--link AsignarTareaContainer to SalidaPlanificacion--><g class="link" data-entity-1="AsignarTareaContainer" data-entity-2="SalidaPlanificacion" data-source-line="62" data-uid="lnk9" id="link_AsignarTareaContainer_SalidaPlanificacion"><path d="M241.07,580.13 C238.57,590.14 236.35,600.12 234.5,610 C231.63,625.29 226.5,631.66 234.5,645 C242.01,657.54 248.3994,664.2258 261.0094,671.8158" fill="none" id="AsignarTareaContainer-to-SalidaPlanificacion" style="stroke:#008000;stroke-width:1;"/><polygon fill="#008000" points="266.15,674.91,260.5018,666.8417,261.8661,672.3315,256.3763,673.6958,266.15,674.91" style="stroke:#008000;stroke-width:1;"/><path d="M239.5,615 L239.5,640 L385.5,640 L385.5,625 L375.5,615 L239.5,615" fill="#FFFFE0" style="stroke:#B0B060;stroke-width:0.5;"/><path d="M375.5,615 L375.5,625 L385.5,625 L375.5,615" fill="#FFFFE0" style="stroke:#B0B060;stroke-width:0.5;"/><text fill="#000000" font-family="Arial" font-size="13" lengthAdjust="spacing" textLength="125.2583" x="245.5" y="632.0669">guardar asignaci&#243;n</text></g><!--link AsignarTareaContainer to SalidaPlanificacion--><g class="link" data-entity-1="AsignarTareaContainer" data-entity-2="SalidaPlanificacion" data-source-line="68" data-uid="lnk10" id="link_AsignarTareaContainer_SalidaPlanificacion"><path d="M408.86,580.14 C407.9,602.47 403.55,624.45 394.5,645 C389.46,656.44 385.1642,662.5235 375.8842,670.7735" fill="none" id="AsignarTareaContainer-to-SalidaPlanificacion-1" style="stroke:#FF0000;stroke-width:1;"/><polygon fill="#FF0000" points="371.4,674.76,380.7839,671.7697,375.1368,671.4379,375.4686,665.7908,371.4,674.76" style="stroke:#FF0000;stroke-width:1;"/><path d="M408.5,615 L408.5,640 L558.5,640 L558.5,625 L548.5,615 L408.5,615" fill="#FFFFE0" style="stroke:#B0B060;stroke-width:0.5;"/><path d="M548.5,615 L548.5,625 L558.5,625 L548.5,615" fill="#FFFFE0" style="stroke:#B0B060;stroke-width:0.5;"/><text fill="#000000" font-family="Arial" font-size="13" lengthAdjust="spacing" textLength="129.3145" x="414.5" y="632.0669">cancelar asignaci&#243;n</text></g><!--SRC=[bLHBQXj14Dth58Mri2qmp2hWB08ZHGP1i8q_oSAOK9ekIIttT9dk7fmG0ZbBhf0Zv2O-IQgxHsF57ZlEh4Hztdlrgal-HjjRT5X3pPQhbUEQO876qy1tARz2nNTjEF0j18OvXy0rAEse2fhjOBi-O23uDW3vnbZTB1qtLatOi8DFAnqePzWfSZawDbAMegLpV9U3mw8uF2oA53uFwCBZska6D8U-Rskm_Ao4uP5yq-A9YE6u61TlSlo8RJX6yQ9q6as4teMfpANOWo9X3WuLmfx8rNFS7-IHTqu_bCUpezcadCnEZZ-NuzdqxE9a1z33pEfASuIP23HPKiAeoC04FKV8IyyR5FHwQT5Te2CiBts3JlFUVe8fjr8H2BKbryxvx6PYieM6X78gd4cGZDQRV8-1VMwy6bt3mS6x9pt9OBPWjCtRYDzerCeTZS2paUg0q8u38Oe6X2QNf2QoAY5bhYsEZZDBUO7nNFj0DGhZhIDFuWaisDMDYIJHsSnVwT-_R7yRkLeUPIVOlUtAxd_y12sxPjLKscsK2wWFscBenjZKBYMlPDG-ofYlq5PaUWh-zc4NnarbA8fNL6aVow8ESfOxev8nS70rN3eYUorsoQfUjvhDIDHDzFLXNUqCpwodOtMa_ekpm_-t1u-lxHoDJiSsnpM_ujPo_Qb1gnUw4ePu1Edmw8lyfWIwCCsQ1_aiqsFhFQtOrz9BhumkCZwI_6Vi3_fFSNiVVJgU-DJtP1vixzX5SMjSAe6zCrxZ2oBQzRnAGkz6DXh-0000]--></g></svg>