<svg xmlns="http://www.w3.org/2000/svg" xmlns:xlink="http://www.w3.org/1999/xlink" contentStyleType="text/css" data-diagram-type="STATE" height="756px" preserveAspectRatio="none" style="width:379px;height:756px;background:#FFFFFF;" version="1.1" viewBox="0 0 379 756" width="379px" zoomAndPan="magnify"><defs/><g><g id="TAREA_ABIERTO"><rect fill="#FFFFFF" height="50" rx="12.5" ry="12.5" style="stroke:#000000;stroke-width:0.5;" width="134.7344" x="119" y="7"/><line style="stroke:#000000;stroke-width:0.5;" x1="119" x2="253.7344" y1="33.2969" y2="33.2969"/><text fill="#000000" font-family="sans-serif" font-size="14" lengthAdjust="spacing" textLength="114.7344" x="129" y="24.9951">TAREA_ABIERTO</text></g><g id="TAREA_ABIERTO_FINAL"><rect fill="#FFFFFF" height="50" rx="12.5" ry="12.5" style="stroke:#000000;stroke-width:0.5;" width="134.7344" x="119" y="700"/><line style="stroke:#000000;stroke-width:0.5;" x1="119" x2="253.7344" y1="726.2969" y2="726.2969"/><text fill="#000000" font-family="sans-serif" font-size="14" lengthAdjust="spacing" textLength="114.7344" x="129" y="717.9951">TAREA_ABIERTO</text></g><path d="M19.5,117 L353.5,117 A12.5,12.5 0 0 1 366,129.5 L366,143.2969 L7,143.2969 L7,129.5 A12.5,12.5 0 0 1 19.5,117" fill="#FFFFFF"/><rect fill="none" height="523.2969" rx="12.5" ry="12.5" style="stroke:#000000;stroke-width:0.5;" width="359" x="7" y="117"/><line style="stroke:#000000;stroke-width:0.5;" x1="7" x2="366" y1="143.2969" y2="143.2969"/><text fill="#000000" font-family="sans-serif" font-size="14" lengthAdjust="spacing" textLength="128.4951" x="122.2524" y="134.9951">relacionarTareas()</text><ellipse cx="44" cy="164.2969" fill="#222222" rx="10" ry="10" style="stroke:#222222;stroke-width:1;"/><g id="relacionarTareas.Estado1"><rect fill="#FFFFFF" height="50" rx="12.5" ry="12.5" style="stroke:#000000;stroke-width:0.5;" width="50" x="19" y="245.2969"/><line style="stroke:#000000;stroke-width:0.5;" x1="19" x2="69" y1="271.5938" y2="271.5938"/><text fill="#000000" font-family="sans-serif" font-size="14" lengthAdjust="spacing" textLength="4.4502" x="41.7749" y="263.292">&#160;</text></g><g id="relacionarTareas.Estado2"><rect fill="#FFFFFF" height="50" rx="12.5" ry="12.5" style="stroke:#000000;stroke-width:0.5;" width="50" x="19" y="366.2969"/><line style="stroke:#000000;stroke-width:0.5;" x1="19" x2="69" y1="392.5938" y2="392.5938"/><text fill="#000000" font-family="sans-serif" font-size="14" lengthAdjust="spacing" textLength="4.4502" x="41.7749" y="384.292">&#160;</text></g><g id="relacionarTareas.Estado3"><rect fill="#FFFFFF" height="50" rx="12.5" ry="12.5" style="stroke:#000000;stroke-width:0.5;" width="50" x="19" y="487.2969"/><line style="stroke:#000000;stroke-width:0.5;" x1="19" x2="69" y1="513.5938" y2="513.5938"/><text fill="#000000" font-family="sans-serif" font-size="14" lengthAdjust="spacing" textLength="4.4502" x="41.7749" y="505.292">&#160;</text></g><ellipse cx="44" cy="619.2969" fill="none" rx="11" ry="11" style="stroke:#222222;stroke-width:1;"/><ellipse cx="44" cy="619.2969" fill="#222222" rx="6" ry="6" style="stroke:#222222;stroke-width:1;"/><!--link Inicio to Estado1--><g class="link" data-entity-1="Inicio" data-entity-2="Estado1" data-source-line="22" data-uid="lnk2" id="link_Inicio_Estado1"><path d="M44,174.5269 C44,190.2369 44,216.6569 44,239.1669" fill="none" id="Inicio-to-Estado1" style="stroke:#008000;stroke-width:1;"/><polygon fill="#008000" points="44,245.1669,48,236.1669,44,240.1669,40,236.1669,44,245.1669" style="stroke:#008000;stroke-width:1;"/><path d="M49,197.2969 L49,222.2969 L299,222.2969 L299,207.2969 L289,197.2969 L49,197.2969" fill="#FEFECE" style="stroke:#D7B75F;stroke-width:0.5;"/><path d="M289,197.2969 L289,207.2969 L299,207.2969 L289,197.2969" fill="#FEFECE" style="stroke:#D7B75F;stroke-width:0.5;"/><text fill="#000000" font-family="sans-serif" font-size="13" font-weight="bold" lengthAdjust="spacing" textLength="56.1196" x="55" y="214.3638">Usuario</text><text fill="#000000" font-family="sans-serif" font-size="13" lengthAdjust="spacing" textLength="168.7524" x="115.252" y="214.3638">solicita introducir relaci&#243;n</text></g><!--link Estado1 to Estado2--><g class="link" data-entity-1="Estado1" data-entity-2="Estado2" data-source-line="28" data-uid="lnk3" id="link_Estado1_Estado2"><path d="M44,295.3769 C44,316.0269 44,339.6169 44,360.2469" fill="none" id="Estado1-to-Estado2" style="stroke:#008000;stroke-width:1;"/><polygon fill="#008000" points="44,366.2469,48,357.2469,44,361.2469,40,357.2469,44,366.2469" style="stroke:#008000;stroke-width:1;"/><path d="M49,318.2969 L49,343.2969 L357,343.2969 L357,328.2969 L347,318.2969 L49,318.2969" fill="#FEFECE" style="stroke:#D7B75F;stroke-width:0.5;"/><path d="M347,318.2969 L347,328.2969 L357,328.2969 L347,318.2969" fill="#FEFECE" style="stroke:#D7B75F;stroke-width:0.5;"/><text fill="#000000" font-family="sans-serif" font-size="13" font-weight="bold" lengthAdjust="spacing" textLength="58.9063" x="55" y="335.3638">Sistema</text><text fill="#000000" font-family="sans-serif" font-size="13" lengthAdjust="spacing" textLength="224.5293" x="118.0386" y="335.3638">permite introducir tarea a vincular</text></g><!--link Estado2 to Estado3--><g class="link" data-entity-1="Estado2" data-entity-2="Estado3" data-source-line="34" data-uid="lnk4" id="link_Estado2_Estado3"><path d="M44,416.3769 C44,437.0269 44,460.6169 44,481.2469" fill="none" id="Estado2-to-Estado3" style="stroke:#008000;stroke-width:1;"/><polygon fill="#008000" points="44,487.2469,48,478.2469,44,482.2469,40,478.2469,44,487.2469" style="stroke:#008000;stroke-width:1;"/><path d="M49,439.2969 L49,464.2969 L256,464.2969 L256,449.2969 L246,439.2969 L49,439.2969" fill="#FEFECE" style="stroke:#D7B75F;stroke-width:0.5;"/><path d="M246,439.2969 L246,449.2969 L256,449.2969 L246,439.2969" fill="#FEFECE" style="stroke:#D7B75F;stroke-width:0.5;"/><text fill="#000000" font-family="sans-serif" font-size="13" font-weight="bold" lengthAdjust="spacing" textLength="56.1196" x="55" y="456.3638">Usuario</text><text fill="#000000" font-family="sans-serif" font-size="13" lengthAdjust="spacing" textLength="126.4961" x="115.252" y="456.3638">introduce selecci&#243;n</text></g><!--link Estado3 to Fin--><g class="link" data-entity-1="Estado3" data-entity-2="Fin" data-source-line="40" data-uid="lnk5" id="link_Estado3_Fin"><path d="M44,537.3869 C44,559.7869 44,586.0669 44,602.2469" fill="none" id="Estado3-to-Fin" style="stroke:#008000;stroke-width:1;"/><polygon fill="#008000" points="44,608.2469,48,599.2469,44,603.2469,40,599.2469,44,608.2469" style="stroke:#008000;stroke-width:1;"/><path d="M49,560.2969 L49,585.2969 L321,585.2969 L321,570.2969 L311,560.2969 L49,560.2969" fill="#FEFECE" style="stroke:#D7B75F;stroke-width:0.5;"/><path d="M311,560.2969 L311,570.2969 L321,570.2969 L311,560.2969" fill="#FEFECE" style="stroke:#D7B75F;stroke-width:0.5;"/><text fill="#000000" font-family="sans-serif" font-size="13" font-weight="bold" lengthAdjust="spacing" textLength="58.9063" x="55" y="577.3638">Sistema</text><text fill="#000000" font-family="sans-serif" font-size="13" lengthAdjust="spacing" textLength="188.8936" x="118.0386" y="577.3638">muestra relaci&#243;n establecida</text></g><!--link TAREA_ABIERTO to relacionarTareas--><g class="link" data-entity-1="TAREA_ABIERTO" data-entity-2="relacionarTareas" data-source-line="47" data-uid="lnk6" id="link_TAREA_ABIERTO_relacionarTareas"><path d="M186.5,57.22 C186.5,72.08 186.5,86.8 186.5,110.64" fill="none" id="TAREA_ABIERTO-to-relacionarTareas" style="stroke:#008000;stroke-width:1;"/><polygon fill="#008000" points="186.5,116.64,190.5,107.64,186.5,111.64,182.5,107.64,186.5,116.64" style="stroke:#008000;stroke-width:1;"/></g><!--link relacionarTareas to TAREA_ABIERTO_FINAL--><g class="link" data-entity-1="relacionarTareas" data-entity-2="TAREA_ABIERTO_FINAL" data-source-line="48" data-uid="lnk7" id="link_relacionarTareas_TAREA_ABIERTO_FINAL"><path d="M186.5,640.17 C186.5,664.11 186.5,678.93 186.5,693.83" fill="none" id="relacionarTareas-to-TAREA_ABIERTO_FINAL" style="stroke:#008000;stroke-width:1;"/><polygon fill="#008000" points="186.5,699.83,190.5,690.83,186.5,694.83,182.5,690.83,186.5,699.83" style="stroke:#008000;stroke-width:1;"/></g><!--SRC=[ZLDDQzj04BthLmps8Sx1HBK9AS48f5G2Gsb2uj9ZM4kJT9lrhfbTkOUINvMVq3_MqMhZIf4TiWU1vkEzDsztx9FKMq5Y0zO9X_0d0ZwPA9yUoTIwkZBA4FpuAHss6KCLKXlD59VvQ4faVhV1SHn_ZkCuUexi7bgReyZZ8Y_ogto0FVvoaLsS5mmJjS9MwMsUtgVPChzTNOVOg1SSWR3ziljY-Itz-eem8cJ1qcX1Aq4exEJKjxmD1wMX2NpDKaikWSM2e-IIP5YHyrzbFXrBp8ubviD48JKpeQu2Z_-Sm8sm1bg286SwJNgytcUZGKdTtajp5klakwq5IRCuMoTWZU9U9q1gHwQgIqd1WRylsZSniKSQSBSp1C8E-UnTyZjf7Mw49zyYRVWbTRbTupa8s4bTrafGNqANVWwJ6pOV8Rs4CD4U24yxscOTRVCF6xE70eiAomD-71IJNKAO43OrMaS2fd27pSEl36pvAQCNqk3pz5X9qzKwzrhvnZ_iuIlB_j8ymPeboqhq1VFod42ku47LlmpiQbGx1A7-A-ANmB-JTLqgTh2tErxNszM81hlIL1tOkNy0]--></g></svg>