<svg xmlns="http://www.w3.org/2000/svg" xmlns:xlink="http://www.w3.org/1999/xlink" contentStyleType="text/css" data-diagram-type="STATE" height="746px" preserveAspectRatio="none" style="width:911px;height:746px;background:#FFFFFF;" version="1.1" viewBox="0 0 911 746" width="911px" zoomAndPan="magnify"><defs/><g><g id="Inicio"><rect fill="#FFFFFF" height="50" rx="12.5" ry="12.5" style="stroke:#000000;stroke-width:0.5;" width="134.7344" x="385" y="7"/><line style="stroke:#000000;stroke-width:0.5;" x1="385" x2="519.7344" y1="33.2969" y2="33.2969"/><text fill="#000000" font-family="sans-serif" font-size="14" lengthAdjust="spacing" textLength="114.7344" x="395" y="24.9951">TAREA_ABIERTO</text></g><path d="M19.5,118 L885.88,118 A12.5,12.5 0 0 1 898.38,130.5 L898.38,144.2969 L7,144.2969 L7,130.5 A12.5,12.5 0 0 1 19.5,118" fill="#FFFFFF"/><rect fill="none" height="477.2969" rx="12.5" ry="12.5" style="stroke:#000000;stroke-width:0.5;" width="891.38" x="7" y="118"/><line style="stroke:#000000;stroke-width:0.5;" x1="7" x2="898.38" y1="144.2969" y2="144.2969"/><text fill="#000000" font-family="sans-serif" font-size="14" lengthAdjust="spacing" textLength="128.4951" x="388.4424" y="135.9951">relacionarTareas()</text><g id="RelacionarTareasContainer.EstadoFormulario"><rect fill="#FFFFFF" height="50" rx="12.5" ry="12.5" style="stroke:#000000;stroke-width:0.5;" width="50" x="280.38" y="246.2969"/><line style="stroke:#000000;stroke-width:0.5;" x1="280.38" x2="330.38" y1="272.5938" y2="272.5938"/><text fill="#000000" font-family="sans-serif" font-size="14" lengthAdjust="spacing" textLength="4.4502" x="303.1549" y="264.292">&#160;</text></g><g id="RelacionarTareasContainer.EstadoDecision"><rect fill="#FFFFFF" height="50" rx="12.5" ry="12.5" style="stroke:#000000;stroke-width:0.5;" width="50" x="280.38" y="442.2969"/><line style="stroke:#000000;stroke-width:0.5;" x1="280.38" x2="330.38" y1="468.5938" y2="468.5938"/><text fill="#000000" font-family="sans-serif" font-size="14" lengthAdjust="spacing" textLength="4.4502" x="303.1549" y="460.292">&#160;</text></g><ellipse cx="305.38" cy="165.2969" fill="#222222" rx="10" ry="10" style="stroke:#222222;stroke-width:1;"/><ellipse cx="305.38" cy="574.2969" fill="none" rx="11" ry="11" style="stroke:#222222;stroke-width:1;"/><ellipse cx="305.38" cy="574.2969" fill="#222222" rx="6" ry="6" style="stroke:#222222;stroke-width:1;"/><!--link *start*RelacionarTareasContainer to EstadoFormulario--><g class="link" data-entity-1=".start.RelacionarTareasContainer" data-entity-2="EstadoFormulario" data-source-line="26" data-uid="lnk3" id="link_.start.RelacionarTareasContainer_EstadoFormulario"><path d="M305.38,175.5269 C305.38,191.2369 305.38,217.6569 305.38,240.1669" fill="none" id="*start*RelacionarTareasContainer-to-EstadoFormulario" style="stroke:#009900;stroke-width:1;"/><polygon fill="#009900" points="305.38,246.1669,309.38,237.1669,305.38,241.1669,301.38,237.1669,305.38,246.1669" style="stroke:#009900;stroke-width:1;"/><path d="M310.38,198.2969 L310.38,223.2969 L608.38,223.2969 L608.38,208.2969 L598.38,198.2969 L310.38,198.2969" fill="#FFFFE0" style="stroke:#B0B060;stroke-width:0.5;"/><path d="M598.38,198.2969 L598.38,208.2969 L608.38,208.2969 L598.38,198.2969" fill="#FFFFE0" style="stroke:#B0B060;stroke-width:0.5;"/><text fill="#000000" font-family="Arial" font-size="13" font-weight="bold" lengthAdjust="spacing" textLength="104.8633" x="316.38" y="215.3638">Administrador</text><text fill="#000000" font-family="Arial" font-size="13" lengthAdjust="spacing" textLength="168.7524" x="425.3756" y="215.3638">solicita introducir relaci&#243;n</text></g><!--link EstadoFormulario to EstadoDecision--><g class="link" data-entity-1="EstadoFormulario" data-entity-2="EstadoDecision" data-source-line="31" data-uid="lnk4" id="link_EstadoFormulario_EstadoDecision"><path d="M280.19,273.6969 C231.09,277.0169 125.42,287.2069 103.38,314.2969 C72.53,352.2269 72.53,386.3669 103.38,424.2969 C125.42,451.3869 225.1037,461.1721 274.2037,464.4921" fill="none" id="EstadoFormulario-to-EstadoDecision" style="stroke:#009900;stroke-width:1;"/><polygon fill="#009900" points="280.19,464.8969,271.4804,460.2988,275.2014,464.5596,270.9407,468.2806,280.19,464.8969" style="stroke:#009900;stroke-width:1;"/><path d="M108.38,319.2969 L108.38,419.2969 L482.38,419.2969 L482.38,329.2969 L472.38,319.2969 L108.38,319.2969" fill="#FFFFE0" style="stroke:#B0B060;stroke-width:0.5;"/><path d="M472.38,319.2969 L472.38,329.2969 L482.38,329.2969 L472.38,319.2969" fill="#FFFFE0" style="stroke:#B0B060;stroke-width:0.5;"/><text fill="#000000" font-family="Arial" font-size="13" font-weight="bold" lengthAdjust="spacing" textLength="58.9063" x="114.38" y="336.3638">Sistema</text><text fill="#000000" font-family="Arial" font-size="13" lengthAdjust="spacing" textLength="264.6655" x="177.4186" y="336.3638">presenta buscador de tareas vinculables</text><text fill="#000000" font-family="Arial" font-size="13" font-weight="bold" lengthAdjust="spacing" textLength="58.9063" x="114.38" y="351.4966">Sistema</text><text fill="#000000" font-family="Arial" font-size="13" lengthAdjust="spacing" textLength="110.5952" x="177.4186" y="351.4966">permite solicitar:</text><ellipse cx="119.88" cy="362.1953" fill="#000000" rx="2.5" ry="2.5"/><text fill="#000000" font-family="Arial" font-size="13" lengthAdjust="spacing" textLength="341.1484" x="126.38" y="366.6294">introducir identificador o t&#237;tulo de la tarea a vincular</text><ellipse cx="119.88" cy="377.3281" fill="#000000" rx="2.5" ry="2.5"/><text fill="#000000" font-family="Arial" font-size="13" lengthAdjust="spacing" textLength="337.105" x="126.38" y="381.7622">seleccionar tipo de relaci&#243;n (predecesora/sucesora)</text><ellipse cx="119.88" cy="392.4609" fill="#000000" rx="2.5" ry="2.5"/><text fill="#000000" font-family="Arial" font-size="13" lengthAdjust="spacing" textLength="124.1919" x="126.38" y="396.895">establecer relaci&#243;n</text><ellipse cx="119.88" cy="407.5938" fill="#000000" rx="2.5" ry="2.5"/><text fill="#000000" font-family="Arial" font-size="13" lengthAdjust="spacing" textLength="133.0151" x="126.38" y="412.0278">cancelar vinculaci&#243;n</text></g><!--reverse link EstadoFormulario to EstadoDecision--><g class="link" data-entity-1="EstadoFormulario" data-entity-2="EstadoDecision" data-source-line="41" data-uid="lnk6" id="link_EstadoFormulario_EstadoDecision"><path d="M336.5141,274.8839 C381.7741,279.1039 468.05,289.9969 487.38,314.2969 C517.82,352.5569 517.82,386.0369 487.38,424.2969 C468.05,448.5969 375.8,460.0469 330.54,464.2669" fill="none" id="EstadoFormulario-backto-EstadoDecision" style="stroke:#008000;stroke-width:1;"/><polygon fill="#008000" points="330.54,274.3269,339.1298,279.1451,335.5184,274.7911,339.8725,271.1797,330.54,274.3269" style="stroke:#008000;stroke-width:1;"/><path d="M514.38,356.7969 L514.38,381.7969 L889.38,381.7969 L889.38,366.7969 L879.38,356.7969 L514.38,356.7969" fill="#FFFFE0" style="stroke:#B0B060;stroke-width:0.5;"/><path d="M879.38,356.7969 L879.38,366.7969 L889.38,366.7969 L879.38,356.7969" fill="#FFFFE0" style="stroke:#B0B060;stroke-width:0.5;"/><text fill="#000000" font-family="Arial" font-size="13" font-weight="bold" lengthAdjust="spacing" textLength="104.8633" x="520.38" y="373.8638">Administrador</text><text fill="#000000" font-family="Arial" font-size="13" lengthAdjust="spacing" textLength="245.8701" x="629.3756" y="373.8638">solicita cambiar la tarea seleccionada</text></g><!--link EstadoDecision to *end*RelacionarTareasContainer--><g class="link" data-entity-1="EstadoDecision" data-entity-2=".end.RelacionarTareasContainer" data-source-line="46" data-uid="lnk8" id="link_EstadoDecision_.end.RelacionarTareasContainer"><path d="M280.2,468.4769 C209.5,469.7769 18,479.3369 76.38,545.2969 C91.01,561.8269 244.337,570.3662 288.247,572.4962" fill="none" id="EstadoDecision-to-*end*RelacionarTareasContainer" style="stroke:#008000;stroke-width:1;"/><polygon fill="#008000" points="294.24,572.7869,285.4444,568.3555,289.2459,572.5446,285.0568,576.3461,294.24,572.7869" style="stroke:#008000;stroke-width:1;"/><path d="M81.38,515.2969 L81.38,540.2969 L508.38,540.2969 L508.38,525.2969 L498.38,515.2969 L81.38,515.2969" fill="#FFFFE0" style="stroke:#B0B060;stroke-width:0.5;"/><path d="M498.38,515.2969 L498.38,525.2969 L508.38,525.2969 L498.38,515.2969" fill="#FFFFE0" style="stroke:#B0B060;stroke-width:0.5;"/><text fill="#000000" font-family="Arial" font-size="13" font-weight="bold" lengthAdjust="spacing" textLength="104.8633" x="87.38" y="532.3638">Administrador</text><text fill="#000000" font-family="Arial" font-size="13" lengthAdjust="spacing" textLength="297.0068" x="196.3756" y="532.3638">selecciona tarea y solicita establecer relaci&#243;n</text></g><!--link EstadoDecision to *end*RelacionarTareasContainer--><g class="link" data-entity-1="EstadoDecision" data-entity-2=".end.RelacionarTareasContainer" data-source-line="51" data-uid="lnk9" id="link_EstadoDecision_.end.RelacionarTareasContainer"><path d="M330.61,469.0669 C396.66,471.9169 565.97,485.1469 513.38,545.2969 C487.36,575.0569 361.9985,574.6193 322.5785,573.7493" fill="none" id="EstadoDecision-to-*end*RelacionarTareasContainer-1" style="stroke:#FF0000;stroke-width:1;"/><polygon fill="#FF0000" points="316.58,573.6169,325.4896,577.8145,321.5788,573.7272,325.6661,569.8164,316.58,573.6169" style="stroke:#FF0000;stroke-width:1;"/><path d="M527.38,515.2969 L527.38,540.2969 L839.38,540.2969 L839.38,525.2969 L829.38,515.2969 L527.38,515.2969" fill="#FFFFE0" style="stroke:#B0B060;stroke-width:0.5;"/><path d="M829.38,515.2969 L829.38,525.2969 L839.38,525.2969 L829.38,515.2969" fill="#FFFFE0" style="stroke:#B0B060;stroke-width:0.5;"/><text fill="#000000" font-family="Arial" font-size="13" font-weight="bold" lengthAdjust="spacing" textLength="104.8633" x="533.38" y="532.3638">Administrador</text><text fill="#000000" font-family="Arial" font-size="13" lengthAdjust="spacing" textLength="182.9204" x="642.3756" y="532.3638">solicita cancelar vinculaci&#243;n</text></g><g id="FinTarea"><rect fill="#FFFFFF" height="50" rx="12.5" ry="12.5" style="stroke:#000000;stroke-width:0.5;" width="134.7344" x="385" y="690"/><line style="stroke:#000000;stroke-width:0.5;" x1="385" x2="519.7344" y1="716.2969" y2="716.2969"/><text fill="#000000" font-family="sans-serif" font-size="14" lengthAdjust="spacing" textLength="114.7344" x="395" y="707.9951">TAREA_ABIERTO</text></g><!--link Inicio to RelacionarTareasContainer--><g class="link" data-entity-1="Inicio" data-entity-2="RelacionarTareasContainer" data-source-line="59" data-uid="lnk10" id="link_Inicio_RelacionarTareasContainer"><path d="M452.5,57.24 C452.5,72.4 452.5,87.62 452.5,111.83" fill="none" id="Inicio-to-RelacionarTareasContainer" style="stroke:#009900;stroke-width:1;"/><polygon fill="#009900" points="452.5,117.83,456.5,108.83,452.5,112.83,448.5,108.83,452.5,117.83" style="stroke:#009900;stroke-width:1;"/></g><!--link RelacionarTareasContainer to FinTarea--><g class="link" data-entity-1="RelacionarTareasContainer" data-entity-2="FinTarea" data-source-line="61" data-uid="lnk11" id="link_RelacionarTareasContainer_FinTarea"><path d="M377.64,595.18 C378.82,617.51 383.35,639.46 392.5,660 C397.63,671.52 402.0498,677.6744 411.4898,685.9144" fill="none" id="RelacionarTareasContainer-to-FinTarea" style="stroke:#008000;stroke-width:1;"/><polygon fill="#008000" points="416.01,689.86,411.8601,680.9281,412.2432,686.572,406.5993,686.9551,416.01,689.86" style="stroke:#008000;stroke-width:1;"/><text fill="#000000" font-family="sans-serif" font-size="13" lengthAdjust="spacing" textLength="73.9438" x="393.5" y="647.0669">"               "</text></g><!--link RelacionarTareasContainer to FinTarea--><g class="link" data-entity-1="RelacionarTareasContainer" data-entity-2="FinTarea" data-source-line="63" data-uid="lnk12" id="link_RelacionarTareasContainer_FinTarea"><path d="M470.26,595.19 C470.74,605.26 471.15,615.23 471.5,625 C472.05,640.55 474.12,644.67 471.5,660 C469.79,669.99 468.5381,674.9725 465.1081,684.1125" fill="none" id="RelacionarTareasContainer-to-FinTarea-1" style="stroke:#FF0000;stroke-width:1;"/><polygon fill="#FF0000" points="463,689.73,469.9071,682.7092,464.7567,685.0488,462.4172,679.8984,463,689.73" style="stroke:#FF0000;stroke-width:1;"/><path d="M477.5,630 L477.5,655 L631.5,655 L631.5,640 L621.5,630 L477.5,630" fill="#FFFFE0" style="stroke:#B0B060;stroke-width:0.5;"/><path d="M621.5,630 L621.5,640 L631.5,640 L621.5,630" fill="#FFFFE0" style="stroke:#B0B060;stroke-width:0.5;"/><text fill="#000000" font-family="Arial" font-size="13" lengthAdjust="spacing" textLength="133.0151" x="483.5" y="647.0669">cancelar vinculaci&#243;n</text></g><!--SRC=[hLJ1Qjj04BthAmRxaXXCT2eaXuASs91B2ewXXn3AUdSIBv5spEogePH-Ka_zXFnOnxkMh3XMJ4htOApPcVVUl976FrctLgmggCYHNZ5L20-gz9ZvziglbA7dRJZG6WB1aaAW2enbrC6IoxhvGGM4dnd8cIZzzCXKEtD99J5yNTc0wORO8AVef9Iq62sOwJa5Xtb-VfxdCNmR58Vzt6a3caA_kXeSzKeOpkHCypSYXfDyadzAyHcvSAF4YuAjAYDqR6gmAERJubinkPxE5ry6e3nSEwijjGcC8aOCKRnGZCgVdCQi-LxuKWYKTSXRaV5d2m6nOYfFXcR4LLqg5eQUZ2lKrcycqCBSZUvXFFvy624QGmvAwvABcpCQ5QQoplh0Ki6Z4NWgfQsWmBh0P6fj6L9hBtyI5JeJmR8qYpskZe1N0dleRuKQAoN4QqQFuWqiQwytOi0WXEWPVBTE2_ooH7-u5hcIrwiLpnUxj6uZrWY3VR09do2y_0vrIHkcKYKoK0qRTp0ybgZJ627OTQneNO4JqMvGeoTMPxvEVquxvIX-Y7YD-rwcQwsSbZ0tpEzxtTWAuxlX8oEw-thzluQkLRMq8gHrOzUuKHzG96l3YIPv8JyaeoNRil_OAUkry9WW6Ss_ojcvSdG-xosAcNNnsy-oj3BY9zAx5xAiVsMq_Wf0WmeNiXHUdy4HZ8ubhROtdXnkkcduBm00]--></g></svg>