<svg xmlns="http://www.w3.org/2000/svg" xmlns:xlink="http://www.w3.org/1999/xlink" contentStyleType="text/css" data-diagram-type="STATE" height="540px" preserveAspectRatio="none" style="width:379px;height:540px;background:#FFFFFF;" version="1.1" viewBox="0 0 379 540" width="379px" zoomAndPan="magnify"><defs/><g><g id="TAREA_ABIERTO"><rect fill="#FFFFFF" height="50" rx="12.5" ry="12.5" style="stroke:#000000;stroke-width:0.5;" width="134.7344" x="119" y="7"/><line style="stroke:#000000;stroke-width:0.5;" x1="119" x2="253.7344" y1="33.2969" y2="33.2969"/><text fill="#000000" font-family="sans-serif" font-size="14" lengthAdjust="spacing" textLength="114.7344" x="129" y="24.9951">TAREA_ABIERTO</text></g><path d="M19.5,117 L353.5,117 A12.5,12.5 0 0 1 366,129.5 L366,143.2969 L7,143.2969 L7,129.5 A12.5,12.5 0 0 1 19.5,117" fill="#FFFFFF"/><rect fill="none" height="417.2969" rx="12.5" ry="12.5" style="stroke:#000000;stroke-width:0.5;" width="359" x="7" y="117"/><line style="stroke:#000000;stroke-width:0.5;" x1="7" x2="366" y1="143.2969" y2="143.2969"/><text fill="#000000" font-family="sans-serif" font-size="14" lengthAdjust="spacing" textLength="128.4951" x="122.2524" y="134.9951">relacionarTareas()</text><ellipse cx="44" cy="164.2969" fill="#222222" rx="10" ry="10" style="stroke:#222222;stroke-width:1;"/><g id="relacionarTareas.Seleccion"><rect fill="#FFFFFF" height="50" rx="12.5" ry="12.5" style="stroke:#000000;stroke-width:0.5;" width="50" x="19" y="245.2969"/><line style="stroke:#000000;stroke-width:0.5;" x1="19" x2="69" y1="271.5938" y2="271.5938"/><text fill="#000000" font-family="sans-serif" font-size="14" lengthAdjust="spacing" textLength="4.4502" x="41.7749" y="263.292">&#160;</text></g><g id="relacionarTareas.Vinculacion"><rect fill="#FFFFFF" height="50" rx="12.5" ry="12.5" style="stroke:#000000;stroke-width:0.5;" width="50" x="19" y="366.2969"/><line style="stroke:#000000;stroke-width:0.5;" x1="19" x2="69" y1="392.5938" y2="392.5938"/><text fill="#000000" font-family="sans-serif" font-size="14" lengthAdjust="spacing" textLength="4.4502" x="41.7749" y="384.292">&#160;</text></g><ellipse cx="44" cy="513.2969" fill="none" rx="11" ry="11" style="stroke:#222222;stroke-width:1;"/><ellipse cx="44" cy="513.2969" fill="#222222" rx="6" ry="6" style="stroke:#222222;stroke-width:1;"/><!--link Inicio to Seleccion--><g class="link" data-entity-1="Inicio" data-entity-2="Seleccion" data-source-line="19" data-uid="lnk2" id="link_Inicio_Seleccion"><path d="M44,174.5269 C44,190.2369 44,216.6569 44,239.1669" fill="none" id="Inicio-to-Seleccion" style="stroke:#008000;stroke-width:1;"/><polygon fill="#008000" points="44,245.1669,48,236.1669,44,240.1669,40,236.1669,44,245.1669" style="stroke:#008000;stroke-width:1;"/><path d="M49,197.2969 L49,222.2969 L299,222.2969 L299,207.2969 L289,197.2969 L49,197.2969" fill="#FEFECE" style="stroke:#D7B75F;stroke-width:0.5;"/><path d="M289,197.2969 L289,207.2969 L299,207.2969 L289,197.2969" fill="#FEFECE" style="stroke:#D7B75F;stroke-width:0.5;"/><text fill="#000000" font-family="sans-serif" font-size="13" font-weight="bold" lengthAdjust="spacing" textLength="56.1196" x="55" y="214.3638">Usuario</text><text fill="#000000" font-family="sans-serif" font-size="13" lengthAdjust="spacing" textLength="168.7524" x="115.252" y="214.3638">solicita introducir relaci&#243;n</text></g><!--link Seleccion to Vinculacion--><g class="link" data-entity-1="Seleccion" data-entity-2="Vinculacion" data-source-line="24" data-uid="lnk3" id="link_Seleccion_Vinculacion"><path d="M44,295.3769 C44,316.0269 44,339.6169 44,360.2469" fill="none" id="Seleccion-to-Vinculacion" style="stroke:#008000;stroke-width:1;"/><polygon fill="#008000" points="44,366.2469,48,357.2469,44,361.2469,40,357.2469,44,366.2469" style="stroke:#008000;stroke-width:1;"/><path d="M49,318.2969 L49,343.2969 L357,343.2969 L357,328.2969 L347,318.2969 L49,318.2969" fill="#FEFECE" style="stroke:#D7B75F;stroke-width:0.5;"/><path d="M347,318.2969 L347,328.2969 L357,328.2969 L347,318.2969" fill="#FEFECE" style="stroke:#D7B75F;stroke-width:0.5;"/><text fill="#000000" font-family="sans-serif" font-size="13" font-weight="bold" lengthAdjust="spacing" textLength="58.9063" x="55" y="335.3638">Sistema</text><text fill="#000000" font-family="sans-serif" font-size="13" lengthAdjust="spacing" textLength="224.5293" x="118.0386" y="335.3638">permite introducir tarea a vincular</text></g><!--link Vinculacion to Fin--><g class="link" data-entity-1="Vinculacion" data-entity-2="Fin" data-source-line="29" data-uid="lnk4" id="link_Vinculacion_Fin"><path d="M44,416.5769 C44,442.8769 44,477.5669 44,496.2769" fill="none" id="Vinculacion-to-Fin" style="stroke:#008000;stroke-width:1;"/><polygon fill="#008000" points="44,502.2769,48,493.2769,44,497.2769,40,493.2769,44,502.2769" style="stroke:#008000;stroke-width:1;"/><path d="M49,439.2969 L49,479.2969 L321,479.2969 L321,449.2969 L311,439.2969 L49,439.2969" fill="#FEFECE" style="stroke:#D7B75F;stroke-width:0.5;"/><path d="M311,439.2969 L311,449.2969 L321,449.2969 L311,439.2969" fill="#FEFECE" style="stroke:#D7B75F;stroke-width:0.5;"/><text fill="#000000" font-family="sans-serif" font-size="13" font-weight="bold" lengthAdjust="spacing" textLength="56.1196" x="55" y="456.3638">Usuario</text><text fill="#000000" font-family="sans-serif" font-size="13" lengthAdjust="spacing" textLength="126.4961" x="115.252" y="456.3638">introduce selecci&#243;n</text><text fill="#000000" font-family="sans-serif" font-size="13" font-weight="bold" lengthAdjust="spacing" textLength="58.9063" x="55" y="471.4966">Sistema</text><text fill="#000000" font-family="sans-serif" font-size="13" lengthAdjust="spacing" textLength="188.8936" x="118.0386" y="471.4966">muestra relaci&#243;n establecida</text></g><!--link TAREA_ABIERTO to relacionarTareas--><g class="link" data-entity-1="TAREA_ABIERTO" data-entity-2="relacionarTareas" data-source-line="36" data-uid="lnk5" id="link_TAREA_ABIERTO_relacionarTareas"><path d="M179.05,57.35 C177.11,72.4 175.934,87.3242 175.054,110.8842" fill="none" id="TAREA_ABIERTO-to-relacionarTareas" style="stroke:#008000;stroke-width:1;"/><polygon fill="#008000" points="174.83,116.88,179.1631,108.0356,175.0166,111.8835,171.1687,107.737,174.83,116.88" style="stroke:#008000;stroke-width:1;"/></g><!--link relacionarTareas to TAREA_ABIERTO--><g class="link" data-entity-1="relacionarTareas" data-entity-2="TAREA_ABIERTO" data-source-line="37" data-uid="lnk6" id="link_relacionarTareas_TAREA_ABIERTO"><path d="M198.86,116.88 C197.93,93.32 197.2498,78.3451 195.1998,63.2951" fill="none" id="relacionarTareas-to-TAREA_ABIERTO" style="stroke:#008000;stroke-width:1;"/><polygon fill="#008000" points="194.39,57.35,191.6413,66.8075,195.0648,62.3043,199.5681,65.7278,194.39,57.35" style="stroke:#008000;stroke-width:1;"/></g><!--SRC=[ZPBFJiCm3CRlVGfhky1XeXSq3bMbThJIJaZRW2FosWYYjSdaf710F1MFm8lX9jsVjamYXqfnxE_tsRNPIRL7mXgCHIlWCm0-AHQxLzADAXUwqWJFRz8A_wAf5EIZQSLfBfeGwGyVd8RXNHY6mLTWZj9ANrIUvbcUBRAHzlH-divlSvO9lB5DiigIboHTPglDmo4u8S4Uf5P86oI1vkfw0cXW6ExWNH6udAMId09Hn56oSJpEM8jA5AtC-Eb9ggBnZF5ZBXNB2bLsekxJuMQpUA3hXgCLL5BvOROdsiQFfa6IEhhPnc1qnTKMGIfBkcmAILsFFzzUXMbEwGGyKXnpQFWITIsD5JKwwbvGpV_z76hRSGB2kvUZFjlTpaYEpDFuTvy7aW3ZtH_Q-yDTtGXZ2Kzp0BxZbijaYNrVl4IzzN6-XZiIZ9QcpUhL_G80]--></g></svg>