<svg xmlns="http://www.w3.org/2000/svg" xmlns:xlink="http://www.w3.org/1999/xlink" contentStyleType="text/css" data-diagram-type="STATE" height="635px" preserveAspectRatio="none" style="width:457px;height:635px;background:#FFFFFF;" version="1.1" viewBox="0 0 457 635" width="457px" zoomAndPan="magnify"><defs/><g><g id="AUTOMATIZACION_ACTIVA"><rect fill="#F1F1F1" height="50" rx="12.5" ry="12.5" style="stroke:#181818;stroke-width:0.5;" width="206.4844" x="122.26" y="7"/><line style="stroke:#181818;stroke-width:0.5;" x1="122.26" x2="328.7444" y1="33.2969" y2="33.2969"/><text fill="#000000" font-family="sans-serif" font-size="14" lengthAdjust="spacing" textLength="186.4844" x="132.26" y="24.9951">AUTOMATIZACION_ACTIVA</text></g><g id="SISTEMA_DISPONIBLE"><rect fill="#F1F1F1" height="50" rx="12.5" ry="12.5" style="stroke:#181818;stroke-width:0.5;" width="172.0654" x="139.47" y="579.3"/><line style="stroke:#181818;stroke-width:0.5;" x1="139.47" x2="311.5354" y1="605.5969" y2="605.5969"/><text fill="#000000" font-family="sans-serif" font-size="14" lengthAdjust="spacing" textLength="152.0654" x="149.47" y="597.2951">SISTEMA_DISPONIBLE</text></g><path d="M19.5,134 L431.5,134 A12.5,12.5 0 0 1 444,146.5 L444,160.2969 L7,160.2969 L7,146.5 A12.5,12.5 0 0 1 19.5,134" fill="#F1F1F1"/><rect fill="none" height="368.2969" rx="12.5" ry="12.5" style="stroke:#181818;stroke-width:0.5;" width="437" x="7" y="134"/><line style="stroke:#181818;stroke-width:0.5;" x1="7" x2="444" y1="160.2969" y2="160.2969"/><text fill="#000000" font-family="sans-serif" font-size="14" lengthAdjust="spacing" textLength="100.9395" x="175.0303" y="151.9951">volverAInicio()</text><g id="UC.N1"><rect fill="#F1F1F1" height="50" rx="12.5" ry="12.5" style="stroke:#181818;stroke-width:0.5;" width="50" x="19" y="228.2969"/><line style="stroke:#181818;stroke-width:0.5;" x1="19" x2="69" y1="254.5937" y2="254.5937"/><text fill="#000000" font-family="sans-serif" font-size="14" lengthAdjust="spacing" textLength="4.4502" x="41.7749" y="246.292">&#160;</text></g><g id="UC.N2"><rect fill="#F1F1F1" height="50" rx="12.5" ry="12.5" style="stroke:#181818;stroke-width:0.5;" width="50" x="19" y="349.2969"/><line style="stroke:#181818;stroke-width:0.5;" x1="19" x2="69" y1="375.5937" y2="375.5937"/><text fill="#000000" font-family="sans-serif" font-size="14" lengthAdjust="spacing" textLength="4.4502" x="41.7749" y="367.292">&#160;</text></g><ellipse cx="44" cy="181.2969" fill="#222222" rx="10" ry="10" style="stroke:#222222;stroke-width:1;"/><ellipse cx="44" cy="481.2969" fill="none" rx="11" ry="11" style="stroke:#222222;stroke-width:1;"/><ellipse cx="44" cy="481.2969" fill="#222222" rx="6" ry="6" style="stroke:#222222;stroke-width:1;"/><!--link *start*UC to N1--><g class="link" data-entity-1=".start.UC" data-entity-2="N1" data-link-type="dependency" data-source-line="10" data-uid="lnk3" id="link_.start.UC_N1"><path d="M44,191.7369 C44,200.9969 44,209.4869 44,221.9769" fill="none" id="*start*UC-to-N1" style="stroke:#008000;stroke-width:1;"/><polygon fill="#008000" points="44,227.9769,48,218.9769,44,222.9769,40,218.9769,44,227.9769" style="stroke:#008000;stroke-width:1;"/></g><!--link N1 to N2--><g class="link" data-entity-1="N1" data-entity-2="N2" data-link-type="dependency" data-source-line="15" data-uid="lnk4" id="link_N1_N2"><path d="M44,278.6669 C44,299.1969 44,322.4369 44,342.9569" fill="none" id="N1-to-N2" style="stroke:#008000;stroke-width:1;"/><polygon fill="#008000" points="44,348.9569,48,339.9569,44,343.9569,40,339.9569,44,348.9569" style="stroke:#008000;stroke-width:1;"/><path d="M49,301.2969 L49,326.2969 L435,326.2969 L435,311.2969 L425,301.2969 L49,301.2969" fill="#FEFFDD" style="stroke:#181818;stroke-width:0.5;"/><path d="M425,301.2969 L425,311.2969 L435,311.2969 L425,301.2969" fill="#FEFFDD" style="stroke:#181818;stroke-width:0.5;"/><text fill="#000000" font-family="sans-serif" font-size="13" lengthAdjust="spacing" textLength="365.1553" x="55" y="318.3638">Usuario solicita parar la automatizacion y volver a inicio</text></g><!--link N2 to *end*UC--><g class="link" data-entity-1="N2" data-entity-2=".end.UC" data-link-type="dependency" data-source-line="20" data-uid="lnk6" id="link_N2_.end.UC"><path d="M44,399.6469 C44,421.9469 44,447.8569 44,464.0369" fill="none" id="N2-to-*end*UC" style="stroke:#008000;stroke-width:1;"/><polygon fill="#008000" points="44,470.0369,48,461.0369,44,465.0369,40,461.0369,44,470.0369" style="stroke:#008000;stroke-width:1;"/><path d="M49,422.2969 L49,447.2969 L223,447.2969 L223,432.2969 L213,422.2969 L49,422.2969" fill="#FEFFDD" style="stroke:#181818;stroke-width:0.5;"/><path d="M213,422.2969 L213,432.2969 L223,432.2969 L213,422.2969" fill="#FEFFDD" style="stroke:#181818;stroke-width:0.5;"/><text fill="#000000" font-family="sans-serif" font-size="13" lengthAdjust="spacing" textLength="148.8843" x="55" y="439.3638">Sistema muestra inicio</text></g><!--link AUTOMATIZACION_ACTIVA to UC--><g class="link" data-entity-1="AUTOMATIZACION_ACTIVA" data-entity-2="UC" data-link-type="dependency" data-source-line="26" data-uid="lnk7" id="link_AUTOMATIZACION_ACTIVA_UC"><path d="M225.5,57.23 C225.5,75.82 225.5,97.37 225.5,127.67" fill="none" id="AUTOMATIZACION_ACTIVA-to-UC" style="stroke:#008000;stroke-width:1;"/><polygon fill="#008000" points="225.5,133.67,229.5,124.67,225.5,128.67,221.5,124.67,225.5,133.67" style="stroke:#008000;stroke-width:1;"/><text fill="#000000" font-family="sans-serif" font-size="13" lengthAdjust="spacing" textLength="93.7295" x="226.5" y="100.0669">volverAInicio()</text></g><!--link UC to SISTEMA_DISPONIBLE--><g class="link" data-entity-1="UC" data-entity-2="SISTEMA_DISPONIBLE" data-link-type="dependency" data-source-line="27" data-uid="lnk8" id="link_UC_SISTEMA_DISPONIBLE"><path d="M225.5,502.72 C225.5,532.91 225.5,554.35 225.5,572.92" fill="none" id="UC-to-SISTEMA_DISPONIBLE" style="stroke:#008000;stroke-width:1;"/><polygon fill="#008000" points="225.5,578.92,229.5,569.92,225.5,573.92,221.5,569.92,225.5,578.92" style="stroke:#008000;stroke-width:1;"/><text fill="#000000" font-family="sans-serif" font-size="13" lengthAdjust="spacing" textLength="93.7295" x="226.5" y="545.3669">volverAInicio()</text></g><!--SRC=[RL1DImCn4BtdLpnwKg5WU_GWnBL8m6w5tVMWI4ctEOJkPaeoMx7YVpURMYdTtZ8pxokFQGich8YPMgojDpLRSY9ihDjghrlKZGv1CdkxwjYecbnXzmQt9n3fFNrcr937apV62H5Oiy58LkLYBalr9ZEro9SoAzMh7447NBmSQOKgojbSBXzLyRB8rSFpB766wt-Z7JKxuwLojhPqTPtWLOPl0G6yttnWFBv7FX5n-cCWOUBgV3FjGVdam9Z6jwDu9OV6kaqSgz1fRmc1ccZ66dq77es6xcA7ckrUnn0ENpYaWePDkIBPk7NIInxJv17J3KqA6zYq6crd0lkZ04uLVeIuM68IZN-_mraf8Yxxsx368VON]--></g></svg>