<svg xmlns="http://www.w3.org/2000/svg" xmlns:xlink="http://www.w3.org/1999/xlink" contentStyleType="text/css" data-diagram-type="STATE" height="894px" preserveAspectRatio="none" style="width:733px;height:894px;background:#FFFFFF;" version="1.1" viewBox="0 0 733 894" width="733px" zoomAndPan="magnify"><defs/><g><g id="Creada"><rect fill="#F1F1F1" height="50" rx="12.5" ry="12.5" style="stroke:#181818;stroke-width:0.5;" width="70.1895" x="383.19" y="87"/><line style="stroke:#181818;stroke-width:0.5;" x1="383.19" x2="453.3795" y1="113.2969" y2="113.2969"/><text fill="#000000" font-family="sans-serif" font-size="14" lengthAdjust="spacing" textLength="50.1895" x="393.19" y="104.9951">Creada</text></g><g id="Programada"><rect fill="#F1F1F1" height="50" rx="12.5" ry="12.5" style="stroke:#181818;stroke-width:0.5;" width="105.668" x="365.45" y="214"/><line style="stroke:#181818;stroke-width:0.5;" x1="365.45" x2="471.118" y1="240.2969" y2="240.2969"/><text fill="#000000" font-family="sans-serif" font-size="14" lengthAdjust="spacing" textLength="85.668" x="375.45" y="231.9951">Programada</text></g><g id="Recordada"><rect fill="#F1F1F1" height="50" rx="12.5" ry="12.5" style="stroke:#181818;stroke-width:0.5;" width="95.291" x="299.64" y="341"/><line style="stroke:#181818;stroke-width:0.5;" x1="299.64" x2="394.931" y1="367.2969" y2="367.2969"/><text fill="#000000" font-family="sans-serif" font-size="14" lengthAdjust="spacing" textLength="75.291" x="309.64" y="358.9951">Recordada</text></g><g id="EnEjecucion"><rect fill="#F1F1F1" height="50" rx="12.5" ry="12.5" style="stroke:#181818;stroke-width:0.5;" width="108.8809" x="129.84" y="468"/><line style="stroke:#181818;stroke-width:0.5;" x1="129.84" x2="238.7209" y1="494.2969" y2="494.2969"/><text fill="#000000" font-family="sans-serif" font-size="14" lengthAdjust="spacing" textLength="88.8809" x="139.84" y="485.9951">En ejecuci&#243;n</text></g><g id="Conflicto"><rect fill="#F1F1F1" height="50" rx="12.5" ry="12.5" style="stroke:#181818;stroke-width:0.5;" width="101.7646" x="307.4" y="595"/><line style="stroke:#181818;stroke-width:0.5;" x1="307.4" x2="409.1646" y1="621.2969" y2="621.2969"/><text fill="#000000" font-family="sans-serif" font-size="14" lengthAdjust="spacing" textLength="81.7646" x="317.4" y="612.9951">En conflicto</text></g><g id="Finalizada"><rect fill="#F1F1F1" height="50" rx="12.5" ry="12.5" style="stroke:#181818;stroke-width:0.5;" width="90.5674" x="7" y="675"/><line style="stroke:#181818;stroke-width:0.5;" x1="7" x2="97.5674" y1="701.2969" y2="701.2969"/><text fill="#000000" font-family="sans-serif" font-size="14" lengthAdjust="spacing" textLength="70.5674" x="17" y="692.9951">Finalizada</text></g><g id="Cancelada"><rect fill="#F1F1F1" height="50" rx="12.5" ry="12.5" style="stroke:#181818;stroke-width:0.5;" width="93.4727" x="128.55" y="755"/><line style="stroke:#181818;stroke-width:0.5;" x1="128.55" x2="222.0227" y1="781.2969" y2="781.2969"/><text fill="#000000" font-family="sans-serif" font-size="14" lengthAdjust="spacing" textLength="73.4727" x="138.55" y="772.9951">Cancelada</text></g><ellipse cx="418.28" cy="16" fill="#222222" rx="10" ry="10" style="stroke:#222222;stroke-width:1;"/><ellipse cx="87.28" cy="877" fill="none" rx="11" ry="11" style="stroke:#222222;stroke-width:1;"/><ellipse cx="87.28" cy="877" fill="#222222" rx="6" ry="6" style="stroke:#222222;stroke-width:1;"/><!--link *start* to Creada--><g class="link" data-entity-1=".start." data-entity-2="Creada" data-link-type="dependency" data-source-line="9" data-uid="lnk3" id="link_.start._Creada"><path d="M418.28,26.36 C418.28,40.29 418.28,60.95 418.28,80.65" fill="none" id="*start*-to-Creada" style="stroke:#181818;stroke-width:1;"/><polygon fill="#181818" points="418.28,86.65,422.28,77.65,418.28,81.65,414.28,77.65,418.28,86.65" style="stroke:#181818;stroke-width:1;"/></g><!--link Creada to Programada--><g class="link" data-entity-1="Creada" data-entity-2="Programada" data-link-type="dependency" data-source-line="10" data-uid="lnk4" id="link_Creada_Programada"><path d="M418.28,137.4 C418.28,159.42 418.28,185.66 418.28,207.66" fill="none" id="Creada-to-Programada" style="stroke:#181818;stroke-width:1;"/><polygon fill="#181818" points="418.28,213.66,422.28,204.66,418.28,208.66,414.28,204.66,418.28,213.66" style="stroke:#181818;stroke-width:1;"/><text fill="#000000" font-family="sans-serif" font-size="13" lengthAdjust="spacing" textLength="201.1953" x="419.28" y="180.0669">Asignar horarios/localizaci&#243;nes</text></g><!--link Programada to Recordada--><g class="link" data-entity-1="Programada" data-entity-2="Recordada" data-link-type="dependency" data-source-line="11" data-uid="lnk5" id="link_Programada_Recordada"><path d="M365.35,259.48 C350.37,267.73 335.83,278.99 327.28,294 C319.11,308.36 321.5682,320.9027 328.6882,335.1527" fill="none" id="Programada-to-Recordada" style="stroke:#181818;stroke-width:1;"/><polygon fill="#181818" points="331.37,340.52,330.9255,330.6812,329.1352,336.0472,323.7691,334.2569,331.37,340.52" style="stroke:#181818;stroke-width:1;"/><text fill="#000000" font-family="sans-serif" font-size="13" lengthAdjust="spacing" textLength="152.7754" x="328.28" y="307.0669">Programar recordatorio</text></g><!--link Recordada to EnEjecucion--><g class="link" data-entity-1="Recordada" data-entity-2="EnEjecucion" data-link-type="dependency" data-source-line="12" data-uid="lnk6" id="link_Recordada_EnEjecucion"><path d="M299.22,389.47 C282.66,398.23 264.48,409.05 249.28,421 C231.95,434.64 219.0371,448.4691 206.8871,463.1391" fill="none" id="Recordada-to-EnEjecucion" style="stroke:#181818;stroke-width:1;"/><polygon fill="#181818" points="203.06,467.76,211.8813,463.38,206.2493,463.9092,205.7201,458.2772,203.06,467.76" style="stroke:#181818;stroke-width:1;"/><text fill="#000000" font-family="sans-serif" font-size="13" lengthAdjust="spacing" textLength="78.2603" x="250.28" y="434.0669">Iniciar tarea</text></g><!--link Programada to EnEjecucion--><g class="link" data-entity-1="Programada" data-entity-2="EnEjecucion" data-link-type="dependency" data-source-line="13" data-uid="lnk7" id="link_Programada_EnEjecucion"><path d="M365.36,249.54 C314.83,261.62 240.85,287.66 202.28,341 C175.14,378.55 176.0642,429.6193 179.7642,461.7793" fill="none" id="Programada-to-EnEjecucion" style="stroke:#181818;stroke-width:1;"/><polygon fill="#181818" points="180.45,467.74,183.3951,458.3418,179.8785,462.7728,175.4476,459.2562,180.45,467.74" style="stroke:#181818;stroke-width:1;"/><text fill="#000000" font-family="sans-serif" font-size="13" lengthAdjust="spacing" textLength="78.2603" x="203.28" y="370.5669">Iniciar tarea</text></g><!--link EnEjecucion to Finalizada--><g class="link" data-entity-1="EnEjecucion" data-entity-2="Finalizada" data-link-type="dependency" data-source-line="14" data-uid="lnk8" id="link_EnEjecucion_Finalizada"><path d="M129.44,499.6 C98.03,505.93 61.05,519.4 41.28,548 C15.13,585.84 27.775,636.8876 39.725,668.9576" fill="none" id="EnEjecucion-to-Finalizada" style="stroke:#181818;stroke-width:1;"/><polygon fill="#181818" points="41.82,674.58,42.4257,664.7498,40.0742,669.8947,34.9292,667.5431,41.82,674.58" style="stroke:#181818;stroke-width:1;"/><text fill="#000000" font-family="sans-serif" font-size="13" lengthAdjust="spacing" textLength="106.4692" x="42.28" y="561.0669">Completar tarea</text></g><!--link EnEjecucion to Cancelada--><g class="link" data-entity-1="EnEjecucion" data-entity-2="Cancelada" data-link-type="dependency" data-source-line="15" data-uid="lnk9" id="link_EnEjecucion_Cancelada"><path d="M183.52,518.3 C181.82,572.14 177.9396,694.983 176.2396,748.763" fill="none" id="EnEjecucion-to-Cancelada" style="stroke:#181818;stroke-width:1;"/><polygon fill="#181818" points="176.05,754.76,180.3324,745.8909,176.208,749.7625,172.3363,745.6381,176.05,754.76" style="stroke:#181818;stroke-width:1;"/><text fill="#000000" font-family="sans-serif" font-size="13" lengthAdjust="spacing" textLength="95.856" x="182.28" y="624.5669">Cancelar tarea</text></g><!--link Programada to Conflicto--><g class="link" data-entity-1="Programada" data-entity-2="Conflicto" data-link-type="dependency" data-source-line="16" data-uid="lnk10" id="link_Programada_Conflicto"><path d="M460.35,264.48 C470.36,272.51 479.74,282.41 485.28,294 C491.19,306.35 525.46,386.92 461.28,518 C445.98,549.27 421.6484,572.6564 398.2984,590.8964" fill="none" id="Programada-to-Conflicto" style="stroke:#181818;stroke-width:1;"/><polygon fill="#181818" points="393.57,594.59,403.1249,592.2019,397.5103,591.512,398.2001,585.8974,393.57,594.59" style="stroke:#181818;stroke-width:1;"/><text fill="#000000" font-family="sans-serif" font-size="13" lengthAdjust="spacing" textLength="97.5571" x="496.28" y="434.0669">Surge conflicto</text></g><!--link Conflicto to Programada--><g class="link" data-entity-1="Conflicto" data-entity-2="Programada" data-link-type="dependency" data-source-line="20" data-uid="lnk14" id="link_Conflicto_Programada"><path d="M409.52,599.41 C469.62,573.17 565.71,520.16 602.28,438 C635.77,362.76 542.2111,300.3637 476.7011,266.8337" fill="none" id="Conflicto-to-Programada" style="stroke:#181818;stroke-width:1;"/><polygon fill="#181818" points="471.36,264.1,477.5491,271.7613,475.8109,266.3781,481.1941,264.6399,471.36,264.1" style="stroke:#181818;stroke-width:1;"/><text fill="#000000" font-family="sans-serif" font-size="13" lengthAdjust="spacing" textLength="115.8765" x="609.28" y="434.0669">Resolver conflicto</text></g><!--link Recordada to Conflicto--><g class="link" data-entity-1="Recordada" data-entity-2="Conflicto" data-link-type="dependency" data-source-line="17" data-uid="lnk11" id="link_Recordada_Conflicto"><path d="M348.34,391.16 C350.44,439.21 354.8481,540.2557 356.9581,588.5457" fill="none" id="Recordada-to-Conflicto" style="stroke:#181818;stroke-width:1;"/><polygon fill="#181818" points="357.22,594.54,360.8233,585.374,357.0017,589.5448,352.8309,585.7232,357.22,594.54" style="stroke:#181818;stroke-width:1;"/><text fill="#000000" font-family="sans-serif" font-size="13" lengthAdjust="spacing" textLength="97.5571" x="355.28" y="497.5669">Surge conflicto</text></g><!--link EnEjecucion to Conflicto--><g class="link" data-entity-1="EnEjecucion" data-entity-2="Conflicto" data-link-type="dependency" data-source-line="18" data-uid="lnk12" id="link_EnEjecucion_Conflicto"><path d="M195.39,518.39 C203.3,533.5 215.2,552.36 230.28,565 C252.47,583.59 276.3035,594.6765 301.3935,603.2665" fill="none" id="EnEjecucion-to-Conflicto" style="stroke:#181818;stroke-width:1;"/><polygon fill="#181818" points="307.07,605.21,299.8508,598.5105,302.3396,603.5905,297.2596,606.0792,307.07,605.21" style="stroke:#181818;stroke-width:1;"/><text fill="#000000" font-family="sans-serif" font-size="13" lengthAdjust="spacing" textLength="97.5571" x="231.28" y="561.0669">Surge conflicto</text></g><!--link Conflicto to Cancelada--><g class="link" data-entity-1="Conflicto" data-entity-2="Cancelada" data-link-type="dependency" data-source-line="19" data-uid="lnk13" id="link_Conflicto_Cancelada"><path d="M330.09,645.34 C295.7,675.03 242.4515,721.009 208.0515,750.709" fill="none" id="Conflicto-to-Cancelada" style="stroke:#181818;stroke-width:1;"/><polygon fill="#181818" points="203.51,754.63,212.9363,751.7761,207.2946,751.3625,207.7083,745.7208,203.51,754.63" style="stroke:#181818;stroke-width:1;"/><text fill="#000000" font-family="sans-serif" font-size="13" lengthAdjust="spacing" textLength="95.856" x="295.28" y="704.5669">Cancelar tarea</text></g><!--link Finalizada to *end*--><g class="link" data-entity-1="Finalizada" data-entity-2=".end." data-link-type="dependency" data-source-line="21" data-uid="lnk16" id="link_Finalizada_.end."><path d="M57.15,725.33 C64.93,764.21 78.6533,832.8465 84.0733,859.9465" fill="none" id="Finalizada-to-*end*" style="stroke:#181818;stroke-width:1;"/><polygon fill="#181818" points="85.25,865.83,87.4073,856.2203,84.2694,860.9271,79.5626,857.7892,85.25,865.83" style="stroke:#181818;stroke-width:1;"/></g><!--link Cancelada to *end*--><g class="link" data-entity-1="Cancelada" data-entity-2=".end." data-link-type="dependency" data-source-line="22" data-uid="lnk17" id="link_Cancelada_.end."><path d="M152.62,805.46 C133.27,826.36 110.7273,850.6882 98.2873,864.1182" fill="none" id="Cancelada-to-*end*" style="stroke:#181818;stroke-width:1;"/><polygon fill="#181818" points="94.21,868.52,103.2605,864.6355,97.6077,864.8519,97.3914,859.1991,94.21,868.52" style="stroke:#181818;stroke-width:1;"/></g><!--SRC=[XPAzJWCn3CVtF4NK4QbYPq12fqDYGsL47QpK745fN3afGr-BH-35I2uuIOjwJ1Vx__FtXGWHzMfWX1siD0HTdYeKuPbfOjYBs4m1DcY8Tw9NI-JHQ_n0SpJs-ylFoEZ7uY3VGORycxCcKkb1B24UhGTdJrAccG8Cu0swEeDOIhtURFLwVIzZbS_iQRFeE_qGxEI1zJiniALmwyZC9UR6CQYEpi5rq1Gh4ciktaWfXMf83kZ6JY5FtXgR0YAaVYvpBw6zbjcsYOGEj3yuZ5VXkfRCblUL5ke14lbov0dRWIxcMYB_r5zWc_PFf-VWsH4t6CXz8dTfk_raFFqDgkN-zVm0]--></g></svg>