<svg xmlns="http://www.w3.org/2000/svg" xmlns:xlink="http://www.w3.org/1999/xlink" contentStyleType="text/css" data-diagram-type="SALT" height="409px" preserveAspectRatio="none" style="width:477px;height:409px;background:#FFFFFF;" version="1.1" viewBox="0 0 477 409" width="477px" zoomAndPan="magnify"><defs/><g><rect fill="#EEEEEE" height="16.9688" style="stroke:#000000;stroke-width:1;" width="183" x="6" y="6"/><text fill="#000000" font-family="monospace" font-size="12" lengthAdjust="spacing" textLength="122.8184" x="8" y="19.1387">Gesti&#243;n&#160;de&#160;Tareas</text><line style="stroke:#000000;stroke-width:1;" x1="178" x2="178" y1="6" y2="22.9688"/><polygon fill="#000000" points="181,12,187,12,184,17.9688" style="stroke:#000000;stroke-width:1;"/><text fill="#000000" font-family="sans-serif" font-size="12" lengthAdjust="spacing" textLength="184.248" x="7" y="54.0762">o "Buscar tarea por nombre..."</text><rect fill="#EEEEEE" height="17.9688" rx="5" ry="5" style="stroke:#000000;stroke-width:2.5;" width="52" x="195.748" y="45.4375"/><text fill="#000000" font-family="sans-serif" font-size="12" lengthAdjust="spacing" textLength="40.9746" x="201.2607" y="58.5762">Buscar</text><line style="stroke:#000000;stroke-width:1;" x1="6" x2="192.248" y1="41.9375" y2="41.9375"/><line style="stroke:#000000;stroke-width:1;" x1="192.248" x2="251.248" y1="66.9063" y2="66.9063"/><line style="stroke:#000000;stroke-width:1;" x1="192.248" x2="251.248" y1="41.9375" y2="41.9375"/><line style="stroke:#000000;stroke-width:1;" x1="6" x2="192.248" y1="66.9063" y2="66.9063"/><line style="stroke:#000000;stroke-width:1;" x1="6" x2="6" y1="41.9375" y2="66.9063"/><line style="stroke:#000000;stroke-width:1;" x1="251.248" x2="251.248" y1="41.9375" y2="66.9063"/><rect fill="none" height="24.9688" style="stroke:#000000;stroke-width:1;" width="15" x="255.248" y="41.9375"/><line style="stroke:#000000;stroke-width:1;" x1="255.248" x2="270.248" y1="53.9375" y2="53.9375"/><line style="stroke:#000000;stroke-width:1;" x1="255.248" x2="270.248" y1="54.9063" y2="54.9063"/><path d="M262.248,45.9375 L265.248,50.9375 L259.248,50.9375 L262.248,45.9375" fill="#000000"/><path d="M262.248,63.9063 L265.248,58.9063 L259.248,58.9063 L262.248,63.9063" fill="#000000"/><text fill="#000000" font-family="sans-serif" font-size="12" lengthAdjust="spacing" textLength="34.3535" x="10" y="110.9824">Tarea</text><line style="stroke:#000000;stroke-width:1;" x1="8" x2="67" y1="113.8125" y2="113.8125"/><line style="stroke:#000000;stroke-width:1;" x1="8" x2="8" y1="110.8125" y2="112.8125"/><line style="stroke:#000000;stroke-width:1;" x1="67" x2="67" y1="110.8125" y2="112.8125"/><text fill="#000000" font-family="sans-serif" font-size="12" lengthAdjust="spacing" textLength="53.7012" x="74" y="110.9824">Prioridad</text><line style="stroke:#000000;stroke-width:1;" x1="72" x2="163" y1="113.8125" y2="113.8125"/><line style="stroke:#000000;stroke-width:1;" x1="72" x2="72" y1="110.8125" y2="112.8125"/><line style="stroke:#000000;stroke-width:1;" x1="163" x2="163" y1="110.8125" y2="112.8125"/><text fill="#000000" font-family="sans-serif" font-size="12" lengthAdjust="spacing" textLength="40.8516" x="203.6055" y="110.9824">Estado</text><line style="stroke:#000000;stroke-width:1;" x1="201.6055" x2="268.6055" y1="113.8125" y2="113.8125"/><line style="stroke:#000000;stroke-width:1;" x1="201.6055" x2="201.6055" y1="110.8125" y2="112.8125"/><line style="stroke:#000000;stroke-width:1;" x1="268.6055" x2="268.6055" y1="110.8125" y2="112.8125"/><text fill="#000000" font-family="sans-serif" font-size="12" lengthAdjust="spacing" textLength="53.3203" x="275.6055" y="110.9824">Acciones</text><line style="stroke:#000000;stroke-width:1;" x1="273.6055" x2="356.6055" y1="113.8125" y2="113.8125"/><line style="stroke:#000000;stroke-width:1;" x1="273.6055" x2="273.6055" y1="110.8125" y2="112.8125"/><line style="stroke:#000000;stroke-width:1;" x1="356.6055" x2="356.6055" y1="110.8125" y2="112.8125"/><text fill="#000000" font-family="sans-serif" font-size="12" lengthAdjust="spacing" textLength="50.0508" x="7" y="128.9512">TSK-101</text><text fill="#000000" font-family="sans-serif" font-size="12" lengthAdjust="spacing" textLength="127.6055" x="71" y="128.9512">Redactar Documento</text><text fill="#000000" font-family="sans-serif" font-size="12" lengthAdjust="spacing" textLength="23.6016" x="200.6055" y="128.9512">Alta</text><text fill="#000000" font-family="sans-serif" font-size="12" lengthAdjust="spacing" textLength="60.252" x="272.6055" y="128.9512">Pendiente</text><rect fill="#EEEEEE" height="12" rx="5" ry="5" style="stroke:#000000;stroke-width:2.5;" width="20" x="364.1055" y="121.3125"/><path d="M376.1055,123.3125 L375.1055,124.3125 L377.1055,126.3125 L378.1055,125.3125 L376.1055,123.3125 M374.1055,125.3125 L370.1055,129.3125 L370.1055,131.3125 L372.1055,131.3125 L376.1055,127.3125 L374.1055,125.3125" fill="#000000"/><rect fill="#EEEEEE" height="12" rx="5" ry="5" style="stroke:#000000;stroke-width:2.5;" width="20" x="391.1055" y="121.3125"/><path d="M400.1055,123.3125 C399.5555,123.3125 399.1055,123.7625 399.1055,124.3125 L398.1055,124.3125 C397.5555,124.3125 397.1055,124.7625 397.1055,125.3125 L404.1055,125.3125 C404.1055,124.7625 403.6555,124.3125 403.1055,124.3125 L402.1055,124.3125 C402.1055,123.7625 401.6555,123.3125 401.1055,123.3125 L400.1055,123.3125 M398.1055,126.3125 L398.1055,131.1225 C398.1055,131.2325 398.1855,131.3125 398.2955,131.3125 L402.9255,131.3125 C403.0355,131.3125 403.1155,131.2325 403.1155,131.1225 L403.1155,126.3125 L402.1155,126.3125 L402.1155,129.8125 C402.1155,130.0925 401.8955,130.3125 401.6155,130.3125 C401.3355,130.3125 401.1155,130.0925 401.1155,129.8125 L401.1155,126.3125 L400.1155,126.3125 L400.1155,129.8125 C400.1155,130.0925 399.8955,130.3125 399.6155,130.3125 C399.3355,130.3125 399.1155,130.0925 399.1155,129.8125 L399.1155,126.3125 L398.1155,126.3125" fill="#000000"/><rect fill="#EEEEEE" height="12" rx="5" ry="5" style="stroke:#000000;stroke-width:2.5;" width="20" x="418.1055" y="121.3125"/><path d="M429.9855,123.3425 C429.8055,123.3525 429.6255,123.3725 429.4555,123.4325 C429.1855,123.5325 428.9255,123.6825 428.7055,123.9025 A0.5,0.5 0 1 0 429.3955,124.5925 C429.5055,124.4825 429.6355,124.4225 429.7755,124.3725 C430.1255,124.2525 430.5555,124.3025 430.8355,124.5925 C431.2255,124.9825 431.2255,125.6325 430.8355,126.0325 L429.3355,127.5325 C428.8955,127.9725 428.5355,128.0125 428.2755,128.0025 C428.0155,127.9925 427.8655,127.8725 427.8655,127.8725 A0.5,0.5 0 1 0 427.3655,128.7525 C427.7055,128.9725 427.7055,128.9725 428.2055,129.0025 C428.7055,129.0325 429.4055,128.8425 430.0155,128.2225 L431.5155,126.7225 C432.2955,125.9425 432.2955,124.6825 431.5155,123.9125 C431.2355,123.6325 430.9055,123.4625 430.5455,123.3825 C430.3655,123.3425 430.1655,123.3425 429.9855,123.3525 M427.9855,125.6525 C427.4855,125.6325 426.7955,125.8025 426.2055,126.4025 L424.7055,127.9025 C423.9255,128.6825 423.9255,129.9425 424.7055,130.7125 C425.2655,131.2725 426.0655,131.4325 426.7655,131.1825 C427.0355,131.0825 427.2955,130.9325 427.5155,130.7125 A0.5,0.5 0 1 0 426.8255,130.0225 C426.7155,130.1325 426.5855,130.1925 426.4455,130.2425 C426.0955,130.3625 425.6655,130.3125 425.3855,130.0225 C424.9955,129.6325 424.9955,128.9825 425.3855,128.5825 L426.8855,127.0825 C427.2855,126.6825 427.6355,126.6325 427.9155,126.6425 C428.1955,126.6525 428.3855,126.7325 428.3855,126.7325 A0.5,0.5 0 1 0 428.8255,125.8525 C428.4855,125.6525 428.4855,125.6525 427.9855,125.6325" fill="#000000"/><rect fill="#EEEEEE" height="12" rx="5" ry="5" style="stroke:#000000;stroke-width:2.5;" width="20" x="445.1055" y="121.3125"/><path d="M457.5155,124.3125 L456.8255,125.0325 L454.0455,127.8125 L453.2355,127.0325 L452.5155,126.3125 L451.1055,127.7225 L451.8255,128.4425 L453.3255,129.9425 L454.0155,130.6625 L454.7355,129.9425 L458.2355,126.4425 L458.9555,125.7225 L457.5155,124.3125" fill="#000000"/><text fill="#000000" font-family="sans-serif" font-size="12" lengthAdjust="spacing" textLength="50.0508" x="7" y="149.9512">TSK-102</text><text fill="#000000" font-family="sans-serif" font-size="12" lengthAdjust="spacing" textLength="102.6328" x="71" y="149.9512">Dise&#241;ar Mockups</text><text fill="#000000" font-family="sans-serif" font-size="12" lengthAdjust="spacing" textLength="36.041" x="200.6055" y="149.9512">Media</text><text fill="#000000" font-family="sans-serif" font-size="12" lengthAdjust="spacing" textLength="72.041" x="272.6055" y="149.9512">En Progreso</text><rect fill="#EEEEEE" height="12" rx="5" ry="5" style="stroke:#000000;stroke-width:2.5;" width="20" x="364.1055" y="142.3125"/><path d="M376.1055,144.3125 L375.1055,145.3125 L377.1055,147.3125 L378.1055,146.3125 L376.1055,144.3125 M374.1055,146.3125 L370.1055,150.3125 L370.1055,152.3125 L372.1055,152.3125 L376.1055,148.3125 L374.1055,146.3125" fill="#000000"/><rect fill="#EEEEEE" height="12" rx="5" ry="5" style="stroke:#000000;stroke-width:2.5;" width="20" x="391.1055" y="142.3125"/><path d="M400.1055,144.3125 C399.5555,144.3125 399.1055,144.7625 399.1055,145.3125 L398.1055,145.3125 C397.5555,145.3125 397.1055,145.7625 397.1055,146.3125 L404.1055,146.3125 C404.1055,145.7625 403.6555,145.3125 403.1055,145.3125 L402.1055,145.3125 C402.1055,144.7625 401.6555,144.3125 401.1055,144.3125 L400.1055,144.3125 M398.1055,147.3125 L398.1055,152.1225 C398.1055,152.2325 398.1855,152.3125 398.2955,152.3125 L402.9255,152.3125 C403.0355,152.3125 403.1155,152.2325 403.1155,152.1225 L403.1155,147.3125 L402.1155,147.3125 L402.1155,150.8125 C402.1155,151.0925 401.8955,151.3125 401.6155,151.3125 C401.3355,151.3125 401.1155,151.0925 401.1155,150.8125 L401.1155,147.3125 L400.1155,147.3125 L400.1155,150.8125 C400.1155,151.0925 399.8955,151.3125 399.6155,151.3125 C399.3355,151.3125 399.1155,151.0925 399.1155,150.8125 L399.1155,147.3125 L398.1155,147.3125" fill="#000000"/><rect fill="#EEEEEE" height="12" rx="5" ry="5" style="stroke:#000000;stroke-width:2.5;" width="20" x="418.1055" y="142.3125"/><path d="M429.9855,144.3425 C429.8055,144.3525 429.6255,144.3725 429.4555,144.4325 C429.1855,144.5325 428.9255,144.6825 428.7055,144.9025 A0.5,0.5 0 1 0 429.3955,145.5925 C429.5055,145.4825 429.6355,145.4225 429.7755,145.3725 C430.1255,145.2525 430.5555,145.3025 430.8355,145.5925 C431.2255,145.9825 431.2255,146.6325 430.8355,147.0325 L429.3355,148.5325 C428.8955,148.9725 428.5355,149.0125 428.2755,149.0025 C428.0155,148.9925 427.8655,148.8725 427.8655,148.8725 A0.5,0.5 0 1 0 427.3655,149.7525 C427.7055,149.9725 427.7055,149.9725 428.2055,150.0025 C428.7055,150.0325 429.4055,149.8425 430.0155,149.2225 L431.5155,147.7225 C432.2955,146.9425 432.2955,145.6825 431.5155,144.9125 C431.2355,144.6325 430.9055,144.4625 430.5455,144.3825 C430.3655,144.3425 430.1655,144.3425 429.9855,144.3525 M427.9855,146.6525 C427.4855,146.6325 426.7955,146.8025 426.2055,147.4025 L424.7055,148.9025 C423.9255,149.6825 423.9255,150.9425 424.7055,151.7125 C425.2655,152.2725 426.0655,152.4325 426.7655,152.1825 C427.0355,152.0825 427.2955,151.9325 427.5155,151.7125 A0.5,0.5 0 1 0 426.8255,151.0225 C426.7155,151.1325 426.5855,151.1925 426.4455,151.2425 C426.0955,151.3625 425.6655,151.3125 425.3855,151.0225 C424.9955,150.6325 424.9955,149.9825 425.3855,149.5825 L426.8855,148.0825 C427.2855,147.6825 427.6355,147.6325 427.9155,147.6425 C428.1955,147.6525 428.3855,147.7325 428.3855,147.7325 A0.5,0.5 0 1 0 428.8255,146.8525 C428.4855,146.6525 428.4855,146.6525 427.9855,146.6325" fill="#000000"/><rect fill="#EEEEEE" height="12" rx="5" ry="5" style="stroke:#000000;stroke-width:2.5;" width="20" x="445.1055" y="142.3125"/><path d="M457.5155,145.3125 L456.8255,146.0325 L454.0455,148.8125 L453.2355,148.0325 L452.5155,147.3125 L451.1055,148.7225 L451.8255,149.4425 L453.3255,150.9425 L454.0155,151.6625 L454.7355,150.9425 L458.2355,147.4425 L458.9555,146.7225 L457.5155,145.3125" fill="#000000"/><text fill="#000000" font-family="sans-serif" font-size="12" lengthAdjust="spacing" textLength="50.0508" x="7" y="170.9512">TSK-103</text><text fill="#000000" font-family="sans-serif" font-size="12" lengthAdjust="spacing" textLength="96.8906" x="71" y="170.9512">Revisar Pruebas</text><text fill="#000000" font-family="sans-serif" font-size="12" lengthAdjust="spacing" textLength="26.2734" x="200.6055" y="170.9512">Baja</text><text fill="#000000" font-family="sans-serif" font-size="12" lengthAdjust="spacing" textLength="72.7734" x="272.6055" y="170.9512">Completada</text><rect fill="#EEEEEE" height="12" rx="5" ry="5" style="stroke:#000000;stroke-width:2.5;" width="20" x="364.1055" y="163.3125"/><path d="M376.1055,165.3125 L375.1055,166.3125 L377.1055,168.3125 L378.1055,167.3125 L376.1055,165.3125 M374.1055,167.3125 L370.1055,171.3125 L370.1055,173.3125 L372.1055,173.3125 L376.1055,169.3125 L374.1055,167.3125" fill="#000000"/><rect fill="#EEEEEE" height="12" rx="5" ry="5" style="stroke:#000000;stroke-width:2.5;" width="20" x="391.1055" y="163.3125"/><path d="M400.1055,165.3125 C399.5555,165.3125 399.1055,165.7625 399.1055,166.3125 L398.1055,166.3125 C397.5555,166.3125 397.1055,166.7625 397.1055,167.3125 L404.1055,167.3125 C404.1055,166.7625 403.6555,166.3125 403.1055,166.3125 L402.1055,166.3125 C402.1055,165.7625 401.6555,165.3125 401.1055,165.3125 L400.1055,165.3125 M398.1055,168.3125 L398.1055,173.1225 C398.1055,173.2325 398.1855,173.3125 398.2955,173.3125 L402.9255,173.3125 C403.0355,173.3125 403.1155,173.2325 403.1155,173.1225 L403.1155,168.3125 L402.1155,168.3125 L402.1155,171.8125 C402.1155,172.0925 401.8955,172.3125 401.6155,172.3125 C401.3355,172.3125 401.1155,172.0925 401.1155,171.8125 L401.1155,168.3125 L400.1155,168.3125 L400.1155,171.8125 C400.1155,172.0925 399.8955,172.3125 399.6155,172.3125 C399.3355,172.3125 399.1155,172.0925 399.1155,171.8125 L399.1155,168.3125 L398.1155,168.3125" fill="#000000"/><rect fill="#EEEEEE" height="12" rx="5" ry="5" style="stroke:#000000;stroke-width:2.5;" width="20" x="418.1055" y="163.3125"/><path d="M429.9855,165.3425 C429.8055,165.3525 429.6255,165.3725 429.4555,165.4325 C429.1855,165.5325 428.9255,165.6825 428.7055,165.9025 A0.5,0.5 0 1 0 429.3955,166.5925 C429.5055,166.4825 429.6355,166.4225 429.7755,166.3725 C430.1255,166.2525 430.5555,166.3025 430.8355,166.5925 C431.2255,166.9825 431.2255,167.6325 430.8355,168.0325 L429.3355,169.5325 C428.8955,169.9725 428.5355,170.0125 428.2755,170.0025 C428.0155,169.9925 427.8655,169.8725 427.8655,169.8725 A0.5,0.5 0 1 0 427.3655,170.7525 C427.7055,170.9725 427.7055,170.9725 428.2055,171.0025 C428.7055,171.0325 429.4055,170.8425 430.0155,170.2225 L431.5155,168.7225 C432.2955,167.9425 432.2955,166.6825 431.5155,165.9125 C431.2355,165.6325 430.9055,165.4625 430.5455,165.3825 C430.3655,165.3425 430.1655,165.3425 429.9855,165.3525 M427.9855,167.6525 C427.4855,167.6325 426.7955,167.8025 426.2055,168.4025 L424.7055,169.9025 C423.9255,170.6825 423.9255,171.9425 424.7055,172.7125 C425.2655,173.2725 426.0655,173.4325 426.7655,173.1825 C427.0355,173.0825 427.2955,172.9325 427.5155,172.7125 A0.5,0.5 0 1 0 426.8255,172.0225 C426.7155,172.1325 426.5855,172.1925 426.4455,172.2425 C426.0955,172.3625 425.6655,172.3125 425.3855,172.0225 C424.9955,171.6325 424.9955,170.9825 425.3855,170.5825 L426.8855,169.0825 C427.2855,168.6825 427.6355,168.6325 427.9155,168.6425 C428.1955,168.6525 428.3855,168.7325 428.3855,168.7325 A0.5,0.5 0 1 0 428.8255,167.8525 C428.4855,167.6525 428.4855,167.6525 427.9855,167.6325" fill="#000000"/><rect fill="#EEEEEE" height="12" rx="5" ry="5" style="stroke:#000000;stroke-width:2.5;" width="20" x="445.1055" y="163.3125"/><path d="M457.5155,166.3125 L456.8255,167.0325 L454.0455,169.8125 L453.2355,169.0325 L452.5155,168.3125 L451.1055,169.7225 L451.8255,170.4425 L453.3255,171.9425 L454.0155,172.6625 L454.7355,171.9425 L458.2355,168.4425 L458.9555,167.7225 L457.5155,166.3125" fill="#000000"/><line style="stroke:#000000;stroke-width:1;" x1="6" x2="70" y1="91.8594" y2="91.8594"/><line style="stroke:#000000;stroke-width:1;" x1="70" x2="199.6055" y1="91.8594" y2="91.8594"/><line style="stroke:#000000;stroke-width:1;" x1="199.6055" x2="271.6055" y1="91.8594" y2="91.8594"/><line style="stroke:#000000;stroke-width:1;" x1="271.6055" x2="359.6055" y1="91.8594" y2="91.8594"/><line style="stroke:#000000;stroke-width:1;" x1="359.6055" x2="469.6055" y1="91.8594" y2="91.8594"/><line style="stroke:#000000;stroke-width:1;" x1="6" x2="70" y1="195.7813" y2="195.7813"/><line style="stroke:#000000;stroke-width:1;" x1="70" x2="199.6055" y1="195.7813" y2="195.7813"/><line style="stroke:#000000;stroke-width:1;" x1="199.6055" x2="271.6055" y1="195.7813" y2="195.7813"/><line style="stroke:#000000;stroke-width:1;" x1="271.6055" x2="359.6055" y1="195.7813" y2="195.7813"/><line style="stroke:#000000;stroke-width:1;" x1="359.6055" x2="469.6055" y1="195.7813" y2="195.7813"/><line style="stroke:#000000;stroke-width:1;" x1="6" x2="6" y1="91.8594" y2="116.8125"/><line style="stroke:#000000;stroke-width:1;" x1="469.6055" x2="469.6055" y1="179.8125" y2="195.7813"/><line style="stroke:#000000;stroke-width:1;" x1="469.6055" x2="469.6055" y1="158.8125" y2="179.8125"/><line style="stroke:#000000;stroke-width:1;" x1="469.6055" x2="469.6055" y1="137.8125" y2="158.8125"/><line style="stroke:#000000;stroke-width:1;" x1="469.6055" x2="469.6055" y1="116.8125" y2="137.8125"/><line style="stroke:#000000;stroke-width:1;" x1="469.6055" x2="469.6055" y1="91.8594" y2="116.8125"/><line style="stroke:#000000;stroke-width:1;" x1="6" x2="6" y1="179.8125" y2="195.7813"/><line style="stroke:#000000;stroke-width:1;" x1="6" x2="6" y1="158.8125" y2="179.8125"/><line style="stroke:#000000;stroke-width:1;" x1="6" x2="6" y1="137.8125" y2="158.8125"/><line style="stroke:#000000;stroke-width:1;" x1="6" x2="6" y1="116.8125" y2="137.8125"/><rect fill="#FFFFFF" height="13.9688" style="stroke:#FFFFFF;stroke-width:1;" width="20.4082" x="12" y="84.875"/><text fill="#000000" font-family="sans-serif" font-size="12" lengthAdjust="spacing" textLength="12.7793" x="15.8145" y="96.0137">ID</text><text fill="#000000" font-family="sans-serif" font-size="12" lengthAdjust="spacing" textLength="61.5352" x="6" y="240.8574">[&lt; Volver]</text><line style="stroke:#000000;stroke-width:1;" x1="6" x2="128.748" y1="227.7188" y2="227.7188"/><line style="stroke:#000000;stroke-width:1;" x1="6" x2="6" y1="227.7188" y2="246.6875"/><line style="stroke:#000000;stroke-width:1;" x1="6" x2="128.748" y1="246.6875" y2="246.6875"/><line style="stroke:#000000;stroke-width:1;" x1="128.748" x2="128.748" y1="246.6875" y2="256.6875"/><line style="stroke:#000000;stroke-width:1;" x1="6" x2="128.748" y1="256.6875" y2="256.6875"/><line style="stroke:#000000;stroke-width:1;" x1="6" x2="6" y1="256.6875" y2="275.6563"/><line style="stroke:#000000;stroke-width:1;" x1="6" x2="128.748" y1="275.6563" y2="275.6563"/><line style="stroke:#000000;stroke-width:1;" x1="128.748" x2="128.748" y1="275.6563" y2="285.6563"/><line style="stroke:#000000;stroke-width:1;" x1="6" x2="128.748" y1="285.6563" y2="285.6563"/><line style="stroke:#000000;stroke-width:1;" x1="6" x2="6" y1="285.6563" y2="304.625"/><line style="stroke:#000000;stroke-width:1;" x1="6" x2="128.748" y1="304.625" y2="304.625"/><line style="stroke:#000000;stroke-width:1;" x1="128.748" x2="128.748" y1="304.625" y2="314.625"/><line style="stroke:#000000;stroke-width:1;" x1="6" x2="128.748" y1="314.625" y2="314.625"/><line style="stroke:#000000;stroke-width:1;" x1="6" x2="6" y1="314.625" y2="333.5938"/><line style="stroke:#000000;stroke-width:1;" x1="6" x2="128.748" y1="333.5938" y2="333.5938"/><line style="stroke:#000000;stroke-width:1;" x1="128.748" x2="128.748" y1="333.5938" y2="343.5938"/><line style="stroke:#000000;stroke-width:1;" x1="6" x2="128.748" y1="343.5938" y2="343.5938"/><line style="stroke:#000000;stroke-width:1;" x1="6" x2="6" y1="343.5938" y2="362.5625"/><line style="stroke:#000000;stroke-width:1;" x1="6" x2="128.748" y1="362.5625" y2="362.5625"/><line style="stroke:#000000;stroke-width:1;" x1="128.748" x2="128.748" y1="362.5625" y2="372.5625"/><text fill="#000000" font-family="sans-serif" font-size="12" lengthAdjust="spacing" textLength="122.748" x="6" y="385.7012">[Crear Nueva Tarea]</text><line style="stroke:#000000;stroke-width:1;" x1="6" x2="128.748" y1="372.5625" y2="372.5625"/><line style="stroke:#000000;stroke-width:1;" x1="6" x2="6" y1="372.5625" y2="391.5313"/><line style="stroke:#000000;stroke-width:1;" x1="6" x2="128.748" y1="391.5313" y2="391.5313"/><line style="stroke:#000000;stroke-width:1;" x1="128.748" x2="128.748" y1="391.5313" y2="401.5313"/><line style="stroke:#000000;stroke-width:1;" x1="5" x2="470.6055" y1="5" y2="5"/><line style="stroke:#000000;stroke-width:1;" x1="5" x2="470.6055" y1="402.5313" y2="402.5313"/><line style="stroke:#000000;stroke-width:1;" x1="5" x2="5" y1="5" y2="24.9688"/><line style="stroke:#000000;stroke-width:1;" x1="470.6055" x2="470.6055" y1="5" y2="24.9688"/><line style="stroke:#000000;stroke-width:1;" x1="5" x2="5" y1="210.75" y2="226.7188"/><line style="stroke:#000000;stroke-width:1;" x1="470.6055" x2="470.6055" y1="210.75" y2="226.7188"/><line style="stroke:#000000;stroke-width:1;" x1="5" x2="5" y1="67.9063" y2="83.875"/><line style="stroke:#000000;stroke-width:1;" x1="470.6055" x2="470.6055" y1="67.9063" y2="83.875"/><line style="stroke:#000000;stroke-width:1;" x1="5" x2="5" y1="24.9688" y2="40.9375"/><line style="stroke:#000000;stroke-width:1;" x1="470.6055" x2="470.6055" y1="24.9688" y2="40.9375"/><line style="stroke:#000000;stroke-width:1;" x1="5" x2="5" y1="226.7188" y2="402.5313"/><line style="stroke:#000000;stroke-width:1;" x1="470.6055" x2="470.6055" y1="226.7188" y2="402.5313"/><line style="stroke:#000000;stroke-width:1;" x1="5" x2="5" y1="83.875" y2="210.75"/><line style="stroke:#000000;stroke-width:1;" x1="470.6055" x2="470.6055" y1="83.875" y2="210.75"/><line style="stroke:#000000;stroke-width:1;" x1="5" x2="5" y1="40.9375" y2="67.9063"/><line style="stroke:#000000;stroke-width:1;" x1="470.6055" x2="470.6055" y1="40.9375" y2="67.9063"/><rect fill="none" height="24.9688" style="stroke:#000000;stroke-width:1;" width="15" x="255.248" y="41.9375"/><line style="stroke:#000000;stroke-width:1;" x1="255.248" x2="270.248" y1="53.9375" y2="53.9375"/><line style="stroke:#000000;stroke-width:1;" x1="255.248" x2="270.248" y1="54.9063" y2="54.9063"/><path d="M262.248,45.9375 L265.248,50.9375 L259.248,50.9375 L262.248,45.9375" fill="#000000"/><path d="M262.248,63.9063 L265.248,58.9063 L259.248,58.9063 L262.248,63.9063" fill="#000000"/><!--SRC=[hLBRRXen47tVhnZjGvIeOhjBITKYL2L06eMmwIfiU44W6U-Kk2msyWMf0ZwgwYVanpfxIscVOycMPyxu78zzhenbsXgMMs__pWDO-Fuj6YjUVal845AcaHdVNn0KqDnFxcW5KE3tdU5CWoqgOAiqIBLPQWo2m8S3p2fuJjN7vkp2XxiX5AXV4TVxH0kbHSQoEhwXEsMg3guv5qgY0RyKJYVthIYC27h4Z75IXw7YReFIAg3iTMuPbEC02SfC481Lk8TPxsoBaelyoxouOk_CQcQUco0NSjqIqX9ha-BFoDSK74-qsmGDXS6NNwGTAxvsMrCBnfW9Lkzl9FMbLXgDUaFn3sNZEs58Ez4EbwpHxhCVhuqFr6QR8pqYUvl60sYOcztfECt-Lt4eF_xL0E-Xe9lrOAho7UfvMVxld0t85neU7EvOPPBAGaVlYdwpzAcNv4pQftWCn6787105xR1z6KJXUUeG7jGEmWv4ORSTTZkV8PwaKE0NtlbjCWQZdEO8cJ1MYwMpH73XZHZ9FJffnGQxy8qUQpIyRnBqbpkXbInCvescyT-2ZvrMNrYOeAQhm3JsXlYTkTpI2Quo8LTTU4g_jZvvOoPNZgs86wKtKCIhVtP1kZp_0m00]--></g></svg>