<svg xmlns="http://www.w3.org/2000/svg" xmlns:xlink="http://www.w3.org/1999/xlink" contentStyleType="text/css" data-diagram-type="DESCRIPTION" height="366px" preserveAspectRatio="none" style="width:586px;height:366px;background:#FFFFFF;" version="1.1" viewBox="0 0 586 366" width="586px" zoomAndPan="magnify"><defs/><g><!--cluster Organizaci?n y Grupos--><g class="cluster" data-entity="Organizaci.n y Grupos" data-source-line="4" data-uid="ent0003" id="cluster_Organizaci.n y Grupos"><path d="M154.5,6 L334.0273,6 A3.75,3.75 0 0 1 336.5273,8.5 L343.5273,28.2969 L576.5,28.2969 A2.5,2.5 0 0 1 579,30.7969 L579,356.5 A2.5,2.5 0 0 1 576.5,359 L154.5,359 A2.5,2.5 0 0 1 152,356.5 L152,8.5 A2.5,2.5 0 0 1 154.5,6" fill="none" style="stroke:#000000;stroke-width:1.5;"/><line style="stroke:#000000;stroke-width:1.5;" x1="152" x2="343.5273" y1="28.2969" y2="28.2969"/><text fill="#000000" font-family="sans-serif" font-size="14" font-weight="bold" lengthAdjust="spacing" textLength="178.5273" x="156" y="20.9951">Organizaci&#243;n y Grupos</text></g><!--entity UC_G1--><g class="entity" data-entity="UC_G1" data-source-line="5" data-uid="ent0004" id="entity_UC_G1"><ellipse cx="239.7981" cy="56.1596" fill="#F1F1F1" rx="63.7981" ry="15.1596" style="stroke:#181818;stroke-width:0.5;"/><text fill="#000000" font-family="sans-serif" font-size="14" lengthAdjust="spacing" textLength="90.2549" x="194.6707" y="60.8081">crearGrupo()</text></g><!--entity UC_G2--><g class="entity" data-entity="UC_G2" data-source-line="6" data-uid="ent0005" id="entity_UC_G2"><ellipse cx="240.1396" cy="122.9279" fill="#F1F1F1" rx="70.1396" ry="16.4279" style="stroke:#181818;stroke-width:0.5;"/><text fill="#000000" font-family="sans-serif" font-size="14" lengthAdjust="spacing" textLength="106.7295" x="186.7748" y="127.5764">unirseAGrupo()</text></g><!--entity UC_G3--><g class="entity" data-entity="UC_G3" data-source-line="7" data-uid="ent0006" id="entity_UC_G3"><ellipse cx="240.0012" cy="191.1002" fill="#F1F1F1" rx="71.0012" ry="16.6002" style="stroke:#181818;stroke-width:0.5;"/><text fill="#000000" font-family="sans-serif" font-size="14" lengthAdjust="spacing" textLength="108.8896" x="185.5564" y="195.7487">invitarUsuario()</text></g><!--entity UC_G4--><g class="entity" data-entity="UC_G4" data-source-line="8" data-uid="ent0007" id="entity_UC_G4"><ellipse cx="240.1049" cy="258.021" fill="#F1F1F1" rx="65.6049" ry="15.521" style="stroke:#181818;stroke-width:0.5;"/><text fill="#000000" font-family="sans-serif" font-size="14" lengthAdjust="spacing" textLength="95.0674" x="192.5712" y="262.6694">editarGrupo()</text></g><!--entity UC_G5--><g class="entity" data-entity="UC_G5" data-source-line="9" data-uid="ent0008" id="entity_UC_G5"><ellipse cx="239.8415" cy="325.7683" fill="#F1F1F1" rx="71.8415" ry="16.7683" style="stroke:#181818;stroke-width:0.5;"/><text fill="#000000" font-family="sans-serif" font-size="14" lengthAdjust="spacing" textLength="110.9814" x="184.3507" y="330.4167">eliminarGrupo()</text></g><!--entity UC_G6--><g class="entity" data-entity="UC_G6" data-source-line="11" data-uid="ent0009" id="entity_UC_G6"><ellipse cx="499.0395" cy="191.2079" fill="#F1F1F1" rx="64.0395" ry="15.2079" style="stroke:#181818;stroke-width:0.5;"/><text fill="#000000" font-family="sans-serif" font-size="14" lengthAdjust="spacing" textLength="90.9043" x="453.5874" y="195.8563">Modificar Rol</text></g><!--entity Admin--><g class="entity" data-entity="Admin" data-source-line="2" data-uid="ent0002" id="entity_Admin"><ellipse cx="55.54" cy="161.5" fill="#F1F1F1" rx="8" ry="8" style="stroke:#181818;stroke-width:0.5;"/><path d="M55.54,169.5 L55.54,196.5 M42.54,177.5 L68.54,177.5 M55.54,196.5 L42.54,211.5 M55.54,196.5 L68.54,211.5" fill="none" style="stroke:#181818;stroke-width:0.5;"/><text fill="#000000" font-family="sans-serif" font-size="14" lengthAdjust="spacing" textLength="99.0801" x="6" y="225.9951">Administrador</text></g><!--link Admin to UC_G1--><g class="link" data-entity-1="Admin" data-entity-2="UC_G1" data-source-line="14" data-uid="lnk10" id="link_Admin_UC_G1"><path d="M81.74,152.61 C97.44,131.31 119.32,105.81 144,89 C158.86,78.87 171.41,73.3396 187.96,68.1996" fill="none" id="Admin-to-UC_G1" style="stroke:#181818;stroke-width:1;"/><polygon fill="#181818" points="193.69,66.42,183.9086,65.2694,188.915,67.903,186.2814,72.9094,193.69,66.42" style="stroke:#181818;stroke-width:1;"/></g><!--link Admin to UC_G2--><g class="link" data-entity-1="Admin" data-entity-2="UC_G2" data-source-line="15" data-uid="lnk11" id="link_Admin_UC_G2"><path d="M105.01,171.88 C117.67,166.97 131.33,161.73 144,157 C162.38,150.14 177.2061,144.7882 194.4361,138.6682" fill="none" id="Admin-to-UC_G2" style="stroke:#181818;stroke-width:1;"/><polygon fill="#181818" points="200.09,136.66,190.2703,135.9031,195.3784,138.3335,192.9479,143.4417,200.09,136.66" style="stroke:#181818;stroke-width:1;"/></g><!--link Admin to UC_G3--><g class="link" data-entity-1="Admin" data-entity-2="UC_G3" data-source-line="16" data-uid="lnk12" id="link_Admin_UC_G3"><path d="M105.41,191 C124.83,191 141.55,191 162.69,191" fill="none" id="Admin-to-UC_G3" style="stroke:#181818;stroke-width:1;"/><polygon fill="#181818" points="168.69,191,159.69,187,163.69,191,159.69,195,168.69,191" style="stroke:#181818;stroke-width:1;"/></g><!--link Admin to UC_G4--><g class="link" data-entity-1="Admin" data-entity-2="UC_G4" data-source-line="17" data-uid="lnk13" id="link_Admin_UC_G4"><path d="M105.44,210.38 C117.97,215.24 131.46,220.39 144,225 C162.84,231.93 178.255,237.3421 195.765,243.3521" fill="none" id="Admin-to-UC_G4" style="stroke:#181818;stroke-width:1;"/><polygon fill="#181818" points="201.44,245.3,194.226,238.5949,196.7108,243.6768,191.6289,246.1616,201.44,245.3" style="stroke:#181818;stroke-width:1;"/></g><!--link Admin to UC_G5--><g class="link" data-entity-1="Admin" data-entity-2="UC_G5" data-source-line="18" data-uid="lnk14" id="link_Admin_UC_G5"><path d="M82.75,229.43 C98.48,250.05 120.05,274.53 144,291 C158.05,300.66 169.4165,306.0776 185.1665,311.4976" fill="none" id="Admin-to-UC_G5" style="stroke:#181818;stroke-width:1;"/><polygon fill="#181818" points="190.84,313.45,183.6314,306.7391,186.1121,311.823,181.0282,314.3037,190.84,313.45" style="stroke:#181818;stroke-width:1;"/></g><!--reverse link UC_G3 to UC_G6--><g class="link" data-entity-1="UC_G3" data-entity-2="UC_G6" data-source-line="19" data-uid="lnk15" id="link_UC_G3_UC_G6"><path d="M317.23,191 C355.87,191 397.43,191 434.88,191" fill="none" id="UC_G3-backto-UC_G6" style="stroke:#181818;stroke-width:1;stroke-dasharray:7,7;"/><polygon fill="#181818" points="311.23,191,320.23,195,316.23,191,320.23,187,311.23,191" style="stroke:#181818;stroke-width:1;"/><text fill="#000000" font-family="sans-serif" font-size="13" lengthAdjust="spacing" textLength="61.1851" x="343" y="187.0669">&#171;extend&#187;</text></g><!--SRC=[PT3DQW8n40VmUvvYs9CzADIlGraMbXuyYL3mB4CoRWVNH2PPqHQVoaVmnRgD8asQsp_pOuQPbhO1WWFXvZE0OI4Ts5c5EZY1eZPxjko3e75I07g8FqeTKE-m8IXMqg3bBzHykreumqAwW_C5V2leN-T9e- -P5aA9jS5BxBD-tonUKzDP5azrhiQfOdlaWBBs7Gh_TPFKaVbbURDfXbhkr_dFPf6bTkaCRrcZm8ThdtAkBah5ey1mM3tMIlCuovCiJxCyKr51EHhTHy0Rb2MT0bbJLJy0]--></g></svg>