<svg xmlns="http://www.w3.org/2000/svg" xmlns:xlink="http://www.w3.org/1999/xlink" contentStyleType="text/css" data-diagram-type="DESCRIPTION" height="440px" preserveAspectRatio="none" style="width:416px;height:440px;background:#FFFFFF;" version="1.1" viewBox="0 0 416 440" width="416px" zoomAndPan="magnify"><defs/><g><!--cluster Organizaci?n y Grupos--><g class="cluster" data-entity="Organizaci.n y Grupos" data-source-line="6" data-uid="ent0004" id="cluster_Organizaci.n y Grupos"><path d="M217.5,6 L397.0273,6 A3.75,3.75 0 0 1 399.5273,8.5 L406.5273,28.2969 L406.5,28.2969 A2.5,2.5 0 0 1 409,30.7969 L409,430.5 A2.5,2.5 0 0 1 406.5,433 L217.5,433 A2.5,2.5 0 0 1 215,430.5 L215,8.5 A2.5,2.5 0 0 1 217.5,6" fill="none" style="stroke:#000000;stroke-width:1.5;"/><line style="stroke:#000000;stroke-width:1.5;" x1="215" x2="406.5273" y1="28.2969" y2="28.2969"/><text fill="#000000" font-family="sans-serif" font-size="14" font-weight="bold" lengthAdjust="spacing" textLength="178.5273" x="219" y="20.9951">Organizaci&#243;n y Grupos</text></g><!--entity UC_G6--><g class="entity" data-entity="UC_G6" data-source-line="7" data-uid="ent0005" id="entity_UC_G6"><ellipse cx="312.2062" cy="329.9412" fill="#F1F1F1" rx="65.2062" ry="15.4412" style="stroke:#181818;stroke-width:0.5;"/><text fill="#000000" font-family="sans-serif" font-size="14" lengthAdjust="spacing" textLength="94.0146" x="265.1989" y="334.5897">abrirGrupos()</text></g><!--entity UC_G3--><g class="entity" data-entity="UC_G3" data-source-line="8" data-uid="ent0006" id="entity_UC_G3"><ellipse cx="312.1049" cy="196.021" fill="#F1F1F1" rx="65.6049" ry="15.521" style="stroke:#181818;stroke-width:0.5;"/><text fill="#000000" font-family="sans-serif" font-size="14" lengthAdjust="spacing" textLength="95.0674" x="264.5712" y="200.6694">editarGrupo()</text></g><!--entity UC_G2--><g class="entity" data-entity="UC_G2" data-source-line="9" data-uid="ent0007" id="entity_UC_G2"><ellipse cx="312.0012" cy="263.1002" fill="#F1F1F1" rx="71.0012" ry="16.6002" style="stroke:#181818;stroke-width:0.5;"/><text fill="#000000" font-family="sans-serif" font-size="14" lengthAdjust="spacing" textLength="108.8896" x="257.5564" y="267.7487">invitarUsuario()</text></g><!--entity UC_G5--><g class="entity" data-entity="UC_G5" data-source-line="10" data-uid="ent0008" id="entity_UC_G5"><ellipse cx="311.8871" cy="57.9774" fill="#F1F1F1" rx="72.8871" ry="16.9774" style="stroke:#181818;stroke-width:0.5;"/><text fill="#000000" font-family="sans-serif" font-size="14" lengthAdjust="spacing" textLength="113.5654" x="255.1044" y="62.6259">editarMiembro()</text></g><!--entity UC_G7--><g class="entity" data-entity="UC_G7" data-source-line="11" data-uid="ent0009" id="entity_UC_G7"><ellipse cx="311.8546" cy="399.1709" fill="#F1F1F1" rx="78.8546" ry="18.1709" style="stroke:#181818;stroke-width:0.5;"/><text fill="#000000" font-family="sans-serif" font-size="14" lengthAdjust="spacing" textLength="127.9688" x="247.8703" y="403.8194">abrirInvitaciones()</text></g><!--entity UC_G8--><g class="entity" data-entity="UC_G8" data-source-line="12" data-uid="ent0010" id="entity_UC_G8"><ellipse cx="312.1943" cy="128.0389" fill="#F1F1F1" rx="75.6943" ry="17.5389" style="stroke:#181818;stroke-width:0.5;"/><text fill="#000000" font-family="sans-serif" font-size="14" lengthAdjust="spacing" textLength="120.4082" x="251.9902" y="132.6873">editarInvitacion()</text></g><!--entity MiembroAdmin--><g class="entity" data-entity="MiembroAdmin" data-source-line="2" data-uid="ent0002" id="entity_MiembroAdmin"><ellipse cx="88.479" cy="205.5" fill="#F1F1F1" rx="8" ry="8" style="stroke:#181818;stroke-width:0.5;"/><path d="M88.479,213.5 L88.479,240.5 M75.479,221.5 L101.479,221.5 M88.479,240.5 L75.479,255.5 M88.479,240.5 L101.479,255.5" fill="none" style="stroke:#181818;stroke-width:0.5;"/><text fill="#000000" font-family="sans-serif" font-size="14" lengthAdjust="spacing" textLength="164.958" x="6" y="269.9951">Miembro Administrador</text></g><!--entity Miembro--><g class="entity" data-entity="Miembro" data-source-line="3" data-uid="ent0003" id="entity_Miembro"><ellipse cx="88.7139" cy="328.5" fill="#F1F1F1" rx="8" ry="8" style="stroke:#181818;stroke-width:0.5;"/><path d="M88.7139,336.5 L88.7139,363.5 M75.7139,344.5 L101.7139,344.5 M88.7139,363.5 L75.7139,378.5 M88.7139,363.5 L101.7139,378.5" fill="none" style="stroke:#181818;stroke-width:0.5;"/><text fill="#000000" font-family="sans-serif" font-size="14" lengthAdjust="spacing" textLength="61.4277" x="58" y="392.9951">Miembro</text></g><!--link MiembroAdmin to UC_G2--><g class="link" data-entity-1="MiembroAdmin" data-entity-2="UC_G2" data-source-line="16" data-uid="lnk11" id="link_MiembroAdmin_UC_G2"><path d="M171.03,245.31 C196.94,248.58 219.1872,251.3991 243.4472,254.4591" fill="none" id="MiembroAdmin-to-UC_G2" style="stroke:#181818;stroke-width:1;"/><polygon fill="#181818" points="249.4,255.21,240.9713,250.1152,244.4393,254.5843,239.9702,258.0523,249.4,255.21" style="stroke:#181818;stroke-width:1;"/></g><!--link MiembroAdmin to UC_G3--><g class="link" data-entity-1="MiembroAdmin" data-entity-2="UC_G3" data-source-line="17" data-uid="lnk12" id="link_MiembroAdmin_UC_G3"><path d="M171.03,220.64 C200.39,215.47 226.791,210.8309 252.961,206.2209" fill="none" id="MiembroAdmin-to-UC_G3" style="stroke:#181818;stroke-width:1;"/><polygon fill="#181818" points="258.87,205.18,249.3125,202.802,253.9458,206.0474,250.7004,210.6807,258.87,205.18" style="stroke:#181818;stroke-width:1;"/></g><!--link MiembroAdmin to UC_G5--><g class="link" data-entity-1="MiembroAdmin" data-entity-2="UC_G5" data-source-line="18" data-uid="lnk13" id="link_MiembroAdmin_UC_G5"><path d="M112.49,196.74 C133.45,164.85 167.18,120.37 207,93 C222.31,82.48 235.3079,76.6729 252.6379,71.3129" fill="none" id="MiembroAdmin-to-UC_G5" style="stroke:#181818;stroke-width:1;"/><polygon fill="#181818" points="258.37,69.54,248.5899,68.3779,253.5933,71.0174,250.9538,76.0207,258.37,69.54" style="stroke:#181818;stroke-width:1;"/></g><!--link MiembroAdmin to UC_G6--><g class="link" data-entity-1="MiembroAdmin" data-entity-2="UC_G6" data-source-line="19" data-uid="lnk14" id="link_MiembroAdmin_UC_G6"><path d="M156.54,273 C172.79,281.48 190.3,290.01 207,297 C226.83,305.3 243.7692,311.0186 262.8892,316.7086" fill="none" id="MiembroAdmin-to-UC_G6" style="stroke:#181818;stroke-width:1;"/><polygon fill="#181818" points="268.64,318.42,261.1548,312.0191,263.8477,316.9938,258.8729,319.6867,268.64,318.42" style="stroke:#181818;stroke-width:1;"/></g><!--link MiembroAdmin to UC_G7--><g class="link" data-entity-1="MiembroAdmin" data-entity-2="UC_G7" data-source-line="20" data-uid="lnk15" id="link_MiembroAdmin_UC_G7"><path d="M141.57,273.19 C151.94,282.03 162.31,291.84 171,302 C191.47,325.92 182.63,343.07 207,363 C220.24,373.82 231.2386,379.5805 247.3586,384.9605" fill="none" id="MiembroAdmin-to-UC_G7" style="stroke:#181818;stroke-width:1;"/><polygon fill="#181818" points="253.05,386.86,245.7792,380.2165,248.3072,385.2771,243.2466,387.805,253.05,386.86" style="stroke:#181818;stroke-width:1;"/></g><!--link MiembroAdmin to UC_G8--><g class="link" data-entity-1="MiembroAdmin" data-entity-2="UC_G8" data-source-line="21" data-uid="lnk16" id="link_MiembroAdmin_UC_G8"><path d="M145.74,196.99 C164.69,185.15 186.3,172.67 207,163 C224.95,154.61 239.7649,149.0869 257.8149,143.3169" fill="none" id="MiembroAdmin-to-UC_G8" style="stroke:#181818;stroke-width:1;"/><polygon fill="#181818" points="263.53,141.49,253.7394,140.4203,258.7674,143.0124,256.1753,148.0405,263.53,141.49" style="stroke:#181818;stroke-width:1;"/></g><!--link Miembro to UC_G6--><g class="link" data-entity-1="Miembro" data-entity-2="UC_G6" data-source-line="23" data-uid="lnk17" id="link_Miembro_UC_G6"><path d="M119.37,354.22 C153.74,349.88 204.9873,343.402 247.9673,337.972" fill="none" id="Miembro-to-UC_G6" style="stroke:#181818;stroke-width:1;"/><polygon fill="#181818" points="253.92,337.22,244.4896,334.3796,248.9594,337.8467,245.4923,342.3165,253.92,337.22" style="stroke:#181818;stroke-width:1;"/></g><!--link Miembro to UC_G7--><g class="link" data-entity-1="Miembro" data-entity-2="UC_G7" data-source-line="24" data-uid="lnk18" id="link_Miembro_UC_G7"><path d="M119.37,363.53 C152.67,369.69 201.5202,378.7381 243.9902,386.5981" fill="none" id="Miembro-to-UC_G7" style="stroke:#181818;stroke-width:1;"/><polygon fill="#181818" points="249.89,387.69,241.7682,382.119,244.9735,386.7801,240.3124,389.9854,249.89,387.69" style="stroke:#181818;stroke-width:1;"/></g><!--SRC=[RP2n3W5148RxUOh9LHGQWgiaeX25gDGojxVE1BiokoT1F9L7y6BEkR3OBV__spzVPgVN7hr5uMBZCMVHohCrGCfRmMJEUf-9nN6-PyFE2-LM4YI7JLCNFtJO0y21r9OAZSb22Z9y9iNtcy4JJgKyM9VW1R1wfTEAN8LH9YolhjMkjvQJrNJm3UcSFRse0EfzGsoEJshfIX8EkMvih34Ei7v4R5Plgkf6EjGRnXO_R42c05U0y7pOwOmQhMZSYyVzU3o8nyDudBvL_WS-Vny0]--></g></svg>