<svg xmlns="http://www.w3.org/2000/svg" xmlns:xlink="http://www.w3.org/1999/xlink" contentStyleType="text/css" data-diagram-type="DESCRIPTION" height="576px" preserveAspectRatio="none" style="width:350px;height:576px;background:#FFFFFF;" version="1.1" viewBox="0 0 350 576" width="350px" zoomAndPan="magnify"><defs/><g><!--cluster Organizaci?n y Grupos--><g class="cluster" data-entity="Organizaci.n y Grupos" data-source-line="5" data-uid="ent0003" id="cluster_Organizaci.n y Grupos"><path d="M151.5,6 L331.0273,6 A3.75,3.75 0 0 1 333.5273,8.5 L340.5273,28.2969 L340.5,28.2969 A2.5,2.5 0 0 1 343,30.7969 L343,566.5 A2.5,2.5 0 0 1 340.5,569 L151.5,569 A2.5,2.5 0 0 1 149,566.5 L149,8.5 A2.5,2.5 0 0 1 151.5,6" fill="none" style="stroke:#000000;stroke-width:1.5;"/><line style="stroke:#000000;stroke-width:1.5;" x1="149" x2="340.5273" y1="28.2969" y2="28.2969"/><text fill="#000000" font-family="sans-serif" font-size="14" font-weight="bold" lengthAdjust="spacing" textLength="178.5273" x="153" y="20.9951">Organizaci&#243;n y Grupos</text></g><!--entity UC_G1--><g class="entity" data-entity="UC_G1" data-source-line="6" data-uid="ent0004" id="entity_UC_G1"><ellipse cx="245.7981" cy="56.1596" fill="#F1F1F1" rx="63.7981" ry="15.1596" style="stroke:#181818;stroke-width:0.5;"/><text fill="#000000" font-family="sans-serif" font-size="14" lengthAdjust="spacing" textLength="90.2549" x="200.6707" y="60.8081">crearGrupo()</text></g><!--entity UC_G2--><g class="entity" data-entity="UC_G2" data-source-line="7" data-uid="ent0005" id="entity_UC_G2"><ellipse cx="246.0012" cy="123.1002" fill="#F1F1F1" rx="71.0012" ry="16.6002" style="stroke:#181818;stroke-width:0.5;"/><text fill="#000000" font-family="sans-serif" font-size="14" lengthAdjust="spacing" textLength="108.8896" x="191.5564" y="127.7487">invitarUsuario()</text></g><!--entity UC_G3--><g class="entity" data-entity="UC_G3" data-source-line="8" data-uid="ent0006" id="entity_UC_G3"><ellipse cx="246.1049" cy="190.021" fill="#F1F1F1" rx="65.6049" ry="15.521" style="stroke:#181818;stroke-width:0.5;"/><text fill="#000000" font-family="sans-serif" font-size="14" lengthAdjust="spacing" textLength="95.0674" x="198.5712" y="194.6694">editarGrupo()</text></g><!--entity UC_G4--><g class="entity" data-entity="UC_G4" data-source-line="9" data-uid="ent0007" id="entity_UC_G4"><ellipse cx="245.8415" cy="257.7683" fill="#F1F1F1" rx="71.8415" ry="16.7683" style="stroke:#181818;stroke-width:0.5;"/><text fill="#000000" font-family="sans-serif" font-size="14" lengthAdjust="spacing" textLength="110.9814" x="190.3507" y="262.4167">eliminarGrupo()</text></g><!--entity UC_G5--><g class="entity" data-entity="UC_G5" data-source-line="10" data-uid="ent0008" id="entity_UC_G5"><ellipse cx="245.8871" cy="326.9774" fill="#F1F1F1" rx="72.8871" ry="16.9774" style="stroke:#181818;stroke-width:0.5;"/><text fill="#000000" font-family="sans-serif" font-size="14" lengthAdjust="spacing" textLength="113.5654" x="189.1044" y="331.6259">editarMiembro()</text></g><!--entity UC_G6--><g class="entity" data-entity="UC_G6" data-source-line="11" data-uid="ent0009" id="entity_UC_G6"><ellipse cx="246.2062" cy="394.9412" fill="#F1F1F1" rx="65.2062" ry="15.4412" style="stroke:#181818;stroke-width:0.5;"/><text fill="#000000" font-family="sans-serif" font-size="14" lengthAdjust="spacing" textLength="94.0146" x="199.1989" y="399.5897">abrirGrupos()</text></g><!--entity UC_G7--><g class="entity" data-entity="UC_G7" data-source-line="12" data-uid="ent0010" id="entity_UC_G7"><ellipse cx="245.8546" cy="464.1709" fill="#F1F1F1" rx="78.8546" ry="18.1709" style="stroke:#181818;stroke-width:0.5;"/><text fill="#000000" font-family="sans-serif" font-size="14" lengthAdjust="spacing" textLength="127.9688" x="181.8703" y="468.8194">abrirInvitaciones()</text></g><!--entity UC_G8--><g class="entity" data-entity="UC_G8" data-source-line="13" data-uid="ent0011" id="entity_UC_G8"><ellipse cx="246.1943" cy="535.0389" fill="#F1F1F1" rx="75.6943" ry="17.5389" style="stroke:#181818;stroke-width:0.5;"/><text fill="#000000" font-family="sans-serif" font-size="14" lengthAdjust="spacing" textLength="120.4082" x="185.9902" y="539.6873">editarInvitacion()</text></g><!--entity Admin--><g class="entity" data-entity="Admin" data-source-line="2" data-uid="ent0002" id="entity_Admin"><ellipse cx="55.54" cy="263.5" fill="#F1F1F1" rx="8" ry="8" style="stroke:#181818;stroke-width:0.5;"/><path d="M55.54,271.5 L55.54,298.5 M42.54,279.5 L68.54,279.5 M55.54,298.5 L42.54,313.5 M55.54,298.5 L68.54,313.5" fill="none" style="stroke:#181818;stroke-width:0.5;"/><text fill="#000000" font-family="sans-serif" font-size="14" lengthAdjust="spacing" textLength="99.0801" x="6" y="327.9951">Administrador</text></g><!--link Admin to UC_G1--><g class="link" data-entity-1="Admin" data-entity-2="UC_G1" data-source-line="17" data-uid="lnk12" id="link_Admin_UC_G1"><path d="M62.37,254.73 C71.36,209.01 92.85,133.2 141,89 C154.75,76.38 167.5222,70.1715 185.1622,65.3515" fill="none" id="Admin-to-UC_G1" style="stroke:#181818;stroke-width:1;"/><polygon fill="#181818" points="190.95,63.77,181.2139,62.2837,186.1268,65.0879,183.3226,70.0008,190.95,63.77" style="stroke:#181818;stroke-width:1;"/></g><!--link Admin to UC_G2--><g class="link" data-entity-1="Admin" data-entity-2="UC_G2" data-source-line="18" data-uid="lnk13" id="link_Admin_UC_G2"><path d="M71.37,254.99 C85.14,224.45 108.42,182.57 141,157 C155.2,145.86 167.4321,140.021 184.4321,134.931" fill="none" id="Admin-to-UC_G2" style="stroke:#181818;stroke-width:1;"/><polygon fill="#181818" points="190.18,133.21,180.4108,131.9596,185.3901,134.6442,182.7055,139.6234,190.18,133.21" style="stroke:#181818;stroke-width:1;"/></g><!--link Admin to UC_G3--><g class="link" data-entity-1="Admin" data-entity-2="UC_G3" data-source-line="19" data-uid="lnk14" id="link_Admin_UC_G3"><path d="M96.3,254.69 C109.71,243.29 125.28,231.58 141,223 C158.79,213.29 174.1091,207.5722 192.6291,202.3022" fill="none" id="Admin-to-UC_G3" style="stroke:#181818;stroke-width:1;"/><polygon fill="#181818" points="198.4,200.66,188.6489,199.276,193.5909,202.0285,190.8384,206.9705,198.4,200.66" style="stroke:#181818;stroke-width:1;"/></g><!--link Admin to UC_G4--><g class="link" data-entity-1="Admin" data-entity-2="UC_G4" data-source-line="20" data-uid="lnk15" id="link_Admin_UC_G4"><path d="M105.04,283.99 C130.68,279.23 156.3707,274.4549 183.0407,269.5049" fill="none" id="Admin-to-UC_G4" style="stroke:#181818;stroke-width:1;"/><polygon fill="#181818" points="188.94,268.41,179.3612,266.1195,184.024,269.3224,180.8211,273.9852,188.94,268.41" style="stroke:#181818;stroke-width:1;"/></g><!--link Admin to UC_G5--><g class="link" data-entity-1="Admin" data-entity-2="UC_G5" data-source-line="21" data-uid="lnk16" id="link_Admin_UC_G5"><path d="M105.04,301.76 C130.24,306.3 155.2854,310.8146 181.6654,315.5746" fill="none" id="Admin-to-UC_G5" style="stroke:#181818;stroke-width:1;"/><polygon fill="#181818" points="187.57,316.64,179.4233,311.1054,182.6495,315.7521,178.0027,318.9783,187.57,316.64" style="stroke:#181818;stroke-width:1;"/></g><!--link Admin to UC_G6--><g class="link" data-entity-1="Admin" data-entity-2="UC_G6" data-source-line="22" data-uid="lnk17" id="link_Admin_UC_G6"><path d="M97.79,331.15 C110.9,341.88 125.94,352.83 141,361 C159.29,370.91 175.202,376.8833 194.012,382.3933" fill="none" id="Admin-to-UC_G6" style="stroke:#181818;stroke-width:1;"/><polygon fill="#181818" points="199.77,384.08,192.2574,377.7113,194.9716,382.6744,190.0085,385.3886,199.77,384.08" style="stroke:#181818;stroke-width:1;"/></g><!--link Admin to UC_G7--><g class="link" data-entity-1="Admin" data-entity-2="UC_G7" data-source-line="23" data-uid="lnk18" id="link_Admin_UC_G7"><path d="M71.83,331.2 C85.75,361.37 108.99,402.51 141,428 C154.53,438.77 165.7955,444.53 182.0655,449.93" fill="none" id="Admin-to-UC_G7" style="stroke:#181818;stroke-width:1;"/><polygon fill="#181818" points="187.76,451.82,180.4782,445.1886,183.0145,450.245,177.9582,452.7813,187.76,451.82" style="stroke:#181818;stroke-width:1;"/></g><!--link Admin to UC_G8--><g class="link" data-entity-1="Admin" data-entity-2="UC_G8" data-source-line="24" data-uid="lnk19" id="link_Admin_UC_G8"><path d="M62.38,331.03 C71.4,376.93 92.97,453.59 141,499 C153.5,510.81 164.3616,516.8916 180.5916,522.2416" fill="none" id="Admin-to-UC_G8" style="stroke:#181818;stroke-width:1;"/><polygon fill="#181818" points="186.29,524.12,178.9947,517.5035,181.5413,522.5547,176.4902,525.1013,186.29,524.12" style="stroke:#181818;stroke-width:1;"/></g><!--SRC=[RT0zZi8m40NWVaunIWK51VzKI2iAH86egD7Wc31QiD7OGGB4gJW25zkiGS8nSVViJy_s7FJEexSeNEmzvYnQURO6I7ahcFtaHpRil51k9KDo67O0u4JgbmgDsKeACdmbnS-7mGlEfJnPb-4Di5gbqufSnPHead3MQeUYzMmpxzODcpDxahKhIJXslRhJ-JzBo_e9Ed3rqcysQEfQiZvk9MR3EgEjyAlAHMZKW1RX4weQeexfkEdQZuta1E0E4EQCdSxqFQXwxYMvd-H1aeT97YLvdEJ97m00]--></g></svg>