<svg xmlns="http://www.w3.org/2000/svg" xmlns:xlink="http://www.w3.org/1999/xlink" contentStyleType="text/css" data-diagram-type="DESCRIPTION" height="442px" preserveAspectRatio="none" style="width:416px;height:442px;background:#FFFFFF;" version="1.1" viewBox="0 0 416 442" width="416px" zoomAndPan="magnify"><defs/><g><!--cluster Organizaci?n y Grupos--><g class="cluster" data-entity="Organizaci.n y Grupos" data-source-line="6" data-uid="ent0004" id="cluster_Organizaci.n y Grupos"><path d="M217.5,6 L397.0273,6 A3.75,3.75 0 0 1 399.5273,8.5 L406.5273,28.2969 L406.5,28.2969 A2.5,2.5 0 0 1 409,30.7969 L409,432.5 A2.5,2.5 0 0 1 406.5,435 L217.5,435 A2.5,2.5 0 0 1 215,432.5 L215,8.5 A2.5,2.5 0 0 1 217.5,6" fill="none" style="stroke:#000000;stroke-width:1.5;"/><line style="stroke:#000000;stroke-width:1.5;" x1="215" x2="406.5273" y1="28.2969" y2="28.2969"/><text fill="#000000" font-family="sans-serif" font-size="14" font-weight="bold" lengthAdjust="spacing" textLength="178.5273" x="219" y="20.9951">Organizaci&#243;n y Grupos</text></g><!--entity UC_G6--><g class="entity" data-entity="UC_G6" data-source-line="7" data-uid="ent0005" id="entity_UC_G6"><ellipse cx="312.2062" cy="402.9412" fill="#F1F1F1" rx="65.2062" ry="15.4412" style="stroke:#181818;stroke-width:0.5;"/><text fill="#000000" font-family="sans-serif" font-size="14" lengthAdjust="spacing" textLength="94.0146" x="265.1989" y="407.5897">abrirGrupos()</text></g><!--entity UC_G3--><g class="entity" data-entity="UC_G3" data-source-line="8" data-uid="ent0006" id="entity_UC_G3"><ellipse cx="312.1049" cy="57.021" fill="#F1F1F1" rx="65.6049" ry="15.521" style="stroke:#181818;stroke-width:0.5;"/><text fill="#000000" font-family="sans-serif" font-size="14" lengthAdjust="spacing" textLength="95.0674" x="264.5712" y="61.6694">editarGrupo()</text></g><!--entity UC_G2--><g class="entity" data-entity="UC_G2" data-source-line="9" data-uid="ent0007" id="entity_UC_G2"><ellipse cx="312.0012" cy="124.1002" fill="#F1F1F1" rx="71.0012" ry="16.6002" style="stroke:#181818;stroke-width:0.5;"/><text fill="#000000" font-family="sans-serif" font-size="14" lengthAdjust="spacing" textLength="108.8896" x="257.5564" y="128.7487">invitarUsuario()</text></g><!--entity UC_G5--><g class="entity" data-entity="UC_G5" data-source-line="10" data-uid="ent0008" id="entity_UC_G5"><ellipse cx="311.8871" cy="192.9774" fill="#F1F1F1" rx="72.8871" ry="16.9774" style="stroke:#181818;stroke-width:0.5;"/><text fill="#000000" font-family="sans-serif" font-size="14" lengthAdjust="spacing" textLength="113.5654" x="255.1044" y="197.6259">editarMiembro()</text></g><!--entity UC_G7--><g class="entity" data-entity="UC_G7" data-source-line="11" data-uid="ent0009" id="entity_UC_G7"><ellipse cx="311.8546" cy="334.1709" fill="#F1F1F1" rx="78.8546" ry="18.1709" style="stroke:#181818;stroke-width:0.5;"/><text fill="#000000" font-family="sans-serif" font-size="14" lengthAdjust="spacing" textLength="127.9688" x="247.8703" y="338.8194">abrirInvitaciones()</text></g><!--entity UC_G8--><g class="entity" data-entity="UC_G8" data-source-line="12" data-uid="ent0010" id="entity_UC_G8"><ellipse cx="312.1943" cy="263.0389" fill="#F1F1F1" rx="75.6943" ry="17.5389" style="stroke:#181818;stroke-width:0.5;"/><text fill="#000000" font-family="sans-serif" font-size="14" lengthAdjust="spacing" textLength="120.4082" x="251.9902" y="267.6873">editarInvitacion()</text></g><!--entity MiembroAdmin--><g class="entity" data-entity="MiembroAdmin" data-source-line="2" data-uid="ent0002" id="entity_MiembroAdmin"><ellipse cx="88.479" cy="178.5" fill="#F1F1F1" rx="8" ry="8" style="stroke:#181818;stroke-width:0.5;"/><path d="M88.479,186.5 L88.479,213.5 M75.479,194.5 L101.479,194.5 M88.479,213.5 L75.479,228.5 M88.479,213.5 L101.479,228.5" fill="none" style="stroke:#181818;stroke-width:0.5;"/><text fill="#000000" font-family="sans-serif" font-size="14" lengthAdjust="spacing" textLength="164.958" x="6" y="242.9951">Miembro Administrador</text></g><!--entity Miembro--><g class="entity" data-entity="Miembro" data-source-line="3" data-uid="ent0003" id="entity_Miembro"><ellipse cx="88.7139" cy="304.5" fill="#F1F1F1" rx="8" ry="8" style="stroke:#181818;stroke-width:0.5;"/><path d="M88.7139,312.5 L88.7139,339.5 M75.7139,320.5 L101.7139,320.5 M88.7139,339.5 L75.7139,354.5 M88.7139,339.5 L101.7139,354.5" fill="none" style="stroke:#181818;stroke-width:0.5;"/><text fill="#000000" font-family="sans-serif" font-size="14" lengthAdjust="spacing" textLength="61.4277" x="58" y="368.9951">Miembro</text></g><!--link MiembroAdmin to UC_G2--><g class="link" data-entity-1="MiembroAdmin" data-entity-2="UC_G2" data-source-line="16" data-uid="lnk11" id="link_MiembroAdmin_UC_G2"><path d="M171.31,172.12 C183.22,167.21 195.38,162.36 207,158 C226.92,150.52 243.5921,144.8982 262.4921,138.8882" fill="none" id="MiembroAdmin-to-UC_G2" style="stroke:#181818;stroke-width:1;"/><polygon fill="#181818" points="268.21,137.07,258.421,135.9854,263.4451,138.5852,260.8453,143.6092,268.21,137.07" style="stroke:#181818;stroke-width:1;"/></g><!--link MiembroAdmin to UC_G3--><g class="link" data-entity-1="MiembroAdmin" data-entity-2="UC_G3" data-source-line="17" data-uid="lnk12" id="link_MiembroAdmin_UC_G3"><path d="M118.96,169.97 C140.77,144.14 172.56,110.99 207,90 C223.82,79.75 238.3659,74.0107 256.5659,68.8707" fill="none" id="MiembroAdmin-to-UC_G3" style="stroke:#181818;stroke-width:1;"/><polygon fill="#181818" points="262.34,67.24,252.5916,65.8367,257.5282,68.5989,254.7659,73.5355,262.34,67.24" style="stroke:#181818;stroke-width:1;"/></g><!--link MiembroAdmin to UC_G5--><g class="link" data-entity-1="MiembroAdmin" data-entity-2="UC_G5" data-source-line="18" data-uid="lnk13" id="link_MiembroAdmin_UC_G5"><path d="M171.03,202.48 C194.23,200.91 213.2736,199.6137 235.6636,198.1037" fill="none" id="MiembroAdmin-to-UC_G5" style="stroke:#181818;stroke-width:1;"/><polygon fill="#181818" points="241.65,197.7,232.4012,194.3147,236.6613,198.0364,232.9395,202.2965,241.65,197.7" style="stroke:#181818;stroke-width:1;"/></g><!--link MiembroAdmin to UC_G6--><g class="link" data-entity-1="MiembroAdmin" data-entity-2="UC_G6" data-source-line="19" data-uid="lnk14" id="link_MiembroAdmin_UC_G6"><path d="M141.52,246.03 C152.25,255.59 162.78,266.45 171,278 C196.23,313.43 175.33,339.19 207,369 C220.63,381.82 233.3855,388.1807 251.0355,393.1607" fill="none" id="MiembroAdmin-to-UC_G6" style="stroke:#181818;stroke-width:1;"/><polygon fill="#181818" points="256.81,394.79,249.2344,388.4963,251.9979,393.4322,247.062,396.1957,256.81,394.79" style="stroke:#181818;stroke-width:1;"/></g><!--link MiembroAdmin to UC_G7--><g class="link" data-entity-1="MiembroAdmin" data-entity-2="UC_G7" data-source-line="20" data-uid="lnk15" id="link_MiembroAdmin_UC_G7"><path d="M132.39,246.19 C153.7,263.74 180.52,283.76 207,298 C223.74,307 237.4776,312.5839 254.9876,318.3139" fill="none" id="MiembroAdmin-to-UC_G7" style="stroke:#181818;stroke-width:1;"/><polygon fill="#181818" points="260.69,320.18,253.3804,313.5793,255.938,318.6249,250.8923,321.1825,260.69,320.18" style="stroke:#181818;stroke-width:1;"/></g><!--link MiembroAdmin to UC_G8--><g class="link" data-entity-1="MiembroAdmin" data-entity-2="UC_G8" data-source-line="21" data-uid="lnk16" id="link_MiembroAdmin_UC_G8"><path d="M171.03,228.25 C200.76,235.63 227.6968,242.3142 254.0368,248.8542" fill="none" id="MiembroAdmin-to-UC_G8" style="stroke:#181818;stroke-width:1;"/><polygon fill="#181818" points="259.86,250.3,252.0891,244.2491,255.0073,249.0951,250.1613,252.0134,259.86,250.3" style="stroke:#181818;stroke-width:1;"/></g><!--link Miembro to UC_G6--><g class="link" data-entity-1="Miembro" data-entity-2="UC_G6" data-source-line="23" data-uid="lnk17" id="link_Miembro_UC_G6"><path d="M119.37,343.31 C158.7,355.56 222.2014,375.3357 265.8014,388.9157" fill="none" id="Miembro-to-UC_G6" style="stroke:#181818;stroke-width:1;"/><polygon fill="#181818" points="271.53,390.7,264.1267,384.2046,266.7562,389.2131,261.7477,391.8426,271.53,390.7" style="stroke:#181818;stroke-width:1;"/></g><!--link Miembro to UC_G7--><g class="link" data-entity-1="Miembro" data-entity-2="UC_G7" data-source-line="24" data-uid="lnk18" id="link_Miembro_UC_G7"><path d="M119.37,334 C148.3,334 187.43,334 226.62,334" fill="none" id="Miembro-to-UC_G7" style="stroke:#181818;stroke-width:1;"/><polygon fill="#181818" points="232.62,334,223.62,330,227.62,334,223.62,338,232.62,334" style="stroke:#181818;stroke-width:1;"/></g><!--link Miembro to UC_G8--><g class="link" data-entity-1="Miembro" data-entity-2="UC_G8" data-source-line="25" data-uid="lnk19" id="link_Miembro_UC_G8"><path d="M119.37,324.42 C157.28,312.27 217.2667,293.0526 261.0067,279.0226" fill="none" id="Miembro-to-UC_G8" style="stroke:#181818;stroke-width:1;"/><polygon fill="#181818" points="266.72,277.19,256.9283,276.13,261.9589,278.7172,259.3718,283.7477,266.72,277.19" style="stroke:#181818;stroke-width:1;"/></g><!--SRC=[RP2z2i9048JxVOebbHOs1dygGIp4GgoiPRsSSL7lmjv5KF6fV0HVp1Y3ddfRpdmx3BFN6u_Ued2-zPYnQENP6Y3bhM0oPtrOYyLnTc33pWjbLX8aXurJ6pzqw0D0GMf7kSPa8JaPFfFY-ytW2QTI5jObU06ihdHQaQimMWlBoskrwwpbP3NjVqCwOqylAe3IRuZDyKajNKd28TUDXJMD0wmNAJQhCrMraGxh3MA97pOWXm1NW70-x7H6JQsedCRbNbpkn-L1N1w-g_m7_Fz-tXu0]--></g></svg>