<svg xmlns="http://www.w3.org/2000/svg" xmlns:xlink="http://www.w3.org/1999/xlink" contentStyleType="text/css" data-diagram-type="DESCRIPTION" height="434px" preserveAspectRatio="none" style="width:350px;height:434px;background:#FFFFFF;" version="1.1" viewBox="0 0 350 434" width="350px" zoomAndPan="magnify"><defs/><g><!--cluster Organizaci?n y Grupos--><g class="cluster" data-entity="Organizaci.n y Grupos" data-source-line="5" data-uid="ent0003" id="cluster_Organizaci.n y Grupos"><path d="M151.5,6 L331.0273,6 A3.75,3.75 0 0 1 333.5273,8.5 L340.5273,28.2969 L340.5,28.2969 A2.5,2.5 0 0 1 343,30.7969 L343,424.5 A2.5,2.5 0 0 1 340.5,427 L151.5,427 A2.5,2.5 0 0 1 149,424.5 L149,8.5 A2.5,2.5 0 0 1 151.5,6" fill="none" style="stroke:#000000;stroke-width:1.5;"/><line style="stroke:#000000;stroke-width:1.5;" x1="149" x2="340.5273" y1="28.2969" y2="28.2969"/><text fill="#000000" font-family="sans-serif" font-size="14" font-weight="bold" lengthAdjust="spacing" textLength="178.5273" x="153" y="20.9951">Organizaci&#243;n y Grupos</text></g><!--entity UC_G1--><g class="entity" data-entity="UC_G1" data-source-line="6" data-uid="ent0004" id="entity_UC_G1"><ellipse cx="245.7981" cy="56.1596" fill="#F1F1F1" rx="63.7981" ry="15.1596" style="stroke:#181818;stroke-width:0.5;"/><text fill="#000000" font-family="sans-serif" font-size="14" lengthAdjust="spacing" textLength="90.2549" x="200.6707" y="60.8081">crearGrupo()</text></g><!--entity UC_G2--><g class="entity" data-entity="UC_G2" data-source-line="7" data-uid="ent0005" id="entity_UC_G2"><ellipse cx="246.0012" cy="123.1002" fill="#F1F1F1" rx="71.0012" ry="16.6002" style="stroke:#181818;stroke-width:0.5;"/><text fill="#000000" font-family="sans-serif" font-size="14" lengthAdjust="spacing" textLength="108.8896" x="191.5564" y="127.7487">invitarUsuario()</text></g><!--entity UC_G3--><g class="entity" data-entity="UC_G3" data-source-line="8" data-uid="ent0006" id="entity_UC_G3"><ellipse cx="246.1049" cy="190.021" fill="#F1F1F1" rx="65.6049" ry="15.521" style="stroke:#181818;stroke-width:0.5;"/><text fill="#000000" font-family="sans-serif" font-size="14" lengthAdjust="spacing" textLength="95.0674" x="198.5712" y="194.6694">editarGrupo()</text></g><!--entity UC_G4--><g class="entity" data-entity="UC_G4" data-source-line="9" data-uid="ent0007" id="entity_UC_G4"><ellipse cx="245.8415" cy="257.7683" fill="#F1F1F1" rx="71.8415" ry="16.7683" style="stroke:#181818;stroke-width:0.5;"/><text fill="#000000" font-family="sans-serif" font-size="14" lengthAdjust="spacing" textLength="110.9814" x="190.3507" y="262.4167">eliminarGrupo()</text></g><!--entity UC_G5--><g class="entity" data-entity="UC_G5" data-source-line="10" data-uid="ent0008" id="entity_UC_G5"><ellipse cx="245.8871" cy="326.9774" fill="#F1F1F1" rx="72.8871" ry="16.9774" style="stroke:#181818;stroke-width:0.5;"/><text fill="#000000" font-family="sans-serif" font-size="14" lengthAdjust="spacing" textLength="113.5654" x="189.1044" y="331.6259">editarMiembro()</text></g><!--entity UC_G6--><g class="entity" data-entity="UC_G6" data-source-line="11" data-uid="ent0009" id="entity_UC_G6"><ellipse cx="246.2062" cy="394.9412" fill="#F1F1F1" rx="65.2062" ry="15.4412" style="stroke:#181818;stroke-width:0.5;"/><text fill="#000000" font-family="sans-serif" font-size="14" lengthAdjust="spacing" textLength="94.0146" x="199.1989" y="399.5897">abrirGrupos()</text></g><!--entity Admin--><g class="entity" data-entity="Admin" data-source-line="2" data-uid="ent0002" id="entity_Admin"><ellipse cx="55.54" cy="194.5" fill="#F1F1F1" rx="8" ry="8" style="stroke:#181818;stroke-width:0.5;"/><path d="M55.54,202.5 L55.54,229.5 M42.54,210.5 L68.54,210.5 M55.54,229.5 L42.54,244.5 M55.54,229.5 L68.54,244.5" fill="none" style="stroke:#181818;stroke-width:0.5;"/><text fill="#000000" font-family="sans-serif" font-size="14" lengthAdjust="spacing" textLength="99.0801" x="6" y="258.9951">Administrador</text></g><!--link Admin to UC_G1--><g class="link" data-entity-1="Admin" data-entity-2="UC_G1" data-source-line="15" data-uid="lnk10" id="link_Admin_UC_G1"><path d="M71.52,185.88 C85.31,155.55 108.55,114.16 141,89 C156.2,77.22 169.9015,71.169 187.9015,66.259" fill="none" id="Admin-to-UC_G1" style="stroke:#181818;stroke-width:1;"/><polygon fill="#181818" points="193.69,64.68,183.9546,63.1895,188.8662,65.9958,186.0599,70.9075,193.69,64.68" style="stroke:#181818;stroke-width:1;"/></g><!--link Admin to UC_G2--><g class="link" data-entity-1="Admin" data-entity-2="UC_G2" data-source-line="16" data-uid="lnk11" id="link_Admin_UC_G2"><path d="M98.72,185.73 C111.64,175.39 126.32,164.89 141,157 C158.32,147.69 172.885,142.0805 190.945,136.6405" fill="none" id="Admin-to-UC_G2" style="stroke:#181818;stroke-width:1;"/><polygon fill="#181818" points="196.69,134.91,186.9188,133.6757,191.9025,136.3521,189.2261,141.3358,196.69,134.91" style="stroke:#181818;stroke-width:1;"/></g><!--link Admin to UC_G3--><g class="link" data-entity-1="Admin" data-entity-2="UC_G3" data-source-line="17" data-uid="lnk12" id="link_Admin_UC_G3"><path d="M105.04,215.24 C132.1,210.36 159.8754,205.3556 187.4154,200.3856" fill="none" id="Admin-to-UC_G3" style="stroke:#181818;stroke-width:1;"/><polygon fill="#181818" points="193.32,199.32,183.7527,196.982,188.3995,200.208,185.1735,204.8548,193.32,199.32" style="stroke:#181818;stroke-width:1;"/></g><!--link Admin to UC_G4--><g class="link" data-entity-1="Admin" data-entity-2="UC_G4" data-source-line="18" data-uid="lnk13" id="link_Admin_UC_G4"><path d="M105.04,232.76 C130.46,237.34 155.8255,241.9139 182.3555,246.7039" fill="none" id="Admin-to-UC_G4" style="stroke:#181818;stroke-width:1;"/><polygon fill="#181818" points="188.26,247.77,180.1139,242.2345,183.3396,246.8816,178.6925,250.1073,188.26,247.77" style="stroke:#181818;stroke-width:1;"/></g><!--link Admin to UC_G5--><g class="link" data-entity-1="Admin" data-entity-2="UC_G5" data-source-line="19" data-uid="lnk14" id="link_Admin_UC_G5"><path d="M97.83,262.07 C110.95,272.8 125.97,283.77 141,292 C158.13,301.38 172.4828,307.0713 190.4128,312.6713" fill="none" id="Admin-to-UC_G5" style="stroke:#181818;stroke-width:1;"/><polygon fill="#181818" points="196.14,314.46,188.7417,307.9588,191.3674,312.9694,186.3568,315.595,196.14,314.46" style="stroke:#181818;stroke-width:1;"/></g><!--link Admin to UC_G6--><g class="link" data-entity-1="Admin" data-entity-2="UC_G6" data-source-line="20" data-uid="lnk15" id="link_Admin_UC_G6"><path d="M71.3,262.29 C85.03,293.06 108.29,335.24 141,361 C156.07,372.87 169.6672,379.0344 187.5972,384.1144" fill="none" id="Admin-to-UC_G6" style="stroke:#181818;stroke-width:1;"/><polygon fill="#181818" points="193.37,385.75,185.8012,379.4481,188.5594,384.387,183.6205,387.1452,193.37,385.75" style="stroke:#181818;stroke-width:1;"/></g><!--SRC=[RT2n3e8m40RW_PxYmgG3Ww2C9iQ1oJWvcxDKl2WjkHOJDJwLZ-2BYUW0rMv_- -NFNKzwxz5R52uF7WiMhJnR0wIy5OmMHSM6dHSgh4H83hiR0AX97QdK6Asb9CDNKlny6BnWBarjNOGtmFOqJYjoBLEYIRgtqRWhsYot-MHes9pPasnSGy9zbmoTBjuiB4i3TE9sqbys_TUrObtjfCzcGqOxuK-Lww4Cu0xGVGd6yVoxqp0dGKw3F0toBCZP2m00]--></g></svg>