<svg xmlns="http://www.w3.org/2000/svg" xmlns:xlink="http://www.w3.org/1999/xlink" contentStyleType="text/css" data-diagram-type="DESCRIPTION" height="435px" preserveAspectRatio="none" style="width:350px;height:435px;background:#FFFFFF;" version="1.1" viewBox="0 0 350 435" width="350px" zoomAndPan="magnify"><defs/><g><!--cluster Organizaci?n y Grupos--><g class="cluster" data-entity="Organizaci.n y Grupos" data-source-line="4" data-uid="ent0003" id="cluster_Organizaci.n y Grupos"><path d="M151.5,6 L331.0273,6 A3.75,3.75 0 0 1 333.5273,8.5 L340.5273,28.2969 L340.5,28.2969 A2.5,2.5 0 0 1 343,30.7969 L343,425.5 A2.5,2.5 0 0 1 340.5,428 L151.5,428 A2.5,2.5 0 0 1 149,425.5 L149,8.5 A2.5,2.5 0 0 1 151.5,6" fill="none" style="stroke:#000000;stroke-width:1.5;"/><line style="stroke:#000000;stroke-width:1.5;" x1="149" x2="340.5273" y1="28.2969" y2="28.2969"/><text fill="#000000" font-family="sans-serif" font-size="14" font-weight="bold" lengthAdjust="spacing" textLength="178.5273" x="153" y="20.9951">Organizaci&#243;n y Grupos</text></g><!--entity UC_G1--><g class="entity" data-entity="UC_G1" data-source-line="5" data-uid="ent0004" id="entity_UC_G1"><ellipse cx="245.7981" cy="56.1596" fill="#F1F1F1" rx="63.7981" ry="15.1596" style="stroke:#181818;stroke-width:0.5;"/><text fill="#000000" font-family="sans-serif" font-size="14" lengthAdjust="spacing" textLength="90.2549" x="200.6707" y="60.8081">crearGrupo()</text></g><!--entity UC_G2--><g class="entity" data-entity="UC_G2" data-source-line="6" data-uid="ent0005" id="entity_UC_G2"><ellipse cx="246.1396" cy="122.9279" fill="#F1F1F1" rx="70.1396" ry="16.4279" style="stroke:#181818;stroke-width:0.5;"/><text fill="#000000" font-family="sans-serif" font-size="14" lengthAdjust="spacing" textLength="106.7295" x="192.7748" y="127.5764">unirseAGrupo()</text></g><!--entity UC_G3--><g class="entity" data-entity="UC_G3" data-source-line="7" data-uid="ent0006" id="entity_UC_G3"><ellipse cx="246.0012" cy="191.1002" fill="#F1F1F1" rx="71.0012" ry="16.6002" style="stroke:#181818;stroke-width:0.5;"/><text fill="#000000" font-family="sans-serif" font-size="14" lengthAdjust="spacing" textLength="108.8896" x="191.5564" y="195.7487">invitarUsuario()</text></g><!--entity UC_G4--><g class="entity" data-entity="UC_G4" data-source-line="8" data-uid="ent0007" id="entity_UC_G4"><ellipse cx="246.1049" cy="258.021" fill="#F1F1F1" rx="65.6049" ry="15.521" style="stroke:#181818;stroke-width:0.5;"/><text fill="#000000" font-family="sans-serif" font-size="14" lengthAdjust="spacing" textLength="95.0674" x="198.5712" y="262.6694">editarGrupo()</text></g><!--entity UC_G5--><g class="entity" data-entity="UC_G5" data-source-line="9" data-uid="ent0008" id="entity_UC_G5"><ellipse cx="245.8415" cy="325.7683" fill="#F1F1F1" rx="71.8415" ry="16.7683" style="stroke:#181818;stroke-width:0.5;"/><text fill="#000000" font-family="sans-serif" font-size="14" lengthAdjust="spacing" textLength="110.9814" x="190.3507" y="330.4167">eliminarGrupo()</text></g><!--entity UC_G6--><g class="entity" data-entity="UC_G6" data-source-line="10" data-uid="ent0009" id="entity_UC_G6"><ellipse cx="245.8871" cy="394.9774" fill="#F1F1F1" rx="72.8871" ry="16.9774" style="stroke:#181818;stroke-width:0.5;"/><text fill="#000000" font-family="sans-serif" font-size="14" lengthAdjust="spacing" textLength="113.5654" x="189.1044" y="399.6259">editarMiembro()</text></g><!--entity Admin--><g class="entity" data-entity="Admin" data-source-line="2" data-uid="ent0002" id="entity_Admin"><ellipse cx="55.54" cy="195.5" fill="#F1F1F1" rx="8" ry="8" style="stroke:#181818;stroke-width:0.5;"/><path d="M55.54,203.5 L55.54,230.5 M42.54,211.5 L68.54,211.5 M55.54,230.5 L42.54,245.5 M55.54,230.5 L68.54,245.5" fill="none" style="stroke:#181818;stroke-width:0.5;"/><text fill="#000000" font-family="sans-serif" font-size="14" lengthAdjust="spacing" textLength="99.0801" x="6" y="259.9951">Administrador</text></g><!--link Admin to UC_G1--><g class="link" data-entity-1="Admin" data-entity-2="UC_G1" data-source-line="13" data-uid="lnk10" id="link_Admin_UC_G1"><path d="M71.31,186.91 C85.05,156.33 108.31,114.43 141,89 C156.18,77.2 169.8815,71.139 187.8815,66.229" fill="none" id="Admin-to-UC_G1" style="stroke:#181818;stroke-width:1;"/><polygon fill="#181818" points="193.67,64.65,183.9346,63.1595,188.8462,65.9658,186.0399,70.8775,193.67,64.65" style="stroke:#181818;stroke-width:1;"/></g><!--link Admin to UC_G2--><g class="link" data-entity-1="Admin" data-entity-2="UC_G2" data-source-line="14" data-uid="lnk11" id="link_Admin_UC_G2"><path d="M97.79,186.85 C110.9,176.12 125.94,165.17 141,157 C158.37,147.58 173.0434,141.9353 191.1634,136.4953" fill="none" id="Admin-to-UC_G2" style="stroke:#181818;stroke-width:1;"/><polygon fill="#181818" points="196.91,134.77,187.1399,133.5268,192.1212,136.2077,189.4403,141.1889,196.91,134.77" style="stroke:#181818;stroke-width:1;"/></g><!--link Admin to UC_G3--><g class="link" data-entity-1="Admin" data-entity-2="UC_G3" data-source-line="15" data-uid="lnk12" id="link_Admin_UC_G3"><path d="M105.04,216.24 C130.79,211.6 156.6251,206.934 183.3751,202.114" fill="none" id="Admin-to-UC_G3" style="stroke:#181818;stroke-width:1;"/><polygon fill="#181818" points="189.28,201.05,179.7133,198.7094,184.3592,201.9367,181.132,206.5826,189.28,201.05" style="stroke:#181818;stroke-width:1;"/></g><!--link Admin to UC_G4--><g class="link" data-entity-1="Admin" data-entity-2="UC_G4" data-source-line="16" data-uid="lnk13" id="link_Admin_UC_G4"><path d="M105.04,233.5 C131.99,238.22 159.5999,243.0455 187.0799,247.8555" fill="none" id="Admin-to-UC_G4" style="stroke:#181818;stroke-width:1;"/><polygon fill="#181818" points="192.99,248.89,184.8144,243.3982,188.0649,248.0279,183.4351,251.2784,192.99,248.89" style="stroke:#181818;stroke-width:1;"/></g><!--link Admin to UC_G5--><g class="link" data-entity-1="Admin" data-entity-2="UC_G5" data-source-line="17" data-uid="lnk14" id="link_Admin_UC_G5"><path d="M99.71,263.28 C112.41,273.24 126.74,283.32 141,291 C158.36,300.35 172.9519,306.0743 191.0119,311.7043" fill="none" id="Admin-to-UC_G5" style="stroke:#181818;stroke-width:1;"/><polygon fill="#181818" points="196.74,313.49,189.3383,306.9927,191.9666,312.0019,186.9574,314.6302,196.74,313.49" style="stroke:#181818;stroke-width:1;"/></g><!--link Admin to UC_G6--><g class="link" data-entity-1="Admin" data-entity-2="UC_G6" data-source-line="18" data-uid="lnk15" id="link_Admin_UC_G6"><path d="M71.78,263.27 C85.65,293.49 108.88,334.65 141,360 C155.13,371.15 167.2702,377.0598 184.2002,382.3198" fill="none" id="Admin-to-UC_G6" style="stroke:#181818;stroke-width:1;"/><polygon fill="#181818" points="189.93,384.1,182.5221,377.6098,185.1551,382.6165,180.1485,385.2496,189.93,384.1" style="stroke:#181818;stroke-width:1;"/></g><!--SRC=[RT2_3e8m40RmlKznOTA1GVwD9iI1oJWncxDKl0WjkHOJDJwLZ-2BYSG1ghTzrr- -vDgeemDdWAa-EQY8bNHaj43f34EGLorfiewnCXm0MXWtGdGeprWh27PSewORIdezDLoXuBupDe2xW65wgoJQWKbMoEFROZdsb9jziPgRNXDRbVigcYlI5tB8fUsHQUhYkLFLX_bbYOSQ6ixvPUc_hYsfzi1Jbec74EEFG1YklpVDS-JbsCk9brClPsy0]--></g></svg>