<svg xmlns="http://www.w3.org/2000/svg" xmlns:xlink="http://www.w3.org/1999/xlink" contentStyleType="text/css" data-diagram-type="DESCRIPTION" height="367px" preserveAspectRatio="none" style="width:350px;height:367px;background:#FFFFFF;" version="1.1" viewBox="0 0 350 367" width="350px" zoomAndPan="magnify"><defs/><g><!--cluster Organizaci?n y Grupos--><g class="cluster" data-entity="Organizaci.n y Grupos" data-source-line="4" data-uid="ent0003" id="cluster_Organizaci.n y Grupos"><path d="M151.5,6 L331.0273,6 A3.75,3.75 0 0 1 333.5273,8.5 L340.5273,28.2969 L340.5,28.2969 A2.5,2.5 0 0 1 343,30.7969 L343,357.5 A2.5,2.5 0 0 1 340.5,360 L151.5,360 A2.5,2.5 0 0 1 149,357.5 L149,8.5 A2.5,2.5 0 0 1 151.5,6" fill="none" style="stroke:#000000;stroke-width:1.5;"/><line style="stroke:#000000;stroke-width:1.5;" x1="149" x2="340.5273" y1="28.2969" y2="28.2969"/><text fill="#000000" font-family="sans-serif" font-size="14" font-weight="bold" lengthAdjust="spacing" textLength="178.5273" x="153" y="20.9951">Organizaci&#243;n y Grupos</text></g><!--entity UC_G1--><g class="entity" data-entity="UC_G1" data-source-line="5" data-uid="ent0004" id="entity_UC_G1"><ellipse cx="245.7981" cy="56.1596" fill="#F1F1F1" rx="63.7981" ry="15.1596" style="stroke:#181818;stroke-width:0.5;"/><text fill="#000000" font-family="sans-serif" font-size="14" lengthAdjust="spacing" textLength="90.2549" x="200.6707" y="60.8081">crearGrupo()</text></g><!--entity UC_G2--><g class="entity" data-entity="UC_G2" data-source-line="6" data-uid="ent0005" id="entity_UC_G2"><ellipse cx="246.0012" cy="123.1002" fill="#F1F1F1" rx="71.0012" ry="16.6002" style="stroke:#181818;stroke-width:0.5;"/><text fill="#000000" font-family="sans-serif" font-size="14" lengthAdjust="spacing" textLength="108.8896" x="191.5564" y="127.7487">invitarUsuario()</text></g><!--entity UC_G3--><g class="entity" data-entity="UC_G3" data-source-line="7" data-uid="ent0006" id="entity_UC_G3"><ellipse cx="246.1049" cy="190.021" fill="#F1F1F1" rx="65.6049" ry="15.521" style="stroke:#181818;stroke-width:0.5;"/><text fill="#000000" font-family="sans-serif" font-size="14" lengthAdjust="spacing" textLength="95.0674" x="198.5712" y="194.6694">editarGrupo()</text></g><!--entity UC_G4--><g class="entity" data-entity="UC_G4" data-source-line="8" data-uid="ent0007" id="entity_UC_G4"><ellipse cx="245.8415" cy="257.7683" fill="#F1F1F1" rx="71.8415" ry="16.7683" style="stroke:#181818;stroke-width:0.5;"/><text fill="#000000" font-family="sans-serif" font-size="14" lengthAdjust="spacing" textLength="110.9814" x="190.3507" y="262.4167">eliminarGrupo()</text></g><!--entity UC_G5--><g class="entity" data-entity="UC_G5" data-source-line="9" data-uid="ent0008" id="entity_UC_G5"><ellipse cx="245.8871" cy="326.9774" fill="#F1F1F1" rx="72.8871" ry="16.9774" style="stroke:#181818;stroke-width:0.5;"/><text fill="#000000" font-family="sans-serif" font-size="14" lengthAdjust="spacing" textLength="113.5654" x="189.1044" y="331.6259">editarMiembro()</text></g><!--entity Admin--><g class="entity" data-entity="Admin" data-source-line="2" data-uid="ent0002" id="entity_Admin"><ellipse cx="55.54" cy="160.5" fill="#F1F1F1" rx="8" ry="8" style="stroke:#181818;stroke-width:0.5;"/><path d="M55.54,168.5 L55.54,195.5 M42.54,176.5 L68.54,176.5 M55.54,195.5 L42.54,210.5 M55.54,195.5 L68.54,210.5" fill="none" style="stroke:#181818;stroke-width:0.5;"/><text fill="#000000" font-family="sans-serif" font-size="14" lengthAdjust="spacing" textLength="99.0801" x="6" y="224.9951">Administrador</text></g><!--link Admin to UC_G1--><g class="link" data-entity-1="Admin" data-entity-2="UC_G1" data-source-line="12" data-uid="lnk9" id="link_Admin_UC_G1"><path d="M80.52,151.72 C95.57,130.55 116.69,105.3 141,89 C157.44,77.98 172.0049,72.0415 190.3249,67.0015" fill="none" id="Admin-to-UC_G1" style="stroke:#181818;stroke-width:1;"/><polygon fill="#181818" points="196.11,65.41,186.3714,63.9406,191.2891,66.7363,188.4934,71.654,196.11,65.41" style="stroke:#181818;stroke-width:1;"/></g><!--link Admin to UC_G2--><g class="link" data-entity-1="Admin" data-entity-2="UC_G2" data-source-line="13" data-uid="lnk10" id="link_Admin_UC_G2"><path d="M105.03,170.51 C116.76,165.95 129.29,161.2 141,157 C161.21,149.76 178.126,144.1104 197.106,138.0304" fill="none" id="Admin-to-UC_G2" style="stroke:#181818;stroke-width:1;"/><polygon fill="#181818" points="202.82,136.2,193.0288,135.1363,198.0583,137.7253,195.4693,142.7549,202.82,136.2" style="stroke:#181818;stroke-width:1;"/></g><!--link Admin to UC_G3--><g class="link" data-entity-1="Admin" data-entity-2="UC_G3" data-source-line="14" data-uid="lnk11" id="link_Admin_UC_G3"><path d="M105.04,190 C127.95,190 149.61,190 174.27,190" fill="none" id="Admin-to-UC_G3" style="stroke:#181818;stroke-width:1;"/><polygon fill="#181818" points="180.27,190,171.27,186,175.27,190,171.27,194,180.27,190" style="stroke:#181818;stroke-width:1;"/></g><!--link Admin to UC_G4--><g class="link" data-entity-1="Admin" data-entity-2="UC_G4" data-source-line="15" data-uid="lnk12" id="link_Admin_UC_G4"><path d="M105.05,209.42 C116.78,213.98 129.31,218.75 141,223 C161.23,230.35 178.1749,236.1416 197.1449,242.4316" fill="none" id="Admin-to-UC_G4" style="stroke:#181818;stroke-width:1;"/><polygon fill="#181818" points="202.84,244.32,195.5563,237.6907,198.0941,242.7464,193.0385,245.2842,202.84,244.32" style="stroke:#181818;stroke-width:1;"/></g><!--link Admin to UC_G5--><g class="link" data-entity-1="Admin" data-entity-2="UC_G5" data-source-line="16" data-uid="lnk13" id="link_Admin_UC_G5"><path d="M80.2,228 C95.28,249.44 116.55,275.21 141,292 C156.31,302.52 169.3182,308.3262 186.6382,313.6862" fill="none" id="Admin-to-UC_G5" style="stroke:#181818;stroke-width:1;"/><polygon fill="#181818" points="192.37,315.46,184.9548,308.9781,187.5935,313.9818,182.5898,316.6205,192.37,315.46" style="stroke:#181818;stroke-width:1;"/></g><!--SRC=[ROyz3i8m34RtdCBA10C3_LcH44CdnDGPcIGKYpQfd1G94AVY25oCKZ6q0M_FVlhqkJR70C41KtKAe8cD2kIiG1KSWrphXYpvmAWTIq0FmqQ85jKPAmDonnLQkg6YrzF25GhkMkSbt0NqqtcZqFUQOeCyt6Rp8QVSx8lbr25xeO1S-WwPnbuozOp-Q75O6aarzKL_jUnVrfPCS-2nbek74CEli5Yilcsdd4ISHfn5dBy1]--></g></svg>