<svg xmlns="http://www.w3.org/2000/svg" xmlns:xlink="http://www.w3.org/1999/xlink" contentStyleType="text/css" data-diagram-type="DESCRIPTION" height="392px" preserveAspectRatio="none" style="width:654px;height:392px;background:#FFFFFF;" version="1.1" viewBox="0 0 654 392" width="654px" zoomAndPan="magnify"><defs/><g><!--cluster Organizaci?n y Grupos--><g class="cluster" data-entity="Organizaci.n y Grupos" data-source-line="5" data-uid="ent0004" id="cluster_Organizaci.n y Grupos"><path d="M154.5,6 L334.0273,6 A3.75,3.75 0 0 1 336.5273,8.5 L343.5273,28.2969 L644.5,28.2969 A2.5,2.5 0 0 1 647,30.7969 L647,382.5 A2.5,2.5 0 0 1 644.5,385 L154.5,385 A2.5,2.5 0 0 1 152,382.5 L152,8.5 A2.5,2.5 0 0 1 154.5,6" fill="none" style="stroke:#000000;stroke-width:1.5;"/><line style="stroke:#000000;stroke-width:1.5;" x1="152" x2="343.5273" y1="28.2969" y2="28.2969"/><text fill="#000000" font-family="sans-serif" font-size="14" font-weight="bold" lengthAdjust="spacing" textLength="178.5273" x="156" y="20.9951">Organizaci&#243;n y Grupos</text></g><!--entity UC_G1--><g class="entity" data-entity="UC_G1" data-source-line="6" data-uid="ent0005" id="entity_UC_G1"><ellipse cx="274.1852" cy="206.837" fill="#F1F1F1" rx="62.1852" ry="14.837" style="stroke:#181818;stroke-width:0.5;"/><text fill="#000000" font-family="sans-serif" font-size="14" lengthAdjust="spacing" textLength="85.8594" x="231.2555" y="211.4855">Crear Grupo</text></g><!--entity UC_G2--><g class="entity" data-entity="UC_G2" data-source-line="7" data-uid="ent0006" id="entity_UC_G2"><ellipse cx="273.9867" cy="139.7973" fill="#F1F1F1" rx="69.4867" ry="16.2973" style="stroke:#181818;stroke-width:0.5;"/><text fill="#000000" font-family="sans-serif" font-size="14" lengthAdjust="spacing" textLength="105.082" x="221.4457" y="144.4458">Unirse a Grupo</text></g><!--entity UC_G3--><g class="entity" data-entity="UC_G3" data-source-line="8" data-uid="ent0007" id="entity_UC_G3"><ellipse cx="273.9261" cy="274.1852" fill="#F1F1F1" rx="71.4261" ry="16.6852" style="stroke:#181818;stroke-width:0.5;"/><text fill="#000000" font-family="sans-serif" font-size="14" lengthAdjust="spacing" textLength="109.9492" x="218.9515" y="278.8337">Invitar Usuarios</text></g><!--entity UC_G4--><g class="entity" data-entity="UC_G4" data-source-line="9" data-uid="ent0008" id="entity_UC_G4"><ellipse cx="273.8301" cy="65.066" fill="#F1F1F1" rx="105.8301" ry="23.566" style="stroke:#181818;stroke-width:0.5;"/><text fill="#000000" font-family="sans-serif" font-size="14" lengthAdjust="spacing" textLength="188.8291" x="179.4156" y="69.7145">Visualizar Tareas de Grupo</text></g><!--entity UC_G5--><g class="entity" data-entity="UC_G5" data-source-line="10" data-uid="ent0009" id="entity_UC_G5"><ellipse cx="273.8899" cy="347.178" fill="#F1F1F1" rx="96.3899" ry="21.678" style="stroke:#181818;stroke-width:0.5;"/><text fill="#000000" font-family="sans-serif" font-size="14" lengthAdjust="spacing" textLength="168.0684" x="189.8557" y="351.8264">Asignar Tarea a Usuario</text></g><!--entity UC_G6--><g class="entity" data-entity="UC_G6" data-source-line="12" data-uid="ent0010" id="entity_UC_G6"><ellipse cx="567.0395" cy="274.2079" fill="#F1F1F1" rx="64.0395" ry="15.2079" style="stroke:#181818;stroke-width:0.5;"/><text fill="#000000" font-family="sans-serif" font-size="14" lengthAdjust="spacing" textLength="90.9043" x="521.5874" y="278.8563">Modificar Rol</text></g><!--entity Admin--><g class="entity" data-entity="Admin" data-source-line="2" data-uid="ent0002" id="entity_Admin"><ellipse cx="55.54" cy="192.5" fill="#F1F1F1" rx="8" ry="8" style="stroke:#181818;stroke-width:0.5;"/><path d="M55.54,200.5 L55.54,227.5 M42.54,208.5 L68.54,208.5 M55.54,227.5 L42.54,242.5 M55.54,227.5 L68.54,242.5" fill="none" style="stroke:#181818;stroke-width:0.5;"/><text fill="#000000" font-family="sans-serif" font-size="14" lengthAdjust="spacing" textLength="99.0801" x="6" y="256.9951">Administrador</text></g><!--entity Miem--><g class="entity" data-entity="Miem" data-source-line="3" data-uid="ent0003" id="entity_Miem"><ellipse cx="55.7139" cy="55.5" fill="#F1F1F1" rx="8" ry="8" style="stroke:#181818;stroke-width:0.5;"/><path d="M55.7139,63.5 L55.7139,90.5 M42.7139,71.5 L68.7139,71.5 M55.7139,90.5 L42.7139,105.5 M55.7139,90.5 L68.7139,105.5" fill="none" style="stroke:#181818;stroke-width:0.5;"/><text fill="#000000" font-family="sans-serif" font-size="14" lengthAdjust="spacing" textLength="61.4277" x="25" y="119.9951">Miembro</text></g><!--link Admin to UC_G1--><g class="link" data-entity-1="Admin" data-entity-2="UC_G1" data-source-line="15" data-uid="lnk11" id="link_Admin_UC_G1"><path d="M105.09,218.63 C137.38,216.4 173.9844,213.8648 208.1844,211.4948" fill="none" id="Admin-to-UC_G1" style="stroke:#181818;stroke-width:1;"/><polygon fill="#181818" points="214.17,211.08,204.915,207.7118,209.182,211.4257,205.4681,215.6926,214.17,211.08" style="stroke:#181818;stroke-width:1;"/></g><!--link Admin to UC_G2--><g class="link" data-entity-1="Admin" data-entity-2="UC_G2" data-source-line="16" data-uid="lnk12" id="link_Admin_UC_G2"><path d="M105.07,193.38 C117.5,186.77 131.02,180.17 144,175 C169.01,165.04 192.0128,158.3495 216.0628,152.4495" fill="none" id="Admin-to-UC_G2" style="stroke:#181818;stroke-width:1;"/><polygon fill="#181818" points="221.89,151.02,212.1962,149.2795,217.034,152.2113,214.1022,157.0491,221.89,151.02" style="stroke:#181818;stroke-width:1;"/></g><!--link Miem to UC_G2--><g class="link" data-entity-1="Miem" data-entity-2="UC_G2" data-source-line="17" data-uid="lnk13" id="link_Miem_UC_G2"><path d="M86.15,92.53 C122.17,101.68 177.5548,115.7523 220.0548,126.5523" fill="none" id="Miem-to-UC_G2" style="stroke:#181818;stroke-width:1;"/><polygon fill="#181818" points="225.87,128.03,218.1324,121.9366,221.024,126.7986,216.1621,129.6902,225.87,128.03" style="stroke:#181818;stroke-width:1;"/></g><!--link Admin to UC_G3--><g class="link" data-entity-1="Admin" data-entity-2="UC_G3" data-source-line="18" data-uid="lnk14" id="link_Admin_UC_G3"><path d="M105.09,233.67 C140.49,242.17 182.446,252.2485 217.996,260.7885" fill="none" id="Admin-to-UC_G3" style="stroke:#181818;stroke-width:1;"/><polygon fill="#181818" points="223.83,262.19,216.0133,256.1984,218.9683,261.0221,214.1446,263.9771,223.83,262.19" style="stroke:#181818;stroke-width:1;"/></g><!--link Admin to UC_G4--><g class="link" data-entity-1="Admin" data-entity-2="UC_G4" data-source-line="19" data-uid="lnk15" id="link_Admin_UC_G4"><path d="M76.86,183.88 C92.21,158.49 115.49,126.19 144,106 C159.44,95.07 172.2241,88.846 190.3141,82.856" fill="none" id="Admin-to-UC_G4" style="stroke:#181818;stroke-width:1;"/><polygon fill="#181818" points="196.01,80.97,186.2088,80.0018,191.2634,82.5417,188.7236,87.5963,196.01,80.97" style="stroke:#181818;stroke-width:1;"/></g><!--link Miem to UC_G4--><g class="link" data-entity-1="Miem" data-entity-2="UC_G4" data-source-line="20" data-uid="lnk16" id="link_Miem_UC_G4"><path d="M86.15,82.26 C109.43,80.11 137.2454,77.5418 169.7254,74.5418" fill="none" id="Miem-to-UC_G4" style="stroke:#181818;stroke-width:1;"/><polygon fill="#181818" points="175.7,73.99,166.3703,70.8347,170.7212,74.4499,167.106,78.8008,175.7,73.99" style="stroke:#181818;stroke-width:1;"/></g><!--link Admin to UC_G5--><g class="link" data-entity-1="Admin" data-entity-2="UC_G5" data-source-line="21" data-uid="lnk17" id="link_Admin_UC_G5"><path d="M87.72,260.16 C103.13,276.88 122.93,295.51 144,308 C161.91,318.62 177.205,324.8731 197.045,330.7231" fill="none" id="Admin-to-UC_G5" style="stroke:#181818;stroke-width:1;"/><polygon fill="#181818" points="202.8,332.42,195.2987,326.0379,198.0041,331.0059,193.0362,333.7113,202.8,332.42" style="stroke:#181818;stroke-width:1;"/></g><!--reverse link UC_G3 to UC_G6--><g class="link" data-entity-1="UC_G3" data-entity-2="UC_G6" data-source-line="22" data-uid="lnk18" id="link_UC_G3_UC_G6"><path d="M351.81,274 C399.76,274 456.55,274 502.81,274" fill="none" id="UC_G3-backto-UC_G6" style="stroke:#181818;stroke-width:1;stroke-dasharray:7,7;"/><polygon fill="#181818" points="345.81,274,354.81,278,350.81,274,354.81,270,345.81,274" style="stroke:#181818;stroke-width:1;"/><text fill="#000000" font-family="sans-serif" font-size="13" lengthAdjust="spacing" textLength="61.1851" x="411" y="270.0669">&#171;extend&#187;</text></g><!--SRC=[dP5DQiCm48NtEiNWVG9Dd2wACOGiGXUXKEfkorHItA6E54PowGyvLO_GYrLMVeXC0wRUoAFtQUP9hz5h3zu2K_tYGH5hwSaQWT9RXcokDcJ8UKPbEGDq47UEyehqvfbj5Bf_8ROeNx7MaDrnZOO-KTBFju4FM7AxjIw3Bm7XQvsMw0AsO8sy5sENQl6ql4gHoX275NlK9ALkpHlvqEhSKeTDK-oHN8jDyCNmW66s0wLxZVFqnDnHROxu2Pf5A2LNLj6QP63lRNCYhyLEYFXgC1gLXmkczKHqhi_AL9xswZp5yvuy4_4G5EFntW3SG57eTw-DAaiXekc1EGtCQdXUVsPMXKoOkgb9QFyBxd9umT9XKY_6tIy0]--></g></svg>