<svg xmlns="http://www.w3.org/2000/svg" xmlns:xlink="http://www.w3.org/1999/xlink" contentStyleType="text/css" data-diagram-type="CLASS" height="542px" preserveAspectRatio="none" style="width:1096px;height:542px;background:#FFFFFF;" version="1.1" viewBox="0 0 1096 542" width="1096px" zoomAndPan="magnify"><defs/><g><!--cluster Nivel 1--><g class="cluster" data-entity="Nivel 1" data-source-line="5" data-uid="ent0002" id="cluster_Nivel 1"><path d="M405.5,295.19 L461.0508,295.19 A3.75,3.75 0 0 1 463.5508,297.69 L470.5508,317.4869 L771.5,317.4869 A2.5,2.5 0 0 1 774,319.9869 L774,388.29 A2.5,2.5 0 0 1 771.5,390.79 L405.5,390.79 A2.5,2.5 0 0 1 403,388.29 L403,297.69 A2.5,2.5 0 0 1 405.5,295.19" fill="none" style="stroke:#000000;stroke-width:1.5;"/><line style="stroke:#000000;stroke-width:1.5;" x1="403" x2="470.5508" y1="317.4869" y2="317.4869"/><text fill="#000000" font-family="sans-serif" font-size="14" font-weight="bold" lengthAdjust="spacing" textLength="54.5508" x="407" y="310.1851">Nivel 1</text></g><!--cluster Nivel 2--><g class="cluster" data-entity="Nivel 2" data-source-line="12" data-uid="ent0004" id="cluster_Nivel 2"><path d="M593.5,6 L649.0508,6 A3.75,3.75 0 0 1 651.5508,8.5 L658.5508,28.2969 L866.5,28.2969 A2.5,2.5 0 0 1 869,30.7969 L869,99.1 A2.5,2.5 0 0 1 866.5,101.6 L593.5,101.6 A2.5,2.5 0 0 1 591,99.1 L591,8.5 A2.5,2.5 0 0 1 593.5,6" fill="none" style="stroke:#000000;stroke-width:1.5;"/><line style="stroke:#000000;stroke-width:1.5;" x1="591" x2="658.5508" y1="28.2969" y2="28.2969"/><text fill="#000000" font-family="sans-serif" font-size="14" font-weight="bold" lengthAdjust="spacing" textLength="54.5508" x="595" y="20.9951">Nivel 2</text></g><!--cluster Nivel 3--><g class="cluster" data-entity="Nivel 3" data-source-line="19" data-uid="ent0006" id="cluster_Nivel 3"><path d="M641.5,150.6 L697.0508,150.6 A3.75,3.75 0 0 1 699.5508,153.1 L706.5508,172.8969 L818.5,172.8969 A2.5,2.5 0 0 1 821,175.3969 L821,243.69 A2.5,2.5 0 0 1 818.5,246.19 L641.5,246.19 A2.5,2.5 0 0 1 639,243.69 L639,153.1 A2.5,2.5 0 0 1 641.5,150.6" fill="none" style="stroke:#000000;stroke-width:1.5;"/><line style="stroke:#000000;stroke-width:1.5;" x1="639" x2="706.5508" y1="172.8969" y2="172.8969"/><text fill="#000000" font-family="sans-serif" font-size="14" font-weight="bold" lengthAdjust="spacing" textLength="54.5508" x="643" y="165.5951">Nivel 3</text></g><!--cluster Nivel 4--><g class="cluster" data-entity="Nivel 4" data-source-line="26" data-uid="ent0008" id="cluster_Nivel 4"><path d="M8.5,439.79 L64.0508,439.79 A3.75,3.75 0 0 1 66.5508,442.29 L73.5508,462.0869 L1086.5,462.0869 A2.5,2.5 0 0 1 1089,464.5869 L1089,532.88 A2.5,2.5 0 0 1 1086.5,535.38 L8.5,535.38 A2.5,2.5 0 0 1 6,532.88 L6,442.29 A2.5,2.5 0 0 1 8.5,439.79" fill="none" style="stroke:#000000;stroke-width:1.5;"/><line style="stroke:#000000;stroke-width:1.5;" x1="6" x2="73.5508" y1="462.0869" y2="462.0869"/><text fill="#000000" font-family="sans-serif" font-size="14" font-weight="bold" lengthAdjust="spacing" textLength="54.5508" x="10" y="454.7851">Nivel 4</text></g><g class="entity" data-entity="tarea1" data-source-line="6" data-uid="ent0003" id="entity_tarea1"><rect fill="#F1F1F1" height="44.5938" rx="2.5" ry="2.5" style="stroke:#181818;stroke-width:0.5;" width="218.7393" x="418.63" y="330.19"/><text fill="#000000" font-family="sans-serif" font-size="14" lengthAdjust="spacing" textLength="45.9238" x="505.0377" y="345.1851">tarea1</text><line style="stroke:#181818;stroke-width:0.5;" x1="419.63" x2="636.3693" y1="350.4869" y2="350.4869"/><text fill="#000000" font-family="sans-serif" font-size="14" lengthAdjust="spacing" textLength="206.7393" x="424.63" y="367.482">titulo = "Recoger a los ni&#241;os"</text></g><g class="entity" data-entity="usuario1" data-source-line="13" data-uid="ent0005" id="entity_usuario1"><rect fill="#F1F1F1" height="44.5938" rx="2.5" ry="2.5" style="stroke:#181818;stroke-width:0.5;" width="245.5361" x="607.23" y="41"/><text fill="#000000" font-family="sans-serif" font-size="14" lengthAdjust="spacing" textLength="60.7373" x="699.6294" y="55.9951">usuario1</text><line style="stroke:#181818;stroke-width:0.5;" x1="608.23" x2="851.7661" y1="61.2969" y2="61.2969"/><text fill="#000000" font-family="sans-serif" font-size="14" lengthAdjust="spacing" textLength="233.5361" x="613.23" y="78.292">nombre = "Jos&#233; Manuel Bre&#241;osa"</text></g><g class="entity" data-entity="grupo1" data-source-line="20" data-uid="ent0007" id="entity_grupo1"><rect fill="#F1F1F1" height="44.5938" rx="2.5" ry="2.5" style="stroke:#181818;stroke-width:0.5;" width="150.3594" x="654.82" y="185.6"/><text fill="#000000" font-family="sans-serif" font-size="14" lengthAdjust="spacing" textLength="49.875" x="705.0622" y="200.5951">grupo1</text><line style="stroke:#181818;stroke-width:0.5;" x1="655.82" x2="804.1794" y1="205.8969" y2="205.8969"/><text fill="#000000" font-family="sans-serif" font-size="14" lengthAdjust="spacing" textLength="138.3594" x="660.82" y="222.892">nombre = "Familia"</text></g><g class="entity" data-entity="conflictoHorario1" data-source-line="27" data-uid="ent0009" id="entity_conflictoHorario1"><rect fill="#F1F1F1" height="44.5938" rx="2.5" ry="2.5" style="stroke:#181818;stroke-width:0.5;" width="245.1807" x="827.41" y="474.79"/><text fill="#000000" font-family="sans-serif" font-size="14" lengthAdjust="spacing" textLength="120.1416" x="889.9295" y="489.7851">conflictoHorario1</text><line style="stroke:#181818;stroke-width:0.5;" x1="828.41" x2="1071.5907" y1="495.0869" y2="495.0869"/><text fill="#000000" font-family="sans-serif" font-size="14" lengthAdjust="spacing" textLength="233.1807" x="833.41" y="512.082">tipo = "Solapamiento de horario"</text></g><g class="entity" data-entity="localizacion1" data-source-line="30" data-uid="ent0010" id="entity_localizacion1"><rect fill="#F1F1F1" height="44.5938" rx="2.5" ry="2.5" style="stroke:#181818;stroke-width:0.5;" width="133.6797" x="22.16" y="474.79"/><text fill="#000000" font-family="sans-serif" font-size="14" lengthAdjust="spacing" textLength="90.3711" x="43.8143" y="489.7851">localizacion1</text><line style="stroke:#181818;stroke-width:0.5;" x1="23.16" x2="154.8397" y1="495.0869" y2="495.0869"/><text fill="#000000" font-family="sans-serif" font-size="14" lengthAdjust="spacing" textLength="121.6797" x="28.16" y="512.082">lugar = "Colegio"</text></g><g class="entity" data-entity="horario1" data-source-line="33" data-uid="ent0011" id="entity_horario1"><rect fill="#F1F1F1" height="44.5938" rx="2.5" ry="2.5" style="stroke:#181818;stroke-width:0.5;" width="126.5156" x="190.74" y="474.79"/><text fill="#000000" font-family="sans-serif" font-size="14" lengthAdjust="spacing" textLength="58.8916" x="224.552" y="489.7851">horario1</text><line style="stroke:#181818;stroke-width:0.5;" x1="191.74" x2="316.2556" y1="495.0869" y2="495.0869"/><text fill="#000000" font-family="sans-serif" font-size="14" lengthAdjust="spacing" textLength="114.5156" x="196.74" y="512.082">rango = "14:30"</text></g><g class="entity" data-entity="recordatorio1" data-source-line="36" data-uid="ent0012" id="entity_recordatorio1"><rect fill="#F1F1F1" height="44.5938" rx="2.5" ry="2.5" style="stroke:#181818;stroke-width:0.5;" width="171.6396" x="352.18" y="474.79"/><text fill="#000000" font-family="sans-serif" font-size="14" lengthAdjust="spacing" textLength="95.0264" x="390.4866" y="489.7851">recordatorio1</text><line style="stroke:#181818;stroke-width:0.5;" x1="353.18" x2="522.8196" y1="495.0869" y2="495.0869"/><text fill="#000000" font-family="sans-serif" font-size="14" lengthAdjust="spacing" textLength="159.6396" x="358.18" y="512.082">medio = "Notificaci&#243;n"</text></g><g class="entity" data-entity="relacionTareas1" data-source-line="39" data-uid="ent0013" id="entity_relacionTareas1"><rect fill="#F1F1F1" height="44.5938" rx="2.5" ry="2.5" style="stroke:#181818;stroke-width:0.5;" width="233.4639" x="559.27" y="474.79"/><text fill="#000000" font-family="sans-serif" font-size="14" lengthAdjust="spacing" textLength="112.1436" x="619.9302" y="489.7851">relacionTareas1</text><line style="stroke:#181818;stroke-width:0.5;" x1="560.27" x2="791.7339" y1="495.0869" y2="495.0869"/><text fill="#000000" font-family="sans-serif" font-size="14" lengthAdjust="spacing" textLength="221.4639" x="565.27" y="512.082">tipo = "No tiene dependencias"</text></g><!--reverse link grupo1 to tarea1--><g class="link" data-entity-1="grupo1" data-entity-2="tarea1" data-link-type="composition" data-source-line="45" data-uid="lnk14" id="link_grupo1_tarea1"><path codeLine="45" d="M689.5164,237.4702 C651.4364,264.3502 596.69,303 558.64,329.86" fill="none" id="grupo1-backto-tarea1" style="stroke:#181818;stroke-width:1;"/><polygon fill="#181818" points="699.32,230.55,692.1115,230.7422,689.5164,237.4702,696.7249,237.278,699.32,230.55" style="stroke:#181818;stroke-width:1;"/><polygon fill="#000000" points="662.0847,267.8729,653.0005,270.6883,656.3903,275.4902,662.0847,267.8729" style="stroke:#000000;stroke-width:1;"/><text fill="#000000" font-family="sans-serif" font-size="13" lengthAdjust="spacing" textLength="91.0127" x="667" y="275.2569">es gestionada</text></g><!--reverse link usuario1 to tarea1--><g class="link" data-entity-1="usuario1" data-entity-2="tarea1" data-link-type="aggregation" data-source-line="46" data-uid="lnk15" id="link_usuario1_tarea1"><path codeLine="46" d="M617.49,90.2494 C586.53,101.9094 566.71,115.49 547,142.6 C505.78,199.3 515.81,288.84 523.32,329.77" fill="none" id="usuario1-backto-tarea1" style="stroke:#181818;stroke-width:1;"/><polygon fill="none" points="628.72,86.02,621.6952,84.3914,617.49,90.2494,624.5148,91.878,628.72,86.02" style="stroke:#181818;stroke-width:1;"/><polygon fill="#000000" points="550.1705,212.6197,556.2152,205.2772,550.745,203.1265,550.1705,212.6197" style="stroke:#000000;stroke-width:1;"/><text fill="#000000" font-family="sans-serif" font-size="13" lengthAdjust="spacing" textLength="77.6191" x="561" y="212.4669">participa en</text></g><!--reverse link usuario1 to grupo1--><g class="link" data-entity-1="usuario1" data-entity-2="grupo1" data-link-type="aggregation" data-source-line="47" data-uid="lnk16" id="link_usuario1_grupo1"><path codeLine="47" d="M730,97.96 C730,124.92 730,158.67 730,185.5" fill="none" id="usuario1-backto-grupo1" style="stroke:#181818;stroke-width:1;"/><polygon fill="none" points="730,85.96,726,91.96,730,97.96,734,91.96,730,85.96" style="stroke:#181818;stroke-width:1;"/><polygon fill="#000000" points="735,131.1664,737.9389,122.1213,732.0611,122.1213,735,131.1664" style="stroke:#000000;stroke-width:1;"/><text fill="#000000" font-family="sans-serif" font-size="13" lengthAdjust="spacing" textLength="78.1714" x="744" y="130.6669">pertenece a</text></g><!--reverse link tarea1 to tarea1--><g class="link" data-entity-1="tarea1" data-entity-2="tarea1" data-link-type="composition" data-source-line="48" data-uid="lnk17" id="link_tarea1_tarea1"><path codeLine="48" d="M649.8219,342.161 C670.0919,343.551 672.37,346.45 672.37,352.49 C672.37,358.53 658.12,362.25 637.85,363.64" fill="none" id="tarea1-backto-tarea1" style="stroke:#181818;stroke-width:1;"/><polygon fill="#181818" points="637.85,341.34,643.5623,345.7411,649.8219,342.161,644.1096,337.7599,637.85,341.34" style="stroke:#181818;stroke-width:1;"/><polygon fill="#000000" points="677.7121,357.5447,680.0253,348.3197,674.1612,348.7219,677.7121,357.5447" style="stroke:#000000;stroke-width:1;"/><text fill="#000000" font-family="sans-serif" font-size="13" lengthAdjust="spacing" textLength="78.019" x="691.37" y="357.0569">subtarea de</text></g><!--reverse link tarea1 to conflictoHorario1--><g class="link" data-entity-1="tarea1" data-entity-2="conflictoHorario1" data-link-type="dependency" data-source-line="51" data-uid="lnk18" id="link_tarea1_conflictoHorario1"><path codeLine="51" d="M628.2007,376.6757 C683.6207,390.5357 748.77,408.75 810,431.79 C843.17,444.27 879.51,461.05 906.85,474.34" fill="none" id="tarea1-backto-conflictoHorario1" style="stroke:#181818;stroke-width:1;"/><polygon fill="#181818" points="622.38,375.22,630.1406,381.284,627.2306,376.4331,632.0816,373.5231,622.38,375.22" style="stroke:#181818;stroke-width:1;"/><polygon fill="#000000" points="787.2814,413.7026,794.8453,419.4679,796.7895,413.9209,787.2814,413.7026" style="stroke:#000000;stroke-width:1;"/><text fill="#000000" font-family="sans-serif" font-size="13" lengthAdjust="spacing" textLength="52.8506" x="801" y="419.8569">afecta a</text></g><!--reverse link usuario1 to conflictoHorario1--><g class="link" data-entity-1="usuario1" data-entity-2="conflictoHorario1" data-link-type="dependency" data-source-line="52" data-uid="lnk19" id="link_usuario1_conflictoHorario1"><path codeLine="52" d="M794.8098,88.7649 C810.0698,96.7249 819.95,104.35 831,117.6 C923.62,228.7 944.36,412.21 948.83,474.58" fill="none" id="usuario1-backto-conflictoHorario1" style="stroke:#181818;stroke-width:1;"/><polygon fill="#181818" points="789.49,85.99,795.6197,93.6989,793.9231,88.3024,799.3196,86.6059,789.49,85.99" style="stroke:#181818;stroke-width:1;"/><polygon fill="#000000" points="915.1462,266.1128,915.7703,275.6028,921.2292,273.4236,915.1462,266.1128" style="stroke:#000000;stroke-width:1;"/><text fill="#000000" font-family="sans-serif" font-size="13" lengthAdjust="spacing" textLength="60.3027" x="926" y="275.2569">notifica a</text></g><!--link tarea1 to localizacion1--><g class="link" data-entity-1="tarea1" data-entity-2="localizacion1" data-link-type="dependency" data-source-line="53" data-uid="lnk20" id="link_tarea1_localizacion1"><path codeLine="53" d="M418.47,359.56 C344.67,367.83 247.57,387.09 173,431.79 C152.05,444.34 134.8339,457.3986 118.6639,470.6986" fill="none" id="tarea1-to-localizacion1" style="stroke:#181818;stroke-width:1;"/><polygon fill="#181818" points="114.03,474.51,123.5218,471.8821,117.8916,471.3338,118.4399,465.7036,114.03,474.51" style="stroke:#181818;stroke-width:1;"/><polygon fill="#000000" points="216.3118,417.0943,225.8144,416.7061,223.7713,411.1947,216.3118,417.0943" style="stroke:#000000;stroke-width:1;"/><text fill="#000000" font-family="sans-serif" font-size="13" lengthAdjust="spacing" textLength="82.5957" x="230" y="419.8569">se realiza en</text></g><!--link tarea1 to horario1--><g class="link" data-entity-1="tarea1" data-entity-2="horario1" data-link-type="dependency" data-source-line="54" data-uid="lnk21" id="link_tarea1_horario1"><path codeLine="54" d="M436.23,375.16 C410.38,383.18 382.83,393.61 359,406.79 C326.12,424.97 298.3003,450.1651 278.4303,470.2451" fill="none" id="tarea1-to-horario1" style="stroke:#181818;stroke-width:1;"/><polygon fill="#181818" points="274.21,474.51,283.3837,470.9262,277.7269,470.9559,277.6972,465.2992,274.21,474.51" style="stroke:#181818;stroke-width:1;"/><polygon fill="#000000" points="359.7174,417.937,368.9815,415.7859,365.9479,410.7514,359.7174,417.937" style="stroke:#000000;stroke-width:1;"/><text fill="#000000" font-family="sans-serif" font-size="13" lengthAdjust="spacing" textLength="103.0161" x="373" y="419.8569">se programa en</text></g><!--link tarea1 to recordatorio1--><g class="link" data-entity-1="tarea1" data-entity-2="recordatorio1" data-link-type="dependency" data-source-line="55" data-uid="lnk22" id="link_tarea1_recordatorio1"><path codeLine="55" d="M514.33,375.15 C497.32,402.1 471.6432,442.7866 454.7032,469.6166" fill="none" id="tarea1-to-recordatorio1" style="stroke:#181818;stroke-width:1;"/><polygon fill="#181818" points="451.5,474.69,459.6871,469.2154,454.1694,470.4622,452.9226,464.9444,451.5,474.69" style="stroke:#181818;stroke-width:1;"/><polygon fill="#000000" points="495.3312,419.5846,502.6444,413.5044,497.6738,410.3671,495.3312,419.5846" style="stroke:#000000;stroke-width:1;"/><text fill="#000000" font-family="sans-serif" font-size="13" lengthAdjust="spacing" textLength="48.2041" x="507" y="419.8569">notifica</text></g><!--link tarea1 to relacionTareas1--><g class="link" data-entity-1="tarea1" data-entity-2="relacionTareas1" data-link-type="dependency" data-source-line="56" data-uid="lnk23" id="link_tarea1_relacionTareas1"><path codeLine="56" d="M550.48,375.15 C578.46,402.1 621.6182,443.698 649.4782,470.528" fill="none" id="tarea1-to-relacionTareas1" style="stroke:#181818;stroke-width:1;"/><polygon fill="#181818" points="653.8,474.69,650.092,465.5658,650.1985,471.2217,644.5427,471.3282,653.8,474.69" style="stroke:#181818;stroke-width:1;"/><polygon fill="#000000" points="605.6008,418.8255,601.126,410.4334,597.0478,414.6663,605.6008,418.8255" style="stroke:#000000;stroke-width:1;"/><text fill="#000000" font-family="sans-serif" font-size="13" lengthAdjust="spacing" textLength="106.2153" x="611" y="419.8569">se relaciona con</text></g><!--SRC=[TPDDZjim38NtFWMHJO420IQJh8nfWBP0_u1caMaFGCkCmuui6fBSnHHpe2wB7Y4NAoqxC_v1TuBy-3wAZuxIG1Ge94QfeMHF9hAuB3omQz1Z3SPY26zZz5oqaJuRSVVyI72JPQ_Wm3_9mYQ7R-W9imRD0rO4g-5-1Ryo02b-g2d4Jh99Dm2HOsi5ti3gI4Ogye1W9O3Zony9AzKyPKylXDiSleSMFSkSSJjXjBteId5I5vuwoXS9bz_m5LshDUyyTHHSOBOvVFHjiu1i9v2gaomH7x1coqlJNGv72ZhZaj8iASpjTnDx7V39iedoIVpuCP6RDB1xiTWeYrplUUvbFVVPnOf1ouzeDCohWsqhz9t5Ux5KBKhEKvv7LoNWPfTlRsPQNHFn9KOP5THKSYeuIEGJ6sLV_hf5eKqzfOK9yxSTH8_aID_La2l96SRnDXo7QWhGUDQl3LgTvv38w_NwkcKvgAJIiQiOIuIxx7arPApI5O_SsG0vs4z5WwkAo4Tjof0kwJuRQYUmq1RftEMndpMgUOA6xBiTk1RVQV4ovnpmf3D2cFJxFwqRffpKW-zwlPybhxsHijDD_yQHzFpYfgh6IwK__58s3Nj4dgccoGxa_XBJ6FR_0000]--></g></svg>