<svg xmlns="http://www.w3.org/2000/svg" xmlns:xlink="http://www.w3.org/1999/xlink" contentStyleType="text/css" data-diagram-type="DESCRIPTION" height="236px" preserveAspectRatio="none" style="width:598px;height:236px;background:#FFFFFF;" version="1.1" viewBox="0 0 598 236" width="598px" zoomAndPan="magnify"><defs/><g><!--cluster Gesti?n de Sesi?n y Navegaci?n--><g class="cluster" data-entity="Gesti.n de Sesi.n y Navegaci.n" data-source-line="6" data-uid="ent0004" id="cluster_Gesti.n de Sesi.n y Navegaci.n"><path d="M325.5,6 L579.2656,6 A3.75,3.75 0 0 1 581.7656,8.5 L588.7656,28.2969 L588.5,28.2969 A2.5,2.5 0 0 1 591,30.7969 L591,226.5 A2.5,2.5 0 0 1 588.5,229 L325.5,229 A2.5,2.5 0 0 1 323,226.5 L323,8.5 A2.5,2.5 0 0 1 325.5,6" fill="none" style="stroke:#000000;stroke-width:1.5;"/><line style="stroke:#000000;stroke-width:1.5;" x1="323" x2="588.7656" y1="28.2969" y2="28.2969"/><text fill="#000000" font-family="sans-serif" font-size="14" font-weight="bold" lengthAdjust="spacing" textLength="252.7656" x="327" y="20.9951">Gesti&#243;n de Sesi&#243;n y Navegaci&#243;n</text></g><!--entity UC_S1--><g class="entity" data-entity="UC_S1" data-source-line="7" data-uid="ent0005" id="entity_UC_S1"><ellipse cx="456.8504" cy="196.8701" fill="#F1F1F1" rx="67.3504" ry="15.8701" style="stroke:#181818;stroke-width:0.5;"/><text fill="#000000" font-family="sans-serif" font-size="14" lengthAdjust="spacing" textLength="99.6201" x="407.0403" y="201.5185">iniciarSesion()</text></g><!--entity UC_S2--><g class="entity" data-entity="UC_S2" data-source-line="8" data-uid="ent0006" id="entity_UC_S2"><ellipse cx="457.1891" cy="56.8378" fill="#F1F1F1" rx="67.1891" ry="15.8378" style="stroke:#181818;stroke-width:0.5;"/><text fill="#000000" font-family="sans-serif" font-size="14" lengthAdjust="spacing" textLength="99.2031" x="407.5875" y="61.4863">cerrarSesion()</text></g><!--entity UC_S3--><g class="entity" data-entity="UC_S3" data-source-line="9" data-uid="ent0007" id="entity_UC_S3"><ellipse cx="457.1046" cy="126.8209" fill="#F1F1F1" rx="82.1046" ry="18.8209" style="stroke:#181818;stroke-width:0.5;"/><text fill="#000000" font-family="sans-serif" font-size="14" lengthAdjust="spacing" textLength="135.6113" x="389.2989" y="131.4694">completarGestion()</text></g><!--entity Admin--><g class="entity" data-entity="Admin" data-source-line="3" data-uid="ent0002" id="entity_Admin"><ellipse cx="142.6025" cy="42.5" fill="#F1F1F1" rx="8" ry="8" style="stroke:#181818;stroke-width:0.5;"/><path d="M142.6025,50.5 L142.6025,77.5 M129.6025,58.5 L155.6025,58.5 M142.6025,77.5 L129.6025,92.5 M142.6025,77.5 L155.6025,92.5" fill="none" style="stroke:#181818;stroke-width:0.5;"/><text fill="#000000" font-family="sans-serif" font-size="14" lengthAdjust="spacing" textLength="273.2051" x="6" y="106.9951">Administrador/ Miembro Administrador</text></g><!--entity Miem--><g class="entity" data-entity="Miem" data-source-line="4" data-uid="ent0003" id="entity_Miem"><ellipse cx="142.7139" cy="153.5" fill="#F1F1F1" rx="8" ry="8" style="stroke:#181818;stroke-width:0.5;"/><path d="M142.7139,161.5 L142.7139,188.5 M129.7139,169.5 L155.7139,169.5 M142.7139,188.5 L129.7139,203.5 M142.7139,188.5 L155.7139,203.5" fill="none" style="stroke:#181818;stroke-width:0.5;"/><text fill="#000000" font-family="sans-serif" font-size="14" lengthAdjust="spacing" textLength="61.4277" x="112" y="217.9951">Miembro</text></g><!--link Admin to UC_S1--><g class="link" data-entity-1="Admin" data-entity-2="UC_S1" data-source-line="13" data-uid="lnk8" id="link_Admin_UC_S1"><path d="M249.57,110.16 C259.81,115.28 269.8,120.9 279,127 C297.86,139.5 295.26,151.93 315,163 C339.71,176.85 364.0325,183.9959 390.1525,188.8859" fill="none" id="Admin-to-UC_S1" style="stroke:#181818;stroke-width:1;"/><polygon fill="#181818" points="396.05,189.99,387.9398,184.4022,391.1354,189.0699,386.4676,192.2656,396.05,189.99" style="stroke:#181818;stroke-width:1;"/></g><!--link Admin to UC_S2--><g class="link" data-entity-1="Admin" data-entity-2="UC_S2" data-source-line="14" data-uid="lnk9" id="link_Admin_UC_S2"><path d="M279.2,65.49 C318.08,63.62 352.6869,61.9579 385.1569,60.3979" fill="none" id="Admin-to-UC_S2" style="stroke:#181818;stroke-width:1;"/><polygon fill="#181818" points="391.15,60.11,381.9684,56.5465,386.1558,60.3499,382.3523,64.5373,391.15,60.11" style="stroke:#181818;stroke-width:1;"/></g><!--link Admin to UC_S3--><g class="link" data-entity-1="Admin" data-entity-2="UC_S3" data-source-line="15" data-uid="lnk10" id="link_Admin_UC_S3"><path d="M279.2,95.88 C318.08,102.73 352.771,108.8291 385.241,114.5491" fill="none" id="Admin-to-UC_S3" style="stroke:#181818;stroke-width:1;"/><polygon fill="#181818" points="391.15,115.59,382.9804,110.0892,386.2258,114.7225,381.5925,117.9679,391.15,115.59" style="stroke:#181818;stroke-width:1;"/></g><!--link Miem to UC_S1--><g class="link" data-entity-1="Miem" data-entity-2="UC_S1" data-source-line="20" data-uid="lnk11" id="link_Miem_UC_S1"><path d="M173.18,184.33 C222.77,186.55 317.626,190.8011 384.506,193.8011" fill="none" id="Miem-to-UC_S1" style="stroke:#181818;stroke-width:1;"/><polygon fill="#181818" points="390.5,194.07,381.6883,189.6707,385.505,193.8459,381.3298,197.6627,390.5,194.07" style="stroke:#181818;stroke-width:1;"/></g><!--link Miem to UC_S2--><g class="link" data-entity-1="Miem" data-entity-2="UC_S2" data-source-line="21" data-uid="lnk12" id="link_Miem_UC_S2"><path d="M173.23,174.58 C201.89,165.6 245.71,149.56 279,127 C297.99,114.13 295.03,101.29 315,90 C339.51,76.14 363.6545,69.1605 389.7145,64.4805" fill="none" id="Miem-to-UC_S2" style="stroke:#181818;stroke-width:1;"/><polygon fill="#181818" points="395.62,63.42,386.0547,61.0738,390.6987,64.3038,387.4687,68.9478,395.62,63.42" style="stroke:#181818;stroke-width:1;"/></g><!--link Miem to UC_S3--><g class="link" data-entity-1="Miem" data-entity-2="UC_S3" data-source-line="22" data-uid="lnk13" id="link_Miem_UC_S3"><path d="M173.18,177.68 C223.08,168.74 318.954,151.5581 385.824,139.5781" fill="none" id="Miem-to-UC_S3" style="stroke:#181818;stroke-width:1;"/><polygon fill="#181818" points="391.73,138.52,382.1657,136.1698,386.8084,139.4017,383.5764,144.0444,391.73,138.52" style="stroke:#181818;stroke-width:1;"/></g><!--SRC=[TP11Ri8m44NtSuglRA0BX4ZsbQekke85Y3KQd6bgDR6ZiK6gAaxL8_HY92QLQjHwutdZFz_VRkKr8dgeRTuYQgjYelMEY4tqYkAfxgop8IhNNfTOM-cEwf6r2t2uTNwc9baw66kYdiqxDuBYHKAqtryEjM0d8PKVsF1P6ZOZ5VWa3EiKn70O9eQBZ6KTnTxD7vBf_lcmM-Ko8wf_gCexbU_wLY9hof4fAxeGpR2LTWZYdGJqh0nfyzTI8YmMZrEAdCixheZ-SPq-YSRzbrs6POxL5G00]--></g></svg>