<svg xmlns="http://www.w3.org/2000/svg" xmlns:xlink="http://www.w3.org/1999/xlink" contentStyleType="text/css" data-diagram-type="DESCRIPTION" height="377px" preserveAspectRatio="none" style="width:490px;height:377px;background:#FFFFFF;" version="1.1" viewBox="0 0 490 377" width="490px" zoomAndPan="magnify"><defs/><g><!--cluster Gesti?n de Sesi?n y Navegaci?n--><g class="cluster" data-entity="Gesti.n de Sesi.n y Navegaci.n" data-source-line="10" data-uid="ent0007" id="cluster_Gesti.n de Sesi.n y Navegaci.n"><path d="M217.5,147.5 L471.2656,147.5 A3.75,3.75 0 0 1 473.7656,150 L480.7656,169.7969 L480.5,169.7969 A2.5,2.5 0 0 1 483,172.2969 L483,368 A2.5,2.5 0 0 1 480.5,370.5 L217.5,370.5 A2.5,2.5 0 0 1 215,368 L215,150 A2.5,2.5 0 0 1 217.5,147.5" fill="none" style="stroke:#000000;stroke-width:1.5;"/><line style="stroke:#000000;stroke-width:1.5;" x1="215" x2="480.7656" y1="169.7969" y2="169.7969"/><text fill="#000000" font-family="sans-serif" font-size="14" font-weight="bold" lengthAdjust="spacing" textLength="252.7656" x="219" y="162.4951">Gesti&#243;n de Sesi&#243;n y Navegaci&#243;n</text></g><!--entity UC_S1--><g class="entity" data-entity="UC_S1" data-source-line="11" data-uid="ent0008" id="entity_UC_S1"><ellipse cx="348.8504" cy="198.3701" fill="#F1F1F1" rx="67.3504" ry="15.8701" style="stroke:#181818;stroke-width:0.5;"/><text fill="#000000" font-family="sans-serif" font-size="14" lengthAdjust="spacing" textLength="99.6201" x="299.0403" y="203.0185">iniciarSesion()</text></g><!--entity UC_S2--><g class="entity" data-entity="UC_S2" data-source-line="12" data-uid="ent0009" id="entity_UC_S2"><ellipse cx="349.1891" cy="265.3378" fill="#F1F1F1" rx="67.1891" ry="15.8378" style="stroke:#181818;stroke-width:0.5;"/><text fill="#000000" font-family="sans-serif" font-size="14" lengthAdjust="spacing" textLength="99.2031" x="299.5875" y="269.9863">cerrarSesion()</text></g><!--entity UC_S3--><g class="entity" data-entity="UC_S3" data-source-line="13" data-uid="ent0010" id="entity_UC_S3"><ellipse cx="349.1046" cy="335.3209" fill="#F1F1F1" rx="82.1046" ry="18.8209" style="stroke:#181818;stroke-width:0.5;"/><text fill="#000000" font-family="sans-serif" font-size="14" lengthAdjust="spacing" textLength="135.6113" x="281.2989" y="339.9694">completarGestion()</text></g><!--entity Admin--><g class="entity" data-entity="Admin" data-source-line="3" data-uid="ent0002" id="entity_Admin"><ellipse cx="88.54" cy="14" fill="#F1F1F1" rx="8" ry="8" style="stroke:#181818;stroke-width:0.5;"/><path d="M88.54,22 L88.54,49 M75.54,30 L101.54,30 M88.54,49 L75.54,64 M88.54,49 L101.54,64" fill="none" style="stroke:#181818;stroke-width:0.5;"/><text fill="#000000" font-family="sans-serif" font-size="14" lengthAdjust="spacing" textLength="99.0801" x="39" y="78.4951">Administrador</text></g><!--entity MiemAdmin--><g class="entity" data-entity="MiemAdmin" data-source-line="4" data-uid="ent0003" id="entity_MiemAdmin"><ellipse cx="88.479" cy="125" fill="#F1F1F1" rx="8" ry="8" style="stroke:#181818;stroke-width:0.5;"/><path d="M88.479,133 L88.479,160 M75.479,141 L101.479,141 M88.479,160 L75.479,175 M88.479,160 L101.479,175" fill="none" style="stroke:#181818;stroke-width:0.5;"/><text fill="#000000" font-family="sans-serif" font-size="14" lengthAdjust="spacing" textLength="164.958" x="6" y="189.4951">Miembro Administrador</text></g><!--entity Miem--><g class="entity" data-entity="Miem" data-source-line="5" data-uid="ent0004" id="entity_Miem"><ellipse cx="88.7139" cy="236" fill="#F1F1F1" rx="8" ry="8" style="stroke:#181818;stroke-width:0.5;"/><path d="M88.7139,244 L88.7139,271 M75.7139,252 L101.7139,252 M88.7139,271 L75.7139,286 M88.7139,271 L101.7139,286" fill="none" style="stroke:#181818;stroke-width:0.5;"/><text fill="#000000" font-family="sans-serif" font-size="14" lengthAdjust="spacing" textLength="61.4277" x="58" y="300.4951">Miembro</text></g><!--link Admin to MiemAdmin--><g class="link" data-entity-1="Admin" data-entity-2="MiemAdmin" data-source-line="7" data-uid="lnk5" id="link_Admin_MiemAdmin"><path d="M88.5,81.63 C88.5,93.2 88.5,86.77 88.5,98.34" fill="none" id="Admin-to-MiemAdmin" style="stroke:#181818;stroke-width:1;"/><polygon fill="none" points="88.5,116.34,94.5,98.34,82.5,98.34,88.5,116.34" style="stroke:#181818;stroke-width:1;"/></g><!--link MiemAdmin to Miem--><g class="link" data-entity-1="MiemAdmin" data-entity-2="Miem" data-source-line="8" data-uid="lnk6" id="link_MiemAdmin_Miem"><path d="M88.5,192.63 C88.5,204.2 88.5,197.77 88.5,209.34" fill="none" id="MiemAdmin-to-Miem" style="stroke:#181818;stroke-width:1;"/><polygon fill="none" points="88.5,227.34,94.5,209.34,82.5,209.34,88.5,227.34" style="stroke:#181818;stroke-width:1;"/></g><!--link Miem to UC_S1--><g class="link" data-entity-1="Miem" data-entity-2="UC_S1" data-source-line="16" data-uid="lnk11" id="link_Miem_UC_S1"><path d="M119.32,256.41 C143,249.3 177,239.34 207,231.5 C237.4,223.55 265.8784,216.8162 293.0584,210.6562" fill="none" id="Miem-to-UC_S1" style="stroke:#181818;stroke-width:1;"/><polygon fill="#181818" points="298.91,209.33,289.2485,207.4182,294.0337,210.4352,291.0167,215.2204,298.91,209.33" style="stroke:#181818;stroke-width:1;"/></g><!--link Miem to UC_S2--><g class="link" data-entity-1="Miem" data-entity-2="UC_S2" data-source-line="17" data-uid="lnk12" id="link_Miem_UC_S2"><path d="M119.15,265.5 C158.61,265.5 223.48,265.5 275.93,265.5" fill="none" id="Miem-to-UC_S2" style="stroke:#181818;stroke-width:1;"/><polygon fill="#181818" points="281.93,265.5,272.93,261.5,276.93,265.5,272.93,269.5,281.93,265.5" style="stroke:#181818;stroke-width:1;"/></g><!--link Miem to UC_S3--><g class="link" data-entity-1="Miem" data-entity-2="UC_S3" data-source-line="18" data-uid="lnk13" id="link_Miem_UC_S3"><path d="M119.4,274.05 C143.13,280.8 177.15,290.39 207,298.5 C235.45,306.23 261.4041,313.0664 287.5641,319.8864" fill="none" id="Miem-to-UC_S3" style="stroke:#181818;stroke-width:1;"/><polygon fill="#181818" points="293.37,321.4,285.6702,315.2589,288.5317,320.1386,283.652,323.0002,293.37,321.4" style="stroke:#181818;stroke-width:1;"/></g><!--SRC=[RO-n3e9038RtFaN3f0E3i9CO1oTTYBEfHyMBmf7UQMBKf_8HV37XeiH3ElNl_pNzU-AzGsTGT7bmM6XXvRIf0KWv8nZDYqhNsZgXmaY4PD5FllPASxKJW_zOvuoXlGdWROpzwVYU_QpqtS05Q4WTgMICbcoTVZrhB1XpjhwzufekN9BgL8GtmBREbXNPTgCDg3H91vjwClL1DejjFWinnI8ZL3AWJDMSs97u706PmWFy1nZ7sUT289DGfcy0]--></g></svg>