<svg xmlns="http://www.w3.org/2000/svg" xmlns:xlink="http://www.w3.org/1999/xlink" contentStyleType="text/css" data-diagram-type="DESCRIPTION" height="236px" preserveAspectRatio="none" style="width:770px;height:236px;background:#FFFFFF;" version="1.1" viewBox="0 0 770 236" width="770px" zoomAndPan="magnify"><defs/><g><!--cluster Gesti?n de Sesi?n y Navegaci?n--><g class="cluster" data-entity="Gesti.n de Sesi.n y Navegaci.n" data-source-line="10" data-uid="ent0007" id="cluster_Gesti.n de Sesi.n y Navegaci.n"><path d="M497.5,6 L751.2656,6 A3.75,3.75 0 0 1 753.7656,8.5 L760.7656,28.2969 L760.5,28.2969 A2.5,2.5 0 0 1 763,30.7969 L763,226.5 A2.5,2.5 0 0 1 760.5,229 L497.5,229 A2.5,2.5 0 0 1 495,226.5 L495,8.5 A2.5,2.5 0 0 1 497.5,6" fill="none" style="stroke:#000000;stroke-width:1.5;"/><line style="stroke:#000000;stroke-width:1.5;" x1="495" x2="760.7656" y1="28.2969" y2="28.2969"/><text fill="#000000" font-family="sans-serif" font-size="14" font-weight="bold" lengthAdjust="spacing" textLength="252.7656" x="499" y="20.9951">Gesti&#243;n de Sesi&#243;n y Navegaci&#243;n</text></g><!--entity UC_S1--><g class="entity" data-entity="UC_S1" data-source-line="11" data-uid="ent0008" id="entity_UC_S1"><ellipse cx="628.8504" cy="56.8701" fill="#F1F1F1" rx="67.3504" ry="15.8701" style="stroke:#181818;stroke-width:0.5;"/><text fill="#000000" font-family="sans-serif" font-size="14" lengthAdjust="spacing" textLength="99.6201" x="579.0403" y="61.5185">iniciarSesion()</text></g><!--entity UC_S2--><g class="entity" data-entity="UC_S2" data-source-line="12" data-uid="ent0009" id="entity_UC_S2"><ellipse cx="629.1891" cy="123.8378" fill="#F1F1F1" rx="67.1891" ry="15.8378" style="stroke:#181818;stroke-width:0.5;"/><text fill="#000000" font-family="sans-serif" font-size="14" lengthAdjust="spacing" textLength="99.2031" x="579.5875" y="128.4863">cerrarSesion()</text></g><!--entity UC_S3--><g class="entity" data-entity="UC_S3" data-source-line="13" data-uid="ent0010" id="entity_UC_S3"><ellipse cx="629.1046" cy="193.8209" fill="#F1F1F1" rx="82.1046" ry="18.8209" style="stroke:#181818;stroke-width:0.5;"/><text fill="#000000" font-family="sans-serif" font-size="14" lengthAdjust="spacing" textLength="135.6113" x="561.2989" y="198.4694">completarGestion()</text></g><!--entity Admin--><g class="entity" data-entity="Admin" data-source-line="3" data-uid="ent0002" id="entity_Admin"><ellipse cx="55.54" cy="94.5" fill="#F1F1F1" rx="8" ry="8" style="stroke:#181818;stroke-width:0.5;"/><path d="M55.54,102.5 L55.54,129.5 M42.54,110.5 L68.54,110.5 M55.54,129.5 L42.54,144.5 M55.54,129.5 L68.54,144.5" fill="none" style="stroke:#181818;stroke-width:0.5;"/><text fill="#000000" font-family="sans-serif" font-size="14" lengthAdjust="spacing" textLength="99.0801" x="6" y="158.9951">Administrador</text></g><!--entity MiemAdmin--><g class="entity" data-entity="MiemAdmin" data-source-line="4" data-uid="ent0003" id="entity_MiemAdmin"><ellipse cx="247.479" cy="94.5" fill="#F1F1F1" rx="8" ry="8" style="stroke:#181818;stroke-width:0.5;"/><path d="M247.479,102.5 L247.479,129.5 M234.479,110.5 L260.479,110.5 M247.479,129.5 L234.479,144.5 M247.479,129.5 L260.479,144.5" fill="none" style="stroke:#181818;stroke-width:0.5;"/><text fill="#000000" font-family="sans-serif" font-size="14" lengthAdjust="spacing" textLength="164.958" x="165" y="158.9951">Miembro Administrador</text></g><!--entity Miem--><g class="entity" data-entity="Miem" data-source-line="5" data-uid="ent0004" id="entity_Miem"><ellipse cx="420.7139" cy="94.5" fill="#F1F1F1" rx="8" ry="8" style="stroke:#181818;stroke-width:0.5;"/><path d="M420.7139,102.5 L420.7139,129.5 M407.7139,110.5 L433.7139,110.5 M420.7139,129.5 L407.7139,144.5 M420.7139,129.5 L433.7139,144.5" fill="none" style="stroke:#181818;stroke-width:0.5;"/><text fill="#000000" font-family="sans-serif" font-size="14" lengthAdjust="spacing" textLength="61.4277" x="390" y="158.9951">Miembro</text></g><!--link Admin to MiemAdmin--><g class="link" data-entity-1="Admin" data-entity-2="MiemAdmin" data-source-line="7" data-uid="lnk5" id="link_Admin_MiemAdmin"><path d="M105.43,124 C123.57,124 126.67,124 146.94,124" fill="none" id="Admin-to-MiemAdmin" style="stroke:#181818;stroke-width:1;"/><polygon fill="none" points="164.94,124,146.94,118,146.94,130,164.94,124" style="stroke:#181818;stroke-width:1;"/></g><!--link MiemAdmin to Miem--><g class="link" data-entity-1="MiemAdmin" data-entity-2="Miem" data-source-line="8" data-uid="lnk6" id="link_MiemAdmin_Miem"><path d="M330.24,124 C351.54,124 355.15,124 371.77,124" fill="none" id="MiemAdmin-to-Miem" style="stroke:#181818;stroke-width:1;"/><polygon fill="none" points="389.77,124,371.77,118,371.77,130,389.77,124" style="stroke:#181818;stroke-width:1;"/></g><!--link Miem to UC_S1--><g class="link" data-entity-1="Miem" data-entity-2="UC_S1" data-source-line="16" data-uid="lnk11" id="link_Miem_UC_S1"><path d="M451.11,106.64 C462.11,100.73 474.86,94.49 487,90 C514.94,79.66 541.3511,73.0192 567.9711,67.5892" fill="none" id="Miem-to-UC_S1" style="stroke:#181818;stroke-width:1;"/><polygon fill="#181818" points="573.85,66.39,564.2321,64.2695,568.9509,67.3893,565.8311,72.1081,573.85,66.39" style="stroke:#181818;stroke-width:1;"/></g><!--link Miem to UC_S2--><g class="link" data-entity-1="Miem" data-entity-2="UC_S2" data-source-line="17" data-uid="lnk12" id="link_Miem_UC_S2"><path d="M451.09,124 C479.86,124 518.56,124 555.82,124" fill="none" id="Miem-to-UC_S2" style="stroke:#181818;stroke-width:1;"/><polygon fill="#181818" points="561.82,124,552.82,120,556.82,124,552.82,128,561.82,124" style="stroke:#181818;stroke-width:1;"/></g><!--link Miem to UC_S3--><g class="link" data-entity-1="Miem" data-entity-2="UC_S3" data-source-line="18" data-uid="lnk13" id="link_Miem_UC_S3"><path d="M451.23,140.64 C462.24,146.35 474.97,152.45 487,157 C513.04,166.85 536.899,173.6559 562.299,179.8159" fill="none" id="Miem-to-UC_S3" style="stroke:#181818;stroke-width:1;"/><polygon fill="#181818" points="568.13,181.23,560.3263,175.2215,563.2709,180.0516,558.4408,182.9961,568.13,181.23" style="stroke:#181818;stroke-width:1;"/></g><!--SRC=[ROyn3i8m34LtdyBg14C7O4T234om86Pa4bCYQ58v0OI0Kt44BaORGKMWcVppdfMV0sy31eTYYbr0ROHLCCu2a0fEC9leqbZZWv1saY5vZ3SVF3TSRiJXlzQGBhM5015ZhjtPvhVnrqOxfH2W8hMdWZ6RiG_c-R2e6PViutZ11Psu8DMa3A-0zJbwLkJhZRgUCYIDx6ol7skifklb8DKKYtHOmn_BbTM10qdiaPWZk4Fy0ERv-Fr24eTf7Bq0]--></g></svg>