<svg xmlns="http://www.w3.org/2000/svg" xmlns:xlink="http://www.w3.org/1999/xlink" contentStyleType="text/css" data-diagram-type="SALT" height="219px" preserveAspectRatio="none" style="width:406px;height:219px;background:#FFFFFF;" version="1.1" viewBox="0 0 406 219" width="406px" zoomAndPan="magnify"><defs/><g><rect fill="#EEEEEE" height="16.9688" style="stroke:#000000;stroke-width:1;" width="207" x="6" y="6"/><text fill="#000000" font-family="monospace" font-size="12" lengthAdjust="spacing" textLength="144.4922" x="8" y="19.1387">Nueva&#160;/&#160;Editar&#160;Tarea</text><line style="stroke:#000000;stroke-width:1;" x1="202" x2="202" y1="6" y2="22.9688"/><polygon fill="#000000" points="205,12,211,12,208,17.9688" style="stroke:#000000;stroke-width:1;"/><text fill="#000000" font-family="sans-serif" font-size="12" lengthAdjust="spacing" textLength="109.1777" x="7" y="54.0762">Titulo de la Tarea:</text><text fill="#000000" font-family="sans-serif" font-size="12" lengthAdjust="spacing" textLength="124.4121" x="130.8867" y="54.0762">Introduzca el t&#237;tulo...</text><line style="stroke:#000000;stroke-width:1;" x1="128.8867" x2="395.8867" y1="56.9063" y2="56.9063"/><line style="stroke:#000000;stroke-width:1;" x1="128.8867" x2="128.8867" y1="53.9063" y2="55.9063"/><line style="stroke:#000000;stroke-width:1;" x1="395.8867" x2="395.8867" y1="53.9063" y2="55.9063"/><text fill="#000000" font-family="sans-serif" font-size="12" lengthAdjust="spacing" textLength="74.2793" x="7" y="72.0449">Descripci&#243;n:</text><text fill="#000000" font-family="sans-serif" font-size="12" lengthAdjust="spacing" textLength="129.2871" x="130.8867" y="72.0449">Detalles de la tarea...</text><line style="stroke:#000000;stroke-width:1;" x1="128.8867" x2="395.8867" y1="74.875" y2="74.875"/><line style="stroke:#000000;stroke-width:1;" x1="128.8867" x2="128.8867" y1="71.875" y2="73.875"/><line style="stroke:#000000;stroke-width:1;" x1="395.8867" x2="395.8867" y1="71.875" y2="73.875"/><text fill="#000000" font-family="sans-serif" font-size="12" lengthAdjust="spacing" textLength="118.8867" x="7" y="90.0137">Fecha Vencimiento:</text><text fill="#000000" font-family="sans-serif" font-size="12" lengthAdjust="spacing" textLength="80.1094" x="130.8867" y="90.0137">DD/MM/AAAA</text><line style="stroke:#000000;stroke-width:1;" x1="128.8867" x2="395.8867" y1="92.8438" y2="92.8438"/><line style="stroke:#000000;stroke-width:1;" x1="128.8867" x2="128.8867" y1="89.8438" y2="91.8438"/><line style="stroke:#000000;stroke-width:1;" x1="395.8867" x2="395.8867" y1="89.8438" y2="91.8438"/><text fill="#000000" font-family="sans-serif" font-size="12" lengthAdjust="spacing" textLength="57.7441" x="7" y="107.9824">Prioridad:</text><rect fill="#EEEEEE" height="16.9688" style="stroke:#000000;stroke-width:1;" width="55" x="127.8867" y="96.8438"/><text fill="#000000" font-family="sans-serif" font-size="12" lengthAdjust="spacing" textLength="36.041" x="129.8867" y="109.9824">Media</text><line style="stroke:#000000;stroke-width:1;" x1="171.8867" x2="171.8867" y1="96.8438" y2="113.8125"/><polygon fill="#000000" points="174.8867,102.8438,180.8867,102.8438,177.8867,108.8125" style="stroke:#000000;stroke-width:1;"/><text fill="#000000" font-family="sans-serif" font-size="12" lengthAdjust="spacing" textLength="60.5156" x="7" y="127.9512">Asignar a:</text><rect fill="#EEEEEE" height="16.9688" style="stroke:#000000;stroke-width:1;" width="167" x="127.8867" y="116.8125"/><text fill="#000000" font-family="sans-serif" font-size="12" lengthAdjust="spacing" textLength="118.8984" x="129.8867" y="129.9512">Seleccionar Usuario</text><line style="stroke:#000000;stroke-width:1;" x1="283.8867" x2="283.8867" y1="116.8125" y2="133.7813"/><polygon fill="#000000" points="286.8867,122.8125,292.8867,122.8125,289.8867,128.7813" style="stroke:#000000;stroke-width:1;"/><text fill="#000000" font-family="sans-serif" font-size="12" lengthAdjust="spacing" textLength="62.3027" x="6" y="166.8887">[Cancelar]</text><line style="stroke:#000000;stroke-width:1;" x1="6" x2="102.627" y1="153.75" y2="153.75"/><line style="stroke:#000000;stroke-width:1;" x1="6" x2="6" y1="153.75" y2="172.7188"/><line style="stroke:#000000;stroke-width:1;" x1="6" x2="102.627" y1="172.7188" y2="172.7188"/><line style="stroke:#000000;stroke-width:1;" x1="102.627" x2="102.627" y1="172.7188" y2="182.7188"/><text fill="#000000" font-family="sans-serif" font-size="12" lengthAdjust="spacing" textLength="96.627" x="6" y="195.8574">[Guardar Tarea]</text><line style="stroke:#000000;stroke-width:1;" x1="6" x2="102.627" y1="182.7188" y2="182.7188"/><line style="stroke:#000000;stroke-width:1;" x1="6" x2="6" y1="182.7188" y2="201.6875"/><line style="stroke:#000000;stroke-width:1;" x1="6" x2="102.627" y1="201.6875" y2="201.6875"/><line style="stroke:#000000;stroke-width:1;" x1="102.627" x2="102.627" y1="201.6875" y2="211.6875"/><line style="stroke:#000000;stroke-width:1;" x1="5" x2="399.8867" y1="5" y2="5"/><line style="stroke:#000000;stroke-width:1;" x1="5" x2="399.8867" y1="212.6875" y2="212.6875"/><line style="stroke:#000000;stroke-width:1;" x1="5" x2="5" y1="5" y2="24.9688"/><line style="stroke:#000000;stroke-width:1;" x1="399.8867" x2="399.8867" y1="24.9688" y2="40.9375"/><line style="stroke:#000000;stroke-width:1;" x1="399.8867" x2="399.8867" y1="5" y2="24.9688"/><line style="stroke:#000000;stroke-width:1;" x1="5" x2="5" y1="152.75" y2="212.6875"/><line style="stroke:#000000;stroke-width:1;" x1="5" x2="5" y1="136.7813" y2="152.75"/><line style="stroke:#000000;stroke-width:1;" x1="399.8867" x2="399.8867" y1="152.75" y2="212.6875"/><line style="stroke:#000000;stroke-width:1;" x1="5" x2="5" y1="40.9375" y2="136.7813"/><line style="stroke:#000000;stroke-width:1;" x1="399.8867" x2="399.8867" y1="136.7813" y2="152.75"/><line style="stroke:#000000;stroke-width:1;" x1="5" x2="5" y1="24.9688" y2="40.9375"/><line style="stroke:#000000;stroke-width:1;" x1="399.8867" x2="399.8867" y1="40.9375" y2="136.7813"/><!--SRC=[RP7TJXin48Nl_HIZlG9LR3PHYbfVyRE0IBCqQZQvGKIQsjDWoR6HVoALdqVYYaVWnPXDcY8aHfeRd_CTsST7CM584MqI3ry4mA8ehZAj4NfmfWrhq68WB8e5YoNl0oz0QrAs7ZI1nQr3mYCKbou5h_EzGY0BwVMvSvLb2V-dsE0rHHNCdJAlBqxk9EPhIcWjnN_1gGl-13ydTOim9wVCof1BNcxfkjSqlMCU-7osz2GO7un6BT-LHrWqf0qkDexZQ9QEduuV7LEof9JndJIB6Jcdyp_jckb1Hr-VebDaCTmmStt1DhrhyMRZVX97vFIcSZ6nwDAi6SEQGkHaw9U3Ql2rx5TxRIQuyckeXj2lvA2Im-_GJ5lez7snTp4PG_GvA09jOWhcTquSi2z6oB_tAxjaLYJXvnsvKVrZTm1dRcs2TojkJOpcpRlXS7XmOX9CAV1LODw8clvWjea9vRLnImcpzlpWcnYZMsPSSZOvSUevD_oLuBArRm00]--></g></svg>