<svg xmlns="http://www.w3.org/2000/svg" xmlns:xlink="http://www.w3.org/1999/xlink" contentStyleType="text/css" data-diagram-type="STATE" height="852px" preserveAspectRatio="none" style="width:457px;height:852px;background:#FFFFFF;" version="1.1" viewBox="0 0 457 852" width="457px" zoomAndPan="magnify"><defs/><g><g id="Inicio"><rect fill="#FFFFFF" height="50" rx="12.5" ry="12.5" style="stroke:#000000;stroke-width:0.5;" width="147.627" x="151.5" y="7"/><line style="stroke:#000000;stroke-width:0.5;" x1="151.5" x2="299.127" y1="33.2969" y2="33.2969"/><text fill="#000000" font-family="sans-serif" font-size="14" lengthAdjust="spacing" textLength="127.627" x="161.5" y="24.9951">GRUPOS_ABIERTO</text></g><path d="M19.5,118 L431.5,118 A12.5,12.5 0 0 1 444,130.5 L444,144.2969 L7,144.2969 L7,130.5 A12.5,12.5 0 0 1 19.5,118" fill="#FFFFFF"/><rect fill="none" height="583.2969" rx="12.5" ry="12.5" style="stroke:#000000;stroke-width:0.5;" width="437" x="7" y="118"/><line style="stroke:#000000;stroke-width:0.5;" x1="7" x2="444" y1="144.2969" y2="144.2969"/><text fill="#000000" font-family="sans-serif" font-size="14" lengthAdjust="spacing" textLength="90.2549" x="180.3726" y="135.9951">crearGrupo()</text><g id="CrearGrupoContainer.Paso1"><rect fill="#FFFFFF" height="50" rx="12.5" ry="12.5" style="stroke:#000000;stroke-width:0.5;" width="50" x="19" y="246.2969"/><line style="stroke:#000000;stroke-width:0.5;" x1="19" x2="69" y1="272.5938" y2="272.5938"/><text fill="#000000" font-family="sans-serif" font-size="14" lengthAdjust="spacing" textLength="4.4502" x="41.7749" y="264.292">&#160;</text></g><g id="CrearGrupoContainer.Paso2"><rect fill="#FFFFFF" height="50" rx="12.5" ry="12.5" style="stroke:#000000;stroke-width:0.5;" width="50" x="19" y="427.2969"/><line style="stroke:#000000;stroke-width:0.5;" x1="19" x2="69" y1="453.5938" y2="453.5938"/><text fill="#000000" font-family="sans-serif" font-size="14" lengthAdjust="spacing" textLength="4.4502" x="41.7749" y="445.292">&#160;</text></g><g id="CrearGrupoContainer.Paso3"><rect fill="#FFFFFF" height="50" rx="12.5" ry="12.5" style="stroke:#000000;stroke-width:0.5;" width="50" x="19" y="548.2969"/><line style="stroke:#000000;stroke-width:0.5;" x1="19" x2="69" y1="574.5938" y2="574.5938"/><text fill="#000000" font-family="sans-serif" font-size="14" lengthAdjust="spacing" textLength="4.4502" x="41.7749" y="566.292">&#160;</text></g><ellipse cx="44" cy="165.2969" fill="#222222" rx="10" ry="10" style="stroke:#222222;stroke-width:1;"/><ellipse cx="44" cy="680.2969" fill="none" rx="11" ry="11" style="stroke:#222222;stroke-width:1;"/><ellipse cx="44" cy="680.2969" fill="#222222" rx="6" ry="6" style="stroke:#222222;stroke-width:1;"/><!--link *start*CrearGrupoContainer to Paso1--><g class="link" data-entity-1=".start.CrearGrupoContainer" data-entity-2="Paso1" data-source-line="32" data-uid="lnk3" id="link_.start.CrearGrupoContainer_Paso1"><path d="M44,175.5269 C44,191.2369 44,217.6569 44,240.1669" fill="none" id="*start*CrearGrupoContainer-to-Paso1" style="stroke:#009900;stroke-width:1;"/><polygon fill="#009900" points="44,246.1669,48,237.1669,44,241.1669,40,237.1669,44,246.1669" style="stroke:#009900;stroke-width:1;"/><path d="M49,198.2969 L49,223.2969 L304,223.2969 L304,208.2969 L294,198.2969 L49,198.2969" fill="#FFFFE0" style="stroke:#B0B060;stroke-width:0.5;"/><path d="M294,198.2969 L294,208.2969 L304,208.2969 L294,198.2969" fill="#FFFFE0" style="stroke:#B0B060;stroke-width:0.5;"/><text fill="#000000" font-family="Arial" font-size="13" font-weight="bold" lengthAdjust="spacing" textLength="104.8633" x="55" y="215.3638">Administrador</text><text fill="#000000" font-family="Arial" font-size="13" lengthAdjust="spacing" textLength="125.8804" x="163.9956" y="215.3638">solicita crear grupo</text></g><!--link Paso1 to Paso2--><g class="link" data-entity-1="Paso1" data-entity-2="Paso2" data-source-line="38" data-uid="lnk4" id="link_Paso1_Paso2"><path d="M44,296.4369 C44,330.6969 44,387.0469 44,421.2569" fill="none" id="Paso1-to-Paso2" style="stroke:#009900;stroke-width:1;"/><polygon fill="#009900" points="44,427.2569,48,418.2569,44,422.2569,40,418.2569,44,427.2569" style="stroke:#009900;stroke-width:1;"/><path d="M49,319.2969 L49,404.2969 L435,404.2969 L435,329.2969 L425,319.2969 L49,319.2969" fill="#FFFFE0" style="stroke:#B0B060;stroke-width:0.5;"/><path d="M425,319.2969 L425,329.2969 L435,329.2969 L425,319.2969" fill="#FFFFE0" style="stroke:#B0B060;stroke-width:0.5;"/><text fill="#000000" font-family="Arial" font-size="13" font-weight="bold" lengthAdjust="spacing" textLength="58.9063" x="55" y="336.3638">Sistema</text><text fill="#000000" font-family="Arial" font-size="13" lengthAdjust="spacing" textLength="302.4722" x="118.0386" y="336.3638">presenta solicitud de datos m&#237;nimos del grupo</text><text fill="#000000" font-family="Arial" font-size="13" lengthAdjust="spacing" textLength="213.7891" x="55" y="351.4966">&#8226; Nombre del grupo (obligatorio)</text><text fill="#000000" font-family="Arial" font-size="13" lengthAdjust="spacing" textLength="154.0576" x="55" y="366.6294">&#8226; Descripc&#237;on del grupo</text><text fill="#000000" font-family="Arial" font-size="13" lengthAdjust="spacing" textLength="197.7104" x="55" y="381.7622">&#8226; Permite solicitar crear grupo</text><text fill="#000000" font-family="Arial" font-size="13" lengthAdjust="spacing" textLength="236.6978" x="55" y="396.895">&#8226; Permite solicitar cancelar creaci&#243;n</text></g><!--link Paso2 to Paso3--><g class="link" data-entity-1="Paso2" data-entity-2="Paso3" data-source-line="48" data-uid="lnk5" id="link_Paso2_Paso3"><path d="M44,477.3769 C44,498.0269 44,521.6169 44,542.2469" fill="none" id="Paso2-to-Paso3" style="stroke:#009900;stroke-width:1;"/><polygon fill="#009900" points="44,548.2469,48,539.2469,44,543.2469,40,539.2469,44,548.2469" style="stroke:#009900;stroke-width:1;"/><path d="M49,500.2969 L49,525.2969 L281,525.2969 L281,510.2969 L271,500.2969 L49,500.2969" fill="#FFFFE0" style="stroke:#B0B060;stroke-width:0.5;"/><path d="M271,500.2969 L271,510.2969 L281,510.2969 L271,500.2969" fill="#FFFFE0" style="stroke:#B0B060;stroke-width:0.5;"/><text fill="#000000" font-family="Arial" font-size="13" font-weight="bold" lengthAdjust="spacing" textLength="104.8633" x="55" y="517.3638">Administrador</text><text fill="#000000" font-family="Arial" font-size="13" lengthAdjust="spacing" textLength="102.0576" x="163.9956" y="517.3638">introduce datos</text></g><!--link Paso3 to *end*CrearGrupoContainer--><g class="link" data-entity-1="Paso3" data-entity-2=".end.CrearGrupoContainer" data-source-line="54" data-uid="lnk7" id="link_Paso3_.end.CrearGrupoContainer"><path d="M44,598.3869 C44,620.7869 44,647.0669 44,663.2469" fill="none" id="Paso3-to-*end*CrearGrupoContainer" style="stroke:#009900;stroke-width:1;"/><polygon fill="#009900" points="44,669.2469,48,660.2469,44,664.2469,40,660.2469,44,669.2469" style="stroke:#009900;stroke-width:1;"/><path d="M49,621.2969 L49,646.2969 L281,646.2969 L281,631.2969 L271,621.2969 L49,621.2969" fill="#FFFFE0" style="stroke:#B0B060;stroke-width:0.5;"/><path d="M271,621.2969 L271,631.2969 L281,631.2969 L271,621.2969" fill="#FFFFE0" style="stroke:#B0B060;stroke-width:0.5;"/><text fill="#000000" font-family="Arial" font-size="13" font-weight="bold" lengthAdjust="spacing" textLength="58.9063" x="55" y="638.3638">Sistema</text><text fill="#000000" font-family="Arial" font-size="13" lengthAdjust="spacing" textLength="148.6367" x="118.0386" y="638.3638">presenta grupo creado</text></g><g id="GRUPO_ABIERTO"><rect fill="#FFFFFF" height="50" rx="12.5" ry="12.5" style="stroke:#000000;stroke-width:0.5;" width="138.7402" x="67" y="796"/><line style="stroke:#000000;stroke-width:0.5;" x1="67" x2="205.7402" y1="822.2969" y2="822.2969"/><text fill="#000000" font-family="sans-serif" font-size="14" lengthAdjust="spacing" textLength="118.7402" x="77" y="813.9951">GRUPO_ABIERTO</text></g><g id="FinCancelacion"><rect fill="#FFFFFF" height="50" rx="12.5" ry="12.5" style="stroke:#000000;stroke-width:0.5;" width="147.627" x="241.5" y="796"/><line style="stroke:#000000;stroke-width:0.5;" x1="241.5" x2="389.127" y1="822.2969" y2="822.2969"/><text fill="#000000" font-family="sans-serif" font-size="14" lengthAdjust="spacing" textLength="127.627" x="251.5" y="813.9951">GRUPOS_ABIERTO</text></g><!--reverse link GRUPO_ABIERTO to FinCancelacion--><!--link Inicio to CrearGrupoContainer--><g class="link" data-entity-1="Inicio" data-entity-2="CrearGrupoContainer" data-source-line="70" data-uid="lnk10" id="link_Inicio_CrearGrupoContainer"><path d="M225.5,57.06 C225.5,72.11 225.5,87.29 225.5,111.88" fill="none" id="Inicio-to-CrearGrupoContainer" style="stroke:#009900;stroke-width:1;"/><polygon fill="#009900" points="225.5,117.88,229.5,108.88,225.5,112.88,221.5,108.88,225.5,117.88" style="stroke:#009900;stroke-width:1;"/></g><!--link CrearGrupoContainer to GRUPO_ABIERTO--><g class="link" data-entity-1="CrearGrupoContainer" data-entity-2="GRUPO_ABIERTO" data-source-line="73" data-uid="lnk11" id="link_CrearGrupoContainer_GRUPO_ABIERTO"><path d="M162.36,701.01 C153.83,740.24 147.695,768.487 143.015,790.007" fill="none" id="CrearGrupoContainer-to-GRUPO_ABIERTO" style="stroke:#009900;stroke-width:1;"/><polygon fill="#009900" points="141.74,795.87,147.5612,787.9256,142.8025,790.9842,139.7439,786.2255,141.74,795.87" style="stroke:#009900;stroke-width:1;"/></g><!--link CrearGrupoContainer to FinCancelacion--><g class="link" data-entity-1="CrearGrupoContainer" data-entity-2="FinCancelacion" data-source-line="76" data-uid="lnk12" id="link_CrearGrupoContainer_FinCancelacion"><path d="M289.35,701.01 C297.97,740.24 304.182,768.4899 308.912,790.0099" fill="none" id="CrearGrupoContainer-to-FinCancelacion" style="stroke:#0000FF;stroke-width:1;"/><polygon fill="#0000FF" points="310.2,795.87,312.1747,786.2211,309.1266,790.9866,304.3612,787.9385,310.2,795.87" style="stroke:#0000FF;stroke-width:1;"/><path d="M306.5,736 L306.5,761 L441.5,761 L441.5,746 L431.5,736 L306.5,736" fill="#FFFFE0" style="stroke:#B0B060;stroke-width:0.5;"/><path d="M431.5,736 L431.5,746 L441.5,746 L431.5,736" fill="#FFFFE0" style="stroke:#B0B060;stroke-width:0.5;"/><text fill="#000000" font-family="Arial" font-size="13" lengthAdjust="spacing" textLength="114.9624" x="312.5" y="753.0669">cancelar creaci&#243;n</text></g><!--SRC=[bLJDQjj04BxxAORuu1zmSPnII0u5ML5IGx6DvRQ14CfQMjkRI3jYTzMKb4AlFVSDUi-fZ-0twPDqj99S-HUo1u5cPxxvvfkTQO2BSYuMgMA1MFsHy4Neb4Kr_I1amXIB8KQ9mL9Xp67E8iqhLth9Gdmip0OJC0WpD0PZ28NYWH4eQrL_mmo7RpMWqsV1mq9XAaCN8rJmQIaCpszGXLpbrdv4RjRgA8MFkR7UxPwVTxlMx1kcpBQlLuBcfkzL3X8FKgXVqV6wEoJg_Mw_-oQtNw4qGqPQE4gGJ0JT08_g2X64507PW7yrN4c49b4MCzQgvMMVN4y-Z4V-PwS_y2RJqGam3OCi12iO0SP9oZNfc2WX0v5ahSZ30yMPkbPfWisM3NRN1cgXOK9oLHHcFmqOfzAWXf03aq74xZbHjDIqTIXmmOADcSRJ_URUVlDPhKn3Ft1w0Jv6L8r9mr89Ut_RleDEvsqbWUq0IeY4pDkLdNRR2MEAqqQH3ghT1ft3CR25mo8hrBfp6LgCZVmzoa_1F6QG2AeuP5dfyUfPYhYerp9OS-aTur904Oj4SSr9tP8ELRU3JfQemYyxVt_yXY76CyN_Nq8JPv5OKAWIsDfmlUGwK289Li_4PJ_QcAkO9cGjYzhHvOWdzPz7HOWTyyD2da7JzyREnBaSjIx02VAja77QQD1QqTvQqRENT9TUei8m3Gej3_DvVP1FqQGrapFBXDxR2pkRDoUJ9jnwO9NfrZ0NaaLSb-EjQRvdx1xByRRJNGxtaP6_4jBDsn7OxTWWrXrQA-g9-gDvjgIgYpYxhMt6GETsASAGoxk8pmsLl9cwG9nEdA4_S0UZeUU3TpFr9aF7jsXPJJ9h1Alb-yVgjcURP9wdhy1daGXPzknNFsy6qn4qFt9QZYtem3iYnBRoxrjBdNqiUrLerncwtdl77Qn-3KdPfpJQmlUF9xYjpwAKtr6UBO5tti6UOIWR_Wy0]--></g></svg>