<svg xmlns="http://www.w3.org/2000/svg" xmlns:xlink="http://www.w3.org/1999/xlink" contentStyleType="text/css" data-diagram-type="STATE" height="721px" preserveAspectRatio="none" style="width:396px;height:721px;background:#FFFFFF;" version="1.1" viewBox="0 0 396 721" width="396px" zoomAndPan="magnify"><defs/><g><rect fill="#FFFFFF" height="40" rx="12.5" ry="12.5" style="stroke:#000000;stroke-width:0.5;" width="137.627" x="126" y="7"/><text fill="#000000" font-family="sans-serif" font-size="14" lengthAdjust="spacing" textLength="127.627" x="131" y="31.8467">GRUPOS_ABIERTO</text><path d="M19.5,107 L370.5,107 A12.5,12.5 0 0 1 383,119.5 L383,133.2969 L7,133.2969 L7,119.5 A12.5,12.5 0 0 1 19.5,107" fill="#FFFFFF"/><rect fill="none" height="508.2969" rx="12.5" ry="12.5" style="stroke:#000000;stroke-width:0.5;" width="376" x="7" y="107"/><line style="stroke:#000000;stroke-width:0.5;" x1="7" x2="383" y1="133.2969" y2="133.2969"/><text fill="#000000" font-family="sans-serif" font-size="14" lengthAdjust="spacing" textLength="90.2549" x="149.8726" y="124.9951">crearGrupo()</text><rect fill="#FFFFFF" height="40" rx="12.5" ry="12.5" style="stroke:#000000;stroke-width:0.5;" width="50" x="19" y="235.2969"/><text fill="#000000" font-family="sans-serif" font-size="14" lengthAdjust="spacing" textLength="4.4502" x="41.7749" y="260.1436">&#160;</text><rect fill="#FFFFFF" height="40" rx="12.5" ry="12.5" style="stroke:#000000;stroke-width:0.5;" width="50" x="19" y="361.2969"/><text fill="#000000" font-family="sans-serif" font-size="14" lengthAdjust="spacing" textLength="4.4502" x="41.7749" y="386.1436">&#160;</text><rect fill="#FFFFFF" height="40" rx="12.5" ry="12.5" style="stroke:#000000;stroke-width:0.5;" width="50" x="19" y="472.2969"/><text fill="#000000" font-family="sans-serif" font-size="14" lengthAdjust="spacing" textLength="4.4502" x="41.7749" y="497.1436">&#160;</text><ellipse cx="44" cy="154.2969" fill="#222222" rx="10" ry="10" style="stroke:#222222;stroke-width:1;"/><ellipse cx="44" cy="594.2969" fill="none" rx="11" ry="11" style="stroke:#222222;stroke-width:1;"/><ellipse cx="44" cy="594.2969" fill="#222222" rx="6" ry="6" style="stroke:#222222;stroke-width:1;"/><!--link *start*MainBlock to Paso1--><g class="link" data-entity-1=".start.MainBlock" data-entity-2="Paso1" data-source-line="21" data-uid="lnk3" id="link_.start.MainBlock_Paso1"><path d="M44,164.4369 C44,180.4169 44,207.7869 44,229.0669" fill="none" id="*start*MainBlock-to-Paso1" style="stroke:#008000;stroke-width:1;"/><polygon fill="#008000" points="44,235.0669,48,226.0669,44,230.0669,40,226.0669,44,235.0669" style="stroke:#008000;stroke-width:1;"/><path d="M49,187.2969 L49,212.2969 L312,212.2969 L312,197.2969 L302,187.2969 L49,187.2969" fill="#FFFFE0" style="stroke:#808080;stroke-width:0.5;"/><path d="M302,187.2969 L302,197.2969 L312,197.2969 L302,187.2969" fill="#FFFFE0" style="stroke:#808080;stroke-width:0.5;"/><text fill="#000000" font-family="sans-serif" font-size="13" font-weight="bold" lengthAdjust="spacing" textLength="162.1191" x="55" y="204.3638">Administrador solicita</text><text fill="#000000" font-family="sans-serif" font-size="13" lengthAdjust="spacing" textLength="75.9751" x="221.2515" y="204.3638">crear grupo</text></g><!--link Paso1 to Paso2--><g class="link" data-entity-1="Paso1" data-entity-2="Paso2" data-source-line="29" data-uid="lnk4" id="link_Paso1_Paso2"><path d="M44,275.3969 C44,298.6369 44,331.6369 44,354.9669" fill="none" id="Paso1-to-Paso2" style="stroke:#008000;stroke-width:1;"/><polygon fill="#008000" points="44,360.9669,48,351.9669,44,355.9669,40,351.9669,44,360.9669" style="stroke:#008000;stroke-width:1;"/><path d="M49,298.2969 L49,338.2969 L374,338.2969 L374,308.2969 L364,298.2969 L49,298.2969" fill="#FFFFE0" style="stroke:#808080;stroke-width:0.5;"/><path d="M364,298.2969 L364,308.2969 L374,308.2969 L364,298.2969" fill="#FFFFE0" style="stroke:#808080;stroke-width:0.5;"/><text fill="#000000" font-family="sans-serif" font-size="13" font-weight="bold" lengthAdjust="spacing" textLength="197.9263" x="55" y="315.3638">Sistema permite introducir</text><text fill="#000000" font-family="sans-serif" font-size="13" lengthAdjust="spacing" textLength="102.21" x="257.0586" y="315.3638">datos del grupo</text><text fill="#000000" font-family="sans-serif" font-size="13" lengthAdjust="spacing" textLength="168.543" x="55" y="330.4966">(ID, Nombre, Descripci&#243;n)</text></g><!--link Paso2 to Paso3--><g class="link" data-entity-1="Paso2" data-entity-2="Paso3" data-source-line="38" data-uid="lnk5" id="link_Paso2_Paso3"><path d="M44,401.5369 C44,421.4569 44,446.3969 44,466.2569" fill="none" id="Paso2-to-Paso3" style="stroke:#008000;stroke-width:1;"/><polygon fill="#008000" points="44,472.2569,48,463.2569,44,467.2569,40,463.2569,44,472.2569" style="stroke:#008000;stroke-width:1;"/><path d="M49,424.2969 L49,449.2969 L289,449.2969 L289,434.2969 L279,424.2969 L49,424.2969" fill="#FFFFE0" style="stroke:#808080;stroke-width:0.5;"/><path d="M279,424.2969 L279,434.2969 L289,434.2969 L279,424.2969" fill="#FFFFE0" style="stroke:#808080;stroke-width:0.5;"/><text fill="#000000" font-family="sans-serif" font-size="13" font-weight="bold" lengthAdjust="spacing" textLength="179.7402" x="55" y="441.3638">Administrador introduce</text><text fill="#000000" font-family="sans-serif" font-size="13" lengthAdjust="spacing" textLength="36.042" x="238.8726" y="441.3638">datos</text></g><!--link Paso3 to *end*MainBlock--><g class="link" data-entity-1="Paso3" data-entity-2=".end.MainBlock" data-source-line="46" data-uid="lnk7" id="link_Paso3_.end.MainBlock"><path d="M44,512.5769 C44,533.6869 44,560.7369 44,577.2269" fill="none" id="Paso3-to-*end*MainBlock" style="stroke:#008000;stroke-width:1;"/><polygon fill="#008000" points="44,583.2269,48,574.2269,44,578.2269,40,574.2269,44,583.2269" style="stroke:#008000;stroke-width:1;"/><path d="M49,535.2969 L49,560.2969 L289,560.2969 L289,545.2969 L279,535.2969 L49,535.2969" fill="#FFFFE0" style="stroke:#808080;stroke-width:0.5;"/><path d="M279,535.2969 L279,545.2969 L289,545.2969 L279,535.2969" fill="#FFFFE0" style="stroke:#808080;stroke-width:0.5;"/><text fill="#000000" font-family="sans-serif" font-size="13" font-weight="bold" lengthAdjust="spacing" textLength="128.7622" x="55" y="552.3638">Sistema presenta</text><text fill="#000000" font-family="sans-serif" font-size="13" lengthAdjust="spacing" textLength="86.8359" x="187.8945" y="552.3638">grupo creado</text></g><rect fill="#FFFFFF" height="40" rx="12.5" ry="12.5" style="stroke:#000000;stroke-width:0.5;" width="128.7402" x="130.5" y="675"/><text fill="#000000" font-family="sans-serif" font-size="14" lengthAdjust="spacing" textLength="118.7402" x="135.5" y="699.8467">GRUPO_ABIERTO</text><!--link GRUPOS_ABIERTO to MainBlock--><g class="link" data-entity-1="GRUPOS_ABIERTO" data-entity-2="MainBlock" data-source-line="56" data-uid="lnk8" id="link_GRUPOS_ABIERTO_MainBlock"><path d="M195,47.28 C195,61.4 195,76.3 195,100.73" fill="none" id="GRUPOS_ABIERTO-to-MainBlock" style="stroke:#008000;stroke-width:1;"/><polygon fill="#008000" points="195,106.73,199,97.73,195,101.73,191,97.73,195,106.73" style="stroke:#008000;stroke-width:1;"/></g><!--link MainBlock to GRUPO_ABIERTO--><g class="link" data-entity-1="MainBlock" data-entity-2="GRUPO_ABIERTO" data-source-line="57" data-uid="lnk9" id="link_MainBlock_GRUPO_ABIERTO"><path d="M195,615.32 C195,639.82 195,654.77 195,668.87" fill="none" id="MainBlock-to-GRUPO_ABIERTO" style="stroke:#008000;stroke-width:1;"/><polygon fill="#008000" points="195,674.87,199,665.87,195,669.87,191,665.87,195,674.87" style="stroke:#008000;stroke-width:1;"/></g><!--SRC=[ZPF1RXCn48Rl-nIZN9f4JL4JJXoGaZQA8W6j6X122A7fUfgCulMinbv2X7Wg7e4Nm-lDXgJGg3wivB7tz_UFVw_O451HXYqOyhbo6LXSbft1r0Usuk4R-mej-SolsPMeM80F60X-P1371FFrKgLovagiA7nSSQ1cHTIGDjM9ZTjITQmgcwOuKoAN_JmGTlAaxXjUhi8dibOs_wZF5BTH9q9VNjJSQ2IwWQaBYWQp1dTsz-7sPl5rF9bFxzxVr9k7-ysv56L5FWYKoYxd4kqho9LGPrgLqktjD3g7jGwWXxV8Rc8bN- -mq-SCvevpbZJvtFy2Wy5hk4KlbwcIN8e3owxfIJtw_R4fsB6lcQCdBpPA1Ept6n1OrgUcxUHCqiZIh25BwZLG1phP3c8HnQX0ME4zsoW53w95PL5tPCq_BTlm55ihLP8MyNw1Osl5L3bhv3COOauCsGF6UdJdr-VmJefxfNEuRjALy-zVhdVInl2HZN4UOZyqNZqvt1tMNL2T62EzlPFXtide-LrkVL1huoJPw8a6v-8UM0jyKTGXKeGjXBfH4VS_eAC46cFnh8OhUN8f1gcvAGpcKGvIz4U7qL-WvUFa7mR_vGLSYQFlyQN7TttyC61WPECYu3xPsT-Cjsj7Ydy0]--></g></svg>