<svg xmlns="http://www.w3.org/2000/svg" xmlns:xlink="http://www.w3.org/1999/xlink" contentStyleType="text/css" data-diagram-type="STATE" height="731px" preserveAspectRatio="none" style="width:870px;height:731px;background:#FFFFFF;" version="1.1" viewBox="0 0 870 731" width="870px" zoomAndPan="magnify"><defs/><g><g id="Inicio"><rect fill="#FFFFFF" height="50" rx="12.5" ry="12.5" style="stroke:#000000;stroke-width:0.5;" width="147.627" x="358" y="7"/><line style="stroke:#000000;stroke-width:0.5;" x1="358" x2="505.627" y1="33.2969" y2="33.2969"/><text fill="#000000" font-family="sans-serif" font-size="14" lengthAdjust="spacing" textLength="127.627" x="368" y="24.9951">GRUPOS_ABIERTO</text></g><path d="M19.5,118 L844.4,118 A12.5,12.5 0 0 1 856.9,130.5 L856.9,144.2969 L7,144.2969 L7,130.5 A12.5,12.5 0 0 1 19.5,118" fill="#FFFFFF"/><rect fill="none" height="462.2969" rx="12.5" ry="12.5" style="stroke:#000000;stroke-width:0.5;" width="849.9" x="7" y="118"/><line style="stroke:#000000;stroke-width:0.5;" x1="7" x2="856.9" y1="144.2969" y2="144.2969"/><text fill="#000000" font-family="sans-serif" font-size="14" lengthAdjust="spacing" textLength="90.2549" x="386.8226" y="135.9951">crearGrupo()</text><g id="CrearGrupoContainer.EstadoFormulario"><rect fill="#FFFFFF" height="50" rx="12.5" ry="12.5" style="stroke:#000000;stroke-width:0.5;" width="50" x="245.9" y="246.2969"/><line style="stroke:#000000;stroke-width:0.5;" x1="245.9" x2="295.9" y1="272.5938" y2="272.5938"/><text fill="#000000" font-family="sans-serif" font-size="14" lengthAdjust="spacing" textLength="4.4502" x="268.6749" y="264.292">&#160;</text></g><g id="CrearGrupoContainer.EstadoDecision"><rect fill="#FFFFFF" height="50" rx="12.5" ry="12.5" style="stroke:#000000;stroke-width:0.5;" width="50" x="245.9" y="427.2969"/><line style="stroke:#000000;stroke-width:0.5;" x1="245.9" x2="295.9" y1="453.5938" y2="453.5938"/><text fill="#000000" font-family="sans-serif" font-size="14" lengthAdjust="spacing" textLength="4.4502" x="268.6749" y="445.292">&#160;</text></g><ellipse cx="270.9" cy="165.2969" fill="#222222" rx="10" ry="10" style="stroke:#222222;stroke-width:1;"/><ellipse cx="270.9" cy="559.2969" fill="none" rx="11" ry="11" style="stroke:#222222;stroke-width:1;"/><ellipse cx="270.9" cy="559.2969" fill="#222222" rx="6" ry="6" style="stroke:#222222;stroke-width:1;"/><!--link *start*CrearGrupoContainer to EstadoFormulario--><g class="link" data-entity-1=".start.CrearGrupoContainer" data-entity-2="EstadoFormulario" data-source-line="29" data-uid="lnk3" id="link_.start.CrearGrupoContainer_EstadoFormulario"><path d="M270.9,175.5269 C270.9,191.2369 270.9,217.6569 270.9,240.1669" fill="none" id="*start*CrearGrupoContainer-to-EstadoFormulario" style="stroke:#009900;stroke-width:1;"/><polygon fill="#009900" points="270.9,246.1669,274.9,237.1669,270.9,241.1669,266.9,237.1669,270.9,246.1669" style="stroke:#009900;stroke-width:1;"/><path d="M275.9,198.2969 L275.9,223.2969 L530.9,223.2969 L530.9,208.2969 L520.9,198.2969 L275.9,198.2969" fill="#FFFFE0" style="stroke:#B0B060;stroke-width:0.5;"/><path d="M520.9,198.2969 L520.9,208.2969 L530.9,208.2969 L520.9,198.2969" fill="#FFFFE0" style="stroke:#B0B060;stroke-width:0.5;"/><text fill="#000000" font-family="Arial" font-size="13" font-weight="bold" lengthAdjust="spacing" textLength="104.8633" x="281.9" y="215.3638">Administrador</text><text fill="#000000" font-family="Arial" font-size="13" lengthAdjust="spacing" textLength="125.8804" x="390.8956" y="215.3638">solicita crear grupo</text></g><!--link EstadoFormulario to EstadoDecision--><g class="link" data-entity-1="EstadoFormulario" data-entity-2="EstadoDecision" data-source-line="34" data-uid="lnk4" id="link_EstadoFormulario_EstadoDecision"><path d="M245.75,273.5369 C195.55,276.5769 85.77,286.3569 62.9,314.2969 C36.17,346.9769 36.17,376.6169 62.9,409.2969 C85.77,437.2369 189.561,446.6542 239.761,449.6942" fill="none" id="EstadoFormulario-to-EstadoDecision" style="stroke:#009900;stroke-width:1;"/><polygon fill="#009900" points="245.75,450.0569,237.0082,445.5202,240.7591,449.7546,236.5247,453.5055,245.75,450.0569" style="stroke:#009900;stroke-width:1;"/><path d="M67.9,319.2969 L67.9,404.2969 L453.9,404.2969 L453.9,329.2969 L443.9,319.2969 L67.9,319.2969" fill="#FFFFE0" style="stroke:#B0B060;stroke-width:0.5;"/><path d="M443.9,319.2969 L443.9,329.2969 L453.9,329.2969 L443.9,319.2969" fill="#FFFFE0" style="stroke:#B0B060;stroke-width:0.5;"/><text fill="#000000" font-family="Arial" font-size="13" font-weight="bold" lengthAdjust="spacing" textLength="58.9063" x="73.9" y="336.3638">Sistema</text><text fill="#000000" font-family="Arial" font-size="13" lengthAdjust="spacing" textLength="302.4722" x="136.9386" y="336.3638">presenta solicitud de datos m&#237;nimos del grupo</text><text fill="#000000" font-family="Arial" font-size="13" font-weight="bold" lengthAdjust="spacing" textLength="58.9063" x="73.9" y="351.4966">Sistema</text><text fill="#000000" font-family="Arial" font-size="13" lengthAdjust="spacing" textLength="110.5952" x="136.9386" y="351.4966">permite solicitar:</text><ellipse cx="79.4" cy="362.1953" fill="#000000" rx="2.5" ry="2.5"/><text fill="#000000" font-family="Arial" font-size="13" lengthAdjust="spacing" textLength="291.5986" x="85.9" y="366.6294">introducir nombre (obligatorio) y descripci&#243;n</text><ellipse cx="79.4" cy="377.3281" fill="#000000" rx="2.5" ry="2.5"/><text fill="#000000" font-family="Arial" font-size="13" lengthAdjust="spacing" textLength="75.9751" x="85.9" y="381.7622">crear grupo</text><ellipse cx="79.4" cy="392.4609" fill="#000000" rx="2.5" ry="2.5"/><text fill="#000000" font-family="Arial" font-size="13" lengthAdjust="spacing" textLength="114.9624" x="85.9" y="396.895">cancelar creaci&#243;n</text></g><!--reverse link EstadoFormulario to EstadoDecision--><g class="link" data-entity-1="EstadoFormulario" data-entity-2="EstadoDecision" data-source-line="44" data-uid="lnk6" id="link_EstadoFormulario_EstadoDecision"><path d="M302.1283,274.6363 C348.5983,278.5963 438.78,289.1769 458.9,314.2969 C485.3,347.2469 485.3,376.3469 458.9,409.2969 C438.78,434.4169 342.62,445.5069 296.15,449.4669" fill="none" id="EstadoFormulario-backto-EstadoDecision" style="stroke:#008000;stroke-width:1;"/><polygon fill="#008000" points="296.15,274.1269,304.7779,278.8766,301.1319,274.5514,305.4571,270.9055,296.15,274.1269" style="stroke:#008000;stroke-width:1;"/><path d="M482.9,349.2969 L482.9,374.2969 L847.9,374.2969 L847.9,359.2969 L837.9,349.2969 L482.9,349.2969" fill="#FFFFE0" style="stroke:#B0B060;stroke-width:0.5;"/><path d="M837.9,349.2969 L837.9,359.2969 L847.9,359.2969 L837.9,349.2969" fill="#FFFFE0" style="stroke:#B0B060;stroke-width:0.5;"/><text fill="#000000" font-family="Arial" font-size="13" font-weight="bold" lengthAdjust="spacing" textLength="104.8633" x="488.9" y="366.3638">Administrador</text><text fill="#000000" font-family="Arial" font-size="13" lengthAdjust="spacing" textLength="235.8154" x="597.8956" y="366.3638">solicita modificar datos introducidos</text></g><!--link EstadoDecision to *end*CrearGrupoContainer--><g class="link" data-entity-1="EstadoDecision" data-entity-2=".end.CrearGrupoContainer" data-source-line="50" data-uid="lnk8" id="link_EstadoDecision_.end.CrearGrupoContainer"><path d="M245.46,454.2669 C180.65,457.5969 18,471.8569 68.9,530.2969 C94.07,559.1969 215.1409,559.341 253.7609,558.671" fill="none" id="EstadoDecision-to-*end*CrearGrupoContainer" style="stroke:#008000;stroke-width:1;"/><polygon fill="#008000" points="259.76,558.5669,250.692,554.7236,254.7608,558.6536,250.8307,562.7224,259.76,558.5669" style="stroke:#008000;stroke-width:1;"/><path d="M73.9,500.2969 L73.9,525.2969 L446.9,525.2969 L446.9,510.2969 L436.9,500.2969 L73.9,500.2969" fill="#FFFFE0" style="stroke:#B0B060;stroke-width:0.5;"/><path d="M436.9,500.2969 L436.9,510.2969 L446.9,510.2969 L436.9,500.2969" fill="#FFFFE0" style="stroke:#B0B060;stroke-width:0.5;"/><text fill="#000000" font-family="Arial" font-size="13" font-weight="bold" lengthAdjust="spacing" textLength="104.8633" x="79.9" y="517.3638">Administrador</text><text fill="#000000" font-family="Arial" font-size="13" lengthAdjust="spacing" textLength="243.896" x="188.8956" y="517.3638">introduce datos y solicita crear grupo</text></g><!--link EstadoDecision to *end*CrearGrupoContainer--><g class="link" data-entity-1="EstadoDecision" data-entity-2=".end.CrearGrupoContainer" data-source-line="55" data-uid="lnk9" id="link_EstadoDecision_.end.CrearGrupoContainer"><path d="M296.32,455.0269 C356.08,459.9969 497.13,477.5369 451.9,530.2969 C429.71,556.1869 323.63,558.3435 287.88,558.3635" fill="none" id="EstadoDecision-to-*end*CrearGrupoContainer-1" style="stroke:#FF0000;stroke-width:1;"/><polygon fill="#FF0000" points="281.88,558.3669,290.88,562.3669,286.88,558.3669,290.88,554.3669,281.88,558.3669" style="stroke:#FF0000;stroke-width:1;"/><path d="M464.9,500.2969 L464.9,525.2969 L758.9,525.2969 L758.9,510.2969 L748.9,500.2969 L464.9,500.2969" fill="#FFFFE0" style="stroke:#B0B060;stroke-width:0.5;"/><path d="M748.9,500.2969 L748.9,510.2969 L758.9,510.2969 L748.9,500.2969" fill="#FFFFE0" style="stroke:#B0B060;stroke-width:0.5;"/><text fill="#000000" font-family="Arial" font-size="13" font-weight="bold" lengthAdjust="spacing" textLength="104.8633" x="470.9" y="517.3638">Administrador</text><text fill="#000000" font-family="Arial" font-size="13" lengthAdjust="spacing" textLength="164.8677" x="579.8956" y="517.3638">solicita cancelar creaci&#243;n</text></g><g id="FinExito"><rect fill="#FFFFFF" height="50" rx="12.5" ry="12.5" style="stroke:#000000;stroke-width:0.5;" width="138.7402" x="273.5" y="675"/><line style="stroke:#000000;stroke-width:0.5;" x1="273.5" x2="412.2402" y1="701.2969" y2="701.2969"/><text fill="#000000" font-family="sans-serif" font-size="14" lengthAdjust="spacing" textLength="118.7402" x="283.5" y="692.9951">GRUPO_ABIERTO</text></g><g id="FinCancelacion"><rect fill="#FFFFFF" height="50" rx="12.5" ry="12.5" style="stroke:#000000;stroke-width:0.5;" width="147.627" x="448" y="675"/><line style="stroke:#000000;stroke-width:0.5;" x1="448" x2="595.627" y1="701.2969" y2="701.2969"/><text fill="#000000" font-family="sans-serif" font-size="14" lengthAdjust="spacing" textLength="127.627" x="458" y="692.9951">GRUPOS_ABIERTO</text></g><!--link Inicio to CrearGrupoContainer--><g class="link" data-entity-1="Inicio" data-entity-2="CrearGrupoContainer" data-source-line="67" data-uid="lnk10" id="link_Inicio_CrearGrupoContainer"><path d="M432,57.19 C432,72.39 432,87.68 432,111.89" fill="none" id="Inicio-to-CrearGrupoContainer" style="stroke:#009900;stroke-width:1;"/><polygon fill="#009900" points="432,117.89,436,108.89,432,112.89,428,108.89,432,117.89" style="stroke:#009900;stroke-width:1;"/></g><!--link CrearGrupoContainer to FinExito--><g class="link" data-entity-1="CrearGrupoContainer" data-entity-2="FinExito" data-source-line="70" data-uid="lnk11" id="link_CrearGrupoContainer_FinExito"><path d="M373.26,580.36 C363.46,618.77 356.1723,647.336 350.6323,669.066" fill="none" id="CrearGrupoContainer-to-FinExito" style="stroke:#008000;stroke-width:1;"/><polygon fill="#008000" points="349.15,674.88,355.2494,667.1471,350.3852,670.035,347.4974,665.1708,349.15,674.88" style="stroke:#008000;stroke-width:1;"/><text fill="#000000" font-family="sans-serif" font-size="13" lengthAdjust="spacing" textLength="73.9438" x="366" y="632.0669">"               "</text></g><!--link CrearGrupoContainer to FinCancelacion--><g class="link" data-entity-1="CrearGrupoContainer" data-entity-2="FinCancelacion" data-source-line="73" data-uid="lnk12" id="link_CrearGrupoContainer_FinCancelacion"><path d="M491.4,580.36 C501.31,618.77 508.6702,647.3405 514.2802,669.0705" fill="none" id="CrearGrupoContainer-to-FinCancelacion" style="stroke:#FF0000;stroke-width:1;"/><polygon fill="#FF0000" points="515.78,674.88,517.4033,665.1658,514.5301,670.0387,509.6572,667.1656,515.78,674.88" style="stroke:#FF0000;stroke-width:1;"/><path d="M511,615 L511,640 L646,640 L646,625 L636,615 L511,615" fill="#FFFFE0" style="stroke:#B0B060;stroke-width:0.5;"/><path d="M636,615 L636,625 L646,625 L636,615" fill="#FFFFE0" style="stroke:#B0B060;stroke-width:0.5;"/><text fill="#000000" font-family="Arial" font-size="13" lengthAdjust="spacing" textLength="114.9624" x="517" y="632.0669">cancelar creaci&#243;n</text></g><!--SRC=[hLNDRjD04BxdAKRjeKcaei01YHwGak1MaQeK9G4gLHMQx6xJRUqTQtRT7o4UW3DFmO4JDwvvCSPsd3ffKbI43v4zEplppNmpN_QWJ-x2pZ96PUU_7DnOds4CLiz_k60LWdoa63W_Iz3umDJmrzQbo9X0GexK9LDYu09ZRsf7_X8rtIxCWL8815CAWHBGbeqAbboZxXym6FZI07bwgAvdJ9dJVOg9uTEb3QOy8TQ6Isil5hV2scMcszAus-cyUTFf5EPnG0xhlb4Lj3HzhMDmj1N2xg4yKUSHYDrUfzTvNTeFoOKXIY-wR37EG-z197Lf0dCN33i2RS2umAWHceBQJh7LA2lVEHfzU7yo_jpj3QBHv6G7qCF0MMMf5aPHacP20a7ArYcRIfh5TSK6-OYpb9gjud9_QH2A0rfdU55RyREu1eLl6VwGECbYP4cvnUETKTRdn2t3dBNFON__xUO8HJ_9GMnTsVpyQRUxEh7E-hmDnEqsU8gbpe1Gr02p77FXRfmkOZHAvjPIrFAkuDgITImPJOAIBsNZXGMi4cSwvqLZ80_9_AUpYRne4zUGF0fXE96PN4BdWmStiC8mwKnP5Yp9b0qqQHhRcIGGs2sub-1UiKsBbQjTNAz_OKMdZ5HS73zSMMtE7lGo5Pkya8IqlP3LBHUwUKooV1LEJQrQBwksmVxPxeoDSUTP-h-uh53meh7BfcZo6_6FCROQ2qTP5NdnPZR_BGaHRYZEX2zTa89AslXa4Q8xJigGqNmEyWfWDGdtpvlBEWms-Xz1FAJy2-arSV5mOHt6nbSguqLRfdX5gzAoeYo7raLtDj0JuYCk_HA4AgHwJ_Pj7oQZxd0yw0zEXj4OejD9D1fsn_b9er6gLR6L6xGd3_3onOBbV4pdtqu7anDeVZIYfgt69hbQCYeXAyHm88Aq-kpaiL_LO_UxmtvqtEqFvj-7q1pHbGYcABpyWybmvP4LEPylisWevXyGIzVoGnbtKOUjS6hChlNd4S4R6ApO-mC0]--></g></svg>