<svg xmlns="http://www.w3.org/2000/svg" xmlns:xlink="http://www.w3.org/1999/xlink" contentStyleType="text/css" data-diagram-type="DESCRIPTION" height="114px" preserveAspectRatio="none" style="width:368px;height:114px;background:#FFFFFF;" version="1.1" viewBox="0 0 368 114" width="368px" zoomAndPan="magnify"><defs/><g><!--cluster Automatizaci?n--><g class="cluster" data-entity="Automatizaci.n" data-source-line="4" data-uid="ent0003" id="cluster_Automatizaci.n"><path d="M104.5,6 L228.417,6 A3.75,3.75 0 0 1 230.917,8.5 L237.917,28.2969 L358.5,28.2969 A2.5,2.5 0 0 1 361,30.7969 L361,104.5 A2.5,2.5 0 0 1 358.5,107 L104.5,107 A2.5,2.5 0 0 1 102,104.5 L102,8.5 A2.5,2.5 0 0 1 104.5,6" fill="none" style="stroke:#000000;stroke-width:1.5;"/><line style="stroke:#000000;stroke-width:1.5;" x1="102" x2="237.917" y1="28.2969" y2="28.2969"/><text fill="#000000" font-family="sans-serif" font-size="14" font-weight="bold" lengthAdjust="spacing" textLength="122.917" x="106" y="20.9951">Automatizaci&#243;n</text></g><!--entity UC_A1--><g class="entity" data-entity="UC_A1" data-source-line="5" data-uid="ent0004" id="entity_UC_A1"><ellipse cx="231.3843" cy="66.0769" fill="#F1F1F1" rx="113.3843" ry="25.0769" style="stroke:#181818;stroke-width:0.5;"/><text fill="#000000" font-family="sans-serif" font-size="14" lengthAdjust="spacing" textLength="205.1807" x="128.794" y="70.7253">Detectar Conflicto de Horario</text></g><!--entity T--><g class="entity" data-entity="T" data-source-line="2" data-uid="ent0002" id="entity_T"><ellipse cx="32.0723" cy="36.5" fill="#F1F1F1" rx="8" ry="8" style="stroke:#181818;stroke-width:0.5;"/><path d="M32.0723,44.5 L32.0723,71.5 M19.0723,52.5 L45.0723,52.5 M32.0723,71.5 L19.0723,86.5 M32.0723,71.5 L45.0723,86.5" fill="none" style="stroke:#181818;stroke-width:0.5;"/><text fill="#000000" font-family="sans-serif" font-size="14" lengthAdjust="spacing" textLength="52.1445" x="6" y="100.9951">Tiempo</text></g><!--link T to UC_A1--><g class="link" data-entity-1="T" data-entity-2="UC_A1" data-source-line="8" data-uid="lnk5" id="link_T_UC_A1"><path d="M58.01,66 C73.79,66 89.4,66 111.99,66" fill="none" id="T-to-UC_A1" style="stroke:#181818;stroke-width:1;"/><polygon fill="#181818" points="117.99,66,108.99,62,112.99,66,108.99,70,117.99,66" style="stroke:#181818;stroke-width:1;"/></g><!--SRC=[9Ooz3S8m44PxJ_79VGeMG8f2mG2cHYVd4aualiYvD45CnGWiXebV-VsyYGU3ARAC3qClcQE99aVHDCC7uNbH3reHd4DXeVYaaU7RpNGcavsYV3_9utNqVxQL8wrbSs4hFiheD0sJ52TwnbKpPQdMMtTlJyVnNVq1JNEkyGy0]--></g></svg>