<svg xmlns="http://www.w3.org/2000/svg" xmlns:xlink="http://www.w3.org/1999/xlink" contentStyleType="text/css" data-diagram-type="DESCRIPTION" height="103px" preserveAspectRatio="none" style="width:302px;height:103px;background:#FFFFFF;" version="1.1" viewBox="0 0 302 103" width="302px" zoomAndPan="magnify"><defs/><g><!--cluster Automatizaci?n--><g class="cluster" data-entity="Automatizaci.n" data-source-line="4" data-uid="ent0003" id="cluster_Automatizaci.n"><path d="M104.5,6 L228.417,6 A3.75,3.75 0 0 1 230.917,8.5 L237.917,28.2969 L292.5,28.2969 A2.5,2.5 0 0 1 295,30.7969 L295,92.5 A2.5,2.5 0 0 1 292.5,95 L104.5,95 A2.5,2.5 0 0 1 102,92.5 L102,8.5 A2.5,2.5 0 0 1 104.5,6" fill="none" style="stroke:#000000;stroke-width:1.5;"/><line style="stroke:#000000;stroke-width:1.5;" x1="102" x2="237.917" y1="28.2969" y2="28.2969"/><text fill="#000000" font-family="sans-serif" font-size="14" font-weight="bold" lengthAdjust="spacing" textLength="122.917" x="106" y="20.9951">Automatizaci&#243;n</text></g><!--entity UC_A1--><g class="entity" data-entity="UC_A1" data-source-line="5" data-uid="ent0004" id="entity_UC_A1"><ellipse cx="198.444" cy="59.9888" fill="#F1F1F1" rx="80.444" ry="18.4888" style="stroke:#181818;stroke-width:0.5;"/><text fill="#000000" font-family="sans-serif" font-size="14" lengthAdjust="spacing" textLength="131.7217" x="132.5832" y="64.6372">detectarConflicto()</text></g><!--entity T--><g class="entity" data-entity="T" data-source-line="2" data-uid="ent0002" id="entity_T"><ellipse cx="32.0723" cy="30.5" fill="#F1F1F1" rx="8" ry="8" style="stroke:#181818;stroke-width:0.5;"/><path d="M32.0723,38.5 L32.0723,65.5 M19.0723,46.5 L45.0723,46.5 M32.0723,65.5 L19.0723,80.5 M32.0723,65.5 L45.0723,80.5" fill="none" style="stroke:#181818;stroke-width:0.5;"/><text fill="#000000" font-family="sans-serif" font-size="14" lengthAdjust="spacing" textLength="52.1445" x="6" y="94.9951">Tiempo</text></g><!--link T to UC_A1--><g class="link" data-entity-1="T" data-entity-2="UC_A1" data-source-line="8" data-uid="lnk5" id="link_T_UC_A1"><path d="M58.34,60 C74.47,60 90.34,60 111.95,60" fill="none" id="T-to-UC_A1" style="stroke:#181818;stroke-width:1;"/><polygon fill="#181818" points="117.95,60,108.95,56,112.95,60,108.95,64,117.95,60" style="stroke:#181818;stroke-width:1;"/></g><!--SRC=[9Omn3eCm34NtdCBAr0uClK0bn1NIkRAC0Gk8KM8MgfwgH-Z5ceOt_l_q5XuCJ279E1dqafXCD3eaqmG-2A-RUi0CmJaeR4WpZWo-tKrND3cGvFk97bxr_xDd9ip5wTbA3rEdSLYa92_Nsdfqp_PMzVTP3T0qztF-0G00]--></g></svg>