<svg xmlns="http://www.w3.org/2000/svg" xmlns:xlink="http://www.w3.org/1999/xlink" contentStyleType="text/css" data-diagram-type="STATE" height="393px" preserveAspectRatio="none" style="width:1137px;height:393px;background:#FFFFFF;" version="1.1" viewBox="0 0 1137 393" width="1137px" zoomAndPan="magnify"><defs/><g><rect fill="#F1F1F1" height="40" rx="12.5" ry="12.5" style="stroke:#181818;stroke-width:0.5;" width="60.1895" x="999.19" y="124"/><text fill="#000000" font-family="sans-serif" font-size="14" lengthAdjust="spacing" textLength="50.1895" x="1004.19" y="148.8467">Creada</text><rect fill="#F1F1F1" height="40" rx="12.5" ry="12.5" style="stroke:#181818;stroke-width:0.5;" width="95.668" x="640.45" y="264"/><text fill="#000000" font-family="sans-serif" font-size="14" lengthAdjust="spacing" textLength="85.668" x="645.45" y="288.8467">Programada</text><rect fill="#F1F1F1" height="40" rx="12.5" ry="12.5" style="stroke:#181818;stroke-width:0.5;" width="85.291" x="488.64" y="7"/><text fill="#000000" font-family="sans-serif" font-size="14" lengthAdjust="spacing" textLength="75.291" x="493.64" y="31.8467">Recordada</text><rect fill="#F1F1F1" height="40" rx="12.5" ry="12.5" style="stroke:#181818;stroke-width:0.5;" width="98.8809" x="197.84" y="7"/><text fill="#000000" font-family="sans-serif" font-size="14" lengthAdjust="spacing" textLength="88.8809" x="202.84" y="31.8467">En ejecuci&#243;n</text><rect fill="#F1F1F1" height="40" rx="12.5" ry="12.5" style="stroke:#181818;stroke-width:0.5;" width="91.7646" x="485.4" y="124"/><text fill="#000000" font-family="sans-serif" font-size="14" lengthAdjust="spacing" textLength="81.7646" x="490.4" y="148.8467">En conflicto</text><rect fill="#F1F1F1" height="40" rx="12.5" ry="12.5" style="stroke:#181818;stroke-width:0.5;" width="80.5674" x="7" y="194"/><text fill="#000000" font-family="sans-serif" font-size="14" lengthAdjust="spacing" textLength="70.5674" x="12" y="218.8467">Finalizada</text><rect fill="#F1F1F1" height="40" rx="12.5" ry="12.5" style="stroke:#181818;stroke-width:0.5;" width="83.4727" x="127.55" y="264"/><text fill="#000000" font-family="sans-serif" font-size="14" lengthAdjust="spacing" textLength="73.4727" x="132.55" y="288.8467">Cancelada</text><ellipse cx="1029.28" cy="27" fill="#222222" rx="10" ry="10" style="stroke:#222222;stroke-width:1;"/><ellipse cx="85.28" cy="376" fill="none" rx="11" ry="11" style="stroke:#222222;stroke-width:1;"/><ellipse cx="85.28" cy="376" fill="#222222" rx="6" ry="6" style="stroke:#222222;stroke-width:1;"/><!--link *start* to Creada--><g class="link" data-entity-1=".start." data-entity-2="Creada" data-link-type="dependency" data-source-line="11" data-uid="lnk3" id="link_.start._Creada"><path d="M1029.28,37.41 C1029.28,56.19 1029.28,92.63 1029.28,117.62" fill="none" id="*start*-to-Creada" style="stroke:#181818;stroke-width:1;"/><polygon fill="#181818" points="1029.28,123.62,1033.28,114.62,1029.28,118.62,1025.28,114.62,1029.28,123.62" style="stroke:#181818;stroke-width:1;"/></g><!--link Creada to Programada--><g class="link" data-entity-1="Creada" data-entity-2="Programada" data-link-type="dependency" data-source-line="12" data-uid="lnk4" id="link_Creada_Programada"><path d="M998.99,160.26 C961.37,178.91 894.97,210.84 836.28,234 C803.43,246.97 771.3368,257.6601 742.1568,266.7801" fill="none" id="Creada-to-Programada" style="stroke:#181818;stroke-width:1;"/><polygon fill="#181818" points="736.43,268.57,746.2135,269.7031,741.2023,267.0784,743.827,262.0673,736.43,268.57" style="stroke:#181818;stroke-width:1;"/><text fill="#000000" font-family="sans-serif" font-size="13" lengthAdjust="spacing" textLength="201.1953" x="928.28" y="218.5669">Asignar horarios/localizaci&#243;nes</text></g><!--link Programada to Recordada--><g class="link" data-entity-1="Programada" data-entity-2="Recordada" data-link-type="dependency" data-source-line="14" data-uid="lnk5" id="link_Programada_Recordada"><path d="M736.37,269.64 C753.98,262.16 772.07,250.84 782.28,234 C791.5,218.8 789.92,210.05 782.28,194 C741.98,109.32 640.4622,63.7361 580.0022,42.8861" fill="none" id="Programada-to-Recordada" style="stroke:#181818;stroke-width:1;"/><polygon fill="#181818" points="574.33,40.93,581.5342,47.6456,579.0568,42.5601,584.1423,40.0827,574.33,40.93" style="stroke:#181818;stroke-width:1;"/><text fill="#000000" font-family="sans-serif" font-size="13" lengthAdjust="spacing" textLength="152.7754" x="765.28" y="148.5669">Programar recordatorio</text></g><!--reverse link EnEjecucion to Recordada--><g class="link" data-entity-1="EnEjecucion" data-entity-2="Recordada" data-link-type="dependency" data-source-line="16" data-uid="lnk7" id="link_EnEjecucion_Recordada"><path d="M303.08,27 C357.32,27 437.2,27 488.51,27" fill="none" id="EnEjecucion-backto-Recordada" style="stroke:#181818;stroke-width:1;"/><polygon fill="#181818" points="297.08,27,306.08,31,302.08,27,306.08,23,297.08,27" style="stroke:#181818;stroke-width:1;"/><text fill="#000000" font-family="sans-serif" font-size="13" lengthAdjust="spacing" textLength="78.2603" x="353.68" y="20.0669">Iniciar tarea</text></g><!--link Programada to EnEjecucion--><g class="link" data-entity-1="Programada" data-entity-2="EnEjecucion" data-link-type="dependency" data-source-line="17" data-uid="lnk8" id="link_Programada_EnEjecucion"><path d="M640.23,281.09 C559.93,277.04 402.85,265.28 358.28,234 C353.98,230.98 286.8467,103.4736 260.2367,52.7336" fill="none" id="Programada-to-EnEjecucion" style="stroke:#181818;stroke-width:1;"/><polygon fill="#181818" points="257.45,47.42,258.0876,57.2482,259.7722,51.848,265.1724,53.5326,257.45,47.42" style="stroke:#181818;stroke-width:1;"/><text fill="#000000" font-family="sans-serif" font-size="13" lengthAdjust="spacing" textLength="78.2603" x="320.28" y="148.5669">Iniciar tarea</text></g><!--link Programada to Conflicto--><g class="link" data-entity-1="Programada" data-entity-2="Conflicto" data-link-type="dependency" data-source-line="19" data-uid="lnk9" id="link_Programada_Conflicto"><path d="M684.26,263.55 C679.23,243.69 668.79,213.14 649.28,194 C629.65,174.74 607.0862,164.3996 583.1262,157.0496" fill="none" id="Programada-to-Conflicto" style="stroke:#181818;stroke-width:1;"/><polygon fill="#181818" points="577.39,155.29,584.8212,161.7536,582.1701,156.7564,587.1674,154.1053,577.39,155.29" style="stroke:#181818;stroke-width:1;"/><text fill="#000000" font-family="sans-serif" font-size="13" lengthAdjust="spacing" textLength="97.5571" x="676.28" y="218.5669">Surge conflicto</text></g><!--link Conflicto to Programada--><g class="link" data-entity-1="Conflicto" data-entity-2="Programada" data-link-type="dependency" data-source-line="26" data-uid="lnk14" id="link_Conflicto_Programada"><path d="M522.95,164.4 C515.99,183.95 509.38,213.99 524.28,234 C550.73,269.51 595.9661,279.8413 634.1561,282.6413" fill="none" id="Conflicto-to-Programada" style="stroke:#181818;stroke-width:1;"/><polygon fill="#181818" points="640.14,283.08,631.4566,278.4326,635.1534,282.7144,630.8716,286.4112,640.14,283.08" style="stroke:#181818;stroke-width:1;"/><text fill="#000000" font-family="sans-serif" font-size="13" lengthAdjust="spacing" textLength="115.8765" x="525.28" y="218.5669">Resolver conflicto</text></g><!--link Recordada to Conflicto--><g class="link" data-entity-1="Recordada" data-entity-2="Conflicto" data-link-type="dependency" data-source-line="20" data-uid="lnk10" id="link_Recordada_Conflicto"><path d="M531.28,47.25 C531.28,68.48 531.28,96.44 531.28,117.69" fill="none" id="Recordada-to-Conflicto" style="stroke:#181818;stroke-width:1;"/><polygon fill="#181818" points="531.28,123.69,535.28,114.69,531.28,118.69,527.28,114.69,531.28,123.69" style="stroke:#181818;stroke-width:1;"/><text fill="#000000" font-family="sans-serif" font-size="13" lengthAdjust="spacing" textLength="97.5571" x="532.28" y="90.0669">Surge conflicto</text></g><!--link EnEjecucion to Finalizada--><g class="link" data-entity-1="EnEjecucion" data-entity-2="Finalizada" data-link-type="dependency" data-source-line="22" data-uid="lnk11" id="link_EnEjecucion_Finalizada"><path d="M197.36,32.47 C141.18,38.66 55.15,52.02 35.28,77 C8.43,110.76 23.4667,159.745 35.7567,188.425" fill="none" id="EnEjecucion-to-Finalizada" style="stroke:#181818;stroke-width:1;"/><polygon fill="#181818" points="38.12,193.94,38.2517,184.092,36.1506,189.3442,30.8984,187.2431,38.12,193.94" style="stroke:#181818;stroke-width:1;"/><text fill="#000000" font-family="sans-serif" font-size="13" lengthAdjust="spacing" textLength="106.4692" x="36.28" y="90.0669">Completar tarea</text></g><!--link EnEjecucion to Cancelada--><g class="link" data-entity-1="EnEjecucion" data-entity-2="Cancelada" data-link-type="dependency" data-source-line="23" data-uid="lnk12" id="link_EnEjecucion_Cancelada"><path d="M234.59,47.38 C222.85,66.2 205.84,95.95 196.28,124 C179.72,172.64 173.5135,227.2595 171.0535,257.6895" fill="none" id="EnEjecucion-to-Cancelada" style="stroke:#181818;stroke-width:1;"/><polygon fill="#181818" points="170.57,263.67,175.2822,255.0216,170.9729,258.6863,167.3082,254.377,170.57,263.67" style="stroke:#181818;stroke-width:1;"/><text fill="#000000" font-family="sans-serif" font-size="13" lengthAdjust="spacing" textLength="95.856" x="197.28" y="148.5669">Cancelar tarea</text></g><!--link Conflicto to Cancelada--><g class="link" data-entity-1="Conflicto" data-entity-2="Cancelada" data-link-type="dependency" data-source-line="25" data-uid="lnk13" id="link_Conflicto_Cancelada"><path d="M485.07,162.62 C414.16,189.65 285.1965,238.813 216.9065,264.843" fill="none" id="Conflicto-to-Cancelada" style="stroke:#181818;stroke-width:1;"/><polygon fill="#181818" points="211.3,266.98,221.1345,267.5121,215.9721,265.1991,218.2851,260.0368,211.3,266.98" style="stroke:#181818;stroke-width:1;"/><text fill="#000000" font-family="sans-serif" font-size="13" lengthAdjust="spacing" textLength="95.856" x="395.28" y="218.5669">Cancelar tarea</text></g><!--link Finalizada to *end*--><g class="link" data-entity-1="Finalizada" data-entity-2=".end." data-link-type="dependency" data-source-line="28" data-uid="lnk16" id="link_Finalizada_.end."><path d="M51.87,234.3 C60,268.54 75.2927,332.9426 81.5027,359.0726" fill="none" id="Finalizada-to-*end*" style="stroke:#181818;stroke-width:1;"/><polygon fill="#181818" points="82.89,364.91,84.7006,355.229,81.7339,360.0455,76.9174,357.0788,82.89,364.91" style="stroke:#181818;stroke-width:1;"/></g><!--link Cancelada to *end*--><g class="link" data-entity-1="Cancelada" data-entity-2=".end." data-link-type="dependency" data-source-line="29" data-uid="lnk17" id="link_Cancelada_.end."><path d="M151.47,304.09 C133.17,323.69 109.6755,348.8751 96.6555,362.8151" fill="none" id="Cancelada-to-*end*" style="stroke:#181818;stroke-width:1;"/><polygon fill="#181818" points="92.56,367.2,101.6265,363.353,95.9729,363.5459,95.78,357.8924,92.56,367.2" style="stroke:#181818;stroke-width:1;"/></g><!--SRC=[XP6nJiGm38RtF8Lr8rB5pe24JaLYGyU86ABKrnhbaih98S5hyGYy66c3a_G6RafiVyx_svbeGC3J73zXm62OvaZUAHMYZWYxFQCUz0vqW7oLmZFxaVL9YZKKu836yo3r4acvTu3lQCw6VhxTYlIkpuaaNo7ZtT6IYJvxa4Y8HtBQqfV8rB0Ce9r1MsQGIAdNcpVekdiPAnzhfiu2T_0GQ7IQOVAicNoujTwi4gjn34er-D9T9atDKcBWd8q-lQ5KPJgBnvYwck5JtvCZGwahwkJgKk0_TCCoZTFoTbbQmb_EF69TQkla2gbQtGMkkqxqtfzcYx4OkOJBuXSstuldgdg5t8ARRpfWyFO3kJNS65puzE6gFlwN-GK0]--></g></svg>