<svg xmlns="http://www.w3.org/2000/svg" xmlns:xlink="http://www.w3.org/1999/xlink" contentStyleType="text/css" data-diagram-type="STATE" height="716px" preserveAspectRatio="none" style="width:741px;height:716px;background:#FFFFFF;" version="1.1" viewBox="0 0 741 716" width="741px" zoomAndPan="magnify"><defs/><g><g id="Inicio"><rect fill="#FFFFFF" height="50" rx="12.5" ry="12.5" style="stroke:#000000;stroke-width:0.5;" width="155.9395" x="289.5" y="7"/><line style="stroke:#000000;stroke-width:0.5;" x1="289.5" x2="445.4395" y1="33.2969" y2="33.2969"/><text fill="#000000" font-family="sans-serif" font-size="14" lengthAdjust="spacing" textLength="135.9395" x="299.5" y="24.9951">MIEMBRO_ABIERTO</text></g><path d="M19.5,118 L715.45,118 A12.5,12.5 0 0 1 727.95,130.5 L727.95,144.2969 L7,144.2969 L7,130.5 A12.5,12.5 0 0 1 19.5,118" fill="#FFFFFF"/><rect fill="none" height="447.2969" rx="12.5" ry="12.5" style="stroke:#000000;stroke-width:0.5;" width="720.95" x="7" y="118"/><line style="stroke:#000000;stroke-width:0.5;" x1="7" x2="727.95" y1="144.2969" y2="144.2969"/><text fill="#000000" font-family="sans-serif" font-size="14" lengthAdjust="spacing" textLength="129.4795" x="302.7353" y="135.9951">eliminarMiembro()</text><g id="EliminarMiembroContainer.PasoSolicitud"><rect fill="#FFFFFF" height="50" rx="12.5" ry="12.5" style="stroke:#000000;stroke-width:0.5;" width="50" x="212.95" y="246.2969"/><line style="stroke:#000000;stroke-width:0.5;" x1="212.95" x2="262.95" y1="272.5938" y2="272.5938"/><text fill="#000000" font-family="sans-serif" font-size="14" lengthAdjust="spacing" textLength="4.4502" x="235.7249" y="264.292">&#160;</text></g><g id="EliminarMiembroContainer.PasoConfirmacion"><rect fill="#FFFFFF" height="50" rx="12.5" ry="12.5" style="stroke:#000000;stroke-width:0.5;" width="50" x="212.95" y="412.2969"/><line style="stroke:#000000;stroke-width:0.5;" x1="212.95" x2="262.95" y1="438.5938" y2="438.5938"/><text fill="#000000" font-family="sans-serif" font-size="14" lengthAdjust="spacing" textLength="4.4502" x="235.7249" y="430.292">&#160;</text></g><ellipse cx="237.95" cy="165.2969" fill="#222222" rx="10" ry="10" style="stroke:#222222;stroke-width:1;"/><ellipse cx="237.95" cy="544.2969" fill="none" rx="11" ry="11" style="stroke:#222222;stroke-width:1;"/><ellipse cx="237.95" cy="544.2969" fill="#222222" rx="6" ry="6" style="stroke:#222222;stroke-width:1;"/><!--link *start*EliminarMiembroContainer to PasoSolicitud--><g class="link" data-entity-1=".start.EliminarMiembroContainer" data-entity-2="PasoSolicitud" data-source-line="31" data-uid="lnk3" id="link_.start.EliminarMiembroContainer_PasoSolicitud"><path d="M237.95,175.5269 C237.95,191.2369 237.95,217.6569 237.95,240.1669" fill="none" id="*start*EliminarMiembroContainer-to-PasoSolicitud" style="stroke:#009900;stroke-width:1;"/><polygon fill="#009900" points="237.95,246.1669,241.95,237.1669,237.95,241.1669,233.95,237.1669,237.95,246.1669" style="stroke:#009900;stroke-width:1;"/><path d="M242.95,198.2969 L242.95,223.2969 L537.95,223.2969 L537.95,208.2969 L527.95,198.2969 L242.95,198.2969" fill="#FFFFE0" style="stroke:#B0B060;stroke-width:0.5;"/><path d="M527.95,198.2969 L527.95,208.2969 L537.95,208.2969 L527.95,198.2969" fill="#FFFFE0" style="stroke:#B0B060;stroke-width:0.5;"/><text fill="#000000" font-family="Arial" font-size="13" font-weight="bold" lengthAdjust="spacing" textLength="104.8633" x="248.95" y="215.3638">Administrador</text><text fill="#000000" font-family="Arial" font-size="13" lengthAdjust="spacing" textLength="165.5723" x="357.9456" y="215.3638">solicita eliminar miembro</text></g><!--link PasoSolicitud to PasoConfirmacion--><g class="link" data-entity-1="PasoSolicitud" data-entity-2="PasoConfirmacion" data-source-line="37" data-uid="lnk4" id="link_PasoSolicitud_PasoConfirmacion"><path d="M237.95,296.4969 C237.95,327.5869 237.95,375.2469 237.95,406.2669" fill="none" id="PasoSolicitud-to-PasoConfirmacion" style="stroke:#009900;stroke-width:1;"/><polygon fill="#009900" points="237.95,412.2669,241.95,403.2669,237.95,407.2669,233.95,403.2669,237.95,412.2669" style="stroke:#009900;stroke-width:1;"/><path d="M242.95,319.2969 L242.95,389.2969 L551.95,389.2969 L551.95,329.2969 L541.95,319.2969 L242.95,319.2969" fill="#FFFFE0" style="stroke:#B0B060;stroke-width:0.5;"/><path d="M541.95,319.2969 L541.95,329.2969 L551.95,329.2969 L541.95,319.2969" fill="#FFFFE0" style="stroke:#B0B060;stroke-width:0.5;"/><text fill="#000000" font-family="Arial" font-size="13" font-weight="bold" lengthAdjust="spacing" textLength="58.9063" x="248.95" y="336.3638">Sistema</text><text fill="#000000" font-family="Arial" font-size="13" lengthAdjust="spacing" textLength="225.0688" x="311.9886" y="336.3638">presenta solicitud de confirmaci&#243;n</text><text fill="#000000" font-family="Arial" font-size="13" font-weight="bold" lengthAdjust="spacing" textLength="58.9063" x="248.95" y="351.4966">Sistema</text><text fill="#000000" font-family="Arial" font-size="13" lengthAdjust="spacing" textLength="110.5952" x="311.9886" y="351.4966">permite solicitar:</text><ellipse cx="254.45" cy="362.1953" fill="#000000" rx="2.5" ry="2.5"/><text fill="#000000" font-family="Arial" font-size="13" lengthAdjust="spacing" textLength="141.6353" x="260.95" y="366.6294">confirmar eliminaci&#243;n</text><ellipse cx="254.45" cy="377.3281" fill="#000000" rx="2.5" ry="2.5"/><text fill="#000000" font-family="Arial" font-size="13" lengthAdjust="spacing" textLength="134.2085" x="260.95" y="381.7622">cancelar eliminaci&#243;n</text></g><!--link PasoConfirmacion to *end*EliminarMiembroContainer--><g class="link" data-entity-1="PasoConfirmacion" data-entity-2=".end.EliminarMiembroContainer" data-source-line="48" data-uid="lnk6" id="link_PasoConfirmacion_.end.EliminarMiembroContainer"><path d="M212.79,440.2069 C154.42,445.5569 18,463.7969 61.95,515.2969 C83.34,540.3569 184.9801,543.0597 220.5301,543.2797" fill="none" id="PasoConfirmacion-to-*end*EliminarMiembroContainer" style="stroke:#008000;stroke-width:1;"/><polygon fill="#008000" points="226.53,543.3169,217.5549,539.2613,221.5301,543.2859,217.5054,547.2611,226.53,543.3169" style="stroke:#008000;stroke-width:1;"/><path d="M66.95,485.2969 L66.95,510.2969 L387.95,510.2969 L387.95,495.2969 L377.95,485.2969 L66.95,485.2969" fill="#FFFFE0" style="stroke:#B0B060;stroke-width:0.5;"/><path d="M377.95,485.2969 L377.95,495.2969 L387.95,495.2969 L377.95,485.2969" fill="#FFFFE0" style="stroke:#B0B060;stroke-width:0.5;"/><text fill="#000000" font-family="Arial" font-size="13" font-weight="bold" lengthAdjust="spacing" textLength="104.8633" x="72.95" y="502.3638">Administrador</text><text fill="#000000" font-family="Arial" font-size="13" lengthAdjust="spacing" textLength="191.5405" x="181.9456" y="502.3638">solicita confirmar eliminaci&#243;n</text></g><!--link PasoConfirmacion to *end*EliminarMiembroContainer--><g class="link" data-entity-1="PasoConfirmacion" data-entity-2=".end.EliminarMiembroContainer" data-source-line="54" data-uid="lnk7" id="link_PasoConfirmacion_.end.EliminarMiembroContainer"><path d="M263.17,441.4269 C302.91,446.9369 377.24,459.7569 392.95,480.2969 C402.41,492.6469 402.93,503.3569 392.95,515.2969 C374.46,537.4369 287.1473,541.9182 254.9173,542.8782" fill="none" id="PasoConfirmacion-to-*end*EliminarMiembroContainer-1" style="stroke:#FF0000;stroke-width:1;"/><polygon fill="#FF0000" points="248.92,543.0569,258.0351,546.7871,253.9178,542.908,257.7969,538.7907,248.92,543.0569" style="stroke:#FF0000;stroke-width:1;"/><path d="M404.95,485.2969 L404.95,510.2969 L718.95,510.2969 L718.95,495.2969 L708.95,485.2969 L404.95,485.2969" fill="#FFFFE0" style="stroke:#B0B060;stroke-width:0.5;"/><path d="M708.95,485.2969 L708.95,495.2969 L718.95,495.2969 L708.95,485.2969" fill="#FFFFE0" style="stroke:#B0B060;stroke-width:0.5;"/><text fill="#000000" font-family="Arial" font-size="13" font-weight="bold" lengthAdjust="spacing" textLength="104.8633" x="410.95" y="502.3638">Administrador</text><text fill="#000000" font-family="Arial" font-size="13" lengthAdjust="spacing" textLength="184.1138" x="519.9456" y="502.3638">solicita cancelar eliminaci&#243;n</text></g><g id="FinCancelacion"><rect fill="#FFFFFF" height="50" rx="12.5" ry="12.5" style="stroke:#000000;stroke-width:0.5;" width="155.9395" x="289.5" y="660"/><line style="stroke:#000000;stroke-width:0.5;" x1="289.5" x2="445.4395" y1="686.2969" y2="686.2969"/><text fill="#000000" font-family="sans-serif" font-size="14" lengthAdjust="spacing" textLength="135.9395" x="299.5" y="677.9951">MIEMBRO_ABIERTO</text></g><!--link Inicio to EliminarMiembroContainer--><g class="link" data-entity-1="Inicio" data-entity-2="EliminarMiembroContainer" data-source-line="70" data-uid="lnk8" id="link_Inicio_EliminarMiembroContainer"><path d="M367.5,57.13 C367.5,72.35 367.5,87.67 367.5,111.86" fill="none" id="Inicio-to-EliminarMiembroContainer" style="stroke:#009900;stroke-width:1;"/><polygon fill="#009900" points="367.5,117.86,371.5,108.86,367.5,112.86,363.5,108.86,367.5,117.86" style="stroke:#009900;stroke-width:1;"/></g><!--link EliminarMiembroContainer to FinCancelacion--><g class="link" data-entity-1="EliminarMiembroContainer" data-entity-2="FinCancelacion" data-source-line="73" data-uid="lnk9" id="link_EliminarMiembroContainer_FinCancelacion"><path d="M295.65,565.18 C296.4,587.48 300.56,609.46 309.5,630 C314.5,641.48 318.811,647.6054 328.041,655.9154" fill="none" id="EliminarMiembroContainer-to-FinCancelacion" style="stroke:#008000;stroke-width:1;"/><polygon fill="#008000" points="332.5,659.93,328.4878,650.9354,328.7841,656.5845,323.135,656.8808,332.5,659.93" style="stroke:#008000;stroke-width:1;"/><text fill="#000000" font-family="sans-serif" font-size="13" lengthAdjust="spacing" textLength="69.8115" x="310.5" y="617.0669">"              "</text></g><!--link EliminarMiembroContainer to FinCancelacion--><g class="link" data-entity-1="EliminarMiembroContainer" data-entity-2="FinCancelacion" data-source-line="76" data-uid="lnk10" id="link_EliminarMiembroContainer_FinCancelacion"><path d="M383.32,565.17 C383.77,575.25 384.17,585.23 384.5,595 C385.02,610.55 386.86,614.62 384.5,630 C382.96,640.01 381.824,645.0135 378.724,654.2235" fill="none" id="EliminarMiembroContainer-to-FinCancelacion-1" style="stroke:#FF0000;stroke-width:1;"/><polygon fill="#FF0000" points="376.81,659.91,383.4721,652.6562,378.405,655.1712,375.89,650.1042,376.81,659.91" style="stroke:#FF0000;stroke-width:1;"/><path d="M390.5,600 L390.5,625 L545.5,625 L545.5,610 L535.5,600 L390.5,600" fill="#FFFFE0" style="stroke:#B0B060;stroke-width:0.5;"/><path d="M535.5,600 L535.5,610 L545.5,610 L535.5,600" fill="#FFFFE0" style="stroke:#B0B060;stroke-width:0.5;"/><text fill="#000000" font-family="Arial" font-size="13" lengthAdjust="spacing" textLength="134.2085" x="396.5" y="617.0669">cancelar eliminaci&#243;n</text></g><!--SRC=[fLHTRzem57tdLroLXm8g5TkaIUt3f132b0b2bK1NgQecDxajPexD7DDMdVO3zhnViUV-1FxORfo4Zr8wQSi3GjVsyJddNfz3S9MyuRSBpMA-V99mnxC54y2JvMzfUCo0WM2WyGOrofYpMlQLopdJB8LKIHLFjKeHRfZ8S6Cfcx94tPTbe-PW55mhOrGA2TSO6wvaRNE_OGRXUmtewxBuwwrM2vcuIYWDdwVSOB6YT8Awg7O5RRDLHsjrNnJhdSx9IQTZov5XsZpVwrMWHUd79WUfzbAez-dpEZiawjrEj_E-gFULD04ZBnpDcSYX3y4ZNOa2BZav9m0V36gfe97NKvMHsIXf7GNCKTzm0GdzJJccrrerQuKf1qFV6tR3qHUdwtlXU7G0B0C_HrGRLyGgdIym8vldcbEVvaIXF8-2frmoFInm6qsBu6rNQGeCun9rwO3zEOIpXJJ4Cq5WCXPiLlIX10OBTCOo5Ib1VCmYUNdPZfXEQSAewnleRuvB8T3-0DiObwqhQ5Dr5zssIKaGN1OzpRzMoqb83i-C9ZTqgmLPSOX19R_orPuXsorGhMJozXWYEemf8_ymGpA3BArOqxkm-xR8hEZjgDl3iBo0kAsko5PWvF3kVJldKAVq5bRQzEbws-guhXG_mu6OMeZYfVNdRhmxXgxVduIku_hBNm6S-z746T3OHkDmueudeGCz3tg-CtI2iTVSRAdB25h1kHVIZaPbZMv26_p7RmkEEc4hBpUTW_Pb_LOZoYiA3adMqWJyKxzVyU6vpf9iEFeq8gwbFJdL7eLTFDrFL6FotpJ_tWqR8Urs6yXtfpUAeEy7pi2BmBiOUs501LhCzqGSCgo0Zc2T8JHMCvRF5ZuG1wxpTtQkn1tcuME3NL2TsTZv64xEHckqajyHtAtttr4yK8oLWVHQFlMvBFsqhwBKCGwT8F9TVnIG29gFo1duFQTIuSdS9LQh8e6uxWifIvC9dbXnovyN_fWwU4x3XKsR9QHuXl72B9zoaLiMxms-rG0Im3P_EAKis_eEjXcuJk1wW_ArD48rKvP6e78df_nHWSoLlNPrFb8x5zTsfkhbiQb6vWy0]--></g></svg>