<svg xmlns="http://www.w3.org/2000/svg" xmlns:xlink="http://www.w3.org/1999/xlink" contentStyleType="text/css" data-diagram-type="STATE" height="731px" preserveAspectRatio="none" style="width:666px;height:731px;background:#FFFFFF;" version="1.1" viewBox="0 0 666 731" width="666px" zoomAndPan="magnify"><defs/><g><g id="Inicio"><rect fill="#FFFFFF" height="50" rx="12.5" ry="12.5" style="stroke:#000000;stroke-width:0.5;" width="195.8066" x="232" y="7"/><line style="stroke:#000000;stroke-width:0.5;" x1="232" x2="427.8066" y1="33.2969" y2="33.2969"/><text fill="#000000" font-family="sans-serif" font-size="14" lengthAdjust="spacing" textLength="175.8066" x="242" y="24.9951">PLANIFICACION_ABIERTO</text></g><path d="M19.5,118 L640.69,118 A12.5,12.5 0 0 1 653.19,130.5 L653.19,144.2969 L7,144.2969 L7,130.5 A12.5,12.5 0 0 1 19.5,118" fill="#FFFFFF"/><rect fill="none" height="462.2969" rx="12.5" ry="12.5" style="stroke:#000000;stroke-width:0.5;" width="646.19" x="7" y="118"/><line style="stroke:#000000;stroke-width:0.5;" x1="7" x2="653.19" y1="144.2969" y2="144.2969"/><text fill="#000000" font-family="sans-serif" font-size="14" lengthAdjust="spacing" textLength="135.9941" x="262.0979" y="135.9951">establecerHorario()</text><g id="EstablecerHorarioContainer.PasoInicial"><rect fill="#FFFFFF" height="50" rx="12.5" ry="12.5" style="stroke:#000000;stroke-width:0.5;" width="50" x="214.19" y="246.2969"/><line style="stroke:#000000;stroke-width:0.5;" x1="214.19" x2="264.19" y1="272.5938" y2="272.5938"/><text fill="#000000" font-family="sans-serif" font-size="14" lengthAdjust="spacing" textLength="4.4502" x="236.9649" y="264.292">&#160;</text></g><g id="EstablecerHorarioContainer.PasoDatos"><rect fill="#FFFFFF" height="50" rx="12.5" ry="12.5" style="stroke:#000000;stroke-width:0.5;" width="50" x="214.19" y="427.2969"/><line style="stroke:#000000;stroke-width:0.5;" x1="214.19" x2="264.19" y1="453.5938" y2="453.5938"/><text fill="#000000" font-family="sans-serif" font-size="14" lengthAdjust="spacing" textLength="4.4502" x="236.9649" y="445.292">&#160;</text></g><ellipse cx="239.19" cy="165.2969" fill="#222222" rx="10" ry="10" style="stroke:#222222;stroke-width:1;"/><ellipse cx="239.19" cy="559.2969" fill="none" rx="11" ry="11" style="stroke:#222222;stroke-width:1;"/><ellipse cx="239.19" cy="559.2969" fill="#222222" rx="6" ry="6" style="stroke:#222222;stroke-width:1;"/><!--link *start*EstablecerHorarioContainer to PasoInicial--><g class="link" data-entity-1=".start.EstablecerHorarioContainer" data-entity-2="PasoInicial" data-source-line="29" data-uid="lnk3" id="link_.start.EstablecerHorarioContainer_PasoInicial"><path d="M239.19,175.5269 C239.19,191.2369 239.19,217.6569 239.19,240.1669" fill="none" id="*start*EstablecerHorarioContainer-to-PasoInicial" style="stroke:#009900;stroke-width:1;"/><polygon fill="#009900" points="239.19,246.1669,243.19,237.1669,239.19,241.1669,235.19,237.1669,239.19,246.1669" style="stroke:#009900;stroke-width:1;"/><path d="M244.19,198.2969 L244.19,223.2969 L493.19,223.2969 L493.19,208.2969 L483.19,198.2969 L244.19,198.2969" fill="#FFFFE0" style="stroke:#B0B060;stroke-width:0.5;"/><path d="M483.19,198.2969 L483.19,208.2969 L493.19,208.2969 L483.19,198.2969" fill="#FFFFE0" style="stroke:#B0B060;stroke-width:0.5;"/><text fill="#000000" font-family="Arial" font-size="13" font-weight="bold" lengthAdjust="spacing" textLength="56.1196" x="250.19" y="215.3638">Usuario</text><text fill="#000000" font-family="Arial" font-size="13" lengthAdjust="spacing" textLength="168.6382" x="310.442" y="215.3638">solicita establecer horario</text></g><!--link PasoInicial to PasoDatos--><g class="link" data-entity-1="PasoInicial" data-entity-2="PasoDatos" data-source-line="34" data-uid="lnk4" id="link_PasoInicial_PasoDatos"><path d="M239.19,296.4369 C239.19,330.6969 239.19,387.0469 239.19,421.2569" fill="none" id="PasoInicial-to-PasoDatos" style="stroke:#009900;stroke-width:1;"/><polygon fill="#009900" points="239.19,427.2569,243.19,418.2569,239.19,422.2569,235.19,418.2569,239.19,427.2569" style="stroke:#009900;stroke-width:1;"/><path d="M244.19,319.2969 L244.19,404.2969 L572.19,404.2969 L572.19,329.2969 L562.19,319.2969 L244.19,319.2969" fill="#FFFFE0" style="stroke:#B0B060;stroke-width:0.5;"/><path d="M562.19,319.2969 L562.19,329.2969 L572.19,329.2969 L562.19,319.2969" fill="#FFFFE0" style="stroke:#B0B060;stroke-width:0.5;"/><text fill="#000000" font-family="Arial" font-size="13" font-weight="bold" lengthAdjust="spacing" textLength="58.9063" x="250.19" y="336.3638">Sistema</text><text fill="#000000" font-family="Arial" font-size="13" lengthAdjust="spacing" textLength="244.6577" x="313.2286" y="336.3638">presenta calendario de disponibilidad</text><text fill="#000000" font-family="Arial" font-size="13" font-weight="bold" lengthAdjust="spacing" textLength="58.9063" x="250.19" y="351.4966">Sistema</text><text fill="#000000" font-family="Arial" font-size="13" lengthAdjust="spacing" textLength="110.5952" x="313.2286" y="351.4966">permite solicitar:</text><text fill="#000000" font-family="Arial" font-size="13" lengthAdjust="spacing" textLength="160.1641" x="250.19" y="366.6294">&#8226; introducir fecha y hora</text><text fill="#000000" font-family="Arial" font-size="13" lengthAdjust="spacing" textLength="113.7119" x="250.19" y="381.7622">&#8226; guardar horario</text><text fill="#000000" font-family="Arial" font-size="13" lengthAdjust="spacing" textLength="117.7681" x="250.19" y="396.895">&#8226; cancelar horario</text></g><!--link PasoDatos to *end*EstablecerHorarioContainer--><g class="link" data-entity-1="PasoDatos" data-entity-2=".end.EstablecerHorarioContainer" data-source-line="44" data-uid="lnk6" id="link_PasoDatos_.end.EstablecerHorarioContainer"><path d="M213.89,455.1769 C155.19,460.4669 18,478.5769 62.19,530.2969 C83.81,555.6069 186.9701,558.1396 222.2001,558.2996" fill="none" id="PasoDatos-to-*end*EstablecerHorarioContainer" style="stroke:#008000;stroke-width:1;"/><polygon fill="#008000" points="228.2,558.3269,219.2183,554.286,223.2001,558.3042,219.1819,562.286,228.2,558.3269" style="stroke:#008000;stroke-width:1;"/><path d="M67.19,500.2969 L67.19,525.2969 L390.19,525.2969 L390.19,510.2969 L380.19,500.2969 L67.19,500.2969" fill="#FFFFE0" style="stroke:#B0B060;stroke-width:0.5;"/><path d="M380.19,500.2969 L380.19,510.2969 L390.19,510.2969 L380.19,500.2969" fill="#FFFFE0" style="stroke:#B0B060;stroke-width:0.5;"/><text fill="#000000" font-family="Arial" font-size="13" font-weight="bold" lengthAdjust="spacing" textLength="56.1196" x="73.19" y="517.3638">Usuario</text><text fill="#000000" font-family="Arial" font-size="13" lengthAdjust="spacing" textLength="241.7568" x="133.442" y="517.3638">introduce los datos y solicita guardar</text></g><!--link PasoDatos to *end*EstablecerHorarioContainer--><g class="link" data-entity-1="PasoDatos" data-entity-2=".end.EstablecerHorarioContainer" data-source-line="49" data-uid="lnk7" id="link_PasoDatos_.end.EstablecerHorarioContainer"><path d="M264.24,456.3569 C304.16,461.8069 379.32,474.5969 395.19,495.2969 C404.65,507.6469 405.17,518.3669 395.19,530.2969 C376.56,552.5669 288.6576,556.9767 256.2276,557.8967" fill="none" id="PasoDatos-to-*end*EstablecerHorarioContainer-1" style="stroke:#FF0000;stroke-width:1;"/><polygon fill="#FF0000" points="250.23,558.0669,259.3398,561.81,255.228,557.9251,259.113,553.8133,250.23,558.0669" style="stroke:#FF0000;stroke-width:1;"/><path d="M407.19,500.2969 L407.19,525.2969 L644.19,525.2969 L644.19,510.2969 L634.19,500.2969 L407.19,500.2969" fill="#FFFFE0" style="stroke:#B0B060;stroke-width:0.5;"/><path d="M634.19,500.2969 L634.19,510.2969 L644.19,510.2969 L634.19,500.2969" fill="#FFFFE0" style="stroke:#B0B060;stroke-width:0.5;"/><text fill="#000000" font-family="Arial" font-size="13" font-weight="bold" lengthAdjust="spacing" textLength="56.1196" x="413.19" y="517.3638">Usuario</text><text fill="#000000" font-family="Arial" font-size="13" lengthAdjust="spacing" textLength="155.873" x="473.442" y="517.3638">solicita cancelar horario</text></g><g id="SalidaPlanificacion"><rect fill="#FFFFFF" height="50" rx="12.5" ry="12.5" style="stroke:#000000;stroke-width:0.5;" width="195.8066" x="232" y="675"/><line style="stroke:#000000;stroke-width:0.5;" x1="232" x2="427.8066" y1="701.2969" y2="701.2969"/><text fill="#000000" font-family="sans-serif" font-size="14" lengthAdjust="spacing" textLength="175.8066" x="242" y="692.9951">PLANIFICACION_ABIERTO</text></g><!--link Inicio to EstablecerHorarioContainer--><g class="link" data-entity-1="Inicio" data-entity-2="EstablecerHorarioContainer" data-source-line="59" data-uid="lnk8" id="link_Inicio_EstablecerHorarioContainer"><path d="M330,57.19 C330,72.39 330,87.68 330,111.89" fill="none" id="Inicio-to-EstablecerHorarioContainer" style="stroke:#009900;stroke-width:1;"/><polygon fill="#009900" points="330,117.89,334,108.89,330,112.89,326,108.89,330,117.89" style="stroke:#009900;stroke-width:1;"/></g><!--link EstablecerHorarioContainer to SalidaPlanificacion--><g class="link" data-entity-1="EstablecerHorarioContainer" data-entity-2="SalidaPlanificacion" data-source-line="62" data-uid="lnk9" id="link_EstablecerHorarioContainer_SalidaPlanificacion"><path d="M246.86,580.05 C244.62,590.11 242.64,600.12 241,610 C238.45,625.34 233.37,631.44 241,645 C247.92,657.28 253.8426,663.8405 265.7426,671.5405" fill="none" id="EstablecerHorarioContainer-to-SalidaPlanificacion" style="stroke:#008000;stroke-width:1;"/><polygon fill="#008000" points="270.78,674.8,265.3969,666.5525,266.5821,672.0837,261.0509,673.269,270.78,674.8" style="stroke:#008000;stroke-width:1;"/><path d="M246,615 L246,640 L368,640 L368,625 L358,615 L246,615" fill="#FFFFE0" style="stroke:#B0B060;stroke-width:0.5;"/><path d="M358,615 L358,625 L368,625 L358,615" fill="#FFFFE0" style="stroke:#B0B060;stroke-width:0.5;"/><text fill="#000000" font-family="Arial" font-size="13" lengthAdjust="spacing" textLength="101.9116" x="252" y="632.0669">guardar horario</text></g><!--link EstablecerHorarioContainer to SalidaPlanificacion--><g class="link" data-entity-1="EstablecerHorarioContainer" data-entity-2="SalidaPlanificacion" data-source-line="68" data-uid="lnk10" id="link_EstablecerHorarioContainer_SalidaPlanificacion"><path d="M389.66,580.23 C388.59,602.44 384.73,624.36 377,645 C372.86,656.06 369.3725,661.9254 361.5325,670.4854" fill="none" id="EstablecerHorarioContainer-to-SalidaPlanificacion-1" style="stroke:#FF0000;stroke-width:1;"/><polygon fill="#FF0000" points="357.48,674.91,366.5085,670.9747,360.8571,671.2228,360.609,665.5714,357.48,674.91" style="stroke:#FF0000;stroke-width:1;"/><path d="M390,615 L390,640 L516,640 L516,625 L506,615 L390,615" fill="#FFFFE0" style="stroke:#B0B060;stroke-width:0.5;"/><path d="M506,615 L506,625 L516,625 L506,615" fill="#FFFFE0" style="stroke:#B0B060;stroke-width:0.5;"/><text fill="#000000" font-family="Arial" font-size="13" lengthAdjust="spacing" textLength="105.9678" x="396" y="632.0669">cancelar horario</text></g><!--SRC=[bLH1Jbin4Dtd52Eo028X_LKbkgYKf46DL062qYuGgYRsX1WSJsGxegYgrBFq2Zq2D-b9EhP_Va92KkfDel7ulJVpPdwuDsw67gSmPSTgudbAC4ORg1MQgp11pGzrEF8C8iE8O-GfQED9HSEkjPeVCH9yRu6S7ghxMyzpf_jisSENYObKRjXhyYNQivAMertl-Q44srLrV5nLENmPqSVrtC42j8H-h6fml5L2-qJEeDeGqUvLlUfDYP-mYwSelUXwWpP1xyD0wj8SG9CmHuyQuK3acX4Ujah9U-SVkwV3as6_sn-UdNxjzeQ3YqzdUu01XiuemmccBz3aI0kZ9Wjz39mWhm8lK4X-HvOK-G_iqHi-ECmOW_LuWaBZoDULRlKcNTRWaA7EXJLBak9Ul7oFaKDvUDsvWQEZTnjlSelPWJMk-95EftCLvabRfmE1hMH7X6L1C2dASpuvdK4ApGfyGrTKx22xD27I58LivYcGj0CKMW5E9AcjseGPEpCorcZKBxyaFvMXREJwjqtQdv-_m8ZNhEVAU1YJcY0yvYAUvTnAoKBvhBh5dKAdoEAkqlUXDrUMibvI9fYdtoxnadVSz2Rt0ewksxUUoDr8XyIOrncnA870fldDG8zBUshrMpnfU3tf_s9jy7TtO7stBZ5P9QirmZj-nMQL_7EBpeoDGfK7FgyPVPF_b477Tdx7hRA4URgsxr9wN6iG0AbTj7mc-KmSjdOiuAelBodQwDRwo2mRtz2BxhfrAa_4mGNVuRzKr2wzIiE6CGiHVm40]--></g></svg>