<svg xmlns="http://www.w3.org/2000/svg" xmlns:xlink="http://www.w3.org/1999/xlink" contentStyleType="text/css" data-diagram-type="STATE" height="631px" preserveAspectRatio="none" style="width:305px;height:631px;background:#FFFFFF;" version="1.1" viewBox="0 0 305 631" width="305px" zoomAndPan="magnify"><defs/><g><rect fill="#F1F1F1" height="40" rx="12.5" ry="12.5" style="stroke:#181818;stroke-width:0.5;" width="185.8066" x="53.5" y="7"/><text fill="#000000" font-family="sans-serif" font-size="14" lengthAdjust="spacing" textLength="175.8066" x="58.5" y="31.8467">PLANIFICACION_ABIERTO</text><path d="M19.5,108 L273.5,108 A12.5,12.5 0 0 1 286,120.5 L286,134.2969 L7,134.2969 L7,120.5 A12.5,12.5 0 0 1 19.5,108" fill="#F1F1F1"/><rect fill="none" height="382.2969" rx="12.5" ry="12.5" style="stroke:#181818;stroke-width:0.5;" width="279" x="7" y="108"/><line style="stroke:#181818;stroke-width:0.5;" x1="7" x2="286" y1="134.2969" y2="134.2969"/><text fill="#000000" font-family="sans-serif" font-size="14" lengthAdjust="spacing" textLength="135.9941" x="78.5029" y="125.9951">establecerHorario()</text><rect fill="#F1F1F1" height="40" rx="12.5" ry="12.5" style="stroke:#181818;stroke-width:0.5;" width="50" x="19" y="236.2969"/><text fill="#000000" font-family="sans-serif" font-size="14" lengthAdjust="spacing" textLength="4.4502" x="41.7749" y="261.1436">&#160;</text><rect fill="#F1F1F1" height="40" rx="12.5" ry="12.5" style="stroke:#181818;stroke-width:0.5;" width="50" x="19" y="347.2969"/><text fill="#000000" font-family="sans-serif" font-size="14" lengthAdjust="spacing" textLength="4.4502" x="41.7749" y="372.1436">&#160;</text><ellipse cx="44" cy="155.2969" fill="#222222" rx="10" ry="10" style="stroke:#222222;stroke-width:1;"/><ellipse cx="44" cy="469.2969" fill="none" rx="11" ry="11" style="stroke:#222222;stroke-width:1;"/><ellipse cx="44" cy="469.2969" fill="#222222" rx="6" ry="6" style="stroke:#222222;stroke-width:1;"/><!--link *start*establecerHorario to IngresandoHorario--><g class="link" data-entity-1=".start.establecerHorario" data-entity-2="IngresandoHorario" data-source-line="12" data-uid="lnk4" id="link_.start.establecerHorario_IngresandoHorario"><path d="M44,165.4369 C44,181.4169 44,208.7869 44,230.0669" fill="none" id="*start*establecerHorario-to-IngresandoHorario" style="stroke:#008000;stroke-width:1;"/><polygon fill="#008000" points="44,236.0669,48,227.0669,44,231.0669,40,227.0669,44,236.0669" style="stroke:#008000;stroke-width:1;"/><path d="M49,188.2969 L49,213.2969 L277,213.2969 L277,198.2969 L267,188.2969 L49,188.2969" fill="#FEFFDD" style="stroke:#181818;stroke-width:0.5;"/><path d="M267,188.2969 L267,198.2969 L277,198.2969 L267,188.2969" fill="#FEFFDD" style="stroke:#181818;stroke-width:0.5;"/><text fill="#000000" font-family="sans-serif" font-size="13" font-weight="bold" lengthAdjust="spacing" textLength="56.1196" x="55" y="205.3638">Usuario</text><text fill="#000000" font-family="sans-serif" font-size="13" lengthAdjust="spacing" textLength="147.4053" x="115.252" y="205.3638">introduce fecha y hora</text></g><!--link IngresandoHorario to ValidandoHorario--><g class="link" data-entity-1="IngresandoHorario" data-entity-2="ValidandoHorario" data-source-line="17" data-uid="lnk5" id="link_IngresandoHorario_ValidandoHorario"><path d="M44,276.5369 C44,296.4569 44,321.3969 44,341.2569" fill="none" id="IngresandoHorario-to-ValidandoHorario" style="stroke:#008000;stroke-width:1;"/><polygon fill="#008000" points="44,347.2569,48,338.2569,44,342.2569,40,338.2569,44,347.2569" style="stroke:#008000;stroke-width:1;"/><path d="M49,299.2969 L49,324.2969 L266,324.2969 L266,309.2969 L256,299.2969 L49,299.2969" fill="#FEFFDD" style="stroke:#181818;stroke-width:0.5;"/><path d="M256,299.2969 L256,309.2969 L266,309.2969 L256,299.2969" fill="#FEFFDD" style="stroke:#181818;stroke-width:0.5;"/><text fill="#000000" font-family="sans-serif" font-size="13" font-weight="bold" lengthAdjust="spacing" textLength="58.9063" x="55" y="316.3638">Sistema</text><text fill="#000000" font-family="sans-serif" font-size="13" lengthAdjust="spacing" textLength="133.4849" x="118.0386" y="316.3638">valida disponibilidad</text></g><!--link ValidandoHorario to *end*establecerHorario--><g class="link" data-entity-1="ValidandoHorario" data-entity-2=".end.establecerHorario" data-source-line="22" data-uid="lnk7" id="link_ValidandoHorario_.end.establecerHorario"><path d="M44,387.5769 C44,408.6869 44,435.7369 44,452.2269" fill="none" id="ValidandoHorario-to-*end*establecerHorario" style="stroke:#008000;stroke-width:1;"/><polygon fill="#008000" points="44,458.2269,48,449.2269,44,453.2269,40,449.2269,44,458.2269" style="stroke:#008000;stroke-width:1;"/><path d="M49,410.2969 L49,435.2969 L229,435.2969 L229,420.2969 L219,410.2969 L49,410.2969" fill="#FEFFDD" style="stroke:#181818;stroke-width:0.5;"/><path d="M219,410.2969 L219,420.2969 L229,420.2969 L219,410.2969" fill="#FEFFDD" style="stroke:#181818;stroke-width:0.5;"/><text fill="#000000" font-family="sans-serif" font-size="13" font-weight="bold" lengthAdjust="spacing" textLength="58.9063" x="55" y="427.3638">Sistema</text><text fill="#000000" font-family="sans-serif" font-size="13" lengthAdjust="spacing" textLength="96.5669" x="118.0386" y="427.3638">guarda horario</text></g><rect fill="#F1F1F1" height="40" rx="12.5" ry="12.5" style="stroke:#181818;stroke-width:0.5;" width="185.8066" x="53.5" y="585"/><text fill="#000000" font-family="sans-serif" font-size="14" lengthAdjust="spacing" textLength="175.8066" x="58.5" y="609.8467">PLANIFICACION_ABIERTO</text><!--link in1 to establecerHorario--><g class="link" data-entity-1="in1" data-entity-2="establecerHorario" data-source-line="5" data-uid="lnk2" id="link_in1_establecerHorario"><path d="M146.5,47.42 C146.5,61.93 146.5,77.4 146.5,101.78" fill="none" id="in1-to-establecerHorario" style="stroke:#008000;stroke-width:1;"/><polygon fill="#008000" points="146.5,107.78,150.5,98.78,146.5,102.78,142.5,98.78,146.5,107.78" style="stroke:#008000;stroke-width:1;"/></g><!--link establecerHorario to PLANIFICACION_ABIERTO--><g class="link" data-entity-1="establecerHorario" data-entity-2="PLANIFICACION_ABIERTO" data-source-line="28" data-uid="lnk9" id="link_establecerHorario_PLANIFICACION_ABIERTO"><path d="M146.5,490.37 C146.5,529.14 146.5,558.34 146.5,578.97" fill="none" id="establecerHorario-to-PLANIFICACION_ABIERTO" style="stroke:#008000;stroke-width:1;"/><polygon fill="#008000" points="146.5,584.97,150.5,575.97,146.5,579.97,142.5,575.97,146.5,584.97" style="stroke:#008000;stroke-width:1;"/><path d="M151.5,525 L151.5,550 L298.5,550 L298.5,535 L288.5,525 L151.5,525" fill="#FEFFDD" style="stroke:#181818;stroke-width:0.5;"/><path d="M288.5,525 L288.5,535 L298.5,535 L288.5,525" fill="#FEFFDD" style="stroke:#181818;stroke-width:0.5;"/><text fill="#000000" font-family="sans-serif" font-size="13" lengthAdjust="spacing" textLength="126.7437" x="157.5" y="542.0669">Horario establecido</text></g><!--SRC=[ZP9VIyCm5CNVyoakzKM58RwFGXsA1Td4VozZIDfSrylQ92IPKCJlRf9HYMQ8UKjoplcTtBOZWO23TYC8jAqXxKX9PdSaDJTyW9uakb4ZQDMFOSEOTTmXaBm4Rg6ulwkMzKszg1RrQlbQNTNN3q-hWeNhsVfaQn3bPbO2UbVJOulcLXbkI4qvsKLCpKvFpmhuO0pyElXgwRCjbqAbFYWIoGllIHnHHCdwVFEZO9ONLLBv72N367Rn8AnvKpxRVT3CBvhIJy8P9VOjmXks7OSHEfyGrIX5Z3WWyyffWTzj_-G_adKuyCX_ZqOGPBMIr53OYIFuR1mftO_Zty2jVxi7TadFRz8dO_aNJK57_nUMOIVh54P2iGdo1G00]--></g></svg>