<svg xmlns="http://www.w3.org/2000/svg" xmlns:xlink="http://www.w3.org/1999/xlink" contentStyleType="text/css" data-diagram-type="STATE" height="716px" preserveAspectRatio="none" style="width:534px;height:716px;background:#FFFFFF;" version="1.1" viewBox="0 0 534 716" width="534px" zoomAndPan="magnify"><defs/><g><g id="Inicio"><rect fill="#FFFFFF" height="50" rx="12.5" ry="12.5" style="stroke:#000000;stroke-width:0.5;" width="172.0654" x="178" y="7"/><line style="stroke:#000000;stroke-width:0.5;" x1="178" x2="350.0654" y1="33.2969" y2="33.2969"/><text fill="#000000" font-family="sans-serif" font-size="14" lengthAdjust="spacing" textLength="152.0654" x="188" y="24.9951">SISTEMA_DISPONIBLE</text></g><path d="M19.5,118 L508.3,118 A12.5,12.5 0 0 1 520.8,130.5 L520.8,144.2969 L7,144.2969 L7,130.5 A12.5,12.5 0 0 1 19.5,118" fill="#FFFFFF"/><rect fill="none" height="447.2969" rx="12.5" ry="12.5" style="stroke:#000000;stroke-width:0.5;" width="513.8" x="7" y="118"/><line style="stroke:#000000;stroke-width:0.5;" x1="7" x2="520.8" y1="144.2969" y2="144.2969"/><text fill="#000000" font-family="sans-serif" font-size="14" lengthAdjust="spacing" textLength="99.2031" x="214.2984" y="135.9951">cerrarSesion()</text><g id="CerrarSesionContainer.EstadoVisualizacion"><rect fill="#FFFFFF" height="50" rx="12.5" ry="12.5" style="stroke:#000000;stroke-width:0.5;" width="50" x="135.8" y="246.2969"/><line style="stroke:#000000;stroke-width:0.5;" x1="135.8" x2="185.8" y1="272.5938" y2="272.5938"/><text fill="#000000" font-family="sans-serif" font-size="14" lengthAdjust="spacing" textLength="4.4502" x="158.5749" y="264.292">&#160;</text></g><g id="CerrarSesionContainer.EstadoDecision"><rect fill="#FFFFFF" height="50" rx="12.5" ry="12.5" style="stroke:#000000;stroke-width:0.5;" width="50" x="135.8" y="412.2969"/><line style="stroke:#000000;stroke-width:0.5;" x1="135.8" x2="185.8" y1="438.5938" y2="438.5938"/><text fill="#000000" font-family="sans-serif" font-size="14" lengthAdjust="spacing" textLength="4.4502" x="158.5749" y="430.292">&#160;</text></g><ellipse cx="160.8" cy="165.2969" fill="#222222" rx="10" ry="10" style="stroke:#222222;stroke-width:1;"/><ellipse cx="160.8" cy="544.2969" fill="none" rx="11" ry="11" style="stroke:#222222;stroke-width:1;"/><ellipse cx="160.8" cy="544.2969" fill="#222222" rx="6" ry="6" style="stroke:#222222;stroke-width:1;"/><!--link *start*CerrarSesionContainer to EstadoVisualizacion--><g class="link" data-entity-1=".start.CerrarSesionContainer" data-entity-2="EstadoVisualizacion" data-source-line="29" data-uid="lnk3" id="link_.start.CerrarSesionContainer_EstadoVisualizacion"><path d="M160.8,175.5269 C160.8,191.2369 160.8,217.6569 160.8,240.1669" fill="none" id="*start*CerrarSesionContainer-to-EstadoVisualizacion" style="stroke:#009900;stroke-width:1;"/><polygon fill="#009900" points="160.8,246.1669,164.8,237.1669,160.8,241.1669,156.8,237.1669,160.8,246.1669" style="stroke:#009900;stroke-width:1;"/><path d="M165.8,198.2969 L165.8,223.2969 L380.8,223.2969 L380.8,208.2969 L370.8,198.2969 L165.8,198.2969" fill="#FFFFE0" style="stroke:#B0B060;stroke-width:0.5;"/><path d="M370.8,198.2969 L370.8,208.2969 L380.8,208.2969 L370.8,198.2969" fill="#FFFFE0" style="stroke:#B0B060;stroke-width:0.5;"/><text fill="#000000" font-family="Arial" font-size="13" font-weight="bold" lengthAdjust="spacing" textLength="56.1196" x="171.8" y="215.3638">Usuario</text><text fill="#000000" font-family="Arial" font-size="13" lengthAdjust="spacing" textLength="134.5322" x="232.052" y="215.3638">solicita cerrar sesi&#243;n</text></g><!--link EstadoVisualizacion to EstadoDecision--><g class="link" data-entity-1="EstadoVisualizacion" data-entity-2="EstadoDecision" data-source-line="34" data-uid="lnk4" id="link_EstadoVisualizacion_EstadoDecision"><path d="M160.8,296.4969 C160.8,327.5869 160.8,375.2469 160.8,406.2669" fill="none" id="EstadoVisualizacion-to-EstadoDecision" style="stroke:#009900;stroke-width:1;"/><polygon fill="#009900" points="160.8,412.2669,164.8,403.2669,160.8,407.2669,156.8,403.2669,160.8,412.2669" style="stroke:#009900;stroke-width:1;"/><path d="M165.8,319.2969 L165.8,389.2969 L474.8,389.2969 L474.8,329.2969 L464.8,319.2969 L165.8,319.2969" fill="#FFFFE0" style="stroke:#B0B060;stroke-width:0.5;"/><path d="M464.8,319.2969 L464.8,329.2969 L474.8,329.2969 L464.8,319.2969" fill="#FFFFE0" style="stroke:#B0B060;stroke-width:0.5;"/><text fill="#000000" font-family="Arial" font-size="13" font-weight="bold" lengthAdjust="spacing" textLength="58.9063" x="171.8" y="336.3638">Sistema</text><text fill="#000000" font-family="Arial" font-size="13" lengthAdjust="spacing" textLength="225.0688" x="234.8386" y="336.3638">presenta solicitud de confirmaci&#243;n</text><text fill="#000000" font-family="Arial" font-size="13" font-weight="bold" lengthAdjust="spacing" textLength="58.9063" x="171.8" y="351.4966">Sistema</text><text fill="#000000" font-family="Arial" font-size="13" lengthAdjust="spacing" textLength="110.5952" x="234.8386" y="351.4966">permite solicitar:</text><ellipse cx="177.3" cy="362.1953" fill="#000000" rx="2.5" ry="2.5"/><text fill="#000000" font-family="Arial" font-size="13" lengthAdjust="spacing" textLength="104.4253" x="183.8" y="366.6294">confirmar cierre</text><ellipse cx="177.3" cy="377.3281" fill="#000000" rx="2.5" ry="2.5"/><text fill="#000000" font-family="Arial" font-size="13" lengthAdjust="spacing" textLength="96.9985" x="183.8" y="381.7622">cancelar cierre</text></g><!--link EstadoDecision to *end*CerrarSesionContainer--><g class="link" data-entity-1="EstadoDecision" data-entity-2=".end.CerrarSesionContainer" data-source-line="43" data-uid="lnk6" id="link_EstadoDecision_.end.CerrarSesionContainer"><path d="M135.73,438.0269 C104.6,439.2069 52.56,446.5069 27.8,480.2969 C18.61,492.8469 18,503.2169 27.8,515.2969 C43.19,534.2569 114.6618,540.4902 143.7518,542.3202" fill="none" id="EstadoDecision-to-*end*CerrarSesionContainer" style="stroke:#008000;stroke-width:1;"/><polygon fill="#008000" points="149.74,542.6969,141.0089,538.1397,144.7499,542.383,140.5066,546.1239,149.74,542.6969" style="stroke:#008000;stroke-width:1;"/><path d="M32.8,485.2969 L32.8,510.2969 L267.8,510.2969 L267.8,495.2969 L257.8,485.2969 L32.8,485.2969" fill="#FFFFE0" style="stroke:#B0B060;stroke-width:0.5;"/><path d="M257.8,485.2969 L257.8,495.2969 L267.8,495.2969 L257.8,485.2969" fill="#FFFFE0" style="stroke:#B0B060;stroke-width:0.5;"/><text fill="#000000" font-family="Arial" font-size="13" font-weight="bold" lengthAdjust="spacing" textLength="56.1196" x="38.8" y="502.3638">Usuario</text><text fill="#000000" font-family="Arial" font-size="13" lengthAdjust="spacing" textLength="154.3306" x="99.052" y="502.3638">solicita confirmar cierre</text></g><!--link EstadoDecision to *end*CerrarSesionContainer--><g class="link" data-entity-1="EstadoDecision" data-entity-2=".end.CerrarSesionContainer" data-source-line="48" data-uid="lnk7" id="link_EstadoDecision_.end.CerrarSesionContainer"><path d="M186.28,439.8269 C212.89,442.9369 253.4,452.3069 272.8,480.2969 C281.66,493.0869 282.37,503.0369 272.8,515.2969 C260.34,531.2569 203.776,538.8191 177.956,541.5791" fill="none" id="EstadoDecision-to-*end*CerrarSesionContainer-1" style="stroke:#FF0000;stroke-width:1;"/><polygon fill="#FF0000" points="171.99,542.2169,181.3642,545.2376,176.9617,541.6854,180.5139,537.2829,171.99,542.2169" style="stroke:#FF0000;stroke-width:1;"/><path d="M283.8,485.2969 L283.8,510.2969 L511.8,510.2969 L511.8,495.2969 L501.8,485.2969 L283.8,485.2969" fill="#FFFFE0" style="stroke:#B0B060;stroke-width:0.5;"/><path d="M501.8,485.2969 L501.8,495.2969 L511.8,495.2969 L501.8,485.2969" fill="#FFFFE0" style="stroke:#B0B060;stroke-width:0.5;"/><text fill="#000000" font-family="Arial" font-size="13" font-weight="bold" lengthAdjust="spacing" textLength="56.1196" x="289.8" y="502.3638">Usuario</text><text fill="#000000" font-family="Arial" font-size="13" lengthAdjust="spacing" textLength="146.9038" x="350.052" y="502.3638">solicita cancelar cierre</text></g><g id="FinSesion"><rect fill="#FFFFFF" height="50" rx="12.5" ry="12.5" style="stroke:#000000;stroke-width:0.5;" width="147.251" x="93.5" y="660"/><line style="stroke:#000000;stroke-width:0.5;" x1="93.5" x2="240.751" y1="686.2969" y2="686.2969"/><text fill="#000000" font-family="sans-serif" font-size="14" lengthAdjust="spacing" textLength="127.251" x="103.5" y="677.9951">SESION_CERRADA</text></g><g id="FinSistema"><rect fill="#FFFFFF" height="50" rx="12.5" ry="12.5" style="stroke:#000000;stroke-width:0.5;" width="172.0654" x="276" y="660"/><line style="stroke:#000000;stroke-width:0.5;" x1="276" x2="448.0654" y1="686.2969" y2="686.2969"/><text fill="#000000" font-family="sans-serif" font-size="14" lengthAdjust="spacing" textLength="152.0654" x="286" y="677.9951">SISTEMA_DISPONIBLE</text></g><!--link Inicio to CerrarSesionContainer--><g class="link" data-entity-1="Inicio" data-entity-2="CerrarSesionContainer" data-source-line="60" data-uid="lnk8" id="link_Inicio_CerrarSesionContainer"><path d="M264,57.13 C264,72.35 264,87.67 264,111.86" fill="none" id="Inicio-to-CerrarSesionContainer" style="stroke:#009900;stroke-width:1;"/><polygon fill="#009900" points="264,117.86,268,108.86,264,112.86,260,108.86,264,117.86" style="stroke:#009900;stroke-width:1;"/></g><!--link CerrarSesionContainer to FinSesion--><g class="link" data-entity-1="CerrarSesionContainer" data-entity-2="FinSesion" data-source-line="63" data-uid="lnk9" id="link_CerrarSesionContainer_FinSesion"><path d="M200.79,565.04 C189.9,603.39 181.7403,632.1086 175.5303,653.9586" fill="none" id="CerrarSesionContainer-to-FinSesion" style="stroke:#008000;stroke-width:1;"/><polygon fill="#008000" points="173.89,659.73,180.1981,652.1664,175.2569,654.9205,172.5028,649.9793,173.89,659.73" style="stroke:#008000;stroke-width:1;"/><text fill="#000000" font-family="sans-serif" font-size="13" lengthAdjust="spacing" textLength="73.9438" x="192" y="617.0669">"               "</text></g><!--link CerrarSesionContainer to FinSistema--><g class="link" data-entity-1="CerrarSesionContainer" data-entity-2="FinSistema" data-source-line="66" data-uid="lnk10" id="link_CerrarSesionContainer_FinSistema"><path d="M327.86,565.04 C338.87,603.39 347.1151,632.1128 353.3851,653.9628" fill="none" id="CerrarSesionContainer-to-FinSistema" style="stroke:#FF0000;stroke-width:1;"/><polygon fill="#FF0000" points="355.04,659.73,356.4024,649.9758,353.6609,654.924,348.7127,652.1824,355.04,659.73" style="stroke:#FF0000;stroke-width:1;"/><path d="M350,600 L350,625 L467,625 L467,610 L457,600 L350,600" fill="#FFFFE0" style="stroke:#B0B060;stroke-width:0.5;"/><path d="M457,600 L457,610 L467,610 L457,600" fill="#FFFFE0" style="stroke:#B0B060;stroke-width:0.5;"/><text fill="#000000" font-family="Arial" font-size="13" lengthAdjust="spacing" textLength="96.9985" x="356" y="617.0669">cancelar cierre</text></g><!--SRC=[fLJ1Qjj04BthAuRu4DlWelPGI0u5sP71q3h5SjD2264YRUnjf1qpkqv2Ip-Wdz9pRxtwnphIMeuSsosbUn3IpEoycNdpT0m3ChTwjcHCzUgdWNjjbvY3pbO_ZDCfWdmiq77fAr1PnnJOEsqMo5X0GORIELEXu1PpgnekEyUC7jPcHmjm13Va71MGQLQfqsI2Phn3f-1h07BwcDxDc9Oc6r1E31_dsYdl8SuKUsi_bx3A6Z7JWpUsml3a90mhS-AGtVFOk4xgJT-QDHWwM49hA2SETufezSD- -DhRXsJS66KM4MlCozJ744jV6O5wT8eDGQP06SUO8RIbQds3dS1tVfICacdyBhe-6oNlpyUZ_jlu2D32oEXKKoDLIiLYAKGGB5YRL2y4QfqYLSp8YR8ostQdkZvec8HgXzeeNlTOFTPNeOhs41VL3kWliXB2qO6WCvLgM_khnsNt2dgzDmUJLDCb0xasdehoTBiV98urTRjWAPTU7OBl0wnKBNjNnIgJLGa2J-8kH0DwgxG3g8csJXKeg0jMLZZ16dwPbIobfIouyAhOVqzn8MkvgPfFdy8srnbIBSsefWjDgl9jptPtnv18MvcCMfjoRUJ5gjdgbpI1S4_vKgejYym1KoSxs1wIGCb2h0NQQSoedWNqBbipLifSYIgDZ4hO-bTMzlMqZvSc9gliFn3_DAg6l2pSQeEvihNEhAZh1Z_JaxZYP7G-lXx4aqbq5bLhFDJ6o-8l0YpZFEabOA_NW-aa6YUZWIIC4uW_JUF9E4fAJn1ujLQxk5TvPOgNBzRybdks-lweXRdsXP9_IWVcid08szK6-pMy8LImDht0gMXq-noLcA-Qc0C_Ll_3Rqz8vbG3xupWC7Y3sSQ8TiXzpc7Dtsy0]--></g></svg>