<svg xmlns="http://www.w3.org/2000/svg" xmlns:xlink="http://www.w3.org/1999/xlink" contentStyleType="text/css" data-diagram-type="STATE" height="829px" preserveAspectRatio="none" style="width:314px;height:829px;background:#FFFFFF;" version="1.1" viewBox="0 0 314 829" width="314px" zoomAndPan="magnify"><defs/><g><g id="SISTEMA_DISPONIBLE"><rect fill="#F1F1F1" height="50" rx="12.5" ry="12.5" style="stroke:#181818;stroke-width:0.5;" width="172.0654" x="67.97" y="7"/><line style="stroke:#181818;stroke-width:0.5;" x1="67.97" x2="240.0354" y1="33.2969" y2="33.2969"/><text fill="#000000" font-family="sans-serif" font-size="14" lengthAdjust="spacing" textLength="152.0654" x="77.97" y="24.9951">SISTEMA_DISPONIBLE</text></g><g id="SESION_CERRADA"><rect fill="#F1F1F1" height="50" rx="12.5" ry="12.5" style="stroke:#181818;stroke-width:0.5;" width="147.251" x="80.37" y="773.3"/><line style="stroke:#181818;stroke-width:0.5;" x1="80.37" x2="227.621" y1="799.5969" y2="799.5969"/><text fill="#000000" font-family="sans-serif" font-size="14" lengthAdjust="spacing" textLength="127.251" x="90.37" y="791.2951">SESION_CERRADA</text></g><path d="M19.5,134 L288.5,134 A12.5,12.5 0 0 1 301,146.5 L301,160.2969 L7,160.2969 L7,146.5 A12.5,12.5 0 0 1 19.5,134" fill="#F1F1F1"/><rect fill="none" height="562.2969" rx="12.5" ry="12.5" style="stroke:#181818;stroke-width:0.5;" width="294" x="7" y="134"/><line style="stroke:#181818;stroke-width:0.5;" x1="7" x2="301" y1="160.2969" y2="160.2969"/><text fill="#000000" font-family="sans-serif" font-size="14" lengthAdjust="spacing" textLength="99.2031" x="104.3984" y="151.9951">cerrarSesion()</text><g id="UC.N1"><rect fill="#F1F1F1" height="50" rx="12.5" ry="12.5" style="stroke:#181818;stroke-width:0.5;" width="50" x="53" y="228.2969"/><line style="stroke:#181818;stroke-width:0.5;" x1="53" x2="103" y1="254.5938" y2="254.5938"/><text fill="#000000" font-family="sans-serif" font-size="14" lengthAdjust="spacing" textLength="4.4502" x="75.7749" y="246.292">&#160;</text></g><g id="UC.N2"><rect fill="#F1F1F1" height="50" rx="12.5" ry="12.5" style="stroke:#181818;stroke-width:0.5;" width="50" x="53" y="349.2969"/><line style="stroke:#181818;stroke-width:0.5;" x1="53" x2="103" y1="375.5938" y2="375.5938"/><text fill="#000000" font-family="sans-serif" font-size="14" lengthAdjust="spacing" textLength="4.4502" x="75.7749" y="367.292">&#160;</text></g><g id="UC.END_OK"><rect fill="#F1F1F1" height="50" rx="12.5" ry="12.5" style="stroke:#181818;stroke-width:0.5;" width="50" x="19" y="577.2969"/><line style="stroke:#181818;stroke-width:0.5;" x1="19" x2="69" y1="603.5938" y2="603.5938"/><text fill="#000000" font-family="sans-serif" font-size="14" lengthAdjust="spacing" textLength="4.4502" x="41.7749" y="595.292">&#160;</text></g><g id="UC.END_NO"><rect fill="#F1F1F1" height="50" rx="12.5" ry="12.5" style="stroke:#181818;stroke-width:0.5;" width="50" x="92" y="577.2969"/><line style="stroke:#181818;stroke-width:0.5;" x1="92" x2="142" y1="603.5938" y2="603.5938"/><text fill="#000000" font-family="sans-serif" font-size="14" lengthAdjust="spacing" textLength="4.4502" x="114.7749" y="595.292">&#160;</text></g><g class="entity" data-entity="D1" data-uid="ent0009" id="entity_D1"><polygon fill="#F1F1F1" points="78,500.2969,90,512.2969,78,524.2969,66,512.2969,78,500.2969" style="stroke:#181818;stroke-width:0.5;"/></g><ellipse cx="78" cy="181.2969" fill="#222222" rx="10" ry="10" style="stroke:#222222;stroke-width:1;"/><ellipse cx="77" cy="675.2969" fill="none" rx="11" ry="11" style="stroke:#222222;stroke-width:1;"/><ellipse cx="77" cy="675.2969" fill="#222222" rx="6" ry="6" style="stroke:#222222;stroke-width:1;"/><!--link *start*UC to N1--><g class="link" data-entity-1=".start.UC" data-entity-2="N1" data-link-type="dependency" data-source-line="10" data-uid="lnk3" id="link_.start.UC_N1"><path d="M78,191.7369 C78,200.9969 78,209.4869 78,221.9769" fill="none" id="*start*UC-to-N1" style="stroke:#008000;stroke-width:1;"/><polygon fill="#008000" points="78,227.9769,82,218.9769,78,222.9769,74,218.9769,78,227.9769" style="stroke:#008000;stroke-width:1;"/></g><!--link N1 to N2--><g class="link" data-entity-1="N1" data-entity-2="N2" data-link-type="dependency" data-source-line="19" data-uid="lnk4" id="link_N1_N2"><path d="M78,278.6669 C78,299.1969 78,322.4369 78,342.9569" fill="none" id="N1-to-N2" style="stroke:#008000;stroke-width:1;"/><polygon fill="#008000" points="78,348.9569,82,339.9569,78,343.9569,74,339.9569,78,348.9569" style="stroke:#008000;stroke-width:1;"/><path d="M83,301.2969 L83,326.2969 L292,326.2969 L292,311.2969 L282,301.2969 L83,301.2969" fill="#FEFFDD" style="stroke:#181818;stroke-width:0.5;"/><path d="M282,301.2969 L282,311.2969 L292,311.2969 L282,301.2969" fill="#FEFFDD" style="stroke:#181818;stroke-width:0.5;"/><text fill="#000000" font-family="sans-serif" font-size="13" lengthAdjust="spacing" textLength="188.0684" x="89" y="318.3638">Usuario solicita cerrar sesion</text></g><!--link N2 to D1--><g class="link" data-entity-1="N2" data-entity-2="D1" data-link-type="dependency" data-source-line="24" data-uid="lnk5" id="link_N2_D1"><path d="M78,399.6069 C78,429.1069 78,471.6069 78,493.6969" fill="none" id="N2-to-D1" style="stroke:#008000;stroke-width:1;"/><polygon fill="#008000" points="78,499.6969,82,490.6969,78,494.6969,74,490.6969,78,499.6969" style="stroke:#008000;stroke-width:1;"/><path d="M83,422.2969 L83,477.2969 L271,477.2969 L271,432.2969 L261,422.2969 L83,422.2969" fill="#FEFFDD" style="stroke:#181818;stroke-width:0.5;"/><path d="M261,422.2969 L261,432.2969 L271,432.2969 L261,422.2969" fill="#FEFFDD" style="stroke:#181818;stroke-width:0.5;"/><text fill="#000000" font-family="sans-serif" font-size="13" lengthAdjust="spacing" textLength="167.0894" x="89" y="439.3638">Sistema permite solicitar:</text><text fill="#000000" font-family="sans-serif" font-size="13" lengthAdjust="spacing" textLength="116.2256" x="89" y="454.4966">&#8226; confirmar cierre</text><text fill="#000000" font-family="sans-serif" font-size="13" lengthAdjust="spacing" textLength="108.7988" x="89" y="469.6294">&#8226; cancelar cierre</text></g><!--link D1 to END_OK--><g class="link" data-entity-1="D1" data-entity-2="END_OK" data-link-type="dependency" data-source-line="31" data-uid="lnk6" id="link_D1_END_OK"><path d="M69.69,516.2569 C59.61,520.3469 43.08,528.7969 36,542.2969 C30.48,552.8269 30.0428,559.9841 32.8828,571.0841" fill="none" id="D1-to-END_OK" style="stroke:#008000;stroke-width:1;"/><polygon fill="#008000" points="34.37,576.8969,36.0143,567.1863,33.1306,572.0529,28.264,569.1692,34.37,576.8969" style="stroke:#008000;stroke-width:1;"/><text fill="#000000" font-family="sans-serif" font-size="13" lengthAdjust="spacing" textLength="62.8481" x="37" y="555.3638">confirmar</text></g><!--link D1 to END_NO--><g class="link" data-entity-1="D1" data-entity-2="END_NO" data-link-type="dependency" data-source-line="32" data-uid="lnk7" id="link_D1_END_NO"><path d="M83.43,519.0769 C88.38,524.6469 95.58,533.4869 100,542.2969 C105.45,553.1569 107.9598,560.2248 110.6898,571.1848" fill="none" id="D1-to-END_NO" style="stroke:#008000;stroke-width:1;"/><polygon fill="#008000" points="112.14,577.0069,113.8461,567.3069,110.9315,572.1551,106.0833,569.2405,112.14,577.0069" style="stroke:#008000;stroke-width:1;"/><text fill="#000000" font-family="sans-serif" font-size="13" lengthAdjust="spacing" textLength="55.4214" x="108" y="555.3638">cancelar</text></g><!--link END_OK to *end*UC--><g class="link" data-entity-1="END_OK" data-entity-2=".end.UC" data-link-type="dependency" data-source-line="34" data-uid="lnk9" id="link_END_OK_.end.UC"><path d="M55.36,627.7269 C61.32,640.5669 65.7625,650.1052 70.1425,659.5352" fill="none" id="END_OK-to-*end*UC" style="stroke:#008000;stroke-width:1;"/><polygon fill="#008000" points="72.67,664.9769,72.5065,655.1294,70.5637,660.4422,65.251,658.4994,72.67,664.9769" style="stroke:#008000;stroke-width:1;"/></g><!--link END_NO to *end*UC--><g class="link" data-entity-1="END_NO" data-entity-2=".end.UC" data-link-type="dependency" data-source-line="35" data-uid="lnk10" id="link_END_NO_.end.UC"><path d="M103.23,627.7269 C95.91,640.7269 90.2968,650.7004 84.9968,660.1004" fill="none" id="END_NO-to-*end*UC" style="stroke:#008000;stroke-width:1;"/><polygon fill="#008000" points="82.05,665.3269,89.9546,659.4517,84.5057,660.9715,82.9859,655.5226,82.05,665.3269" style="stroke:#008000;stroke-width:1;"/></g><!--link SISTEMA_DISPONIBLE to UC--><g class="link" data-entity-1="SISTEMA_DISPONIBLE" data-entity-2="UC" data-link-type="dependency" data-source-line="38" data-uid="lnk11" id="link_SISTEMA_DISPONIBLE_UC"><path d="M109.73,57.42 C99.41,65.41 89.76,75.29 84,87 C80.67,93.78 83.16,96.49 84,104 C85.09,113.74 85.5123,117.6802 86.9323,127.6302" fill="none" id="SISTEMA_DISPONIBLE-to-UC" style="stroke:#008000;stroke-width:1;"/><polygon fill="#008000" points="87.78,133.57,90.4683,124.0951,87.0736,128.6202,82.5486,125.2254,87.78,133.57" style="stroke:#008000;stroke-width:1;"/><text fill="#000000" font-family="sans-serif" font-size="13" lengthAdjust="spacing" textLength="92.1172" x="85" y="100.0669">cerrarSesion()</text></g><!--link UC to SISTEMA_DISPONIBLE--><g class="link" data-entity-1="UC" data-entity-2="SISTEMA_DISPONIBLE" data-link-type="dependency" data-source-line="40" data-uid="lnk13" id="link_UC_SISTEMA_DISPONIBLE"><path d="M180.47,133.6 C181.05,123.61 181.56,113.72 182,104 C182.34,96.46 183.79,94.34 182,87 C179.5,76.74 177.5789,71.5132 172.6289,62.5432" fill="none" id="UC-to-SISTEMA_DISPONIBLE" style="stroke:#008000;stroke-width:1;"/><polygon fill="#008000" points="169.73,57.29,170.5763,67.1024,172.1458,61.6677,177.5805,63.2372,169.73,57.29" style="stroke:#008000;stroke-width:1;"/><text fill="#000000" font-family="sans-serif" font-size="13" lengthAdjust="spacing" textLength="55.4214" x="183" y="100.0669">cancelar</text></g><!--link UC to SESION_CERRADA--><g class="link" data-entity-1="UC" data-entity-2="SESION_CERRADA" data-link-type="dependency" data-source-line="39" data-uid="lnk12" id="link_UC_SESION_CERRADA"><path d="M154,696.66 C154,727.81 154,748.81 154,766.97" fill="none" id="UC-to-SESION_CERRADA" style="stroke:#008000;stroke-width:1;"/><polygon fill="#008000" points="154,772.97,158,763.97,154,767.97,150,763.97,154,772.97" style="stroke:#008000;stroke-width:1;"/><text fill="#000000" font-family="sans-serif" font-size="13" lengthAdjust="spacing" textLength="62.8481" x="155" y="739.3669">confirmar</text></g><!--SRC=[RP7HIiCm58RlynI7NQamiBiiOr3R8aLjPNLN8YFB8XxM9YF941J1P_7HV19FqtLRLo_p_V_vyoV7wIqu3IljdAvXZKOAXrenkq6rvORN82fkRUISmTNEoKneLUA7XEiJIsICVezrfGtS6YaLOzPn9s5KPkLJ-X0jawnyBFBivZuT0RSmn8U1jCoAV1cdytcKHAsvXmxHGXh3JIajjRsuzCv539-C0JnVlS1uF8CyQ4vxFtWBeNCoEITfdYoBk_zeNi0nCGbWEXLl6eMSpHgS1-sjJQ3IvD0AAbGREYxiZXlKO7M50Xs7jZrONvyCKgtzZC-P-9ma6EQKQ9siEMobgP6KBi-49Fv-_m1jvnLDJT42wGhPOQw4h4xfwOL9MxnzDuJ7aBv6hmyFIStSVg3HwSltW5mT-69ik6clqgP2w6-G4Mka_hfxRJh7CFFOwmy0]--></g></svg>