<svg xmlns="http://www.w3.org/2000/svg" xmlns:xlink="http://www.w3.org/1999/xlink" contentStyleType="text/css" data-diagram-type="STATE" height="706px" preserveAspectRatio="none" style="width:379px;height:706px;background:#FFFFFF;" version="1.1" viewBox="0 0 379 706" width="379px" zoomAndPan="magnify"><defs/><g><rect fill="#FFFFFF" height="40" rx="12.5" ry="12.5" style="stroke:#000000;stroke-width:0.5;" width="128.7402" x="122" y="7"/><text fill="#000000" font-family="sans-serif" font-size="14" lengthAdjust="spacing" textLength="118.7402" x="127" y="31.8467">GRUPO_ABIERTO</text><path d="M19.5,107 L353.5,107 A12.5,12.5 0 0 1 366,119.5 L366,133.2969 L7,133.2969 L7,119.5 A12.5,12.5 0 0 1 19.5,107" fill="#FFFFFF"/><rect fill="none" height="493.2969" rx="12.5" ry="12.5" style="stroke:#000000;stroke-width:0.5;" width="359" x="7" y="107"/><line style="stroke:#000000;stroke-width:0.5;" x1="7" x2="366" y1="133.2969" y2="133.2969"/><text fill="#000000" font-family="sans-serif" font-size="14" lengthAdjust="spacing" textLength="108.8896" x="132.0552" y="124.9951">invitarUsuario()</text><rect fill="#FFFFFF" height="40" rx="12.5" ry="12.5" style="stroke:#000000;stroke-width:0.5;" width="50" x="19" y="235.2969"/><text fill="#000000" font-family="sans-serif" font-size="14" lengthAdjust="spacing" textLength="4.4502" x="41.7749" y="260.1436">&#160;</text><rect fill="#FFFFFF" height="40" rx="12.5" ry="12.5" style="stroke:#000000;stroke-width:0.5;" width="50" x="19" y="346.2969"/><text fill="#000000" font-family="sans-serif" font-size="14" lengthAdjust="spacing" textLength="4.4502" x="41.7749" y="371.1436">&#160;</text><rect fill="#FFFFFF" height="40" rx="12.5" ry="12.5" style="stroke:#000000;stroke-width:0.5;" width="50" x="19" y="457.2969"/><text fill="#000000" font-family="sans-serif" font-size="14" lengthAdjust="spacing" textLength="4.4502" x="41.7749" y="482.1436">&#160;</text><ellipse cx="44" cy="154.2969" fill="#222222" rx="10" ry="10" style="stroke:#222222;stroke-width:1;"/><ellipse cx="44" cy="579.2969" fill="none" rx="11" ry="11" style="stroke:#222222;stroke-width:1;"/><ellipse cx="44" cy="579.2969" fill="#222222" rx="6" ry="6" style="stroke:#222222;stroke-width:1;"/><!--link *start*MainBlock to Paso1--><g class="link" data-entity-1=".start.MainBlock" data-entity-2="Paso1" data-source-line="18" data-uid="lnk3" id="link_.start.MainBlock_Paso1"><path d="M44,164.4369 C44,180.4169 44,207.7869 44,229.0669" fill="none" id="*start*MainBlock-to-Paso1" style="stroke:#008000;stroke-width:1;"/><polygon fill="#008000" points="44,235.0669,48,226.0669,44,230.0669,40,226.0669,44,235.0669" style="stroke:#008000;stroke-width:1;"/><path d="M49,187.2969 L49,212.2969 L322,212.2969 L322,197.2969 L312,187.2969 L49,187.2969" fill="#FFFFE0" style="stroke:#808080;stroke-width:0.5;"/><path d="M312,187.2969 L312,197.2969 L322,197.2969 L312,187.2969" fill="#FFFFE0" style="stroke:#808080;stroke-width:0.5;"/><text fill="#000000" font-family="sans-serif" font-size="13" font-weight="bold" lengthAdjust="spacing" textLength="104.8633" x="55" y="204.3638">Administrador</text><text fill="#000000" font-family="sans-serif" font-size="13" lengthAdjust="spacing" textLength="143.73" x="163.9956" y="204.3638">solicita invitar usuario</text></g><!--link Paso1 to Paso2--><g class="link" data-entity-1="Paso1" data-entity-2="Paso2" data-source-line="25" data-uid="lnk4" id="link_Paso1_Paso2"><path d="M44,275.5369 C44,295.4569 44,320.3969 44,340.2569" fill="none" id="Paso1-to-Paso2" style="stroke:#008000;stroke-width:1;"/><polygon fill="#008000" points="44,346.2569,48,337.2569,44,341.2569,40,337.2569,44,346.2569" style="stroke:#008000;stroke-width:1;"/><path d="M49,298.2969 L49,323.2969 L352,323.2969 L352,308.2969 L342,298.2969 L49,298.2969" fill="#FFFFE0" style="stroke:#808080;stroke-width:0.5;"/><path d="M342,298.2969 L342,308.2969 L352,308.2969 L342,298.2969" fill="#FFFFE0" style="stroke:#808080;stroke-width:0.5;"/><text fill="#000000" font-family="sans-serif" font-size="13" font-weight="bold" lengthAdjust="spacing" textLength="58.9063" x="55" y="315.3638">Sistema</text><text fill="#000000" font-family="sans-serif" font-size="13" lengthAdjust="spacing" textLength="219.4766" x="118.0386" y="315.3638">permite introducir el identificador</text></g><!--link Paso2 to Paso3--><g class="link" data-entity-1="Paso2" data-entity-2="Paso3" data-source-line="32" data-uid="lnk5" id="link_Paso2_Paso3"><path d="M44,386.5369 C44,406.4569 44,431.3969 44,451.2569" fill="none" id="Paso2-to-Paso3" style="stroke:#008000;stroke-width:1;"/><polygon fill="#008000" points="44,457.2569,48,448.2569,44,452.2569,40,448.2569,44,457.2569" style="stroke:#008000;stroke-width:1;"/><path d="M49,409.2969 L49,434.2969 L342,434.2969 L342,419.2969 L332,409.2969 L49,409.2969" fill="#FFFFE0" style="stroke:#808080;stroke-width:0.5;"/><path d="M332,409.2969 L332,419.2969 L342,419.2969 L332,409.2969" fill="#FFFFE0" style="stroke:#808080;stroke-width:0.5;"/><text fill="#000000" font-family="sans-serif" font-size="13" font-weight="bold" lengthAdjust="spacing" textLength="104.8633" x="55" y="426.3638">Administrador</text><text fill="#000000" font-family="sans-serif" font-size="13" lengthAdjust="spacing" textLength="163.4204" x="163.9956" y="426.3638">introduce el identificador</text></g><!--link Paso3 to *end*MainBlock--><g class="link" data-entity-1="Paso3" data-entity-2=".end.MainBlock" data-source-line="39" data-uid="lnk7" id="link_Paso3_.end.MainBlock"><path d="M44,497.5769 C44,518.6869 44,545.7369 44,562.2269" fill="none" id="Paso3-to-*end*MainBlock" style="stroke:#008000;stroke-width:1;"/><polygon fill="#008000" points="44,568.2269,48,559.2269,44,563.2269,40,559.2269,44,568.2269" style="stroke:#008000;stroke-width:1;"/><path d="M49,520.2969 L49,545.2969 L357,545.2969 L357,530.2969 L347,520.2969 L49,520.2969" fill="#FFFFE0" style="stroke:#808080;stroke-width:0.5;"/><path d="M347,520.2969 L347,530.2969 L357,530.2969 L347,520.2969" fill="#FFFFE0" style="stroke:#808080;stroke-width:0.5;"/><text fill="#000000" font-family="sans-serif" font-size="13" font-weight="bold" lengthAdjust="spacing" textLength="58.9063" x="55" y="537.3638">Sistema</text><text fill="#000000" font-family="sans-serif" font-size="13" lengthAdjust="spacing" textLength="224.2183" x="118.0386" y="537.3638">visualiza la confirmaci&#243;n del env&#237;o</text></g><rect fill="#FFFFFF" height="40" rx="12.5" ry="12.5" style="stroke:#000000;stroke-width:0.5;" width="128.7402" x="122" y="660"/><text fill="#000000" font-family="sans-serif" font-size="14" lengthAdjust="spacing" textLength="118.7402" x="127" y="684.8467">GRUPO_ABIERTO</text><!--link GRUPO_ABIERTO to MainBlock--><g class="link" data-entity-1="GRUPO_ABIERTO" data-entity-2="MainBlock" data-source-line="48" data-uid="lnk8" id="link_GRUPO_ABIERTO_MainBlock"><path d="M186.5,47.33 C186.5,61.45 186.5,76.33 186.5,100.67" fill="none" id="GRUPO_ABIERTO-to-MainBlock" style="stroke:#008000;stroke-width:1;"/><polygon fill="#008000" points="186.5,106.67,190.5,97.67,186.5,101.67,182.5,97.67,186.5,106.67" style="stroke:#008000;stroke-width:1;"/></g><!--link MainBlock to GRUPO_ABIERTO_FINAL--><g class="link" data-entity-1="MainBlock" data-entity-2="GRUPO_ABIERTO_FINAL" data-source-line="49" data-uid="lnk9" id="link_MainBlock_GRUPO_ABIERTO_FINAL"><path d="M186.5,600.03 C186.5,624.54 186.5,639.58 186.5,653.76" fill="none" id="MainBlock-to-GRUPO_ABIERTO_FINAL" style="stroke:#008000;stroke-width:1;"/><polygon fill="#008000" points="186.5,659.76,190.5,650.76,186.5,654.76,182.5,650.76,186.5,659.76" style="stroke:#008000;stroke-width:1;"/></g><!--SRC=[bPB1RXCn48RlVefHBi1AEP3SaJQeH9KAhGeLGWXLqzr9CyJh2MDlee9uf9vuXBmO4xifX415VVozEzzd-vzpIq3TCjr0Ix5HNYQMu5nSS5YYOWSnOIBuvi3M19l5jKeVsfVYHU7zd1EL7T6MjAGJRv_bj5QLTGcdIXJSzzy61_ddt1E-dgSFvBsi3wPF5MziZdi2HwRM2d3WXj43gl8Lkk8xFRyuExsi9yT7v-zEtLquuB3YX7eHUrIMfyy6W15U8uU9bsPXCfdsiVe4m-4BECCeptEILIM0vr0EjbrLLRUTmMDIqz2gWYZUL1B27GVw0ig_K6ZpdC8eGfcmTHZ0eEGbsT573z7V6fawDEwIjBE7C6nIQVk65SY3lMn8FEDcQ_UWmkX0ONIlC7xC1Um4w77yyG5_dFds4Fzt0IksY_Ry5S4ZD19ch1qslFaHhDNUkAlDxH-la1jKUpRojexmfIU812j2m2lyB33Rt4Ppx-mGjElFNgjoUVQIorV7R-eJv_P26BQo3dQQ-vwvNutRxVrbp4y0]--></g></svg>