<svg xmlns="http://www.w3.org/2000/svg" xmlns:xlink="http://www.w3.org/1999/xlink" contentStyleType="text/css" data-diagram-type="STATE" height="731px" preserveAspectRatio="none" style="width:863px;height:731px;background:#FFFFFF;" version="1.1" viewBox="0 0 863 731" width="863px" zoomAndPan="magnify"><defs/><g><g id="Inicio"><rect fill="#FFFFFF" height="50" rx="12.5" ry="12.5" style="stroke:#000000;stroke-width:0.5;" width="138.7402" x="359" y="7"/><line style="stroke:#000000;stroke-width:0.5;" x1="359" x2="497.7402" y1="33.2969" y2="33.2969"/><text fill="#000000" font-family="sans-serif" font-size="14" lengthAdjust="spacing" textLength="118.7402" x="369" y="24.9951">GRUPO_ABIERTO</text></g><path d="M19.5,118 L837.01,118 A12.5,12.5 0 0 1 849.51,130.5 L849.51,144.2969 L7,144.2969 L7,130.5 A12.5,12.5 0 0 1 19.5,118" fill="#FFFFFF"/><rect fill="none" height="462.2969" rx="12.5" ry="12.5" style="stroke:#000000;stroke-width:0.5;" width="842.51" x="7" y="118"/><line style="stroke:#000000;stroke-width:0.5;" x1="7" x2="849.51" y1="144.2969" y2="144.2969"/><text fill="#000000" font-family="sans-serif" font-size="14" lengthAdjust="spacing" textLength="108.8896" x="373.8102" y="135.9951">invitarUsuario()</text><g id="MainBlock.EstadoFormulario"><rect fill="#FFFFFF" height="50" rx="12.5" ry="12.5" style="stroke:#000000;stroke-width:0.5;" width="50" x="285.51" y="246.2969"/><line style="stroke:#000000;stroke-width:0.5;" x1="285.51" x2="335.51" y1="272.5938" y2="272.5938"/><text fill="#000000" font-family="sans-serif" font-size="14" lengthAdjust="spacing" textLength="4.4502" x="308.2849" y="264.292">&#160;</text></g><g id="MainBlock.EstadoDecision"><rect fill="#FFFFFF" height="50" rx="12.5" ry="12.5" style="stroke:#000000;stroke-width:0.5;" width="50" x="285.51" y="427.2969"/><line style="stroke:#000000;stroke-width:0.5;" x1="285.51" x2="335.51" y1="453.5938" y2="453.5938"/><text fill="#000000" font-family="sans-serif" font-size="14" lengthAdjust="spacing" textLength="4.4502" x="308.2849" y="445.292">&#160;</text></g><ellipse cx="310.51" cy="165.2969" fill="#222222" rx="10" ry="10" style="stroke:#222222;stroke-width:1;"/><ellipse cx="310.51" cy="559.2969" fill="none" rx="11" ry="11" style="stroke:#222222;stroke-width:1;"/><ellipse cx="310.51" cy="559.2969" fill="#222222" rx="6" ry="6" style="stroke:#222222;stroke-width:1;"/><!--link *start*MainBlock to EstadoFormulario--><g class="link" data-entity-1=".start.MainBlock" data-entity-2="EstadoFormulario" data-source-line="29" data-uid="lnk3" id="link_.start.MainBlock_EstadoFormulario"><path d="M310.51,175.5269 C310.51,191.2369 310.51,217.6569 310.51,240.1669" fill="none" id="*start*MainBlock-to-EstadoFormulario" style="stroke:#009900;stroke-width:1;"/><polygon fill="#009900" points="310.51,246.1669,314.51,237.1669,310.51,241.1669,306.51,237.1669,310.51,246.1669" style="stroke:#009900;stroke-width:1;"/><path d="M315.51,198.2969 L315.51,223.2969 L588.51,223.2969 L588.51,208.2969 L578.51,198.2969 L315.51,198.2969" fill="#FFFFE0" style="stroke:#B0B060;stroke-width:0.5;"/><path d="M578.51,198.2969 L578.51,208.2969 L588.51,208.2969 L578.51,198.2969" fill="#FFFFE0" style="stroke:#B0B060;stroke-width:0.5;"/><text fill="#000000" font-family="Arial" font-size="13" font-weight="bold" lengthAdjust="spacing" textLength="104.8633" x="321.51" y="215.3638">Administrador</text><text fill="#000000" font-family="Arial" font-size="13" lengthAdjust="spacing" textLength="143.73" x="430.5056" y="215.3638">solicita invitar usuario</text></g><!--link EstadoFormulario to EstadoDecision--><g class="link" data-entity-1="EstadoFormulario" data-entity-2="EstadoDecision" data-source-line="34" data-uid="lnk4" id="link_EstadoFormulario_EstadoDecision"><path d="M310.51,296.4369 C310.51,330.6969 310.51,387.0469 310.51,421.2569" fill="none" id="EstadoFormulario-to-EstadoDecision" style="stroke:#009900;stroke-width:1;"/><polygon fill="#009900" points="310.51,427.2569,314.51,418.2569,310.51,422.2569,306.51,418.2569,310.51,427.2569" style="stroke:#009900;stroke-width:1;"/><path d="M315.51,319.2969 L315.51,404.2969 L615.51,404.2969 L615.51,329.2969 L605.51,319.2969 L315.51,319.2969" fill="#FFFFE0" style="stroke:#B0B060;stroke-width:0.5;"/><path d="M605.51,319.2969 L605.51,329.2969 L615.51,329.2969 L605.51,319.2969" fill="#FFFFE0" style="stroke:#B0B060;stroke-width:0.5;"/><text fill="#000000" font-family="Arial" font-size="13" font-weight="bold" lengthAdjust="spacing" textLength="58.9063" x="321.51" y="336.3638">Sistema</text><text fill="#000000" font-family="Arial" font-size="13" lengthAdjust="spacing" textLength="216.7534" x="384.5486" y="336.3638">presenta formulario de invitaci&#243;n</text><text fill="#000000" font-family="Arial" font-size="13" font-weight="bold" lengthAdjust="spacing" textLength="58.9063" x="321.51" y="351.4966">Sistema</text><text fill="#000000" font-family="Arial" font-size="13" lengthAdjust="spacing" textLength="110.5952" x="384.5486" y="351.4966">permite solicitar:</text><ellipse cx="327.01" cy="362.1953" fill="#000000" rx="2.5" ry="2.5"/><text fill="#000000" font-family="Arial" font-size="13" lengthAdjust="spacing" textLength="200.5225" x="333.51" y="366.6294">introducir identificador y fecha</text><ellipse cx="327.01" cy="377.3281" fill="#000000" rx="2.5" ry="2.5"/><text fill="#000000" font-family="Arial" font-size="13" lengthAdjust="spacing" textLength="108.1577" x="333.51" y="381.7622">enviar invitaci&#243;n</text><ellipse cx="327.01" cy="392.4609" fill="#000000" rx="2.5" ry="2.5"/><text fill="#000000" font-family="Arial" font-size="13" lengthAdjust="spacing" textLength="122.7256" x="333.51" y="396.895">cancelar invitaci&#243;n</text></g><!--link EstadoDecision to *end*MainBlock--><g class="link" data-entity-1="EstadoDecision" data-entity-2=".end.MainBlock" data-source-line="44" data-uid="lnk6" id="link_EstadoDecision_.end.MainBlock"><path d="M285.4,453.3669 C213.89,454.3869 18,463.2069 77.51,530.2969 C92.44,547.1369 249.2364,555.4891 293.4764,557.5391" fill="none" id="EstadoDecision-to-*end*MainBlock" style="stroke:#008000;stroke-width:1;"/><polygon fill="#008000" points="299.47,557.8169,290.6648,553.4046,294.4754,557.5854,290.2945,561.396,299.47,557.8169" style="stroke:#008000;stroke-width:1;"/><path d="M82.51,500.2969 L82.51,525.2969 L518.51,525.2969 L518.51,510.2969 L508.51,500.2969 L82.51,500.2969" fill="#FFFFE0" style="stroke:#B0B060;stroke-width:0.5;"/><path d="M508.51,500.2969 L508.51,510.2969 L518.51,510.2969 L508.51,500.2969" fill="#FFFFE0" style="stroke:#B0B060;stroke-width:0.5;"/><text fill="#000000" font-family="Arial" font-size="13" font-weight="bold" lengthAdjust="spacing" textLength="104.8633" x="88.51" y="517.3638">Administrador</text><text fill="#000000" font-family="Arial" font-size="13" lengthAdjust="spacing" textLength="306.2808" x="197.5056" y="517.3638">introduce identificador y fecha y solicita enviar</text></g><!--link EstadoDecision to *end*MainBlock--><g class="link" data-entity-1="EstadoDecision" data-entity-2=".end.MainBlock" data-source-line="49" data-uid="lnk7" id="link_EstadoDecision_.end.MainBlock"><path d="M335.85,453.9169 C403.12,456.4069 577.44,468.8069 523.51,530.2969 C496.76,560.7869 367.7081,559.8297 327.6881,558.8097" fill="none" id="EstadoDecision-to-*end*MainBlock-1" style="stroke:#FF0000;stroke-width:1;"/><polygon fill="#FF0000" points="321.69,558.6569,330.5852,562.8849,326.6884,558.7843,330.789,554.8875,321.69,558.6569" style="stroke:#FF0000;stroke-width:1;"/><path d="M538.51,500.2969 L538.51,525.2969 L840.51,525.2969 L840.51,510.2969 L830.51,500.2969 L538.51,500.2969" fill="#FFFFE0" style="stroke:#B0B060;stroke-width:0.5;"/><path d="M830.51,500.2969 L830.51,510.2969 L840.51,510.2969 L830.51,500.2969" fill="#FFFFE0" style="stroke:#B0B060;stroke-width:0.5;"/><text fill="#000000" font-family="Arial" font-size="13" font-weight="bold" lengthAdjust="spacing" textLength="104.8633" x="544.51" y="517.3638">Administrador</text><text fill="#000000" font-family="Arial" font-size="13" lengthAdjust="spacing" textLength="172.6309" x="653.5056" y="517.3638">solicita cancelar invitaci&#243;n</text></g><g id="Fin"><rect fill="#FFFFFF" height="50" rx="12.5" ry="12.5" style="stroke:#000000;stroke-width:0.5;" width="138.7402" x="359" y="675"/><line style="stroke:#000000;stroke-width:0.5;" x1="359" x2="497.7402" y1="701.2969" y2="701.2969"/><text fill="#000000" font-family="sans-serif" font-size="14" lengthAdjust="spacing" textLength="118.7402" x="369" y="692.9951">GRUPO_ABIERTO</text></g><!--link Inicio to MainBlock--><g class="link" data-entity-1="Inicio" data-entity-2="MainBlock" data-source-line="60" data-uid="lnk8" id="link_Inicio_MainBlock"><path d="M428.5,57.19 C428.5,72.39 428.5,87.68 428.5,111.89" fill="none" id="Inicio-to-MainBlock" style="stroke:#009900;stroke-width:1;"/><polygon fill="#009900" points="428.5,117.89,432.5,108.89,428.5,112.89,424.5,108.89,428.5,117.89" style="stroke:#009900;stroke-width:1;"/></g><!--link MainBlock to Fin--><g class="link" data-entity-1="MainBlock" data-entity-2="Fin" data-source-line="63" data-uid="lnk9" id="link_MainBlock_Fin"><path d="M354.02,580.19 C354.98,602.51 359.36,624.47 368.5,645 C373.63,656.52 378.0498,662.6744 387.4898,670.9144" fill="none" id="MainBlock-to-Fin" style="stroke:#008000;stroke-width:1;"/><polygon fill="#008000" points="392.01,674.86,387.8601,665.9281,388.2432,671.572,382.5993,671.9551,392.01,674.86" style="stroke:#008000;stroke-width:1;"/><text fill="#000000" font-family="sans-serif" font-size="13" lengthAdjust="spacing" textLength="73.9438" x="369.5" y="632.0669">"               "</text></g><!--link MainBlock to Fin--><g class="link" data-entity-1="MainBlock" data-entity-2="Fin" data-source-line="66" data-uid="lnk10" id="link_MainBlock_Fin"><path d="M446.23,580.33 C446.72,590.35 447.15,600.28 447.5,610 C448.07,625.55 450.12,629.67 447.5,645 C445.79,654.99 444.5381,659.9725 441.1081,669.1125" fill="none" id="MainBlock-to-Fin-1" style="stroke:#FF0000;stroke-width:1;"/><polygon fill="#FF0000" points="439,674.73,445.9071,667.7092,440.7567,670.0488,438.4172,664.8984,439,674.73" style="stroke:#FF0000;stroke-width:1;"/><path d="M453.5,615 L453.5,640 L596.5,640 L596.5,625 L586.5,615 L453.5,615" fill="#FFFFE0" style="stroke:#B0B060;stroke-width:0.5;"/><path d="M586.5,615 L586.5,625 L596.5,625 L586.5,615" fill="#FFFFE0" style="stroke:#B0B060;stroke-width:0.5;"/><text fill="#000000" font-family="Arial" font-size="13" lengthAdjust="spacing" textLength="122.7256" x="459.5" y="632.0669">cancelar invitaci&#243;n</text></g><!--SRC=[dLJ1RjD04BtxAqRDeMsa8CC1gJqW9S6fSY15IGf8LOMMtKqorDwnnkksgE83-1JEtBZcnnXxdTHj4o7OGnlDphoPzzwE3s58Re7BafN6zIy7DrYKAWKqwv_EerQWm1hqYi-upEdeE2gkqUMALGOPET8hfip2GgM5RLqLAsNejWbxoi4JV27lAGE3RBL7Sb4xtojluJu2EGEbhvTCfJD3IedXumgz3JV4ndA83b99gwDzPheDmKuSdvp4SHsUoSp-QMwo0GsXx-qP7EqTeJEIayJFXkWCua7yEiH7vFn4YHPzHfLMq8UG22z3OE-yPKTWB5ZdMHaL1S87PzEBz-UV-uDnCfsV7u0gOEnG8xMADMLvQGiHC6Tq6dC1RwhHtLJEN8XZZE9D3V1EeHkafAyRBlMVfW3gZ00y8ixAj2hSb_7MQYmgexOmbzqhwFNUx4QezIC7AReWTdMwtRx9q65HqIRkTg6WL1Xw1StqK8RnwnBhJ8qJ1RUUj6drVZJRdiupwMep9JrpjeKehs3nW2LcX0dgTx-xp78cRsyxCfy-f4cnPpAbHfPb4N1SoBO8HVW62wjNgfLgfOyGtTaEj7BQfZkk7sjn23ELeX5pfB6y9lbHsENwjx1MS4DfAVICa4f1QK_SqcyZ5VGkEqksrbt9QZfHKjpy5-CsXErkll9_QsqWlDVHzaHipN_Ei-tsTmNRoxX09z-tPYNtx-48NLNKw_LWFkrFPkFX-7oIp23vD4-ca_wikecYiAtrkzpkNLNsyaLZL_NCrZ_kKDRtw8ELByTnzB2WMqEaNFh1gMpVutDGWRrgWmq3sV2nFfhILtg2M0aQyA9dGkvKQgFI7m00]--></g></svg>