<svg xmlns="http://www.w3.org/2000/svg" xmlns:xlink="http://www.w3.org/1999/xlink" contentStyleType="text/css" data-diagram-type="STATE" height="852px" preserveAspectRatio="none" style="width:523px;height:852px;background:#FFFFFF;" version="1.1" viewBox="0 0 523 852" width="523px" zoomAndPan="magnify"><defs/><g><g id="Inicio"><rect fill="#FFFFFF" height="50" rx="12.5" ry="12.5" style="stroke:#000000;stroke-width:0.5;" width="138.7402" x="189" y="7"/><line style="stroke:#000000;stroke-width:0.5;" x1="189" x2="327.7402" y1="33.2969" y2="33.2969"/><text fill="#000000" font-family="sans-serif" font-size="14" lengthAdjust="spacing" textLength="118.7402" x="199" y="24.9951">GRUPO_ABIERTO</text></g><path d="M19.5,118 L497.5,118 A12.5,12.5 0 0 1 510,130.5 L510,144.2969 L7,144.2969 L7,130.5 A12.5,12.5 0 0 1 19.5,118" fill="#FFFFFF"/><rect fill="none" height="583.2969" rx="12.5" ry="12.5" style="stroke:#000000;stroke-width:0.5;" width="503" x="7" y="118"/><line style="stroke:#000000;stroke-width:0.5;" x1="7" x2="510" y1="144.2969" y2="144.2969"/><text fill="#000000" font-family="sans-serif" font-size="14" lengthAdjust="spacing" textLength="108.8896" x="204.0552" y="135.9951">invitarUsuario()</text><g id="MainBlock.Paso1"><rect fill="#FFFFFF" height="50" rx="12.5" ry="12.5" style="stroke:#000000;stroke-width:0.5;" width="50" x="19" y="246.2969"/><line style="stroke:#000000;stroke-width:0.5;" x1="19" x2="69" y1="272.5938" y2="272.5938"/><text fill="#000000" font-family="sans-serif" font-size="14" lengthAdjust="spacing" textLength="4.4502" x="41.7749" y="264.292">&#160;</text></g><g id="MainBlock.Paso2"><rect fill="#FFFFFF" height="50" rx="12.5" ry="12.5" style="stroke:#000000;stroke-width:0.5;" width="50" x="19" y="427.2969"/><line style="stroke:#000000;stroke-width:0.5;" x1="19" x2="69" y1="453.5938" y2="453.5938"/><text fill="#000000" font-family="sans-serif" font-size="14" lengthAdjust="spacing" textLength="4.4502" x="41.7749" y="445.292">&#160;</text></g><g id="MainBlock.Paso3"><rect fill="#FFFFFF" height="50" rx="12.5" ry="12.5" style="stroke:#000000;stroke-width:0.5;" width="50" x="19" y="548.2969"/><line style="stroke:#000000;stroke-width:0.5;" x1="19" x2="69" y1="574.5938" y2="574.5938"/><text fill="#000000" font-family="sans-serif" font-size="14" lengthAdjust="spacing" textLength="4.4502" x="41.7749" y="566.292">&#160;</text></g><ellipse cx="44" cy="165.2969" fill="#222222" rx="10" ry="10" style="stroke:#222222;stroke-width:1;"/><ellipse cx="44" cy="680.2969" fill="none" rx="11" ry="11" style="stroke:#222222;stroke-width:1;"/><ellipse cx="44" cy="680.2969" fill="#222222" rx="6" ry="6" style="stroke:#222222;stroke-width:1;"/><!--link *start*MainBlock to Paso1--><g class="link" data-entity-1=".start.MainBlock" data-entity-2="Paso1" data-source-line="27" data-uid="lnk3" id="link_.start.MainBlock_Paso1"><path d="M44,175.5269 C44,191.2369 44,217.6569 44,240.1669" fill="none" id="*start*MainBlock-to-Paso1" style="stroke:#009900;stroke-width:1;"/><polygon fill="#009900" points="44,246.1669,48,237.1669,44,241.1669,40,237.1669,44,246.1669" style="stroke:#009900;stroke-width:1;"/><path d="M49,198.2969 L49,223.2969 L322,223.2969 L322,208.2969 L312,198.2969 L49,198.2969" fill="#FFFFE0" style="stroke:#B0B060;stroke-width:0.5;"/><path d="M312,198.2969 L312,208.2969 L322,208.2969 L312,198.2969" fill="#FFFFE0" style="stroke:#B0B060;stroke-width:0.5;"/><text fill="#000000" font-family="Arial" font-size="13" font-weight="bold" lengthAdjust="spacing" textLength="104.8633" x="55" y="215.3638">Administrador</text><text fill="#000000" font-family="Arial" font-size="13" lengthAdjust="spacing" textLength="143.73" x="163.9956" y="215.3638">solicita invitar usuario</text></g><!--link Paso1 to Paso2--><g class="link" data-entity-1="Paso1" data-entity-2="Paso2" data-source-line="32" data-uid="lnk4" id="link_Paso1_Paso2"><path d="M44,296.4369 C44,330.6969 44,387.0469 44,421.2569" fill="none" id="Paso1-to-Paso2" style="stroke:#009900;stroke-width:1;"/><polygon fill="#009900" points="44,427.2569,48,418.2569,44,422.2569,40,418.2569,44,427.2569" style="stroke:#009900;stroke-width:1;"/><path d="M49,319.2969 L49,404.2969 L394,404.2969 L394,329.2969 L384,319.2969 L49,319.2969" fill="#FFFFE0" style="stroke:#B0B060;stroke-width:0.5;"/><path d="M384,319.2969 L384,329.2969 L394,329.2969 L384,319.2969" fill="#FFFFE0" style="stroke:#B0B060;stroke-width:0.5;"/><text fill="#000000" font-family="Arial" font-size="13" font-weight="bold" lengthAdjust="spacing" textLength="58.9063" x="55" y="336.3638">Sistema</text><text fill="#000000" font-family="Arial" font-size="13" lengthAdjust="spacing" textLength="216.7534" x="118.0386" y="336.3638">presenta formulario de invitaci&#243;n</text><text fill="#000000" font-family="Arial" font-size="13" lengthAdjust="spacing" textLength="7.668" x="55" y="351.4966">&#8226;</text><text fill="#000000" font-family="Arial" font-size="13" font-weight="bold" lengthAdjust="spacing" textLength="58.9063" x="66.8003" y="351.4966">Sistema</text><text fill="#000000" font-family="Arial" font-size="13" lengthAdjust="spacing" textLength="219.4766" x="129.8389" y="351.4966">permite introducir el identificador</text><text fill="#000000" font-family="Arial" font-size="13" lengthAdjust="spacing" textLength="7.668" x="55" y="366.6294">&#8226;</text><text fill="#000000" font-family="Arial" font-size="13" font-weight="bold" lengthAdjust="spacing" textLength="58.9063" x="66.8003" y="366.6294">Sistema</text><text fill="#000000" font-family="Arial" font-size="13" lengthAdjust="spacing" textLength="249.3486" x="129.8389" y="366.6294">permite introducir fecha de caducidad</text><text fill="#000000" font-family="Arial" font-size="13" lengthAdjust="spacing" textLength="7.668" x="55" y="381.7622">&#8226;</text><text fill="#000000" font-family="Arial" font-size="13" font-weight="bold" lengthAdjust="spacing" textLength="58.9063" x="66.8003" y="381.7622">Sistema</text><text fill="#000000" font-family="Arial" font-size="13" lengthAdjust="spacing" textLength="218.5054" x="129.8389" y="381.7622">permite solicitar enviar invitaci&#243;n</text><text fill="#000000" font-family="Arial" font-size="13" lengthAdjust="spacing" textLength="7.668" x="55" y="396.895">&#8226;</text><text fill="#000000" font-family="Arial" font-size="13" font-weight="bold" lengthAdjust="spacing" textLength="58.9063" x="66.8003" y="396.895">Sistema</text><text fill="#000000" font-family="Arial" font-size="13" lengthAdjust="spacing" textLength="233.0732" x="129.8389" y="396.895">permite solicitar cancelar invitaci&#243;n</text></g><!--link Paso2 to Paso3--><g class="link" data-entity-1="Paso2" data-entity-2="Paso3" data-source-line="41" data-uid="lnk5" id="link_Paso2_Paso3"><path d="M44,477.3769 C44,498.0269 44,521.6169 44,542.2469" fill="none" id="Paso2-to-Paso3" style="stroke:#009900;stroke-width:1;"/><polygon fill="#009900" points="44,548.2469,48,539.2469,44,543.2469,40,539.2469,44,548.2469" style="stroke:#009900;stroke-width:1;"/><path d="M49,500.2969 L49,525.2969 L501,525.2969 L501,510.2969 L491,500.2969 L49,500.2969" fill="#FFFFE0" style="stroke:#B0B060;stroke-width:0.5;"/><path d="M491,500.2969 L491,510.2969 L501,510.2969 L491,500.2969" fill="#FFFFE0" style="stroke:#B0B060;stroke-width:0.5;"/><text fill="#000000" font-family="Arial" font-size="13" font-weight="bold" lengthAdjust="spacing" textLength="104.8633" x="55" y="517.3638">Administrador</text><text fill="#000000" font-family="Arial" font-size="13" lengthAdjust="spacing" textLength="322.0229" x="163.9956" y="517.3638">introduce el identificador y fecha y solicita enviar</text></g><!--link Paso3 to *end*MainBlock--><g class="link" data-entity-1="Paso3" data-entity-2=".end.MainBlock" data-source-line="46" data-uid="lnk7" id="link_Paso3_.end.MainBlock"><path d="M44,598.3869 C44,620.7869 44,647.0669 44,663.2469" fill="none" id="Paso3-to-*end*MainBlock" style="stroke:#009900;stroke-width:1;"/><polygon fill="#009900" points="44,669.2469,48,660.2469,44,664.2469,40,660.2469,44,669.2469" style="stroke:#009900;stroke-width:1;"/><path d="M49,621.2969 L49,646.2969 L357,646.2969 L357,631.2969 L347,621.2969 L49,621.2969" fill="#FFFFE0" style="stroke:#B0B060;stroke-width:0.5;"/><path d="M347,621.2969 L347,631.2969 L357,631.2969 L347,621.2969" fill="#FFFFE0" style="stroke:#B0B060;stroke-width:0.5;"/><text fill="#000000" font-family="Arial" font-size="13" font-weight="bold" lengthAdjust="spacing" textLength="58.9063" x="55" y="638.3638">Sistema</text><text fill="#000000" font-family="Arial" font-size="13" lengthAdjust="spacing" textLength="224.2183" x="118.0386" y="638.3638">visualiza la confirmaci&#243;n del env&#237;o</text></g><g id="Fin"><rect fill="#FFFFFF" height="50" rx="12.5" ry="12.5" style="stroke:#000000;stroke-width:0.5;" width="138.7402" x="189" y="796"/><line style="stroke:#000000;stroke-width:0.5;" x1="189" x2="327.7402" y1="822.2969" y2="822.2969"/><text fill="#000000" font-family="sans-serif" font-size="14" lengthAdjust="spacing" textLength="118.7402" x="199" y="813.9951">GRUPO_ABIERTO</text></g><!--link Inicio to MainBlock--><g class="link" data-entity-1="Inicio" data-entity-2="MainBlock" data-source-line="54" data-uid="lnk8" id="link_Inicio_MainBlock"><path d="M258.5,57.06 C258.5,72.11 258.5,87.29 258.5,111.88" fill="none" id="Inicio-to-MainBlock" style="stroke:#009900;stroke-width:1;"/><polygon fill="#009900" points="258.5,117.88,262.5,108.88,258.5,112.88,254.5,108.88,258.5,117.88" style="stroke:#009900;stroke-width:1;"/></g><!--link MainBlock to Fin--><g class="link" data-entity-1="MainBlock" data-entity-2="Fin" data-source-line="56" data-uid="lnk9" id="link_MainBlock_Fin"><path d="M321.05,701.39 C322.35,711.36 323.51,721.25 324.5,731 C326.08,746.48 331.16,751.94 324.5,766 C318.92,777.77 314.0553,784.0694 303.9353,792.2094" fill="none" id="MainBlock-to-Fin" style="stroke:#009900;stroke-width:1;"/><polygon fill="#009900" points="299.26,795.97,308.78,793.446,303.1561,792.8362,303.7659,787.2123,299.26,795.97" style="stroke:#009900;stroke-width:1;"/></g><!--link MainBlock to Fin--><g class="link" data-entity-1="MainBlock" data-entity-2="Fin" data-source-line="58" data-uid="lnk10" id="link_MainBlock_Fin"><path d="M172.27,701.04 C170.48,711.11 168.88,721.12 167.5,731 C165.36,746.41 159.8,752.48 167.5,766 C174.5,778.29 180.4657,784.8468 192.4557,792.5168" fill="none" id="MainBlock-to-Fin-1" style="stroke:#FF0000;stroke-width:1;"/><polygon fill="#FF0000" points="197.51,795.75,192.084,787.5306,193.2981,793.0556,187.773,794.2697,197.51,795.75" style="stroke:#FF0000;stroke-width:1;"/><path d="M172.5,736 L172.5,761 L315.5,761 L315.5,746 L305.5,736 L172.5,736" fill="#FFFFE0" style="stroke:#B0B060;stroke-width:0.5;"/><path d="M305.5,736 L305.5,746 L315.5,746 L305.5,736" fill="#FFFFE0" style="stroke:#B0B060;stroke-width:0.5;"/><text fill="#000000" font-family="Arial" font-size="13" lengthAdjust="spacing" textLength="122.7256" x="178.5" y="753.0669">cancelar invitaci&#243;n</text></g><!--SRC=[bLJ1QXin4BtlLmpnfLq8R6qev5Bm5hlaq2Oa3Js4K5H96m_MQioid92MGh-bzvxw2VcJV4bdfVNQZPsqri66D_FUl9cHjfcZNoXMDTJaIS-OQWkLSetDcZxKp9IXsmuEj810y8L2e1eCijK1oMUR-K452zyoa5CgFRzcMdhpbXmnV9fXi2b2R2mdj7II5j4nCzqcS50KHqT54U7pe3WypfsiH1FqVTE3foSj3APo9iMMYK5PbCNhX4_9XmzAPZ5cL2vAnwOEtfrTd9vy7fV7axEF9mUW6ZZsg97w1FGtA6OlcgLYf1SlOyvxXRvqfEUTfVZJ4I1cdAg6Nks6XxlXKHRno_mA3W_VR0Z4ric3Gv_cr9uy7viQFJQ1PPcSvz2G4-D1GUSObibof5Xleawg4RNxAiFdgfnB1LihqL-mRQmN_OguNhfM6epjgccy_-rxsiEFdtzJBTToJIGtC9cbHWRh08t8OOMwRM0VRcNrJBMrXIc0KUQVxDLmfB3ubRzzRA_9MdbjtGxwzdo7_Nn7-snnrQRTcX3STOtVhLUTcdd2mIWwaFlqV_kzGRal3hygS0eq-GgvJXtAg5rRwlxNeylqt3EQedn3qbkAFledasNhrzC6Ok86T3bWQwuOhsUXYsvPtxc6bQi_]--></g></svg>