<svg xmlns="http://www.w3.org/2000/svg" xmlns:xlink="http://www.w3.org/1999/xlink" contentStyleType="text/css" data-diagram-type="STATE" height="837px" preserveAspectRatio="none" style="width:471px;height:837px;background:#FFFFFF;" version="1.1" viewBox="0 0 471 837" width="471px" zoomAndPan="magnify"><defs/><g><g id="Inicio"><rect fill="#FFFFFF" height="50" rx="12.5" ry="12.5" style="stroke:#000000;stroke-width:0.5;" width="138.7402" x="163" y="7"/><line style="stroke:#000000;stroke-width:0.5;" x1="163" x2="301.7402" y1="33.2969" y2="33.2969"/><text fill="#000000" font-family="sans-serif" font-size="14" lengthAdjust="spacing" textLength="118.7402" x="173" y="24.9951">GRUPO_ABIERTO</text></g><path d="M19.5,118 L445.5,118 A12.5,12.5 0 0 1 458,130.5 L458,144.2969 L7,144.2969 L7,130.5 A12.5,12.5 0 0 1 19.5,118" fill="#FFFFFF"/><rect fill="none" height="568.2969" rx="12.5" ry="12.5" style="stroke:#000000;stroke-width:0.5;" width="451" x="7" y="118"/><line style="stroke:#000000;stroke-width:0.5;" x1="7" x2="458" y1="144.2969" y2="144.2969"/><text fill="#000000" font-family="sans-serif" font-size="14" lengthAdjust="spacing" textLength="108.8896" x="178.0552" y="135.9951">invitarUsuario()</text><g id="MainBlock.Paso1"><rect fill="#FFFFFF" height="50" rx="12.5" ry="12.5" style="stroke:#000000;stroke-width:0.5;" width="50" x="19" y="246.2969"/><line style="stroke:#000000;stroke-width:0.5;" x1="19" x2="69" y1="272.5938" y2="272.5938"/><text fill="#000000" font-family="sans-serif" font-size="14" lengthAdjust="spacing" textLength="4.4502" x="41.7749" y="264.292">&#160;</text></g><g id="MainBlock.Paso2"><rect fill="#FFFFFF" height="50" rx="12.5" ry="12.5" style="stroke:#000000;stroke-width:0.5;" width="50" x="19" y="412.2969"/><line style="stroke:#000000;stroke-width:0.5;" x1="19" x2="69" y1="438.5938" y2="438.5938"/><text fill="#000000" font-family="sans-serif" font-size="14" lengthAdjust="spacing" textLength="4.4502" x="41.7749" y="430.292">&#160;</text></g><g id="MainBlock.Paso3"><rect fill="#FFFFFF" height="50" rx="12.5" ry="12.5" style="stroke:#000000;stroke-width:0.5;" width="50" x="19" y="533.2969"/><line style="stroke:#000000;stroke-width:0.5;" x1="19" x2="69" y1="559.5938" y2="559.5938"/><text fill="#000000" font-family="sans-serif" font-size="14" lengthAdjust="spacing" textLength="4.4502" x="41.7749" y="551.292">&#160;</text></g><ellipse cx="44" cy="165.2969" fill="#222222" rx="10" ry="10" style="stroke:#222222;stroke-width:1;"/><ellipse cx="44" cy="665.2969" fill="none" rx="11" ry="11" style="stroke:#222222;stroke-width:1;"/><ellipse cx="44" cy="665.2969" fill="#222222" rx="6" ry="6" style="stroke:#222222;stroke-width:1;"/><!--link *start*MainBlock to Paso1--><g class="link" data-entity-1=".start.MainBlock" data-entity-2="Paso1" data-source-line="32" data-uid="lnk3" id="link_.start.MainBlock_Paso1"><path d="M44,175.5269 C44,191.2369 44,217.6569 44,240.1669" fill="none" id="*start*MainBlock-to-Paso1" style="stroke:#009900;stroke-width:1;"/><polygon fill="#009900" points="44,246.1669,48,237.1669,44,241.1669,40,237.1669,44,246.1669" style="stroke:#009900;stroke-width:1;"/><path d="M49,198.2969 L49,223.2969 L322,223.2969 L322,208.2969 L312,198.2969 L49,198.2969" fill="#FFFFE0" style="stroke:#B0B060;stroke-width:0.5;"/><path d="M312,198.2969 L312,208.2969 L322,208.2969 L312,198.2969" fill="#FFFFE0" style="stroke:#B0B060;stroke-width:0.5;"/><text fill="#000000" font-family="Arial" font-size="13" font-weight="bold" lengthAdjust="spacing" textLength="104.8633" x="55" y="215.3638">Administrador</text><text fill="#000000" font-family="Arial" font-size="13" lengthAdjust="spacing" textLength="143.73" x="163.9956" y="215.3638">solicita invitar usuario</text></g><!--link Paso1 to Paso2--><g class="link" data-entity-1="Paso1" data-entity-2="Paso2" data-source-line="38" data-uid="lnk4" id="link_Paso1_Paso2"><path d="M44,296.4969 C44,327.5869 44,375.2469 44,406.2669" fill="none" id="Paso1-to-Paso2" style="stroke:#009900;stroke-width:1;"/><polygon fill="#009900" points="44,412.2669,48,403.2669,44,407.2669,40,403.2669,44,412.2669" style="stroke:#009900;stroke-width:1;"/><path d="M49,319.2969 L49,389.2969 L377,389.2969 L377,329.2969 L367,319.2969 L49,319.2969" fill="#FFFFE0" style="stroke:#B0B060;stroke-width:0.5;"/><path d="M367,319.2969 L367,329.2969 L377,329.2969 L367,319.2969" fill="#FFFFE0" style="stroke:#B0B060;stroke-width:0.5;"/><text fill="#000000" font-family="Arial" font-size="13" font-weight="bold" lengthAdjust="spacing" textLength="58.9063" x="55" y="336.3638">Sistema</text><text fill="#000000" font-family="Arial" font-size="13" lengthAdjust="spacing" textLength="216.7534" x="118.0386" y="336.3638">presenta formulario de invitaci&#243;n</text><text fill="#000000" font-family="Arial" font-size="13" lengthAdjust="spacing" textLength="7.668" x="55" y="351.4966">&#8226;</text><text fill="#000000" font-family="Arial" font-size="13" font-weight="bold" lengthAdjust="spacing" textLength="58.9063" x="66.8003" y="351.4966">Sistema</text><text fill="#000000" font-family="Arial" font-size="13" lengthAdjust="spacing" textLength="219.4766" x="129.8389" y="351.4966">permite introducir el identificador</text><text fill="#000000" font-family="Arial" font-size="13" lengthAdjust="spacing" textLength="7.668" x="55" y="366.6294">&#8226;</text><text fill="#000000" font-family="Arial" font-size="13" font-weight="bold" lengthAdjust="spacing" textLength="58.9063" x="66.8003" y="366.6294">Sistema</text><text fill="#000000" font-family="Arial" font-size="13" lengthAdjust="spacing" textLength="218.5054" x="129.8389" y="366.6294">permite solicitar enviar invitaci&#243;n</text><text fill="#000000" font-family="Arial" font-size="13" lengthAdjust="spacing" textLength="7.668" x="55" y="381.7622">&#8226;</text><text fill="#000000" font-family="Arial" font-size="13" font-weight="bold" lengthAdjust="spacing" textLength="58.9063" x="66.8003" y="381.7622">Sistema</text><text fill="#000000" font-family="Arial" font-size="13" lengthAdjust="spacing" textLength="233.0732" x="129.8389" y="381.7622">permite solicitar cancelar invitaci&#243;n</text></g><!--link Paso2 to Paso3--><g class="link" data-entity-1="Paso2" data-entity-2="Paso3" data-source-line="47" data-uid="lnk5" id="link_Paso2_Paso3"><path d="M44,462.3769 C44,483.0269 44,506.6169 44,527.2469" fill="none" id="Paso2-to-Paso3" style="stroke:#009900;stroke-width:1;"/><polygon fill="#009900" points="44,533.2469,48,524.2469,44,528.2469,40,524.2469,44,533.2469" style="stroke:#009900;stroke-width:1;"/><path d="M49,485.2969 L49,510.2969 L449,510.2969 L449,495.2969 L439,485.2969 L49,485.2969" fill="#FFFFE0" style="stroke:#B0B060;stroke-width:0.5;"/><path d="M439,485.2969 L439,495.2969 L449,495.2969 L439,485.2969" fill="#FFFFE0" style="stroke:#B0B060;stroke-width:0.5;"/><text fill="#000000" font-family="Arial" font-size="13" font-weight="bold" lengthAdjust="spacing" textLength="104.8633" x="55" y="502.3638">Administrador</text><text fill="#000000" font-family="Arial" font-size="13" lengthAdjust="spacing" textLength="270.1372" x="163.9956" y="502.3638">introduce el identificador y solicita enviar</text></g><!--link Paso3 to *end*MainBlock--><g class="link" data-entity-1="Paso3" data-entity-2=".end.MainBlock" data-source-line="53" data-uid="lnk7" id="link_Paso3_.end.MainBlock"><path d="M44,583.3869 C44,605.7869 44,632.0669 44,648.2469" fill="none" id="Paso3-to-*end*MainBlock" style="stroke:#009900;stroke-width:1;"/><polygon fill="#009900" points="44,654.2469,48,645.2469,44,649.2469,40,645.2469,44,654.2469" style="stroke:#009900;stroke-width:1;"/><path d="M49,606.2969 L49,631.2969 L357,631.2969 L357,616.2969 L347,606.2969 L49,606.2969" fill="#FFFFE0" style="stroke:#B0B060;stroke-width:0.5;"/><path d="M347,606.2969 L347,616.2969 L357,616.2969 L347,606.2969" fill="#FFFFE0" style="stroke:#B0B060;stroke-width:0.5;"/><text fill="#000000" font-family="Arial" font-size="13" font-weight="bold" lengthAdjust="spacing" textLength="58.9063" x="55" y="623.3638">Sistema</text><text fill="#000000" font-family="Arial" font-size="13" lengthAdjust="spacing" textLength="224.2183" x="118.0386" y="623.3638">visualiza la confirmaci&#243;n del env&#237;o</text></g><g id="Fin"><rect fill="#FFFFFF" height="50" rx="12.5" ry="12.5" style="stroke:#000000;stroke-width:0.5;" width="138.7402" x="163" y="781"/><line style="stroke:#000000;stroke-width:0.5;" x1="163" x2="301.7402" y1="807.2969" y2="807.2969"/><text fill="#000000" font-family="sans-serif" font-size="14" lengthAdjust="spacing" textLength="118.7402" x="173" y="798.9951">GRUPO_ABIERTO</text></g><!--link Inicio to MainBlock--><g class="link" data-entity-1="Inicio" data-entity-2="MainBlock" data-source-line="65" data-uid="lnk8" id="link_Inicio_MainBlock"><path d="M232.5,57.15 C232.5,72.18 232.5,87.28 232.5,111.72" fill="none" id="Inicio-to-MainBlock" style="stroke:#009900;stroke-width:1;"/><polygon fill="#009900" points="232.5,117.72,236.5,108.72,232.5,112.72,228.5,108.72,232.5,117.72" style="stroke:#009900;stroke-width:1;"/></g><!--link MainBlock to Fin--><g class="link" data-entity-1="MainBlock" data-entity-2="Fin" data-source-line="68" data-uid="lnk9" id="link_MainBlock_Fin"><path d="M294.94,686.22 C296.28,696.25 297.48,706.2 298.5,716 C300.11,731.47 305.16,736.94 298.5,751 C292.92,762.77 288.0553,769.0694 277.9353,777.2094" fill="none" id="MainBlock-to-Fin" style="stroke:#009900;stroke-width:1;"/><polygon fill="#009900" points="273.26,780.97,282.78,778.446,277.1561,777.8362,277.7659,772.2123,273.26,780.97" style="stroke:#009900;stroke-width:1;"/></g><!--link MainBlock to Fin--><g class="link" data-entity-1="MainBlock" data-entity-2="Fin" data-source-line="71" data-uid="lnk10" id="link_MainBlock_Fin"><path d="M121.46,686.31 C123.67,708.79 129.91,730.65 141.5,751 C148.5,763.29 154.4657,769.8468 166.4557,777.5168" fill="none" id="MainBlock-to-Fin-1" style="stroke:#FF0000;stroke-width:1;"/><polygon fill="#FF0000" points="171.51,780.75,166.084,772.5306,167.2981,778.0556,161.773,779.2697,171.51,780.75" style="stroke:#FF0000;stroke-width:1;"/><path d="M146.5,721 L146.5,746 L289.5,746 L289.5,731 L279.5,721 L146.5,721" fill="#FFFFE0" style="stroke:#B0B060;stroke-width:0.5;"/><path d="M279.5,721 L279.5,731 L289.5,731 L279.5,721" fill="#FFFFE0" style="stroke:#B0B060;stroke-width:0.5;"/><text fill="#000000" font-family="Arial" font-size="13" lengthAdjust="spacing" textLength="122.7256" x="152.5" y="738.0669">cancelar invitaci&#243;n</text></g><!--SRC=[bLJ1JXin4BtlLup80OYKQ86g4fTAcsYfScY8ij1MGgXoROSOTZsHxGNQgbAl_OtUU-edy2VzaexjJR90MeeFsMZiD_FUcx6tOOXwfYvgmxYw-wNXMjcQbS1HMsMTr4xw_r2YXGg5z5z6GQFGI9lOAwKNpB2ADZNokS5AmeoLLhQsx9m9l6d23XVW43wYSrY1K4Pofr0dxVEEKTKl2T0QC7vrOR3MOeWb6dWtLqx67JH2cXWTb7GiH3DZy2O6EsbwU9Yc8LmuPjp3i_aoQGnzRNFG-5SAdIDQUVg8H6UG3jANCNw4seqPUP4PnKgVUXjoqYKGb5QSOY1loKMDILIxzNfwEZd-a0r6-VJaU0kOXP4_Y2qansfHIqlkBOpIN2qeSuDM-bgHn5Fg7NLcPpSaUCEK7fJ8hneXuMSR9hLsr4KXgP6yP9UIA0KgDXneCa98CM4MzpQ7zpU73vAcp5uV2Yn9Wgj529rrpw7NUzNA6KpsmwLqx8XVtMucAZB9EaEYJRSBDgPXqAY4EieC4Ab5oBCikz-72Kqc3Mupq9zW8asbR91SGk6dkcBXT62ouhJ_BquDZDWickmmGrFLfIVYlOpSGiaLxFUt7_UXdeWBVXiKDLS6Y94Ib4xD5FTodyGkpI0eLQJFSmglmPnwByiDy8T-7lGXuz59Rr_6NKCoMBOox-0v3Ltgbu_aKxTMtOxwDf9wqOSZfLcfFhUO1ng144tQ__KoFdQK1KhcdxcPCXLRYoK6TpyVZ5dxAiyyXwSlCb7re5wl1oVJR5oCXgFZSLv0_luaduwpmk-4hDexn99uyOEIrHNs-mLH5SmFszttMqNFmCvRIS_FRhA-w1xJb5kV7iPUHrqxKxp4Uv2pZf7YtAYBkMlGZtpRE2rBI_u0]--></g></svg>