<svg xmlns="http://www.w3.org/2000/svg" xmlns:xlink="http://www.w3.org/1999/xlink" contentStyleType="text/css" data-diagram-type="STATE" height="595px" preserveAspectRatio="none" style="width:431px;height:595px;background:#FFFFFF;" version="1.1" viewBox="0 0 431 595" width="431px" zoomAndPan="magnify"><defs/><g><rect fill="#FFFFFF" height="40" rx="12.5" ry="12.5" style="stroke:#000000;stroke-width:0.5;" width="159.0508" x="132.97" y="7"/><text fill="#000000" font-family="sans-serif" font-size="14" lengthAdjust="spacing" textLength="149.0508" x="137.97" y="31.8467">CONFLICTO_ABIERTO</text><path d="M19.5,107 L405.5,107 A12.5,12.5 0 0 1 418,119.5 L418,133.2969 L7,133.2969 L7,119.5 A12.5,12.5 0 0 1 19.5,107" fill="#FFFFFF"/><rect fill="none" height="382.2969" rx="12.5" ry="12.5" style="stroke:#000000;stroke-width:0.5;" width="411" x="7" y="107"/><line style="stroke:#000000;stroke-width:0.5;" x1="7" x2="418" y1="133.2969" y2="133.2969"/><text fill="#000000" font-family="sans-serif" font-size="14" lengthAdjust="spacing" textLength="122.9033" x="151.0483" y="124.9951">ignorarConflicto()</text><rect fill="#FFFFFF" height="40" rx="12.5" ry="12.5" style="stroke:#000000;stroke-width:0.5;" width="50" x="19" y="235.2969"/><text fill="#000000" font-family="sans-serif" font-size="14" lengthAdjust="spacing" textLength="4.4502" x="41.7749" y="260.1436">&#160;</text><rect fill="#FFFFFF" height="40" rx="12.5" ry="12.5" style="stroke:#000000;stroke-width:0.5;" width="50" x="19" y="346.2969"/><text fill="#000000" font-family="sans-serif" font-size="14" lengthAdjust="spacing" textLength="4.4502" x="41.7749" y="371.1436">&#160;</text><ellipse cx="44" cy="154.2969" fill="#222222" rx="10" ry="10" style="stroke:#222222;stroke-width:1;"/><ellipse cx="44" cy="468.2969" fill="none" rx="11" ry="11" style="stroke:#222222;stroke-width:1;"/><ellipse cx="44" cy="468.2969" fill="#222222" rx="6" ry="6" style="stroke:#222222;stroke-width:1;"/><!--link *start*MainBlock to Paso1--><g class="link" data-entity-1=".start.MainBlock" data-entity-2="Paso1" data-link-type="dependency" data-source-line="21" data-uid="lnk3" id="link_.start.MainBlock_Paso1"><path d="M44,164.7869 C44,180.8569 44,207.7269 44,228.8469" fill="none" id="*start*MainBlock-to-Paso1" style="stroke:#008000;stroke-width:1;"/><polygon fill="#008000" points="44,234.8469,48,225.8469,44,229.8469,40,225.8469,44,234.8469" style="stroke:#008000;stroke-width:1;"/><path d="M49,187.2969 L49,212.2969 L309,212.2969 L309,197.2969 L299,187.2969 L49,187.2969" fill="#FFFFE0" style="stroke:#808080;stroke-width:0.5;"/><path d="M299,187.2969 L299,197.2969 L309,197.2969 L299,187.2969" fill="#FFFFE0" style="stroke:#808080;stroke-width:0.5;"/><text fill="#000000" font-family="sans-serif" font-size="13" font-weight="bold" lengthAdjust="spacing" textLength="113.3755" x="55" y="204.3638">Usuario solicita</text><text fill="#000000" font-family="sans-serif" font-size="13" lengthAdjust="spacing" textLength="121.9258" x="172.5078" y="204.3638">ignorar el conflicto</text></g><!--link Paso1 to Paso2--><g class="link" data-entity-1="Paso1" data-entity-2="Paso2" data-link-type="dependency" data-source-line="27" data-uid="lnk4" id="link_Paso1_Paso2"><path d="M44,275.7869 C44,295.6269 44,320.1969 44,339.9769" fill="none" id="Paso1-to-Paso2" style="stroke:#008000;stroke-width:1;"/><polygon fill="#008000" points="44,345.9769,48,336.9769,44,340.9769,40,336.9769,44,345.9769" style="stroke:#008000;stroke-width:1;"/><path d="M49,298.2969 L49,323.2969 L409,323.2969 L409,308.2969 L399,298.2969 L49,298.2969" fill="#FFFFE0" style="stroke:#808080;stroke-width:0.5;"/><path d="M399,298.2969 L399,308.2969 L409,308.2969 L399,298.2969" fill="#FFFFE0" style="stroke:#808080;stroke-width:0.5;"/><text fill="#000000" font-family="sans-serif" font-size="13" font-weight="bold" lengthAdjust="spacing" textLength="184.666" x="55" y="315.3638">Sistema permite solicitar</text><text fill="#000000" font-family="sans-serif" font-size="13" lengthAdjust="spacing" textLength="150.5283" x="243.7983" y="315.3638">el descarte de la alerta</text></g><!--link Paso2 to *end*MainBlock--><g class="link" data-entity-1="Paso2" data-entity-2=".end.MainBlock" data-link-type="dependency" data-source-line="34" data-uid="lnk6" id="link_Paso2_.end.MainBlock"><path d="M44,386.5769 C44,407.5769 44,434.3769 44,450.9569" fill="none" id="Paso2-to-*end*MainBlock" style="stroke:#008000;stroke-width:1;"/><polygon fill="#008000" points="44,456.9569,48,447.9569,44,451.9569,40,447.9569,44,456.9569" style="stroke:#008000;stroke-width:1;"/><path d="M49,409.2969 L49,434.2969 L391,434.2969 L391,419.2969 L381,409.2969 L49,409.2969" fill="#FFFFE0" style="stroke:#808080;stroke-width:0.5;"/><path d="M381,409.2969 L381,419.2969 L391,419.2969 L381,409.2969" fill="#FFFFE0" style="stroke:#808080;stroke-width:0.5;"/><text fill="#000000" font-family="sans-serif" font-size="13" font-weight="bold" lengthAdjust="spacing" textLength="124.1855" x="55" y="426.3638">Sistema muestra</text><text fill="#000000" font-family="sans-serif" font-size="13" lengthAdjust="spacing" textLength="193.2734" x="183.3179" y="426.3638">la pantalla de automatizaci&#243;n</text></g><rect fill="#FFFFFF" height="40" rx="12.5" ry="12.5" style="stroke:#000000;stroke-width:0.5;" width="196.4844" x="114.26" y="549.3"/><text fill="#000000" font-family="sans-serif" font-size="14" lengthAdjust="spacing" textLength="186.4844" x="119.26" y="574.1467">AUTOMATIZACION_ACTIVA</text><!--link CONFLICTO_ABIERTO to MainBlock--><g class="link" data-entity-1="CONFLICTO_ABIERTO" data-entity-2="MainBlock" data-link-type="dependency" data-source-line="45" data-uid="lnk7" id="link_CONFLICTO_ABIERTO_MainBlock"><path d="M212.5,47.36 C212.5,61.64 212.5,76.7 212.5,100.62" fill="none" id="CONFLICTO_ABIERTO-to-MainBlock" style="stroke:#008000;stroke-width:1;"/><polygon fill="#008000" points="212.5,106.62,216.5,97.62,212.5,101.62,208.5,97.62,212.5,106.62" style="stroke:#008000;stroke-width:1;"/></g><!--link MainBlock to AUTOMATIZACION_ACTIVA--><g class="link" data-entity-1="MainBlock" data-entity-2="AUTOMATIZACION_ACTIVA" data-link-type="dependency" data-source-line="46" data-uid="lnk8" id="link_MainBlock_AUTOMATIZACION_ACTIVA"><path d="M212.5,489.73 C212.5,513.72 212.5,528.82 212.5,543.1" fill="none" id="MainBlock-to-AUTOMATIZACION_ACTIVA" style="stroke:#008000;stroke-width:1;"/><polygon fill="#008000" points="212.5,549.1,216.5,540.1,212.5,544.1,208.5,540.1,212.5,549.1" style="stroke:#008000;stroke-width:1;"/></g><!--SRC=[dPFFRjf04CRlVegHBqcGK5MEFLGob4QM88x0f6ghAfhO4nYnthLsrn1QzP5ooYFmOXriSAW2XzO7_vdT_URxZMSMd1DGKVeDvEGoowLdeuF0BLcNQB40vz4J_0f0hZvcoxarbSu7HXaBNnRigLanDYVRHFjAjjNHo5gpReBNbaW7lu-4jJchE-BvmdybfSpwZVgrnOte18slGNBpUHGFqkG-wiV3IPeS5aAUQsDH3kb7nPatbrSXe8CnikuhaottgUlR1NoYHzPS60VqLAhjSyOU2z8Yf7OnqSpbkS9i-opF7G3GIlPO866qv6gTVMgeCzsYC-zFXtklgRztVa2t-_5eTrqNeq6nRghOEBmZ-s30uuF23p1KWC9aOPe8VPn6xSPEP-Ogj6p06U4MYvqEx6i1f20xrAC-GJglymNrL-sXTTFx5pUEdQS2uNOu6SVfiFKrEJfpEQsSPrzj2132WxtQ4Ti2Czw-w10CX1bBKH5MeedXrH7QT9-b95j8vxM8LXY5RTV1Q2KkFQqGK97rU8QpLtDAzV-7SZmRJjD91E_WBfxEeb7yBJhBkJU5m3gJOPCRrf05Qi-a2HQxNyF6dIGjAkazk_k70bJA4LJo8dnOULEWvvzDtVwcRCSZcgN9E4h5to1ERkwZGHhVHK5m0J8Mz2IJBetxPeIWcvkrbkgqinAyJirXxQJo7m00]--></g></svg>