<svg xmlns="http://www.w3.org/2000/svg" xmlns:xlink="http://www.w3.org/1999/xlink" contentStyleType="text/css" data-diagram-type="CLASS" height="492px" preserveAspectRatio="none" style="width:797px;height:492px;background:#FFFFFF;" version="1.1" viewBox="0 0 797 492" width="797px" zoomAndPan="magnify"><defs/><g><!--cluster Nivel 1--><g class="cluster" data-entity="Nivel 1" data-source-line="7" data-uid="ent0002" id="cluster_Nivel 1"><path d="M352.5,270 L408.0508,270 A3.75,3.75 0 0 1 410.5508,272.5 L417.5508,292.2969 L572.5,292.2969 A2.5,2.5 0 0 1 575,294.7969 L575,350.5 A2.5,2.5 0 0 1 572.5,353 L352.5,353 A2.5,2.5 0 0 1 350,350.5 L350,272.5 A2.5,2.5 0 0 1 352.5,270" fill="none" style="stroke:#000000;stroke-width:1.5;"/><line style="stroke:#000000;stroke-width:1.5;" x1="350" x2="417.5508" y1="292.2969" y2="292.2969"/><text fill="#000000" font-family="sans-serif" font-size="14" font-weight="bold" lengthAdjust="spacing" textLength="54.5508" x="354" y="284.9951">Nivel 1</text></g><!--cluster Nivel 2--><g class="cluster" data-entity="Nivel 2" data-source-line="12" data-uid="ent0004" id="cluster_Nivel 2"><path d="M509.5,6 L565.0508,6 A3.75,3.75 0 0 1 567.5508,8.5 L574.5508,28.2969 L757.5,28.2969 A2.5,2.5 0 0 1 760,30.7969 L760,86.5 A2.5,2.5 0 0 1 757.5,89 L509.5,89 A2.5,2.5 0 0 1 507,86.5 L507,8.5 A2.5,2.5 0 0 1 509.5,6" fill="none" style="stroke:#000000;stroke-width:1.5;"/><line style="stroke:#000000;stroke-width:1.5;" x1="507" x2="574.5508" y1="28.2969" y2="28.2969"/><text fill="#000000" font-family="sans-serif" font-size="14" font-weight="bold" lengthAdjust="spacing" textLength="54.5508" x="511" y="20.9951">Nivel 2</text></g><!--cluster Nivel 3--><g class="cluster" data-entity="Nivel 3" data-source-line="18" data-uid="ent0007" id="cluster_Nivel 3"><path d="M515.5,138 L571.0508,138 A3.75,3.75 0 0 1 573.5508,140.5 L580.5508,160.2969 L616.5,160.2969 A2.5,2.5 0 0 1 619,162.7969 L619,218.5 A2.5,2.5 0 0 1 616.5,221 L515.5,221 A2.5,2.5 0 0 1 513,218.5 L513,140.5 A2.5,2.5 0 0 1 515.5,138" fill="none" style="stroke:#000000;stroke-width:1.5;"/><line style="stroke:#000000;stroke-width:1.5;" x1="513" x2="580.5508" y1="160.2969" y2="160.2969"/><text fill="#000000" font-family="sans-serif" font-size="14" font-weight="bold" lengthAdjust="spacing" textLength="54.5508" x="517" y="152.9951">Nivel 3</text></g><!--cluster Nivel 4--><g class="cluster" data-entity="Nivel 4" data-source-line="23" data-uid="ent0009" id="cluster_Nivel 4"><path d="M8.5,402 L64.0508,402 A3.75,3.75 0 0 1 66.5508,404.5 L73.5508,424.2969 L784.5,424.2969 A2.5,2.5 0 0 1 787,426.7969 L787,482.5 A2.5,2.5 0 0 1 784.5,485 L8.5,485 A2.5,2.5 0 0 1 6,482.5 L6,404.5 A2.5,2.5 0 0 1 8.5,402" fill="none" style="stroke:#000000;stroke-width:1.5;"/><line style="stroke:#000000;stroke-width:1.5;" x1="6" x2="73.5508" y1="424.2969" y2="424.2969"/><text fill="#000000" font-family="sans-serif" font-size="14" font-weight="bold" lengthAdjust="spacing" textLength="54.5508" x="10" y="416.9951">Nivel 4</text></g><!--class Tarea--><g class="entity" data-entity="Tarea" data-source-line="8" data-uid="ent0003" id="entity_Tarea"><rect fill="#F1F1F1" height="32" rx="2.5" ry="2.5" style="stroke:#181818;stroke-width:0.5;" width="72.0791" x="365.96" y="305"/><ellipse cx="380.96" cy="321" fill="#ADD1B2" rx="11" ry="11" style="stroke:#181818;stroke-width:1;"/><path d="M383.9288,326.6406 Q383.3506,326.9375 382.71,327.0781 Q382.0694,327.2344 381.3663,327.2344 Q378.8663,327.2344 377.5381,325.5938 Q376.2256,323.9375 376.2256,320.8125 Q376.2256,317.6875 377.5381,316.0313 Q378.8663,314.375 381.3663,314.375 Q382.0694,314.375 382.71,314.5313 Q383.3663,314.6875 383.9288,314.9844 L383.9288,317.7031 Q383.3038,317.125 382.71,316.8594 Q382.1163,316.5781 381.4913,316.5781 Q380.1475,316.5781 379.46,317.6563 Q378.7725,318.7188 378.7725,320.8125 Q378.7725,322.9063 379.46,323.9844 Q380.1475,325.0469 381.4913,325.0469 Q382.1163,325.0469 382.71,324.7813 Q383.3038,324.5 383.9288,323.9219 L383.9288,326.6406 Z " fill="#000000"/><text fill="#000000" font-family="sans-serif" font-size="14" lengthAdjust="spacing" textLength="40.0791" x="394.96" y="325.8467">Tarea</text></g><!--class Usuario--><g class="entity" data-entity="Usuario" data-source-line="13" data-uid="ent0005" id="entity_Usuario"><rect fill="#F1F1F1" height="32" rx="2.5" ry="2.5" style="stroke:#181818;stroke-width:0.5;" width="85.2041" x="523.4" y="41"/><ellipse cx="538.4" cy="57" fill="#ADD1B2" rx="11" ry="11" style="stroke:#181818;stroke-width:1;"/><path d="M541.3688,62.6406 Q540.7906,62.9375 540.15,63.0781 Q539.5094,63.2344 538.8063,63.2344 Q536.3063,63.2344 534.9781,61.5938 Q533.6656,59.9375 533.6656,56.8125 Q533.6656,53.6875 534.9781,52.0313 Q536.3063,50.375 538.8063,50.375 Q539.5094,50.375 540.15,50.5313 Q540.8063,50.6875 541.3688,50.9844 L541.3688,53.7031 Q540.7438,53.125 540.15,52.8594 Q539.5563,52.5781 538.9313,52.5781 Q537.5875,52.5781 536.9,53.6563 Q536.2125,54.7188 536.2125,56.8125 Q536.2125,58.9063 536.9,59.9844 Q537.5875,61.0469 538.9313,61.0469 Q539.5563,61.0469 540.15,60.7813 Q540.7438,60.5 541.3688,59.9219 L541.3688,62.6406 Z " fill="#000000"/><text fill="#000000" font-family="sans-serif" font-size="14" lengthAdjust="spacing" textLength="53.2041" x="552.4" y="61.8467">Usuario</text></g><!--class Rol--><g class="entity" data-entity="Rol" data-source-line="14" data-uid="ent0006" id="entity_Rol"><rect fill="#F1F1F1" height="32" rx="2.5" ry="2.5" style="stroke:#181818;stroke-width:0.5;" width="54.1826" x="689.91" y="41"/><ellipse cx="704.91" cy="57" fill="#ADD1B2" rx="11" ry="11" style="stroke:#181818;stroke-width:1;"/><path d="M707.8788,62.6406 Q707.3006,62.9375 706.66,63.0781 Q706.0194,63.2344 705.3163,63.2344 Q702.8163,63.2344 701.4881,61.5938 Q700.1756,59.9375 700.1756,56.8125 Q700.1756,53.6875 701.4881,52.0313 Q702.8163,50.375 705.3163,50.375 Q706.0194,50.375 706.66,50.5313 Q707.3163,50.6875 707.8788,50.9844 L707.8788,53.7031 Q707.2538,53.125 706.66,52.8594 Q706.0663,52.5781 705.4413,52.5781 Q704.0975,52.5781 703.41,53.6563 Q702.7225,54.7188 702.7225,56.8125 Q702.7225,58.9063 703.41,59.9844 Q704.0975,61.0469 705.4413,61.0469 Q706.0663,61.0469 706.66,60.7813 Q707.2538,60.5 707.8788,59.9219 L707.8788,62.6406 Z " fill="#000000"/><text fill="#000000" font-family="sans-serif" font-size="14" lengthAdjust="spacing" textLength="22.1826" x="718.91" y="61.8467">Rol</text></g><!--class Grupo--><g class="entity" data-entity="Grupo" data-source-line="19" data-uid="ent0008" id="entity_Grupo"><rect fill="#F1F1F1" height="32" rx="2.5" ry="2.5" style="stroke:#181818;stroke-width:0.5;" width="74.9297" x="528.54" y="173"/><ellipse cx="543.54" cy="189" fill="#ADD1B2" rx="11" ry="11" style="stroke:#181818;stroke-width:1;"/><path d="M546.5088,194.6406 Q545.9306,194.9375 545.29,195.0781 Q544.6494,195.2344 543.9463,195.2344 Q541.4463,195.2344 540.1181,193.5938 Q538.8056,191.9375 538.8056,188.8125 Q538.8056,185.6875 540.1181,184.0313 Q541.4463,182.375 543.9463,182.375 Q544.6494,182.375 545.29,182.5313 Q545.9463,182.6875 546.5088,182.9844 L546.5088,185.7031 Q545.8838,185.125 545.29,184.8594 Q544.6963,184.5781 544.0713,184.5781 Q542.7275,184.5781 542.04,185.6563 Q541.3525,186.7188 541.3525,188.8125 Q541.3525,190.9063 542.04,191.9844 Q542.7275,193.0469 544.0713,193.0469 Q544.6963,193.0469 545.29,192.7813 Q545.8838,192.5 546.5088,191.9219 L546.5088,194.6406 Z " fill="#000000"/><text fill="#000000" font-family="sans-serif" font-size="14" lengthAdjust="spacing" textLength="42.9297" x="557.54" y="193.8467">Grupo</text></g><!--class ConflictoHorario--><g class="entity" data-entity="ConflictoHorario" data-source-line="24" data-uid="ent0010" id="entity_ConflictoHorario"><rect fill="#F1F1F1" height="32" rx="2.5" ry="2.5" style="stroke:#181818;stroke-width:0.5;" width="145.3125" x="625.34" y="437"/><ellipse cx="640.34" cy="453" fill="#ADD1B2" rx="11" ry="11" style="stroke:#181818;stroke-width:1;"/><path d="M643.3088,458.6406 Q642.7306,458.9375 642.09,459.0781 Q641.4494,459.2344 640.7463,459.2344 Q638.2463,459.2344 636.9181,457.5938 Q635.6056,455.9375 635.6056,452.8125 Q635.6056,449.6875 636.9181,448.0313 Q638.2463,446.375 640.7463,446.375 Q641.4494,446.375 642.09,446.5313 Q642.7463,446.6875 643.3088,446.9844 L643.3088,449.7031 Q642.6838,449.125 642.09,448.8594 Q641.4963,448.5781 640.8713,448.5781 Q639.5275,448.5781 638.84,449.6563 Q638.1525,450.7188 638.1525,452.8125 Q638.1525,454.9063 638.84,455.9844 Q639.5275,457.0469 640.8713,457.0469 Q641.4963,457.0469 642.09,456.7813 Q642.6838,456.5 643.3088,455.9219 L643.3088,458.6406 Z " fill="#000000"/><text fill="#000000" font-family="sans-serif" font-size="14" lengthAdjust="spacing" textLength="113.3125" x="654.34" y="457.8467">ConflictoHorario</text></g><!--class Localizacion--><g class="entity" data-entity="Localizacion" data-source-line="25" data-uid="ent0011" id="entity_Localizacion"><rect fill="#F1F1F1" height="32" rx="2.5" ry="2.5" style="stroke:#181818;stroke-width:0.5;" width="117.374" x="22.31" y="437"/><ellipse cx="37.31" cy="453" fill="#ADD1B2" rx="11" ry="11" style="stroke:#181818;stroke-width:1;"/><path d="M40.2788,458.6406 Q39.7006,458.9375 39.06,459.0781 Q38.4194,459.2344 37.7163,459.2344 Q35.2163,459.2344 33.8881,457.5938 Q32.5756,455.9375 32.5756,452.8125 Q32.5756,449.6875 33.8881,448.0313 Q35.2163,446.375 37.7163,446.375 Q38.4194,446.375 39.06,446.5313 Q39.7163,446.6875 40.2788,446.9844 L40.2788,449.7031 Q39.6538,449.125 39.06,448.8594 Q38.4663,448.5781 37.8413,448.5781 Q36.4975,448.5781 35.81,449.6563 Q35.1225,450.7188 35.1225,452.8125 Q35.1225,454.9063 35.81,455.9844 Q36.4975,457.0469 37.8413,457.0469 Q38.4663,457.0469 39.06,456.7813 Q39.6538,456.5 40.2788,455.9219 L40.2788,458.6406 Z " fill="#000000"/><text fill="#000000" font-family="sans-serif" font-size="14" lengthAdjust="spacing" textLength="85.374" x="51.31" y="457.8467">Localizacion</text></g><!--class Horario--><g class="entity" data-entity="Horario" data-source-line="26" data-uid="ent0012" id="entity_Horario"><rect fill="#F1F1F1" height="32" rx="2.5" ry="2.5" style="stroke:#181818;stroke-width:0.5;" width="83.6387" x="175.18" y="437"/><ellipse cx="190.18" cy="453" fill="#ADD1B2" rx="11" ry="11" style="stroke:#181818;stroke-width:1;"/><path d="M193.1488,458.6406 Q192.5706,458.9375 191.93,459.0781 Q191.2894,459.2344 190.5863,459.2344 Q188.0863,459.2344 186.7581,457.5938 Q185.4456,455.9375 185.4456,452.8125 Q185.4456,449.6875 186.7581,448.0313 Q188.0863,446.375 190.5863,446.375 Q191.2894,446.375 191.93,446.5313 Q192.5863,446.6875 193.1488,446.9844 L193.1488,449.7031 Q192.5238,449.125 191.93,448.8594 Q191.3363,448.5781 190.7113,448.5781 Q189.3675,448.5781 188.68,449.6563 Q187.9925,450.7188 187.9925,452.8125 Q187.9925,454.9063 188.68,455.9844 Q189.3675,457.0469 190.7113,457.0469 Q191.3363,457.0469 191.93,456.7813 Q192.5238,456.5 193.1488,455.9219 L193.1488,458.6406 Z " fill="#000000"/><text fill="#000000" font-family="sans-serif" font-size="14" lengthAdjust="spacing" textLength="51.6387" x="204.18" y="457.8467">Horario</text></g><!--class Recordatorio--><g class="entity" data-entity="Recordatorio" data-source-line="27" data-uid="ent0013" id="entity_Recordatorio"><rect fill="#F1F1F1" height="32" rx="2.5" ry="2.5" style="stroke:#181818;stroke-width:0.5;" width="122.0908" x="293.95" y="437"/><ellipse cx="308.95" cy="453" fill="#ADD1B2" rx="11" ry="11" style="stroke:#181818;stroke-width:1;"/><path d="M311.9188,458.6406 Q311.3406,458.9375 310.7,459.0781 Q310.0594,459.2344 309.3563,459.2344 Q306.8563,459.2344 305.5281,457.5938 Q304.2156,455.9375 304.2156,452.8125 Q304.2156,449.6875 305.5281,448.0313 Q306.8563,446.375 309.3563,446.375 Q310.0594,446.375 310.7,446.5313 Q311.3563,446.6875 311.9188,446.9844 L311.9188,449.7031 Q311.2938,449.125 310.7,448.8594 Q310.1063,448.5781 309.4813,448.5781 Q308.1375,448.5781 307.45,449.6563 Q306.7625,450.7188 306.7625,452.8125 Q306.7625,454.9063 307.45,455.9844 Q308.1375,457.0469 309.4813,457.0469 Q310.1063,457.0469 310.7,456.7813 Q311.2938,456.5 311.9188,455.9219 L311.9188,458.6406 Z " fill="#000000"/><text fill="#000000" font-family="sans-serif" font-size="14" lengthAdjust="spacing" textLength="90.0908" x="322.95" y="457.8467">Recordatorio</text></g><!--class RelacionTareas--><g class="entity" data-entity="RelacionTareas" data-source-line="28" data-uid="ent0014" id="entity_RelacionTareas"><rect fill="#F1F1F1" height="32" rx="2.5" ry="2.5" style="stroke:#181818;stroke-width:0.5;" width="139.208" x="451.4" y="437"/><ellipse cx="466.4" cy="453" fill="#ADD1B2" rx="11" ry="11" style="stroke:#181818;stroke-width:1;"/><path d="M469.3688,458.6406 Q468.7906,458.9375 468.15,459.0781 Q467.5094,459.2344 466.8063,459.2344 Q464.3063,459.2344 462.9781,457.5938 Q461.6656,455.9375 461.6656,452.8125 Q461.6656,449.6875 462.9781,448.0313 Q464.3063,446.375 466.8063,446.375 Q467.5094,446.375 468.15,446.5313 Q468.8063,446.6875 469.3688,446.9844 L469.3688,449.7031 Q468.7438,449.125 468.15,448.8594 Q467.5563,448.5781 466.9313,448.5781 Q465.5875,448.5781 464.9,449.6563 Q464.2125,450.7188 464.2125,452.8125 Q464.2125,454.9063 464.9,455.9844 Q465.5875,457.0469 466.9313,457.0469 Q467.5563,457.0469 468.15,456.7813 Q468.7438,456.5 469.3688,455.9219 L469.3688,458.6406 Z " fill="#000000"/><text fill="#000000" font-family="sans-serif" font-size="14" lengthAdjust="spacing" textLength="107.208" x="480.4" y="457.8467">RelacionTareas</text></g><!--reverse link Grupo to Tarea--><g class="link" data-entity-1="Grupo" data-entity-2="Tarea" data-link-type="composition" data-source-line="32" data-uid="lnk15" id="link_Grupo_Tarea"><path codeLine="32" d="M537.1365,212.8748 C505.5765,237.8948 452.98,279.59 421.43,304.6" fill="none" id="Grupo-backto-Tarea" style="stroke:#181818;stroke-width:1;"/><polygon fill="#181818" points="546.54,205.42,539.3533,206.0129,537.1365,212.8748,544.3232,212.2819,546.54,205.42" style="stroke:#181818;stroke-width:1;"/><polygon fill="#000000" points="511.9182,242.4603,503.0044,245.7762,506.6558,250.3823,511.9182,242.4603" style="stroke:#000000;stroke-width:1;"/><text fill="#000000" font-family="sans-serif" font-size="13" lengthAdjust="spacing" textLength="91.0127" x="517" y="250.0669">es gestionada</text></g><!--reverse link Usuario to Tarea--><g class="link" data-entity-1="Usuario" data-entity-2="Tarea" data-link-type="aggregation" data-source-line="33" data-uid="lnk16" id="link_Usuario_Tarea"><path codeLine="33" d="M511.4519,70.692 C477.8919,80.392 444.65,95.78 421,130 C383.3,184.54 392.91,269.83 398.92,304.53" fill="none" id="Usuario-backto-Tarea" style="stroke:#181818;stroke-width:1;"/><polygon fill="none" points="522.98,67.36,516.1053,65.1833,511.4519,70.692,518.3266,72.8687,522.98,67.36" style="stroke:#181818;stroke-width:1;"/><polygon fill="#000000" points="423.8318,193.5718,430.4023,186.6959,425.1059,184.147,423.8318,193.5718" style="stroke:#000000;stroke-width:1;"/><text fill="#000000" font-family="sans-serif" font-size="13" lengthAdjust="spacing" textLength="77.6191" x="435" y="193.5669">participa en</text></g><!--reverse link Usuario to Grupo--><g class="link" data-entity-1="Usuario" data-entity-2="Grupo" data-link-type="aggregation" data-source-line="34" data-uid="lnk17" id="link_Usuario_Grupo"><path codeLine="34" d="M566,85.42 C566,110.44 566,147.59 566,172.6" fill="none" id="Usuario-backto-Grupo" style="stroke:#181818;stroke-width:1;"/><polygon fill="none" points="566,73.42,562,79.42,566,85.42,570,79.42,566,73.42" style="stroke:#181818;stroke-width:1;"/><polygon fill="#000000" points="571,118.5664,573.9389,109.5213,568.0611,109.5213,571,118.5664" style="stroke:#000000;stroke-width:1;"/><text fill="#000000" font-family="sans-serif" font-size="13" lengthAdjust="spacing" textLength="78.1714" x="580" y="118.0669">pertenece a</text></g><!--reverse link Tarea to Tarea--><g class="link" data-entity-1="Tarea" data-entity-2="Tarea" data-link-type="composition" data-source-line="35" data-uid="lnk18" id="link_Tarea_Tarea"><path codeLine="35" d="M450.1502,309.7734 C468.5202,308.2734 473.04,312.67 473.04,321 C473.04,329.33 456.56,332.75 438.19,331.25" fill="none" id="Tarea-backto-Tarea" style="stroke:#181818;stroke-width:1;"/><polygon fill="#181818" points="438.19,310.75,444.4956,314.2484,450.1502,309.7734,443.8446,306.275,438.19,310.75" style="stroke:#181818;stroke-width:1;"/><polygon fill="#000000" points="477.6331,326.0498,481.2984,317.2739,475.44,316.7956,477.6331,326.0498" style="stroke:#000000;stroke-width:1;"/><text fill="#000000" font-family="sans-serif" font-size="13" lengthAdjust="spacing" textLength="78.019" x="492.04" y="325.5669">subtarea de</text></g><!--link Usuario to Rol--><g class="link" data-entity-1="Usuario" data-entity-2="Rol" data-link-type="dependency" data-source-line="38" data-uid="lnk19" id="link_Usuario_Rol"><path codeLine="38" d="M608.87,57 C634.85,57 661.22,57 683.74,57" fill="none" id="Usuario-to-Rol" style="stroke:#181818;stroke-width:1;"/><polygon fill="#181818" points="689.74,57,680.74,53,684.74,57,680.74,61,689.74,57" style="stroke:#181818;stroke-width:1;"/><polygon fill="#000000" points="635.76,45.5664,626.7149,42.6275,626.7149,48.5053,635.76,45.5664" style="stroke:#000000;stroke-width:1;"/><text fill="#000000" font-family="sans-serif" font-size="13" lengthAdjust="spacing" textLength="32.9443" x="639.76" y="50.0669">tiene</text></g><!--reverse link Tarea to ConflictoHorario--><g class="link" data-entity-1="Tarea" data-entity-2="ConflictoHorario" data-link-type="dependency" data-source-line="41" data-uid="lnk20" id="link_Tarea_ConflictoHorario"><path codeLine="41" d="M444.2669,323.6767 C489.5369,326.6767 562.02,336.24 620,369 C649.78,385.83 674.93,417.82 688.11,436.79" fill="none" id="Tarea-backto-ConflictoHorario" style="stroke:#181818;stroke-width:1;"/><polygon fill="#181818" points="438.28,323.28,446.9958,327.8664,443.2691,323.6106,447.5248,319.8839,438.28,323.28" style="stroke:#181818;stroke-width:1;"/><polygon fill="#000000" points="642.4642,375.4624,649.4328,381.9347,651.9062,376.6026,642.4642,375.4624" style="stroke:#000000;stroke-width:1;"/><text fill="#000000" font-family="sans-serif" font-size="13" lengthAdjust="spacing" textLength="52.8506" x="656" y="382.0669">afecta a</text></g><!--reverse link Usuario to ConflictoHorario--><g class="link" data-entity-1="Usuario" data-entity-2="ConflictoHorario" data-link-type="dependency" data-source-line="42" data-uid="lnk21" id="link_Usuario_ConflictoHorario"><path codeLine="42" d="M614.5881,70.0387 C635.1481,77.0587 652.69,86.61 667,105 C740.33,199.25 705.84,250.1 717,369 C719.25,392.99 710.93,420.08 704.59,436.6" fill="none" id="Usuario-backto-ConflictoHorario" style="stroke:#181818;stroke-width:1;"/><polygon fill="#181818" points="608.91,68.1,616.1347,74.7935,613.6418,69.7156,618.7197,67.2227,608.91,68.1" style="stroke:#181818;stroke-width:1;"/><polygon fill="#000000" points="718.8078,240.7106,718.1104,250.1956,723.8187,248.794,718.8078,240.7106" style="stroke:#000000;stroke-width:1;"/><text fill="#000000" font-family="sans-serif" font-size="13" lengthAdjust="spacing" textLength="60.3027" x="729" y="250.0669">notifica a</text></g><!--link Tarea to Localizacion--><g class="link" data-entity-1="Tarea" data-entity-2="Localizacion" data-link-type="dependency" data-source-line="43" data-uid="lnk22" id="link_Tarea_Localizacion"><path codeLine="43" d="M365.53,324.1 C298.92,328.58 160.97,341.04 123,369 C100.5,385.56 90.7353,411.8419 85.7953,430.9019" fill="none" id="Tarea-to-Localizacion" style="stroke:#181818;stroke-width:1;"/><polygon fill="#181818" points="84.29,436.71,90.4201,429.0014,85.5445,431.8699,82.676,426.9943,84.29,436.71" style="stroke:#181818;stroke-width:1;"/><polygon fill="#000000" points="123.3289,379.3498,132.8273,378.8692,130.7307,373.378,123.3289,379.3498" style="stroke:#000000;stroke-width:1;"/><text fill="#000000" font-family="sans-serif" font-size="13" lengthAdjust="spacing" textLength="82.5957" x="137" y="382.0669">se realiza en</text></g><!--link Tarea to Horario--><g class="link" data-entity-1="Tarea" data-entity-2="Horario" data-link-type="dependency" data-source-line="44" data-uid="lnk23" id="link_Tarea_Horario"><path codeLine="44" d="M365.66,322.73 C329.01,325.46 273.24,335.36 240,369 C222.03,387.19 218.0653,412.1159 217.2453,430.6459" fill="none" id="Tarea-to-Horario" style="stroke:#181818;stroke-width:1;"/><polygon fill="#181818" points="216.98,436.64,221.374,427.8256,217.201,431.6449,213.3818,427.472,216.98,436.64" style="stroke:#181818;stroke-width:1;"/><polygon fill="#000000" points="240.956,380.5069,250,377.5645,246.5433,372.8105,240.956,380.5069" style="stroke:#000000;stroke-width:1;"/><text fill="#000000" font-family="sans-serif" font-size="13" lengthAdjust="spacing" textLength="103.0161" x="254" y="382.0669">se programa en</text></g><!--reverse link Tarea to Recordatorio--><g class="link" data-entity-1="Tarea" data-entity-2="Recordatorio" data-link-type="composition" data-source-line="45" data-uid="lnk24" id="link_Tarea_Recordatorio"><path codeLine="45" d="M383.2372,347.0905 C376.9672,355.9105 376.58,357.7 372,369 C362.88,391.49 358.46,419.47 356.46,436.52" fill="none" id="Tarea-backto-Recordatorio" style="stroke:#181818;stroke-width:1;"/><polygon fill="#181818" points="390.19,337.31,383.4534,339.8827,383.2372,347.0905,389.9738,344.5179,390.19,337.31" style="stroke:#181818;stroke-width:1;"/><polygon fill="#000000" points="378.4342,372.7765,373.0243,380.5985,378.6551,382.2845,378.4342,372.7765" style="stroke:#000000;stroke-width:1;"/><text fill="#000000" font-family="sans-serif" font-size="13" lengthAdjust="spacing" textLength="88.6577" x="386" y="382.0669">notifica sobre</text></g><!--link Tarea to RelacionTareas--><g class="link" data-entity-1="Tarea" data-entity-2="RelacionTareas" data-link-type="dependency" data-source-line="46" data-uid="lnk25" id="link_Tarea_RelacionTareas"><path codeLine="46" d="M436,337.44 C450.58,345.32 466.99,356 479,369 C497.52,389.05 507.9065,413.1373 514.1765,431.0373" fill="none" id="Tarea-to-RelacionTareas" style="stroke:#181818;stroke-width:1;"/><polygon fill="#181818" points="516.16,436.7,516.9598,426.8837,514.5071,431.9811,509.4096,429.5284,516.16,436.7" style="stroke:#181818;stroke-width:1;"/><polygon fill="#000000" points="499.2052,381.4039,495.6625,372.5778,491.1513,376.3458,499.2052,381.4039" style="stroke:#000000;stroke-width:1;"/><text fill="#000000" font-family="sans-serif" font-size="13" lengthAdjust="spacing" textLength="106.2153" x="505" y="382.0669">se relaciona con</text></g><!--SRC=[TPFFQkD03CRlVWhHIs71q7yd4moXbDr2wI7TzgwCbKJK6PaPkR0j-nJxIFjYbJrnCp7qvf5_tpVI9rkb0nLOYwhieU50JbbyiUE6O4-waoQc0we6NlTAiOYlx3iCk0VNOepBwSsz4__4xmGNHN4EZ_n6BLnMy1i3OT6XUyKjmTcXVWOV1II30_7tgBggu3ds65ZW3woadQklSlM1_3eFVEPrNS7Fq7SozxZEFHAHgMugM56qQ6pq0R6nP_gRN7yhVjEoK_abuQIP1t7OyZkw8TMfE8TMv2Gqg79QR4VL64vClKqrYj05zeuxRAspiNluKPOfIQZ0WAsrRoWs28jYIbConbQeF5W0UQXFa6He20KbJyxMRqGIvjV4VgtZewLKZ-4ztxqiONNtiBoz___lyRX6PVE1te_RcOfbuErEoteecbjYwjcWzb61nHs6RHnQM5WByyHDZnlxUX7oURyXlIXls2KsUPRMHhwiOJgoMyT2IkW87fsCwO9ixMT846GfvMlDBuso3WGBo0nFbptTdMeuHb1_0W00]--></g></svg>