<svg xmlns="http://www.w3.org/2000/svg" xmlns:xlink="http://www.w3.org/1999/xlink" contentStyleType="text/css" data-diagram-type="CLASS" height="492px" preserveAspectRatio="none" style="width:821px;height:492px;background:#FFFFFF;" version="1.1" viewBox="0 0 821 492" width="821px" zoomAndPan="magnify"><defs/><g><!--cluster Nivel 1--><g class="cluster" data-entity="Nivel 1" data-source-line="7" data-uid="ent0002" id="cluster_Nivel 1"><path d="M325.5,270 L381.0508,270 A3.75,3.75 0 0 1 383.5508,272.5 L390.5508,292.2969 L545.5,292.2969 A2.5,2.5 0 0 1 548,294.7969 L548,350.5 A2.5,2.5 0 0 1 545.5,353 L325.5,353 A2.5,2.5 0 0 1 323,350.5 L323,272.5 A2.5,2.5 0 0 1 325.5,270" fill="none" style="stroke:#000000;stroke-width:1.5;"/><line style="stroke:#000000;stroke-width:1.5;" x1="323" x2="390.5508" y1="292.2969" y2="292.2969"/><text fill="#000000" font-family="sans-serif" font-size="14" font-weight="bold" lengthAdjust="spacing" textLength="54.5508" x="327" y="284.9951">Nivel 1</text></g><!--cluster Nivel 2--><g class="cluster" data-entity="Nivel 2" data-source-line="12" data-uid="ent0004" id="cluster_Nivel 2"><path d="M513.5,6 L569.0508,6 A3.75,3.75 0 0 1 571.5508,8.5 L578.5508,28.2969 L761.5,28.2969 A2.5,2.5 0 0 1 764,30.7969 L764,86.5 A2.5,2.5 0 0 1 761.5,89 L513.5,89 A2.5,2.5 0 0 1 511,86.5 L511,8.5 A2.5,2.5 0 0 1 513.5,6" fill="none" style="stroke:#000000;stroke-width:1.5;"/><line style="stroke:#000000;stroke-width:1.5;" x1="511" x2="578.5508" y1="28.2969" y2="28.2969"/><text fill="#000000" font-family="sans-serif" font-size="14" font-weight="bold" lengthAdjust="spacing" textLength="54.5508" x="515" y="20.9951">Nivel 2</text></g><!--cluster Nivel 3--><g class="cluster" data-entity="Nivel 3" data-source-line="18" data-uid="ent0007" id="cluster_Nivel 3"><path d="M231.5,138 L287.0508,138 A3.75,3.75 0 0 1 289.5508,140.5 L296.5508,160.2969 L567.5,160.2969 A2.5,2.5 0 0 1 570,162.7969 L570,218.5 A2.5,2.5 0 0 1 567.5,221 L231.5,221 A2.5,2.5 0 0 1 229,218.5 L229,140.5 A2.5,2.5 0 0 1 231.5,138" fill="none" style="stroke:#000000;stroke-width:1.5;"/><line style="stroke:#000000;stroke-width:1.5;" x1="229" x2="296.5508" y1="160.2969" y2="160.2969"/><text fill="#000000" font-family="sans-serif" font-size="14" font-weight="bold" lengthAdjust="spacing" textLength="54.5508" x="233" y="152.9951">Nivel 3</text></g><!--cluster Nivel 4--><g class="cluster" data-entity="Nivel 4" data-source-line="24" data-uid="ent0010" id="cluster_Nivel 4"><path d="M8.5,402 L64.0508,402 A3.75,3.75 0 0 1 66.5508,404.5 L73.5508,424.2969 L784.5,424.2969 A2.5,2.5 0 0 1 787,426.7969 L787,482.5 A2.5,2.5 0 0 1 784.5,485 L8.5,485 A2.5,2.5 0 0 1 6,482.5 L6,404.5 A2.5,2.5 0 0 1 8.5,402" fill="none" style="stroke:#000000;stroke-width:1.5;"/><line style="stroke:#000000;stroke-width:1.5;" x1="6" x2="73.5508" y1="424.2969" y2="424.2969"/><text fill="#000000" font-family="sans-serif" font-size="14" font-weight="bold" lengthAdjust="spacing" textLength="54.5508" x="10" y="416.9951">Nivel 4</text></g><!--class Tarea--><g class="entity" data-entity="Tarea" data-source-line="8" data-uid="ent0003" id="entity_Tarea"><rect fill="#F1F1F1" height="32" rx="2.5" ry="2.5" style="stroke:#181818;stroke-width:0.5;" width="72.0791" x="339" y="305"/><ellipse cx="354" cy="321" fill="#ADD1B2" rx="11" ry="11" style="stroke:#181818;stroke-width:1;"/><path d="M356.9688,326.6406 Q356.3906,326.9375 355.75,327.0781 Q355.1094,327.2344 354.4063,327.2344 Q351.9063,327.2344 350.5781,325.5938 Q349.2656,323.9375 349.2656,320.8125 Q349.2656,317.6875 350.5781,316.0313 Q351.9063,314.375 354.4063,314.375 Q355.1094,314.375 355.75,314.5313 Q356.4063,314.6875 356.9688,314.9844 L356.9688,317.7031 Q356.3438,317.125 355.75,316.8594 Q355.1563,316.5781 354.5313,316.5781 Q353.1875,316.5781 352.5,317.6563 Q351.8125,318.7188 351.8125,320.8125 Q351.8125,322.9063 352.5,323.9844 Q353.1875,325.0469 354.5313,325.0469 Q355.1563,325.0469 355.75,324.7813 Q356.3438,324.5 356.9688,323.9219 L356.9688,326.6406 Z " fill="#000000"/><text fill="#000000" font-family="sans-serif" font-size="14" lengthAdjust="spacing" textLength="40.0791" x="368" y="325.8467">Tarea</text></g><!--class Usuario--><g class="entity" data-entity="Usuario" data-source-line="13" data-uid="ent0005" id="entity_Usuario"><rect fill="#F1F1F1" height="32" rx="2.5" ry="2.5" style="stroke:#181818;stroke-width:0.5;" width="85.2041" x="527.5" y="41"/><ellipse cx="542.5" cy="57" fill="#ADD1B2" rx="11" ry="11" style="stroke:#181818;stroke-width:1;"/><path d="M545.4688,62.6406 Q544.8906,62.9375 544.25,63.0781 Q543.6094,63.2344 542.9063,63.2344 Q540.4063,63.2344 539.0781,61.5938 Q537.7656,59.9375 537.7656,56.8125 Q537.7656,53.6875 539.0781,52.0313 Q540.4063,50.375 542.9063,50.375 Q543.6094,50.375 544.25,50.5313 Q544.9063,50.6875 545.4688,50.9844 L545.4688,53.7031 Q544.8438,53.125 544.25,52.8594 Q543.6563,52.5781 543.0313,52.5781 Q541.6875,52.5781 541,53.6563 Q540.3125,54.7188 540.3125,56.8125 Q540.3125,58.9063 541,59.9844 Q541.6875,61.0469 543.0313,61.0469 Q543.6563,61.0469 544.25,60.7813 Q544.8438,60.5 545.4688,59.9219 L545.4688,62.6406 Z " fill="#000000"/><text fill="#000000" font-family="sans-serif" font-size="14" lengthAdjust="spacing" textLength="53.2041" x="556.5" y="61.8467">Usuario</text></g><!--class Rol--><g class="entity" data-entity="Rol" data-source-line="14" data-uid="ent0006" id="entity_Rol"><rect fill="#F1F1F1" height="32" rx="2.5" ry="2.5" style="stroke:#181818;stroke-width:0.5;" width="54.1826" x="694" y="41"/><ellipse cx="709" cy="57" fill="#ADD1B2" rx="11" ry="11" style="stroke:#181818;stroke-width:1;"/><path d="M711.9688,62.6406 Q711.3906,62.9375 710.75,63.0781 Q710.1094,63.2344 709.4063,63.2344 Q706.9063,63.2344 705.5781,61.5938 Q704.2656,59.9375 704.2656,56.8125 Q704.2656,53.6875 705.5781,52.0313 Q706.9063,50.375 709.4063,50.375 Q710.1094,50.375 710.75,50.5313 Q711.4063,50.6875 711.9688,50.9844 L711.9688,53.7031 Q711.3438,53.125 710.75,52.8594 Q710.1563,52.5781 709.5313,52.5781 Q708.1875,52.5781 707.5,53.6563 Q706.8125,54.7188 706.8125,56.8125 Q706.8125,58.9063 707.5,59.9844 Q708.1875,61.0469 709.5313,61.0469 Q710.1563,61.0469 710.75,60.7813 Q711.3438,60.5 711.9688,59.9219 L711.9688,62.6406 Z " fill="#000000"/><text fill="#000000" font-family="sans-serif" font-size="14" lengthAdjust="spacing" textLength="22.1826" x="723" y="61.8467">Rol</text></g><!--class Grupo--><g class="entity" data-entity="Grupo" data-source-line="19" data-uid="ent0008" id="entity_Grupo"><rect fill="#F1F1F1" height="32" rx="2.5" ry="2.5" style="stroke:#181818;stroke-width:0.5;" width="74.9297" x="244.5" y="173"/><ellipse cx="259.5" cy="189" fill="#ADD1B2" rx="11" ry="11" style="stroke:#181818;stroke-width:1;"/><path d="M262.4688,194.6406 Q261.8906,194.9375 261.25,195.0781 Q260.6094,195.2344 259.9063,195.2344 Q257.4063,195.2344 256.0781,193.5938 Q254.7656,191.9375 254.7656,188.8125 Q254.7656,185.6875 256.0781,184.0313 Q257.4063,182.375 259.9063,182.375 Q260.6094,182.375 261.25,182.5313 Q261.9063,182.6875 262.4688,182.9844 L262.4688,185.7031 Q261.8438,185.125 261.25,184.8594 Q260.6563,184.5781 260.0313,184.5781 Q258.6875,184.5781 258,185.6563 Q257.3125,186.7188 257.3125,188.8125 Q257.3125,190.9063 258,191.9844 Q258.6875,193.0469 260.0313,193.0469 Q260.6563,193.0469 261.25,192.7813 Q261.8438,192.5 262.4688,191.9219 L262.4688,194.6406 Z " fill="#000000"/><text fill="#000000" font-family="sans-serif" font-size="14" lengthAdjust="spacing" textLength="42.9297" x="273.5" y="193.8467">Grupo</text></g><!--class Invitacion--><g class="entity" data-entity="Invitacion" data-source-line="20" data-uid="ent0009" id="entity_Invitacion"><rect fill="#F1F1F1" height="32" rx="2.5" ry="2.5" style="stroke:#181818;stroke-width:0.5;" width="100.2705" x="454" y="173"/><ellipse cx="469" cy="189" fill="#ADD1B2" rx="11" ry="11" style="stroke:#181818;stroke-width:1;"/><path d="M471.9688,194.6406 Q471.3906,194.9375 470.75,195.0781 Q470.1094,195.2344 469.4063,195.2344 Q466.9063,195.2344 465.5781,193.5938 Q464.2656,191.9375 464.2656,188.8125 Q464.2656,185.6875 465.5781,184.0313 Q466.9063,182.375 469.4063,182.375 Q470.1094,182.375 470.75,182.5313 Q471.4063,182.6875 471.9688,182.9844 L471.9688,185.7031 Q471.3438,185.125 470.75,184.8594 Q470.1563,184.5781 469.5313,184.5781 Q468.1875,184.5781 467.5,185.6563 Q466.8125,186.7188 466.8125,188.8125 Q466.8125,190.9063 467.5,191.9844 Q468.1875,193.0469 469.5313,193.0469 Q470.1563,193.0469 470.75,192.7813 Q471.3438,192.5 471.9688,191.9219 L471.9688,194.6406 Z " fill="#000000"/><text fill="#000000" font-family="sans-serif" font-size="14" lengthAdjust="spacing" textLength="68.2705" x="483" y="193.8467">Invitacion</text></g><!--class ConflictoHorario--><g class="entity" data-entity="ConflictoHorario" data-source-line="25" data-uid="ent0011" id="entity_ConflictoHorario"><rect fill="#F1F1F1" height="32" rx="2.5" ry="2.5" style="stroke:#181818;stroke-width:0.5;" width="145.3125" x="625.5" y="437"/><ellipse cx="640.5" cy="453" fill="#ADD1B2" rx="11" ry="11" style="stroke:#181818;stroke-width:1;"/><path d="M643.4688,458.6406 Q642.8906,458.9375 642.25,459.0781 Q641.6094,459.2344 640.9063,459.2344 Q638.4063,459.2344 637.0781,457.5938 Q635.7656,455.9375 635.7656,452.8125 Q635.7656,449.6875 637.0781,448.0313 Q638.4063,446.375 640.9063,446.375 Q641.6094,446.375 642.25,446.5313 Q642.9063,446.6875 643.4688,446.9844 L643.4688,449.7031 Q642.8438,449.125 642.25,448.8594 Q641.6563,448.5781 641.0313,448.5781 Q639.6875,448.5781 639,449.6563 Q638.3125,450.7188 638.3125,452.8125 Q638.3125,454.9063 639,455.9844 Q639.6875,457.0469 641.0313,457.0469 Q641.6563,457.0469 642.25,456.7813 Q642.8438,456.5 643.4688,455.9219 L643.4688,458.6406 Z " fill="#000000"/><text fill="#000000" font-family="sans-serif" font-size="14" lengthAdjust="spacing" textLength="113.3125" x="654.5" y="457.8467">ConflictoHorario</text></g><!--class Localizacion--><g class="entity" data-entity="Localizacion" data-source-line="26" data-uid="ent0012" id="entity_Localizacion"><rect fill="#F1F1F1" height="32" rx="2.5" ry="2.5" style="stroke:#181818;stroke-width:0.5;" width="117.374" x="22.5" y="437"/><ellipse cx="37.5" cy="453" fill="#ADD1B2" rx="11" ry="11" style="stroke:#181818;stroke-width:1;"/><path d="M40.4688,458.6406 Q39.8906,458.9375 39.25,459.0781 Q38.6094,459.2344 37.9063,459.2344 Q35.4063,459.2344 34.0781,457.5938 Q32.7656,455.9375 32.7656,452.8125 Q32.7656,449.6875 34.0781,448.0313 Q35.4063,446.375 37.9063,446.375 Q38.6094,446.375 39.25,446.5313 Q39.9063,446.6875 40.4688,446.9844 L40.4688,449.7031 Q39.8438,449.125 39.25,448.8594 Q38.6563,448.5781 38.0313,448.5781 Q36.6875,448.5781 36,449.6563 Q35.3125,450.7188 35.3125,452.8125 Q35.3125,454.9063 36,455.9844 Q36.6875,457.0469 38.0313,457.0469 Q38.6563,457.0469 39.25,456.7813 Q39.8438,456.5 40.4688,455.9219 L40.4688,458.6406 Z " fill="#000000"/><text fill="#000000" font-family="sans-serif" font-size="14" lengthAdjust="spacing" textLength="85.374" x="51.5" y="457.8467">Localizacion</text></g><!--class Horario--><g class="entity" data-entity="Horario" data-source-line="27" data-uid="ent0013" id="entity_Horario"><rect fill="#F1F1F1" height="32" rx="2.5" ry="2.5" style="stroke:#181818;stroke-width:0.5;" width="83.6387" x="175" y="437"/><ellipse cx="190" cy="453" fill="#ADD1B2" rx="11" ry="11" style="stroke:#181818;stroke-width:1;"/><path d="M192.9688,458.6406 Q192.3906,458.9375 191.75,459.0781 Q191.1094,459.2344 190.4063,459.2344 Q187.9063,459.2344 186.5781,457.5938 Q185.2656,455.9375 185.2656,452.8125 Q185.2656,449.6875 186.5781,448.0313 Q187.9063,446.375 190.4063,446.375 Q191.1094,446.375 191.75,446.5313 Q192.4063,446.6875 192.9688,446.9844 L192.9688,449.7031 Q192.3438,449.125 191.75,448.8594 Q191.1563,448.5781 190.5313,448.5781 Q189.1875,448.5781 188.5,449.6563 Q187.8125,450.7188 187.8125,452.8125 Q187.8125,454.9063 188.5,455.9844 Q189.1875,457.0469 190.5313,457.0469 Q191.1563,457.0469 191.75,456.7813 Q192.3438,456.5 192.9688,455.9219 L192.9688,458.6406 Z " fill="#000000"/><text fill="#000000" font-family="sans-serif" font-size="14" lengthAdjust="spacing" textLength="51.6387" x="204" y="457.8467">Horario</text></g><!--class Recordatorio--><g class="entity" data-entity="Recordatorio" data-source-line="28" data-uid="ent0014" id="entity_Recordatorio"><rect fill="#F1F1F1" height="32" rx="2.5" ry="2.5" style="stroke:#181818;stroke-width:0.5;" width="122.0908" x="294" y="437"/><ellipse cx="309" cy="453" fill="#ADD1B2" rx="11" ry="11" style="stroke:#181818;stroke-width:1;"/><path d="M311.9688,458.6406 Q311.3906,458.9375 310.75,459.0781 Q310.1094,459.2344 309.4063,459.2344 Q306.9063,459.2344 305.5781,457.5938 Q304.2656,455.9375 304.2656,452.8125 Q304.2656,449.6875 305.5781,448.0313 Q306.9063,446.375 309.4063,446.375 Q310.1094,446.375 310.75,446.5313 Q311.4063,446.6875 311.9688,446.9844 L311.9688,449.7031 Q311.3438,449.125 310.75,448.8594 Q310.1563,448.5781 309.5313,448.5781 Q308.1875,448.5781 307.5,449.6563 Q306.8125,450.7188 306.8125,452.8125 Q306.8125,454.9063 307.5,455.9844 Q308.1875,457.0469 309.5313,457.0469 Q310.1563,457.0469 310.75,456.7813 Q311.3438,456.5 311.9688,455.9219 L311.9688,458.6406 Z " fill="#000000"/><text fill="#000000" font-family="sans-serif" font-size="14" lengthAdjust="spacing" textLength="90.0908" x="323" y="457.8467">Recordatorio</text></g><!--class RelacionTareas--><g class="entity" data-entity="RelacionTareas" data-source-line="29" data-uid="ent0015" id="entity_RelacionTareas"><rect fill="#F1F1F1" height="32" rx="2.5" ry="2.5" style="stroke:#181818;stroke-width:0.5;" width="139.208" x="451.5" y="437"/><ellipse cx="466.5" cy="453" fill="#ADD1B2" rx="11" ry="11" style="stroke:#181818;stroke-width:1;"/><path d="M469.4688,458.6406 Q468.8906,458.9375 468.25,459.0781 Q467.6094,459.2344 466.9063,459.2344 Q464.4063,459.2344 463.0781,457.5938 Q461.7656,455.9375 461.7656,452.8125 Q461.7656,449.6875 463.0781,448.0313 Q464.4063,446.375 466.9063,446.375 Q467.6094,446.375 468.25,446.5313 Q468.9063,446.6875 469.4688,446.9844 L469.4688,449.7031 Q468.8438,449.125 468.25,448.8594 Q467.6563,448.5781 467.0313,448.5781 Q465.6875,448.5781 465,449.6563 Q464.3125,450.7188 464.3125,452.8125 Q464.3125,454.9063 465,455.9844 Q465.6875,457.0469 467.0313,457.0469 Q467.6563,457.0469 468.25,456.7813 Q468.8438,456.5 469.4688,455.9219 L469.4688,458.6406 Z " fill="#000000"/><text fill="#000000" font-family="sans-serif" font-size="14" lengthAdjust="spacing" textLength="107.208" x="480.5" y="457.8467">RelacionTareas</text></g><!--reverse link Grupo to Tarea--><g class="link" data-entity-1="Grupo" data-entity-2="Tarea" data-source-line="33" data-uid="lnk16" id="link_Grupo_Tarea"><path codeLine="33" d="M299.8319,214.9298 C317.7519,239.9798 346.34,279.94 364.22,304.93" fill="none" id="Grupo-backto-Tarea" style="stroke:#181818;stroke-width:1;"/><polygon fill="#181818" points="292.85,205.17,293.0877,212.3772,299.8319,214.9298,299.5942,207.7226,292.85,205.17" style="stroke:#181818;stroke-width:1;"/><polygon fill="#000000" points="327.0907,241.4999,329.9634,250.5663,334.7439,247.1462,327.0907,241.4999" style="stroke:#000000;stroke-width:1;"/><text fill="#000000" font-family="sans-serif" font-size="13" lengthAdjust="spacing" textLength="91.0127" x="339" y="250.0669">es gestionada</text></g><!--reverse link Usuario to Tarea--><g class="link" data-entity-1="Usuario" data-entity-2="Tarea" data-source-line="34" data-uid="lnk17" id="link_Usuario_Tarea"><path codeLine="34" d="M591.365,82.6415 C598.275,91.2815 598.4,93.3 602,105 C615.03,147.3 610.78,181.78 570,229 C528.12,277.49 454.84,301.85 411.02,312.65" fill="none" id="Usuario-backto-Tarea" style="stroke:#181818;stroke-width:1;"/><polygon fill="none" points="583.87,73.27,584.4937,80.4541,591.365,82.6415,590.7413,75.4574,583.87,73.27" style="stroke:#181818;stroke-width:1;"/><polygon fill="#000000" points="609.9149,193.0011,617.8087,187.6965,613.1832,184.0698,609.9149,193.0011" style="stroke:#000000;stroke-width:1;"/><text fill="#000000" font-family="sans-serif" font-size="13" lengthAdjust="spacing" textLength="77.6191" x="622" y="193.5669">participa en</text></g><!--reverse link Usuario to Grupo--><g class="link" data-entity-1="Usuario" data-entity-2="Grupo" data-source-line="35" data-uid="lnk18" id="link_Usuario_Grupo"><path codeLine="35" d="M516.0257,74.9438 C489.6057,83.5938 466.57,91.95 437,105 C389.81,125.83 337.37,155.33 307.19,172.97" fill="none" id="Usuario-backto-Grupo" style="stroke:#181818;stroke-width:1;"/><polygon fill="none" points="527.43,71.21,520.4832,69.2755,516.0257,74.9438,522.9724,76.8783,527.43,71.21" style="stroke:#181818;stroke-width:1;"/><polygon fill="#000000" points="437.4738,115.691,446.9105,114.508,444.413,109.1872,437.4738,115.691" style="stroke:#000000;stroke-width:1;"/><text fill="#000000" font-family="sans-serif" font-size="13" lengthAdjust="spacing" textLength="78.1714" x="451" y="118.0669">pertenece a</text></g><!--reverse link Tarea to Tarea--><g class="link" data-entity-1="Tarea" data-entity-2="Tarea" data-source-line="36" data-uid="lnk19" id="link_Tarea_Tarea"><path codeLine="36" d="M423.1312,309.8758 C441.4912,308.3958 446,312.74 446,321 C446,329.26 429.53,332.64 411.17,331.16" fill="none" id="Tarea-backto-Tarea" style="stroke:#181818;stroke-width:1;"/><polygon fill="#181818" points="411.17,310.84,417.472,314.345,423.1312,309.8758,416.8292,306.3708,411.17,310.84" style="stroke:#181818;stroke-width:1;"/><polygon fill="#000000" points="450.5983,326.0502,454.2544,317.2705,448.3956,316.7983,450.5983,326.0502" style="stroke:#000000;stroke-width:1;"/><text fill="#000000" font-family="sans-serif" font-size="13" lengthAdjust="spacing" textLength="78.019" x="465" y="325.5669">subtarea de</text></g><!--link Usuario to Rol--><g class="link" data-entity-1="Usuario" data-entity-2="Rol" data-source-line="39" data-uid="lnk20" id="link_Usuario_Rol"><path codeLine="39" d="M612.87,57 C638.85,57 665.22,57 687.74,57" fill="none" id="Usuario-to-Rol" style="stroke:#181818;stroke-width:1;"/><polygon fill="#181818" points="693.74,57,684.74,53,688.74,57,684.74,61,693.74,57" style="stroke:#181818;stroke-width:1;"/><polygon fill="#000000" points="639.75,45.5664,630.7049,42.6275,630.7049,48.5053,639.75,45.5664" style="stroke:#000000;stroke-width:1;"/><text fill="#000000" font-family="sans-serif" font-size="13" lengthAdjust="spacing" textLength="32.9443" x="643.75" y="50.0669">tiene</text></g><!--link Usuario to Invitacion--><g class="link" data-entity-1="Usuario" data-entity-2="Invitacion" data-source-line="42" data-uid="lnk21" id="link_Usuario_Invitacion"><path codeLine="42" d="M562.3,73.17 C549.58,98.22 527.0566,142.5902 514.3666,167.5802" fill="none" id="Usuario-to-Invitacion" style="stroke:#181818;stroke-width:1;"/><polygon fill="#181818" points="511.65,172.93,519.2914,166.7164,513.9139,168.4719,512.1584,163.0943,511.65,172.93" style="stroke:#181818;stroke-width:1;"/><polygon fill="#000000" points="546.7365,118.0247,553.4518,111.29,548.2107,108.6291,546.7365,118.0247" style="stroke:#000000;stroke-width:1;"/><text fill="#000000" font-family="sans-serif" font-size="13" lengthAdjust="spacing" textLength="35.5088" x="558" y="118.0669">envia</text></g><!--reverse link Tarea to ConflictoHorario--><g class="link" data-entity-1="Tarea" data-entity-2="ConflictoHorario" data-source-line="45" data-uid="lnk22" id="link_Tarea_ConflictoHorario"><path codeLine="45" d="M417.4069,322.303 C467.4269,323.913 552.84,332.05 620,369 C649.97,385.49 675.06,417.6 688.17,436.68" fill="none" id="Tarea-backto-ConflictoHorario" style="stroke:#181818;stroke-width:1;"/><polygon fill="#181818" points="411.41,322.11,420.2767,326.3975,416.4074,322.2709,420.534,318.4016,411.41,322.11" style="stroke:#181818;stroke-width:1;"/><polygon fill="#000000" points="642.3941,375.6208,649.5826,381.8478,651.8699,376.4332,642.3941,375.6208" style="stroke:#000000;stroke-width:1;"/><text fill="#000000" font-family="sans-serif" font-size="13" lengthAdjust="spacing" textLength="52.8506" x="656" y="382.0669">afecta a</text></g><!--reverse link Usuario to ConflictoHorario--><g class="link" data-entity-1="Usuario" data-entity-2="ConflictoHorario" data-source-line="46" data-uid="lnk23" id="link_Usuario_ConflictoHorario"><path codeLine="46" d="M618.2643,69.6459 C650.4443,79.5559 686.84,96.54 708,130 C771.81,230.93 722.23,387.47 704.01,436.67" fill="none" id="Usuario-backto-ConflictoHorario" style="stroke:#181818;stroke-width:1;"/><polygon fill="#181818" points="612.53,67.88,619.9541,74.3517,617.3085,69.3516,622.3086,66.706,612.53,67.88" style="stroke:#181818;stroke-width:1;"/><polygon fill="#000000" points="742.8625,240.6975,742.0584,250.174,747.7821,248.8368,742.8625,240.6975" style="stroke:#000000;stroke-width:1;"/><text fill="#000000" font-family="sans-serif" font-size="13" lengthAdjust="spacing" textLength="60.3027" x="753" y="250.0669">notifica a</text></g><!--link Tarea to Localizacion--><g class="link" data-entity-1="Tarea" data-entity-2="Localizacion" data-source-line="47" data-uid="lnk24" id="link_Tarea_Localizacion"><path codeLine="47" d="M338.68,324.83 C277.33,330.25 156.56,343.84 123,369 C100.65,385.76 90.8441,411.9668 85.8541,430.9668" fill="none" id="Tarea-to-Localizacion" style="stroke:#181818;stroke-width:1;"/><polygon fill="#181818" points="84.33,436.77,90.485,429.0813,85.6001,431.934,82.7474,427.0491,84.33,436.77" style="stroke:#181818;stroke-width:1;"/><polygon fill="#000000" points="123.3898,379.5018,132.8674,378.7105,130.5922,373.2908,123.3898,379.5018" style="stroke:#000000;stroke-width:1;"/><text fill="#000000" font-family="sans-serif" font-size="13" lengthAdjust="spacing" textLength="82.5957" x="137" y="382.0669">se realiza en</text></g><!--link Tarea to Horario--><g class="link" data-entity-1="Tarea" data-entity-2="Horario" data-source-line="48" data-uid="lnk25" id="link_Tarea_Horario"><path codeLine="48" d="M339,325.15 C308.23,329.75 264.93,341.09 239,369 C221.65,387.68 217.8984,412.4447 217.1684,430.8047" fill="none" id="Tarea-to-Horario" style="stroke:#181818;stroke-width:1;"/><polygon fill="#181818" points="216.93,436.8,221.2844,427.966,217.1286,431.8039,213.2907,427.6482,216.93,436.8" style="stroke:#181818;stroke-width:1;"/><polygon fill="#000000" points="240.2226,380.8423,248.9815,377.1365,245.1305,372.6959,240.2226,380.8423" style="stroke:#000000;stroke-width:1;"/><text fill="#000000" font-family="sans-serif" font-size="13" lengthAdjust="spacing" textLength="103.0161" x="253" y="382.0669">se programa en</text></g><!--reverse link Tarea to Recordatorio--><g class="link" data-entity-1="Tarea" data-entity-2="Recordatorio" data-source-line="49" data-uid="lnk26" id="link_Tarea_Recordatorio"><path codeLine="49" d="M370.8425,349.03 C366.9825,374.08 361.16,411.94 357.32,436.93" fill="none" id="Tarea-backto-Recordatorio" style="stroke:#181818;stroke-width:1;"/><polygon fill="#181818" points="372.67,337.17,367.8029,342.4908,370.8425,349.03,375.7096,343.7092,372.67,337.17" style="stroke:#181818;stroke-width:1;"/><polygon fill="#000000" points="372.7603,372.6245,368.4802,381.1176,374.2897,382.0113,372.7603,372.6245" style="stroke:#000000;stroke-width:1;"/><text fill="#000000" font-family="sans-serif" font-size="13" lengthAdjust="spacing" textLength="88.6577" x="381" y="382.0669">notifica sobre</text></g><!--link Tarea to RelacionTareas--><g class="link" data-entity-1="Tarea" data-entity-2="RelacionTareas" data-source-line="50" data-uid="lnk27" id="link_Tarea_RelacionTareas"><path codeLine="50" d="M411.35,331.98 C432.81,339.36 459.34,351.25 478,369 C498.11,388.13 508.652,413.0348 514.692,431.2548" fill="none" id="Tarea-to-RelacionTareas" style="stroke:#181818;stroke-width:1;"/><polygon fill="#181818" points="516.58,436.95,517.5448,427.1485,515.0067,432.204,509.9512,429.6658,516.58,436.95" style="stroke:#181818;stroke-width:1;"/><polygon fill="#000000" points="499.6058,381.0303,495.1189,372.6447,491.0469,376.8835,499.6058,381.0303" style="stroke:#000000;stroke-width:1;"/><text fill="#000000" font-family="sans-serif" font-size="13" lengthAdjust="spacing" textLength="106.2153" x="505" y="382.0669">se relaciona con</text></g><!--reverse link Grupo to Invitacion--><g class="link" data-entity-1="Grupo" data-entity-2="Invitacion" data-source-line="51" data-uid="lnk29" id="link_Grupo_Invitacion"><path codeLine="51" d="M331.66,189 C368.52,189 412.92,189 453.63,189" fill="none" id="Grupo-backto-Invitacion" style="stroke:#181818;stroke-width:1;"/><polygon fill="#181818" points="319.66,189,325.66,193,331.66,189,325.66,185,319.66,189" style="stroke:#181818;stroke-width:1;"/><polygon fill="#000000" points="336.75,177.5664,345.7951,180.5053,345.7951,174.6275,336.75,177.5664" style="stroke:#000000;stroke-width:1;"/><text fill="#000000" font-family="sans-serif" font-size="13" lengthAdjust="spacing" textLength="85.9663" x="350.75" y="182.0669">para unirse a</text></g><!--SRC=[VPF1Qjmm48RlVeeXbqB0q2OvcSMmXD0kX1osJU-pykokY5TZf76WANsAFb9Vh2Df7MiDxSqQV_DhzF-Iy032i6CHFa5dFHcnxAgZxGXE94VkGbwWYBUxKIXKuSMw0JsUmFGOmdhwip7iljetWezLzG6Ux2lryAc1R-W9gm7D2nu8hixrA_XPGHOu4x_chfi6diE8tZByW2tto-wRiljClgyZNsZTDl3PZmClDMvBZKnCgurxjO8c6b48tJMmfQ1kgHkHKoSMadUbv3sxVM-Dy1Vs5_Czii7UlcNzgRY4jcJOToXyMUnJL_8hvDcc6WKOl7N63jZhPEb0S5tNsLneG863ZgyeTWYhQZAO2qPJ5HibW1oq5qWML8Iya2EZDqA9t5Xk4yQTf4zrgKtcFJzyNyFsuN5zl_dp-sbELgpgmEXIO5EnzlPmbBgDHLNBpFzrIDD2rS4ojtSzbPhBqOP4jmlhzEQ21kXZlkT3hVHGomor7_VwH11A1_z1EXQxjoQpMJDEKyOV_IBTDHMovpCuAoapU3xeYyiG5BwN5wNSDF3E4woW4BoyFjFUkOR9WhOglAfxsajzFIUlJrvjjZwaxFy2]--></g></svg>