<svg xmlns="http://www.w3.org/2000/svg" xmlns:xlink="http://www.w3.org/1999/xlink" contentStyleType="text/css" data-diagram-type="STATE" height="125px" preserveAspectRatio="none" style="width:899px;height:125px;background:#FFFFFF;" version="1.1" viewBox="0 0 899 125" width="899px" zoomAndPan="magnify"><defs/><g><g id="NoAuth"><rect fill="#F1F1F1" height="50" rx="12.5" ry="12.5" style="stroke:#181818;stroke-width:0.5;" width="147.251" x="87" y="68"/><line style="stroke:#181818;stroke-width:0.5;" x1="87" x2="234.251" y1="94.2969" y2="94.2969"/><text fill="#000000" font-family="sans-serif" font-size="14" lengthAdjust="spacing" textLength="127.251" x="97" y="85.9951">SESION_CERRADA</text></g><g id="Menu"><rect fill="#F1F1F1" height="50" rx="12.5" ry="12.5" style="stroke:#181818;stroke-width:0.5;" width="172.0654" x="388" y="68"/><line style="stroke:#181818;stroke-width:0.5;" x1="388" x2="560.0654" y1="94.2969" y2="94.2969"/><text fill="#000000" font-family="sans-serif" font-size="14" lengthAdjust="spacing" textLength="152.0654" x="398" y="85.9951">SISTEMA_DISPONIBLE</text></g><g id="ListProgramas"><rect fill="#F1F1F1" height="50" rx="12.5" ry="12.5" style="stroke:#181818;stroke-width:0.5;" width="143.6211" x="747" y="68"/><line style="stroke:#181818;stroke-width:0.5;" x1="747" x2="890.6211" y1="94.2969" y2="94.2969"/><text fill="#000000" font-family="sans-serif" font-size="14" lengthAdjust="spacing" textLength="123.6211" x="757" y="85.9951">TAREAS_ABIERTO</text></g><ellipse cx="16" cy="93" fill="#222222" rx="10" ry="10" style="stroke:#222222;stroke-width:1;"/><!--link *start* to NoAuth--><g class="link" data-entity-1=".start." data-entity-2="NoAuth" data-source-line="9" data-uid="lnk3" id="link_.start._NoAuth"><path d="M26.35,93 C39.04,93 56.92,93 80.98,93" fill="none" id="*start*-to-NoAuth" style="stroke:#181818;stroke-width:1;"/><polygon fill="#181818" points="86.98,93,77.98,89,81.98,93,77.98,97,86.98,93" style="stroke:#181818;stroke-width:1;"/></g><!--link NoAuth to Menu--><g class="link" data-entity-1="NoAuth" data-entity-2="Menu" data-source-line="11" data-uid="lnk4" id="link_NoAuth_Menu"><path d="M234.14,93 C280.07,93 333.64,93 381.8,93" fill="none" id="NoAuth-to-Menu" style="stroke:#181818;stroke-width:1;"/><polygon fill="#181818" points="387.8,93,378.8,89,382.8,93,378.8,97,387.8,93" style="stroke:#181818;stroke-width:1;"/><text fill="#000000" font-family="sans-serif" font-size="13" lengthAdjust="spacing" textLength="92.5044" x="265" y="89.0669">iniciarSesion()</text></g><!--link Menu to NoAuth--><g class="link" data-entity-1="Menu" data-entity-2="NoAuth" data-source-line="13" data-uid="lnk5" id="link_Menu_NoAuth"><path d="M387.91,111.5 C370.83,115.21 358,118 358,118 C358,118 264,118 264,118 C264,118 256.7387,116.2334 239.9087,112.1234" fill="none" id="Menu-to-NoAuth" style="stroke:#181818;stroke-width:1;"/><polygon fill="#181818" points="234.08,110.7,241.8741,116.7209,238.9373,111.8862,243.772,108.9493,234.08,110.7" style="stroke:#181818;stroke-width:1;"/><text fill="#000000" font-family="sans-serif" font-size="13" lengthAdjust="spacing" textLength="92.1172" x="265" y="114.0669">cerrarSesion()</text></g><!--link Menu to ListProgramas--><g class="link" data-entity-1="Menu" data-entity-2="ListProgramas" data-source-line="14" data-uid="lnk6" id="link_Menu_ListProgramas"><path d="M560.23,93 C617.67,93 686.56,93 740.81,93" fill="none" id="Menu-to-ListProgramas" style="stroke:#181818;stroke-width:1;"/><polygon fill="#181818" points="746.81,93,737.81,89,741.81,93,737.81,97,746.81,93" style="stroke:#181818;stroke-width:1;"/><text fill="#000000" font-family="sans-serif" font-size="13" lengthAdjust="spacing" textLength="84.6523" x="611.5" y="89.0669">abrirTareas()</text></g><!--link ListProgramas to Menu--><g class="link" data-entity-1="ListProgramas" data-entity-2="Menu" data-source-line="18" data-uid="lnk8" id="link_ListProgramas_Menu"><path d="M746.76,110.63 C730.04,114.77 717,118 717,118 C717,118 590,118 590,118 C590,118 583.0333,116.4836 565.9533,112.7736" fill="none" id="ListProgramas-to-Menu" style="stroke:#181818;stroke-width:1;"/><polygon fill="#181818" points="560.09,111.5,568.0359,117.3192,564.9761,112.5613,569.734,109.5015,560.09,111.5" style="stroke:#181818;stroke-width:1;"/><text fill="#000000" font-family="sans-serif" font-size="13" lengthAdjust="spacing" textLength="125.9248" x="591" y="114.0669">completarGestion()</text></g><!--link ListProgramas to ListProgramas--><g class="link" data-entity-1="ListProgramas" data-entity-2="ListProgramas" data-source-line="16" data-uid="lnk7" id="link_ListProgramas_ListProgramas"><path d="M791.25,67.72 C782.84,50.23 792.09,33 819,33 C845.91,33 857.7601,44.8226 849.3501,62.3126" fill="none" id="ListProgramas-to-ListProgramas" style="stroke:#181818;stroke-width:1;"/><polygon fill="#181818" points="846.75,67.72,854.2551,61.3424,848.9168,63.2139,847.0453,57.8756,846.75,67.72" style="stroke:#181818;stroke-width:1;"/><text fill="#000000" font-family="sans-serif" font-size="13" lengthAdjust="spacing" textLength="135.4146" x="751.5" y="24.0669">marcarCompletada()</text></g><!--SRC=[ROv1QyCm38Nl_XMYfstGFz33m6tDCBH9YNCR8sYfrfebTf3LG__z4c_BLkX9IE_JUw-Z3m69mFvq5ZXwfbPy32fz-Z0WOm-T3oJNWM28tNLQb4g2Gh1mnjcoQ3QcglHMBm0J555Vv3m3rjLchvkjTOUoiEkToT2UmcKsgNLbj6lqsfggBhE-yqaE74zZEYQbNf_UOBby_lLMtpEV9YTOWG- -zSYEqbZzuL6fVF_x6P6McFyHCt2JjG9yPyyrCc6QV6xKUtoFt29lOZzq97Z4-qzJsbZXX-8NIf9hV040]--></g></svg>