<svg xmlns="http://www.w3.org/2000/svg" xmlns:xlink="http://www.w3.org/1999/xlink" contentStyleType="text/css" data-diagram-type="STATE" height="605px" preserveAspectRatio="none" style="width:1570px;height:605px;background:#FFFFFF;" version="1.1" viewBox="0 0 1570 605" width="1570px" zoomAndPan="magnify"><defs/><g><g id="NoAuth"><rect fill="#F1F1F1" height="50" rx="12.5" ry="12.5" style="stroke:#181818;stroke-width:0.5;" width="147.251" x="87" y="399"/><line style="stroke:#181818;stroke-width:0.5;" x1="87" x2="234.251" y1="425.2969" y2="425.2969"/><text fill="#000000" font-family="sans-serif" font-size="14" lengthAdjust="spacing" textLength="127.251" x="97" y="416.9951">SESION_CERRADA</text></g><g id="Menu"><rect fill="#F1F1F1" height="50" rx="12.5" ry="12.5" style="stroke:#181818;stroke-width:0.5;" width="172.0654" x="388" y="399"/><line style="stroke:#181818;stroke-width:0.5;" x1="388" x2="560.0654" y1="425.2969" y2="425.2969"/><text fill="#000000" font-family="sans-serif" font-size="14" lengthAdjust="spacing" textLength="152.0654" x="398" y="416.9951">SISTEMA_DISPONIBLE</text></g><g id="Planificacion"><rect fill="#F1F1F1" height="50" rx="12.5" ry="12.5" style="stroke:#181818;stroke-width:0.5;" width="195.8066" x="1045" y="173"/><line style="stroke:#181818;stroke-width:0.5;" x1="1045" x2="1240.8066" y1="199.2969" y2="199.2969"/><text fill="#000000" font-family="sans-serif" font-size="14" lengthAdjust="spacing" textLength="175.8066" x="1055" y="190.9951">PLANIFICACION_ABIERTO</text></g><g id="ListProgramas"><rect fill="#F1F1F1" height="50" rx="12.5" ry="12.5" style="stroke:#181818;stroke-width:0.5;" width="143.6211" x="749" y="419"/><line style="stroke:#181818;stroke-width:0.5;" x1="749" x2="892.6211" y1="445.2969" y2="445.2969"/><text fill="#000000" font-family="sans-serif" font-size="14" lengthAdjust="spacing" textLength="123.6211" x="759" y="436.9951">TAREAS_ABIERTO</text></g><g id="EditPrograma"><rect fill="#F1F1F1" height="50" rx="12.5" ry="12.5" style="stroke:#181818;stroke-width:0.5;" width="134.7344" x="1075.5" y="367"/><line style="stroke:#181818;stroke-width:0.5;" x1="1075.5" x2="1210.2344" y1="393.2969" y2="393.2969"/><text fill="#000000" font-family="sans-serif" font-size="14" lengthAdjust="spacing" textLength="114.7344" x="1085.5" y="384.9951">TAREA_ABIERTO</text></g><g id="ListGrupos"><rect fill="#F1F1F1" height="50" rx="12.5" ry="12.5" style="stroke:#181818;stroke-width:0.5;" width="147.627" x="747" y="549"/><line style="stroke:#181818;stroke-width:0.5;" x1="747" x2="894.627" y1="575.2969" y2="575.2969"/><text fill="#000000" font-family="sans-serif" font-size="14" lengthAdjust="spacing" textLength="127.627" x="757" y="566.9951">GRUPOS_ABIERTO</text></g><g id="EditGrupo"><rect fill="#F1F1F1" height="50" rx="12.5" ry="12.5" style="stroke:#181818;stroke-width:0.5;" width="138.7402" x="1073.5" y="542"/><line style="stroke:#181818;stroke-width:0.5;" x1="1073.5" x2="1212.2402" y1="568.2969" y2="568.2969"/><text fill="#000000" font-family="sans-serif" font-size="14" lengthAdjust="spacing" textLength="118.7402" x="1083.5" y="559.9951">GRUPO_ABIERTO</text></g><g id="EditMiembro"><rect fill="#F1F1F1" height="50" rx="12.5" ry="12.5" style="stroke:#181818;stroke-width:0.5;" width="155.9395" x="1408" y="542"/><line style="stroke:#181818;stroke-width:0.5;" x1="1408" x2="1563.9395" y1="568.2969" y2="568.2969"/><text fill="#000000" font-family="sans-serif" font-size="14" lengthAdjust="spacing" textLength="135.9395" x="1418" y="559.9951">MIEMBRO_ABIERTO</text></g><ellipse cx="16" cy="424" fill="#222222" rx="10" ry="10" style="stroke:#222222;stroke-width:1;"/><!--link *start* to NoAuth--><g class="link" data-entity-1=".start." data-entity-2="NoAuth" data-source-line="17" data-uid="lnk3" id="link_.start._NoAuth"><path d="M26.35,424 C39.04,424 56.92,424 80.98,424" fill="none" id="*start*-to-NoAuth" style="stroke:#181818;stroke-width:1;"/><polygon fill="#181818" points="86.98,424,77.98,420,81.98,424,77.98,428,86.98,424" style="stroke:#181818;stroke-width:1;"/></g><!--link NoAuth to Menu--><g class="link" data-entity-1="NoAuth" data-entity-2="Menu" data-source-line="19" data-uid="lnk4" id="link_NoAuth_Menu"><path d="M234.14,424 C280.07,424 333.64,424 381.8,424" fill="none" id="NoAuth-to-Menu" style="stroke:#181818;stroke-width:1;"/><polygon fill="#181818" points="387.8,424,378.8,420,382.8,424,378.8,428,387.8,424" style="stroke:#181818;stroke-width:1;"/><text fill="#000000" font-family="sans-serif" font-size="13" lengthAdjust="spacing" textLength="92.5044" x="265" y="420.0669">iniciarSesion()</text></g><!--link Menu to NoAuth--><g class="link" data-entity-1="Menu" data-entity-2="NoAuth" data-source-line="21" data-uid="lnk5" id="link_Menu_NoAuth"><path d="M387.91,442.5 C370.83,446.21 358,449 358,449 C358,449 264,449 264,449 C264,449 256.7387,447.2334 239.9087,443.1234" fill="none" id="Menu-to-NoAuth" style="stroke:#181818;stroke-width:1;"/><polygon fill="#181818" points="234.08,441.7,241.8741,447.7209,238.9373,442.8862,243.772,439.9493,234.08,441.7" style="stroke:#181818;stroke-width:1;"/><text fill="#000000" font-family="sans-serif" font-size="13" lengthAdjust="spacing" textLength="92.1172" x="265" y="445.0669">cerrarSesion()</text></g><!--link Menu to ListProgramas--><g class="link" data-entity-1="Menu" data-entity-2="ListProgramas" data-source-line="22" data-uid="lnk6" id="link_Menu_ListProgramas"><path d="M560.32,427.53 C629.99,430.4 717,434 717,434 C717,434 725.0681,434.7797 742.7681,436.4997" fill="none" id="Menu-to-ListProgramas" style="stroke:#181818;stroke-width:1;"/><polygon fill="#181818" points="748.74,437.08,740.1691,432.2283,743.7634,436.5964,739.3953,440.1908,748.74,437.08" style="stroke:#181818;stroke-width:1;"/><text fill="#000000" font-family="sans-serif" font-size="13" lengthAdjust="spacing" textLength="84.6523" x="611.5" y="425.0669">abrirTareas()</text></g><!--link ListProgramas to Menu--><g class="link" data-entity-1="ListProgramas" data-entity-2="Menu" data-source-line="52" data-uid="lnk29" id="link_ListProgramas_Menu"><path d="M748.74,454.38 C731.04,456.96 717,459 717,459 C717,459 590,459 590,459 C590,459 581.5302,456.4164 563.0902,450.8064" fill="none" id="ListProgramas-to-Menu" style="stroke:#181818;stroke-width:1;"/><polygon fill="#181818" points="557.35,449.06,564.7961,455.5063,562.1335,450.5153,567.1246,447.8527,557.35,449.06" style="stroke:#181818;stroke-width:1;"/><text fill="#000000" font-family="sans-serif" font-size="13" lengthAdjust="spacing" textLength="125.9248" x="591" y="455.0669">completarGestion()</text></g><!--link Menu to ListGrupos--><g class="link" data-entity-1="Menu" data-entity-2="ListGrupos" data-source-line="23" data-uid="lnk7" id="link_Menu_ListGrupos"><path d="M523.1,449.1 C554.62,465.54 590,484 590,484 C590,484 682.2926,520.1135 750.3426,546.7435" fill="none" id="Menu-to-ListGrupos" style="stroke:#181818;stroke-width:1;"/><polygon fill="#181818" points="755.93,548.93,749.0066,541.9253,751.2738,547.1079,746.0912,549.3752,755.93,548.93" style="stroke:#181818;stroke-width:1;"/><text fill="#000000" font-family="sans-serif" font-size="13" lengthAdjust="spacing" textLength="87.2993" x="610" y="480.0669">abrirGrupos()</text></g><!--link ListGrupos to Menu--><g class="link" data-entity-1="ListGrupos" data-entity-2="Menu" data-source-line="53" data-uid="lnk30" id="link_ListGrupos_Menu"><path d="M746.91,568.28 C679.56,563.01 590,556 590,556 C590,556 534.2115,491.9638 500.8415,453.6638" fill="none" id="ListGrupos-to-Menu" style="stroke:#181818;stroke-width:1;"/><polygon fill="#181818" points="496.9,449.14,499.7964,458.5533,500.1846,452.9098,505.8281,453.298,496.9,449.14" style="stroke:#181818;stroke-width:1;"/><text fill="#000000" font-family="sans-serif" font-size="13" lengthAdjust="spacing" textLength="125.9248" x="591" y="552.0669">completarGestion()</text></g><!--link Menu to Planificacion--><g class="link" data-entity-1="Menu" data-entity-2="Planificacion" data-source-line="24" data-uid="lnk8" id="link_Menu_Planificacion"><path d="M490.27,398.64 C521.55,346.68 590,233 590,233 C590,233 880.522,214.5796 1038.912,204.5396" fill="none" id="Menu-to-Planificacion" style="stroke:#181818;stroke-width:1;"/><polygon fill="#181818" points="1044.9,204.16,1035.665,200.7374,1039.91,204.4763,1036.1711,208.7213,1044.9,204.16" style="stroke:#181818;stroke-width:1;"/><text fill="#000000" font-family="sans-serif" font-size="13" lengthAdjust="spacing" textLength="122.186" x="760" y="210.0669">abrirPlanificacion()</text></g><!--link Planificacion to Menu--><g class="link" data-entity-1="Planificacion" data-entity-2="Menu" data-source-line="54" data-uid="lnk31" id="link_Planificacion_Menu"><path d="M1054.34,223.08 C937.97,256.37 747,311 747,311 C747,311 621.0409,363.3281 540.9109,396.6181" fill="none" id="Planificacion-to-Menu" style="stroke:#181818;stroke-width:1;"/><polygon fill="#181818" points="535.37,398.92,545.2159,399.161,539.9874,397.0017,542.1466,391.7732,535.37,398.92" style="stroke:#181818;stroke-width:1;"/><text fill="#000000" font-family="sans-serif" font-size="13" lengthAdjust="spacing" textLength="125.9248" x="758.5" y="266.0669">completarGestion()</text></g><!--link Planificacion to Planificacion--><g class="link" data-entity-1="Planificacion" data-entity-2="Planificacion" data-source-line="26" data-uid="lnk9" id="link_Planificacion_Planificacion"><path d="M1135.72,172.72 C1133.52,155.23 1135.95,138 1143,138 C1150.05,138 1153.2288,149.2769 1151.0288,166.7669" fill="none" id="Planificacion-to-Planificacion" style="stroke:#181818;stroke-width:1;"/><polygon fill="#181818" points="1150.28,172.72,1155.372,164.2896,1150.904,167.7591,1147.4345,163.2912,1150.28,172.72" style="stroke:#181818;stroke-width:1;"/><text fill="#000000" font-family="sans-serif" font-size="13" lengthAdjust="spacing" textLength="126.2803" x="1080" y="129.0669">establecerHorario()</text></g><!--link Planificacion to Planificacion--><g class="link" data-entity-1="Planificacion" data-entity-2="Planificacion" data-source-line="27" data-uid="lnk10" id="link_Planificacion_Planificacion"><path d="M1131.7,172.7 C1122.6,140.89 1126.37,103 1143,103 C1159.63,103 1165.0502,135.1214 1155.9502,166.9314" fill="none" id="Planificacion-to-Planificacion-1" style="stroke:#181818;stroke-width:1;"/><polygon fill="#181818" points="1154.3,172.7,1160.6211,165.1473,1155.6752,167.8928,1152.9296,162.9469,1154.3,172.7" style="stroke:#181818;stroke-width:1;"/><text fill="#000000" font-family="sans-serif" font-size="13" lengthAdjust="spacing" textLength="131.0537" x="1077.5" y="94.0669">definirLocalizacion()</text></g><!--link Planificacion to Planificacion--><g class="link" data-entity-1="Planificacion" data-entity-2="Planificacion" data-source-line="28" data-uid="lnk11" id="link_Planificacion_Planificacion"><path d="M1129.35,172.79 C1111.68,127.72 1116.23,68 1143,68 C1169.77,68 1176.51,122.134 1158.84,167.204" fill="none" id="Planificacion-to-Planificacion-2" style="stroke:#181818;stroke-width:1;"/><polygon fill="#181818" points="1156.65,172.79,1163.6591,165.871,1158.475,168.135,1156.211,162.9509,1156.65,172.79" style="stroke:#181818;stroke-width:1;"/><text fill="#000000" font-family="sans-serif" font-size="13" lengthAdjust="spacing" textLength="160.4751" x="1063" y="59.0669">configurarRecordatorio()</text></g><!--link Planificacion to Planificacion--><g class="link" data-entity-1="Planificacion" data-entity-2="Planificacion" data-source-line="29" data-uid="lnk12" id="link_Planificacion_Planificacion"><path d="M1127.77,172.78 C1100.8,114.98 1105.88,33 1143,33 C1180.12,33 1187.7371,109.5428 1160.7671,167.3428" fill="none" id="Planificacion-to-Planificacion-3" style="stroke:#181818;stroke-width:1;"/><polygon fill="#181818" points="1158.23,172.78,1165.6604,166.3155,1160.3442,168.249,1158.4108,162.9328,1158.23,172.78" style="stroke:#181818;stroke-width:1;"/><text fill="#000000" font-family="sans-serif" font-size="13" lengthAdjust="spacing" textLength="153.8101" x="1066.5" y="24.0669">asignarTareaAUsuario()</text></g><!--link ListProgramas to EditPrograma--><g class="link" data-entity-1="ListProgramas" data-entity-2="EditPrograma" data-source-line="31" data-uid="lnk13" id="link_ListProgramas_EditPrograma"><path d="M860.06,418.87 C889.4,399.5 925,376 925,376 C925,376 1015,376 1015,376 C1015,376 1038.6072,378.9688 1069.1972,382.8288" fill="none" id="ListProgramas-to-EditPrograma" style="stroke:#181818;stroke-width:1;"/><polygon fill="#181818" points="1075.15,383.58,1066.7216,378.4847,1070.1893,382.954,1065.72,386.4218,1075.15,383.58" style="stroke:#181818;stroke-width:1;"/><text fill="#000000" font-family="sans-serif" font-size="13" lengthAdjust="spacing" textLength="81.1611" x="929.5" y="372.0669">crearTarea()</text></g><!--link ListProgramas to EditPrograma--><g class="link" data-entity-1="ListProgramas" data-entity-2="EditPrograma" data-source-line="32" data-uid="lnk14" id="link_ListProgramas_EditPrograma"><path d="M893.02,432.46 C947.43,423.62 1016.0476,412.4621 1069.3576,403.8021" fill="none" id="ListProgramas-to-EditPrograma-1" style="stroke:#181818;stroke-width:1;"/><polygon fill="#181818" points="1075.28,402.84,1065.7551,400.3349,1070.3447,403.6417,1067.0378,408.2313,1075.28,402.84" style="stroke:#181818;stroke-width:1;"/><text fill="#000000" font-family="sans-serif" font-size="13" lengthAdjust="spacing" textLength="85.6299" x="927.5" y="410.0669">editarTarea()</text></g><!--link EditPrograma to ListProgramas--><g class="link" data-entity-1="EditPrograma" data-entity-2="ListProgramas" data-source-line="38" data-uid="lnk19" id="link_EditPrograma_ListProgramas"><path d="M1085.57,417.01 C1064.24,426.47 1045,435 1045,435 C1045,435 1015,452 1015,452 C1015,452 925,452 925,452 C925,452 916.9418,451.3764 899.2418,449.9964" fill="none" id="EditPrograma-to-ListProgramas" style="stroke:#181818;stroke-width:1;"/><polygon fill="#181818" points="893.26,449.53,901.9218,454.2175,898.2449,449.9187,902.5437,446.2417,893.26,449.53" style="stroke:#181818;stroke-width:1;"/><text fill="#000000" font-family="sans-serif" font-size="13" lengthAdjust="spacing" textLength="84.6523" x="928" y="448.0669">abrirTareas()</text></g><!--link ListProgramas to ListProgramas--><g class="link" data-entity-1="ListProgramas" data-entity-2="ListProgramas" data-source-line="33" data-uid="lnk15" id="link_ListProgramas_ListProgramas"><path d="M808.48,418.72 C804.69,401.23 808.86,384 821,384 C833.14,384 838.5807,395.3661 834.7907,412.8561" fill="none" id="ListProgramas-to-ListProgramas" style="stroke:#181818;stroke-width:1;"/><polygon fill="#181818" points="833.52,418.72,839.3353,410.7713,834.5789,413.8334,831.5168,409.077,833.52,418.72" style="stroke:#181818;stroke-width:1;"/><text fill="#000000" font-family="sans-serif" font-size="13" lengthAdjust="spacing" textLength="100.4072" x="771" y="375.0669">eliminarTarea()</text></g><!--link ListProgramas to ListProgramas--><g class="link" data-entity-1="ListProgramas" data-entity-2="ListProgramas" data-source-line="34" data-uid="lnk16" id="link_ListProgramas_ListProgramas"><path d="M801.55,418.7 C785.9,386.89 792.38,349 821,349 C849.62,349 858.7487,381.5063 843.0987,413.3163" fill="none" id="ListProgramas-to-ListProgramas-1" style="stroke:#181818;stroke-width:1;"/><polygon fill="#181818" points="840.45,418.7,848.0122,412.3902,842.6572,414.2136,840.8339,408.8586,840.45,418.7" style="stroke:#181818;stroke-width:1;"/><text fill="#000000" font-family="sans-serif" font-size="13" lengthAdjust="spacing" textLength="135.4146" x="753.5" y="340.0669">marcarCompletada()</text></g><!--link ListProgramas to EditGrupo--><g class="link" data-entity-1="ListProgramas" data-entity-2="EditGrupo" data-source-line="35" data-uid="lnk17" id="link_ListProgramas_EditGrupo"><path d="M887.14,469.04 C942.51,490.32 1015.9996,518.5669 1071.3496,539.8469" fill="none" id="ListProgramas-to-EditGrupo" style="stroke:#181818;stroke-width:1;"/><polygon fill="#181818" points="1076.95,542,1069.9849,535.0367,1072.283,540.2057,1067.114,542.5039,1076.95,542" style="stroke:#181818;stroke-width:1;"/><text fill="#000000" font-family="sans-serif" font-size="13" lengthAdjust="spacing" textLength="88.2769" x="926" y="479.0669">editarGrupo()</text></g><!--link EditPrograma to EditPrograma--><g class="link" data-entity-1="EditPrograma" data-entity-2="EditPrograma" data-source-line="37" data-uid="lnk18" id="link_EditPrograma_EditPrograma"><path d="M1128.45,366.72 C1124.04,349.23 1128.89,332 1143,332 C1157.11,332 1163.427,343.4121 1159.017,360.9021" fill="none" id="EditPrograma-to-EditPrograma" style="stroke:#181818;stroke-width:1;"/><polygon fill="#181818" points="1157.55,366.72,1163.629,358.9711,1158.7725,361.8717,1155.8718,357.0152,1157.55,366.72" style="stroke:#181818;stroke-width:1;"/><text fill="#000000" font-family="sans-serif" font-size="13" lengthAdjust="spacing" textLength="85.6299" x="1100.5" y="323.0669">editarTarea()</text></g><!--link EditPrograma to EditPrograma--><g class="link" data-entity-1="EditPrograma" data-entity-2="EditPrograma" data-source-line="39" data-uid="lnk20" id="link_EditPrograma_EditPrograma"><path d="M1120.4,366.7 C1102.21,334.89 1109.74,297 1143,297 C1176.26,297 1186.7684,329.6814 1168.5784,361.4914" fill="none" id="EditPrograma-to-EditPrograma-1" style="stroke:#181818;stroke-width:1;"/><polygon fill="#181818" points="1165.6,366.7,1173.54,360.8728,1168.082,362.3595,1166.5953,356.9016,1165.6,366.7" style="stroke:#181818;stroke-width:1;"/><text fill="#000000" font-family="sans-serif" font-size="13" lengthAdjust="spacing" textLength="119.3169" x="1083.5" y="288.0669">relacionarTareas()</text></g><!--link ListGrupos to EditGrupo--><g class="link" data-entity-1="ListGrupos" data-entity-2="EditGrupo" data-source-line="41" data-uid="lnk21" id="link_ListGrupos_EditGrupo"><path d="M895.01,572.4 C948.6,571.23 1014.8914,569.7813 1067.4114,568.6313" fill="none" id="ListGrupos-to-EditGrupo" style="stroke:#181818;stroke-width:1;"/><polygon fill="#181818" points="1073.41,568.5,1064.3246,564.698,1068.4112,568.6095,1064.4997,572.6961,1073.41,568.5" style="stroke:#181818;stroke-width:1;"/><text fill="#000000" font-family="sans-serif" font-size="13" lengthAdjust="spacing" textLength="88.2769" x="926" y="565.0669">editarGrupo()</text></g><!--link EditGrupo to ListGrupos--><g class="link" data-entity-1="EditGrupo" data-entity-2="ListGrupos" data-source-line="44" data-uid="lnk23" id="link_EditGrupo_ListGrupos"><path d="M1073.3,582.69 C1043.37,589.52 1015,596 1015,596 C1015,596 925,596 925,596 C925,596 917.8579,594.4719 901.0779,590.8919" fill="none" id="EditGrupo-to-ListGrupos" style="stroke:#181818;stroke-width:1;"/><polygon fill="#181818" points="895.21,589.64,903.1773,595.4298,900.0999,590.6833,904.8465,587.6059,895.21,589.64" style="stroke:#181818;stroke-width:1;"/><text fill="#000000" font-family="sans-serif" font-size="13" lengthAdjust="spacing" textLength="87.2993" x="926.5" y="592.0669">abrirGrupos()</text></g><!--link ListGrupos to ListGrupos--><g class="link" data-entity-1="ListGrupos" data-entity-2="ListGrupos" data-source-line="42" data-uid="lnk22" id="link_ListGrupos_ListGrupos"><path d="M795.96,548.72 C788.37,531.23 796.72,514 821,514 C845.28,514 856.0186,525.7259 848.4286,543.2159" fill="none" id="ListGrupos-to-ListGrupos" style="stroke:#181818;stroke-width:1;"/><polygon fill="#181818" points="846.04,548.72,853.2922,542.0563,848.0305,544.1333,845.9535,538.8715,846.04,548.72" style="stroke:#181818;stroke-width:1;"/><text fill="#000000" font-family="sans-serif" font-size="13" lengthAdjust="spacing" textLength="87.2993" x="777.5" y="505.0669">abrirGrupos()</text></g><!--link EditGrupo to EditGrupo--><g class="link" data-entity-1="EditGrupo" data-entity-2="EditGrupo" data-source-line="45" data-uid="lnk24" id="link_EditGrupo_EditGrupo"><path d="M1128.45,541.72 C1124.04,524.23 1128.89,507 1143,507 C1157.11,507 1163.427,518.4121 1159.017,535.9021" fill="none" id="EditGrupo-to-EditGrupo" style="stroke:#181818;stroke-width:1;"/><polygon fill="#181818" points="1157.55,541.72,1163.629,533.9711,1158.7725,536.8717,1155.8718,532.0152,1157.55,541.72" style="stroke:#181818;stroke-width:1;"/><text fill="#000000" font-family="sans-serif" font-size="13" lengthAdjust="spacing" textLength="88.2769" x="1099" y="498.0669">editarGrupo()</text></g><!--link EditGrupo to EditGrupo--><g class="link" data-entity-1="EditGrupo" data-entity-2="EditGrupo" data-source-line="46" data-uid="lnk25" id="link_EditGrupo_EditGrupo"><path d="M1120.4,541.7 C1102.21,509.89 1109.74,472 1143,472 C1176.26,472 1186.7684,504.6814 1168.5784,536.4914" fill="none" id="EditGrupo-to-EditGrupo-1" style="stroke:#181818;stroke-width:1;"/><polygon fill="#181818" points="1165.6,541.7,1173.54,535.8728,1168.082,537.3595,1166.5953,531.9016,1165.6,541.7" style="stroke:#181818;stroke-width:1;"/><text fill="#000000" font-family="sans-serif" font-size="13" lengthAdjust="spacing" textLength="101.1118" x="1092.5" y="463.0669">invitarUsuario()</text></g><!--link EditGrupo to EditMiembro--><g class="link" data-entity-1="EditGrupo" data-entity-2="EditMiembro" data-source-line="47" data-uid="lnk26" id="link_EditGrupo_EditMiembro"><path d="M1212.6,567 C1269.09,567 1343.17,567 1401.89,567" fill="none" id="EditGrupo-to-EditMiembro" style="stroke:#181818;stroke-width:1;"/><polygon fill="#181818" points="1407.89,567,1398.89,563,1402.89,567,1398.89,571,1407.89,567" style="stroke:#181818;stroke-width:1;"/><text fill="#000000" font-family="sans-serif" font-size="13" lengthAdjust="spacing" textLength="105.4536" x="1272" y="563.0669">editarMiembro()</text></g><!--link EditMiembro to EditGrupo--><g class="link" data-entity-1="EditMiembro" data-entity-2="EditGrupo" data-source-line="49" data-uid="lnk27" id="link_EditMiembro_EditGrupo"><path d="M1407.81,585.04 C1390.93,588.98 1378,592 1378,592 C1378,592 1271,592 1271,592 C1271,592 1248.5171,587.5685 1218.5871,581.6785" fill="none" id="EditMiembro-to-EditGrupo" style="stroke:#181818;stroke-width:1;"/><polygon fill="#181818" points="1212.7,580.52,1220.7583,586.1825,1217.6059,581.4854,1222.303,578.3331,1212.7,580.52" style="stroke:#181818;stroke-width:1;"/><text fill="#000000" font-family="sans-serif" font-size="13" lengthAdjust="spacing" textLength="88.2769" x="1280.5" y="588.0669">editarGrupo()</text></g><!--link EditMiembro to EditMiembro--><g class="link" data-entity-1="EditMiembro" data-entity-2="EditMiembro" data-source-line="50" data-uid="lnk28" id="link_EditMiembro_EditMiembro"><path d="M1458.93,541.72 C1450.73,524.23 1459.75,507 1486,507 C1512.25,507 1523.817,518.7974 1515.617,536.2874" fill="none" id="EditMiembro-to-EditMiembro" style="stroke:#181818;stroke-width:1;"/><polygon fill="#181818" points="1513.07,541.72,1520.5122,535.2692,1515.1925,537.1929,1513.2688,531.8731,1513.07,541.72" style="stroke:#181818;stroke-width:1;"/><text fill="#000000" font-family="sans-serif" font-size="13" lengthAdjust="spacing" textLength="105.4536" x="1433.5" y="498.0669">editarMiembro()</text></g><!--SRC=[bPJFZfim4CRlF8MrfxRIli0UAZbPcYA5147sL5Mh2JZPKOsDR5Df-_Ir-Hl34jeJ6kitttmUpy3PnH0ZYSBhco45AfORb2BGlr1KeA0a70KpxnKZbUJlBWW2RS0myf25MNGyl6x3DANFz8609WT9Q_Cs055s2cFw-XnboV4GRVPX0yLCr8D8igU7w5kqfLkdHJTHc9wE3PPm47Z1779dgETFD0rfve5xr2PHychTWlOu3miB7B11RfU-9CUvt4xLbTGUDDDgc44eZi9uaywf65bvLfRxyUKdUNpyshSeQB_DaMi8UI8eC4TG6TFsmfy-1q5pFkPO96TAtH03uBNWYS1PeJg1Og2dL7kp3cc34R6Cr_KEyywSCU-0V936R5VEd5cxtwKrZD9chIOLx69ReFOo1uv_-cAhQRaK5xpMjapASgaACF8V2uB6gu2sKVH5rvtHmEjcatWxExQYvTiiIw_1p4RtwCdJCOubYlz8A47beBQoh3WpK2nRQXwxzzC4xgwtPbVTp-2xSxSYhHXltW76Z62SqFks9zpoO0U3n0heSuk55p4KlnqtJj6Sx7u5lMGNzYQxSBty55oMdS-1stEtCUsmg9tTqtRB9WrTvEOxjOJ-1G00]--></g></svg>