<svg xmlns="http://www.w3.org/2000/svg" xmlns:xlink="http://www.w3.org/1999/xlink" contentStyleType="text/css" data-diagram-type="STATE" height="80px" preserveAspectRatio="none" style="width:1037px;height:80px;background:#FFFFFF;" version="1.1" viewBox="0 0 1037 80" width="1037px" zoomAndPan="magnify"><defs/><g><g id="Menu"><rect fill="#F1F1F1" height="50" rx="12.5" ry="12.5" style="stroke:#181818;stroke-width:0.5;" width="172.0654" x="87" y="16.5659"/><line style="stroke:#181818;stroke-width:0.5;" x1="87" x2="259.0654" y1="42.8628" y2="42.8628"/><text fill="#000000" font-family="sans-serif" font-size="14" lengthAdjust="spacing" textLength="152.0654" x="97" y="34.561">SISTEMA_DISPONIBLE</text></g><g id="Auto"><rect fill="#F1F1F1" height="50" rx="12.5" ry="12.5" style="stroke:#181818;stroke-width:0.5;" width="206.4844" x="471.07" y="16.5659"/><line style="stroke:#181818;stroke-width:0.5;" x1="471.07" x2="677.5544" y1="42.8628" y2="42.8628"/><text fill="#000000" font-family="sans-serif" font-size="14" lengthAdjust="spacing" textLength="186.4844" x="481.07" y="34.561">AUTOMATIZACION_ACTIVA</text></g><g id="Conflict"><rect fill="#F1F1F1" height="50" rx="12.5" ry="12.5" style="stroke:#181818;stroke-width:0.5;" width="169.0508" x="861.55" y="16.5659"/><line style="stroke:#181818;stroke-width:0.5;" x1="861.55" x2="1030.6008" y1="42.8628" y2="42.8628"/><text fill="#000000" font-family="sans-serif" font-size="14" lengthAdjust="spacing" textLength="149.0508" x="871.55" y="34.561">CONFLICTO_ABIERTO</text></g><ellipse cx="16" cy="41.5659" fill="#222222" rx="10" ry="10" style="stroke:#222222;stroke-width:1;"/><!--link *start* to Menu--><g class="link" data-entity-1=".start." data-entity-2="Menu" data-link-type="dependency" data-source-line="9" data-uid="lnk3" id="link_.start._Menu"><path d="M26.23,41.5659 C38.68,41.5659 56.14,41.5659 80.65,41.5659" fill="none" id="*start*-to-Menu" style="stroke:#181818;stroke-width:1;"/><polygon fill="#181818" points="86.65,41.5659,77.65,37.5659,81.65,41.5659,77.65,45.5659,86.65,41.5659" style="stroke:#181818;stroke-width:1;"/></g><!--link Menu to Auto--><g class="link" data-entity-1="Menu" data-entity-2="Auto" data-link-type="dependency" data-source-line="11" data-uid="lnk4" id="link_Menu_Auto"><path d="M259.2,41.5659 C321.04,41.5659 399,41.5659 464.57,41.5659" fill="none" id="Menu-to-Auto" style="stroke:#181818;stroke-width:1;"/><polygon fill="#181818" points="470.57,41.5659,461.57,37.5659,465.57,41.5659,461.57,45.5659,470.57,41.5659" style="stroke:#181818;stroke-width:1;"/><text fill="#000000" font-family="sans-serif" font-size="13" lengthAdjust="spacing" textLength="150.9409" x="290.07" y="37.6328">iniciarAutomatizacion()</text></g><!--link Auto to Menu--><g class="link" data-entity-1="Auto" data-entity-2="Menu" data-link-type="dependency" data-source-line="18" data-uid="lnk8" id="link_Auto_Menu"><path d="M470.74,60.9559 C453.5,64.2159 441.07,66.5659 441.07,66.5659 C441.07,66.5659 289.07,66.5659 289.07,66.5659 C289.07,66.5659 282.2432,65.0796 265.3032,61.3996" fill="none" id="Auto-to-Menu" style="stroke:#181818;stroke-width:1;"/><polygon fill="#181818" points="259.44,60.1259,267.3857,65.9453,264.326,61.1873,269.084,58.1277,259.44,60.1259" style="stroke:#181818;stroke-width:1;"/><text fill="#000000" font-family="sans-serif" font-size="13" lengthAdjust="spacing" textLength="93.7295" x="318.57" y="62.6328">volverAInicio()</text></g><!--link Auto to Conflict--><g class="link" data-entity-1="Auto" data-entity-2="Conflict" data-link-type="dependency" data-source-line="13" data-uid="lnk5" id="link_Auto_Conflict"><path d="M677.87,27.6059 C695.12,25.2559 707.55,23.5659 707.55,23.5659 C707.55,23.5659 831.55,23.5659 831.55,23.5659 C831.55,23.5659 838.2838,24.638 855.1538,27.308" fill="none" id="Auto-to-Conflict" style="stroke:#181818;stroke-width:1;"/><polygon fill="#181818" points="861.08,28.2459,852.8159,22.8882,856.1415,27.4643,851.5654,30.7898,861.08,28.2459" style="stroke:#181818;stroke-width:1;"/><text fill="#000000" font-family="sans-serif" font-size="13" lengthAdjust="spacing" textLength="122.313" x="708.55" y="19.6328">detectarConflicto()</text></g><!--link Conflict to Auto--><g class="link" data-entity-1="Conflict" data-entity-2="Auto" data-link-type="dependency" data-source-line="15" data-uid="lnk6" id="link_Conflict_Auto"><path d="M861.08,46.7459 C844.21,47.7859 831.55,48.5659 831.55,48.5659 C831.55,48.5659 707.55,48.5659 707.55,48.5659 C707.55,48.5659 701.1117,48.222 683.8617,47.312" fill="none" id="Conflict-to-Auto" style="stroke:#181818;stroke-width:1;"/><polygon fill="#181818" points="677.87,46.9959,686.6468,51.4645,682.8631,47.2593,687.0682,43.4756,677.87,46.9959" style="stroke:#181818;stroke-width:1;"/><text fill="#000000" font-family="sans-serif" font-size="13" lengthAdjust="spacing" textLength="114.1245" x="712.55" y="44.6328">ignorarConflicto()</text></g><!--link Conflict to Auto--><g class="link" data-entity-1="Conflict" data-entity-2="Auto" data-link-type="dependency" data-source-line="16" data-uid="lnk7" id="link_Conflict_Auto"><path d="M861.08,65.2459 C844.21,69.9959 831.55,73.5659 831.55,73.5659 C831.55,73.5659 707.55,73.5659 707.55,73.5659 C707.55,73.5659 700.952,71.9657 683.702,67.7957" fill="none" id="Conflict-to-Auto-1" style="stroke:#181818;stroke-width:1;"/><polygon fill="#181818" points="677.87,66.3859,685.6781,72.3887,682.73,67.5608,687.5579,64.6126,677.87,66.3859" style="stroke:#181818;stroke-width:1;"/><text fill="#000000" font-family="sans-serif" font-size="13" lengthAdjust="spacing" textLength="120.1294" x="709.55" y="69.6328">resolverConflicto()</text></g><!--SRC=[RO_1QiCm38RlVWhHqpRe2-GmSBqC34rS6g-7bX5CwdPYhXqSjT0z_MBJb1Ls4VpInoV9sGC11OXu_2BOOxGTOV1i-4RVcsXEuD1RklOM-k2kAJ0sa24BiqOskgnu-oQRbQhbObdEm0nGMN- -C_n3gufhkUL2ghhbGiiDpnW_KvWeeUhtfHHQjNmXoxLMcH317nnsnDZkvHFcyzUREjKSaw80zDYXYIcS3E6FwSO7dfuPIvtCJQ82zfR61qsSEY5nK_ZhFFeG7x5_g6Y7u2xsqNRVciuiu989BjEHu_mN]--></g></svg>