<svg xmlns="http://www.w3.org/2000/svg" xmlns:xlink="http://www.w3.org/1999/xlink" contentStyleType="text/css" data-diagram-type="STATE" height="224px" preserveAspectRatio="none" style="width:1292px;height:224px;background:#FFFFFF;" version="1.1" viewBox="0 0 1292 224" width="1292px" zoomAndPan="magnify"><defs/><g><g id="NoAuth"><rect fill="#F1F1F1" height="50" rx="12.5" ry="12.5" style="stroke:#181818;stroke-width:0.5;" width="147.251" x="87" y="118"/><line style="stroke:#181818;stroke-width:0.5;" x1="87" x2="234.251" y1="144.2969" y2="144.2969"/><text fill="#000000" font-family="sans-serif" font-size="14" lengthAdjust="spacing" textLength="127.251" x="97" y="135.9951">SESION_CERRADA</text></g><g id="Menu"><rect fill="#F1F1F1" height="50" rx="12.5" ry="12.5" style="stroke:#181818;stroke-width:0.5;" width="172.0654" x="388" y="118"/><line style="stroke:#181818;stroke-width:0.5;" x1="388" x2="560.0654" y1="144.2969" y2="144.2969"/><text fill="#000000" font-family="sans-serif" font-size="14" lengthAdjust="spacing" textLength="152.0654" x="398" y="135.9951">SISTEMA_DISPONIBLE</text></g><g id="ListProgramas"><rect fill="#F1F1F1" height="50" rx="12.5" ry="12.5" style="stroke:#181818;stroke-width:0.5;" width="143.6211" x="769" y="68"/><line style="stroke:#181818;stroke-width:0.5;" x1="769" x2="912.6211" y1="94.2969" y2="94.2969"/><text fill="#000000" font-family="sans-serif" font-size="14" lengthAdjust="spacing" textLength="123.6211" x="779" y="85.9951">TAREAS_ABIERTO</text></g><g id="ListInvitaciones"><rect fill="#F1F1F1" height="50" rx="12.5" ry="12.5" style="stroke:#181818;stroke-width:0.5;" width="188.0205" x="747" y="167"/><line style="stroke:#181818;stroke-width:0.5;" x1="747" x2="935.0205" y1="193.2969" y2="193.2969"/><text fill="#000000" font-family="sans-serif" font-size="14" lengthAdjust="spacing" textLength="168.0205" x="757" y="184.9951">INVITACIONES_ABIERTO</text></g><g id="EditInvitacion"><rect fill="#F1F1F1" height="50" rx="12.5" ry="12.5" style="stroke:#181818;stroke-width:0.5;" width="170.2881" x="1115" y="167"/><line style="stroke:#181818;stroke-width:0.5;" x1="1115" x2="1285.2881" y1="193.2969" y2="193.2969"/><text fill="#000000" font-family="sans-serif" font-size="14" lengthAdjust="spacing" textLength="150.2881" x="1125" y="184.9951">INVITACION_ABIERTO</text></g><ellipse cx="16" cy="143" fill="#222222" rx="10" ry="10" style="stroke:#222222;stroke-width:1;"/><!--link *start* to NoAuth--><g class="link" data-entity-1=".start." data-entity-2="NoAuth" data-source-line="12" data-uid="lnk3" id="link_.start._NoAuth"><path d="M26.35,143 C39.04,143 56.92,143 80.98,143" fill="none" id="*start*-to-NoAuth" style="stroke:#181818;stroke-width:1;"/><polygon fill="#181818" points="86.98,143,77.98,139,81.98,143,77.98,147,86.98,143" style="stroke:#181818;stroke-width:1;"/></g><!--link NoAuth to Menu--><g class="link" data-entity-1="NoAuth" data-entity-2="Menu" data-source-line="14" data-uid="lnk4" id="link_NoAuth_Menu"><path d="M234.14,143 C280.07,143 333.64,143 381.8,143" fill="none" id="NoAuth-to-Menu" style="stroke:#181818;stroke-width:1;"/><polygon fill="#181818" points="387.8,143,378.8,139,382.8,143,378.8,147,387.8,143" style="stroke:#181818;stroke-width:1;"/><text fill="#000000" font-family="sans-serif" font-size="13" lengthAdjust="spacing" textLength="92.5044" x="265" y="139.0669">iniciarSesion()</text></g><!--link Menu to NoAuth--><g class="link" data-entity-1="Menu" data-entity-2="NoAuth" data-source-line="16" data-uid="lnk5" id="link_Menu_NoAuth"><path d="M387.91,161.5 C370.83,165.21 358,168 358,168 C358,168 264,168 264,168 C264,168 256.7387,166.2334 239.9087,162.1234" fill="none" id="Menu-to-NoAuth" style="stroke:#181818;stroke-width:1;"/><polygon fill="#181818" points="234.08,160.7,241.8741,166.7209,238.9373,161.8862,243.772,158.9493,234.08,160.7" style="stroke:#181818;stroke-width:1;"/><text fill="#000000" font-family="sans-serif" font-size="13" lengthAdjust="spacing" textLength="92.1172" x="265" y="164.0669">cerrarSesion()</text></g><!--link Menu to ListProgramas--><g class="link" data-entity-1="Menu" data-entity-2="ListProgramas" data-source-line="17" data-uid="lnk6" id="link_Menu_ListProgramas"><path d="M536.2,117.99 C563.67,106.76 590,96 590,96 C590,96 688.8004,94.8115 762.6904,93.9315" fill="none" id="Menu-to-ListProgramas" style="stroke:#181818;stroke-width:1;"/><polygon fill="#181818" points="768.69,93.86,759.643,89.9675,763.6904,93.9195,759.7383,97.9669,768.69,93.86" style="stroke:#181818;stroke-width:1;"/><text fill="#000000" font-family="sans-serif" font-size="13" lengthAdjust="spacing" textLength="84.6523" x="611.5" y="91.0669">abrirTareas()</text></g><!--link ListProgramas to Menu--><g class="link" data-entity-1="ListProgramas" data-entity-2="Menu" data-source-line="21" data-uid="lnk9" id="link_ListProgramas_Menu"><path d="M768.81,109.21 C741.61,115.4 717,121 717,121 C717,121 635.9654,128.3671 566.2954,134.6971" fill="none" id="ListProgramas-to-Menu" style="stroke:#181818;stroke-width:1;"/><polygon fill="#181818" points="560.32,135.24,569.645,138.4092,565.2995,134.7876,568.9211,130.4421,560.32,135.24" style="stroke:#181818;stroke-width:1;"/><text fill="#000000" font-family="sans-serif" font-size="13" lengthAdjust="spacing" textLength="125.9248" x="591" y="117.0669">completarGestion()</text></g><!--link Menu to ListInvitaciones--><g class="link" data-entity-1="Menu" data-entity-2="ListInvitaciones" data-source-line="18" data-uid="lnk7" id="link_Menu_ListInvitaciones"><path d="M560.09,165.94 C577.17,170.54 590,174 590,174 C590,174 669.8455,179.7489 740.9255,184.8689" fill="none" id="Menu-to-ListInvitaciones" style="stroke:#181818;stroke-width:1;"/><polygon fill="#181818" points="746.91,185.3,738.2206,180.6637,741.9229,184.9408,737.6459,188.6431,746.91,185.3" style="stroke:#181818;stroke-width:1;"/><text fill="#000000" font-family="sans-serif" font-size="13" lengthAdjust="spacing" textLength="118.8281" x="594.5" y="170.0669">abrirInvitaciones()</text></g><!--link ListInvitaciones to Menu--><g class="link" data-entity-1="ListInvitaciones" data-entity-2="Menu" data-source-line="24" data-uid="lnk11" id="link_ListInvitaciones_Menu"><path d="M746.77,204.13 C729.62,206.36 717,208 717,208 C717,208 590,208 590,208 C590,208 557.0434,189.3723 524.6834,171.0823" fill="none" id="ListInvitaciones-to-Menu" style="stroke:#181818;stroke-width:1;"/><polygon fill="#181818" points="519.46,168.13,525.3269,176.0407,523.8128,170.5902,529.2633,169.0762,519.46,168.13" style="stroke:#181818;stroke-width:1;"/><text fill="#000000" font-family="sans-serif" font-size="13" lengthAdjust="spacing" textLength="125.9248" x="591" y="204.0669">completarGestion()</text></g><!--link ListProgramas to ListProgramas--><g class="link" data-entity-1="ListProgramas" data-entity-2="ListProgramas" data-source-line="20" data-uid="lnk8" id="link_ListProgramas_ListProgramas"><path d="M809.87,67.72 C800.44,50.23 810.81,33 841,33 C871.19,33 884.4075,44.9487 874.9775,62.4387" fill="none" id="ListProgramas-to-ListProgramas" style="stroke:#181818;stroke-width:1;"/><polygon fill="#181818" points="872.13,67.72,879.9221,61.6964,874.5029,63.3189,872.8804,57.8998,872.13,67.72" style="stroke:#181818;stroke-width:1;"/><text fill="#000000" font-family="sans-serif" font-size="13" lengthAdjust="spacing" textLength="135.4146" x="773.5" y="24.0669">marcarCompletada()</text></g><!--link ListInvitaciones to EditInvitacion--><g class="link" data-entity-1="ListInvitaciones" data-entity-2="EditInvitacion" data-source-line="23" data-uid="lnk10" id="link_ListInvitaciones_EditInvitacion"><path d="M935.33,192 C990.9,192 1054.86,192 1108.75,192" fill="none" id="ListInvitaciones-to-EditInvitacion" style="stroke:#181818;stroke-width:1;"/><polygon fill="#181818" points="1114.75,192,1105.75,188,1109.75,192,1105.75,196,1114.75,192" style="stroke:#181818;stroke-width:1;"/><text fill="#000000" font-family="sans-serif" font-size="13" lengthAdjust="spacing" textLength="111.8076" x="969.5" y="188.0669">editarInvitacion()</text></g><!--link EditInvitacion to ListInvitaciones--><g class="link" data-entity-1="EditInvitacion" data-entity-2="ListInvitaciones" data-source-line="26" data-uid="lnk12" id="link_EditInvitacion_ListInvitaciones"><path d="M1114.95,210.43 C1097.87,214.18 1085,217 1085,217 C1085,217 965,217 965,217 C965,217 958.2602,215.6232 941.1102,212.1432" fill="none" id="EditInvitacion-to-ListInvitaciones" style="stroke:#181818;stroke-width:1;"/><polygon fill="#181818" points="935.23,210.95,943.2548,216.6599,940.1301,211.9443,944.8457,208.8197,935.23,210.95" style="stroke:#181818;stroke-width:1;"/><text fill="#000000" font-family="sans-serif" font-size="13" lengthAdjust="spacing" textLength="118.8281" x="966" y="213.0669">abrirInvitaciones()</text></g><!--link EditInvitacion to EditInvitacion--><g class="link" data-entity-1="EditInvitacion" data-entity-2="EditInvitacion" data-source-line="27" data-uid="lnk13" id="link_EditInvitacion_EditInvitacion"><path d="M1170.56,166.72 C1161.64,149.23 1171.45,132 1200,132 C1228.55,132 1241.086,143.885 1232.166,161.375" fill="none" id="EditInvitacion-to-EditInvitacion" style="stroke:#181818;stroke-width:1;"/><polygon fill="#181818" points="1229.44,166.72,1237.0923,160.5198,1231.7117,162.2658,1229.9656,156.8852,1229.44,166.72" style="stroke:#181818;stroke-width:1;"/><text fill="#000000" font-family="sans-serif" font-size="13" lengthAdjust="spacing" textLength="111.8076" x="1144.5" y="123.0669">editarInvitacion()</text></g><!--SRC=[bP31QiCm38RlVWhHqpRe2-GmS5Cp36rQah3B64LBjDOiJOBi3lhsSx8iIvgEifEH_FtwVwcWTmUk0ZRxWuFSC6NELAMm7wQiaV48XId9dMk2kYhEJI64TUW8PebAz2RQXIgEvLBE02r4bJovGm_e95LhkLlgPBk9z6AbMcXDvQaVaifOoMGd5rh5wQRzNndhjbpjlJlQ7jJHiqvbw1tL5DVbft6O-UHafu8Hhd8pm8LuUNY5-Vpn9xhuVjjM4nG2CAN93792rWlkxeLe-xyQZsJ4F21wOBHA0FZ6XbDaGdj93JVem66hiHqDkpR-Y9mXXzMnBiXXZbuqrJIkFd07yHDPrwrr6QF5n-SAW7oDWsYTnqJtjyruuZyES4LuEzqN]--></g></svg>