<svg xmlns="http://www.w3.org/2000/svg" xmlns:xlink="http://www.w3.org/1999/xlink" contentStyleType="text/css" data-diagram-type="STATE" height="731px" preserveAspectRatio="none" style="width:857px;height:731px;background:#FFFFFF;" version="1.1" viewBox="0 0 857 731" width="857px" zoomAndPan="magnify"><defs/><g><g id="Inicio"><rect fill="#FFFFFF" height="50" rx="12.5" ry="12.5" style="stroke:#000000;stroke-width:0.5;" width="147.251" x="352" y="7"/><line style="stroke:#000000;stroke-width:0.5;" x1="352" x2="499.251" y1="33.2969" y2="33.2969"/><text fill="#000000" font-family="sans-serif" font-size="14" lengthAdjust="spacing" textLength="127.251" x="362" y="24.9951">SESION_CERRADA</text></g><path d="M19.5,118 L831.43,118 A12.5,12.5 0 0 1 843.93,130.5 L843.93,144.2969 L7,144.2969 L7,130.5 A12.5,12.5 0 0 1 19.5,118" fill="#FFFFFF"/><rect fill="none" height="462.2969" rx="12.5" ry="12.5" style="stroke:#000000;stroke-width:0.5;" width="836.93" x="7" y="118"/><line style="stroke:#000000;stroke-width:0.5;" x1="7" x2="843.93" y1="144.2969" y2="144.2969"/><text fill="#000000" font-family="sans-serif" font-size="14" lengthAdjust="spacing" textLength="99.6201" x="375.6549" y="135.9951">iniciarSesion()</text><g id="IniciarSesionContainer.EstadoFormulario"><rect fill="#FFFFFF" height="50" rx="12.5" ry="12.5" style="stroke:#000000;stroke-width:0.5;" width="50" x="259.93" y="246.2969"/><line style="stroke:#000000;stroke-width:0.5;" x1="259.93" x2="309.93" y1="272.5938" y2="272.5938"/><text fill="#000000" font-family="sans-serif" font-size="14" lengthAdjust="spacing" textLength="4.4502" x="282.7049" y="264.292">&#160;</text></g><g id="IniciarSesionContainer.EstadoDecision"><rect fill="#FFFFFF" height="50" rx="12.5" ry="12.5" style="stroke:#000000;stroke-width:0.5;" width="50" x="259.93" y="427.2969"/><line style="stroke:#000000;stroke-width:0.5;" x1="259.93" x2="309.93" y1="453.5938" y2="453.5938"/><text fill="#000000" font-family="sans-serif" font-size="14" lengthAdjust="spacing" textLength="4.4502" x="282.7049" y="445.292">&#160;</text></g><ellipse cx="284.93" cy="165.2969" fill="#222222" rx="10" ry="10" style="stroke:#222222;stroke-width:1;"/><ellipse cx="284.93" cy="559.2969" fill="none" rx="11" ry="11" style="stroke:#222222;stroke-width:1;"/><ellipse cx="284.93" cy="559.2969" fill="#222222" rx="6" ry="6" style="stroke:#222222;stroke-width:1;"/><!--link *start*IniciarSesionContainer to EstadoFormulario--><g class="link" data-entity-1=".start.IniciarSesionContainer" data-entity-2="EstadoFormulario" data-source-line="29" data-uid="lnk3" id="link_.start.IniciarSesionContainer_EstadoFormulario"><path d="M284.93,175.5269 C284.93,191.2369 284.93,217.6569 284.93,240.1669" fill="none" id="*start*IniciarSesionContainer-to-EstadoFormulario" style="stroke:#009900;stroke-width:1;"/><polygon fill="#009900" points="284.93,246.1669,288.93,237.1669,284.93,241.1669,280.93,237.1669,284.93,246.1669" style="stroke:#009900;stroke-width:1;"/><path d="M289.93,198.2969 L289.93,223.2969 L505.93,223.2969 L505.93,208.2969 L495.93,198.2969 L289.93,198.2969" fill="#FFFFE0" style="stroke:#B0B060;stroke-width:0.5;"/><path d="M495.93,198.2969 L495.93,208.2969 L505.93,208.2969 L495.93,198.2969" fill="#FFFFE0" style="stroke:#B0B060;stroke-width:0.5;"/><text fill="#000000" font-family="Arial" font-size="13" font-weight="bold" lengthAdjust="spacing" textLength="56.1196" x="295.93" y="215.3638">Usuario</text><text fill="#000000" font-family="Arial" font-size="13" lengthAdjust="spacing" textLength="134.9194" x="356.182" y="215.3638">solicita iniciar sesi&#243;n</text></g><!--link EstadoFormulario to EstadoDecision--><g class="link" data-entity-1="EstadoFormulario" data-entity-2="EstadoDecision" data-source-line="34" data-uid="lnk4" id="link_EstadoFormulario_EstadoDecision"><path d="M259.74,273.6969 C210.64,277.0169 104.97,287.2069 82.93,314.2969 C56.29,347.0469 56.29,376.5469 82.93,409.2969 C104.97,436.3869 204.6537,446.1721 253.7537,449.4921" fill="none" id="EstadoFormulario-to-EstadoDecision" style="stroke:#009900;stroke-width:1;"/><polygon fill="#009900" points="259.74,449.8969,251.0304,445.2988,254.7514,449.5596,250.4907,453.2806,259.74,449.8969" style="stroke:#009900;stroke-width:1;"/><path d="M87.93,319.2969 L87.93,404.2969 L461.93,404.2969 L461.93,329.2969 L451.93,319.2969 L87.93,319.2969" fill="#FFFFE0" style="stroke:#B0B060;stroke-width:0.5;"/><path d="M451.93,319.2969 L451.93,329.2969 L461.93,329.2969 L451.93,319.2969" fill="#FFFFE0" style="stroke:#B0B060;stroke-width:0.5;"/><text fill="#000000" font-family="Arial" font-size="13" font-weight="bold" lengthAdjust="spacing" textLength="58.9063" x="93.93" y="336.3638">Sistema</text><text fill="#000000" font-family="Arial" font-size="13" lengthAdjust="spacing" textLength="253.6206" x="156.9686" y="336.3638">presenta formulario de inicio de sesi&#243;n</text><text fill="#000000" font-family="Arial" font-size="13" font-weight="bold" lengthAdjust="spacing" textLength="58.9063" x="93.93" y="351.4966">Sistema</text><text fill="#000000" font-family="Arial" font-size="13" lengthAdjust="spacing" textLength="110.5952" x="156.9686" y="351.4966">permite solicitar:</text><ellipse cx="99.43" cy="362.1953" fill="#000000" rx="2.5" ry="2.5"/><text fill="#000000" font-family="Arial" font-size="13" lengthAdjust="spacing" textLength="341.6563" x="105.93" y="366.6294">introducir credenciales (Usuario/email y contrase&#241;a)</text><ellipse cx="99.43" cy="377.3281" fill="#000000" rx="2.5" ry="2.5"/><text fill="#000000" font-family="Arial" font-size="13" lengthAdjust="spacing" textLength="101.1563" x="105.93" y="381.7622">confirmar inicio</text><ellipse cx="99.43" cy="392.4609" fill="#000000" rx="2.5" ry="2.5"/><text fill="#000000" font-family="Arial" font-size="13" lengthAdjust="spacing" textLength="93.7295" x="105.93" y="396.895">cancelar inicio</text></g><!--reverse link EstadoFormulario to EstadoDecision--><g class="link" data-entity-1="EstadoFormulario" data-entity-2="EstadoDecision" data-source-line="44" data-uid="lnk6" id="link_EstadoFormulario_EstadoDecision"><path d="M316.0641,274.8839 C361.3241,279.1039 447.6,289.9969 466.93,314.2969 C493.22,347.3369 493.22,376.2569 466.93,409.2969 C447.6,433.5969 355.35,445.0469 310.09,449.2669" fill="none" id="EstadoFormulario-backto-EstadoDecision" style="stroke:#008000;stroke-width:1;"/><polygon fill="#008000" points="310.09,274.3269,318.6798,279.1451,315.0684,274.7911,319.4225,271.1797,310.09,274.3269" style="stroke:#008000;stroke-width:1;"/><path d="M490.93,341.7969 L490.93,381.7969 L834.93,381.7969 L834.93,351.7969 L824.93,341.7969 L490.93,341.7969" fill="#FFFFE0" style="stroke:#B0B060;stroke-width:0.5;"/><path d="M824.93,341.7969 L824.93,351.7969 L834.93,351.7969 L824.93,341.7969" fill="#FFFFE0" style="stroke:#B0B060;stroke-width:0.5;"/><text fill="#000000" font-family="Arial" font-size="13" font-weight="bold" lengthAdjust="spacing" textLength="58.9063" x="496.93" y="358.8638">Sistema</text><text fill="#000000" font-family="Arial" font-size="13" lengthAdjust="spacing" textLength="205.6768" x="559.9686" y="358.8638">comunica error en credenciales</text><text fill="#000000" font-family="Arial" font-size="13" font-weight="bold" lengthAdjust="spacing" textLength="56.1196" x="496.93" y="373.9966">Usuario</text><text fill="#000000" font-family="Arial" font-size="13" lengthAdjust="spacing" textLength="263.6055" x="557.182" y="373.9966">solicita introducir credenciales de nuevo</text></g><!--link EstadoDecision to *end*IniciarSesionContainer--><g class="link" data-entity-1="EstadoDecision" data-entity-2=".end.IniciarSesionContainer" data-source-line="51" data-uid="lnk8" id="link_EstadoDecision_.end.IniciarSesionContainer"><path d="M259.59,453.9169 C192.32,456.4069 18,468.8069 71.93,530.2969 C98.68,560.7869 227.7319,559.8298 267.7419,558.8098" fill="none" id="EstadoDecision-to-*end*IniciarSesionContainer" style="stroke:#008000;stroke-width:1;"/><polygon fill="#008000" points="273.74,558.6569,264.641,554.8875,268.7416,558.7843,264.8449,562.8849,273.74,558.6569" style="stroke:#008000;stroke-width:1;"/><path d="M76.93,500.2969 L76.93,525.2969 L472.93,525.2969 L472.93,510.2969 L462.93,500.2969 L76.93,500.2969" fill="#FFFFE0" style="stroke:#B0B060;stroke-width:0.5;"/><path d="M462.93,500.2969 L462.93,510.2969 L472.93,510.2969 L462.93,500.2969" fill="#FFFFE0" style="stroke:#B0B060;stroke-width:0.5;"/><text fill="#000000" font-family="Arial" font-size="13" font-weight="bold" lengthAdjust="spacing" textLength="56.1196" x="82.93" y="517.3638">Usuario</text><text fill="#000000" font-family="Arial" font-size="13" lengthAdjust="spacing" textLength="315.123" x="143.182" y="517.3638">introduce credenciales y solicita confirmar inicio</text></g><!--link EstadoDecision to *end*IniciarSesionContainer--><g class="link" data-entity-1="EstadoDecision" data-entity-2=".end.IniciarSesionContainer" data-source-line="56" data-uid="lnk9" id="link_EstadoDecision_.end.IniciarSesionContainer"><path d="M310.16,454.5569 C372.71,458.5669 526.44,474.2369 477.93,530.2969 C454.06,557.8869 339.6097,558.9277 302.0997,558.5477" fill="none" id="EstadoDecision-to-*end*IniciarSesionContainer-1" style="stroke:#FF0000;stroke-width:1;"/><polygon fill="#FF0000" points="296.1,558.4869,305.059,562.5778,301.0997,558.5375,305.1401,554.5783,296.1,558.4869" style="stroke:#FF0000;stroke-width:1;"/><path d="M491.93,500.2969 L491.93,525.2969 L715.93,525.2969 L715.93,510.2969 L705.93,500.2969 L491.93,500.2969" fill="#FFFFE0" style="stroke:#B0B060;stroke-width:0.5;"/><path d="M705.93,500.2969 L705.93,510.2969 L715.93,510.2969 L705.93,500.2969" fill="#FFFFE0" style="stroke:#B0B060;stroke-width:0.5;"/><text fill="#000000" font-family="Arial" font-size="13" font-weight="bold" lengthAdjust="spacing" textLength="56.1196" x="497.93" y="517.3638">Usuario</text><text fill="#000000" font-family="Arial" font-size="13" lengthAdjust="spacing" textLength="143.6348" x="558.182" y="517.3638">solicita cancelar inicio</text></g><g id="FinSistema"><rect fill="#FFFFFF" height="50" rx="12.5" ry="12.5" style="stroke:#000000;stroke-width:0.5;" width="172.0654" x="242.5" y="675"/><line style="stroke:#000000;stroke-width:0.5;" x1="242.5" x2="414.5654" y1="701.2969" y2="701.2969"/><text fill="#000000" font-family="sans-serif" font-size="14" lengthAdjust="spacing" textLength="152.0654" x="252.5" y="692.9951">SISTEMA_DISPONIBLE</text></g><g id="FinCerrada"><rect fill="#FFFFFF" height="50" rx="12.5" ry="12.5" style="stroke:#000000;stroke-width:0.5;" width="147.251" x="450" y="675"/><line style="stroke:#000000;stroke-width:0.5;" x1="450" x2="597.251" y1="701.2969" y2="701.2969"/><text fill="#000000" font-family="sans-serif" font-size="14" lengthAdjust="spacing" textLength="127.251" x="460" y="692.9951">SESION_CERRADA</text></g><!--link Inicio to IniciarSesionContainer--><g class="link" data-entity-1="Inicio" data-entity-2="IniciarSesionContainer" data-source-line="68" data-uid="lnk10" id="link_Inicio_IniciarSesionContainer"><path d="M425.5,57.19 C425.5,72.39 425.5,87.68 425.5,111.89" fill="none" id="Inicio-to-IniciarSesionContainer" style="stroke:#009900;stroke-width:1;"/><polygon fill="#009900" points="425.5,117.89,429.5,108.89,425.5,112.89,421.5,108.89,425.5,117.89" style="stroke:#009900;stroke-width:1;"/></g><!--link IniciarSesionContainer to FinSistema--><g class="link" data-entity-1="IniciarSesionContainer" data-entity-2="FinSistema" data-source-line="71" data-uid="lnk11" id="link_IniciarSesionContainer_FinSistema"><path d="M361.48,580.36 C350.8,618.77 342.8468,647.3692 336.8068,669.0992" fill="none" id="IniciarSesionContainer-to-FinSistema" style="stroke:#008000;stroke-width:1;"/><polygon fill="#008000" points="335.2,674.88,341.4641,667.28,336.539,670.0626,333.7563,665.1375,335.2,674.88" style="stroke:#008000;stroke-width:1;"/><text fill="#000000" font-family="sans-serif" font-size="13" lengthAdjust="spacing" textLength="73.9438" x="353.5" y="632.0669">"               "</text></g><!--link IniciarSesionContainer to FinCerrada--><g class="link" data-entity-1="IniciarSesionContainer" data-entity-2="FinCerrada" data-source-line="74" data-uid="lnk12" id="link_IniciarSesionContainer_FinCerrada"><path d="M490.18,580.36 C500.97,618.77 508.9959,647.374 515.1059,669.104" fill="none" id="IniciarSesionContainer-to-FinCerrada" style="stroke:#FF0000;stroke-width:1;"/><polygon fill="#FF0000" points="516.73,674.88,518.1445,665.1333,515.3766,670.0667,510.4432,667.2987,516.73,674.88" style="stroke:#FF0000;stroke-width:1;"/><path d="M511.5,615 L511.5,640 L625.5,640 L625.5,625 L615.5,615 L511.5,615" fill="#FFFFE0" style="stroke:#B0B060;stroke-width:0.5;"/><path d="M615.5,615 L615.5,625 L625.5,625 L615.5,615" fill="#FFFFE0" style="stroke:#B0B060;stroke-width:0.5;"/><text fill="#000000" font-family="Arial" font-size="13" lengthAdjust="spacing" textLength="93.7295" x="517.5" y="632.0669">cancelar inicio</text></g><!--SRC=[bLJDRjim3BxxAOZcq2H0rco70UrXW9CwG80j7UBk1oYAWh6LHAij6fBShXZs07kK7OVTTisBZRATscb-jkeGE1H5VkJtaSSm93MNYrnZ95U_5Tn9asC2CbxzL5P62FmdGwlTNOh2M4sUkPKgGuqffAGeMcfA1SmnCQ9nPPOOqtrbjfI19PYHjPH2BBM8h2JbDVqjMW7VFE0pmEXseIbNyP0Iql1fAQqeRqZ7GfVMGS9kXTNNckvBOwlVFptjzmjpQ57Rfxx1EcXf-jx4e6WlXDQ8Jz3V0j4Qz0VzrwLzHCfEa7lXQuc92tqC0TSL4uYlLcX540iGocgC4TgCMiwmuvML7uL1EBwOt0o3wTG_zuy03OoLZ2GrmaIKPZcJG91fgIAPSPhgkNI-g4DXkB7jJlr-RMEYBKebT5LXyLCzXiAzJ38YdUO9Qawyn-DSHD95hCDSTQ-XrtkpEqBHLLAGI5LIu4wt-u65nYxTBXXA6AT5g6e0mu1PS8MpK74HmIlPUvAWaNK3rPwSeJHMfCWvCoqCCu4mhsCnEGM2ugk9OUknq2ahyX6uFglTE0JFI9n7KaEaHIoO9ao4WNPLy0d7a0ayC9bE2KQiVh48wlUH6qYTSXjACCqhL958Dcys-tCCWpnAX2j02qR29HAqGvbAzundURQ-JYcMSnxmSkpP466QaUaqshpkAFIkMWijXBhEisUINFUCfPihjr043wjcs1lT-PSkThUKKQjStErkH8Y9Z5cphWjQyOSHYzKVHeXmHqdEtCSS806CBEc3LVCUKrmtY_p_zBo6ApRHFjG5xUHubzARO3ZMiw7K6Gz9fx6f3CobAk1MAuk5wy_m2zLxQXnU1k_yc_Dn-FvYCXwy3OhLC9Ag8ll0GcEd8VFFwyzbxFLwS3dr9-5uo8v12C7dos0wyKDtutdbzYicVFSYSp5UlgY8Tc9O_VWgdTu_2bxG7LYok16syNfxzk8ZuPonBWVEUFTjdYEN-LKpyx1iRp5C9q6XyFQKk6jh41kzE02WGNAZMLiyFwLpJULV]--></g></svg>