<svg xmlns="http://www.w3.org/2000/svg" xmlns:xlink="http://www.w3.org/1999/xlink" contentStyleType="text/css" data-diagram-type="STATE" height="695px" preserveAspectRatio="none" style="width:458px;height:695px;background:#FFFFFF;" version="1.1" viewBox="0 0 458 695" width="458px" zoomAndPan="magnify"><defs/><g><g id="SESION_CERRADA"><rect fill="#F1F1F1" height="50" rx="12.5" ry="12.5" style="stroke:#181818;stroke-width:0.5;" width="147.251" x="152.37" y="7"/><line style="stroke:#181818;stroke-width:0.5;" x1="152.37" x2="299.621" y1="33.2969" y2="33.2969"/><text fill="#000000" font-family="sans-serif" font-size="14" lengthAdjust="spacing" textLength="127.251" x="162.37" y="24.9951">SESION_CERRADA</text></g><g id="SISTEMA_DISPONIBLE"><rect fill="#F1F1F1" height="50" rx="12.5" ry="12.5" style="stroke:#181818;stroke-width:0.5;" width="172.0654" x="139.97" y="639.3"/><line style="stroke:#181818;stroke-width:0.5;" x1="139.97" x2="312.0354" y1="665.5969" y2="665.5969"/><text fill="#000000" font-family="sans-serif" font-size="14" lengthAdjust="spacing" textLength="152.0654" x="149.97" y="657.2951">SISTEMA_DISPONIBLE</text></g><path d="M19.5,134 L432.5,134 A12.5,12.5 0 0 1 445,146.5 L445,160.2969 L7,160.2969 L7,146.5 A12.5,12.5 0 0 1 19.5,134" fill="#F1F1F1"/><rect fill="none" height="428.2969" rx="12.5" ry="12.5" style="stroke:#181818;stroke-width:0.5;" width="438" x="7" y="134"/><line style="stroke:#181818;stroke-width:0.5;" x1="7" x2="445" y1="160.2969" y2="160.2969"/><text fill="#000000" font-family="sans-serif" font-size="14" lengthAdjust="spacing" textLength="99.6201" x="176.1899" y="151.9951">iniciarSesion()</text><g id="UC.N1"><rect fill="#F1F1F1" height="50" rx="12.5" ry="12.5" style="stroke:#181818;stroke-width:0.5;" width="50" x="19" y="228.2969"/><line style="stroke:#181818;stroke-width:0.5;" x1="19" x2="69" y1="254.5938" y2="254.5938"/><text fill="#000000" font-family="sans-serif" font-size="14" lengthAdjust="spacing" textLength="4.4502" x="41.7749" y="246.292">&#160;</text></g><g id="UC.N2"><rect fill="#F1F1F1" height="50" rx="12.5" ry="12.5" style="stroke:#181818;stroke-width:0.5;" width="50" x="19" y="349.2969"/><line style="stroke:#181818;stroke-width:0.5;" x1="19" x2="69" y1="375.5938" y2="375.5938"/><text fill="#000000" font-family="sans-serif" font-size="14" lengthAdjust="spacing" textLength="4.4502" x="41.7749" y="367.292">&#160;</text></g><ellipse cx="44" cy="181.2969" fill="#222222" rx="10" ry="10" style="stroke:#222222;stroke-width:1;"/><ellipse cx="44" cy="541.2969" fill="none" rx="11" ry="11" style="stroke:#222222;stroke-width:1;"/><ellipse cx="44" cy="541.2969" fill="#222222" rx="6" ry="6" style="stroke:#222222;stroke-width:1;"/><!--link *start*UC to N1--><g class="link" data-entity-1=".start.UC" data-entity-2="N1" data-link-type="dependency" data-source-line="10" data-uid="lnk3" id="link_.start.UC_N1"><path d="M44,191.7369 C44,200.9969 44,209.4869 44,221.9769" fill="none" id="*start*UC-to-N1" style="stroke:#008000;stroke-width:1;"/><polygon fill="#008000" points="44,227.9769,48,218.9769,44,222.9769,40,218.9769,44,227.9769" style="stroke:#008000;stroke-width:1;"/></g><!--link N1 to N2--><g class="link" data-entity-1="N1" data-entity-2="N2" data-link-type="dependency" data-source-line="15" data-uid="lnk4" id="link_N1_N2"><path d="M44,278.6669 C44,299.1969 44,322.4369 44,342.9569" fill="none" id="N1-to-N2" style="stroke:#008000;stroke-width:1;"/><polygon fill="#008000" points="44,348.9569,48,339.9569,44,343.9569,40,339.9569,44,348.9569" style="stroke:#008000;stroke-width:1;"/><path d="M49,301.2969 L49,326.2969 L258,326.2969 L258,311.2969 L248,301.2969 L49,301.2969" fill="#FEFFDD" style="stroke:#181818;stroke-width:0.5;"/><path d="M248,301.2969 L248,311.2969 L258,311.2969 L248,301.2969" fill="#FEFFDD" style="stroke:#181818;stroke-width:0.5;"/><text fill="#000000" font-family="sans-serif" font-size="13" lengthAdjust="spacing" textLength="188.4556" x="55" y="318.3638">Usuario solicita iniciar sesion</text></g><!--link N2 to *end*UC--><g class="link" data-entity-1="N2" data-entity-2=".end.UC" data-link-type="dependency" data-source-line="20" data-uid="lnk6" id="link_N2_.end.UC"><path d="M44,399.6469 C44,436.3969 44,498.4769 44,524.1469" fill="none" id="N2-to-*end*UC" style="stroke:#008000;stroke-width:1;"/><polygon fill="#008000" points="44,530.1469,48,521.1469,44,525.1469,40,521.1469,44,530.1469" style="stroke:#008000;stroke-width:1;"/><path d="M49,422.2969 L49,507.2969 L436,507.2969 L436,432.2969 L426,422.2969 L49,422.2969" fill="#FEFFDD" style="stroke:#181818;stroke-width:0.5;"/><path d="M426,422.2969 L426,432.2969 L436,432.2969 L426,422.2969" fill="#FEFFDD" style="stroke:#181818;stroke-width:0.5;"/><text fill="#000000" font-family="sans-serif" font-size="13" lengthAdjust="spacing" textLength="310.1147" x="55" y="439.3638">Sistema presenta formulario de inicio de sesion</text><text fill="#000000" font-family="sans-serif" font-size="13" lengthAdjust="spacing" textLength="198.3833" x="55" y="454.4966">&#8226; Usuario / email y contrasena</text><text fill="#000000" font-family="sans-serif" font-size="13" lengthAdjust="spacing" textLength="167.6416" x="55" y="469.6294">&#8226; Permite confirmar inicio</text><text fill="#000000" font-family="sans-serif" font-size="13" lengthAdjust="spacing" textLength="160.2148" x="55" y="484.7622">&#8226; Permite cancelar inicio</text><text fill="#000000" font-family="sans-serif" font-size="13" lengthAdjust="spacing" textLength="366.9707" x="55" y="499.895">&#8226; Permite reintentar si las credenciales no son correctas</text></g><!--link SESION_CERRADA to UC--><g class="link" data-entity-1="SESION_CERRADA" data-entity-2="UC" data-link-type="dependency" data-source-line="30" data-uid="lnk7" id="link_SESION_CERRADA_UC"><path d="M181.73,57.42 C171.41,65.41 161.76,75.29 156,87 C148.68,101.9 145.2381,111.6916 143.8681,127.8116" fill="none" id="SESION_CERRADA-to-UC" style="stroke:#008000;stroke-width:1;"/><polygon fill="#008000" points="143.36,133.79,148.1078,125.1611,143.7834,128.808,140.1365,124.4836,143.36,133.79" style="stroke:#008000;stroke-width:1;"/><text fill="#000000" font-family="sans-serif" font-size="13" lengthAdjust="spacing" textLength="92.5044" x="157" y="100.0669">iniciarSesion()</text></g><!--link UC to SESION_CERRADA--><g class="link" data-entity-1="UC" data-entity-2="SESION_CERRADA" data-link-type="dependency" data-source-line="31" data-uid="lnk8" id="link_UC_SESION_CERRADA"><path d="M251.97,133.79 C252.75,123.73 253.44,113.76 254,104 C254.43,96.46 255.79,94.34 254,87 C251.5,76.74 249.5789,71.5132 244.6289,62.5432" fill="none" id="UC-to-SESION_CERRADA" style="stroke:#008000;stroke-width:1;"/><polygon fill="#008000" points="241.73,57.29,242.5763,67.1024,244.1458,61.6677,249.5805,63.2372,241.73,57.29" style="stroke:#008000;stroke-width:1;"/><text fill="#000000" font-family="sans-serif" font-size="13" lengthAdjust="spacing" textLength="100.0518" x="255" y="100.0669">cancelar / error</text></g><!--link UC to SISTEMA_DISPONIBLE--><g class="link" data-entity-1="UC" data-entity-2="SISTEMA_DISPONIBLE" data-link-type="dependency" data-source-line="32" data-uid="lnk9" id="link_UC_SISTEMA_DISPONIBLE"><path d="M226,562.61 C226,593.13 226,614.39 226,632.82" fill="none" id="UC-to-SISTEMA_DISPONIBLE" style="stroke:#008000;stroke-width:1;"/><polygon fill="#008000" points="226,638.82,230,629.82,226,633.82,222,629.82,226,638.82" style="stroke:#008000;stroke-width:1;"/><text fill="#000000" font-family="sans-serif" font-size="13" lengthAdjust="spacing" textLength="95.8877" x="227" y="605.3669">sesion iniciada</text></g><!--SRC=[TL9DIyD04BtlhnXwKg5eU-n1Y6sGWAQbiIUHiascC3JPBRDRH4Nmj_ZJ_2LEDY6sATvsPzwyz-R3spru2nlhlQsW8CRSapNAxSZiDUiAyb8x5tdFj3buJ79hCdf7k3c2HCpsTMfBot3FY4OfvxL766HnbipJzJHUBgDPD03ju3JK0PFiANwCrhCaMypJvEuXRi1dOUYuoL1EcZDqulVYCk1NK_XG2k3vwWM6mrj8H_MlBO00aL0_Cgv1wQYf6ClRMCbQ0oMPdNnNxg2PB3XRYgJNq4g32zg2G5E4ea0q3aHYuPmf8-Unqh1dT6Y4QMkvEfI1lS26Dxmwvf-lxqx_6gIMIdW3MO9dBHIwXIoGAn8fIMo9A_7MSFNJskHO_fTb9EDhMz8PWQmTSiO2ZVHQefDUP0969BW-4ksE-_vKwdInOGQoZWdqzgGaMETwyCcVDsbJxeaxuFaDJDhvjDo5_WK0]--></g></svg>