<svg xmlns="http://www.w3.org/2000/svg" xmlns:xlink="http://www.w3.org/1999/xlink" contentStyleType="text/css" data-diagram-type="STATE" height="706px" preserveAspectRatio="none" style="width:486px;height:706px;background:#FFFFFF;" version="1.1" viewBox="0 0 486 706" width="486px" zoomAndPan="magnify"><defs/><g><rect fill="#FFFFFF" height="40" rx="12.5" ry="12.5" style="stroke:#000000;stroke-width:0.5;" width="137.627" x="171" y="7"/><text fill="#000000" font-family="sans-serif" font-size="14" lengthAdjust="spacing" textLength="127.627" x="176" y="31.8467">GRUPOS_ABIERTO</text><path d="M19.5,107 L460.5,107 A12.5,12.5 0 0 1 473,119.5 L473,133.2969 L7,133.2969 L7,119.5 A12.5,12.5 0 0 1 19.5,107" fill="#FFFFFF"/><rect fill="none" height="493.2969" rx="12.5" ry="12.5" style="stroke:#000000;stroke-width:0.5;" width="466" x="7" y="107"/><line style="stroke:#000000;stroke-width:0.5;" x1="7" x2="473" y1="133.2969" y2="133.2969"/><text fill="#000000" font-family="sans-serif" font-size="14" lengthAdjust="spacing" textLength="106.7295" x="186.6353" y="124.9951">unirseAGrupo()</text><rect fill="#FFFFFF" height="40" rx="12.5" ry="12.5" style="stroke:#000000;stroke-width:0.5;" width="50" x="19" y="235.2969"/><text fill="#000000" font-family="sans-serif" font-size="14" lengthAdjust="spacing" textLength="4.4502" x="41.7749" y="260.1436">&#160;</text><rect fill="#FFFFFF" height="40" rx="12.5" ry="12.5" style="stroke:#000000;stroke-width:0.5;" width="50" x="19" y="346.2969"/><text fill="#000000" font-family="sans-serif" font-size="14" lengthAdjust="spacing" textLength="4.4502" x="41.7749" y="371.1436">&#160;</text><rect fill="#FFFFFF" height="40" rx="12.5" ry="12.5" style="stroke:#000000;stroke-width:0.5;" width="50" x="19" y="457.2969"/><text fill="#000000" font-family="sans-serif" font-size="14" lengthAdjust="spacing" textLength="4.4502" x="41.7749" y="482.1436">&#160;</text><ellipse cx="44" cy="154.2969" fill="#222222" rx="10" ry="10" style="stroke:#222222;stroke-width:1;"/><ellipse cx="44" cy="579.2969" fill="none" rx="11" ry="11" style="stroke:#222222;stroke-width:1;"/><ellipse cx="44" cy="579.2969" fill="#222222" rx="6" ry="6" style="stroke:#222222;stroke-width:1;"/><!--link *start*MainBlock to Paso1--><g class="link" data-entity-1=".start.MainBlock" data-entity-2="Paso1" data-source-line="17" data-uid="lnk3" id="link_.start.MainBlock_Paso1"><path d="M44,164.4369 C44,180.4169 44,207.7869 44,229.0669" fill="none" id="*start*MainBlock-to-Paso1" style="stroke:#008000;stroke-width:1;"/><polygon fill="#008000" points="44,235.0669,48,226.0669,44,230.0669,40,226.0669,44,235.0669" style="stroke:#008000;stroke-width:1;"/><path d="M49,187.2969 L49,212.2969 L369,212.2969 L369,197.2969 L359,187.2969 L49,187.2969" fill="#FFFFE0" style="stroke:#808080;stroke-width:0.5;"/><path d="M359,187.2969 L359,197.2969 L369,197.2969 L359,187.2969" fill="#FFFFE0" style="stroke:#808080;stroke-width:0.5;"/><text fill="#000000" font-family="sans-serif" font-size="13" font-weight="bold" lengthAdjust="spacing" textLength="104.8633" x="55" y="204.3638">Administrador</text><text fill="#000000" font-family="sans-serif" font-size="13" lengthAdjust="spacing" textLength="186.2402" x="163.9956" y="204.3638">solicita agrupar a un usuario</text></g><!--link Paso1 to Paso2--><g class="link" data-entity-1="Paso1" data-entity-2="Paso2" data-source-line="24" data-uid="lnk4" id="link_Paso1_Paso2"><path d="M44,275.5369 C44,295.4569 44,320.3969 44,340.2569" fill="none" id="Paso1-to-Paso2" style="stroke:#008000;stroke-width:1;"/><polygon fill="#008000" points="44,346.2569,48,337.2569,44,341.2569,40,337.2569,44,346.2569" style="stroke:#008000;stroke-width:1;"/><path d="M49,298.2969 L49,323.2969 L443,323.2969 L443,308.2969 L433,298.2969 L49,298.2969" fill="#FFFFE0" style="stroke:#808080;stroke-width:0.5;"/><path d="M433,298.2969 L433,308.2969 L443,308.2969 L433,298.2969" fill="#FFFFE0" style="stroke:#808080;stroke-width:0.5;"/><text fill="#000000" font-family="sans-serif" font-size="13" font-weight="bold" lengthAdjust="spacing" textLength="58.9063" x="55" y="315.3638">Sistema</text><text fill="#000000" font-family="sans-serif" font-size="13" lengthAdjust="spacing" textLength="310.8384" x="118.0386" y="315.3638">permite introducir los datos del usuario y grupo</text></g><!--link Paso2 to Paso3--><g class="link" data-entity-1="Paso2" data-entity-2="Paso3" data-source-line="31" data-uid="lnk5" id="link_Paso2_Paso3"><path d="M44,386.5369 C44,406.4569 44,431.3969 44,451.2569" fill="none" id="Paso2-to-Paso3" style="stroke:#008000;stroke-width:1;"/><polygon fill="#008000" points="44,457.2569,48,448.2569,44,452.2569,40,448.2569,44,457.2569" style="stroke:#008000;stroke-width:1;"/><path d="M49,409.2969 L49,434.2969 L464,434.2969 L464,419.2969 L454,409.2969 L49,409.2969" fill="#FFFFE0" style="stroke:#808080;stroke-width:0.5;"/><path d="M454,409.2969 L454,419.2969 L464,419.2969 L454,409.2969" fill="#FFFFE0" style="stroke:#808080;stroke-width:0.5;"/><text fill="#000000" font-family="sans-serif" font-size="13" font-weight="bold" lengthAdjust="spacing" textLength="104.8633" x="55" y="426.3638">Administrador</text><text fill="#000000" font-family="sans-serif" font-size="13" lengthAdjust="spacing" textLength="285.6255" x="163.9956" y="426.3638">introduce la asignaci&#243;n del usuario al grupo</text></g><!--link Paso3 to *end*MainBlock--><g class="link" data-entity-1="Paso3" data-entity-2=".end.MainBlock" data-source-line="38" data-uid="lnk7" id="link_Paso3_.end.MainBlock"><path d="M44,497.5769 C44,518.6869 44,545.7369 44,562.2269" fill="none" id="Paso3-to-*end*MainBlock" style="stroke:#008000;stroke-width:1;"/><polygon fill="#008000" points="44,568.2269,48,559.2269,44,563.2269,40,559.2269,44,568.2269" style="stroke:#008000;stroke-width:1;"/><path d="M49,520.2969 L49,545.2969 L386,545.2969 L386,530.2969 L376,520.2969 L49,520.2969" fill="#FFFFE0" style="stroke:#808080;stroke-width:0.5;"/><path d="M376,520.2969 L376,530.2969 L386,530.2969 L376,520.2969" fill="#FFFFE0" style="stroke:#808080;stroke-width:0.5;"/><text fill="#000000" font-family="sans-serif" font-size="13" font-weight="bold" lengthAdjust="spacing" textLength="58.9063" x="55" y="537.3638">Sistema</text><text fill="#000000" font-family="sans-serif" font-size="13" lengthAdjust="spacing" textLength="253.3223" x="118.0386" y="537.3638">visualiza la actualizaci&#243;n de los grupos</text></g><rect fill="#FFFFFF" height="40" rx="12.5" ry="12.5" style="stroke:#000000;stroke-width:0.5;" width="137.627" x="171" y="660"/><text fill="#000000" font-family="sans-serif" font-size="14" lengthAdjust="spacing" textLength="127.627" x="176" y="684.8467">GRUPOS_ABIERTO</text><!--link GRUPOS_ABIERTO to MainBlock--><g class="link" data-entity-1="GRUPOS_ABIERTO" data-entity-2="MainBlock" data-source-line="46" data-uid="lnk8" id="link_GRUPOS_ABIERTO_MainBlock"><path d="M240,47.33 C240,61.45 240,76.33 240,100.67" fill="none" id="GRUPOS_ABIERTO-to-MainBlock" style="stroke:#008000;stroke-width:1;"/><polygon fill="#008000" points="240,106.67,244,97.67,240,101.67,236,97.67,240,106.67" style="stroke:#008000;stroke-width:1;"/></g><!--link MainBlock to GRUPOS_ABIERTO_FINAL--><g class="link" data-entity-1="MainBlock" data-entity-2="GRUPOS_ABIERTO_FINAL" data-source-line="47" data-uid="lnk9" id="link_MainBlock_GRUPOS_ABIERTO_FINAL"><path d="M240,600.03 C240,624.54 240,639.58 240,653.76" fill="none" id="MainBlock-to-GRUPOS_ABIERTO_FINAL" style="stroke:#008000;stroke-width:1;"/><polygon fill="#008000" points="240,659.76,244,650.76,240,654.76,236,650.76,240,659.76" style="stroke:#008000;stroke-width:1;"/></g><!--SRC=[bT9HQzim40VmTtsAmq-T8GzBtWVEw4AXMqAoKiOevR14SaJMcPEya8r-gdw4Vh4gqkpMT2kj7mJwovn-Fj-Ej07JjE48slXQg0t4JYc_9zUYO0C-O33mHq5yvbZljyATqv_Pii3rZeB99opQI4xdDhwMqag43pbSY35EtJqhxFY_TIzfkmi_ZBLyU55z8NYCTLHsBTPNg-NcjffVdA-_B_kqw1o9DzL2kfRFFXI07huYkRdbUl_tphJyB6zWCla4A_JyCIL9nGuikVmDfwSiAzsG8ny4DKjPWcTBDGK4tCOxK02XSz3v3eKurpPEfsegxJ8itNFI550yANBQEwQlEJRHO1gCWjP84xiFv8AmxceIiEn1OpYjnWwO8vo8_Affsfi6ptJmpDxJbrvZmCRUUDewhEdXter4QDz0chqWpH8f_hAtDUWNnUii_SP4gKFUz9hKhAJmOyOmMiLujj8GZQFRBnVVgakbnYbCD1zSb0uJfvvchp_xLw57]--></g></svg>