<svg xmlns="http://www.w3.org/2000/svg" xmlns:xlink="http://www.w3.org/1999/xlink" contentStyleType="text/css" data-diagram-type="STATE" height="731px" preserveAspectRatio="none" style="width:848px;height:731px;background:#FFFFFF;" version="1.1" viewBox="0 0 848 731" width="848px" zoomAndPan="magnify"><defs/><g><g id="Inicio"><rect fill="#FFFFFF" height="50" rx="12.5" ry="12.5" style="stroke:#000000;stroke-width:0.5;" width="143.6211" x="349" y="7"/><line style="stroke:#000000;stroke-width:0.5;" x1="349" x2="492.6211" y1="33.2969" y2="33.2969"/><text fill="#000000" font-family="sans-serif" font-size="14" lengthAdjust="spacing" textLength="123.6211" x="359" y="24.9951">TAREAS_ABIERTO</text></g><path d="M19.5,118 L822.93,118 A12.5,12.5 0 0 1 835.43,130.5 L835.43,144.2969 L7,144.2969 L7,130.5 A12.5,12.5 0 0 1 19.5,118" fill="#FFFFFF"/><rect fill="none" height="462.2969" rx="12.5" ry="12.5" style="stroke:#000000;stroke-width:0.5;" width="828.43" x="7" y="118"/><line style="stroke:#000000;stroke-width:0.5;" x1="7" x2="835.43" y1="144.2969" y2="144.2969"/><text fill="#000000" font-family="sans-serif" font-size="14" lengthAdjust="spacing" textLength="87.4043" x="377.5129" y="135.9951">crearTarea()</text><g id="CrearTareaContainer.EstadoFormulario"><rect fill="#FFFFFF" height="50" rx="12.5" ry="12.5" style="stroke:#000000;stroke-width:0.5;" width="50" x="243.43" y="246.2969"/><line style="stroke:#000000;stroke-width:0.5;" x1="243.43" x2="293.43" y1="272.5938" y2="272.5938"/><text fill="#000000" font-family="sans-serif" font-size="14" lengthAdjust="spacing" textLength="4.4502" x="266.2049" y="264.292">&#160;</text></g><g id="CrearTareaContainer.EstadoDecision"><rect fill="#FFFFFF" height="50" rx="12.5" ry="12.5" style="stroke:#000000;stroke-width:0.5;" width="50" x="243.43" y="427.2969"/><line style="stroke:#000000;stroke-width:0.5;" x1="243.43" x2="293.43" y1="453.5938" y2="453.5938"/><text fill="#000000" font-family="sans-serif" font-size="14" lengthAdjust="spacing" textLength="4.4502" x="266.2049" y="445.292">&#160;</text></g><ellipse cx="268.43" cy="165.2969" fill="#222222" rx="10" ry="10" style="stroke:#222222;stroke-width:1;"/><ellipse cx="268.43" cy="559.2969" fill="none" rx="11" ry="11" style="stroke:#222222;stroke-width:1;"/><ellipse cx="268.43" cy="559.2969" fill="#222222" rx="6" ry="6" style="stroke:#222222;stroke-width:1;"/><!--link *start*CrearTareaContainer to EstadoFormulario--><g class="link" data-entity-1=".start.CrearTareaContainer" data-entity-2="EstadoFormulario" data-source-line="26" data-uid="lnk3" id="link_.start.CrearTareaContainer_EstadoFormulario"><path d="M268.43,175.5269 C268.43,191.2369 268.43,217.6569 268.43,240.1669" fill="none" id="*start*CrearTareaContainer-to-EstadoFormulario" style="stroke:#009900;stroke-width:1;"/><polygon fill="#009900" points="268.43,246.1669,272.43,237.1669,268.43,241.1669,264.43,237.1669,268.43,246.1669" style="stroke:#009900;stroke-width:1;"/><path d="M273.43,198.2969 L273.43,223.2969 L554.43,223.2969 L554.43,208.2969 L544.43,198.2969 L273.43,198.2969" fill="#FFFFE0" style="stroke:#B0B060;stroke-width:0.5;"/><path d="M544.43,198.2969 L544.43,208.2969 L554.43,208.2969 L544.43,198.2969" fill="#FFFFE0" style="stroke:#B0B060;stroke-width:0.5;"/><text fill="#000000" font-family="Arial" font-size="13" font-weight="bold" lengthAdjust="spacing" textLength="104.8633" x="279.43" y="215.3638">Administrador</text><text fill="#000000" font-family="Arial" font-size="13" lengthAdjust="spacing" textLength="151.252" x="388.4256" y="215.3638">solicita introducir tarea</text></g><!--link EstadoFormulario to EstadoDecision--><g class="link" data-entity-1="EstadoFormulario" data-entity-2="EstadoDecision" data-source-line="31" data-uid="lnk4" id="link_EstadoFormulario_EstadoDecision"><path d="M243.41,274.0769 C196.84,277.9769 99.72,288.9969 79.43,314.2969 C53.01,347.2369 53.01,376.3569 79.43,409.2969 C99.72,434.5969 190.8609,445.1162 237.4309,449.0162" fill="none" id="EstadoFormulario-to-EstadoDecision" style="stroke:#009900;stroke-width:1;"/><polygon fill="#009900" points="243.41,449.5169,234.7752,444.7798,238.4274,449.0996,234.1076,452.7518,243.41,449.5169" style="stroke:#009900;stroke-width:1;"/><path d="M84.43,319.2969 L84.43,404.2969 L432.43,404.2969 L432.43,329.2969 L422.43,319.2969 L84.43,319.2969" fill="#FFFFE0" style="stroke:#B0B060;stroke-width:0.5;"/><path d="M422.43,319.2969 L422.43,329.2969 L432.43,329.2969 L422.43,319.2969" fill="#FFFFE0" style="stroke:#B0B060;stroke-width:0.5;"/><text fill="#000000" font-family="Arial" font-size="13" font-weight="bold" lengthAdjust="spacing" textLength="58.9063" x="90.43" y="336.3638">Sistema</text><text fill="#000000" font-family="Arial" font-size="13" lengthAdjust="spacing" textLength="264.2212" x="153.4686" y="336.3638">presenta formulario de datos de la tarea</text><text fill="#000000" font-family="Arial" font-size="13" font-weight="bold" lengthAdjust="spacing" textLength="58.9063" x="90.43" y="351.4966">Sistema</text><text fill="#000000" font-family="Arial" font-size="13" lengthAdjust="spacing" textLength="110.5952" x="153.4686" y="351.4966">permite solicitar:</text><ellipse cx="95.93" cy="362.1953" fill="#000000" rx="2.5" ry="2.5"/><text fill="#000000" font-family="Arial" font-size="13" lengthAdjust="spacing" textLength="235.0664" x="102.43" y="366.6294">introducir t&#237;tulo, descripci&#243;n y fecha</text><ellipse cx="95.93" cy="377.3281" fill="#000000" rx="2.5" ry="2.5"/><text fill="#000000" font-family="Arial" font-size="13" lengthAdjust="spacing" textLength="72.3062" x="102.43" y="381.7622">crear tarea</text><ellipse cx="95.93" cy="392.4609" fill="#000000" rx="2.5" ry="2.5"/><text fill="#000000" font-family="Arial" font-size="13" lengthAdjust="spacing" textLength="114.9624" x="102.43" y="396.895">cancelar creaci&#243;n</text></g><!--reverse link EstadoFormulario to EstadoDecision--><g class="link" data-entity-1="EstadoFormulario" data-entity-2="EstadoDecision" data-source-line="40" data-uid="lnk6" id="link_EstadoFormulario_EstadoDecision"><path d="M299.4418,275.4725 C342.0618,280.3025 419.83,291.7869 437.43,314.2969 C463.43,347.5569 463.43,376.0369 437.43,409.2969 C419.83,431.8069 336.1,443.9669 293.48,448.7969" fill="none" id="EstadoFormulario-backto-EstadoDecision" style="stroke:#008000;stroke-width:1;"/><polygon fill="#008000" points="293.48,274.7969,301.9723,279.7849,298.4482,275.3599,302.8732,271.8358,293.48,274.7969" style="stroke:#008000;stroke-width:1;"/><path d="M461.43,349.2969 L461.43,374.2969 L826.43,374.2969 L826.43,359.2969 L816.43,349.2969 L461.43,349.2969" fill="#FFFFE0" style="stroke:#B0B060;stroke-width:0.5;"/><path d="M816.43,349.2969 L816.43,359.2969 L826.43,359.2969 L816.43,349.2969" fill="#FFFFE0" style="stroke:#B0B060;stroke-width:0.5;"/><text fill="#000000" font-family="Arial" font-size="13" font-weight="bold" lengthAdjust="spacing" textLength="104.8633" x="467.43" y="366.3638">Administrador</text><text fill="#000000" font-family="Arial" font-size="13" lengthAdjust="spacing" textLength="235.8154" x="576.4256" y="366.3638">solicita modificar datos introducidos</text></g><!--link EstadoDecision to *end*CrearTareaContainer--><g class="link" data-entity-1="EstadoDecision" data-entity-2=".end.CrearTareaContainer" data-source-line="45" data-uid="lnk8" id="link_EstadoDecision_.end.CrearTareaContainer"><path d="M243.23,454.3169 C179.06,457.7769 18,472.3269 68.43,530.2969 C93.33,558.9369 213.1508,559.2526 251.3908,558.6426" fill="none" id="EstadoDecision-to-*end*CrearTareaContainer" style="stroke:#008000;stroke-width:1;"/><polygon fill="#008000" points="257.39,558.5469,248.3273,554.6909,252.3906,558.6266,248.4549,562.6899,257.39,558.5469" style="stroke:#008000;stroke-width:1;"/><path d="M73.43,500.2969 L73.43,525.2969 L443.43,525.2969 L443.43,510.2969 L433.43,500.2969 L73.43,500.2969" fill="#FFFFE0" style="stroke:#B0B060;stroke-width:0.5;"/><path d="M433.43,500.2969 L433.43,510.2969 L443.43,510.2969 L433.43,500.2969" fill="#FFFFE0" style="stroke:#B0B060;stroke-width:0.5;"/><text fill="#000000" font-family="Arial" font-size="13" font-weight="bold" lengthAdjust="spacing" textLength="104.8633" x="79.43" y="517.3638">Administrador</text><text fill="#000000" font-family="Arial" font-size="13" lengthAdjust="spacing" textLength="240.2271" x="188.4256" y="517.3638">introduce datos y solicita crear tarea</text></g><!--link EstadoDecision to *end*CrearTareaContainer--><g class="link" data-entity-1="EstadoDecision" data-entity-2=".end.CrearTareaContainer" data-source-line="50" data-uid="lnk9" id="link_EstadoDecision_.end.CrearTareaContainer"><path d="M293.71,455.0569 C353.14,460.0969 493.42,477.7669 448.43,530.2969 C426.41,555.9969 321.42,558.2868 285.59,558.3468" fill="none" id="EstadoDecision-to-*end*CrearTareaContainer-1" style="stroke:#FF0000;stroke-width:1;"/><polygon fill="#FF0000" points="279.59,558.3569,288.5967,562.3418,284.59,558.3485,288.5833,554.3418,279.59,558.3569" style="stroke:#FF0000;stroke-width:1;"/><path d="M461.43,500.2969 L461.43,525.2969 L755.43,525.2969 L755.43,510.2969 L745.43,500.2969 L461.43,500.2969" fill="#FFFFE0" style="stroke:#B0B060;stroke-width:0.5;"/><path d="M745.43,500.2969 L745.43,510.2969 L755.43,510.2969 L745.43,500.2969" fill="#FFFFE0" style="stroke:#B0B060;stroke-width:0.5;"/><text fill="#000000" font-family="Arial" font-size="13" font-weight="bold" lengthAdjust="spacing" textLength="104.8633" x="467.43" y="517.3638">Administrador</text><text fill="#000000" font-family="Arial" font-size="13" lengthAdjust="spacing" textLength="164.8677" x="576.4256" y="517.3638">solicita cancelar creaci&#243;n</text></g><g id="FinExito"><rect fill="#FFFFFF" height="50" rx="12.5" ry="12.5" style="stroke:#000000;stroke-width:0.5;" width="134.7344" x="266.5" y="675"/><line style="stroke:#000000;stroke-width:0.5;" x1="266.5" x2="401.2344" y1="701.2969" y2="701.2969"/><text fill="#000000" font-family="sans-serif" font-size="14" lengthAdjust="spacing" textLength="114.7344" x="276.5" y="692.9951">TAREA_ABIERTO</text></g><g id="FinCancelacion"><rect fill="#FFFFFF" height="50" rx="12.5" ry="12.5" style="stroke:#000000;stroke-width:0.5;" width="143.6211" x="437" y="675"/><line style="stroke:#000000;stroke-width:0.5;" x1="437" x2="580.6211" y1="701.2969" y2="701.2969"/><text fill="#000000" font-family="sans-serif" font-size="14" lengthAdjust="spacing" textLength="123.6211" x="447" y="692.9951">TAREAS_ABIERTO</text></g><!--link Inicio to CrearTareaContainer--><g class="link" data-entity-1="Inicio" data-entity-2="CrearTareaContainer" data-source-line="59" data-uid="lnk10" id="link_Inicio_CrearTareaContainer"><path d="M421,57.19 C421,72.39 421,87.68 421,111.89" fill="none" id="Inicio-to-CrearTareaContainer" style="stroke:#009900;stroke-width:1;"/><polygon fill="#009900" points="421,117.89,425,108.89,421,112.89,417,108.89,421,117.89" style="stroke:#009900;stroke-width:1;"/></g><!--link CrearTareaContainer to FinExito--><g class="link" data-entity-1="CrearTareaContainer" data-entity-2="FinExito" data-source-line="61" data-uid="lnk11" id="link_CrearTareaContainer_FinExito"><path d="M363.58,580.36 C354,618.77 346.8821,647.3284 341.4621,669.0584" fill="none" id="CrearTareaContainer-to-FinExito" style="stroke:#008000;stroke-width:1;"/><polygon fill="#008000" points="340.01,674.88,346.0692,667.1156,341.2201,670.0286,338.307,665.1795,340.01,674.88" style="stroke:#008000;stroke-width:1;"/><text fill="#000000" font-family="sans-serif" font-size="13" lengthAdjust="spacing" textLength="73.9438" x="357" y="632.0669">"               "</text></g><!--link CrearTareaContainer to FinCancelacion--><g class="link" data-entity-1="CrearTareaContainer" data-entity-2="FinCancelacion" data-source-line="63" data-uid="lnk12" id="link_CrearTareaContainer_FinCancelacion"><path d="M479.08,580.36 C488.77,618.77 495.9728,647.3321 501.4528,669.0621" fill="none" id="CrearTareaContainer-to-FinCancelacion" style="stroke:#FF0000;stroke-width:1;"/><polygon fill="#FF0000" points="502.92,674.88,504.5978,665.1751,501.6974,670.0318,496.8407,667.1313,502.92,674.88" style="stroke:#FF0000;stroke-width:1;"/><path d="M499,615 L499,640 L634,640 L634,625 L624,615 L499,615" fill="#FFFFE0" style="stroke:#B0B060;stroke-width:0.5;"/><path d="M624,615 L624,625 L634,625 L624,615" fill="#FFFFE0" style="stroke:#B0B060;stroke-width:0.5;"/><text fill="#000000" font-family="Arial" font-size="13" lengthAdjust="spacing" textLength="114.9624" x="505" y="632.0669">cancelar creaci&#243;n</text></g><!--SRC=[hLJ1Qjj04BthAmRxqfeQT2eaXuBaof1B2x6XXn3ATdSTBv5snEoAD9H-Ka_zXFnOnxkMBCjMGqBs8AJPcVVUlDsHkpUs5YGggD2Yt19M6ZQYT3fntPRR2eKF-x376Zp23_GUAr26jFG6RTBFzy9h-9K0hrp8-pl2nge5baZmRMkyZZj8IbECvYMdXMX6X0ynE4tJYuiq3U6L5-I7kKKB6aE_-neiZagOBdaLwOc8QPxcwSSONwBrNmHxaP4HPO0EJKtMsNMHhRvd-LLnlVuw0U7WoXffiCkGf0Mj1J_VlG_xYowmO5HXhAQzil3Obq78BVXBuHAfQaf1Z3gIyLbButQsTp0tirkOpp-THmXke8NIs6ZTRirccQgCDSuJLz1i1WvBRiKBCDOJgaOQ0hyJ7cgqLG4eYUOFU7haH-96g5TCgol1f3LffzaNs1omb0ObFBhTIobw6awADLLyeJhbT7b8E-hYwOzlIlp0W4wIgQLv-clX4JPQRdl840vlo0TIMAbPMTWEfQE6jBt3_6PwHrhRswP-grEfK9cDaQmZcjFrfz2zG13FicL9V65Ueg8bQq_cyQ1hQDfpCaYhLueuK3vp8eE1FPhNfR75J-FnFoFDAOl88CE_BOvukE9dfZb9peruvpSNjPHmoKDyl2QZrJsR1dfEt3fZHsl5Fm00]--></g></svg>