<svg xmlns="http://www.w3.org/2000/svg" xmlns:xlink="http://www.w3.org/1999/xlink" contentStyleType="text/css" data-diagram-type="STATE" height="756px" preserveAspectRatio="none" style="width:313px;height:756px;background:#FFFFFF;" version="1.1" viewBox="0 0 313 756" width="313px" zoomAndPan="magnify"><defs/><g><g id="TAREAS_ABIERTO_IN"><rect fill="#FFFFFF" height="50" rx="12.5" ry="12.5" style="stroke:#000000;stroke-width:0.5;" width="143.6211" x="81.5" y="7"/><line style="stroke:#000000;stroke-width:0.5;" x1="81.5" x2="225.1211" y1="33.2969" y2="33.2969"/><text fill="#000000" font-family="sans-serif" font-size="14" lengthAdjust="spacing" textLength="123.6211" x="91.5" y="24.9951">TAREAS_ABIERTO</text></g><path d="M19.5,117 L287.5,117 A12.5,12.5 0 0 1 300,129.5 L300,143.2969 L7,143.2969 L7,129.5 A12.5,12.5 0 0 1 19.5,117" fill="#FFFFFF"/><rect fill="none" height="523.2969" rx="12.5" ry="12.5" style="stroke:#000000;stroke-width:0.5;" width="293" x="7" y="117"/><line style="stroke:#000000;stroke-width:0.5;" x1="7" x2="300" y1="143.2969" y2="143.2969"/><text fill="#000000" font-family="sans-serif" font-size="14" lengthAdjust="spacing" textLength="87.4043" x="109.7979" y="134.9951">crearTarea()</text><ellipse cx="44" cy="164.2969" fill="#222222" rx="10" ry="10" style="stroke:#222222;stroke-width:1;"/><g id="crearTarea.Estado1"><rect fill="#FFFFFF" height="50" rx="12.5" ry="12.5" style="stroke:#000000;stroke-width:0.5;" width="50" x="19" y="245.2969"/><line style="stroke:#000000;stroke-width:0.5;" x1="19" x2="69" y1="271.5938" y2="271.5938"/><text fill="#000000" font-family="sans-serif" font-size="14" lengthAdjust="spacing" textLength="4.4502" x="41.7749" y="263.292">&#160;</text></g><g id="crearTarea.Estado2"><rect fill="#FFFFFF" height="50" rx="12.5" ry="12.5" style="stroke:#000000;stroke-width:0.5;" width="50" x="19" y="366.2969"/><line style="stroke:#000000;stroke-width:0.5;" x1="19" x2="69" y1="392.5938" y2="392.5938"/><text fill="#000000" font-family="sans-serif" font-size="14" lengthAdjust="spacing" textLength="4.4502" x="41.7749" y="384.292">&#160;</text></g><g id="crearTarea.Estado3"><rect fill="#FFFFFF" height="50" rx="12.5" ry="12.5" style="stroke:#000000;stroke-width:0.5;" width="50" x="19" y="487.2969"/><line style="stroke:#000000;stroke-width:0.5;" x1="19" x2="69" y1="513.5938" y2="513.5938"/><text fill="#000000" font-family="sans-serif" font-size="14" lengthAdjust="spacing" textLength="4.4502" x="41.7749" y="505.292">&#160;</text></g><ellipse cx="44" cy="619.2969" fill="none" rx="11" ry="11" style="stroke:#222222;stroke-width:1;"/><ellipse cx="44" cy="619.2969" fill="#222222" rx="6" ry="6" style="stroke:#222222;stroke-width:1;"/><!--link Inicio to Estado1--><g class="link" data-entity-1="Inicio" data-entity-2="Estado1" data-source-line="20" data-uid="lnk2" id="link_Inicio_Estado1"><path d="M44,174.5269 C44,190.2369 44,216.6569 44,239.1669" fill="none" id="Inicio-to-Estado1" style="stroke:#008000;stroke-width:1;"/><polygon fill="#008000" points="44,245.1669,48,236.1669,44,240.1669,40,236.1669,44,245.1669" style="stroke:#008000;stroke-width:1;"/><path d="M49,197.2969 L49,222.2969 L281,222.2969 L281,207.2969 L271,197.2969 L49,197.2969" fill="#FEFECE" style="stroke:#D7B75F;stroke-width:0.5;"/><path d="M271,197.2969 L271,207.2969 L281,207.2969 L271,197.2969" fill="#FEFECE" style="stroke:#D7B75F;stroke-width:0.5;"/><text fill="#000000" font-family="sans-serif" font-size="13" font-weight="bold" lengthAdjust="spacing" textLength="56.1196" x="55" y="214.3638">Usuario</text><text fill="#000000" font-family="sans-serif" font-size="13" lengthAdjust="spacing" textLength="151.252" x="115.252" y="214.3638">solicita introducir tarea</text></g><!--link Estado1 to Estado2--><g class="link" data-entity-1="Estado1" data-entity-2="Estado2" data-source-line="25" data-uid="lnk3" id="link_Estado1_Estado2"><path d="M44,295.3769 C44,316.0269 44,339.6169 44,360.2469" fill="none" id="Estado1-to-Estado2" style="stroke:#008000;stroke-width:1;"/><polygon fill="#008000" points="44,366.2469,48,357.2469,44,361.2469,40,357.2469,44,366.2469" style="stroke:#008000;stroke-width:1;"/><path d="M49,318.2969 L49,343.2969 L291,343.2969 L291,328.2969 L281,318.2969 L49,318.2969" fill="#FEFECE" style="stroke:#D7B75F;stroke-width:0.5;"/><path d="M281,318.2969 L281,328.2969 L291,328.2969 L281,318.2969" fill="#FEFECE" style="stroke:#D7B75F;stroke-width:0.5;"/><text fill="#000000" font-family="sans-serif" font-size="13" font-weight="bold" lengthAdjust="spacing" textLength="58.9063" x="55" y="335.3638">Sistema</text><text fill="#000000" font-family="sans-serif" font-size="13" lengthAdjust="spacing" textLength="158.1138" x="118.0386" y="335.3638">permite introducir datos</text></g><!--link Estado2 to Estado3--><g class="link" data-entity-1="Estado2" data-entity-2="Estado3" data-source-line="30" data-uid="lnk4" id="link_Estado2_Estado3"><path d="M44,416.3769 C44,437.0269 44,460.6169 44,481.2469" fill="none" id="Estado2-to-Estado3" style="stroke:#008000;stroke-width:1;"/><polygon fill="#008000" points="44,487.2469,48,478.2469,44,482.2469,40,478.2469,44,487.2469" style="stroke:#008000;stroke-width:1;"/><path d="M49,439.2969 L49,464.2969 L232,464.2969 L232,449.2969 L222,439.2969 L49,439.2969" fill="#FEFECE" style="stroke:#D7B75F;stroke-width:0.5;"/><path d="M222,439.2969 L222,449.2969 L232,449.2969 L222,439.2969" fill="#FEFECE" style="stroke:#D7B75F;stroke-width:0.5;"/><text fill="#000000" font-family="sans-serif" font-size="13" font-weight="bold" lengthAdjust="spacing" textLength="56.1196" x="55" y="456.3638">Usuario</text><text fill="#000000" font-family="sans-serif" font-size="13" lengthAdjust="spacing" textLength="102.0576" x="115.252" y="456.3638">introduce datos</text></g><!--link Estado3 to Fin--><g class="link" data-entity-1="Estado3" data-entity-2="Fin" data-source-line="35" data-uid="lnk5" id="link_Estado3_Fin"><path d="M44,537.3869 C44,559.7869 44,586.0669 44,602.2469" fill="none" id="Estado3-to-Fin" style="stroke:#008000;stroke-width:1;"/><polygon fill="#008000" points="44,608.2469,48,599.2469,44,603.2469,40,599.2469,44,608.2469" style="stroke:#008000;stroke-width:1;"/><path d="M49,560.2969 L49,585.2969 L272,585.2969 L272,570.2969 L262,560.2969 L49,560.2969" fill="#FEFECE" style="stroke:#D7B75F;stroke-width:0.5;"/><path d="M262,560.2969 L262,570.2969 L272,570.2969 L262,560.2969" fill="#FEFECE" style="stroke:#D7B75F;stroke-width:0.5;"/><text fill="#000000" font-family="sans-serif" font-size="13" font-weight="bold" lengthAdjust="spacing" textLength="58.9063" x="55" y="577.3638">Sistema</text><text fill="#000000" font-family="sans-serif" font-size="13" lengthAdjust="spacing" textLength="139.0708" x="118.0386" y="577.3638">visualiza nueva tarea</text></g><g id="TAREAS_ABIERTO_OUT"><rect fill="#FFFFFF" height="50" rx="12.5" ry="12.5" style="stroke:#000000;stroke-width:0.5;" width="134.7344" x="86" y="700"/><line style="stroke:#000000;stroke-width:0.5;" x1="86" x2="220.7344" y1="726.2969" y2="726.2969"/><text fill="#000000" font-family="sans-serif" font-size="14" lengthAdjust="spacing" textLength="114.7344" x="96" y="717.9951">TAREA_ABIERTO</text></g><!--link TAREAS_ABIERTO_IN to crearTarea--><g class="link" data-entity-1="TAREAS_ABIERTO_IN" data-entity-2="crearTarea" data-source-line="43" data-uid="lnk6" id="link_TAREAS_ABIERTO_IN_crearTarea"><path d="M153.5,57.22 C153.5,72.08 153.5,86.8 153.5,110.64" fill="none" id="TAREAS_ABIERTO_IN-to-crearTarea" style="stroke:#008000;stroke-width:1;"/><polygon fill="#008000" points="153.5,116.64,157.5,107.64,153.5,111.64,149.5,107.64,153.5,116.64" style="stroke:#008000;stroke-width:1;"/></g><!--link crearTarea to TAREAS_ABIERTO_OUT--><g class="link" data-entity-1="crearTarea" data-entity-2="TAREAS_ABIERTO_OUT" data-source-line="44" data-uid="lnk7" id="link_crearTarea_TAREAS_ABIERTO_OUT"><path d="M153.5,640.17 C153.5,664.11 153.5,678.93 153.5,693.83" fill="none" id="crearTarea-to-TAREAS_ABIERTO_OUT" style="stroke:#008000;stroke-width:1;"/><polygon fill="#008000" points="153.5,699.83,157.5,690.83,153.5,694.83,149.5,690.83,153.5,699.83" style="stroke:#008000;stroke-width:1;"/></g><!--SRC=[ZP9HQy8m4CVVyoc2lcmFiauPxg4KMjU2BnEqiaSvsx05QqukgOEDVVV5jDDsdSuy1FA_o_ztTvpUIBK3WYtN1epWdupR4q6sUIKiLJx10ec_l4aZgWXIBgXIeyAcEJKamlTAx7lUe-Tvx8lfexN2iyxz94xYITpnxZ-De_53OcrOLLWl3UTnk5Y5qJIUfxCU1ytRqchwV4pEI02bOE-RMvTw4kf2waJkebCbCudSzwrA9WYw6R5zvNX_BZ0y5nXr0ubKbYHKNdFSLLSm60Gjb9iSAbv8LKtwSFnriDGba4J_RXrmZONzQu1BPGZpCfF4pQ5Jzy5odCi9LVitMCEBh8NKHcp1iNQ2jdOLcgWS3Eesge4PDZ2ZgrlwiHV_k8-SknterGtifSKKyWEuAiKU_XhKhvMxj76pPSfOPmjTKQU5OutTEqIw7jy0]--></g></svg>