<svg xmlns="http://www.w3.org/2000/svg" xmlns:xlink="http://www.w3.org/1999/xlink" contentStyleType="text/css" data-diagram-type="STATE" height="555px" preserveAspectRatio="none" style="width:313px;height:555px;background:#FFFFFF;" version="1.1" viewBox="0 0 313 555" width="313px" zoomAndPan="magnify"><defs/><g><g id="TAREAS_ABIERTO"><rect fill="#FFFFFF" height="50" rx="12.5" ry="12.5" style="stroke:#000000;stroke-width:0.5;" width="143.6211" x="81.5" y="7"/><line style="stroke:#000000;stroke-width:0.5;" x1="81.5" x2="225.1211" y1="33.2969" y2="33.2969"/><text fill="#000000" font-family="sans-serif" font-size="14" lengthAdjust="spacing" textLength="123.6211" x="91.5" y="24.9951">TAREAS_ABIERTO</text></g><path d="M19.5,117 L287.5,117 A12.5,12.5 0 0 1 300,129.5 L300,143.2969 L7,143.2969 L7,129.5 A12.5,12.5 0 0 1 19.5,117" fill="#FFFFFF"/><rect fill="none" height="432.2969" rx="12.5" ry="12.5" style="stroke:#000000;stroke-width:0.5;" width="293" x="7" y="117"/><line style="stroke:#000000;stroke-width:0.5;" x1="7" x2="300" y1="143.2969" y2="143.2969"/><text fill="#000000" font-family="sans-serif" font-size="14" lengthAdjust="spacing" textLength="87.4043" x="109.7979" y="134.9951">crearTarea()</text><ellipse cx="44" cy="164.2969" fill="#222222" rx="10" ry="10" style="stroke:#222222;stroke-width:1;"/><g id="crearTarea.Formulario"><rect fill="#FFFFFF" height="50" rx="12.5" ry="12.5" style="stroke:#000000;stroke-width:0.5;" width="50" x="19" y="245.2969"/><line style="stroke:#000000;stroke-width:0.5;" x1="19" x2="69" y1="271.5938" y2="271.5938"/><text fill="#000000" font-family="sans-serif" font-size="14" lengthAdjust="spacing" textLength="4.4502" x="41.7749" y="263.292">&#160;</text></g><g id="crearTarea.Procesando"><rect fill="#FFFFFF" height="50" rx="12.5" ry="12.5" style="stroke:#000000;stroke-width:0.5;" width="50" x="19" y="381.2969"/><line style="stroke:#000000;stroke-width:0.5;" x1="19" x2="69" y1="407.5938" y2="407.5938"/><text fill="#000000" font-family="sans-serif" font-size="14" lengthAdjust="spacing" textLength="4.4502" x="41.7749" y="399.292">&#160;</text></g><ellipse cx="44" cy="528.2969" fill="none" rx="11" ry="11" style="stroke:#222222;stroke-width:1;"/><ellipse cx="44" cy="528.2969" fill="#222222" rx="6" ry="6" style="stroke:#222222;stroke-width:1;"/><!--link Inicio to Formulario--><g class="link" data-entity-1="Inicio" data-entity-2="Formulario" data-source-line="19" data-uid="lnk2" id="link_Inicio_Formulario"><path d="M44,174.5269 C44,190.2369 44,216.6569 44,239.1669" fill="none" id="Inicio-to-Formulario" style="stroke:#008000;stroke-width:1;"/><polygon fill="#008000" points="44,245.1669,48,236.1669,44,240.1669,40,236.1669,44,245.1669" style="stroke:#008000;stroke-width:1;"/><path d="M49,197.2969 L49,222.2969 L281,222.2969 L281,207.2969 L271,197.2969 L49,197.2969" fill="#FEFECE" style="stroke:#D7B75F;stroke-width:0.5;"/><path d="M271,197.2969 L271,207.2969 L281,207.2969 L271,197.2969" fill="#FEFECE" style="stroke:#D7B75F;stroke-width:0.5;"/><text fill="#000000" font-family="sans-serif" font-size="13" font-weight="bold" lengthAdjust="spacing" textLength="56.1196" x="55" y="214.3638">Usuario</text><text fill="#000000" font-family="sans-serif" font-size="13" lengthAdjust="spacing" textLength="151.252" x="115.252" y="214.3638">solicita introducir tarea</text></g><!--link Formulario to Procesando--><g class="link" data-entity-1="Formulario" data-entity-2="Procesando" data-source-line="24" data-uid="lnk3" id="link_Formulario_Procesando"><path d="M44,295.5669 C44,319.8469 44,350.9869 44,375.2069" fill="none" id="Formulario-to-Procesando" style="stroke:#008000;stroke-width:1;"/><polygon fill="#008000" points="44,381.2069,48,372.2069,44,376.2069,40,372.2069,44,381.2069" style="stroke:#008000;stroke-width:1;"/><path d="M49,318.2969 L49,358.2969 L291,358.2969 L291,328.2969 L281,318.2969 L49,318.2969" fill="#FEFECE" style="stroke:#D7B75F;stroke-width:0.5;"/><path d="M281,318.2969 L281,328.2969 L291,328.2969 L281,318.2969" fill="#FEFECE" style="stroke:#D7B75F;stroke-width:0.5;"/><text fill="#000000" font-family="sans-serif" font-size="13" font-weight="bold" lengthAdjust="spacing" textLength="58.9063" x="55" y="335.3638">Sistema</text><text fill="#000000" font-family="sans-serif" font-size="13" lengthAdjust="spacing" textLength="158.1138" x="118.0386" y="335.3638">permite introducir datos</text><ellipse cx="60.5" cy="346.0625" fill="#000000" rx="2.5" ry="2.5"/><text fill="#000000" font-family="sans-serif" font-size="13" lengthAdjust="spacing" textLength="151.7534" x="67" y="350.4966">T&#237;tulo, Fecha, Asignado</text></g><!--link Procesando to Fin--><g class="link" data-entity-1="Procesando" data-entity-2="Fin" data-source-line="30" data-uid="lnk4" id="link_Procesando_Fin"><path d="M44,431.5769 C44,457.8769 44,492.5669 44,511.2769" fill="none" id="Procesando-to-Fin" style="stroke:#008000;stroke-width:1;"/><polygon fill="#008000" points="44,517.2769,48,508.2769,44,512.2769,40,508.2769,44,517.2769" style="stroke:#008000;stroke-width:1;"/><path d="M49,454.2969 L49,494.2969 L272,494.2969 L272,464.2969 L262,454.2969 L49,454.2969" fill="#FEFECE" style="stroke:#D7B75F;stroke-width:0.5;"/><path d="M262,454.2969 L262,464.2969 L272,464.2969 L262,454.2969" fill="#FEFECE" style="stroke:#D7B75F;stroke-width:0.5;"/><text fill="#000000" font-family="sans-serif" font-size="13" font-weight="bold" lengthAdjust="spacing" textLength="56.1196" x="55" y="471.3638">Usuario</text><text fill="#000000" font-family="sans-serif" font-size="13" lengthAdjust="spacing" textLength="102.0576" x="115.252" y="471.3638">introduce datos</text><text fill="#000000" font-family="sans-serif" font-size="13" font-weight="bold" lengthAdjust="spacing" textLength="58.9063" x="55" y="486.4966">Sistema</text><text fill="#000000" font-family="sans-serif" font-size="13" lengthAdjust="spacing" textLength="139.0708" x="118.0386" y="486.4966">visualiza nueva tarea</text></g><!--link TAREAS_ABIERTO to crearTarea--><g class="link" data-entity-1="TAREAS_ABIERTO" data-entity-2="crearTarea" data-source-line="37" data-uid="lnk5" id="link_TAREAS_ABIERTO_crearTarea"><path d="M146.14,57.22 C144.22,72.23 143.0383,87.1443 142.1383,110.7843" fill="none" id="TAREAS_ABIERTO-to-crearTarea" style="stroke:#008000;stroke-width:1;"/><polygon fill="#008000" points="141.91,116.78,146.2495,107.9387,142.1002,111.7836,138.2553,107.6343,141.91,116.78" style="stroke:#008000;stroke-width:1;"/></g><!--link crearTarea to TAREAS_ABIERTO--><g class="link" data-entity-1="crearTarea" data-entity-2="TAREAS_ABIERTO" data-source-line="38" data-uid="lnk6" id="link_crearTarea_TAREAS_ABIERTO"><path d="M165.77,116.78 C164.82,93.14 164.138,78.1753 162.098,63.1653" fill="none" id="crearTarea-to-TAREAS_ABIERTO" style="stroke:#008000;stroke-width:1;"/><polygon fill="#008000" points="161.29,57.22,158.5385,66.6767,161.9634,62.1745,166.4656,65.5993,161.29,57.22" style="stroke:#008000;stroke-width:1;"/></g><!--SRC=[ZLB1Qi904BtdAmQzj4LfBiKUGY2n2NXgqPGUovWikhZPbTcDXPP-Kh-YFzRD9XgD2jt3GjwyUU_jPFI6ooqIbg0D6WPV7jWJOxvPaQfaCLL24RojkM5DHL71g45ZOMaEZOZKHmCEVV_HzttlszC7QQckAW_J94scoPdsy6aIJnvIA-CrmR9edaIBzoYU9VFiUOyESc986ThxvdO0gA43MiUM2Auwappd2eB0ecJ2y9oHAYehWSJLUUs5LCuqok92BUNIoZ9PjABkQkt6ux2lwqQY90Wkcn7M9rY6hxggES7zCWIjX6qt25mQKaMLSm9JlymrM2kdqhbr5iwnb_QQuu9hmqfqZbj6fVtJnuO56gKF_3l8VdzC9TG8KfQlSGIHvYk9hSSXa_lg0ZGJuFBVJzy7O3t_NjuTjps2VoB8YktmqdJi0fskZilIRObtj31rvPJy1m00]--></g></svg>