<svg xmlns="http://www.w3.org/2000/svg" xmlns:xlink="http://www.w3.org/1999/xlink" contentStyleType="text/css" data-diagram-type="STATE" height="631px" preserveAspectRatio="none" style="width:305px;height:631px;background:#FFFFFF;" version="1.1" viewBox="0 0 305 631" width="305px" zoomAndPan="magnify"><defs/><g><rect fill="#F1F1F1" height="40" rx="12.5" ry="12.5" style="stroke:#181818;stroke-width:0.5;" width="185.8066" x="44" y="7"/><text fill="#000000" font-family="sans-serif" font-size="14" lengthAdjust="spacing" textLength="175.8066" x="49" y="31.8467">PLANIFICACION_ABIERTO</text><path d="M19.5,108 L254.5,108 A12.5,12.5 0 0 1 267,120.5 L267,134.2969 L7,134.2969 L7,120.5 A12.5,12.5 0 0 1 19.5,108" fill="#F1F1F1"/><rect fill="none" height="382.2969" rx="12.5" ry="12.5" style="stroke:#181818;stroke-width:0.5;" width="260" x="7" y="108"/><line style="stroke:#181818;stroke-width:0.5;" x1="7" x2="267" y1="134.2969" y2="134.2969"/><text fill="#000000" font-family="sans-serif" font-size="14" lengthAdjust="spacing" textLength="141.1348" x="66.4326" y="125.9951">definirLocalizacion()</text><rect fill="#F1F1F1" height="40" rx="12.5" ry="12.5" style="stroke:#181818;stroke-width:0.5;" width="50" x="19" y="236.2969"/><text fill="#000000" font-family="sans-serif" font-size="14" lengthAdjust="spacing" textLength="4.4502" x="41.7749" y="261.1436">&#160;</text><rect fill="#F1F1F1" height="40" rx="12.5" ry="12.5" style="stroke:#181818;stroke-width:0.5;" width="50" x="19" y="347.2969"/><text fill="#000000" font-family="sans-serif" font-size="14" lengthAdjust="spacing" textLength="4.4502" x="41.7749" y="372.1436">&#160;</text><ellipse cx="44" cy="155.2969" fill="#222222" rx="10" ry="10" style="stroke:#222222;stroke-width:1;"/><ellipse cx="44" cy="469.2969" fill="none" rx="11" ry="11" style="stroke:#222222;stroke-width:1;"/><ellipse cx="44" cy="469.2969" fill="#222222" rx="6" ry="6" style="stroke:#222222;stroke-width:1;"/><!--link *start*definirLocalizacion to IngresandoLocalizacion--><g class="link" data-entity-1=".start.definirLocalizacion" data-entity-2="IngresandoLocalizacion" data-source-line="12" data-uid="lnk4" id="link_.start.definirLocalizacion_IngresandoLocalizacion"><path d="M44,165.4369 C44,181.4169 44,208.7869 44,230.0669" fill="none" id="*start*definirLocalizacion-to-IngresandoLocalizacion" style="stroke:#008000;stroke-width:1;"/><polygon fill="#008000" points="44,236.0669,48,227.0669,44,231.0669,40,227.0669,44,236.0669" style="stroke:#008000;stroke-width:1;"/><path d="M49,188.2969 L49,213.2969 L258,213.2969 L258,198.2969 L248,188.2969 L49,188.2969" fill="#FEFFDD" style="stroke:#181818;stroke-width:0.5;"/><path d="M248,188.2969 L248,198.2969 L258,198.2969 L248,188.2969" fill="#FEFFDD" style="stroke:#181818;stroke-width:0.5;"/><text fill="#000000" font-family="sans-serif" font-size="13" font-weight="bold" lengthAdjust="spacing" textLength="56.1196" x="55" y="205.3638">Usuario</text><text fill="#000000" font-family="sans-serif" font-size="13" lengthAdjust="spacing" textLength="128.1846" x="115.252" y="205.3638">introduce ubicaci&#243;n</text></g><!--link IngresandoLocalizacion to ValidandoLocalizacion--><g class="link" data-entity-1="IngresandoLocalizacion" data-entity-2="ValidandoLocalizacion" data-source-line="17" data-uid="lnk5" id="link_IngresandoLocalizacion_ValidandoLocalizacion"><path d="M44,276.5369 C44,296.4569 44,321.3969 44,341.2569" fill="none" id="IngresandoLocalizacion-to-ValidandoLocalizacion" style="stroke:#008000;stroke-width:1;"/><polygon fill="#008000" points="44,347.2569,48,338.2569,44,342.2569,40,338.2569,44,347.2569" style="stroke:#008000;stroke-width:1;"/><path d="M49,299.2969 L49,324.2969 L251,324.2969 L251,309.2969 L241,299.2969 L49,299.2969" fill="#FEFFDD" style="stroke:#181818;stroke-width:0.5;"/><path d="M241,299.2969 L241,309.2969 L251,309.2969 L241,299.2969" fill="#FEFFDD" style="stroke:#181818;stroke-width:0.5;"/><text fill="#000000" font-family="sans-serif" font-size="13" font-weight="bold" lengthAdjust="spacing" textLength="58.9063" x="55" y="316.3638">Sistema</text><text fill="#000000" font-family="sans-serif" font-size="13" lengthAdjust="spacing" textLength="118.8789" x="118.0386" y="316.3638">valida localizaci&#243;n</text></g><!--link ValidandoLocalizacion to *end*definirLocalizacion--><g class="link" data-entity-1="ValidandoLocalizacion" data-entity-2=".end.definirLocalizacion" data-source-line="22" data-uid="lnk7" id="link_ValidandoLocalizacion_.end.definirLocalizacion"><path d="M44,387.5769 C44,408.6869 44,435.7369 44,452.2269" fill="none" id="ValidandoLocalizacion-to-*end*definirLocalizacion" style="stroke:#008000;stroke-width:1;"/><polygon fill="#008000" points="44,458.2269,48,449.2269,44,453.2269,40,449.2269,44,458.2269" style="stroke:#008000;stroke-width:1;"/><path d="M49,410.2969 L49,435.2969 L258,435.2969 L258,420.2969 L248,410.2969 L49,410.2969" fill="#FEFFDD" style="stroke:#181818;stroke-width:0.5;"/><path d="M248,410.2969 L248,420.2969 L258,420.2969 L248,410.2969" fill="#FEFFDD" style="stroke:#181818;stroke-width:0.5;"/><text fill="#000000" font-family="sans-serif" font-size="13" font-weight="bold" lengthAdjust="spacing" textLength="58.9063" x="55" y="427.3638">Sistema</text><text fill="#000000" font-family="sans-serif" font-size="13" lengthAdjust="spacing" textLength="125.7979" x="118.0386" y="427.3638">guarda localizaci&#243;n</text></g><rect fill="#F1F1F1" height="40" rx="12.5" ry="12.5" style="stroke:#181818;stroke-width:0.5;" width="185.8066" x="44" y="585"/><text fill="#000000" font-family="sans-serif" font-size="14" lengthAdjust="spacing" textLength="175.8066" x="49" y="609.8467">PLANIFICACION_ABIERTO</text><!--link in1 to definirLocalizacion--><g class="link" data-entity-1="in1" data-entity-2="definirLocalizacion" data-source-line="5" data-uid="lnk2" id="link_in1_definirLocalizacion"><path d="M137,47.42 C137,61.93 137,77.4 137,101.78" fill="none" id="in1-to-definirLocalizacion" style="stroke:#008000;stroke-width:1;"/><polygon fill="#008000" points="137,107.78,141,98.78,137,102.78,133,98.78,137,107.78" style="stroke:#008000;stroke-width:1;"/></g><!--link definirLocalizacion to PLANIFICACION_ABIERTO--><g class="link" data-entity-1="definirLocalizacion" data-entity-2="PLANIFICACION_ABIERTO" data-source-line="28" data-uid="lnk9" id="link_definirLocalizacion_PLANIFICACION_ABIERTO"><path d="M137,490.37 C137,529.14 137,558.34 137,578.97" fill="none" id="definirLocalizacion-to-PLANIFICACION_ABIERTO" style="stroke:#008000;stroke-width:1;"/><polygon fill="#008000" points="137,584.97,141,575.97,137,579.97,133,575.97,137,584.97" style="stroke:#008000;stroke-width:1;"/><path d="M142,525 L142,550 L298,550 L298,535 L288,525 L142,525" fill="#FEFFDD" style="stroke:#181818;stroke-width:0.5;"/><path d="M288,525 L288,535 L298,535 L288,525" fill="#FEFFDD" style="stroke:#181818;stroke-width:0.5;"/><text fill="#000000" font-family="sans-serif" font-size="13" lengthAdjust="spacing" textLength="135.916" x="148" y="542.0669">Localizaci&#243;n definida</text></g><!--SRC=[ZPBVIiCm5CRlynI7UgF24Ez7eGw5GDd4VpTZIDeSvs5jKf9KgE9J-GY-c6awHsNPC7VDET_t-_YQLv88M3Uk0ucsDDGuqehP3Qb66553HGfTro0qkkhw3yQi4mw1r2K82ybjditv3PzbCxwOFsTN_FhkOP6mVZnPdgmDebfDKk_-GefChajHqRieUyhMAJ8Apf7xqxC4FXW3VmOjLvvWXP9wJmx9QE_9p-IXjR2tF5_z2Hnt3gjAUqSlztLimaL_faNwQ5jXI4ylYjJNuuoMROdG5bHwxVVN84ObWy50FP1_72GQ_MYEUx8EQn5ol0KrL3jjF4Uydt4Cty-_eMlVmt7e9sEntpu6HXyMsyFdOyZsBKd1Vaa_]--></g></svg>