<svg xmlns="http://www.w3.org/2000/svg" xmlns:xlink="http://www.w3.org/1999/xlink" contentStyleType="text/css" data-diagram-type="STATE" height="731px" preserveAspectRatio="none" style="width:695px;height:731px;background:#FFFFFF;" version="1.1" viewBox="0 0 695 731" width="695px" zoomAndPan="magnify"><defs/><g><g id="Inicio"><rect fill="#FFFFFF" height="50" rx="12.5" ry="12.5" style="stroke:#000000;stroke-width:0.5;" width="195.8066" x="246.5" y="7"/><line style="stroke:#000000;stroke-width:0.5;" x1="246.5" x2="442.3066" y1="33.2969" y2="33.2969"/><text fill="#000000" font-family="sans-serif" font-size="14" lengthAdjust="spacing" textLength="175.8066" x="256.5" y="24.9951">PLANIFICACION_ABIERTO</text></g><path d="M19.5,118 L669.69,118 A12.5,12.5 0 0 1 682.19,130.5 L682.19,144.2969 L7,144.2969 L7,130.5 A12.5,12.5 0 0 1 19.5,118" fill="#FFFFFF"/><rect fill="none" height="462.2969" rx="12.5" ry="12.5" style="stroke:#000000;stroke-width:0.5;" width="675.19" x="7" y="118"/><line style="stroke:#000000;stroke-width:0.5;" x1="7" x2="682.19" y1="144.2969" y2="144.2969"/><text fill="#000000" font-family="sans-serif" font-size="14" lengthAdjust="spacing" textLength="141.1348" x="274.0276" y="135.9951">definirLocalizacion()</text><g id="DefinirLocalizacionContainer.PasoInicial"><rect fill="#FFFFFF" height="50" rx="12.5" ry="12.5" style="stroke:#000000;stroke-width:0.5;" width="50" x="214.19" y="246.2969"/><line style="stroke:#000000;stroke-width:0.5;" x1="214.19" x2="264.19" y1="272.5938" y2="272.5938"/><text fill="#000000" font-family="sans-serif" font-size="14" lengthAdjust="spacing" textLength="4.4502" x="236.9649" y="264.292">&#160;</text></g><g id="DefinirLocalizacionContainer.PasoDatos"><rect fill="#FFFFFF" height="50" rx="12.5" ry="12.5" style="stroke:#000000;stroke-width:0.5;" width="50" x="214.19" y="427.2969"/><line style="stroke:#000000;stroke-width:0.5;" x1="214.19" x2="264.19" y1="453.5938" y2="453.5938"/><text fill="#000000" font-family="sans-serif" font-size="14" lengthAdjust="spacing" textLength="4.4502" x="236.9649" y="445.292">&#160;</text></g><ellipse cx="239.19" cy="165.2969" fill="#222222" rx="10" ry="10" style="stroke:#222222;stroke-width:1;"/><ellipse cx="239.19" cy="559.2969" fill="none" rx="11" ry="11" style="stroke:#222222;stroke-width:1;"/><ellipse cx="239.19" cy="559.2969" fill="#222222" rx="6" ry="6" style="stroke:#222222;stroke-width:1;"/><!--link *start*DefinirLocalizacionContainer to PasoInicial--><g class="link" data-entity-1=".start.DefinirLocalizacionContainer" data-entity-2="PasoInicial" data-source-line="29" data-uid="lnk3" id="link_.start.DefinirLocalizacionContainer_PasoInicial"><path d="M239.19,175.5269 C239.19,191.2369 239.19,217.6569 239.19,240.1669" fill="none" id="*start*DefinirLocalizacionContainer-to-PasoInicial" style="stroke:#009900;stroke-width:1;"/><polygon fill="#009900" points="239.19,246.1669,243.19,237.1669,239.19,241.1669,235.19,237.1669,239.19,246.1669" style="stroke:#009900;stroke-width:1;"/><path d="M244.19,198.2969 L244.19,223.2969 L496.19,223.2969 L496.19,208.2969 L486.19,198.2969 L244.19,198.2969" fill="#FFFFE0" style="stroke:#B0B060;stroke-width:0.5;"/><path d="M486.19,198.2969 L486.19,208.2969 L496.19,208.2969 L486.19,198.2969" fill="#FFFFE0" style="stroke:#B0B060;stroke-width:0.5;"/><text fill="#000000" font-family="Arial" font-size="13" font-weight="bold" lengthAdjust="spacing" textLength="56.1196" x="250.19" y="215.3638">Usuario</text><text fill="#000000" font-family="Arial" font-size="13" lengthAdjust="spacing" textLength="171.3169" x="310.442" y="215.3638">solicita definir localizaci&#243;n</text></g><!--link PasoInicial to PasoDatos--><g class="link" data-entity-1="PasoInicial" data-entity-2="PasoDatos" data-source-line="34" data-uid="lnk4" id="link_PasoInicial_PasoDatos"><path d="M239.19,296.4369 C239.19,330.6969 239.19,387.0469 239.19,421.2569" fill="none" id="PasoInicial-to-PasoDatos" style="stroke:#009900;stroke-width:1;"/><polygon fill="#009900" points="239.19,427.2569,243.19,418.2569,239.19,422.2569,235.19,418.2569,239.19,427.2569" style="stroke:#009900;stroke-width:1;"/><path d="M244.19,319.2969 L244.19,404.2969 L503.19,404.2969 L503.19,329.2969 L493.19,319.2969 L244.19,319.2969" fill="#FFFFE0" style="stroke:#B0B060;stroke-width:0.5;"/><path d="M493.19,319.2969 L493.19,329.2969 L503.19,329.2969 L493.19,319.2969" fill="#FFFFE0" style="stroke:#B0B060;stroke-width:0.5;"/><text fill="#000000" font-family="Arial" font-size="13" font-weight="bold" lengthAdjust="spacing" textLength="58.9063" x="250.19" y="336.3638">Sistema</text><text fill="#000000" font-family="Arial" font-size="13" lengthAdjust="spacing" textLength="174.5352" x="313.2286" y="336.3638">presenta mapa y buscador</text><text fill="#000000" font-family="Arial" font-size="13" font-weight="bold" lengthAdjust="spacing" textLength="58.9063" x="250.19" y="351.4966">Sistema</text><text fill="#000000" font-family="Arial" font-size="13" lengthAdjust="spacing" textLength="110.5952" x="313.2286" y="351.4966">permite solicitar:</text><text fill="#000000" font-family="Arial" font-size="13" lengthAdjust="spacing" textLength="238.145" x="250.19" y="366.6294">&#8226; introducir coordenadas o direcci&#243;n</text><text fill="#000000" font-family="Arial" font-size="13" lengthAdjust="spacing" textLength="142.9429" x="250.19" y="381.7622">&#8226; guardar localizaci&#243;n</text><text fill="#000000" font-family="Arial" font-size="13" lengthAdjust="spacing" textLength="146.999" x="250.19" y="396.895">&#8226; cancelar localizaci&#243;n</text></g><!--link PasoDatos to *end*DefinirLocalizacionContainer--><g class="link" data-entity-1="PasoDatos" data-entity-2=".end.DefinirLocalizacionContainer" data-source-line="44" data-uid="lnk6" id="link_PasoDatos_.end.DefinirLocalizacionContainer"><path d="M213.89,455.1769 C155.19,460.4669 18,478.5769 62.19,530.2969 C83.81,555.6069 186.9701,558.1396 222.2001,558.2996" fill="none" id="PasoDatos-to-*end*DefinirLocalizacionContainer" style="stroke:#008000;stroke-width:1;"/><polygon fill="#008000" points="228.2,558.3269,219.2183,554.286,223.2001,558.3042,219.1819,562.286,228.2,558.3269" style="stroke:#008000;stroke-width:1;"/><path d="M67.19,500.2969 L67.19,525.2969 L390.19,525.2969 L390.19,510.2969 L380.19,500.2969 L67.19,500.2969" fill="#FFFFE0" style="stroke:#B0B060;stroke-width:0.5;"/><path d="M380.19,500.2969 L380.19,510.2969 L390.19,510.2969 L380.19,500.2969" fill="#FFFFE0" style="stroke:#B0B060;stroke-width:0.5;"/><text fill="#000000" font-family="Arial" font-size="13" font-weight="bold" lengthAdjust="spacing" textLength="56.1196" x="73.19" y="517.3638">Usuario</text><text fill="#000000" font-family="Arial" font-size="13" lengthAdjust="spacing" textLength="241.7568" x="133.442" y="517.3638">introduce los datos y solicita guardar</text></g><!--link PasoDatos to *end*DefinirLocalizacionContainer--><g class="link" data-entity-1="PasoDatos" data-entity-2=".end.DefinirLocalizacionContainer" data-source-line="49" data-uid="lnk7" id="link_PasoDatos_.end.DefinirLocalizacionContainer"><path d="M264.24,456.3569 C304.16,461.8069 379.32,474.5969 395.19,495.2969 C404.65,507.6469 405.17,518.3669 395.19,530.2969 C376.56,552.5669 288.6576,556.9767 256.2276,557.8967" fill="none" id="PasoDatos-to-*end*DefinirLocalizacionContainer-1" style="stroke:#FF0000;stroke-width:1;"/><polygon fill="#FF0000" points="250.23,558.0669,259.3398,561.81,255.228,557.9251,259.113,553.8133,250.23,558.0669" style="stroke:#FF0000;stroke-width:1;"/><path d="M407.19,500.2969 L407.19,525.2969 L673.19,525.2969 L673.19,510.2969 L663.19,500.2969 L407.19,500.2969" fill="#FFFFE0" style="stroke:#B0B060;stroke-width:0.5;"/><path d="M663.19,500.2969 L663.19,510.2969 L673.19,510.2969 L663.19,500.2969" fill="#FFFFE0" style="stroke:#B0B060;stroke-width:0.5;"/><text fill="#000000" font-family="Arial" font-size="13" font-weight="bold" lengthAdjust="spacing" textLength="56.1196" x="413.19" y="517.3638">Usuario</text><text fill="#000000" font-family="Arial" font-size="13" lengthAdjust="spacing" textLength="185.104" x="473.442" y="517.3638">solicita cancelar localizaci&#243;n</text></g><g id="SalidaPlanificacion"><rect fill="#FFFFFF" height="50" rx="12.5" ry="12.5" style="stroke:#000000;stroke-width:0.5;" width="195.8066" x="246.5" y="675"/><line style="stroke:#000000;stroke-width:0.5;" x1="246.5" x2="442.3066" y1="701.2969" y2="701.2969"/><text fill="#000000" font-family="sans-serif" font-size="14" lengthAdjust="spacing" textLength="175.8066" x="256.5" y="692.9951">PLANIFICACION_ABIERTO</text></g><!--link Inicio to DefinirLocalizacionContainer--><g class="link" data-entity-1="Inicio" data-entity-2="DefinirLocalizacionContainer" data-source-line="59" data-uid="lnk8" id="link_Inicio_DefinirLocalizacionContainer"><path d="M344.5,57.19 C344.5,72.39 344.5,87.68 344.5,111.89" fill="none" id="Inicio-to-DefinirLocalizacionContainer" style="stroke:#009900;stroke-width:1;"/><polygon fill="#009900" points="344.5,117.89,348.5,108.89,344.5,112.89,340.5,108.89,344.5,117.89" style="stroke:#009900;stroke-width:1;"/></g><!--link DefinirLocalizacionContainer to SalidaPlanificacion--><g class="link" data-entity-1="DefinirLocalizacionContainer" data-entity-2="SalidaPlanificacion" data-source-line="62" data-uid="lnk9" id="link_DefinirLocalizacionContainer_SalidaPlanificacion"><path d="M247.27,580.06 C244.69,590.09 242.41,600.09 240.5,610 C237.56,625.27 232.42,631.71 240.5,645 C248.16,657.61 254.6577,664.3422 267.4377,671.9122" fill="none" id="DefinirLocalizacionContainer-to-SalidaPlanificacion" style="stroke:#008000;stroke-width:1;"/><polygon fill="#008000" points="272.6,674.97,266.895,666.9417,268.2981,672.4218,262.8179,673.8248,272.6,674.97" style="stroke:#008000;stroke-width:1;"/><path d="M245.5,615 L245.5,640 L397.5,640 L397.5,625 L387.5,615 L245.5,615" fill="#FFFFE0" style="stroke:#B0B060;stroke-width:0.5;"/><path d="M387.5,615 L387.5,625 L397.5,625 L387.5,615" fill="#FFFFE0" style="stroke:#B0B060;stroke-width:0.5;"/><text fill="#000000" font-family="Arial" font-size="13" lengthAdjust="spacing" textLength="131.1426" x="251.5" y="632.0669">guardar localizaci&#243;n</text></g><!--link DefinirLocalizacionContainer to SalidaPlanificacion--><g class="link" data-entity-1="DefinirLocalizacionContainer" data-entity-2="SalidaPlanificacion" data-source-line="68" data-uid="lnk10" id="link_DefinirLocalizacionContainer_SalidaPlanificacion"><path d="M421.2,580.29 C420.26,602.59 415.82,624.52 406.5,645 C401.24,656.56 396.7106,662.7229 387.0806,670.9129" fill="none" id="DefinirLocalizacionContainer-to-SalidaPlanificacion-1" style="stroke:#FF0000;stroke-width:1;"/><polygon fill="#FF0000" points="382.51,674.8,391.9573,672.0164,386.3188,671.5607,386.7745,665.9223,382.51,674.8" style="stroke:#FF0000;stroke-width:1;"/><path d="M421.5,615 L421.5,640 L577.5,640 L577.5,625 L567.5,615 L421.5,615" fill="#FFFFE0" style="stroke:#B0B060;stroke-width:0.5;"/><path d="M567.5,615 L567.5,625 L577.5,625 L567.5,615" fill="#FFFFE0" style="stroke:#B0B060;stroke-width:0.5;"/><text fill="#000000" font-family="Arial" font-size="13" lengthAdjust="spacing" textLength="135.1987" x="427.5" y="632.0669">cancelar localizaci&#243;n</text></g><!--SRC=[bLFDQXj13BxxAKHyI688xAcG7Wgsuu0X92PksaC8HPwHdKbcHsPcJ9gMGf-bhz17w9lqIQgTMMzC_1DtJulqpQTF-gJmQDmSFPPGicDrxxaacA8Dr0fDAjoZvgSw77aEaM72CN89sdXIqR1hhU8ZHeBlBP2lX-fnvddXT9yjU_XyRoBb37jDFaTxLc0fslMUdtAmNHIdfqMHmkE8Fhx63fQaEVHZLOFZhHBQv_8DYZKHxLxHAzxb-3cxU8aoYwutQ2lgGnX8Nve3Q9BAqQD6E1AvPeB7hTpomUYYUpay7_Qx_U7LvPTkRpYu_dXr01XWw8moND7qXPeSQQceoK8V0rUKDu6NB9gcnXb_mGgj-ORopXqT9vQpzKn5XyQHhxlTwa-Lh0j08Xj9vIHB6joOFCF88J-yxTp1oSc7jJTfpEp06fSzgRvEvoOiq1lkT22m5NH4g9i2ssZ_yzkb9-HquicLLYeq5REG7VN69aGgKUhDFGMIYK29SuHdc2o24jVyPZ3vKjQn4UdVDx2_Ft-14PTPBvIeLbmjYXFF0t2Uwai3I_nCcjQugSKbGg5JPF7jAHn2Rw4iLOkXIPbGmIezv1qtOqfZWPFRzimJkJiPbjYqdotBraYKo4OdekSNi-fEjjZJrFMa_wjgmx_F75xVt5Y0wUGc-C1xN5p6ZomwCpKgtKfzVlHL_YcHJktYWLlvEDEwxRgmwdcjGYXa1gBc4ybU7BTs7kQgGvjKhSrjyoAz6D78a0xgKIO875tp0xwjflPjBorRh5gA-GS0]--></g></svg>