<svg xmlns="http://www.w3.org/2000/svg" xmlns:xlink="http://www.w3.org/1999/xlink" contentStyleType="text/css" data-diagram-type="STATE" height="595px" preserveAspectRatio="none" style="width:379px;height:595px;background:#FFFFFF;" version="1.1" viewBox="0 0 379 595" width="379px" zoomAndPan="magnify"><defs/><g><rect fill="#FFFFFF" height="40" rx="12.5" ry="12.5" style="stroke:#000000;stroke-width:0.5;" width="159.0508" x="106.97" y="7"/><text fill="#000000" font-family="sans-serif" font-size="14" lengthAdjust="spacing" textLength="149.0508" x="111.97" y="31.8467">CONFLICTO_ABIERTO</text><path d="M19.5,107 L353.5,107 A12.5,12.5 0 0 1 366,119.5 L366,133.2969 L7,133.2969 L7,119.5 A12.5,12.5 0 0 1 19.5,107" fill="#FFFFFF"/><rect fill="none" height="382.2969" rx="12.5" ry="12.5" style="stroke:#000000;stroke-width:0.5;" width="359" x="7" y="107"/><line style="stroke:#000000;stroke-width:0.5;" x1="7" x2="366" y1="133.2969" y2="133.2969"/><text fill="#000000" font-family="sans-serif" font-size="14" lengthAdjust="spacing" textLength="129.3701" x="121.8149" y="124.9951">resolverConflicto()</text><rect fill="#FFFFFF" height="40" rx="12.5" ry="12.5" style="stroke:#000000;stroke-width:0.5;" width="50" x="19" y="235.2969"/><text fill="#000000" font-family="sans-serif" font-size="14" lengthAdjust="spacing" textLength="4.4502" x="41.7749" y="260.1436">&#160;</text><rect fill="#FFFFFF" height="40" rx="12.5" ry="12.5" style="stroke:#000000;stroke-width:0.5;" width="50" x="19" y="346.2969"/><text fill="#000000" font-family="sans-serif" font-size="14" lengthAdjust="spacing" textLength="4.4502" x="41.7749" y="371.1436">&#160;</text><ellipse cx="44" cy="154.2969" fill="#222222" rx="10" ry="10" style="stroke:#222222;stroke-width:1;"/><ellipse cx="44" cy="468.2969" fill="none" rx="11" ry="11" style="stroke:#222222;stroke-width:1;"/><ellipse cx="44" cy="468.2969" fill="#222222" rx="6" ry="6" style="stroke:#222222;stroke-width:1;"/><!--link *start*MainBlock to Paso1--><g class="link" data-entity-1=".start.MainBlock" data-entity-2="Paso1" data-link-type="dependency" data-source-line="21" data-uid="lnk3" id="link_.start.MainBlock_Paso1"><path d="M44,164.7869 C44,180.8569 44,207.7269 44,228.8469" fill="none" id="*start*MainBlock-to-Paso1" style="stroke:#008000;stroke-width:1;"/><polygon fill="#008000" points="44,234.8469,48,225.8469,44,229.8469,40,225.8469,44,234.8469" style="stroke:#008000;stroke-width:1;"/><path d="M49,187.2969 L49,212.2969 L329,212.2969 L329,197.2969 L319,187.2969 L49,187.2969" fill="#FFFFE0" style="stroke:#808080;stroke-width:0.5;"/><path d="M319,187.2969 L319,197.2969 L329,197.2969 L319,187.2969" fill="#FFFFE0" style="stroke:#808080;stroke-width:0.5;"/><text fill="#000000" font-family="sans-serif" font-size="13" font-weight="bold" lengthAdjust="spacing" textLength="113.3755" x="55" y="204.3638">Usuario solicita</text><text fill="#000000" font-family="sans-serif" font-size="13" lengthAdjust="spacing" textLength="142.4287" x="172.5078" y="204.3638">correcci&#243;n del horario</text></g><!--link Paso1 to Paso2--><g class="link" data-entity-1="Paso1" data-entity-2="Paso2" data-link-type="dependency" data-source-line="28" data-uid="lnk4" id="link_Paso1_Paso2"><path d="M44,275.7869 C44,295.6269 44,320.1969 44,339.9769" fill="none" id="Paso1-to-Paso2" style="stroke:#008000;stroke-width:1;"/><polygon fill="#008000" points="44,345.9769,48,336.9769,44,340.9769,40,336.9769,44,345.9769" style="stroke:#008000;stroke-width:1;"/><path d="M49,298.2969 L49,323.2969 L357,323.2969 L357,308.2969 L347,298.2969 L49,298.2969" fill="#FFFFE0" style="stroke:#808080;stroke-width:0.5;"/><path d="M347,298.2969 L347,308.2969 L357,308.2969 L347,298.2969" fill="#FFFFE0" style="stroke:#808080;stroke-width:0.5;"/><text fill="#000000" font-family="sans-serif" font-size="13" font-weight="bold" lengthAdjust="spacing" textLength="184.666" x="55" y="315.3638">Sistema permite solicitar</text><text fill="#000000" font-family="sans-serif" font-size="13" lengthAdjust="spacing" textLength="98.4458" x="243.7983" y="315.3638">la modificaci&#243;n</text></g><!--link Paso2 to *end*MainBlock--><g class="link" data-entity-1="Paso2" data-entity-2=".end.MainBlock" data-link-type="dependency" data-source-line="35" data-uid="lnk6" id="link_Paso2_.end.MainBlock"><path d="M44,386.5769 C44,407.5769 44,434.3769 44,450.9569" fill="none" id="Paso2-to-*end*MainBlock" style="stroke:#008000;stroke-width:1;"/><polygon fill="#008000" points="44,456.9569,48,447.9569,44,451.9569,40,447.9569,44,456.9569" style="stroke:#008000;stroke-width:1;"/><path d="M49,409.2969 L49,434.2969 L308,434.2969 L308,419.2969 L298,409.2969 L49,409.2969" fill="#FFFFE0" style="stroke:#808080;stroke-width:0.5;"/><path d="M298,409.2969 L298,419.2969 L308,419.2969 L298,409.2969" fill="#FFFFE0" style="stroke:#808080;stroke-width:0.5;"/><text fill="#000000" font-family="sans-serif" font-size="13" font-weight="bold" lengthAdjust="spacing" textLength="124.1855" x="55" y="426.3638">Sistema muestra</text><text fill="#000000" font-family="sans-serif" font-size="13" lengthAdjust="spacing" textLength="110.4175" x="183.3179" y="426.3638">monitoreo activo</text></g><rect fill="#FFFFFF" height="40" rx="12.5" ry="12.5" style="stroke:#000000;stroke-width:0.5;" width="196.4844" x="88.26" y="549.3"/><text fill="#000000" font-family="sans-serif" font-size="14" lengthAdjust="spacing" textLength="186.4844" x="93.26" y="574.1467">AUTOMATIZACION_ACTIVA</text><!--link CONFLICTO_ABIERTO to MainBlock--><g class="link" data-entity-1="CONFLICTO_ABIERTO" data-entity-2="MainBlock" data-link-type="dependency" data-source-line="46" data-uid="lnk7" id="link_CONFLICTO_ABIERTO_MainBlock"><path d="M186.5,47.36 C186.5,61.64 186.5,76.7 186.5,100.62" fill="none" id="CONFLICTO_ABIERTO-to-MainBlock" style="stroke:#008000;stroke-width:1;"/><polygon fill="#008000" points="186.5,106.62,190.5,97.62,186.5,101.62,182.5,97.62,186.5,106.62" style="stroke:#008000;stroke-width:1;"/></g><!--link MainBlock to AUTOMATIZACION_ACTIVA--><g class="link" data-entity-1="MainBlock" data-entity-2="AUTOMATIZACION_ACTIVA" data-link-type="dependency" data-source-line="47" data-uid="lnk8" id="link_MainBlock_AUTOMATIZACION_ACTIVA"><path d="M186.5,489.73 C186.5,513.72 186.5,528.82 186.5,543.1" fill="none" id="MainBlock-to-AUTOMATIZACION_ACTIVA" style="stroke:#008000;stroke-width:1;"/><polygon fill="#008000" points="186.5,549.1,190.5,540.1,186.5,544.1,182.5,540.1,186.5,549.1" style="stroke:#008000;stroke-width:1;"/></g><!--SRC=[dPFDRjf04CVlVeeHboH8g2h77YePIYDB44TWgDggYfRr02lMkzRi6eAgFb9EUGHUh6ER65hWqFfWoxip_vdVVAnKYe1PxdUGefEaSg-i2GAtLYON939mNdY4dm7mqnDolIHRcBHljINuib8UwnjBAL9zsjDiLfs6H7PR7zuJeWb-dGWRUrLtg9Oh_nMrjjipzNiIEzO9whpwySFdOTHFugUm5mt6IVnsqI9qLczABxFGIdfxUzS2uM0abEbfAzU7sDNh1ZxXGXabrVxL03xdUlyYbHTGLeS5K-jW8-J-XRzbzYo4ou84WRHPhXYuTAoa3k6X2lOed7r_-RXxZFwz_GCwdOydrbLjh06jJ5t9EiaPqjo25tCjFi10Ws0iWadC5OYIyCJmTb8uhtonGn1bAJRAbInUQ8sk1JjeETGe9VUQMMILVUkk4MYtfwuGf2nm3LLPY7QRIOcmDcKf3IjBfKdbX2QjSWwglugZ8Uh-2v5JpcCcu74m7aN9e64RNuKJEMSeG8fihgpx0s9o4CkHCXxK1eQOHWl8RAeMx7litJb6jyBW1lqFn6Wwc2JZ4Dx1B9fCms7qxNgFCa5CmKDReFQsQX6XjrcPfb7SPhGNsRA2vvFA_ZHsvLYepL-DQJOcd2RnA4mubtuKFpo5_IIQXK5m0xme-Cm3WIuusohef7Phk1BDzWJ7FNgxkwZy6m00]--></g></svg>