<svg xmlns="http://www.w3.org/2000/svg" xmlns:xlink="http://www.w3.org/1999/xlink" contentStyleType="text/css" data-diagram-type="STATE" height="580px" preserveAspectRatio="none" style="width:433px;height:580px;background:#FFFFFF;" version="1.1" viewBox="0 0 433 580" width="433px" zoomAndPan="magnify"><defs/><g><g id="GRUPO_ABIERTO"><rect fill="#FFFFFF" height="50" rx="12.5" ry="12.5" style="stroke:#000000;stroke-width:0.5;" width="138.7402" x="80" y="7"/><line style="stroke:#000000;stroke-width:0.5;" x1="80" x2="218.7402" y1="33.2969" y2="33.2969"/><text fill="#000000" font-family="sans-serif" font-size="14" lengthAdjust="spacing" textLength="118.7402" x="90" y="24.9951">GRUPO_ABIERTO</text></g><path d="M19.5,118 L279.5,118 A12.5,12.5 0 0 1 292,130.5 L292,144.2969 L7,144.2969 L7,130.5 A12.5,12.5 0 0 1 19.5,118" fill="#FFFFFF"/><rect fill="none" height="311.2969" rx="12.5" ry="12.5" style="stroke:#000000;stroke-width:0.5;" width="285" x="7" y="118"/><line style="stroke:#000000;stroke-width:0.5;" x1="7" x2="292" y1="144.2969" y2="144.2969"/><text fill="#000000" font-family="sans-serif" font-size="14" lengthAdjust="spacing" textLength="91.1641" x="103.918" y="135.9951">abrirTareas()</text><ellipse cx="44" cy="165.2969" fill="#222222" rx="10" ry="10" style="stroke:#222222;stroke-width:1;"/><g id="abrirTareas.Intermedio"><rect fill="#FFFFFF" height="50" rx="12.5" ry="12.5" style="stroke:#000000;stroke-width:0.5;" width="50" x="19" y="246.2969"/><line style="stroke:#000000;stroke-width:0.5;" x1="19" x2="69" y1="272.5938" y2="272.5938"/><text fill="#000000" font-family="sans-serif" font-size="14" lengthAdjust="spacing" textLength="4.4502" x="41.7749" y="264.292">&#160;</text></g><ellipse cx="44" cy="408.2969" fill="none" rx="11" ry="11" style="stroke:#222222;stroke-width:1;"/><ellipse cx="44" cy="408.2969" fill="#222222" rx="6" ry="6" style="stroke:#222222;stroke-width:1;"/><!--link Inicio to Intermedio--><g class="link" data-entity-1="Inicio" data-entity-2="Intermedio" data-source-line="18" data-uid="lnk2" id="link_Inicio_Intermedio"><path d="M44,175.5269 C44,191.2369 44,217.6569 44,240.1669" fill="none" id="Inicio-to-Intermedio" style="stroke:#008000;stroke-width:1;"/><polygon fill="#008000" points="44,246.1669,48,237.1669,44,241.1669,40,237.1669,44,246.1669" style="stroke:#008000;stroke-width:1;"/><path d="M49,198.2969 L49,223.2969 L255,223.2969 L255,208.2969 L245,198.2969 L49,198.2969" fill="#FEFECE" style="stroke:#D7B75F;stroke-width:0.5;"/><path d="M245,198.2969 L245,208.2969 L255,208.2969 L245,198.2969" fill="#FEFECE" style="stroke:#D7B75F;stroke-width:0.5;"/><text fill="#000000" font-family="sans-serif" font-size="13" font-weight="bold" lengthAdjust="spacing" textLength="56.1196" x="55" y="215.3638">Usuario</text><text fill="#000000" font-family="sans-serif" font-size="13" lengthAdjust="spacing" textLength="125.7026" x="115.252" y="215.3638">solicita abrir tareas</text></g><!--link Intermedio to Fin--><g class="link" data-entity-1="Intermedio" data-entity-2="Fin" data-source-line="23" data-uid="lnk3" id="link_Intermedio_Fin"><path d="M44,296.4369 C44,326.3169 44,369.8569 44,391.1069" fill="none" id="Intermedio-to-Fin" style="stroke:#008000;stroke-width:1;"/><polygon fill="#008000" points="44,397.1069,48,388.1069,44,392.1069,40,388.1069,44,397.1069" style="stroke:#008000;stroke-width:1;"/><path d="M49,319.2969 L49,374.2969 L283,374.2969 L283,329.2969 L273,319.2969 L49,319.2969" fill="#FEFECE" style="stroke:#D7B75F;stroke-width:0.5;"/><path d="M273,319.2969 L273,329.2969 L283,329.2969 L273,319.2969" fill="#FEFECE" style="stroke:#D7B75F;stroke-width:0.5;"/><text fill="#000000" font-family="sans-serif" font-size="13" font-weight="bold" lengthAdjust="spacing" textLength="58.9063" x="55" y="336.3638">Sistema</text><text fill="#000000" font-family="sans-serif" font-size="13" lengthAdjust="spacing" textLength="150.9346" x="118.0386" y="336.3638">muestra lista de tareas</text><ellipse cx="60.5" cy="347.0625" fill="#000000" rx="2.5" ry="2.5"/><text fill="#000000" font-family="sans-serif" font-size="13" lengthAdjust="spacing" textLength="120.5801" x="67" y="351.4966">Tareas pendientes</text><ellipse cx="60.5" cy="362.1953" fill="#000000" rx="2.5" ry="2.5"/><text fill="#000000" font-family="sans-serif" font-size="13" lengthAdjust="spacing" textLength="131.8027" x="67" y="366.6294">Tareas completadas</text></g><g id="TAREAS_ABIERTO"><rect fill="#FFFFFF" height="50" rx="12.5" ry="12.5" style="stroke:#000000;stroke-width:0.5;" width="143.6211" x="77.5" y="524"/><line style="stroke:#000000;stroke-width:0.5;" x1="77.5" x2="221.1211" y1="550.2969" y2="550.2969"/><text fill="#000000" font-family="sans-serif" font-size="14" lengthAdjust="spacing" textLength="123.6211" x="87.5" y="541.9951">TAREAS_ABIERTO</text></g><!--link GRUPO_ABIERTO to abrirTareas--><g class="link" data-entity-1="GRUPO_ABIERTO" data-entity-2="abrirTareas" data-source-line="33" data-uid="lnk4" id="link_GRUPO_ABIERTO_abrirTareas"><path d="M149.5,57.28 C149.5,72.8 149.5,88.39 149.5,111.95" fill="none" id="GRUPO_ABIERTO-to-abrirTareas" style="stroke:#008000;stroke-width:1;"/><polygon fill="#008000" points="149.5,117.95,153.5,108.95,149.5,112.95,145.5,108.95,149.5,117.95" style="stroke:#008000;stroke-width:1;"/></g><!--link abrirTareas to TAREAS_ABIERTO--><g class="link" data-entity-1="abrirTareas" data-entity-2="TAREAS_ABIERTO" data-source-line="34" data-uid="lnk5" id="link_abrirTareas_TAREAS_ABIERTO"><path d="M149.5,429.23 C149.5,466.22 149.5,495.42 149.5,517.75" fill="none" id="abrirTareas-to-TAREAS_ABIERTO" style="stroke:#008000;stroke-width:1;"/><polygon fill="#008000" points="149.5,523.75,153.5,514.75,149.5,518.75,145.5,514.75,149.5,523.75" style="stroke:#008000;stroke-width:1;"/><path d="M154.5,464 L154.5,489 L426.5,489 L426.5,474 L416.5,464 L154.5,464" fill="#FEFECE" style="stroke:#D7B75F;stroke-width:0.5;"/><path d="M416.5,464 L416.5,474 L426.5,474 L416.5,464" fill="#FEFECE" style="stroke:#D7B75F;stroke-width:0.5;"/><text fill="#000000" font-family="sans-serif" font-size="13" lengthAdjust="spacing" textLength="251.6465" x="160.5" y="481.0669">Lista de tareas disponible para edici&#243;n</text></g><!--SRC=[VLBBJiD03BpdAonw0QIAN50vH96Iag1AI4LzY2FQP2smckn6tgqu8BwAJ-37s6pIaZx0XpsCxPcnlMP3gX4iQZ1MM8IF05oaejoyijugETMLPdX-8ujTHhD4xj2qScKUJPZrUmUEml0k3CFWCp1xQgN_P1xbMPvDinFkqVqadTpcZYReZ3qira_pboITPOlLV0TUY8A9Lu9HcCkh2n061aWlsPU2JyyKbQGXYXpADexFLLZa6YNfqrnEohMYadsZVthAyJW-xlLpQmKLgMvFRKH5l3PRmQIZco86eolNRaLd7AntxekTZ6SOAktelPfpyw_Caep5MdYPUel6id0rRY2GE1HgunhwdJLEbj09dScLkcugj48UEznVQPKiicJvUwQ3gtdJW_i4mrkrkQFkaxaU3ys39DDeHKM5q7uqS9ifwVjB1JjZFm00]--></g></svg>