<svg xmlns="http://www.w3.org/2000/svg" xmlns:xlink="http://www.w3.org/1999/xlink" contentStyleType="text/css" data-diagram-type="STATE" height="580px" preserveAspectRatio="none" style="width:551px;height:580px;background:#FFFFFF;" version="1.1" viewBox="0 0 551 580" width="551px" zoomAndPan="magnify"><defs/><g><g id="GRUPO_ABIERTO"><rect fill="#FFFFFF" height="50" rx="12.5" ry="12.5" style="stroke:#000000;stroke-width:0.5;" width="138.7402" x="7" y="7"/><line style="stroke:#000000;stroke-width:0.5;" x1="7" x2="145.7402" y1="33.2969" y2="33.2969"/><text fill="#000000" font-family="sans-serif" font-size="14" lengthAdjust="spacing" textLength="118.7402" x="17" y="24.9951">GRUPO_ABIERTO</text></g><g id="SISTEMA_DISPONIBLE"><rect fill="#FFFFFF" height="50" rx="12.5" ry="12.5" style="stroke:#000000;stroke-width:0.5;" width="172.0654" x="181.5" y="7"/><line style="stroke:#000000;stroke-width:0.5;" x1="181.5" x2="353.5654" y1="33.2969" y2="33.2969"/><text fill="#000000" font-family="sans-serif" font-size="14" lengthAdjust="spacing" textLength="152.0654" x="191.5" y="24.9951">SISTEMA_DISPONIBLE</text></g><g id="TAREA_ABIERTO"><rect fill="#FFFFFF" height="50" rx="12.5" ry="12.5" style="stroke:#000000;stroke-width:0.5;" width="134.7344" x="389" y="7"/><line style="stroke:#000000;stroke-width:0.5;" x1="389" x2="523.7344" y1="33.2969" y2="33.2969"/><text fill="#000000" font-family="sans-serif" font-size="14" lengthAdjust="spacing" textLength="114.7344" x="399" y="24.9951">TAREA_ABIERTO</text></g><path d="M137.5,118 L397.5,118 A12.5,12.5 0 0 1 410,130.5 L410,144.2969 L125,144.2969 L125,130.5 A12.5,12.5 0 0 1 137.5,118" fill="#FFFFFF"/><rect fill="none" height="311.2969" rx="12.5" ry="12.5" style="stroke:#000000;stroke-width:0.5;" width="285" x="125" y="118"/><line style="stroke:#000000;stroke-width:0.5;" x1="125" x2="410" y1="144.2969" y2="144.2969"/><text fill="#000000" font-family="sans-serif" font-size="14" lengthAdjust="spacing" textLength="91.1641" x="221.918" y="135.9951">abrirTareas()</text><ellipse cx="162" cy="165.2969" fill="#222222" rx="10" ry="10" style="stroke:#222222;stroke-width:1;"/><g id="abrirTareas.Intermedio"><rect fill="#FFFFFF" height="50" rx="12.5" ry="12.5" style="stroke:#000000;stroke-width:0.5;" width="50" x="137" y="246.2969"/><line style="stroke:#000000;stroke-width:0.5;" x1="137" x2="187" y1="272.5938" y2="272.5938"/><text fill="#000000" font-family="sans-serif" font-size="14" lengthAdjust="spacing" textLength="4.4502" x="159.7749" y="264.292">&#160;</text></g><ellipse cx="162" cy="408.2969" fill="none" rx="11" ry="11" style="stroke:#222222;stroke-width:1;"/><ellipse cx="162" cy="408.2969" fill="#222222" rx="6" ry="6" style="stroke:#222222;stroke-width:1;"/><!--link Inicio to Intermedio--><g class="link" data-entity-1="Inicio" data-entity-2="Intermedio" data-source-line="20" data-uid="lnk2" id="link_Inicio_Intermedio"><path d="M162,175.5269 C162,191.2369 162,217.6569 162,240.1669" fill="none" id="Inicio-to-Intermedio" style="stroke:#008000;stroke-width:1;"/><polygon fill="#008000" points="162,246.1669,166,237.1669,162,241.1669,158,237.1669,162,246.1669" style="stroke:#008000;stroke-width:1;"/><path d="M167,198.2969 L167,223.2969 L373,223.2969 L373,208.2969 L363,198.2969 L167,198.2969" fill="#FEFECE" style="stroke:#D7B75F;stroke-width:0.5;"/><path d="M363,198.2969 L363,208.2969 L373,208.2969 L363,198.2969" fill="#FEFECE" style="stroke:#D7B75F;stroke-width:0.5;"/><text fill="#000000" font-family="sans-serif" font-size="13" font-weight="bold" lengthAdjust="spacing" textLength="56.1196" x="173" y="215.3638">Usuario</text><text fill="#000000" font-family="sans-serif" font-size="13" lengthAdjust="spacing" textLength="125.7026" x="233.252" y="215.3638">solicita abrir tareas</text></g><!--link Intermedio to Fin--><g class="link" data-entity-1="Intermedio" data-entity-2="Fin" data-source-line="25" data-uid="lnk3" id="link_Intermedio_Fin"><path d="M162,296.4369 C162,326.3169 162,369.8569 162,391.1069" fill="none" id="Intermedio-to-Fin" style="stroke:#008000;stroke-width:1;"/><polygon fill="#008000" points="162,397.1069,166,388.1069,162,392.1069,158,388.1069,162,397.1069" style="stroke:#008000;stroke-width:1;"/><path d="M167,319.2969 L167,374.2969 L401,374.2969 L401,329.2969 L391,319.2969 L167,319.2969" fill="#FEFECE" style="stroke:#D7B75F;stroke-width:0.5;"/><path d="M391,319.2969 L391,329.2969 L401,329.2969 L391,319.2969" fill="#FEFECE" style="stroke:#D7B75F;stroke-width:0.5;"/><text fill="#000000" font-family="sans-serif" font-size="13" font-weight="bold" lengthAdjust="spacing" textLength="58.9063" x="173" y="336.3638">Sistema</text><text fill="#000000" font-family="sans-serif" font-size="13" lengthAdjust="spacing" textLength="150.9346" x="236.0386" y="336.3638">muestra lista de tareas</text><ellipse cx="178.5" cy="347.0625" fill="#000000" rx="2.5" ry="2.5"/><text fill="#000000" font-family="sans-serif" font-size="13" lengthAdjust="spacing" textLength="120.5801" x="185" y="351.4966">Tareas pendientes</text><ellipse cx="178.5" cy="362.1953" fill="#000000" rx="2.5" ry="2.5"/><text fill="#000000" font-family="sans-serif" font-size="13" lengthAdjust="spacing" textLength="131.8027" x="185" y="366.6294">Tareas completadas</text></g><g id="TAREAS_ABIERTO"><rect fill="#FFFFFF" height="50" rx="12.5" ry="12.5" style="stroke:#000000;stroke-width:0.5;" width="143.6211" x="195.5" y="524"/><line style="stroke:#000000;stroke-width:0.5;" x1="195.5" x2="339.1211" y1="550.2969" y2="550.2969"/><text fill="#000000" font-family="sans-serif" font-size="14" lengthAdjust="spacing" textLength="123.6211" x="205.5" y="541.9951">TAREAS_ABIERTO</text></g><!--link GRUPO_ABIERTO to abrirTareas--><g class="link" data-entity-1="GRUPO_ABIERTO" data-entity-2="abrirTareas" data-source-line="35" data-uid="lnk4" id="link_GRUPO_ABIERTO_abrirTareas"><path d="M95.87,57.28 C108.24,72.8 121.7189,89.6992 140.5089,113.2592" fill="none" id="GRUPO_ABIERTO-to-abrirTareas" style="stroke:#008000;stroke-width:1;"/><polygon fill="#008000" points="144.25,117.95,141.7655,108.4197,141.1324,114.041,135.5111,113.4078,144.25,117.95" style="stroke:#008000;stroke-width:1;"/></g><!--link SISTEMA_DISPONIBLE to abrirTareas--><g class="link" data-entity-1="SISTEMA_DISPONIBLE" data-entity-2="abrirTareas" data-source-line="36" data-uid="lnk5" id="link_SISTEMA_DISPONIBLE_abrirTareas"><path d="M267.5,57.28 C267.5,72.8 267.5,88.39 267.5,111.95" fill="none" id="SISTEMA_DISPONIBLE-to-abrirTareas" style="stroke:#008000;stroke-width:1;"/><polygon fill="#008000" points="267.5,117.95,271.5,108.95,267.5,112.95,263.5,108.95,267.5,117.95" style="stroke:#008000;stroke-width:1;"/></g><!--link TAREA_ABIERTO to abrirTareas--><g class="link" data-entity-1="TAREA_ABIERTO" data-entity-2="abrirTareas" data-source-line="37" data-uid="lnk6" id="link_TAREA_ABIERTO_abrirTareas"><path d="M437.34,57.28 C425.09,72.8 411.7666,89.6797 393.1766,113.2397" fill="none" id="TAREA_ABIERTO-to-abrirTareas" style="stroke:#008000;stroke-width:1;"/><polygon fill="#008000" points="389.46,117.95,398.1751,113.3624,392.5572,114.0248,391.8948,108.4068,389.46,117.95" style="stroke:#008000;stroke-width:1;"/></g><!--link abrirTareas to TAREAS_ABIERTO--><g class="link" data-entity-1="abrirTareas" data-entity-2="TAREAS_ABIERTO" data-source-line="38" data-uid="lnk7" id="link_abrirTareas_TAREAS_ABIERTO"><path d="M267.5,429.23 C267.5,466.22 267.5,495.42 267.5,517.75" fill="none" id="abrirTareas-to-TAREAS_ABIERTO" style="stroke:#008000;stroke-width:1;"/><polygon fill="#008000" points="267.5,523.75,271.5,514.75,267.5,518.75,263.5,514.75,267.5,523.75" style="stroke:#008000;stroke-width:1;"/><path d="M272.5,464 L272.5,489 L544.5,489 L544.5,474 L534.5,464 L272.5,464" fill="#FEFECE" style="stroke:#D7B75F;stroke-width:0.5;"/><path d="M534.5,464 L534.5,474 L544.5,474 L534.5,464" fill="#FEFECE" style="stroke:#D7B75F;stroke-width:0.5;"/><text fill="#000000" font-family="sans-serif" font-size="13" lengthAdjust="spacing" textLength="251.6465" x="278.5" y="481.0669">Lista de tareas disponible para edici&#243;n</text></g><!--SRC=[VL91JiCm4Bpd5Qls0aWLkQ1oY28bhOCY5OgQL1mh9xR0Qc97jYiEY5Vn13w6uxWbJGe-vB0xEpEx4xLdlC4Irw0qrXG-F30lnkN-LOe39mjH2GalRqpJhYCaeRAhnfM1sMeafNZlYbFVl_Tzt_lqr8cQYp-PfmbAq0ADkAVBUJo_ImoDrnbxs6oVrxieJj4cNxjQbcOvUensopHxNZ-byGgvHXvjK7G2k-845vB974kArTNr1B22NiNvSr2mxPIpaWa80bELEWml8JILDILCZ7i9usQKSk86xSTHpcRXSDOUIN2e6E-EshwW2BVgW2KJmMqHWXAL6TUuCmxQEhTW8sCP-af7UgjctFmhap6bQOsjJ7sWIajiC6OX8BGlrBuRS3ThZ2oZHkX2hnHrKr6DoT3XALARKlORqrd4rdGl7sySzX1nblfelfzrsnkeZ-woEbyU25EDuAoeABH_DPZBbkpxYtl7nNu0]--></g></svg>