<svg xmlns="http://www.w3.org/2000/svg" xmlns:xlink="http://www.w3.org/1999/xlink" contentStyleType="text/css" data-diagram-type="STATE" height="761px" preserveAspectRatio="none" style="width:972px;height:761px;background:#FFFFFF;" version="1.1" viewBox="0 0 972 761" width="972px" zoomAndPan="magnify"><defs/><g><g id="Inicio"><rect fill="#FFFFFF" height="50" rx="12.5" ry="12.5" style="stroke:#000000;stroke-width:0.5;" width="172.0654" x="227.26" y="7"/><line style="stroke:#000000;stroke-width:0.5;" x1="227.26" x2="399.3254" y1="33.2969" y2="33.2969"/><text fill="#000000" font-family="sans-serif" font-size="14" lengthAdjust="spacing" textLength="152.0654" x="237.26" y="24.9951">SISTEMA_DISPONIBLE</text></g><g id="EntradaLista"><rect fill="#FFFFFF" height="50" rx="12.5" ry="12.5" style="stroke:#000000;stroke-width:0.5;" width="143.6211" x="434.26" y="7"/><line style="stroke:#000000;stroke-width:0.5;" x1="434.26" x2="577.8811" y1="33.2969" y2="33.2969"/><text fill="#000000" font-family="sans-serif" font-size="14" lengthAdjust="spacing" textLength="123.6211" x="444.26" y="24.9951">TAREAS_ABIERTO</text></g><path d="M241.26,118 L577.26,118 A12.5,12.5 0 0 1 589.76,130.5 L589.76,144.2969 L228.76,144.2969 L228.76,130.5 A12.5,12.5 0 0 1 241.26,118" fill="#FFFFFF"/><rect fill="none" height="492.2969" rx="12.5" ry="12.5" style="stroke:#000000;stroke-width:0.5;" width="361" x="228.76" y="118"/><line style="stroke:#000000;stroke-width:0.5;" x1="228.76" x2="589.76" y1="144.2969" y2="144.2969"/><text fill="#000000" font-family="sans-serif" font-size="14" lengthAdjust="spacing" textLength="91.1641" x="363.678" y="135.9951">abrirTareas()</text><g id="AbrirTareasContainer.PasoInicial"><rect fill="#FFFFFF" height="50" rx="12.5" ry="12.5" style="stroke:#000000;stroke-width:0.5;" width="50" x="240.76" y="246.2969"/><line style="stroke:#000000;stroke-width:0.5;" x1="240.76" x2="290.76" y1="272.5938" y2="272.5938"/><text fill="#000000" font-family="sans-serif" font-size="14" lengthAdjust="spacing" textLength="4.4502" x="263.5349" y="264.292">&#160;</text></g><g id="AbrirTareasContainer.PasoLista"><rect fill="#FFFFFF" height="50" rx="12.5" ry="12.5" style="stroke:#000000;stroke-width:0.5;" width="50" x="240.76" y="457.2969"/><line style="stroke:#000000;stroke-width:0.5;" x1="240.76" x2="290.76" y1="483.5938" y2="483.5938"/><text fill="#000000" font-family="sans-serif" font-size="14" lengthAdjust="spacing" textLength="4.4502" x="263.5349" y="475.292">&#160;</text></g><ellipse cx="265.76" cy="165.2969" fill="#222222" rx="10" ry="10" style="stroke:#222222;stroke-width:1;"/><ellipse cx="265.76" cy="589.2969" fill="none" rx="11" ry="11" style="stroke:#222222;stroke-width:1;"/><ellipse cx="265.76" cy="589.2969" fill="#222222" rx="6" ry="6" style="stroke:#222222;stroke-width:1;"/><!--link *start*AbrirTareasContainer to PasoInicial--><g class="link" data-entity-1=".start.AbrirTareasContainer" data-entity-2="PasoInicial" data-source-line="28" data-uid="lnk3" id="link_.start.AbrirTareasContainer_PasoInicial"><path d="M265.76,175.5269 C265.76,191.2369 265.76,217.6569 265.76,240.1669" fill="none" id="*start*AbrirTareasContainer-to-PasoInicial" style="stroke:#009900;stroke-width:1;"/><polygon fill="#009900" points="265.76,246.1669,269.76,237.1669,265.76,241.1669,261.76,237.1669,265.76,246.1669" style="stroke:#009900;stroke-width:1;"/><path d="M270.76,198.2969 L270.76,223.2969 L525.76,223.2969 L525.76,208.2969 L515.76,198.2969 L270.76,198.2969" fill="#FFFFE0" style="stroke:#B0B060;stroke-width:0.5;"/><path d="M515.76,198.2969 L515.76,208.2969 L525.76,208.2969 L515.76,198.2969" fill="#FFFFE0" style="stroke:#B0B060;stroke-width:0.5;"/><text fill="#000000" font-family="Arial" font-size="13" font-weight="bold" lengthAdjust="spacing" textLength="104.8633" x="276.76" y="215.3638">Administrador</text><text fill="#000000" font-family="Arial" font-size="13" lengthAdjust="spacing" textLength="125.7026" x="385.7556" y="215.3638">solicita abrir tareas</text></g><!--link PasoInicial to PasoLista--><g class="link" data-entity-1="PasoInicial" data-entity-2="PasoLista" data-source-line="33" data-uid="lnk4" id="link_PasoInicial_PasoLista"><path d="M265.76,296.6769 C265.76,336.9569 265.76,410.8969 265.76,451.0669" fill="none" id="PasoInicial-to-PasoLista" style="stroke:#009900;stroke-width:1;"/><polygon fill="#009900" points="265.76,457.0669,269.76,448.0669,265.76,452.0669,261.76,448.0669,265.76,457.0669" style="stroke:#009900;stroke-width:1;"/><path d="M270.76,319.2969 L270.76,434.2969 L580.76,434.2969 L580.76,329.2969 L570.76,319.2969 L270.76,319.2969" fill="#FFFFE0" style="stroke:#B0B060;stroke-width:0.5;"/><path d="M570.76,319.2969 L570.76,329.2969 L580.76,329.2969 L570.76,319.2969" fill="#FFFFE0" style="stroke:#B0B060;stroke-width:0.5;"/><text fill="#000000" font-family="Arial" font-size="13" font-weight="bold" lengthAdjust="spacing" textLength="58.9063" x="276.76" y="336.3638">Sistema</text><text fill="#000000" font-family="Arial" font-size="13" lengthAdjust="spacing" textLength="154.521" x="339.7986" y="336.3638">presenta lista de tareas</text><text fill="#000000" font-family="Arial" font-size="13" lengthAdjust="spacing" textLength="221.8696" x="276.76" y="351.4966">&#8226; ID, t&#237;tulo y estado de cada tarea</text><text fill="#000000" font-family="Arial" font-size="13" lengthAdjust="spacing" textLength="188.481" x="276.76" y="366.6294">&#8226; Permite solicitar filtrar lista</text><text fill="#000000" font-family="Arial" font-size="13" lengthAdjust="spacing" textLength="238.3101" x="276.76" y="381.7622">&#8226; Permite solicitar crear tarea nueva</text><text fill="#000000" font-family="Arial" font-size="13" lengthAdjust="spacing" textLength="198.5103" x="276.76" y="396.895">&#8226; Permite solicitar editar tarea</text><text fill="#000000" font-family="Arial" font-size="13" lengthAdjust="spacing" textLength="213.2876" x="276.76" y="412.0278">&#8226; Permite solicitar eliminar tarea</text><text fill="#000000" font-family="Arial" font-size="13" lengthAdjust="spacing" textLength="289.0596" x="276.76" y="427.1606">&#8226; Permite solicitar marcar como completada</text></g><!--link PasoLista to PasoLista--><g class="link" data-entity-1="PasoLista" data-entity-2="PasoLista" data-source-line="44" data-uid="lnk5" id="link_PasoLista_PasoLista"><path d="M290.94,471.0869 C300.67,470.5969 308.76,474.3269 308.76,482.2969 C308.76,490.2669 306.6624,494.2987 296.9324,493.8087" fill="none" id="PasoLista-to-PasoLista" style="stroke:#009900;stroke-width:1;"/><polygon fill="#009900" points="290.94,493.5069,299.7274,497.9545,295.9337,493.7584,300.1298,489.9646,290.94,493.5069" style="stroke:#009900;stroke-width:1;"/><path d="M313.76,462.2969 L313.76,502.2969 L559.76,502.2969 L559.76,472.2969 L549.76,462.2969 L313.76,462.2969" fill="#FFFFE0" style="stroke:#B0B060;stroke-width:0.5;"/><path d="M549.76,462.2969 L549.76,472.2969 L559.76,472.2969 L549.76,462.2969" fill="#FFFFE0" style="stroke:#B0B060;stroke-width:0.5;"/><text fill="#000000" font-family="Arial" font-size="13" font-weight="bold" lengthAdjust="spacing" textLength="104.8633" x="319.76" y="479.3638">Administrador</text><text fill="#000000" font-family="Arial" font-size="13" lengthAdjust="spacing" textLength="116.6509" x="428.7556" y="479.3638">solicita filtrar lista</text><text fill="#000000" font-family="Arial" font-size="13" font-weight="bold" lengthAdjust="spacing" textLength="58.9063" x="319.76" y="494.4966">Sistema</text><text fill="#000000" font-family="Arial" font-size="13" lengthAdjust="spacing" textLength="139.4199" x="382.7986" y="494.4966">presenta lista filtrada</text></g><!--link PasoLista to *end*AbrirTareasContainer--><g class="link" data-entity-1="PasoLista" data-entity-2=".end.AbrirTareasContainer" data-source-line="50" data-uid="lnk7" id="link_PasoLista_.end.AbrirTareasContainer"><path d="M265.76,507.3869 C265.76,529.7869 265.76,556.0669 265.76,572.2469" fill="none" id="PasoLista-to-*end*AbrirTareasContainer" style="stroke:#009900;stroke-width:1;"/><polygon fill="#009900" points="265.76,578.2469,269.76,569.2469,265.76,573.2469,261.76,569.2469,265.76,578.2469" style="stroke:#009900;stroke-width:1;"/><path d="M270.76,530.2969 L270.76,555.2969 L579.76,555.2969 L579.76,540.2969 L569.76,530.2969 L270.76,530.2969" fill="#FFFFE0" style="stroke:#B0B060;stroke-width:0.5;"/><path d="M569.76,530.2969 L569.76,540.2969 L579.76,540.2969 L569.76,530.2969" fill="#FFFFE0" style="stroke:#B0B060;stroke-width:0.5;"/><text fill="#000000" font-family="Arial" font-size="13" font-weight="bold" lengthAdjust="spacing" textLength="104.8633" x="276.76" y="547.3638">Administrador</text><text fill="#000000" font-family="Arial" font-size="13" lengthAdjust="spacing" textLength="179.2769" x="385.7556" y="547.3638">solicita una de las opciones</text></g><g id="FinDetalle"><rect fill="#FFFFFF" height="50" rx="12.5" ry="12.5" style="stroke:#000000;stroke-width:0.5;" width="134.7344" x="24.76" y="705"/><line style="stroke:#000000;stroke-width:0.5;" x1="24.76" x2="159.4944" y1="731.2969" y2="731.2969"/><text fill="#000000" font-family="sans-serif" font-size="14" lengthAdjust="spacing" textLength="114.7344" x="34.76" y="722.9951">TAREA_ABIERTO</text></g><g id="SalidaLista"><rect fill="#FFFFFF" height="50" rx="12.5" ry="12.5" style="stroke:#000000;stroke-width:0.5;" width="143.6211" x="423.26" y="705"/><line style="stroke:#000000;stroke-width:0.5;" x1="423.26" x2="566.8811" y1="731.2969" y2="731.2969"/><text fill="#000000" font-family="sans-serif" font-size="14" lengthAdjust="spacing" textLength="123.6211" x="433.26" y="722.9951">TAREAS_ABIERTO</text></g><g id="SalidaSistema"><rect fill="#FFFFFF" height="50" rx="12.5" ry="12.5" style="stroke:#000000;stroke-width:0.5;" width="172.0654" x="770.26" y="705"/><line style="stroke:#000000;stroke-width:0.5;" x1="770.26" x2="942.3254" y1="731.2969" y2="731.2969"/><text fill="#000000" font-family="sans-serif" font-size="14" lengthAdjust="spacing" textLength="152.0654" x="780.26" y="722.9951">SISTEMA_DISPONIBLE</text></g><!--link Inicio to AbrirTareasContainer--><g class="link" data-entity-1="Inicio" data-entity-2="AbrirTareasContainer" data-source-line="60" data-uid="lnk8" id="link_Inicio_AbrirTareasContainer"><path d="M320.32,57.27 C324.72,72.37 329.1821,87.7494 336.2221,111.9194" fill="none" id="Inicio-to-AbrirTareasContainer" style="stroke:#009900;stroke-width:1;"/><polygon fill="#009900" points="337.9,117.68,339.2236,107.9205,336.5018,112.8795,331.5427,110.1577,337.9,117.68" style="stroke:#009900;stroke-width:1;"/></g><!--link EntradaLista to AbrirTareasContainer--><g class="link" data-entity-1="EntradaLista" data-entity-2="AbrirTareasContainer" data-source-line="61" data-uid="lnk9" id="link_EntradaLista_AbrirTareasContainer"><path d="M499.13,57.27 C494.69,72.37 490.1733,87.7539 483.0633,111.9239" fill="none" id="EntradaLista-to-AbrirTareasContainer" style="stroke:#009900;stroke-width:1;"/><polygon fill="#009900" points="481.37,117.68,487.7473,110.1747,482.781,112.8832,480.0725,107.917,481.37,117.68" style="stroke:#009900;stroke-width:1;"/></g><!--link AbrirTareasContainer to FinDetalle--><g class="link" data-entity-1="AbrirTareasContainer" data-entity-2="FinDetalle" data-source-line="63" data-uid="lnk10" id="link_AbrirTareasContainer_FinDetalle"><path d="M228.53,442 C147.12,486.94 59.14,552.29 13.26,640 C6.05,653.78 6,661.24 13.26,675 C19.62,687.05 25.0981,693.4742 36.2881,701.3242" fill="none" id="AbrirTareasContainer-to-FinDetalle" style="stroke:#009900;stroke-width:1;"/><polygon fill="#009900" points="41.2,704.77,36.1294,696.3267,37.1068,701.8985,31.535,702.8759,41.2,704.77" style="stroke:#009900;stroke-width:1;"/><path d="M18.26,645 L18.26,670 L120.26,670 L120.26,655 L110.26,645 L18.26,645" fill="#FFFFE0" style="stroke:#B0B060;stroke-width:0.5;"/><path d="M110.26,645 L110.26,655 L120.26,655 L110.26,645" fill="#FFFFE0" style="stroke:#B0B060;stroke-width:0.5;"/><text fill="#000000" font-family="Arial" font-size="13" lengthAdjust="spacing" textLength="81.1611" x="24.26" y="662.0669">crearTarea()</text></g><!--link AbrirTareasContainer to FinDetalle--><g class="link" data-entity-1="AbrirTareasContainer" data-entity-2="FinDetalle" data-source-line="68" data-uid="lnk11" id="link_AbrirTareasContainer_FinDetalle"><path d="M228.54,572.52 C182.1,625.84 142.2011,671.6659 117.3211,700.2259" fill="none" id="AbrirTareasContainer-to-FinDetalle-1" style="stroke:#009900;stroke-width:1;"/><polygon fill="#009900" points="113.38,704.75,122.3078,700.5913,116.6643,700.9799,116.2757,695.3364,113.38,704.75" style="stroke:#009900;stroke-width:1;"/><path d="M174.26,645 L174.26,670 L280.26,670 L280.26,655 L270.26,645 L174.26,645" fill="#FFFFE0" style="stroke:#B0B060;stroke-width:0.5;"/><path d="M270.26,645 L270.26,655 L280.26,655 L270.26,645" fill="#FFFFE0" style="stroke:#B0B060;stroke-width:0.5;"/><text fill="#000000" font-family="Arial" font-size="13" lengthAdjust="spacing" textLength="85.6299" x="180.26" y="662.0669">editarTarea()</text></g><!--link AbrirTareasContainer to SalidaLista--><g class="link" data-entity-1="AbrirTareasContainer" data-entity-2="SalidaLista" data-source-line="73" data-uid="lnk12" id="link_AbrirTareasContainer_SalidaLista"><path d="M298.16,610.29 C299.76,633.27 306.74,655.29 321.26,675 C344.62,706.7 380.4796,719.4287 417.2496,725.0787" fill="none" id="AbrirTareasContainer-to-SalidaLista" style="stroke:#009900;stroke-width:1;"/><polygon fill="#009900" points="423.18,725.99,414.8919,720.6695,418.238,725.2306,413.6769,728.5767,423.18,725.99" style="stroke:#009900;stroke-width:1;"/><path d="M326.26,645 L326.26,670 L447.26,670 L447.26,655 L437.26,645 L326.26,645" fill="#FFFFE0" style="stroke:#B0B060;stroke-width:0.5;"/><path d="M437.26,645 L437.26,655 L447.26,655 L437.26,645" fill="#FFFFE0" style="stroke:#B0B060;stroke-width:0.5;"/><text fill="#000000" font-family="Arial" font-size="13" lengthAdjust="spacing" textLength="100.4072" x="332.26" y="662.0669">eliminarTarea()</text></g><!--link AbrirTareasContainer to SalidaLista--><g class="link" data-entity-1="AbrirTareasContainer" data-entity-2="SalidaLista" data-source-line="78" data-uid="lnk13" id="link_AbrirTareasContainer_SalidaLista"><path d="M467.16,610.06 C476.32,648.83 483.0696,677.4109 488.1996,699.1109" fill="none" id="AbrirTareasContainer-to-SalidaLista-1" style="stroke:#009900;stroke-width:1;"/><polygon fill="#009900" points="489.58,704.95,491.4021,695.2712,488.4297,700.0841,483.6167,697.1117,489.58,704.95" style="stroke:#009900;stroke-width:1;"/><path d="M485.26,645 L485.26,670 L641.26,670 L641.26,655 L631.26,645 L485.26,645" fill="#FFFFE0" style="stroke:#B0B060;stroke-width:0.5;"/><path d="M631.26,645 L631.26,655 L641.26,655 L631.26,645" fill="#FFFFE0" style="stroke:#B0B060;stroke-width:0.5;"/><text fill="#000000" font-family="Arial" font-size="13" lengthAdjust="spacing" textLength="135.4146" x="491.26" y="662.0669">marcarCompletada()</text></g><!--link AbrirTareasContainer to SalidaLista--><g class="link" data-entity-1="AbrirTareasContainer" data-entity-2="SalidaLista" data-source-line="83" data-uid="lnk14" id="link_AbrirTareasContainer_SalidaLista"><path d="M589.89,530.57 C616.22,564.03 639.41,601.01 654.26,640 C659.8,654.54 663.32,662.36 654.26,675 C634.4,702.73 605.3546,715.1696 573.2946,721.8296" fill="none" id="AbrirTareasContainer-to-SalidaLista-2" style="stroke:#009900;stroke-width:1;"/><polygon fill="#009900" points="567.42,723.05,577.0454,725.1358,572.3155,722.033,575.4183,717.3031,567.42,723.05" style="stroke:#009900;stroke-width:1;"/><path d="M664.26,645 L664.26,670 L769.26,670 L769.26,655 L759.26,645 L664.26,645" fill="#FFFFE0" style="stroke:#B0B060;stroke-width:0.5;"/><path d="M759.26,645 L759.26,655 L769.26,655 L759.26,645" fill="#FFFFE0" style="stroke:#B0B060;stroke-width:0.5;"/><text fill="#000000" font-family="Arial" font-size="13" lengthAdjust="spacing" textLength="84.6523" x="670.26" y="662.0669">abrirTareas()</text></g><!--link AbrirTareasContainer to SalidaSistema--><g class="link" data-entity-1="AbrirTareasContainer" data-entity-2="SalidaSistema" data-source-line="88" data-uid="lnk15" id="link_AbrirTareasContainer_SalidaSistema"><path d="M589.84,484.72 C653.32,530.22 723.45,584.52 782.26,640 C803.6,660.13 821.05,681.4651 835.22,700.1951" fill="none" id="AbrirTareasContainer-to-SalidaSistema" style="stroke:#009900;stroke-width:1;"/><polygon fill="#009900" points="838.84,704.98,836.6,695.3893,835.8233,700.9926,830.22,700.2159,838.84,704.98" style="stroke:#009900;stroke-width:1;"/><path d="M819.26,645 L819.26,670 L965.26,670 L965.26,655 L955.26,645 L819.26,645" fill="#FFFFE0" style="stroke:#B0B060;stroke-width:0.5;"/><path d="M955.26,645 L955.26,655 L965.26,655 L955.26,645" fill="#FFFFE0" style="stroke:#B0B060;stroke-width:0.5;"/><text fill="#000000" font-family="Arial" font-size="13" lengthAdjust="spacing" textLength="125.9248" x="825.26" y="662.0669">completarGestion()</text></g><!--SRC=[hLJ1Qjj04BthAuRuafWQT2haKf1ikGZIn4I67ae86saJBrdjcD6wePH2lwNtVaN_f5_IqQviouhbk6dtOAFPDs_Vl9tPwb6PfI1HGea6ymLXAU5Uw4e6rMQhMeW2dvgmnILOX3kq5aie5CdSAZH16s-5bV0r05wno1yV25Uc6AD6WeyBPQNVGIea-MYi6UQY4H4- -U0W3C_Fmz25Col8Th79cjI7lhKr6EoLC9ZoIi9d8WPn68TlVNoAnbuAzY8Y9RIZTaMTP6asJpv4jvCqcrrTfl55SWAYWjIeNE4QD8-kaoYxZU8qkPvVEK1YB8b2N2Y6RCZ47IcQ2vAYEZrpi6WR6RC4eOoafenUu-lDXX0SoKnKw0InyhsRZOfwxzFm1aQZTyzod7zeG2lZpQxNS1WLfJASpRKW3OTGeUOSAy2L0jOfTtXf2aVYZsdHRuxpAWuSbZ50beAFMPAi9Dl12Cw1GhPFgjVlxpyWdRm1- -kdNMc4Bo0PM60DpTbtZz-1poILt8kR4WZkbUR2o1_o0ZPdkgPUC2lv-IMyBDpVCJAaLcpoaU1IK5xBmHBhdwMMNBRekG7dE8n8FIpiiPVGU-FxtJfmQpwXAwx-w0faRToNhrArCguzD7SwBdaaZUoqutQKtPJk3EbKcGdxfxKyCCcPq6ezo8SV1Ozi_0W2_qQuwlQDUT1-8lfHmTudeeQtr7TSSytgKaxFWcrRl8B9j_5VKBNTwd8rVVv_sFmWZ3SZyC-4Eu_pyLphw-vUGIECtlF3n6tPelm3]--></g></svg>