<svg xmlns="http://www.w3.org/2000/svg" xmlns:xlink="http://www.w3.org/1999/xlink" contentStyleType="text/css" data-diagram-type="STATE" height="731px" preserveAspectRatio="none" style="width:882px;height:731px;background:#FFFFFF;" version="1.1" viewBox="0 0 882 731" width="882px" zoomAndPan="magnify"><defs/><g><g id="EntradaGrupo"><rect fill="#FFFFFF" height="50" rx="12.5" ry="12.5" style="stroke:#000000;stroke-width:0.5;" width="138.7402" x="233" y="7"/><line style="stroke:#000000;stroke-width:0.5;" x1="233" x2="371.7402" y1="33.2969" y2="33.2969"/><text fill="#000000" font-family="sans-serif" font-size="14" lengthAdjust="spacing" textLength="118.7402" x="243" y="24.9951">GRUPO_ABIERTO</text></g><g id="EntradaMiembro"><rect fill="#FFFFFF" height="50" rx="12.5" ry="12.5" style="stroke:#000000;stroke-width:0.5;" width="155.9395" x="407.5" y="7"/><line style="stroke:#000000;stroke-width:0.5;" x1="407.5" x2="563.4395" y1="33.2969" y2="33.2969"/><text fill="#000000" font-family="sans-serif" font-size="14" lengthAdjust="spacing" textLength="135.9395" x="417.5" y="24.9951">MIEMBRO_ABIERTO</text></g><path d="M19.5,118 L767.58,118 A12.5,12.5 0 0 1 780.08,130.5 L780.08,144.2969 L7,144.2969 L7,130.5 A12.5,12.5 0 0 1 19.5,118" fill="#FFFFFF"/><rect fill="none" height="462.2969" rx="12.5" ry="12.5" style="stroke:#000000;stroke-width:0.5;" width="773.08" x="7" y="118"/><line style="stroke:#000000;stroke-width:0.5;" x1="7" x2="780.08" y1="144.2969" y2="144.2969"/><text fill="#000000" font-family="sans-serif" font-size="14" lengthAdjust="spacing" textLength="113.5654" x="336.7573" y="135.9951">editarMiembro()</text><g id="MainBlock.EstadoVisualizacion"><rect fill="#FFFFFF" height="50" rx="12.5" ry="12.5" style="stroke:#000000;stroke-width:0.5;" width="50" x="256.08" y="246.2969"/><line style="stroke:#000000;stroke-width:0.5;" x1="256.08" x2="306.08" y1="272.5938" y2="272.5938"/><text fill="#000000" font-family="sans-serif" font-size="14" lengthAdjust="spacing" textLength="4.4502" x="278.8549" y="264.292">&#160;</text></g><g id="MainBlock.EstadoDecision"><rect fill="#FFFFFF" height="50" rx="12.5" ry="12.5" style="stroke:#000000;stroke-width:0.5;" width="50" x="256.08" y="427.2969"/><line style="stroke:#000000;stroke-width:0.5;" x1="256.08" x2="306.08" y1="453.5938" y2="453.5938"/><text fill="#000000" font-family="sans-serif" font-size="14" lengthAdjust="spacing" textLength="4.4502" x="278.8549" y="445.292">&#160;</text></g><ellipse cx="281.08" cy="165.2969" fill="#222222" rx="10" ry="10" style="stroke:#222222;stroke-width:1;"/><ellipse cx="281.08" cy="559.2969" fill="none" rx="11" ry="11" style="stroke:#222222;stroke-width:1;"/><ellipse cx="281.08" cy="559.2969" fill="#222222" rx="6" ry="6" style="stroke:#222222;stroke-width:1;"/><!--link *start*MainBlock to EstadoVisualizacion--><g class="link" data-entity-1=".start.MainBlock" data-entity-2="EstadoVisualizacion" data-source-line="30" data-uid="lnk3" id="link_.start.MainBlock_EstadoVisualizacion"><path d="M281.08,175.5269 C281.08,191.2369 281.08,217.6569 281.08,240.1669" fill="none" id="*start*MainBlock-to-EstadoVisualizacion" style="stroke:#009900;stroke-width:1;"/><polygon fill="#009900" points="281.08,246.1669,285.08,237.1669,281.08,241.1669,277.08,237.1669,281.08,246.1669" style="stroke:#009900;stroke-width:1;"/><path d="M286.08,198.2969 L286.08,223.2969 L566.08,223.2969 L566.08,208.2969 L556.08,198.2969 L286.08,198.2969" fill="#FFFFE0" style="stroke:#B0B060;stroke-width:0.5;"/><path d="M556.08,198.2969 L556.08,208.2969 L566.08,208.2969 L556.08,198.2969" fill="#FFFFE0" style="stroke:#B0B060;stroke-width:0.5;"/><text fill="#000000" font-family="Arial" font-size="13" font-weight="bold" lengthAdjust="spacing" textLength="104.8633" x="292.08" y="215.3638">Administrador</text><text fill="#000000" font-family="Arial" font-size="13" lengthAdjust="spacing" textLength="150.7949" x="401.0756" y="215.3638">solicita editar miembro</text></g><!--link EstadoVisualizacion to EstadoDecision--><g class="link" data-entity-1="EstadoVisualizacion" data-entity-2="EstadoDecision" data-source-line="35" data-uid="lnk4" id="link_EstadoVisualizacion_EstadoDecision"><path d="M281.08,296.4369 C281.08,330.6969 281.08,387.0469 281.08,421.2569" fill="none" id="EstadoVisualizacion-to-EstadoDecision" style="stroke:#009900;stroke-width:1;"/><polygon fill="#009900" points="281.08,427.2569,285.08,418.2569,281.08,422.2569,277.08,418.2569,281.08,427.2569" style="stroke:#009900;stroke-width:1;"/><path d="M286.08,319.2969 L286.08,404.2969 L612.08,404.2969 L612.08,329.2969 L602.08,319.2969 L286.08,319.2969" fill="#FFFFE0" style="stroke:#B0B060;stroke-width:0.5;"/><path d="M602.08,319.2969 L602.08,329.2969 L612.08,329.2969 L602.08,319.2969" fill="#FFFFE0" style="stroke:#B0B060;stroke-width:0.5;"/><text fill="#000000" font-family="Arial" font-size="13" font-weight="bold" lengthAdjust="spacing" textLength="58.9063" x="292.08" y="336.3638">Sistema</text><text fill="#000000" font-family="Arial" font-size="13" lengthAdjust="spacing" textLength="242.0171" x="355.1186" y="336.3638">visualiza datos actuales del miembro</text><text fill="#000000" font-family="Arial" font-size="13" font-weight="bold" lengthAdjust="spacing" textLength="58.9063" x="292.08" y="351.4966">Sistema</text><text fill="#000000" font-family="Arial" font-size="13" lengthAdjust="spacing" textLength="110.5952" x="355.1186" y="351.4966">permite solicitar:</text><ellipse cx="297.58" cy="362.1953" fill="#000000" rx="2.5" ry="2.5"/><text fill="#000000" font-family="Arial" font-size="13" lengthAdjust="spacing" textLength="254.084" x="304.08" y="366.6294">introducir cambios en el rol o permisos</text><ellipse cx="297.58" cy="377.3281" fill="#000000" rx="2.5" ry="2.5"/><text fill="#000000" font-family="Arial" font-size="13" lengthAdjust="spacing" textLength="109.8652" x="304.08" y="381.7622">guardar cambios</text><ellipse cx="297.58" cy="392.4609" fill="#000000" rx="2.5" ry="2.5"/><text fill="#000000" font-family="Arial" font-size="13" lengthAdjust="spacing" textLength="106.3677" x="304.08" y="396.895">cancelar edici&#243;n</text></g><!--link EstadoDecision to *end*MainBlock--><g class="link" data-entity-1="EstadoDecision" data-entity-2=".end.MainBlock" data-source-line="45" data-uid="lnk6" id="link_EstadoDecision_.end.MainBlock"><path d="M255.61,454.0169 C188.94,456.7369 18,469.6769 71.08,530.2969 C97.43,560.3869 224.5917,559.6982 264.0517,558.7682" fill="none" id="EstadoDecision-to-*end*MainBlock" style="stroke:#008000;stroke-width:1;"/><polygon fill="#008000" points="270.05,558.6269,260.9583,554.84,265.0514,558.7447,261.1467,562.8378,270.05,558.6269" style="stroke:#008000;stroke-width:1;"/><path d="M76.08,500.2969 L76.08,525.2969 L466.08,525.2969 L466.08,510.2969 L456.08,500.2969 L76.08,500.2969" fill="#FFFFE0" style="stroke:#B0B060;stroke-width:0.5;"/><path d="M456.08,500.2969 L456.08,510.2969 L466.08,510.2969 L456.08,500.2969" fill="#FFFFE0" style="stroke:#B0B060;stroke-width:0.5;"/><text fill="#000000" font-family="Arial" font-size="13" font-weight="bold" lengthAdjust="spacing" textLength="104.8633" x="82.08" y="517.3638">Administrador</text><text fill="#000000" font-family="Arial" font-size="13" lengthAdjust="spacing" textLength="260.0825" x="191.0756" y="517.3638">introduce los cambios y solicita guardar</text></g><!--link EstadoDecision to *end*MainBlock--><g class="link" data-entity-1="EstadoDecision" data-entity-2=".end.MainBlock" data-source-line="50" data-uid="lnk7" id="link_EstadoDecision_.end.MainBlock"><path d="M306.38,454.6669 C368.24,458.9169 518.77,475.0669 471.08,530.2969 C447.6,557.4869 335.0198,558.794 298.0798,558.504" fill="none" id="EstadoDecision-to-*end*MainBlock-1" style="stroke:#FF0000;stroke-width:1;"/><polygon fill="#FF0000" points="292.08,558.4569,301.0483,562.5274,297.0798,558.4961,301.1111,554.5277,292.08,558.4569" style="stroke:#FF0000;stroke-width:1;"/><path d="M485.08,500.2969 L485.08,525.2969 L771.08,525.2969 L771.08,510.2969 L761.08,500.2969 L485.08,500.2969" fill="#FFFFE0" style="stroke:#B0B060;stroke-width:0.5;"/><path d="M761.08,500.2969 L761.08,510.2969 L771.08,510.2969 L761.08,500.2969" fill="#FFFFE0" style="stroke:#B0B060;stroke-width:0.5;"/><text fill="#000000" font-family="Arial" font-size="13" font-weight="bold" lengthAdjust="spacing" textLength="104.8633" x="491.08" y="517.3638">Administrador</text><text fill="#000000" font-family="Arial" font-size="13" lengthAdjust="spacing" textLength="156.2729" x="600.0756" y="517.3638">solicita cancelar edici&#243;n</text></g><g id="FinMiembro"><rect fill="#FFFFFF" height="50" rx="12.5" ry="12.5" style="stroke:#000000;stroke-width:0.5;" width="155.9395" x="258.5" y="675"/><line style="stroke:#000000;stroke-width:0.5;" x1="258.5" x2="414.4395" y1="701.2969" y2="701.2969"/><text fill="#000000" font-family="sans-serif" font-size="14" lengthAdjust="spacing" textLength="135.9395" x="268.5" y="692.9951">MIEMBRO_ABIERTO</text></g><g id="FinGrupo"><rect fill="#FFFFFF" height="50" rx="12.5" ry="12.5" style="stroke:#000000;stroke-width:0.5;" width="138.7402" x="617" y="675"/><line style="stroke:#000000;stroke-width:0.5;" x1="617" x2="755.7402" y1="701.2969" y2="701.2969"/><text fill="#000000" font-family="sans-serif" font-size="14" lengthAdjust="spacing" textLength="118.7402" x="627" y="692.9951">GRUPO_ABIERTO</text></g><!--link EntradaGrupo to MainBlock--><g class="link" data-entity-1="EntradaGrupo" data-entity-2="MainBlock" data-source-line="62" data-uid="lnk8" id="link_EntradaGrupo_MainBlock"><path d="M309.49,57.19 C313.88,72.39 318.3656,87.9155 325.3556,112.1255" fill="none" id="EntradaGrupo-to-MainBlock" style="stroke:#009900;stroke-width:1;"/><polygon fill="#009900" points="327.02,117.89,328.3665,108.1336,325.633,113.0862,320.6804,110.3528,327.02,117.89" style="stroke:#009900;stroke-width:1;"/></g><!--link EntradaMiembro to MainBlock--><g class="link" data-entity-1="EntradaMiembro" data-entity-2="MainBlock" data-source-line="63" data-uid="lnk9" id="link_EntradaMiembro_MainBlock"><path d="M478.43,57.19 C473.99,72.39 469.4619,87.9206 462.3919,112.1306" fill="none" id="EntradaMiembro-to-MainBlock" style="stroke:#009900;stroke-width:1;"/><polygon fill="#009900" points="460.71,117.89,467.0725,110.3721,462.1116,113.0905,459.3933,108.1296,460.71,117.89" style="stroke:#009900;stroke-width:1;"/></g><!--link MainBlock to FinMiembro--><g class="link" data-entity-1="MainBlock" data-entity-2="FinMiembro" data-source-line="66" data-uid="lnk10" id="link_MainBlock_FinMiembro"><path d="M283.1,580.05 C280.21,590.06 277.65,600.07 275.5,610 C272.21,625.2 269.11,630.82 275.5,645 C280.73,656.61 285.2692,662.8198 294.8592,671.0598" fill="none" id="MainBlock-to-FinMiembro" style="stroke:#008000;stroke-width:1;"/><polygon fill="#008000" points="299.41,674.97,295.1905,666.0708,295.6176,671.7115,289.9769,672.1386,299.41,674.97" style="stroke:#008000;stroke-width:1;"/><text fill="#000000" font-family="sans-serif" font-size="13" lengthAdjust="spacing" textLength="73.9438" x="276.5" y="632.0669">"               "</text></g><!--link MainBlock to FinMiembro--><g class="link" data-entity-1="MainBlock" data-entity-2="FinMiembro" data-source-line="69" data-uid="lnk11" id="link_MainBlock_FinMiembro"><path d="M367.39,580.26 C363.6,602.24 359.32,624.11 354.5,645 C352.21,654.92 350.8173,659.9317 347.6173,669.1517" fill="none" id="MainBlock-to-FinMiembro-1" style="stroke:#FF0000;stroke-width:1;"/><polygon fill="#FF0000" points="345.65,674.82,352.3798,667.6291,347.2894,670.0964,344.8221,665.006,345.65,674.82" style="stroke:#FF0000;stroke-width:1;"/><path d="M366.5,615 L366.5,640 L609.5,640 L609.5,625 L599.5,615 L366.5,615" fill="#FFFFE0" style="stroke:#B0B060;stroke-width:0.5;"/><path d="M599.5,615 L599.5,625 L609.5,625 L599.5,615" fill="#FFFFE0" style="stroke:#B0B060;stroke-width:0.5;"/><text fill="#000000" font-family="Arial" font-size="13" lengthAdjust="spacing" textLength="222.5361" x="372.5" y="632.0669">cancelar edici&#243;n (desde miembro)</text></g><!--link MainBlock to FinGrupo--><g class="link" data-entity-1="MainBlock" data-entity-2="FinGrupo" data-source-line="74" data-uid="lnk12" id="link_MainBlock_FinGrupo"><path d="M598.23,580.06 C606.51,590.11 614.63,600.12 622.5,610 C639.46,631.29 654.0264,651.6257 666.5964,669.7957" fill="none" id="MainBlock-to-FinGrupo" style="stroke:#FF0000;stroke-width:1;"/><polygon fill="#FF0000" points="670.01,674.73,668.1792,665.0528,667.1654,670.6181,661.6001,669.6042,670.01,674.73" style="stroke:#FF0000;stroke-width:1;"/><path d="M652.5,615 L652.5,640 L875.5,640 L875.5,625 L865.5,615 L652.5,615" fill="#FFFFE0" style="stroke:#B0B060;stroke-width:0.5;"/><path d="M865.5,615 L865.5,625 L875.5,625 L865.5,615" fill="#FFFFE0" style="stroke:#B0B060;stroke-width:0.5;"/><text fill="#000000" font-family="Arial" font-size="13" lengthAdjust="spacing" textLength="202.0903" x="658.5" y="632.0669">cancelar edici&#243;n (desde grupo)</text></g><!--SRC=[dLLDRzf04BtxLup28O14H7keb1mg0NKY3f0AQ5efYgfbTo7Js3jelIPfg_w0_fIUU-kLFzRn-WCJGlhXWmMxis_Ul3UpFeO1cGKkKoiaRduQM6EIYWXGRNuOXrA00AtG2NjXqnKrMq5oXsObh8WX9aForbAiOI6YHDUsabkXwBvOThG2Hp0dvoW6XLPBXsI2UhmJJiFN0FZf2tctj9GQDQ28BBo_HQVp7R9Astor7t6ON-rPI_VvOgFRFJtjTltob3cxnx5X2PelVQjpC7IGGkESdx2xHwBHx_Qxh_BrSp9kB5YBdaKHPT37479TYXBG3qvRmp-K1csS5Kf0atdZNB2WllQZYycxjvSVU_rXE9bT7e58cAoFzCANKQDXEEfFdemReOxdbhPvGLAyIdN2sgyi6eahvbNWv9uMHvejZpCIQFeHoRj21VyguY7Fv76lV8lW5-uOTl50q1ijCIdt_UkwVGETpkk385v_CX2XoStAddQxfs8qc6Gbacst8Q489PClsXBYekmiMXlbOOBSxFr4DG8x10_add9U7GlEkYvHG0d7HWhf-B_E78rsA3m-kD8svlwjQDkpRHWWEqSgbMX1YdYEMQiOO4HB4L1-Dg6aTcAP2gj45LxRaS987V4Mw-97-Gb5Zc7AHIWsYJDpH_AFH2ytlxXm0MkAKiFA-9AuFh8r5Kkre7FTM5gjpGtFjs4nsTL_SQ-iM4F4nPP5VzwwMXHuqCuw4QlLVzAeqlr1jPqfNg3nbbVJtEpDnITgFJURvsZAkJmuvnoJppZdwdGwC9lqnjFXO7Wv3gSGVfY5at5lckq4GVrAyBrSpMomUmiyscJa5oU5-TabjFd-W7mjDAyqNsQjO3lvbRryVCiTpdYqTv-Z3FFbITLG33h8jSo_8yq9iJJ00Wd3Ln5_KWokkR7GBBH5xgsTd3KdQuhjcRdd5ZILJZXrCO6jODiop-3dQlyz-ZABtsB_1W00]--></g></svg>