<svg xmlns="http://www.w3.org/2000/svg" xmlns:xlink="http://www.w3.org/1999/xlink" contentStyleType="text/css" data-diagram-type="STATE" height="837px" preserveAspectRatio="none" style="width:730px;height:837px;background:#FFFFFF;" version="1.1" viewBox="0 0 730 837" width="730px" zoomAndPan="magnify"><defs/><g><g id="EntradaGrupo"><rect fill="#FFFFFF" height="50" rx="12.5" ry="12.5" style="stroke:#000000;stroke-width:0.5;" width="138.7402" x="74.5" y="7"/><line style="stroke:#000000;stroke-width:0.5;" x1="74.5" x2="213.2402" y1="33.2969" y2="33.2969"/><text fill="#000000" font-family="sans-serif" font-size="14" lengthAdjust="spacing" textLength="118.7402" x="84.5" y="24.9951">GRUPO_ABIERTO</text></g><g id="EntradaMiembro"><rect fill="#FFFFFF" height="50" rx="12.5" ry="12.5" style="stroke:#000000;stroke-width:0.5;" width="155.9395" x="249" y="7"/><line style="stroke:#000000;stroke-width:0.5;" x1="249" x2="404.9395" y1="33.2969" y2="33.2969"/><text fill="#000000" font-family="sans-serif" font-size="14" lengthAdjust="spacing" textLength="135.9395" x="259" y="24.9951">MIEMBRO_ABIERTO</text></g><path d="M19.5,118 L450.5,118 A12.5,12.5 0 0 1 463,130.5 L463,144.2969 L7,144.2969 L7,130.5 A12.5,12.5 0 0 1 19.5,118" fill="#FFFFFF"/><rect fill="none" height="568.2969" rx="12.5" ry="12.5" style="stroke:#000000;stroke-width:0.5;" width="456" x="7" y="118"/><line style="stroke:#000000;stroke-width:0.5;" x1="7" x2="463" y1="144.2969" y2="144.2969"/><text fill="#000000" font-family="sans-serif" font-size="14" lengthAdjust="spacing" textLength="113.5654" x="178.2173" y="135.9951">editarMiembro()</text><g id="MainBlock.Paso1"><rect fill="#FFFFFF" height="50" rx="12.5" ry="12.5" style="stroke:#000000;stroke-width:0.5;" width="50" x="19" y="246.2969"/><line style="stroke:#000000;stroke-width:0.5;" x1="19" x2="69" y1="272.5938" y2="272.5938"/><text fill="#000000" font-family="sans-serif" font-size="14" lengthAdjust="spacing" textLength="4.4502" x="41.7749" y="264.292">&#160;</text></g><g id="MainBlock.Paso2"><rect fill="#FFFFFF" height="50" rx="12.5" ry="12.5" style="stroke:#000000;stroke-width:0.5;" width="50" x="19" y="412.2969"/><line style="stroke:#000000;stroke-width:0.5;" x1="19" x2="69" y1="438.5938" y2="438.5938"/><text fill="#000000" font-family="sans-serif" font-size="14" lengthAdjust="spacing" textLength="4.4502" x="41.7749" y="430.292">&#160;</text></g><g id="MainBlock.Paso3"><rect fill="#FFFFFF" height="50" rx="12.5" ry="12.5" style="stroke:#000000;stroke-width:0.5;" width="50" x="19" y="533.2969"/><line style="stroke:#000000;stroke-width:0.5;" x1="19" x2="69" y1="559.5938" y2="559.5938"/><text fill="#000000" font-family="sans-serif" font-size="14" lengthAdjust="spacing" textLength="4.4502" x="41.7749" y="551.292">&#160;</text></g><ellipse cx="44" cy="165.2969" fill="#222222" rx="10" ry="10" style="stroke:#222222;stroke-width:1;"/><ellipse cx="44" cy="665.2969" fill="none" rx="11" ry="11" style="stroke:#222222;stroke-width:1;"/><ellipse cx="44" cy="665.2969" fill="#222222" rx="6" ry="6" style="stroke:#222222;stroke-width:1;"/><!--link *start*MainBlock to Paso1--><g class="link" data-entity-1=".start.MainBlock" data-entity-2="Paso1" data-source-line="31" data-uid="lnk3" id="link_.start.MainBlock_Paso1"><path d="M44,175.5269 C44,191.2369 44,217.6569 44,240.1669" fill="none" id="*start*MainBlock-to-Paso1" style="stroke:#009900;stroke-width:1;"/><polygon fill="#009900" points="44,246.1669,48,237.1669,44,241.1669,40,237.1669,44,246.1669" style="stroke:#009900;stroke-width:1;"/><path d="M49,198.2969 L49,223.2969 L329,223.2969 L329,208.2969 L319,198.2969 L49,198.2969" fill="#FFFFE0" style="stroke:#B0B060;stroke-width:0.5;"/><path d="M319,198.2969 L319,208.2969 L329,208.2969 L319,198.2969" fill="#FFFFE0" style="stroke:#B0B060;stroke-width:0.5;"/><text fill="#000000" font-family="Arial" font-size="13" font-weight="bold" lengthAdjust="spacing" textLength="104.8633" x="55" y="215.3638">Administrador</text><text fill="#000000" font-family="Arial" font-size="13" lengthAdjust="spacing" textLength="150.7949" x="163.9956" y="215.3638">solicita editar miembro</text></g><!--link Paso1 to Paso2--><g class="link" data-entity-1="Paso1" data-entity-2="Paso2" data-source-line="36" data-uid="lnk4" id="link_Paso1_Paso2"><path d="M44,296.4969 C44,327.5869 44,375.2469 44,406.2669" fill="none" id="Paso1-to-Paso2" style="stroke:#009900;stroke-width:1;"/><polygon fill="#009900" points="44,412.2669,48,403.2669,44,407.2669,40,403.2669,44,412.2669" style="stroke:#009900;stroke-width:1;"/><path d="M49,319.2969 L49,389.2969 L454,389.2969 L454,329.2969 L444,319.2969 L49,319.2969" fill="#FFFFE0" style="stroke:#B0B060;stroke-width:0.5;"/><path d="M444,319.2969 L444,329.2969 L454,329.2969 L444,319.2969" fill="#FFFFE0" style="stroke:#B0B060;stroke-width:0.5;"/><text fill="#000000" font-family="Arial" font-size="13" font-weight="bold" lengthAdjust="spacing" textLength="58.9063" x="55" y="336.3638">Sistema</text><text fill="#000000" font-family="Arial" font-size="13" lengthAdjust="spacing" textLength="242.0171" x="118.0386" y="336.3638">visualiza datos actuales del miembro</text><text fill="#000000" font-family="Arial" font-size="13" lengthAdjust="spacing" textLength="7.668" x="55" y="351.4966">&#8226;</text><text fill="#000000" font-family="Arial" font-size="13" font-weight="bold" lengthAdjust="spacing" textLength="58.9063" x="66.8003" y="351.4966">Sistema</text><text fill="#000000" font-family="Arial" font-size="13" lengthAdjust="spacing" textLength="309.1816" x="129.8389" y="351.4966">permite introducir cambios en el rol o permisos</text><text fill="#000000" font-family="Arial" font-size="13" lengthAdjust="spacing" textLength="7.668" x="55" y="366.6294">&#8226;</text><text fill="#000000" font-family="Arial" font-size="13" font-weight="bold" lengthAdjust="spacing" textLength="58.9063" x="66.8003" y="366.6294">Sistema</text><text fill="#000000" font-family="Arial" font-size="13" lengthAdjust="spacing" textLength="220.2129" x="129.8389" y="366.6294">permite solicitar guardar cambios</text><text fill="#000000" font-family="Arial" font-size="13" lengthAdjust="spacing" textLength="7.668" x="55" y="381.7622">&#8226;</text><text fill="#000000" font-family="Arial" font-size="13" font-weight="bold" lengthAdjust="spacing" textLength="58.9063" x="66.8003" y="381.7622">Sistema</text><text fill="#000000" font-family="Arial" font-size="13" lengthAdjust="spacing" textLength="216.7153" x="129.8389" y="381.7622">permite solicitar cancelar edici&#243;n</text></g><!--link Paso2 to Paso3--><g class="link" data-entity-1="Paso2" data-entity-2="Paso3" data-source-line="44" data-uid="lnk5" id="link_Paso2_Paso3"><path d="M44,462.3769 C44,483.0269 44,506.6169 44,527.2469" fill="none" id="Paso2-to-Paso3" style="stroke:#009900;stroke-width:1;"/><polygon fill="#009900" points="44,533.2469,48,524.2469,44,528.2469,40,524.2469,44,533.2469" style="stroke:#009900;stroke-width:1;"/><path d="M49,485.2969 L49,510.2969 L439,510.2969 L439,495.2969 L429,485.2969 L49,485.2969" fill="#FFFFE0" style="stroke:#B0B060;stroke-width:0.5;"/><path d="M429,485.2969 L429,495.2969 L439,495.2969 L429,485.2969" fill="#FFFFE0" style="stroke:#B0B060;stroke-width:0.5;"/><text fill="#000000" font-family="Arial" font-size="13" font-weight="bold" lengthAdjust="spacing" textLength="104.8633" x="55" y="502.3638">Administrador</text><text fill="#000000" font-family="Arial" font-size="13" lengthAdjust="spacing" textLength="260.0825" x="163.9956" y="502.3638">introduce los cambios y solicita guardar</text></g><!--link Paso3 to *end*MainBlock--><g class="link" data-entity-1="Paso3" data-entity-2=".end.MainBlock" data-source-line="49" data-uid="lnk7" id="link_Paso3_.end.MainBlock"><path d="M44,583.3869 C44,605.7869 44,632.0669 44,648.2469" fill="none" id="Paso3-to-*end*MainBlock" style="stroke:#009900;stroke-width:1;"/><polygon fill="#009900" points="44,654.2469,48,645.2469,44,649.2469,40,645.2469,44,654.2469" style="stroke:#009900;stroke-width:1;"/><path d="M49,606.2969 L49,631.2969 L424,631.2969 L424,616.2969 L414,606.2969 L49,606.2969" fill="#FFFFE0" style="stroke:#B0B060;stroke-width:0.5;"/><path d="M414,606.2969 L414,616.2969 L424,616.2969 L414,606.2969" fill="#FFFFE0" style="stroke:#B0B060;stroke-width:0.5;"/><text fill="#000000" font-family="Arial" font-size="13" font-weight="bold" lengthAdjust="spacing" textLength="58.9063" x="55" y="623.3638">Sistema</text><text fill="#000000" font-family="Arial" font-size="13" lengthAdjust="spacing" textLength="291.0972" x="118.0386" y="623.3638">visualiza los datos actualizados del miembro</text></g><g id="FinMiembro"><rect fill="#FFFFFF" height="50" rx="12.5" ry="12.5" style="stroke:#000000;stroke-width:0.5;" width="155.9395" x="128" y="781"/><line style="stroke:#000000;stroke-width:0.5;" x1="128" x2="283.9395" y1="807.2969" y2="807.2969"/><text fill="#000000" font-family="sans-serif" font-size="14" lengthAdjust="spacing" textLength="135.9395" x="138" y="798.9951">MIEMBRO_ABIERTO</text></g><g id="FinGrupo"><rect fill="#FFFFFF" height="50" rx="12.5" ry="12.5" style="stroke:#000000;stroke-width:0.5;" width="138.7402" x="458.5" y="781"/><line style="stroke:#000000;stroke-width:0.5;" x1="458.5" x2="597.2402" y1="807.2969" y2="807.2969"/><text fill="#000000" font-family="sans-serif" font-size="14" lengthAdjust="spacing" textLength="118.7402" x="468.5" y="798.9951">GRUPO_ABIERTO</text></g><!--link EntradaGrupo to MainBlock--><g class="link" data-entity-1="EntradaGrupo" data-entity-2="MainBlock" data-source-line="62" data-uid="lnk8" id="link_EntradaGrupo_MainBlock"><path d="M149.97,57.15 C153.69,72.18 157.4705,87.4552 163.5105,111.8952" fill="none" id="EntradaGrupo-to-MainBlock" style="stroke:#009900;stroke-width:1;"/><polygon fill="#009900" points="164.95,117.72,166.6739,108.0232,163.7504,112.866,158.9076,109.9425,164.95,117.72" style="stroke:#009900;stroke-width:1;"/></g><!--link EntradaMiembro to MainBlock--><g class="link" data-entity-1="EntradaMiembro" data-entity-2="MainBlock" data-source-line="63" data-uid="lnk9" id="link_EntradaMiembro_MainBlock"><path d="M320.96,57.15 C317.21,72.18 313.3852,87.4591 307.2752,111.8991" fill="none" id="EntradaMiembro-to-MainBlock" style="stroke:#009900;stroke-width:1;"/><polygon fill="#009900" points="305.82,117.72,311.8834,109.9589,307.0327,112.8693,304.1223,108.0186,305.82,117.72" style="stroke:#009900;stroke-width:1;"/></g><!--link MainBlock to FinMiembro--><g class="link" data-entity-1="MainBlock" data-entity-2="FinMiembro" data-source-line="66" data-uid="lnk10" id="link_MainBlock_FinMiembro"><path d="M200.97,686.09 C200.23,696.18 199.56,706.17 199,716 C198.11,731.53 198,735.48 199,751 C199.63,760.81 200.0865,765.6168 201.3765,774.9268" fill="none" id="MainBlock-to-FinMiembro" style="stroke:#009900;stroke-width:1;"/><polygon fill="#009900" points="202.2,780.87,204.9269,771.4062,201.5138,775.9173,197.0026,772.5042,202.2,780.87" style="stroke:#009900;stroke-width:1;"/></g><!--link MainBlock to FinMiembro--><g class="link" data-entity-1="MainBlock" data-entity-2="FinMiembro" data-source-line="70" data-uid="lnk11" id="link_MainBlock_FinMiembro"><path d="M214.58,686.02 C211.76,725.15 209.7332,753.2857 208.1732,774.8357" fill="none" id="MainBlock-to-FinMiembro-1" style="stroke:#FF0000;stroke-width:1;"/><polygon fill="#FF0000" points="207.74,780.82,212.3794,772.1323,208.101,775.833,204.4002,771.5547,207.74,780.82" style="stroke:#FF0000;stroke-width:1;"/><path d="M218,721 L218,746 L461,746 L461,731 L451,721 L218,721" fill="#FFFFE0" style="stroke:#B0B060;stroke-width:0.5;"/><path d="M451,721 L451,731 L461,731 L451,721" fill="#FFFFE0" style="stroke:#B0B060;stroke-width:0.5;"/><text fill="#000000" font-family="Arial" font-size="13" lengthAdjust="spacing" textLength="222.5361" x="224" y="738.0669">cancelar edici&#243;n (desde miembro)</text></g><!--link MainBlock to FinGrupo--><g class="link" data-entity-1="MainBlock" data-entity-2="FinGrupo" data-source-line="75" data-uid="lnk12" id="link_MainBlock_FinGrupo"><path d="M453.24,686.08 C460.32,696.12 467.26,706.12 474,716 C488.57,737.35 500.699,757.4302 511.229,775.5802" fill="none" id="MainBlock-to-FinGrupo" style="stroke:#FF0000;stroke-width:1;"/><polygon fill="#FF0000" points="514.24,780.77,513.1835,770.978,511.7309,776.4452,506.2637,774.9926,514.24,780.77" style="stroke:#FF0000;stroke-width:1;"/><path d="M500,721 L500,746 L723,746 L723,731 L713,721 L500,721" fill="#FFFFE0" style="stroke:#B0B060;stroke-width:0.5;"/><path d="M713,721 L713,731 L723,731 L713,721" fill="#FFFFE0" style="stroke:#B0B060;stroke-width:0.5;"/><text fill="#000000" font-family="Arial" font-size="13" lengthAdjust="spacing" textLength="202.0903" x="506" y="738.0669">cancelar edici&#243;n (desde grupo)</text></g><!--SRC=[bLNRRjD047ttLupeGvD8gT94GkeBafsunIWtx1QGgWfDx6sogRqJrcjQG4Xy2syyymdz4xw4yIMtfYbq7onxF7lcpENi7aANrBMSPXf3UVzRmMUPPXX3I2gLgH7A22kzaMg16XD8I54uqvG8kCOutVoLpZ2YsyfiQ066O4B6K0AHr28qafIrwM_G2FXc0Iy7mvkffan5NOf9m_kPvB357zAHqANLYTcjiDfQqsrfF6YrJavQhS8S6DJceQ-x12rDtpSvADfBuU2KbzlQ8N7Wj9pMoz9-IieCaMjXQubn3dq8nqVW1kTsRnH0pmLtUExRFHjgjkzxZbstognVdFaNuz57s_5S_tpq0Z1bcaPZX6SwMz3IQ-2v0yT_r6yWHJBHb4Ti7u7J7xszS67iUyEkDxRx7BeFNJiOvHmkWj4IK4IIIrJjhTKBm05AvSGKtbI5A1wLFnGUOqpf-75p-t5pnohibuqhQ3PVRG0K1IS5iLHbT_BLQDXH8XLF6sT6kj60b68PCbKe2KDIPPjx2nKLC6M80deLfFrKa20VvmGPlXnn-HKXGaCfO6ZuMwGGYNWhLhx-_FYvjNaXTCBJ2P8RGL4MIWqX9XF9E4810sYAWKgtbD9_uYnprJ3DK4UuWdl6pX1LA69-uNeLAjvJgVQgKftdj6EPge2Oirnc-sNTfehvdgYT8YeFmtExaqVRx13R8jhjqYfY8S3EbW03k-yL-dFiDoDeGezK900NcJ8uGJ0PNCSYd25tROxrfuHtAjLIT7j5p3wbW9b7izc4xcZeVl3u4UIVkRMIRvv4cXFHMaxGsXH_KQoLAArjlJ_uoO01boNYGHPm_-jEyfbRUoVujAh3ZCzp14voJjPQuytBwi2yOg2Db5P8ERFbF9KNGisdETNXjTtrR2ZgcEUHSYWj5bgaV4MmKE-uHNmKydN1RODFcU1JVvBDaRkQtoKGusQbjnbf4LtntQ6sAUqCoiwKGwsiOZKCTMizUq_WbntwV_Hfxh_6_Wi0]--></g></svg>