<svg xmlns="http://www.w3.org/2000/svg" xmlns:xlink="http://www.w3.org/1999/xlink" contentStyleType="text/css" data-diagram-type="STATE" height="731px" preserveAspectRatio="none" style="width:707px;height:731px;background:#FFFFFF;" version="1.1" viewBox="0 0 707 731" width="707px" zoomAndPan="magnify"><defs/><g><g id="Inicio"><rect fill="#FFFFFF" height="50" rx="12.5" ry="12.5" style="stroke:#000000;stroke-width:0.5;" width="195.8066" x="252.5" y="7"/><line style="stroke:#000000;stroke-width:0.5;" x1="252.5" x2="448.3066" y1="33.2969" y2="33.2969"/><text fill="#000000" font-family="sans-serif" font-size="14" lengthAdjust="spacing" textLength="175.8066" x="262.5" y="24.9951">PLANIFICACION_ABIERTO</text></g><path d="M19.5,118 L681.69,118 A12.5,12.5 0 0 1 694.19,130.5 L694.19,144.2969 L7,144.2969 L7,130.5 A12.5,12.5 0 0 1 19.5,118" fill="#FFFFFF"/><rect fill="none" height="462.2969" rx="12.5" ry="12.5" style="stroke:#000000;stroke-width:0.5;" width="687.19" x="7" y="118"/><line style="stroke:#000000;stroke-width:0.5;" x1="7" x2="694.19" y1="144.2969" y2="144.2969"/><text fill="#000000" font-family="sans-serif" font-size="14" lengthAdjust="spacing" textLength="172.8193" x="264.1853" y="135.9951">configurarRecordatorio()</text><g id="ConfigurarRecordatorioContainer.PasoInicial"><rect fill="#FFFFFF" height="50" rx="12.5" ry="12.5" style="stroke:#000000;stroke-width:0.5;" width="50" x="214.19" y="246.2969"/><line style="stroke:#000000;stroke-width:0.5;" x1="214.19" x2="264.19" y1="272.5938" y2="272.5938"/><text fill="#000000" font-family="sans-serif" font-size="14" lengthAdjust="spacing" textLength="4.4502" x="236.9649" y="264.292">&#160;</text></g><g id="ConfigurarRecordatorioContainer.PasoDatos"><rect fill="#FFFFFF" height="50" rx="12.5" ry="12.5" style="stroke:#000000;stroke-width:0.5;" width="50" x="214.19" y="427.2969"/><line style="stroke:#000000;stroke-width:0.5;" x1="214.19" x2="264.19" y1="453.5938" y2="453.5938"/><text fill="#000000" font-family="sans-serif" font-size="14" lengthAdjust="spacing" textLength="4.4502" x="236.9649" y="445.292">&#160;</text></g><ellipse cx="239.19" cy="165.2969" fill="#222222" rx="10" ry="10" style="stroke:#222222;stroke-width:1;"/><ellipse cx="239.19" cy="559.2969" fill="none" rx="11" ry="11" style="stroke:#222222;stroke-width:1;"/><ellipse cx="239.19" cy="559.2969" fill="#222222" rx="6" ry="6" style="stroke:#222222;stroke-width:1;"/><!--link *start*ConfigurarRecordatorioContainer to PasoInicial--><g class="link" data-entity-1=".start.ConfigurarRecordatorioContainer" data-entity-2="PasoInicial" data-source-line="29" data-uid="lnk3" id="link_.start.ConfigurarRecordatorioContainer_PasoInicial"><path d="M239.19,175.5269 C239.19,191.2369 239.19,217.6569 239.19,240.1669" fill="none" id="*start*ConfigurarRecordatorioContainer-to-PasoInicial" style="stroke:#009900;stroke-width:1;"/><polygon fill="#009900" points="239.19,246.1669,243.19,237.1669,239.19,241.1669,235.19,237.1669,239.19,246.1669" style="stroke:#009900;stroke-width:1;"/><path d="M244.19,198.2969 L244.19,223.2969 L525.19,223.2969 L525.19,208.2969 L515.19,198.2969 L244.19,198.2969" fill="#FFFFE0" style="stroke:#B0B060;stroke-width:0.5;"/><path d="M515.19,198.2969 L515.19,208.2969 L525.19,208.2969 L515.19,198.2969" fill="#FFFFE0" style="stroke:#B0B060;stroke-width:0.5;"/><text fill="#000000" font-family="Arial" font-size="13" font-weight="bold" lengthAdjust="spacing" textLength="56.1196" x="250.19" y="215.3638">Usuario</text><text fill="#000000" font-family="Arial" font-size="13" lengthAdjust="spacing" textLength="200.6812" x="310.442" y="215.3638">solicita configurar recordatorio</text></g><!--link PasoInicial to PasoDatos--><g class="link" data-entity-1="PasoInicial" data-entity-2="PasoDatos" data-source-line="34" data-uid="lnk4" id="link_PasoInicial_PasoDatos"><path d="M239.19,296.4369 C239.19,330.6969 239.19,387.0469 239.19,421.2569" fill="none" id="PasoInicial-to-PasoDatos" style="stroke:#009900;stroke-width:1;"/><polygon fill="#009900" points="239.19,427.2569,243.19,418.2569,239.19,422.2569,235.19,418.2569,239.19,427.2569" style="stroke:#009900;stroke-width:1;"/><path d="M244.19,319.2969 L244.19,404.2969 L552.19,404.2969 L552.19,329.2969 L542.19,319.2969 L244.19,319.2969" fill="#FFFFE0" style="stroke:#B0B060;stroke-width:0.5;"/><path d="M542.19,319.2969 L542.19,329.2969 L552.19,329.2969 L542.19,319.2969" fill="#FFFFE0" style="stroke:#B0B060;stroke-width:0.5;"/><text fill="#000000" font-family="Arial" font-size="13" font-weight="bold" lengthAdjust="spacing" textLength="58.9063" x="250.19" y="336.3638">Sistema</text><text fill="#000000" font-family="Arial" font-size="13" lengthAdjust="spacing" textLength="224.2119" x="313.2286" y="336.3638">presenta opciones de recordatorio</text><text fill="#000000" font-family="Arial" font-size="13" font-weight="bold" lengthAdjust="spacing" textLength="58.9063" x="250.19" y="351.4966">Sistema</text><text fill="#000000" font-family="Arial" font-size="13" lengthAdjust="spacing" textLength="110.5952" x="313.2286" y="351.4966">permite solicitar:</text><text fill="#000000" font-family="Arial" font-size="13" lengthAdjust="spacing" textLength="269.7056" x="250.19" y="366.6294">&#8226; introducir tipo y tiempo de recordatorio</text><text fill="#000000" font-family="Arial" font-size="13" lengthAdjust="spacing" textLength="147.2656" x="250.19" y="381.7622">&#8226; guardar recordatorio</text><text fill="#000000" font-family="Arial" font-size="13" lengthAdjust="spacing" textLength="159.6372" x="250.19" y="396.895">&#8226; cancelar configuraci&#243;n</text></g><!--link PasoDatos to *end*ConfigurarRecordatorioContainer--><g class="link" data-entity-1="PasoDatos" data-entity-2=".end.ConfigurarRecordatorioContainer" data-source-line="44" data-uid="lnk6" id="link_PasoDatos_.end.ConfigurarRecordatorioContainer"><path d="M213.89,455.1769 C155.19,460.4669 18,478.5769 62.19,530.2969 C83.81,555.6069 186.9701,558.1396 222.2001,558.2996" fill="none" id="PasoDatos-to-*end*ConfigurarRecordatorioContainer" style="stroke:#008000;stroke-width:1;"/><polygon fill="#008000" points="228.2,558.3269,219.2183,554.286,223.2001,558.3042,219.1819,562.286,228.2,558.3269" style="stroke:#008000;stroke-width:1;"/><path d="M67.19,500.2969 L67.19,525.2969 L390.19,525.2969 L390.19,510.2969 L380.19,500.2969 L67.19,500.2969" fill="#FFFFE0" style="stroke:#B0B060;stroke-width:0.5;"/><path d="M380.19,500.2969 L380.19,510.2969 L390.19,510.2969 L380.19,500.2969" fill="#FFFFE0" style="stroke:#B0B060;stroke-width:0.5;"/><text fill="#000000" font-family="Arial" font-size="13" font-weight="bold" lengthAdjust="spacing" textLength="56.1196" x="73.19" y="517.3638">Usuario</text><text fill="#000000" font-family="Arial" font-size="13" lengthAdjust="spacing" textLength="241.7568" x="133.442" y="517.3638">introduce los datos y solicita guardar</text></g><!--link PasoDatos to *end*ConfigurarRecordatorioContainer--><g class="link" data-entity-1="PasoDatos" data-entity-2=".end.ConfigurarRecordatorioContainer" data-source-line="49" data-uid="lnk7" id="link_PasoDatos_.end.ConfigurarRecordatorioContainer"><path d="M264.24,456.3569 C304.16,461.8069 379.32,474.5969 395.19,495.2969 C404.65,507.6469 405.17,518.3669 395.19,530.2969 C376.56,552.5669 288.6576,556.9767 256.2276,557.8967" fill="none" id="PasoDatos-to-*end*ConfigurarRecordatorioContainer-1" style="stroke:#FF0000;stroke-width:1;"/><polygon fill="#FF0000" points="250.23,558.0669,259.3398,561.81,255.228,557.9251,259.113,553.8133,250.23,558.0669" style="stroke:#FF0000;stroke-width:1;"/><path d="M407.19,500.2969 L407.19,525.2969 L685.19,525.2969 L685.19,510.2969 L675.19,500.2969 L407.19,500.2969" fill="#FFFFE0" style="stroke:#B0B060;stroke-width:0.5;"/><path d="M675.19,500.2969 L675.19,510.2969 L685.19,510.2969 L675.19,500.2969" fill="#FFFFE0" style="stroke:#B0B060;stroke-width:0.5;"/><text fill="#000000" font-family="Arial" font-size="13" font-weight="bold" lengthAdjust="spacing" textLength="56.1196" x="413.19" y="517.3638">Usuario</text><text fill="#000000" font-family="Arial" font-size="13" lengthAdjust="spacing" textLength="197.7422" x="473.442" y="517.3638">solicita cancelar configuraci&#243;n</text></g><g id="SalidaPlanificacion"><rect fill="#FFFFFF" height="50" rx="12.5" ry="12.5" style="stroke:#000000;stroke-width:0.5;" width="195.8066" x="252.5" y="675"/><line style="stroke:#000000;stroke-width:0.5;" x1="252.5" x2="448.3066" y1="701.2969" y2="701.2969"/><text fill="#000000" font-family="sans-serif" font-size="14" lengthAdjust="spacing" textLength="175.8066" x="262.5" y="692.9951">PLANIFICACION_ABIERTO</text></g><!--link Inicio to ConfigurarRecordatorioContainer--><g class="link" data-entity-1="Inicio" data-entity-2="ConfigurarRecordatorioContainer" data-source-line="59" data-uid="lnk8" id="link_Inicio_ConfigurarRecordatorioContainer"><path d="M350.5,57.19 C350.5,72.39 350.5,87.68 350.5,111.89" fill="none" id="Inicio-to-ConfigurarRecordatorioContainer" style="stroke:#009900;stroke-width:1;"/><polygon fill="#009900" points="350.5,117.89,354.5,108.89,350.5,112.89,346.5,108.89,350.5,117.89" style="stroke:#009900;stroke-width:1;"/></g><!--link ConfigurarRecordatorioContainer to SalidaPlanificacion--><g class="link" data-entity-1="ConfigurarRecordatorioContainer" data-entity-2="SalidaPlanificacion" data-source-line="62" data-uid="lnk9" id="link_ConfigurarRecordatorioContainer_SalidaPlanificacion"><path d="M251.41,580.01 C248.77,590.05 246.45,600.07 244.5,610 C241.51,625.27 236.37,631.74 244.5,645 C252.22,657.59 258.7182,664.3182 271.5382,671.8582" fill="none" id="ConfigurarRecordatorioContainer-to-SalidaPlanificacion" style="stroke:#008000;stroke-width:1;"/><polygon fill="#008000" points="276.71,674.9,270.9801,666.8895,272.4002,672.3652,266.9244,673.7852,276.71,674.9" style="stroke:#008000;stroke-width:1;"/><path d="M249.5,615 L249.5,640 L405.5,640 L405.5,625 L395.5,615 L249.5,615" fill="#FFFFE0" style="stroke:#B0B060;stroke-width:0.5;"/><path d="M395.5,615 L395.5,625 L405.5,625 L395.5,615" fill="#FFFFE0" style="stroke:#B0B060;stroke-width:0.5;"/><text fill="#000000" font-family="Arial" font-size="13" lengthAdjust="spacing" textLength="135.4653" x="255.5" y="632.0669">guardar recordatorio</text></g><!--link ConfigurarRecordatorioContainer to SalidaPlanificacion--><g class="link" data-entity-1="ConfigurarRecordatorioContainer" data-entity-2="SalidaPlanificacion" data-source-line="68" data-uid="lnk10" id="link_ConfigurarRecordatorioContainer_SalidaPlanificacion"><path d="M429.41,580.38 C428.5,602.67 424,624.56 414.5,645 C409.11,656.6 404.4774,662.7786 394.6674,670.9186" fill="none" id="ConfigurarRecordatorioContainer-to-SalidaPlanificacion-1" style="stroke:#FF0000;stroke-width:1;"/><polygon fill="#FF0000" points="390.05,674.75,399.5304,672.0812,393.8978,671.5572,394.4219,665.9247,390.05,674.75" style="stroke:#FF0000;stroke-width:1;"/><path d="M429.5,615 L429.5,640 L597.5,640 L597.5,625 L587.5,615 L429.5,615" fill="#FFFFE0" style="stroke:#B0B060;stroke-width:0.5;"/><path d="M587.5,615 L587.5,625 L597.5,625 L587.5,615" fill="#FFFFE0" style="stroke:#B0B060;stroke-width:0.5;"/><text fill="#000000" font-family="Arial" font-size="13" lengthAdjust="spacing" textLength="147.8369" x="435.5" y="632.0669">cancelar configuraci&#243;n</text></g><!--SRC=[bLJ1QXin4BtlLmpn8OaXiAT2UYZOMmSC9Gbsqnv2A6Dfx2ZHQXP99Wsbq6_fB_GJ-YVzaivgrsiJsusx5yDezDwRzpGEZyPLwB64aXshUyybmHnje2nqH-4UDJ-rvSWLH8OPnyWbQED9HSCks-oF60c-PI3V4DNZmlFIwO8jU_XyRo8r9-mr-QOwjDAMgWFl-QafzlBy_3pFKtaQqSUNlQCLQ5Fwlgd1yLu9lGlvHlcMYDum7-Plcle5ktY9uiN06xGrz36CP2xD0JG9S_Ie4Kv4hfdXQTQCV7JzON0vlXWNWs9yTVbbC1oF9X-lZW03Z9rHXckOGg39aHP6JHOA35n3tWHUeIXsSxDOUlGJKY8G8tl39wS9gDXvM8EYSUJRcVUcL1-sD93mheK_YPCnTnw-5uRGNBpjty7PsRkjEybiTc2DQvAfltx_9YnHjFNx4DXATqHOZmP-GtwwH4udf8PhWwFZRAJyWt5gGgGIXR7o54Wy0Qx4TqSfjYtAhLlaItcVdLx_jclxy-Cd68cTzL8P3z5K3C_oGsN5Ux7hIminGU-QTzMWq2coqj6PeyplNsw79ySmN2fBDPqcPKBTLeiYxxWpBPa4PxUzXIToTsATn7POJAlv26pzpXFGypgyTf8zONMydlH_iQuVno56l5p5ALgJDd663tp08ZRzrnQTcHk5Acr5sahwsZsKkLq-SDRiR7fzhsnTZT0A4HJnGGHz8lbhESrUszVDe7Pfsx9lvtjQnz49aJ5QGvEBS3BX1pn8JnlWGMhsPROIz1S0]--></g></svg>