<svg xmlns="http://www.w3.org/2000/svg" xmlns:xlink="http://www.w3.org/1999/xlink" contentStyleType="text/css" data-diagram-type="STATE" height="631px" preserveAspectRatio="none" style="width:409px;height:631px;background:#FFFFFF;" version="1.1" viewBox="0 0 409 631" width="409px" zoomAndPan="magnify"><defs/><g><rect fill="#F1F1F1" height="40" rx="12.5" ry="12.5" style="stroke:#181818;stroke-width:0.5;" width="185.8066" x="108.5" y="7"/><text fill="#000000" font-family="sans-serif" font-size="14" lengthAdjust="spacing" textLength="175.8066" x="113.5" y="31.8467">PLANIFICACION_ABIERTO</text><path d="M19.5,108 L383.5,108 A12.5,12.5 0 0 1 396,120.5 L396,134.2969 L7,134.2969 L7,120.5 A12.5,12.5 0 0 1 19.5,108" fill="#F1F1F1"/><rect fill="none" height="382.2969" rx="12.5" ry="12.5" style="stroke:#181818;stroke-width:0.5;" width="389" x="7" y="108"/><line style="stroke:#181818;stroke-width:0.5;" x1="7" x2="396" y1="134.2969" y2="134.2969"/><text fill="#000000" font-family="sans-serif" font-size="14" lengthAdjust="spacing" textLength="172.8193" x="115.0903" y="125.9951">configurarRecordatorio()</text><rect fill="#F1F1F1" height="40" rx="12.5" ry="12.5" style="stroke:#181818;stroke-width:0.5;" width="50" x="19" y="236.2969"/><text fill="#000000" font-family="sans-serif" font-size="14" lengthAdjust="spacing" textLength="4.4502" x="41.7749" y="261.1436">&#160;</text><rect fill="#F1F1F1" height="40" rx="12.5" ry="12.5" style="stroke:#181818;stroke-width:0.5;" width="50" x="19" y="347.2969"/><text fill="#000000" font-family="sans-serif" font-size="14" lengthAdjust="spacing" textLength="4.4502" x="41.7749" y="372.1436">&#160;</text><ellipse cx="44" cy="155.2969" fill="#222222" rx="10" ry="10" style="stroke:#222222;stroke-width:1;"/><ellipse cx="44" cy="469.2969" fill="none" rx="11" ry="11" style="stroke:#222222;stroke-width:1;"/><ellipse cx="44" cy="469.2969" fill="#222222" rx="6" ry="6" style="stroke:#222222;stroke-width:1;"/><!--link *start*configurarRecordatorio to DefiniendoRecordatorio--><g class="link" data-entity-1=".start.configurarRecordatorio" data-entity-2="DefiniendoRecordatorio" data-source-line="12" data-uid="lnk4" id="link_.start.configurarRecordatorio_DefiniendoRecordatorio"><path d="M44,165.4369 C44,181.4169 44,208.7869 44,230.0669" fill="none" id="*start*configurarRecordatorio-to-DefiniendoRecordatorio" style="stroke:#008000;stroke-width:1;"/><polygon fill="#008000" points="44,236.0669,48,227.0669,44,231.0669,40,227.0669,44,236.0669" style="stroke:#008000;stroke-width:1;"/><path d="M49,188.2969 L49,213.2969 L387,213.2969 L387,198.2969 L377,188.2969 L49,188.2969" fill="#FEFFDD" style="stroke:#181818;stroke-width:0.5;"/><path d="M377,188.2969 L377,198.2969 L387,198.2969 L377,188.2969" fill="#FEFFDD" style="stroke:#181818;stroke-width:0.5;"/><text fill="#000000" font-family="sans-serif" font-size="13" font-weight="bold" lengthAdjust="spacing" textLength="56.1196" x="55" y="205.3638">Usuario</text><text fill="#000000" font-family="sans-serif" font-size="13" lengthAdjust="spacing" textLength="256.9468" x="115.252" y="205.3638">introduce tipo y tiempo de recordatorio</text></g><!--link DefiniendoRecordatorio to ConfirmandoRecordatorio--><g class="link" data-entity-1="DefiniendoRecordatorio" data-entity-2="ConfirmandoRecordatorio" data-source-line="17" data-uid="lnk5" id="link_DefiniendoRecordatorio_ConfirmandoRecordatorio"><path d="M44,276.5369 C44,296.4569 44,321.3969 44,341.2569" fill="none" id="DefiniendoRecordatorio-to-ConfirmandoRecordatorio" style="stroke:#008000;stroke-width:1;"/><polygon fill="#008000" points="44,347.2569,48,338.2569,44,342.2569,40,338.2569,44,347.2569" style="stroke:#008000;stroke-width:1;"/><path d="M49,299.2969 L49,324.2969 L356,324.2969 L356,309.2969 L346,299.2969 L49,299.2969" fill="#FEFFDD" style="stroke:#181818;stroke-width:0.5;"/><path d="M346,299.2969 L346,309.2969 L356,309.2969 L346,299.2969" fill="#FEFFDD" style="stroke:#181818;stroke-width:0.5;"/><text fill="#000000" font-family="sans-serif" font-size="13" font-weight="bold" lengthAdjust="spacing" textLength="58.9063" x="55" y="316.3638">Sistema</text><text fill="#000000" font-family="sans-serif" font-size="13" lengthAdjust="spacing" textLength="223.5645" x="118.0386" y="316.3638">muestra resumen del recordatorio</text></g><!--link ConfirmandoRecordatorio to *end*configurarRecordatorio--><g class="link" data-entity-1="ConfirmandoRecordatorio" data-entity-2=".end.configurarRecordatorio" data-source-line="22" data-uid="lnk7" id="link_ConfirmandoRecordatorio_.end.configurarRecordatorio"><path d="M44,387.5769 C44,408.6869 44,435.7369 44,452.2269" fill="none" id="ConfirmandoRecordatorio-to-*end*configurarRecordatorio" style="stroke:#008000;stroke-width:1;"/><polygon fill="#008000" points="44,458.2269,48,449.2269,44,453.2269,40,449.2269,44,458.2269" style="stroke:#008000;stroke-width:1;"/><path d="M49,410.2969 L49,435.2969 L263,435.2969 L263,420.2969 L253,410.2969 L49,410.2969" fill="#FEFFDD" style="stroke:#181818;stroke-width:0.5;"/><path d="M253,410.2969 L253,420.2969 L263,420.2969 L253,410.2969" fill="#FEFFDD" style="stroke:#181818;stroke-width:0.5;"/><text fill="#000000" font-family="sans-serif" font-size="13" font-weight="bold" lengthAdjust="spacing" textLength="58.9063" x="55" y="427.3638">Sistema</text><text fill="#000000" font-family="sans-serif" font-size="13" lengthAdjust="spacing" textLength="130.1206" x="118.0386" y="427.3638">guarda recordatorio</text></g><rect fill="#F1F1F1" height="40" rx="12.5" ry="12.5" style="stroke:#181818;stroke-width:0.5;" width="185.8066" x="108.5" y="585"/><text fill="#000000" font-family="sans-serif" font-size="14" lengthAdjust="spacing" textLength="175.8066" x="113.5" y="609.8467">PLANIFICACION_ABIERTO</text><!--link in1 to configurarRecordatorio--><g class="link" data-entity-1="in1" data-entity-2="configurarRecordatorio" data-source-line="5" data-uid="lnk2" id="link_in1_configurarRecordatorio"><path d="M201.5,47.42 C201.5,61.93 201.5,77.4 201.5,101.78" fill="none" id="in1-to-configurarRecordatorio" style="stroke:#008000;stroke-width:1;"/><polygon fill="#008000" points="201.5,107.78,205.5,98.78,201.5,102.78,197.5,98.78,201.5,107.78" style="stroke:#008000;stroke-width:1;"/></g><!--link configurarRecordatorio to PLANIFICACION_ABIERTO--><g class="link" data-entity-1="configurarRecordatorio" data-entity-2="PLANIFICACION_ABIERTO" data-source-line="28" data-uid="lnk9" id="link_configurarRecordatorio_PLANIFICACION_ABIERTO"><path d="M201.5,490.37 C201.5,529.14 201.5,558.34 201.5,578.97" fill="none" id="configurarRecordatorio-to-PLANIFICACION_ABIERTO" style="stroke:#008000;stroke-width:1;"/><polygon fill="#008000" points="201.5,584.97,205.5,575.97,201.5,579.97,197.5,575.97,201.5,584.97" style="stroke:#008000;stroke-width:1;"/><path d="M206.5,525 L206.5,550 L359.5,550 L359.5,535 L349.5,525 L206.5,525" fill="#FEFFDD" style="stroke:#181818;stroke-width:0.5;"/><path d="M349.5,525 L349.5,535 L359.5,535 L349.5,525" fill="#FEFFDD" style="stroke:#181818;stroke-width:0.5;"/><text fill="#000000" font-family="sans-serif" font-size="13" lengthAdjust="spacing" textLength="132.4502" x="212.5" y="542.0669">Recordatorio creado</text></g><!--SRC=[ZPBHIyCm4CRVyrSSzKM58RwFGfqA1TbawjCOaZMtUgp9XIHzAEB_Rjenw5mxbvUGt9VlVlUHBr88g6reGA4l7Db0R8JVaR7IIGqL6GoDHR1SDUr121zaG21p3z93ylgIpVFdV9RDyiNyCtl8dvRlYqIqvSdggdI8PZr9eM2pfR9sqYsnOATaO4TyC1kkTlx3fUkR1Bw5WBZs3e-u9KDe59yuGDBJpLexf-M8i5EkRjT7xCFUdTHmz6JJnhJhBjertQGVlfPHCxtRf36fu5ZL1K8Woz34BIRECN1mV_rYayvp3p8oL9zjP9wpS6_a0shPmUaQVN0oalXQeubGrNzKOn7siMA45oEKCIebptJz4MBaW_HR3dv4SG9mzBvmA1MBGwTV]--></g></svg>