<svg xmlns="http://www.w3.org/2000/svg" xmlns:xlink="http://www.w3.org/1999/xlink" contentStyleType="text/css" data-diagram-type="STATE" height="348px" preserveAspectRatio="none" style="width:315px;height:348px;background:#FFFFFF;" version="1.1" viewBox="0 0 315 348" width="315px" zoomAndPan="magnify"><defs/><g><rect fill="#F1F1F1" height="40" rx="12.5" ry="12.5" style="stroke:#181818;stroke-width:0.5;" width="60.1758" x="93.66" y="87"/><text fill="#000000" font-family="sans-serif" font-size="14" lengthAdjust="spacing" textLength="50.1758" x="98.66" y="111.8467">Creado</text><rect fill="#F1F1F1" height="40" rx="12.5" ry="12.5" style="stroke:#181818;stroke-width:0.5;" width="80.5537" x="83.47" y="219"/><text fill="#000000" font-family="sans-serif" font-size="14" lengthAdjust="spacing" textLength="70.5537" x="88.47" y="243.8467">Finalizado</text><ellipse cx="123.75" cy="16" fill="#222222" rx="10" ry="10" style="stroke:#222222;stroke-width:1;"/><ellipse cx="123.75" cy="331" fill="none" rx="11" ry="11" style="stroke:#222222;stroke-width:1;"/><ellipse cx="123.75" cy="331" fill="#222222" rx="6" ry="6" style="stroke:#222222;stroke-width:1;"/><!--link *start* to Creado--><g class="link" data-entity-1=".start." data-entity-2="Creado" data-link-type="dependency" data-source-line="6" data-uid="lnk3" id="link_.start._Creado"><path d="M123.75,26.19 C123.75,40.4 123.75,62.02 123.75,80.74" fill="none" id="*start*-to-Creado" style="stroke:#181818;stroke-width:1;"/><polygon fill="#181818" points="123.75,86.74,127.75,77.74,123.75,81.74,119.75,77.74,123.75,86.74" style="stroke:#181818;stroke-width:1;"/></g><!--link Creado to Finalizado--><g class="link" data-entity-1="Creado" data-entity-2="Finalizado" data-link-type="dependency" data-source-line="8" data-uid="lnk4" id="link_Creado_Finalizado"><path d="M93.37,112.33 C67.29,117.83 31.22,130.08 13.75,157 C6,168.93 6,177.07 13.75,189 C29,212.5 52.6242,223.3059 77.2042,229.7159" fill="none" id="Creado-to-Finalizado" style="stroke:#181818;stroke-width:1;"/><polygon fill="#181818" points="83.01,231.23,75.3106,225.0884,78.1718,229.9683,73.2919,232.8295,83.01,231.23" style="stroke:#181818;stroke-width:1;"/><text fill="#000000" font-family="sans-serif" font-size="13" lengthAdjust="spacing" textLength="169.6348" x="14.75" y="170.0669">Hora de env&#237;o alcanzada /</text><text fill="#000000" font-family="sans-serif" font-size="13" lengthAdjust="spacing" textLength="132.501" x="35.3831" y="185.1997">Notificaci&#243;n enviada</text></g><!--link Creado to Finalizado--><g class="link" data-entity-1="Creado" data-entity-2="Finalizado" data-link-type="dependency" data-source-line="10" data-uid="lnk5" id="link_Creado_Finalizado"><path d="M154.27,121.33 C168.73,129.39 184.59,141.2 192.75,157 C199.27,169.64 199.27,176.36 192.75,189 C186.41,201.27 180.4243,207.8148 169.0543,215.3848" fill="none" id="Creado-to-Finalizado-1" style="stroke:#181818;stroke-width:1;"/><polygon fill="#181818" points="164.06,218.71,173.7683,217.0518,168.2219,215.939,169.3347,210.3927,164.06,218.71" style="stroke:#181818;stroke-width:1;"/><text fill="#000000" font-family="sans-serif" font-size="13" lengthAdjust="spacing" textLength="109.5732" x="197.75" y="177.5669">Tarea Cancelada</text></g><!--link Finalizado to *end*--><g class="link" data-entity-1="Finalizado" data-entity-2=".end." data-link-type="dependency" data-source-line="12" data-uid="lnk7" id="link_Finalizado_.end."><path d="M123.75,259.09 C123.75,277.66 123.75,299.17 123.75,313.87" fill="none" id="Finalizado-to-*end*" style="stroke:#181818;stroke-width:1;"/><polygon fill="#181818" points="123.75,319.87,127.75,310.87,123.75,314.87,119.75,310.87,123.75,319.87" style="stroke:#181818;stroke-width:1;"/></g><!--SRC=[TOux2W8n48RxdE9dIs6njx1P42ihExKOaX47ucJ91a7lPEKHzc8ckuIriPh7zytZ9ex1zpuzuNYmKVeaGOqP4YL6qqKc5nhGW3cjO2TANbuLBgKnfzK5RRkj0sQEKslHiC4-H4Avhe_n7K3UacP4MEEiXv3aAfQiZ1yjYcJoVzUHCa17QjbFuWyjSlxf2m00]--></g></svg>