<svg xmlns="http://www.w3.org/2000/svg" xmlns:xlink="http://www.w3.org/1999/xlink" contentStyleType="text/css" data-diagram-type="STATE" height="450px" preserveAspectRatio="none" style="width:568px;height:450px;background:#FFFFFF;" version="1.1" viewBox="0 0 568 450" width="568px" zoomAndPan="magnify"><defs/><g><rect fill="#F1F1F1" height="40" rx="12.5" ry="12.5" style="stroke:#181818;stroke-width:0.5;" width="138.208" x="127.75" y="87"/><text fill="#000000" font-family="sans-serif" font-size="14" lengthAdjust="spacing" textLength="128.208" x="132.75" y="111.8467">Detectado/Abierto</text><rect fill="#F1F1F1" height="40" rx="12.5" ry="12.5" style="stroke:#181818;stroke-width:0.5;" width="182.6826" x="105.51" y="204"/><text fill="#000000" font-family="sans-serif" font-size="14" lengthAdjust="spacing" textLength="172.6826" x="110.51" y="228.8467">Pendiente de Resoluci&#243;n</text><rect fill="#F1F1F1" height="40" rx="12.5" ry="12.5" style="stroke:#181818;stroke-width:0.5;" width="71.0654" x="103.32" y="321"/><text fill="#000000" font-family="sans-serif" font-size="14" lengthAdjust="spacing" textLength="61.0654" x="108.32" y="345.8467">Resuelto</text><rect fill="#F1F1F1" height="40" rx="12.5" ry="12.5" style="stroke:#181818;stroke-width:0.5;" width="90.2402" x="262.73" y="321"/><text fill="#000000" font-family="sans-serif" font-size="14" lengthAdjust="spacing" textLength="80.2402" x="267.73" y="345.8467">Descartado</text><ellipse cx="196.85" cy="16" fill="#222222" rx="10" ry="10" style="stroke:#222222;stroke-width:1;"/><ellipse cx="195.85" cy="433" fill="none" rx="11" ry="11" style="stroke:#222222;stroke-width:1;"/><ellipse cx="195.85" cy="433" fill="#222222" rx="6" ry="6" style="stroke:#222222;stroke-width:1;"/><!--link *start* to Detectado--><g class="link" data-entity-1=".start." data-entity-2="Detectado" data-link-type="dependency" data-source-line="8" data-uid="lnk3" id="link_.start._Detectado"><path d="M196.85,26.19 C196.85,40.4 196.85,62.02 196.85,80.74" fill="none" id="*start*-to-Detectado" style="stroke:#181818;stroke-width:1;"/><polygon fill="#181818" points="196.85,86.74,200.85,77.74,196.85,81.74,192.85,77.74,196.85,86.74" style="stroke:#181818;stroke-width:1;"/></g><!--link Detectado to Pendiente--><g class="link" data-entity-1="Detectado" data-entity-2="Pendiente" data-link-type="dependency" data-source-line="10" data-uid="lnk4" id="link_Detectado_Pendiente"><path d="M196.85,127.25 C196.85,148.48 196.85,176.44 196.85,197.69" fill="none" id="Detectado-to-Pendiente" style="stroke:#181818;stroke-width:1;"/><polygon fill="#181818" points="196.85,203.69,200.85,194.69,196.85,198.69,192.85,194.69,196.85,203.69" style="stroke:#181818;stroke-width:1;"/><text fill="#000000" font-family="sans-serif" font-size="13" lengthAdjust="spacing" textLength="149.2842" x="197.85" y="170.0669">Notificaci&#243;n de usuario</text></g><!--link Pendiente to Resuelto--><g class="link" data-entity-1="Pendiente" data-entity-2="Resuelto" data-link-type="dependency" data-source-line="12" data-uid="lnk5" id="link_Pendiente_Resuelto"><path d="M105.03,241.59 C71.31,249.71 38.88,260.63 28.85,274 C6,304.47 56.9175,322.3142 97.1275,331.7142" fill="none" id="Pendiente-to-Resuelto" style="stroke:#181818;stroke-width:1;"/><polygon fill="#181818" points="102.97,333.08,95.1168,327.1363,98.1013,331.9418,93.2957,334.9263,102.97,333.08" style="stroke:#181818;stroke-width:1;"/><text fill="#000000" font-family="sans-serif" font-size="13" lengthAdjust="spacing" textLength="288.7739" x="29.85" y="287.0669">Acci&#243;n de resoluci&#243;n (reprogramar, delegar)</text></g><!--link Pendiente to Descartado--><g class="link" data-entity-1="Pendiente" data-entity-2="Descartado" data-link-type="dependency" data-source-line="13" data-uid="lnk6" id="link_Pendiente_Descartado"><path d="M286.96,244.46 C301.11,251.48 313.97,261.02 322.85,274 C332.27,287.77 329.2794,301.1866 322.3794,315.2066" fill="none" id="Pendiente-to-Descartado" style="stroke:#181818;stroke-width:1;"/><polygon fill="#181818" points="319.73,320.59,327.2931,314.2813,321.9379,316.1039,320.1153,310.7487,319.73,320.59" style="stroke:#181818;stroke-width:1;"/><text fill="#000000" font-family="sans-serif" font-size="13" lengthAdjust="spacing" textLength="232.8638" x="327.85" y="287.0669">Tarea afectada Cancelada/Ignorada</text></g><!--link Resuelto to *end*--><g class="link" data-entity-1="Resuelto" data-entity-2=".end." data-link-type="dependency" data-source-line="15" data-uid="lnk8" id="link_Resuelto_.end."><path d="M150.94,361.09 C163.1,380.28 178.0907,403.9504 187.1307,418.2304" fill="none" id="Resuelto-to-*end*" style="stroke:#181818;stroke-width:1;"/><polygon fill="#181818" points="190.34,423.3,188.9058,413.5561,187.6656,419.0754,182.1463,417.8352,190.34,423.3" style="stroke:#181818;stroke-width:1;"/></g><!--link Descartado to *end*--><g class="link" data-entity-1="Descartado" data-entity-2=".end." data-link-type="dependency" data-source-line="16" data-uid="lnk9" id="link_Descartado_.end."><path d="M283.82,361.31 C258.76,381.45 225.5059,408.1602 208.8659,421.5402" fill="none" id="Descartado-to-*end*" style="stroke:#181818;stroke-width:1;"/><polygon fill="#181818" points="204.19,425.3,213.7104,422.7775,208.0866,422.1668,208.6973,416.543,204.19,425.3" style="stroke:#181818;stroke-width:1;"/></g><!--SRC=[NL5BJiD03DtFAInMBQ904I3K1UAFA2qWe6mG2tVYXX699_BC5FLS786BuLGaGUpyUJ_BxouZeBAAAyWeM75LT9wD2H4ZmSO5HR8HCxzpEdSaqMy01cYd3Uo1E7F4MghQ8mLV9Ek-ltYDRfSDMW69Yb-jfkaSWqMfnN-jcjQOryqt60oE_zYRjbmlkXWZkFFHBPp5TOuwLWe9nIcdGzMSnbyffxO5ItS3z8GgyRbWYRAbou9obFu_cIwd2ZsZ408krj4Gpf4j5LhjtEJiHGjZMjkQh8UPFmBDo9oeHIghGZCNo74sdS2I9EY3OBYzjxjti3qSpYdYGM_67-m_6QmlArSGH5TIt_Ik7oOGV1AhZt4XYfkd-hrzCyObmcFY6ZU2-ufuV77R3E2IbquybtgT6RzCEy3X_k3CHNWYqHpmCjNK2qn5L8RrcUDy1BFdgy6HcI3d2NFL9ZRdNdLbfRkd7m00]--></g></svg>