<svg xmlns="http://www.w3.org/2000/svg" xmlns:xlink="http://www.w3.org/1999/xlink" contentStyleType="text/css" data-diagram-type="STATE" height="450px" preserveAspectRatio="none" style="width:651px;height:450px;background:#FFFFFF;" version="1.1" viewBox="0 0 651 450" width="651px" zoomAndPan="magnify"><defs/><g><rect fill="#F1F1F1" height="40" rx="12.5" ry="12.5" style="stroke:#181818;stroke-width:0.5;" width="60.1895" x="225" y="87"/><text fill="#000000" font-family="sans-serif" font-size="14" lengthAdjust="spacing" textLength="50.1895" x="230" y="111.8467">Creada</text><rect fill="#F1F1F1" height="40" rx="12.5" ry="12.5" style="stroke:#181818;stroke-width:0.5;" width="80.2939" x="215" y="204"/><text fill="#000000" font-family="sans-serif" font-size="14" lengthAdjust="spacing" textLength="70.2939" x="220" y="228.8467">Pendiente</text><rect fill="#F1F1F1" height="40" rx="12.5" ry="12.5" style="stroke:#181818;stroke-width:0.5;" width="76.3086" x="7" y="321"/><text fill="#000000" font-family="sans-serif" font-size="14" lengthAdjust="spacing" textLength="66.3086" x="12" y="345.8467">Aceptada</text><rect fill="#F1F1F1" height="40" rx="12.5" ry="12.5" style="stroke:#181818;stroke-width:0.5;" width="86.8838" x="139.5" y="321"/><text fill="#000000" font-family="sans-serif" font-size="14" lengthAdjust="spacing" textLength="76.8838" x="144.5" y="345.8467">Rechazada</text><rect fill="#F1F1F1" height="40" rx="12.5" ry="12.5" style="stroke:#181818;stroke-width:0.5;" width="79.8564" x="287" y="321"/><text fill="#000000" font-family="sans-serif" font-size="14" lengthAdjust="spacing" textLength="69.8564" x="292" y="345.8467">Caducada</text><rect fill="#F1F1F1" height="40" rx="12.5" ry="12.5" style="stroke:#181818;stroke-width:0.5;" width="83.4727" x="440.5" y="321"/><text fill="#000000" font-family="sans-serif" font-size="14" lengthAdjust="spacing" textLength="73.4727" x="445.5" y="345.8467">Cancelada</text><ellipse cx="255" cy="16" fill="#222222" rx="10" ry="10" style="stroke:#222222;stroke-width:1;"/><ellipse cx="235" cy="433" fill="none" rx="11" ry="11" style="stroke:#222222;stroke-width:1;"/><ellipse cx="235" cy="433" fill="#222222" rx="6" ry="6" style="stroke:#222222;stroke-width:1;"/><!--link *start* to Creada--><g class="link" data-entity-1=".start." data-entity-2="Creada" data-source-line="10" data-uid="lnk3" id="link_.start._Creada"><path d="M255,26.19 C255,40.4 255,62.02 255,80.74" fill="none" id="*start*-to-Creada" style="stroke:#181818;stroke-width:1;"/><polygon fill="#181818" points="255,86.74,259,77.74,255,81.74,251,77.74,255,86.74" style="stroke:#181818;stroke-width:1;"/></g><!--link Creada to Pendiente--><g class="link" data-entity-1="Creada" data-entity-2="Pendiente" data-source-line="12" data-uid="lnk4" id="link_Creada_Pendiente"><path d="M255,127.25 C255,148.48 255,176.44 255,197.69" fill="none" id="Creada-to-Pendiente" style="stroke:#181818;stroke-width:1;"/><polygon fill="#181818" points="255,203.69,259,194.69,255,198.69,251,194.69,255,203.69" style="stroke:#181818;stroke-width:1;"/><text fill="#000000" font-family="sans-serif" font-size="13" lengthAdjust="spacing" textLength="108.3735" x="256" y="170.0669">Enviar invitaci&#243;n</text></g><!--link Pendiente to Aceptada--><g class="link" data-entity-1="Pendiente" data-entity-2="Aceptada" data-source-line="13" data-uid="lnk5" id="link_Pendiente_Aceptada"><path d="M214.83,228.11 C157.84,233.45 57.98,246.56 36,274 C25.52,287.09 27.5984,300.9385 33.2784,315.3385" fill="none" id="Pendiente-to-Aceptada" style="stroke:#181818;stroke-width:1;"/><polygon fill="#181818" points="35.48,320.92,35.8986,311.08,33.6453,316.2688,28.4566,314.0155,35.48,320.92" style="stroke:#181818;stroke-width:1;"/><text fill="#000000" font-family="sans-serif" font-size="13" lengthAdjust="spacing" textLength="118.0029" x="37" y="287.0669">Aceptar invitaci&#243;n</text></g><!--link Pendiente to Rechazada--><g class="link" data-entity-1="Pendiente" data-entity-2="Rechazada" data-source-line="14" data-uid="lnk6" id="link_Pendiente_Rechazada"><path d="M214.96,237.16 C197.29,244.75 178.23,256.49 168,274 C159.58,288.41 162.5343,301.7257 169.1343,315.5457" fill="none" id="Pendiente-to-Rechazada" style="stroke:#181818;stroke-width:1;"/><polygon fill="#181818" points="171.72,320.96,171.451,311.1148,169.5653,316.4481,164.232,314.5624,171.72,320.96" style="stroke:#181818;stroke-width:1;"/><text fill="#000000" font-family="sans-serif" font-size="13" lengthAdjust="spacing" textLength="127.8228" x="169" y="287.0669">Rechazar invitaci&#243;n</text></g><!--link Pendiente to Cancelada--><g class="link" data-entity-1="Pendiente" data-entity-2="Cancelada" data-source-line="15" data-uid="lnk7" id="link_Pendiente_Cancelada"><path d="M295.16,225.98 C337.14,228.95 402.93,239.33 447,274 C461.98,285.79 469.3162,300.1374 474.5362,315.0374" fill="none" id="Pendiente-to-Cancelada" style="stroke:#181818;stroke-width:1;"/><polygon fill="#181818" points="476.52,320.7,477.3193,310.8836,474.8668,315.9812,469.7693,313.5287,476.52,320.7" style="stroke:#181818;stroke-width:1;"/><text fill="#000000" font-family="sans-serif" font-size="13" lengthAdjust="spacing" textLength="180.5908" x="463" y="287.0669">Cancelar invitaci&#243;n (Admin)</text></g><!--link Pendiente to Caducada--><g class="link" data-entity-1="Pendiente" data-entity-2="Caducada" data-source-line="16" data-uid="lnk8" id="link_Pendiente_Caducada"><path d="M276.12,244.05 C284.67,252.58 294.13,263.16 301,274 C310.29,288.67 315.4054,301.4841 319.7754,315.1741" fill="none" id="Pendiente-to-Caducada" style="stroke:#181818;stroke-width:1;"/><polygon fill="#181818" points="321.6,320.89,322.6737,311.0998,320.0795,316.1268,315.0526,313.5326,321.6,320.89" style="stroke:#181818;stroke-width:1;"/><text fill="#000000" font-family="sans-serif" font-size="13" lengthAdjust="spacing" textLength="127.2134" x="311" y="287.0669">Expirar fecha l&#237;mite</text></g><!--link Aceptada to *end*--><g class="link" data-entity-1="Aceptada" data-entity-2=".end." data-source-line="18" data-uid="lnk10" id="link_Aceptada_.end."><path d="M83.45,360.21 C128.34,381.48 194.2972,412.7222 219.9772,424.8822" fill="none" id="Aceptada-to-*end*" style="stroke:#181818;stroke-width:1;"/><polygon fill="#181818" points="225.4,427.45,218.9777,419.9831,220.881,425.3102,215.554,427.2135,225.4,427.45" style="stroke:#181818;stroke-width:1;"/></g><!--link Rechazada to *end*--><g class="link" data-entity-1="Rechazada" data-entity-2=".end." data-source-line="19" data-uid="lnk11" id="link_Rechazada_.end."><path d="M194.03,361.09 C205,380.08 218.3703,403.2037 226.7003,417.6337" fill="none" id="Rechazada-to-*end*" style="stroke:#181818;stroke-width:1;"/><polygon fill="#181818" points="229.7,422.83,228.6647,413.0357,227.2003,418.4997,221.7362,417.0353,229.7,422.83" style="stroke:#181818;stroke-width:1;"/></g><!--link Cancelada to *end*--><g class="link" data-entity-1="Cancelada" data-entity-2=".end." data-source-line="20" data-uid="lnk12" id="link_Cancelada_.end."><path d="M440.38,357.17 C381.53,378.61 283.187,414.4348 250.657,426.2948" fill="none" id="Cancelada-to-*end*" style="stroke:#181818;stroke-width:1;"/><polygon fill="#181818" points="245.02,428.35,254.8457,429.0252,249.7175,426.6373,252.1054,421.5092,245.02,428.35" style="stroke:#181818;stroke-width:1;"/></g><!--link Caducada to *end*--><g class="link" data-entity-1="Caducada" data-entity-2=".end." data-source-line="21" data-uid="lnk13" id="link_Caducada_.end."><path d="M307.49,361.09 C287.23,380.9 260.8797,406.6849 246.8197,420.4349" fill="none" id="Caducada-to-*end*" style="stroke:#181818;stroke-width:1;"/><polygon fill="#181818" points="242.53,424.63,251.7612,421.1971,246.1047,421.1341,246.1678,415.4776,242.53,424.63" style="stroke:#181818;stroke-width:1;"/></g><!--SRC=[VL1B2i8m4Dtd54DNAdW15q8Hz-9MN8Haf0Dj36qKzKwkF48lPj9a4aJeAlC-a_UOXZG2TjOzGUEWUhAEhaQ8mKc7KErwb5fM80U88mi7D9hGE9oqZ5Yk5Lh7cmnOFA9gv8lLZ7Acr3ULKnCeeb7O5ZKX8KwhCwpNMwufuZjHkHriO6_k97iW_pYfQFmOKUHWvhBU6ySvS-xktMcUi-Uwtfxc7piiQjsHMVwjnHk4-WzBlL-wX31entT7_kWYbmvsVmbHYZ5JiWkJlat45m00]--></g></svg>