<svg xmlns="http://www.w3.org/2000/svg" xmlns:xlink="http://www.w3.org/1999/xlink" contentStyleType="text/css" data-diagram-type="STATE" height="567px" preserveAspectRatio="none" style="width:533px;height:567px;background:#FFFFFF;" version="1.1" viewBox="0 0 533 567" width="533px" zoomAndPan="magnify"><defs/><g><rect fill="#F1F1F1" height="40" rx="12.5" ry="12.5" style="stroke:#181818;stroke-width:0.5;" width="60.1895" x="209.19" y="87"/><text fill="#000000" font-family="sans-serif" font-size="14" lengthAdjust="spacing" textLength="50.1895" x="214.19" y="111.8467">Creada</text><rect fill="#F1F1F1" height="40" rx="12.5" ry="12.5" style="stroke:#181818;stroke-width:0.5;" width="95.668" x="191.45" y="204"/><text fill="#000000" font-family="sans-serif" font-size="14" lengthAdjust="spacing" textLength="85.668" x="196.45" y="228.8467">Programada</text><rect fill="#F1F1F1" height="40" rx="12.5" ry="12.5" style="stroke:#181818;stroke-width:0.5;" width="98.8809" x="129.84" y="321"/><text fill="#000000" font-family="sans-serif" font-size="14" lengthAdjust="spacing" textLength="88.8809" x="134.84" y="345.8467">En ejecuci&#243;n</text><rect fill="#F1F1F1" height="40" rx="12.5" ry="12.5" style="stroke:#181818;stroke-width:0.5;" width="80.5674" x="7" y="438"/><text fill="#000000" font-family="sans-serif" font-size="14" lengthAdjust="spacing" textLength="70.5674" x="12" y="462.8467">Finalizada</text><rect fill="#F1F1F1" height="40" rx="12.5" ry="12.5" style="stroke:#181818;stroke-width:0.5;" width="83.4727" x="137.55" y="438"/><text fill="#000000" font-family="sans-serif" font-size="14" lengthAdjust="spacing" textLength="73.4727" x="142.55" y="462.8467">Cancelada</text><ellipse cx="239.28" cy="16" fill="#222222" rx="10" ry="10" style="stroke:#222222;stroke-width:1;"/><ellipse cx="105.28" cy="550" fill="none" rx="11" ry="11" style="stroke:#222222;stroke-width:1;"/><ellipse cx="105.28" cy="550" fill="#222222" rx="6" ry="6" style="stroke:#222222;stroke-width:1;"/><!--link *start* to Creada--><g class="link" data-entity-1=".start." data-entity-2="Creada" data-link-type="dependency" data-source-line="9" data-uid="lnk3" id="link_.start._Creada"><path d="M239.28,26.19 C239.28,40.4 239.28,62.02 239.28,80.74" fill="none" id="*start*-to-Creada" style="stroke:#181818;stroke-width:1;"/><polygon fill="#181818" points="239.28,86.74,243.28,77.74,239.28,81.74,235.28,77.74,239.28,86.74" style="stroke:#181818;stroke-width:1;"/></g><!--link Creada to Programada--><g class="link" data-entity-1="Creada" data-entity-2="Programada" data-link-type="dependency" data-source-line="11" data-uid="lnk4" id="link_Creada_Programada"><path d="M239.28,127.25 C239.28,148.48 239.28,176.44 239.28,197.69" fill="none" id="Creada-to-Programada" style="stroke:#181818;stroke-width:1;"/><polygon fill="#181818" points="239.28,203.69,243.28,194.69,239.28,198.69,235.28,194.69,239.28,203.69" style="stroke:#181818;stroke-width:1;"/><text fill="#000000" font-family="sans-serif" font-size="13" lengthAdjust="spacing" textLength="179.6514" x="240.28" y="170.0669">Asignar horario/localizaci&#243;n</text></g><!--link Programada to EnEjecucion--><g class="link" data-entity-1="Programada" data-entity-2="EnEjecucion" data-link-type="dependency" data-source-line="13" data-uid="lnk5" id="link_Programada_EnEjecucion"><path d="M216.31,244.46 C207.88,252.75 199.01,263.04 193.28,274 C185.69,288.53 182.9175,300.9507 181.3175,314.6207" fill="none" id="Programada-to-EnEjecucion" style="stroke:#181818;stroke-width:1;"/><polygon fill="#181818" points="180.62,320.58,185.6391,312.106,181.2013,315.6139,177.6934,311.176,180.62,320.58" style="stroke:#181818;stroke-width:1;"/><text fill="#000000" font-family="sans-serif" font-size="13" lengthAdjust="spacing" textLength="78.2603" x="194.28" y="287.0669">Iniciar tarea</text></g><!--link Programada to Cancelada--><g class="link" data-entity-1="Programada" data-entity-2="Cancelada" data-link-type="dependency" data-source-line="14" data-uid="lnk6" id="link_Programada_Cancelada"><path d="M258.93,244.17 C266.17,252.56 273.52,263 277.28,274 C296.57,330.35 308.59,357.34 277.28,408 C265.03,427.82 247.7346,437.9121 227.1146,445.1121" fill="none" id="Programada-to-Cancelada" style="stroke:#181818;stroke-width:1;"/><polygon fill="#181818" points="221.45,447.09,231.2655,447.8995,226.1705,445.4417,228.6283,440.3467,221.45,447.09" style="stroke:#181818;stroke-width:1;"/><text fill="#000000" font-family="sans-serif" font-size="13" lengthAdjust="spacing" textLength="227.7856" x="297.28" y="345.5669">Cancelar tarea (con o sin conflicto)</text></g><!--link EnEjecucion to Finalizada--><g class="link" data-entity-1="EnEjecucion" data-entity-2="Finalizada" data-link-type="dependency" data-source-line="16" data-uid="lnk7" id="link_EnEjecucion_Finalizada"><path d="M129.52,350.99 C105.19,357.91 77.51,370.02 60.28,391 C49.61,404 46.9929,417.2622 46.6029,431.6222" fill="none" id="EnEjecucion-to-Finalizada" style="stroke:#181818;stroke-width:1;"/><polygon fill="#181818" points="46.44,437.62,50.6829,428.7319,46.5757,432.6218,42.6858,428.5147,46.44,437.62" style="stroke:#181818;stroke-width:1;"/><text fill="#000000" font-family="sans-serif" font-size="13" lengthAdjust="spacing" textLength="106.4692" x="61.28" y="404.0669">Completar tarea</text></g><!--link EnEjecucion to Cancelada--><g class="link" data-entity-1="EnEjecucion" data-entity-2="Cancelada" data-link-type="dependency" data-source-line="17" data-uid="lnk8" id="link_EnEjecucion_Cancelada"><path d="M177.63,361.34 C176.7,374.5 175.8,392.29 176.28,408 C176.59,417.88 176.8269,422.8836 177.4369,431.9436" fill="none" id="EnEjecucion-to-Cancelada" style="stroke:#181818;stroke-width:1;"/><polygon fill="#181818" points="177.84,437.93,181.2264,428.6816,177.5041,432.9413,173.2444,429.219,177.84,437.93" style="stroke:#181818;stroke-width:1;"/><text fill="#000000" font-family="sans-serif" font-size="13" lengthAdjust="spacing" textLength="95.856" x="177.28" y="404.0669">Cancelar tarea</text></g><!--link Finalizada to *end*--><g class="link" data-entity-1="Finalizada" data-entity-2=".end." data-link-type="dependency" data-source-line="19" data-uid="lnk10" id="link_Finalizada_.end."><path d="M59.58,478.09 C71.95,497.28 87.218,520.9778 96.428,535.2578" fill="none" id="Finalizada-to-*end*" style="stroke:#181818;stroke-width:1;"/><polygon fill="#181818" points="99.68,540.3,98.1634,530.5686,96.97,536.0981,91.4404,534.9047,99.68,540.3" style="stroke:#181818;stroke-width:1;"/></g><!--link Cancelada to *end*--><g class="link" data-entity-1="Cancelada" data-entity-2=".end." data-link-type="dependency" data-source-line="20" data-uid="lnk11" id="link_Cancelada_.end."><path d="M163.59,478.09 C147.64,497.49 127.4823,522.0068 115.8723,536.1168" fill="none" id="Cancelada-to-*end*" style="stroke:#181818;stroke-width:1;"/><polygon fill="#181818" points="112.06,540.75,120.8672,536.3417,115.2369,536.889,114.6896,531.2587,112.06,540.75" style="stroke:#181818;stroke-width:1;"/></g><!--SRC=[TP0zZW8n38LxdyAY0YH4Jx4IMWqI7JsYi3BUmIZZZ99GiDVQ8-p5DlEJoGXfgzZEv_TUSfUQaTiklh3cOBnqKPm2X4YHSVNfcMfQ8GKSotnnyQxnrERBqcQWKkG7cwUHtnyTc4ghSP3q9-WaIbQ-iqffPtzImtQEa3k0w_Q6kzr7JWNZEOnA5ZpWCKYZvF7kF7bnU-lCO3740bYm_UeYOjezgnX9kv6I-3iwPqdWL4yaharQTnX4CLLVLanq6u2bUAzGNjjBkBQp76UtT_X_Eu25K8-chu62JvC_]--></g></svg>