<svg xmlns="http://www.w3.org/2000/svg" xmlns:xlink="http://www.w3.org/1999/xlink" contentStyleType="text/css" data-diagram-type="STATE" height="635px" preserveAspectRatio="none" style="width:571px;height:635px;background:#FFFFFF;" version="1.1" viewBox="0 0 571 635" width="571px" zoomAndPan="magnify"><defs/><g><g id="SISTEMA_DISPONIBLE"><rect fill="#F1F1F1" height="50" rx="12.5" ry="12.5" style="stroke:#181818;stroke-width:0.5;" width="172.0654" x="173.78" y="579.3"/><line style="stroke:#181818;stroke-width:0.5;" x1="173.78" x2="345.8454" y1="605.5969" y2="605.5969"/><text fill="#000000" font-family="sans-serif" font-size="14" lengthAdjust="spacing" textLength="152.0654" x="183.78" y="597.2951">SISTEMA_DISPONIBLE</text></g><g id="TAREAS_ABIERTO"><rect fill="#F1F1F1" height="50" rx="12.5" ry="12.5" style="stroke:#181818;stroke-width:0.5;" width="143.6211" x="7" y="7"/><line style="stroke:#181818;stroke-width:0.5;" x1="7" x2="150.6211" y1="33.2969" y2="33.2969"/><text fill="#000000" font-family="sans-serif" font-size="14" lengthAdjust="spacing" textLength="123.6211" x="17" y="24.9951">TAREAS_ABIERTO</text></g><g id="GRUPOS_ABIERTO"><rect fill="#F1F1F1" height="50" rx="12.5" ry="12.5" style="stroke:#181818;stroke-width:0.5;" width="147.627" x="186" y="7"/><line style="stroke:#181818;stroke-width:0.5;" x1="186" x2="333.627" y1="33.2969" y2="33.2969"/><text fill="#000000" font-family="sans-serif" font-size="14" lengthAdjust="spacing" textLength="127.627" x="196" y="24.9951">GRUPOS_ABIERTO</text></g><g id="PLANIFICACION_ABIERTO"><rect fill="#F1F1F1" height="50" rx="12.5" ry="12.5" style="stroke:#181818;stroke-width:0.5;" width="195.8066" x="368.91" y="7"/><line style="stroke:#181818;stroke-width:0.5;" x1="368.91" x2="564.7166" y1="33.2969" y2="33.2969"/><text fill="#000000" font-family="sans-serif" font-size="14" lengthAdjust="spacing" textLength="175.8066" x="378.91" y="24.9951">PLANIFICACION_ABIERTO</text></g><path d="M120.81,134 L398.81,134 A12.5,12.5 0 0 1 411.31,146.5 L411.31,160.2969 L108.31,160.2969 L108.31,146.5 A12.5,12.5 0 0 1 120.81,134" fill="#F1F1F1"/><rect fill="none" height="368.2969" rx="12.5" ry="12.5" style="stroke:#181818;stroke-width:0.5;" width="303" x="108.31" y="134"/><line style="stroke:#181818;stroke-width:0.5;" x1="108.31" x2="411.31" y1="160.2969" y2="160.2969"/><text fill="#000000" font-family="sans-serif" font-size="14" lengthAdjust="spacing" textLength="135.6113" x="192.0043" y="151.9951">completarGestion()</text><g id="UC.N1"><rect fill="#F1F1F1" height="50" rx="12.5" ry="12.5" style="stroke:#181818;stroke-width:0.5;" width="50" x="120.31" y="228.2969"/><line style="stroke:#181818;stroke-width:0.5;" x1="120.31" x2="170.31" y1="254.5937" y2="254.5937"/><text fill="#000000" font-family="sans-serif" font-size="14" lengthAdjust="spacing" textLength="4.4502" x="143.0849" y="246.292">&#160;</text></g><g id="UC.N2"><rect fill="#F1F1F1" height="50" rx="12.5" ry="12.5" style="stroke:#181818;stroke-width:0.5;" width="50" x="120.31" y="349.2969"/><line style="stroke:#181818;stroke-width:0.5;" x1="120.31" x2="170.31" y1="375.5937" y2="375.5937"/><text fill="#000000" font-family="sans-serif" font-size="14" lengthAdjust="spacing" textLength="4.4502" x="143.0849" y="367.292">&#160;</text></g><ellipse cx="145.31" cy="181.2969" fill="#222222" rx="10" ry="10" style="stroke:#222222;stroke-width:1;"/><ellipse cx="145.31" cy="481.2969" fill="none" rx="11" ry="11" style="stroke:#222222;stroke-width:1;"/><ellipse cx="145.31" cy="481.2969" fill="#222222" rx="6" ry="6" style="stroke:#222222;stroke-width:1;"/><!--link *start*UC to N1--><g class="link" data-entity-1=".start.UC" data-entity-2="N1" data-link-type="dependency" data-source-line="12" data-uid="lnk3" id="link_.start.UC_N1"><path d="M145.31,191.7369 C145.31,200.9969 145.31,209.4869 145.31,221.9769" fill="none" id="*start*UC-to-N1" style="stroke:#008000;stroke-width:1;"/><polygon fill="#008000" points="145.31,227.9769,149.31,218.9769,145.31,222.9769,141.31,218.9769,145.31,227.9769" style="stroke:#008000;stroke-width:1;"/></g><!--link N1 to N2--><g class="link" data-entity-1="N1" data-entity-2="N2" data-link-type="dependency" data-source-line="17" data-uid="lnk4" id="link_N1_N2"><path d="M145.31,278.6669 C145.31,299.1969 145.31,322.4369 145.31,342.9569" fill="none" id="N1-to-N2" style="stroke:#008000;stroke-width:1;"/><polygon fill="#008000" points="145.31,348.9569,149.31,339.9569,145.31,343.9569,141.31,339.9569,145.31,348.9569" style="stroke:#008000;stroke-width:1;"/><path d="M150.31,301.2969 L150.31,326.2969 L392.31,326.2969 L392.31,311.2969 L382.31,301.2969 L150.31,301.2969" fill="#FEFFDD" style="stroke:#181818;stroke-width:0.5;"/><path d="M382.31,301.2969 L382.31,311.2969 L392.31,311.2969 L382.31,301.2969" fill="#FEFFDD" style="stroke:#181818;stroke-width:0.5;"/><text fill="#000000" font-family="sans-serif" font-size="13" lengthAdjust="spacing" textLength="221.5332" x="156.31" y="318.3638">Usuario solicita completar gestion</text></g><!--link N2 to *end*UC--><g class="link" data-entity-1="N2" data-entity-2=".end.UC" data-link-type="dependency" data-source-line="22" data-uid="lnk6" id="link_N2_.end.UC"><path d="M145.31,399.6469 C145.31,421.9469 145.31,447.8569 145.31,464.0369" fill="none" id="N2-to-*end*UC" style="stroke:#008000;stroke-width:1;"/><polygon fill="#008000" points="145.31,470.0369,149.31,461.0369,145.31,465.0369,141.31,461.0369,145.31,470.0369" style="stroke:#008000;stroke-width:1;"/><path d="M150.31,422.2969 L150.31,447.2969 L402.31,447.2969 L402.31,432.2969 L392.31,422.2969 L150.31,422.2969" fill="#FEFFDD" style="stroke:#181818;stroke-width:0.5;"/><path d="M392.31,422.2969 L392.31,432.2969 L402.31,432.2969 L392.31,422.2969" fill="#FEFFDD" style="stroke:#181818;stroke-width:0.5;"/><text fill="#000000" font-family="sans-serif" font-size="13" lengthAdjust="spacing" textLength="231.1753" x="156.31" y="439.3638">Sistema presenta pantalla principal</text></g><!--link TAREAS_ABIERTO to UC--><g class="link" data-entity-1="TAREAS_ABIERTO" data-entity-2="UC" data-link-type="dependency" data-source-line="28" data-uid="lnk7" id="link_TAREAS_ABIERTO_UC"><path d="M94.24,57.23 C106.08,75.82 120.4054,98.3102 139.7154,128.6102" fill="none" id="TAREAS_ABIERTO-to-UC" style="stroke:#008000;stroke-width:1;"/><polygon fill="#008000" points="142.94,133.67,141.4763,123.9305,140.2528,129.4535,134.7299,128.23,142.94,133.67" style="stroke:#008000;stroke-width:1;"/><text fill="#000000" font-family="sans-serif" font-size="13" lengthAdjust="spacing" textLength="125.9248" x="123.81" y="100.0669">completarGestion()</text></g><!--link GRUPOS_ABIERTO to UC--><g class="link" data-entity-1="GRUPOS_ABIERTO" data-entity-2="UC" data-link-type="dependency" data-source-line="29" data-uid="lnk8" id="link_GRUPOS_ABIERTO_UC"><path d="M259.81,57.23 C259.81,75.82 259.81,97.37 259.81,127.67" fill="none" id="GRUPOS_ABIERTO-to-UC" style="stroke:#008000;stroke-width:1;"/><polygon fill="#008000" points="259.81,133.67,263.81,124.67,259.81,128.67,255.81,124.67,259.81,133.67" style="stroke:#008000;stroke-width:1;"/><text fill="#000000" font-family="sans-serif" font-size="13" lengthAdjust="spacing" textLength="125.9248" x="260.81" y="100.0669">completarGestion()</text></g><!--link PLANIFICACION_ABIERTO to UC--><g class="link" data-entity-1="PLANIFICACION_ABIERTO" data-entity-2="UC" data-link-type="dependency" data-source-line="30" data-uid="lnk9" id="link_PLANIFICACION_ABIERTO_UC"><path d="M449.16,57.23 C435.62,75.82 419.0836,98.5209 397.0036,128.8209" fill="none" id="PLANIFICACION_ABIERTO-to-UC" style="stroke:#008000;stroke-width:1;"/><polygon fill="#008000" points="393.47,133.67,402.0031,128.7521,396.4147,129.6291,395.5377,124.0406,393.47,133.67" style="stroke:#008000;stroke-width:1;"/><text fill="#000000" font-family="sans-serif" font-size="13" lengthAdjust="spacing" textLength="125.9248" x="427.81" y="100.0669">completarGestion()</text></g><!--link UC to SISTEMA_DISPONIBLE--><g class="link" data-entity-1="UC" data-entity-2="SISTEMA_DISPONIBLE" data-link-type="dependency" data-source-line="32" data-uid="lnk10" id="link_UC_SISTEMA_DISPONIBLE"><path d="M259.81,502.72 C259.81,532.91 259.81,554.35 259.81,572.92" fill="none" id="UC-to-SISTEMA_DISPONIBLE" style="stroke:#008000;stroke-width:1;"/><polygon fill="#008000" points="259.81,578.92,263.81,569.92,259.81,573.92,255.81,569.92,259.81,578.92" style="stroke:#008000;stroke-width:1;"/><text fill="#000000" font-family="sans-serif" font-size="13" lengthAdjust="spacing" textLength="125.9248" x="260.81" y="545.3669">completarGestion()</text></g><!--SRC=[VP9HQy8m58NVyoikFcq3OVguXq6idGHSMwm-ZI6nXX5CSqjoPR2n_xuqMyNIuajepldEINe9OGE4S40YhE6edQf8esN-f6qZdQoXCj9xJkJquKnAL6XB_QNWyGhXpk5dWWOTh9nIbZ5FaXHCIb5kqrU-Nugoo3EnMASJa1w6SXVOyatAoprVY7IppIFSbpfmjTaLUH_iInrOh7acNaJ24v5dFNxKkLozmhenYgHRATzEvEu-XdO9V3C6yFRm3jFfCsIpTlUVWOXaCnX8yvOAHepCmxV5uA85e-qfR7V-B9r6y6XqfKd2vNZu-3i_GCeUOovspMDNkCQmhDIUL2sXSSeh6yeQ6LPZMaNRIZVINBVzCDQVSMmEF_e4mo6m_fHlegC3lfbWmMZzuGCPvNy1]--></g></svg>